<svg width="763" height="1463" viewBox="0 0 763 1463" fill="none" xmlns="http://www.w3.org/2000/svg">
<rect x="17.2705" y="63" width="5.75679" height="9.59466" fill="#211F10"/>
<rect x="118.974" y="63" width="5.75679" height="9.59466" fill="#211F10"/>
<rect x="17.2705" y="724.438" width="5.75679" height="9.59466" fill="#211F10"/>
<rect x="118.974" y="724.438" width="5.75679" height="9.59466" fill="#211F10"/>
<rect x="638.045" y="63" width="5.75679" height="9.59466" fill="#211F10"/>
<rect x="739.749" y="63" width="5.75679" height="9.59466" fill="#211F10"/>
<rect x="638.045" y="724.438" width="5.75679" height="9.59466" fill="#211F10"/>
<rect x="739.749" y="724.438" width="5.75679" height="9.59466" fill="#211F10"/>
<rect x="638.045" y="63" width="5.75679" height="9.59466" fill="#211F10"/>
<rect x="739.749" y="63" width="5.75679" height="9.59466" fill="#211F10"/>
<rect x="638.045" y="724.438" width="5.75679" height="9.59466" fill="#211F10"/>
<rect x="739.749" y="724.438" width="5.75679" height="9.59466" fill="#211F10"/>
<rect width="762.75" height="553.5" transform="translate(0 71.9385)" fill="black"/>
<rect width="726.75" height="69.75" transform="translate(18 94.4385)" fill="#211F10"/>
<path d="M47.1083 131.188H44.3583V128.438H47.1083V131.188ZM41.6083 136.688H38.8583V122.938H41.6083V136.688ZM52.6083 136.688H49.8583V122.938H52.6083V136.688ZM49.8583 122.938H41.6083V120.188H49.8583V122.938ZM49.8583 139.438H41.6083V136.688H49.8583V139.438ZM57.8441 125.688H55.0941V122.938H57.8441V125.688ZM66.0941 122.938H57.8441V120.188H66.0941V122.938ZM68.8441 128.438H66.0941V122.938H68.8441V128.438ZM66.0941 131.188H63.3441V128.438H66.0941V131.188ZM63.3441 133.938H60.5941V131.188H63.3441V133.938ZM60.5941 136.688H68.8441V139.438H55.0941V136.688H57.8441V133.938H60.5941V136.688ZM79.5799 139.438H76.8299V136.688H79.5799V139.438ZM79.5799 128.438H76.8299V125.688H79.5799V128.438ZM95.8157 131.188H93.0657V128.438H95.8157V131.188ZM90.3157 136.688H87.5657V122.938H90.3157V136.688ZM101.316 136.688H98.5657V122.938H101.316V136.688ZM98.5657 122.938H90.3157V120.188H98.5657V122.938ZM98.5657 139.438H90.3157V136.688H98.5657V139.438ZM112.052 131.188H109.302V128.438H112.052V131.188ZM106.552 136.688H103.802V122.938H106.552V136.688ZM117.552 136.688H114.802V122.938H117.552V136.688ZM114.802 122.938H106.552V120.188H114.802V122.938ZM114.802 139.438H106.552V136.688H114.802V139.438ZM150.023 128.438H147.273V122.938H150.023V128.438ZM147.273 120.188V122.938H139.023V128.438H147.273V131.188H139.023V139.438H136.273V120.188H147.273ZM155.259 128.438V139.438H152.509V120.188H155.259V122.938H158.009V128.438H155.259ZM160.759 133.938H158.009V128.438H160.759V133.938ZM163.509 122.938V120.188H166.259V139.438H163.509V128.438H160.759V122.938H163.509Z" fill="#C9FF49"/>
<path d="M290.75 136.688H301.75V139.438H288V120.188H301.75V122.938H290.75V128.438H299V131.188H290.75V136.688ZM306.986 125.688V139.438H304.236V120.188H309.736V125.688H306.986ZM312.486 133.938H309.736V125.688H312.486V133.938ZM315.236 133.938V120.188H317.986V139.438H312.486V133.938H315.236ZM325.972 122.938H320.472V120.188H334.222V122.938H328.722V139.438H325.972V122.938ZM350.457 128.438H347.707V122.938H350.457V128.438ZM350.457 139.438H347.707V136.688H350.457V139.438ZM347.707 136.688H344.957V133.938H347.707V136.688ZM347.707 120.188V122.938H339.457V128.438H347.707V131.188H344.957V133.938H342.207V131.188H339.457V139.438H336.707V120.188H347.707ZM361.193 136.688H366.693V139.438H352.943V136.688H358.443V122.938H352.943V120.188H366.693V122.938H361.193V136.688ZM371.929 136.688H382.929V139.438H369.179V120.188H382.929V122.938H371.929V128.438H380.179V131.188H371.929V136.688ZM388.165 136.688H385.415V133.938H388.165V136.688ZM396.415 139.438H388.165V136.688H396.415V139.438ZM399.165 136.688H396.415V131.188H399.165V136.688ZM396.415 122.938H388.165V120.188H396.415V122.938ZM399.165 125.688H396.415V122.938H399.165V125.688ZM388.165 128.438H385.415V122.938H388.165V128.438ZM396.415 131.188H388.165V128.438H396.415V131.188ZM420.636 136.688H428.886V139.438H417.886V120.188H428.886V122.938H420.636V128.438H428.886V131.188H420.636V136.688ZM431.636 136.688H428.886V131.188H431.636V136.688ZM431.636 128.438H428.886V122.938H431.636V128.438ZM436.872 136.688H447.872V139.438H434.122V120.188H447.872V122.938H436.872V128.438H445.122V131.188H436.872V136.688ZM453.108 136.688H450.358V122.938H453.108V136.688ZM461.358 131.188H455.858V128.438H464.108V136.688H461.358V131.188ZM461.358 122.938H453.108V120.188H461.358V122.938ZM461.358 139.438H453.108V136.688H461.358V139.438ZM474.844 136.688H480.344V139.438H466.594V136.688H472.094V122.938H466.594V120.188H480.344V122.938H474.844V136.688ZM485.58 125.688V139.438H482.83V120.188H488.33V125.688H485.58ZM491.08 133.938H488.33V125.688H491.08V133.938ZM493.83 133.938V120.188H496.58V139.438H491.08V133.938H493.83Z" fill="#C9FF49"/>
<rect width="726.75" height="69.75" transform="translate(18 182.188)" fill="#211F10"/>
<path d="M47.1083 218.938H44.3583V216.188H47.1083V218.938ZM41.6083 224.438H38.8583V210.688H41.6083V224.438ZM52.6083 224.438H49.8583V210.688H52.6083V224.438ZM49.8583 210.688H41.6083V207.938H49.8583V210.688ZM49.8583 227.188H41.6083V224.438H49.8583V227.188ZM57.8441 213.438H55.0941V210.688H57.8441V213.438ZM66.0941 210.688H57.8441V207.938H66.0941V210.688ZM68.8441 216.188H66.0941V210.688H68.8441V216.188ZM66.0941 218.938H60.5941V216.188H66.0941V218.938ZM68.8441 224.438H66.0941V218.938H68.8441V224.438ZM66.0941 227.188H57.8441V224.438H66.0941V227.188ZM57.8441 224.438H55.0941V221.688H57.8441V224.438ZM79.5799 227.188H76.8299V224.438H79.5799V227.188ZM79.5799 216.188H76.8299V213.438H79.5799V216.188ZM95.8157 218.938H93.0657V216.188H95.8157V218.938ZM90.3157 224.438H87.5657V210.688H90.3157V224.438ZM101.316 224.438H98.5657V210.688H101.316V224.438ZM98.5657 210.688H90.3157V207.938H98.5657V210.688ZM98.5657 227.188H90.3157V224.438H98.5657V227.188ZM112.052 218.938H109.302V216.188H112.052V218.938ZM106.552 224.438H103.802V210.688H106.552V224.438ZM117.552 224.438H114.802V210.688H117.552V224.438ZM114.802 210.688H106.552V207.938H114.802V210.688ZM114.802 227.188H106.552V224.438H114.802V227.188ZM150.023 216.188H147.273V210.688H150.023V216.188ZM147.273 207.938V210.688H139.023V216.188H147.273V218.938H139.023V227.188H136.273V207.938H147.273ZM155.259 216.188V227.188H152.509V207.938H155.259V210.688H158.009V216.188H155.259ZM160.759 221.688H158.009V216.188H160.759V221.688ZM163.509 210.688V207.938H166.259V227.188H163.509V216.188H160.759V210.688H163.509Z" fill="#C9FF49"/>
<path d="M290.75 224.438H288V210.688H290.75V224.438ZM301.75 224.438H299V210.688H301.75V224.438ZM299 210.688H290.75V207.938H299V210.688ZM299 227.188H290.75V224.438H299V227.188ZM317.986 216.188H315.236V210.688H317.986V216.188ZM315.236 207.938V210.688H306.986V216.188H315.236V218.938H306.986V227.188H304.236V207.938H315.236ZM323.222 224.438H334.222V227.188H320.472V207.938H334.222V210.688H323.222V216.188H331.472V218.938H323.222V224.438ZM339.457 213.438V227.188H336.707V207.938H342.207V213.438H339.457ZM344.957 221.688H342.207V213.438H344.957V221.688ZM347.707 221.688V207.938H350.457V227.188H344.957V221.688H347.707ZM361.193 224.438H366.693V227.188H352.943V224.438H358.443V210.688H352.943V207.938H366.693V210.688H361.193V224.438ZM371.929 213.438V227.188H369.179V207.938H374.679V213.438H371.929ZM377.429 221.688H374.679V213.438H377.429V221.688ZM380.179 221.688V207.938H382.929V227.188H377.429V221.688H380.179ZM388.165 224.438H385.415V210.688H388.165V224.438ZM396.415 218.938H390.915V216.188H399.165V224.438H396.415V218.938ZM396.415 210.688H388.165V207.938H396.415V210.688ZM396.415 227.188H388.165V224.438H396.415V227.188ZM420.636 218.938V227.188H417.886V207.938H420.636V216.188H423.386V218.938H420.636ZM431.636 210.688H428.886V207.938H431.636V210.688ZM428.886 213.438H426.136V210.688H428.886V213.438ZM426.136 216.188H423.386V213.438H426.136V216.188ZM431.636 227.188H428.886V224.438H431.636V227.188ZM428.886 224.438H426.136V221.688H428.886V224.438ZM426.136 221.688H423.386V218.938H426.136V221.688ZM436.872 224.438H447.872V227.188H434.122V207.938H447.872V210.688H436.872V216.188H445.122V218.938H436.872V224.438ZM453.108 216.188H450.358V207.938H453.108V216.188ZM458.608 218.938V227.188H455.858V218.938H453.108V216.188H461.358V218.938H458.608ZM464.108 216.188H461.358V207.938H464.108V216.188ZM469.344 213.438V227.188H466.594V207.938H472.094V213.438H469.344ZM474.844 221.688H472.094V213.438H474.844V221.688ZM477.594 221.688V207.938H480.344V227.188H474.844V221.688H477.594ZM485.58 224.438H482.83V210.688H485.58V224.438ZM496.58 224.438H493.83V210.688H496.58V224.438ZM493.83 210.688H485.58V207.938H493.83V210.688ZM493.83 227.188H485.58V224.438H493.83V227.188ZM504.565 210.688H499.065V207.938H512.815V210.688H507.315V227.188H504.565V210.688ZM518.051 224.438H529.051V227.188H515.301V207.938H529.051V210.688H518.051V216.188H526.301V218.938H518.051V224.438Z" fill="#C9FF49"/>
<rect width="726.75" height="69.75" transform="translate(18 269.938)" fill="#211F10"/>
<path d="M47.1083 306.688H44.3583V303.938H47.1083V306.688ZM41.6083 312.188H38.8583V298.438H41.6083V312.188ZM52.6083 312.188H49.8583V298.438H52.6083V312.188ZM49.8583 298.438H41.6083V295.688H49.8583V298.438ZM49.8583 314.938H41.6083V312.188H49.8583V314.938ZM57.8441 301.188H55.0941V298.438H57.8441V301.188ZM66.0941 298.438H57.8441V295.688H66.0941V298.438ZM68.8441 303.938H66.0941V298.438H68.8441V303.938ZM66.0941 306.688H60.5941V303.938H66.0941V306.688ZM68.8441 312.188H66.0941V306.688H68.8441V312.188ZM66.0941 314.938H57.8441V312.188H66.0941V314.938ZM57.8441 312.188H55.0941V309.438H57.8441V312.188ZM79.5799 314.938H76.8299V312.188H79.5799V314.938ZM79.5799 303.938H76.8299V301.188H79.5799V303.938ZM93.0657 303.938H90.3157V301.188H93.0657V303.938ZM98.5657 309.438V314.938H95.8157V309.438H87.5657V303.938H90.3157V306.688H95.8157V301.188H93.0657V298.438H95.8157V295.688H98.5657V306.688H101.316V309.438H98.5657ZM117.552 312.188H114.802V306.688H117.552V312.188ZM114.802 314.938H106.552V312.188H114.802V314.938ZM106.552 312.188H103.802V309.438H106.552V312.188ZM106.552 303.938H114.802V306.688H103.802V295.688H117.552V298.438H106.552V303.938ZM150.023 303.938H147.273V298.438H150.023V303.938ZM147.273 295.688V298.438H139.023V303.938H147.273V306.688H139.023V314.938H136.273V295.688H147.273ZM155.259 303.938V314.938H152.509V295.688H155.259V298.438H158.009V303.938H155.259ZM160.759 309.438H158.009V303.938H160.759V309.438ZM163.509 298.438V295.688H166.259V314.938H163.509V303.938H160.759V298.438H163.509Z" fill="#C9FF49"/>
<path d="M301.75 303.938H299V298.438H301.75V303.938ZM299 295.688V298.438H290.75V303.938H299V306.688H290.75V314.938H288V295.688H299ZM317.986 303.938H315.236V298.438H317.986V303.938ZM317.986 314.938H315.236V312.188H317.986V314.938ZM315.236 312.188H312.486V309.438H315.236V312.188ZM315.236 295.688V298.438H306.986V303.938H315.236V306.688H312.486V309.438H309.736V306.688H306.986V314.938H304.236V295.688H315.236ZM323.222 312.188H320.472V298.438H323.222V312.188ZM334.222 312.188H331.472V298.438H334.222V312.188ZM331.472 298.438H323.222V295.688H331.472V298.438ZM331.472 314.938H323.222V312.188H331.472V314.938ZM339.457 312.188H347.707V314.938H336.707V295.688H347.707V298.438H339.457V303.938H347.707V306.688H339.457V312.188ZM350.457 312.188H347.707V306.688H350.457V312.188ZM350.457 303.938H347.707V298.438H350.457V303.938ZM352.943 314.938V295.688H355.693V312.188H366.693V314.938H352.943ZM371.929 312.188H382.929V314.938H369.179V295.688H382.929V298.438H371.929V303.938H380.179V306.688H371.929V312.188ZM388.165 303.938V314.938H385.415V295.688H388.165V298.438H390.915V303.938H388.165ZM393.665 309.438H390.915V303.938H393.665V309.438ZM396.415 298.438V295.688H399.165V314.938H396.415V303.938H393.665V298.438H396.415ZM420.636 312.188H417.886V309.438H420.636V312.188ZM428.886 314.938H420.636V312.188H428.886V314.938ZM431.636 312.188H428.886V306.688H431.636V312.188ZM428.886 298.438H420.636V295.688H428.886V298.438ZM431.636 301.188H428.886V298.438H431.636V301.188ZM420.636 303.938H417.886V298.438H420.636V303.938ZM428.886 306.688H420.636V303.938H428.886V306.688ZM439.622 298.438H434.122V295.688H447.872V298.438H442.372V314.938H439.622V298.438ZM453.108 306.688V314.938H450.358V298.438H453.108V303.938H461.358V298.438H464.108V314.938H461.358V306.688H453.108ZM461.358 298.438H453.108V295.688H461.358V298.438ZM472.094 298.438H466.594V295.688H480.344V298.438H474.844V314.938H472.094V298.438ZM485.58 312.188H496.58V314.938H482.83V295.688H496.58V298.438H485.58V303.938H493.83V306.688H485.58V312.188ZM501.815 303.938V314.938H499.065V295.688H501.815V298.438H504.565V303.938H501.815ZM507.315 309.438H504.565V303.938H507.315V309.438ZM510.065 298.438V295.688H512.815V314.938H510.065V303.938H507.315V298.438H510.065ZM518.051 312.188H529.051V314.938H515.301V295.688H529.051V298.438H518.051V303.938H526.301V306.688H518.051V312.188ZM534.287 301.188V314.938H531.537V295.688H537.037V301.188H534.287ZM539.787 309.438H537.037V301.188H539.787V309.438ZM542.537 309.438V295.688H545.287V314.938H539.787V309.438H542.537ZM553.273 298.438H547.773V295.688H561.523V298.438H556.023V314.938H553.273V298.438ZM566.759 312.188H564.009V309.438H566.759V312.188ZM575.009 314.938H566.759V312.188H575.009V314.938ZM577.759 312.188H575.009V306.688H577.759V312.188ZM575.009 298.438H566.759V295.688H575.009V298.438ZM577.759 301.188H575.009V298.438H577.759V301.188ZM566.759 303.938H564.009V298.438H566.759V303.938ZM575.009 306.688H566.759V303.938H575.009V306.688ZM610.23 303.938H607.48V298.438H610.23V303.938ZM610.23 314.938H607.48V312.188H610.23V314.938ZM607.48 312.188H604.73V309.438H607.48V312.188ZM607.48 295.688V298.438H599.23V303.938H607.48V306.688H604.73V309.438H601.98V306.688H599.23V314.938H596.48V295.688H607.48ZM615.466 312.188H626.466V314.938H612.716V295.688H626.466V298.438H615.466V303.938H623.716V306.688H615.466V312.188ZM637.202 314.938H634.452V309.438H637.202V314.938ZM634.452 309.438H631.702V303.938H634.452V309.438ZM639.952 309.438H637.202V303.938H639.952V309.438ZM631.702 303.938H628.952V295.688H631.702V303.938ZM642.702 303.938H639.952V295.688H642.702V303.938ZM647.938 312.188H658.938V314.938H645.188V295.688H658.938V298.438H647.938V303.938H656.188V306.688H647.938V312.188ZM664.174 306.688V314.938H661.424V298.438H664.174V303.938H672.424V298.438H675.174V314.938H672.424V306.688H664.174ZM672.424 298.438H664.174V295.688H672.424V298.438ZM677.659 314.938V295.688H680.409V312.188H691.409V314.938H677.659Z" fill="#C9FF49"/>
<rect width="726.75" height="69.75" transform="translate(18 357.688)" fill="#211F10"/>
<path d="M47.1083 394.438H44.3583V391.688H47.1083V394.438ZM41.6083 399.938H38.8583V386.188H41.6083V399.938ZM52.6083 399.938H49.8583V386.188H52.6083V399.938ZM49.8583 386.188H41.6083V383.438H49.8583V386.188ZM49.8583 402.688H41.6083V399.938H49.8583V402.688ZM68.8441 399.938H66.0941V394.438H68.8441V399.938ZM66.0941 402.688H57.8441V399.938H66.0941V402.688ZM57.8441 399.938H55.0941V397.188H57.8441V399.938ZM57.8441 391.688H66.0941V394.438H55.0941V383.438H68.8441V386.188H57.8441V391.688ZM79.5799 402.688H76.8299V399.938H79.5799V402.688ZM79.5799 391.688H76.8299V388.938H79.5799V391.688ZM90.3157 388.938H87.5657V386.188H90.3157V388.938ZM98.5657 386.188H90.3157V383.438H98.5657V386.188ZM101.316 391.688H98.5657V386.188H101.316V391.688ZM98.5657 394.438H93.0657V391.688H98.5657V394.438ZM101.316 399.938H98.5657V394.438H101.316V399.938ZM98.5657 402.688H90.3157V399.938H98.5657V402.688ZM90.3157 399.938H87.5657V397.188H90.3157V399.938ZM112.052 394.438H109.302V391.688H112.052V394.438ZM106.552 399.938H103.802V386.188H106.552V399.938ZM117.552 399.938H114.802V386.188H117.552V399.938ZM114.802 386.188H106.552V383.438H114.802V386.188ZM114.802 402.688H106.552V399.938H114.802V402.688ZM150.023 391.688H147.273V386.188H150.023V391.688ZM147.273 383.438V386.188H139.023V391.688H147.273V394.438H139.023V402.688H136.273V383.438H147.273ZM155.259 391.688V402.688H152.509V383.438H155.259V386.188H158.009V391.688H155.259ZM160.759 397.188H158.009V391.688H160.759V397.188ZM163.509 386.188V383.438H166.259V402.688H163.509V391.688H160.759V386.188H163.509Z" fill="#C9FF49"/>
<path d="M290.75 391.688V402.688H288V383.438H290.75V386.188H293.5V391.688H290.75ZM296.25 397.188H293.5V391.688H296.25V397.188ZM299 386.188V383.438H301.75V402.688H299V391.688H296.25V386.188H299ZM306.986 399.938H317.986V402.688H304.236V383.438H317.986V386.188H306.986V391.688H315.236V394.438H306.986V399.938ZM323.222 388.938V402.688H320.472V383.438H325.972V388.938H323.222ZM328.722 397.188H325.972V388.938H328.722V397.188ZM331.472 397.188V383.438H334.222V402.688H328.722V397.188H331.472ZM342.207 386.188H336.707V383.438H350.457V386.188H344.957V402.688H342.207V386.188ZM355.693 399.938H352.943V386.188H355.693V399.938ZM366.693 399.938H363.943V386.188H366.693V399.938ZM363.943 386.188H355.693V383.438H363.943V386.188ZM363.943 402.688H355.693V399.938H363.943V402.688ZM382.929 391.688H380.179V386.188H382.929V391.688ZM382.929 402.688H380.179V399.938H382.929V402.688ZM380.179 399.938H377.429V397.188H380.179V399.938ZM380.179 383.438V386.188H371.929V391.688H380.179V394.438H377.429V397.188H374.679V394.438H371.929V402.688H369.179V383.438H380.179ZM404.401 399.938H401.651V386.188H404.401V399.938ZM415.401 399.938H412.651V397.188H415.401V399.938ZM415.401 388.938H412.651V386.188H415.401V388.938ZM412.651 402.688H404.401V399.938H412.651V402.688ZM412.651 386.188H404.401V383.438H412.651V386.188ZM420.636 394.438V402.688H417.886V383.438H420.636V391.688H428.886V383.438H431.636V402.688H428.886V394.438H420.636ZM436.872 399.938H447.872V402.688H434.122V383.438H447.872V386.188H436.872V391.688H445.122V394.438H436.872V399.938ZM453.108 399.938H450.358V386.188H453.108V399.938ZM464.108 399.938H461.358V397.188H464.108V399.938ZM464.108 388.938H461.358V386.188H464.108V388.938ZM461.358 402.688H453.108V399.938H461.358V402.688ZM461.358 386.188H453.108V383.438H461.358V386.188ZM469.344 394.438V402.688H466.594V383.438H469.344V391.688H472.094V394.438H469.344ZM480.344 386.188H477.594V383.438H480.344V386.188ZM477.594 388.938H474.844V386.188H477.594V388.938ZM474.844 391.688H472.094V388.938H474.844V391.688ZM480.344 402.688H477.594V399.938H480.344V402.688ZM477.594 399.938H474.844V397.188H477.594V399.938ZM474.844 397.188H472.094V394.438H474.844V397.188ZM496.58 394.438H482.83V391.688H496.58V394.438ZM507.315 399.938H512.815V402.688H499.065V399.938H504.565V386.188H499.065V383.438H512.815V386.188H507.315V399.938ZM518.051 388.938V402.688H515.301V383.438H520.801V388.938H518.051ZM523.551 397.188H520.801V388.938H523.551V397.188ZM526.301 397.188V383.438H529.051V402.688H523.551V397.188H526.301ZM534.287 399.938H531.537V397.188H534.287V399.938ZM542.537 402.688H534.287V399.938H542.537V402.688ZM545.287 399.938H542.537V394.438H545.287V399.938ZM542.537 386.188H534.287V383.438H542.537V386.188ZM545.287 388.938H542.537V386.188H545.287V388.938ZM534.287 391.688H531.537V386.188H534.287V391.688ZM542.537 394.438H534.287V391.688H542.537V394.438Z" fill="#C9FF49"/>
<rect width="726.75" height="69.75" transform="translate(18 445.438)" fill="#211F10"/>
<path d="M47.1083 482.188H44.3583V479.438H47.1083V482.188ZM41.6083 487.688H38.8583V473.938H41.6083V487.688ZM52.6083 487.688H49.8583V473.938H52.6083V487.688ZM49.8583 473.938H41.6083V471.188H49.8583V473.938ZM49.8583 490.438H41.6083V487.688H49.8583V490.438ZM66.0941 490.438H57.8441V487.688H66.0941V490.438ZM68.8441 476.688H66.0941V473.938H68.8441V476.688ZM66.0941 473.938H57.8441V471.188H66.0941V473.938ZM57.8441 482.188V487.688H55.0941V473.938H57.8441V479.438H66.0941V482.188H57.8441ZM68.8441 487.688H66.0941V482.188H68.8441V487.688ZM79.5799 490.438H76.8299V487.688H79.5799V490.438ZM79.5799 479.438H76.8299V476.688H79.5799V479.438ZM90.3157 476.688H87.5657V473.938H90.3157V476.688ZM98.5657 473.938H90.3157V471.188H98.5657V473.938ZM101.316 479.438H98.5657V473.938H101.316V479.438ZM98.5657 482.188H93.0657V479.438H98.5657V482.188ZM101.316 487.688H98.5657V482.188H101.316V487.688ZM98.5657 490.438H90.3157V487.688H98.5657V490.438ZM90.3157 487.688H87.5657V484.938H90.3157V487.688ZM112.052 482.188H109.302V479.438H112.052V482.188ZM106.552 487.688H103.802V473.938H106.552V487.688ZM117.552 487.688H114.802V473.938H117.552V487.688ZM114.802 473.938H106.552V471.188H114.802V473.938ZM114.802 490.438H106.552V487.688H114.802V490.438ZM150.023 479.438H147.273V473.938H150.023V479.438ZM147.273 471.188V473.938H139.023V479.438H147.273V482.188H139.023V490.438H136.273V471.188H147.273ZM155.259 479.438V490.438H152.509V471.188H155.259V473.938H158.009V479.438H155.259ZM160.759 484.938H158.009V479.438H160.759V484.938ZM163.509 473.938V471.188H166.259V490.438H163.509V479.438H160.759V473.938H163.509Z" fill="#C9FF49"/>
<path d="M290.75 482.188V490.438H288V471.188H290.75V479.438H299V471.188H301.75V490.438H299V482.188H290.75ZM312.486 487.688H317.986V490.438H304.236V487.688H309.736V473.938H304.236V471.188H317.986V473.938H312.486V487.688ZM334.222 482.188H320.472V479.438H334.222V482.188ZM342.207 473.938H336.707V471.188H350.457V473.938H344.957V490.438H342.207V473.938ZM355.693 487.688H366.693V490.438H352.943V471.188H366.693V473.938H355.693V479.438H363.943V482.188H355.693V487.688ZM371.929 482.188V490.438H369.179V473.938H371.929V479.438H380.179V473.938H382.929V490.438H380.179V482.188H371.929ZM380.179 473.938H371.929V471.188H380.179V473.938ZM407.151 473.938H404.401V471.188H407.151V473.938ZM415.401 490.438H412.651V487.688H415.401V490.438ZM412.651 487.688H409.901V484.938H412.651V487.688ZM409.901 484.938H407.151V482.188H409.901V484.938ZM407.151 482.188H404.401V479.438H407.151V482.188ZM404.401 479.438H401.651V473.938H404.401V479.438ZM409.901 479.438H407.151V473.938H409.901V479.438ZM409.901 490.438H404.401V487.688H409.901V490.438ZM404.401 487.688H401.651V482.188H404.401V487.688ZM415.401 484.938H412.651V482.188H415.401V484.938ZM436.872 476.688V490.438H434.122V471.188H439.622V476.688H436.872ZM442.372 484.938H439.622V476.688H442.372V484.938ZM445.122 484.938V471.188H447.872V490.438H442.372V484.938H445.122ZM453.108 487.688H464.108V490.438H450.358V471.188H464.108V473.938H453.108V479.438H461.358V482.188H453.108V487.688ZM472.094 473.938H466.594V471.188H480.344V473.938H474.844V490.438H472.094V473.938ZM485.58 484.938H482.83V471.188H485.58V484.938ZM491.08 484.938H488.33V471.188H491.08V484.938ZM496.58 484.938H493.83V471.188H496.58V484.938ZM488.33 490.438H485.58V484.938H488.33V490.438ZM493.83 490.438H491.08V484.938H493.83V490.438ZM501.815 487.688H499.065V473.938H501.815V487.688ZM512.815 487.688H510.065V473.938H512.815V487.688ZM510.065 473.938H501.815V471.188H510.065V473.938ZM510.065 490.438H501.815V487.688H510.065V490.438ZM529.051 479.438H526.301V473.938H529.051V479.438ZM529.051 490.438H526.301V487.688H529.051V490.438ZM526.301 487.688H523.551V484.938H526.301V487.688ZM526.301 471.188V473.938H518.051V479.438H526.301V482.188H523.551V484.938H520.801V482.188H518.051V490.438H515.301V471.188H526.301ZM534.287 482.188V490.438H531.537V471.188H534.287V479.438H537.037V482.188H534.287ZM545.287 473.938H542.537V471.188H545.287V473.938ZM542.537 476.688H539.787V473.938H542.537V476.688ZM539.787 479.438H537.037V476.688H539.787V479.438ZM545.287 490.438H542.537V487.688H545.287V490.438ZM542.537 487.688H539.787V484.938H542.537V487.688ZM539.787 484.938H537.037V482.188H539.787V484.938ZM556.023 487.688H561.523V490.438H547.773V487.688H553.273V473.938H547.773V471.188H561.523V473.938H556.023V487.688ZM566.759 476.688V490.438H564.009V471.188H569.509V476.688H566.759ZM572.259 484.938H569.509V476.688H572.259V484.938ZM575.009 484.938V471.188H577.759V490.438H572.259V484.938H575.009ZM582.995 487.688H580.245V473.938H582.995V487.688ZM591.245 482.188H585.745V479.438H593.995V487.688H591.245V482.188ZM591.245 473.938H582.995V471.188H591.245V473.938ZM591.245 490.438H582.995V487.688H591.245V490.438Z" fill="#C9FF49"/>
<rect width="726.75" height="69.75" transform="translate(18 533.188)" fill="#211F10"/>
<path d="M47.1083 569.938H44.3583V567.188H47.1083V569.938ZM41.6083 575.438H38.8583V561.688H41.6083V575.438ZM52.6083 575.438H49.8583V561.688H52.6083V575.438ZM49.8583 561.688H41.6083V558.938H49.8583V561.688ZM49.8583 578.188H41.6083V575.438H49.8583V578.188ZM66.0941 578.188H57.8441V575.438H66.0941V578.188ZM66.0941 561.688H57.8441V558.938H66.0941V561.688ZM57.8441 567.188H55.0941V561.688H57.8441V567.188ZM57.8441 575.438H55.0941V572.688H57.8441V575.438ZM66.0941 569.938H57.8441V567.188H66.0941V561.688H68.8441V575.438H66.0941V569.938ZM79.5799 578.188H76.8299V575.438H79.5799V578.188ZM79.5799 567.188H76.8299V564.438H79.5799V567.188ZM90.3157 564.438H87.5657V561.688H90.3157V564.438ZM98.5657 561.688H90.3157V558.938H98.5657V561.688ZM101.316 567.188H98.5657V561.688H101.316V567.188ZM98.5657 569.938H93.0657V567.188H98.5657V569.938ZM101.316 575.438H98.5657V569.938H101.316V575.438ZM98.5657 578.188H90.3157V575.438H98.5657V578.188ZM90.3157 575.438H87.5657V572.688H90.3157V575.438ZM112.052 569.938H109.302V567.188H112.052V569.938ZM106.552 575.438H103.802V561.688H106.552V575.438ZM117.552 575.438H114.802V561.688H117.552V575.438ZM114.802 561.688H106.552V558.938H114.802V561.688ZM114.802 578.188H106.552V575.438H114.802V578.188ZM150.023 567.188H147.273V561.688H150.023V567.188ZM147.273 558.938V561.688H139.023V567.188H147.273V569.938H139.023V578.188H136.273V558.938H147.273ZM155.259 567.188V578.188H152.509V558.938H155.259V561.688H158.009V567.188H155.259ZM160.759 572.688H158.009V567.188H160.759V572.688ZM163.509 561.688V558.938H166.259V578.188H163.509V567.188H160.759V561.688H163.509Z" fill="#C9FF49"/>
<path d="M290.75 569.938V578.188H288V558.938H290.75V567.188H299V558.938H301.75V578.188H299V569.938H290.75ZM312.486 575.438H317.986V578.188H304.236V575.438H309.736V561.688H304.236V558.938H317.986V561.688H312.486V575.438ZM334.222 569.938H320.472V567.188H334.222V569.938ZM342.207 561.688H336.707V558.938H350.457V561.688H344.957V578.188H342.207V561.688ZM355.693 575.438H366.693V578.188H352.943V558.938H366.693V561.688H355.693V567.188H363.943V569.938H355.693V575.438ZM371.929 569.938V578.188H369.179V561.688H371.929V567.188H380.179V561.688H382.929V578.188H380.179V569.938H371.929ZM380.179 561.688H371.929V558.938H380.179V561.688ZM407.151 561.688H404.401V558.938H407.151V561.688ZM415.401 578.188H412.651V575.438H415.401V578.188ZM412.651 575.438H409.901V572.688H412.651V575.438ZM409.901 572.688H407.151V569.938H409.901V572.688ZM407.151 569.938H404.401V567.188H407.151V569.938ZM404.401 567.188H401.651V561.688H404.401V567.188ZM409.901 567.188H407.151V561.688H409.901V567.188ZM409.901 578.188H404.401V575.438H409.901V578.188ZM404.401 575.438H401.651V569.938H404.401V575.438ZM415.401 572.688H412.651V569.938H415.401V572.688ZM436.872 564.438V578.188H434.122V558.938H439.622V564.438H436.872ZM442.372 572.688H439.622V564.438H442.372V572.688ZM445.122 572.688V558.938H447.872V578.188H442.372V572.688H445.122ZM453.108 575.438H464.108V578.188H450.358V558.938H464.108V561.688H453.108V567.188H461.358V569.938H453.108V575.438ZM472.094 561.688H466.594V558.938H480.344V561.688H474.844V578.188H472.094V561.688ZM485.58 572.688H482.83V558.938H485.58V572.688ZM491.08 572.688H488.33V558.938H491.08V572.688ZM496.58 572.688H493.83V558.938H496.58V572.688ZM488.33 578.188H485.58V572.688H488.33V578.188ZM493.83 578.188H491.08V572.688H493.83V578.188ZM501.815 575.438H499.065V561.688H501.815V575.438ZM512.815 575.438H510.065V561.688H512.815V575.438ZM510.065 561.688H501.815V558.938H510.065V561.688ZM510.065 578.188H501.815V575.438H510.065V578.188ZM529.051 567.188H526.301V561.688H529.051V567.188ZM529.051 578.188H526.301V575.438H529.051V578.188ZM526.301 575.438H523.551V572.688H526.301V575.438ZM526.301 558.938V561.688H518.051V567.188H526.301V569.938H523.551V572.688H520.801V569.938H518.051V578.188H515.301V558.938H526.301ZM534.287 569.938V578.188H531.537V558.938H534.287V567.188H537.037V569.938H534.287ZM545.287 561.688H542.537V558.938H545.287V561.688ZM542.537 564.438H539.787V561.688H542.537V564.438ZM539.787 567.188H537.037V564.438H539.787V567.188ZM545.287 578.188H542.537V575.438H545.287V578.188ZM542.537 575.438H539.787V572.688H542.537V575.438ZM539.787 572.688H537.037V569.938H539.787V572.688ZM556.023 575.438H561.523V578.188H547.773V575.438H553.273V561.688H547.773V558.938H561.523V561.688H556.023V575.438ZM566.759 564.438V578.188H564.009V558.938H569.509V564.438H566.759ZM572.259 572.688H569.509V564.438H572.259V572.688ZM575.009 572.688V558.938H577.759V578.188H572.259V572.688H575.009ZM582.995 575.438H580.245V561.688H582.995V575.438ZM591.245 569.938H585.745V567.188H593.995V575.438H591.245V569.938ZM591.245 561.688H582.995V558.938H591.245V561.688ZM591.245 578.188H582.995V575.438H591.245V578.188Z" fill="#C9FF49"/>
<rect width="762.75" height="729" transform="translate(0 733.438)" fill="black"/>
<rect width="726.75" height="69.75" transform="translate(18 755.877)" fill="#211F10"/>
<path d="M47.1083 792.627H44.3583V789.877H47.1083V792.627ZM41.6083 798.127H38.8583V784.377H41.6083V798.127ZM52.6083 798.127H49.8583V784.377H52.6083V798.127ZM49.8583 784.377H41.6083V781.627H49.8583V784.377ZM49.8583 800.877H41.6083V798.127H49.8583V800.877ZM57.8441 800.877H55.0941V798.127H57.8441V800.877ZM60.5941 798.127H57.8441V795.377H60.5941V798.127ZM63.3441 795.377H60.5941V792.627H63.3441V795.377ZM66.0941 792.627H63.3441V789.877H66.0941V792.627ZM66.0941 784.377H55.0941V781.627H68.8441V789.877H66.0941V784.377ZM79.5799 800.877H76.8299V798.127H79.5799V800.877ZM79.5799 789.877H76.8299V787.127H79.5799V789.877ZM95.8157 792.627H93.0657V789.877H95.8157V792.627ZM90.3157 798.127H87.5657V784.377H90.3157V798.127ZM101.316 798.127H98.5657V784.377H101.316V798.127ZM98.5657 784.377H90.3157V781.627H98.5657V784.377ZM98.5657 800.877H90.3157V798.127H98.5657V800.877ZM112.052 792.627H109.302V789.877H112.052V792.627ZM106.552 798.127H103.802V784.377H106.552V798.127ZM117.552 798.127H114.802V784.377H117.552V798.127ZM114.802 784.377H106.552V781.627H114.802V784.377ZM114.802 800.877H106.552V798.127H114.802V800.877ZM139.023 792.627V800.877H136.273V784.377H139.023V789.877H147.273V784.377H150.023V800.877H147.273V792.627H139.023ZM147.273 784.377H139.023V781.627H147.273V784.377ZM155.259 789.877V800.877H152.509V781.627H155.259V784.377H158.009V789.877H155.259ZM160.759 795.377H158.009V789.877H160.759V795.377ZM163.509 784.377V781.627H166.259V800.877H163.509V789.877H160.759V784.377H163.509Z" fill="#AEE3FF"/>
<path d="M290.75 798.127H299V800.877H288V781.627H299V784.377H290.75V789.877H299V792.627H290.75V798.127ZM301.75 798.127H299V792.627H301.75V798.127ZM301.75 789.877H299V784.377H301.75V789.877ZM317.986 789.877H315.236V784.377H317.986V789.877ZM317.986 800.877H315.236V798.127H317.986V800.877ZM315.236 798.127H312.486V795.377H315.236V798.127ZM315.236 781.627V784.377H306.986V789.877H315.236V792.627H312.486V795.377H309.736V792.627H306.986V800.877H304.236V781.627H315.236ZM323.222 798.127H334.222V800.877H320.472V781.627H334.222V784.377H323.222V789.877H331.472V792.627H323.222V798.127ZM339.457 792.627V800.877H336.707V784.377H339.457V789.877H347.707V784.377H350.457V800.877H347.707V792.627H339.457ZM347.707 784.377H339.457V781.627H347.707V784.377ZM355.693 792.627V800.877H352.943V781.627H355.693V789.877H358.443V792.627H355.693ZM366.693 784.377H363.943V781.627H366.693V784.377ZM363.943 787.127H361.193V784.377H363.943V787.127ZM361.193 789.877H358.443V787.127H361.193V789.877ZM366.693 800.877H363.943V798.127H366.693V800.877ZM363.943 798.127H361.193V795.377H363.943V798.127ZM361.193 795.377H358.443V792.627H361.193V795.377ZM382.929 781.627V784.377H371.929V789.877H380.179V792.627H371.929V800.877H369.179V781.627H382.929ZM388.165 792.627V800.877H385.415V784.377H388.165V789.877H396.415V784.377H399.165V800.877H396.415V792.627H388.165ZM396.415 784.377H388.165V781.627H396.415V784.377ZM404.401 798.127H401.651V795.377H404.401V798.127ZM412.651 800.877H404.401V798.127H412.651V800.877ZM415.401 798.127H412.651V792.627H415.401V798.127ZM412.651 784.377H404.401V781.627H412.651V784.377ZM415.401 787.127H412.651V784.377H415.401V787.127ZM404.401 789.877H401.651V784.377H404.401V789.877ZM412.651 792.627H404.401V789.877H412.651V792.627ZM423.386 784.377H417.886V781.627H431.636V784.377H426.136V800.877H423.386V784.377Z" fill="#AEE3FF"/>
<rect width="726.75" height="69.75" transform="translate(18 843.627)" fill="#211F10"/>
<path d="M47.1083 880.377H44.3583V877.627H47.1083V880.377ZM41.6083 885.877H38.8583V872.127H41.6083V885.877ZM52.6083 885.877H49.8583V872.127H52.6083V885.877ZM49.8583 872.127H41.6083V869.377H49.8583V872.127ZM49.8583 888.627H41.6083V885.877H49.8583V888.627ZM66.0941 888.627H57.8441V885.877H66.0941V888.627ZM57.8441 885.877H55.0941V880.377H57.8441V885.877ZM68.8441 885.877H66.0941V880.377H68.8441V885.877ZM66.0941 880.377H57.8441V877.627H66.0941V880.377ZM66.0941 872.127H57.8441V869.377H66.0941V872.127ZM57.8441 877.627H55.0941V872.127H57.8441V877.627ZM68.8441 877.627H66.0941V872.127H68.8441V877.627ZM79.5799 888.627H76.8299V885.877H79.5799V888.627ZM79.5799 877.627H76.8299V874.877H79.5799V877.627ZM90.3157 874.877H87.5657V872.127H90.3157V874.877ZM98.5657 872.127H90.3157V869.377H98.5657V872.127ZM101.316 877.627H98.5657V872.127H101.316V877.627ZM98.5657 880.377H93.0657V877.627H98.5657V880.377ZM101.316 885.877H98.5657V880.377H101.316V885.877ZM98.5657 888.627H90.3157V885.877H98.5657V888.627ZM90.3157 885.877H87.5657V883.127H90.3157V885.877ZM112.052 880.377H109.302V877.627H112.052V880.377ZM106.552 885.877H103.802V872.127H106.552V885.877ZM117.552 885.877H114.802V872.127H117.552V885.877ZM114.802 872.127H106.552V869.377H114.802V872.127ZM114.802 888.627H106.552V885.877H114.802V888.627ZM139.023 880.377V888.627H136.273V872.127H139.023V877.627H147.273V872.127H150.023V888.627H147.273V880.377H139.023ZM147.273 872.127H139.023V869.377H147.273V872.127ZM155.259 877.627V888.627H152.509V869.377H155.259V872.127H158.009V877.627H155.259ZM160.759 883.127H158.009V877.627H160.759V883.127ZM163.509 872.127V869.377H166.259V888.627H163.509V877.627H160.759V872.127H163.509Z" fill="#AEE3FF"/>
<path d="M290.75 885.877H288V883.127H290.75V885.877ZM299 888.627H290.75V885.877H299V888.627ZM301.75 885.877H299V880.377H301.75V885.877ZM299 872.127H290.75V869.377H299V872.127ZM301.75 874.877H299V872.127H301.75V874.877ZM290.75 877.627H288V872.127H290.75V877.627ZM299 880.377H290.75V877.627H299V880.377ZM306.986 885.877H304.236V869.377H306.986V885.877ZM315.236 888.627H306.986V885.877H315.236V888.627ZM317.986 885.877H315.236V869.377H317.986V885.877ZM323.222 885.877H331.472V888.627H320.472V869.377H331.472V872.127H323.222V877.627H331.472V880.377H323.222V885.877ZM334.222 885.877H331.472V880.377H334.222V885.877ZM334.222 877.627H331.472V872.127H334.222V877.627ZM339.457 877.627V888.627H336.707V869.377H339.457V872.127H342.207V877.627H339.457ZM344.957 883.127H342.207V877.627H344.957V883.127ZM347.707 872.127V869.377H350.457V888.627H347.707V877.627H344.957V872.127H347.707ZM361.193 885.877H366.693V888.627H352.943V885.877H358.443V872.127H352.943V869.377H366.693V872.127H361.193V885.877ZM371.929 885.877H369.179V883.127H371.929V885.877ZM380.179 888.627H371.929V885.877H380.179V888.627ZM382.929 885.877H380.179V880.377H382.929V885.877ZM380.179 872.127H371.929V869.377H380.179V872.127ZM382.929 874.877H380.179V872.127H382.929V874.877ZM371.929 877.627H369.179V872.127H371.929V877.627ZM380.179 880.377H371.929V877.627H380.179V880.377ZM388.165 885.877H385.415V883.127H388.165V885.877ZM396.415 888.627H388.165V885.877H396.415V888.627ZM399.165 885.877H396.415V880.377H399.165V885.877ZM396.415 872.127H388.165V869.377H396.415V872.127ZM399.165 874.877H396.415V872.127H399.165V874.877ZM388.165 877.627H385.415V872.127H388.165V877.627ZM396.415 880.377H388.165V877.627H396.415V880.377ZM409.901 885.877H415.401V888.627H401.651V885.877H407.151V872.127H401.651V869.377H415.401V872.127H409.901V885.877ZM420.636 885.877H417.886V872.127H420.636V885.877ZM431.636 885.877H428.886V872.127H431.636V885.877ZM428.886 872.127H420.636V869.377H428.886V872.127ZM428.886 888.627H420.636V885.877H428.886V888.627ZM436.872 874.877V888.627H434.122V869.377H439.622V874.877H436.872ZM442.372 883.127H439.622V874.877H442.372V883.127ZM445.122 883.127V869.377H447.872V888.627H442.372V883.127H445.122ZM474.844 869.377V872.127H469.344V885.877H474.844V888.627H466.594V869.377H474.844ZM480.344 883.127H477.594V874.877H480.344V883.127ZM477.594 874.877H474.844V872.127H477.594V874.877ZM477.594 885.877H474.844V883.127H477.594V885.877ZM485.58 885.877H496.58V888.627H482.83V869.377H496.58V872.127H485.58V877.627H493.83V880.377H485.58V885.877ZM501.815 880.377V888.627H499.065V872.127H501.815V877.627H510.065V872.127H512.815V888.627H510.065V880.377H501.815ZM510.065 872.127H501.815V869.377H510.065V872.127ZM523.551 869.377V872.127H518.051V885.877H523.551V888.627H515.301V869.377H523.551ZM529.051 883.127H526.301V874.877H529.051V883.127ZM526.301 874.877H523.551V872.127H526.301V874.877ZM526.301 885.877H523.551V883.127H526.301V885.877ZM531.537 888.627V869.377H534.287V885.877H545.287V888.627H531.537ZM556.023 885.877H561.523V888.627H547.773V885.877H553.273V872.127H547.773V869.377H561.523V872.127H556.023V885.877ZM566.759 874.877V888.627H564.009V869.377H569.509V874.877H566.759ZM572.259 883.127H569.509V874.877H572.259V883.127ZM575.009 883.127V869.377H577.759V888.627H572.259V883.127H575.009ZM582.995 885.877H593.995V888.627H580.245V869.377H593.995V872.127H582.995V877.627H591.245V880.377H582.995V885.877Z" fill="#AEE3FF"/>
<rect width="726.75" height="69.75" transform="translate(18 931.377)" fill="#211F10"/>
<path d="M47.1083 968.127H44.3583V965.377H47.1083V968.127ZM41.6083 973.627H38.8583V959.877H41.6083V973.627ZM52.6083 973.627H49.8583V959.877H52.6083V973.627ZM49.8583 959.877H41.6083V957.127H49.8583V959.877ZM49.8583 976.377H41.6083V973.627H49.8583V976.377ZM66.0941 976.377H57.8441V973.627H66.0941V976.377ZM66.0941 959.877H57.8441V957.127H66.0941V959.877ZM57.8441 965.377H55.0941V959.877H57.8441V965.377ZM57.8441 973.627H55.0941V970.877H57.8441V973.627ZM66.0941 968.127H57.8441V965.377H66.0941V959.877H68.8441V973.627H66.0941V968.127ZM79.5799 976.377H76.8299V973.627H79.5799V976.377ZM79.5799 965.377H76.8299V962.627H79.5799V965.377ZM95.8157 968.127H93.0657V965.377H95.8157V968.127ZM90.3157 973.627H87.5657V959.877H90.3157V973.627ZM101.316 973.627H98.5657V959.877H101.316V973.627ZM98.5657 959.877H90.3157V957.127H98.5657V959.877ZM98.5657 976.377H90.3157V973.627H98.5657V976.377ZM112.052 968.127H109.302V965.377H112.052V968.127ZM106.552 973.627H103.802V959.877H106.552V973.627ZM117.552 973.627H114.802V959.877H117.552V973.627ZM114.802 959.877H106.552V957.127H114.802V959.877ZM114.802 976.377H106.552V973.627H114.802V976.377ZM139.023 968.127V976.377H136.273V959.877H139.023V965.377H147.273V959.877H150.023V976.377H147.273V968.127H139.023ZM147.273 959.877H139.023V957.127H147.273V959.877ZM155.259 965.377V976.377H152.509V957.127H155.259V959.877H158.009V965.377H155.259ZM160.759 970.877H158.009V965.377H160.759V970.877ZM163.509 959.877V957.127H166.259V976.377H163.509V965.377H160.759V959.877H163.509Z" fill="#AEE3FF"/>
<path d="M301.75 965.377H299V959.877H301.75V965.377ZM299 957.127V959.877H290.75V965.377H299V968.127H290.75V976.377H288V957.127H299ZM317.986 965.377H315.236V959.877H317.986V965.377ZM317.986 976.377H315.236V973.627H317.986V976.377ZM315.236 973.627H312.486V970.877H315.236V973.627ZM315.236 957.127V959.877H306.986V965.377H315.236V968.127H312.486V970.877H309.736V968.127H306.986V976.377H304.236V957.127H315.236ZM323.222 973.627H334.222V976.377H320.472V957.127H334.222V959.877H323.222V965.377H331.472V968.127H323.222V973.627ZM339.457 973.627H336.707V970.877H339.457V973.627ZM347.707 976.377H339.457V973.627H347.707V976.377ZM350.457 973.627H347.707V968.127H350.457V973.627ZM347.707 959.877H339.457V957.127H347.707V959.877ZM350.457 962.627H347.707V959.877H350.457V962.627ZM339.457 965.377H336.707V959.877H339.457V965.377ZM347.707 968.127H339.457V965.377H347.707V968.127ZM355.693 973.627H366.693V976.377H352.943V957.127H366.693V959.877H355.693V965.377H363.943V968.127H355.693V973.627ZM371.929 962.627V976.377H369.179V957.127H374.679V962.627H371.929ZM377.429 970.877H374.679V962.627H377.429V970.877ZM380.179 970.877V957.127H382.929V976.377H377.429V970.877H380.179ZM390.915 959.877H385.415V957.127H399.165V959.877H393.665V976.377H390.915V959.877ZM404.401 968.127V976.377H401.651V959.877H404.401V965.377H412.651V959.877H415.401V976.377H412.651V968.127H404.401ZM412.651 959.877H404.401V957.127H412.651V959.877ZM423.386 959.877H417.886V957.127H431.636V959.877H426.136V976.377H423.386V959.877ZM442.372 973.627H447.872V976.377H434.122V973.627H439.622V959.877H434.122V957.127H447.872V959.877H442.372V973.627ZM453.108 973.627H450.358V959.877H453.108V973.627ZM464.108 973.627H461.358V959.877H464.108V973.627ZM461.358 959.877H453.108V957.127H461.358V959.877ZM461.358 976.377H453.108V973.627H461.358V976.377ZM469.344 962.627V976.377H466.594V957.127H472.094V962.627H469.344ZM474.844 970.877H472.094V962.627H474.844V970.877ZM477.594 970.877V957.127H480.344V976.377H474.844V970.877H477.594ZM512.815 965.377H510.065V959.877H512.815V965.377ZM512.815 976.377H510.065V973.627H512.815V976.377ZM510.065 973.627H507.315V970.877H510.065V973.627ZM510.065 957.127V959.877H501.815V965.377H510.065V968.127H507.315V970.877H504.565V968.127H501.815V976.377H499.065V957.127H510.065ZM518.051 973.627H515.301V959.877H518.051V973.627ZM529.051 973.627H526.301V959.877H529.051V973.627ZM526.301 959.877H518.051V957.127H526.301V959.877ZM526.301 976.377H518.051V973.627H526.301V976.377ZM534.287 973.627H531.537V957.127H534.287V973.627ZM542.537 976.377H534.287V973.627H542.537V976.377ZM545.287 973.627H542.537V957.127H545.287V973.627ZM550.523 962.627V976.377H547.773V957.127H553.273V962.627H550.523ZM556.023 970.877H553.273V962.627H556.023V970.877ZM558.773 970.877V957.127H561.523V976.377H556.023V970.877H558.773ZM572.259 957.127V959.877H566.759V973.627H572.259V976.377H564.009V957.127H572.259ZM577.759 970.877H575.009V962.627H577.759V970.877ZM575.009 962.627H572.259V959.877H575.009V962.627ZM575.009 973.627H572.259V970.877H575.009V973.627ZM582.995 973.627H580.245V970.877H582.995V973.627ZM591.245 976.377H582.995V973.627H591.245V976.377ZM593.995 973.627H591.245V968.127H593.995V973.627ZM591.245 959.877H582.995V957.127H591.245V959.877ZM593.995 962.627H591.245V959.877H593.995V962.627ZM582.995 965.377H580.245V959.877H582.995V965.377ZM591.245 968.127H582.995V965.377H591.245V968.127ZM615.466 973.627H623.716V976.377H612.716V957.127H623.716V959.877H615.466V965.377H623.716V968.127H615.466V973.627ZM626.466 973.627H623.716V968.127H626.466V973.627ZM626.466 965.377H623.716V959.877H626.466V965.377ZM631.702 973.627H642.702V976.377H628.952V957.127H642.702V959.877H631.702V965.377H639.952V968.127H631.702V973.627ZM647.938 973.627H645.188V959.877H647.938V973.627ZM656.188 968.127H650.688V965.377H658.938V973.627H656.188V968.127ZM656.188 959.877H647.938V957.127H656.188V959.877ZM656.188 976.377H647.938V973.627H656.188V976.377ZM669.674 973.627H675.174V976.377H661.424V973.627H666.924V959.877H661.424V957.127H675.174V959.877H669.674V973.627ZM680.409 962.627V976.377H677.659V957.127H683.159V962.627H680.409ZM685.909 970.877H683.159V962.627H685.909V970.877ZM688.659 970.877V957.127H691.409V976.377H685.909V970.877H688.659Z" fill="#AEE3FF"/>
<rect width="726.75" height="69.75" transform="translate(18 1019.13)" fill="#211F10"/>
<path d="M47.1083 1061.38H52.6083V1064.13H38.8583V1061.38H44.3583V1047.63H38.8583V1044.88H47.1083V1061.38ZM63.3441 1055.88H60.5941V1053.13H63.3441V1055.88ZM57.8441 1061.38H55.0941V1047.63H57.8441V1061.38ZM68.8441 1061.38H66.0941V1047.63H68.8441V1061.38ZM66.0941 1047.63H57.8441V1044.88H66.0941V1047.63ZM66.0941 1064.13H57.8441V1061.38H66.0941V1064.13ZM79.5799 1064.13H76.8299V1061.38H79.5799V1064.13ZM79.5799 1053.13H76.8299V1050.38H79.5799V1053.13ZM93.0657 1053.13H90.3157V1050.38H93.0657V1053.13ZM98.5657 1058.63V1064.13H95.8157V1058.63H87.5657V1053.13H90.3157V1055.88H95.8157V1050.38H93.0657V1047.63H95.8157V1044.88H98.5657V1055.88H101.316V1058.63H98.5657ZM117.552 1061.38H114.802V1055.88H117.552V1061.38ZM114.802 1064.13H106.552V1061.38H114.802V1064.13ZM106.552 1061.38H103.802V1058.63H106.552V1061.38ZM106.552 1053.13H114.802V1055.88H103.802V1044.88H117.552V1047.63H106.552V1053.13ZM139.023 1055.88V1064.13H136.273V1047.63H139.023V1053.13H147.273V1047.63H150.023V1064.13H147.273V1055.88H139.023ZM147.273 1047.63H139.023V1044.88H147.273V1047.63ZM155.259 1053.13V1064.13H152.509V1044.88H155.259V1047.63H158.009V1053.13H155.259ZM160.759 1058.63H158.009V1053.13H160.759V1058.63ZM163.509 1047.63V1044.88H166.259V1064.13H163.509V1053.13H160.759V1047.63H163.509Z" fill="#AEE3FF"/>
<path d="M301.75 1053.13H299V1047.63H301.75V1053.13ZM299 1044.88V1047.63H290.75V1053.13H299V1055.88H290.75V1064.13H288V1044.88H299ZM317.986 1053.13H315.236V1047.63H317.986V1053.13ZM317.986 1064.13H315.236V1061.38H317.986V1064.13ZM315.236 1061.38H312.486V1058.63H315.236V1061.38ZM315.236 1044.88V1047.63H306.986V1053.13H315.236V1055.88H312.486V1058.63H309.736V1055.88H306.986V1064.13H304.236V1044.88H315.236ZM323.222 1061.38H334.222V1064.13H320.472V1044.88H334.222V1047.63H323.222V1053.13H331.472V1055.88H323.222V1061.38ZM339.457 1061.38H336.707V1058.63H339.457V1061.38ZM347.707 1064.13H339.457V1061.38H347.707V1064.13ZM350.457 1061.38H347.707V1055.88H350.457V1061.38ZM347.707 1047.63H339.457V1044.88H347.707V1047.63ZM350.457 1050.38H347.707V1047.63H350.457V1050.38ZM339.457 1053.13H336.707V1047.63H339.457V1053.13ZM347.707 1055.88H339.457V1053.13H347.707V1055.88ZM355.693 1061.38H366.693V1064.13H352.943V1044.88H366.693V1047.63H355.693V1053.13H363.943V1055.88H355.693V1061.38ZM371.929 1050.38V1064.13H369.179V1044.88H374.679V1050.38H371.929ZM377.429 1058.63H374.679V1050.38H377.429V1058.63ZM380.179 1058.63V1044.88H382.929V1064.13H377.429V1058.63H380.179ZM390.915 1047.63H385.415V1044.88H399.165V1047.63H393.665V1064.13H390.915V1047.63ZM404.401 1055.88V1064.13H401.651V1047.63H404.401V1053.13H412.651V1047.63H415.401V1064.13H412.651V1055.88H404.401ZM412.651 1047.63H404.401V1044.88H412.651V1047.63ZM423.386 1047.63H417.886V1044.88H431.636V1047.63H426.136V1064.13H423.386V1047.63ZM442.372 1061.38H447.872V1064.13H434.122V1061.38H439.622V1047.63H434.122V1044.88H447.872V1047.63H442.372V1061.38ZM453.108 1061.38H450.358V1047.63H453.108V1061.38ZM464.108 1061.38H461.358V1047.63H464.108V1061.38ZM461.358 1047.63H453.108V1044.88H461.358V1047.63ZM461.358 1064.13H453.108V1061.38H461.358V1064.13ZM469.344 1050.38V1064.13H466.594V1044.88H472.094V1050.38H469.344ZM474.844 1058.63H472.094V1050.38H474.844V1058.63ZM477.594 1058.63V1044.88H480.344V1064.13H474.844V1058.63H477.594ZM512.815 1053.13H510.065V1047.63H512.815V1053.13ZM512.815 1064.13H510.065V1061.38H512.815V1064.13ZM510.065 1061.38H507.315V1058.63H510.065V1061.38ZM510.065 1044.88V1047.63H501.815V1053.13H510.065V1055.88H507.315V1058.63H504.565V1055.88H501.815V1064.13H499.065V1044.88H510.065ZM518.051 1061.38H515.301V1047.63H518.051V1061.38ZM529.051 1061.38H526.301V1047.63H529.051V1061.38ZM526.301 1047.63H518.051V1044.88H526.301V1047.63ZM526.301 1064.13H518.051V1061.38H526.301V1064.13ZM534.287 1061.38H531.537V1044.88H534.287V1061.38ZM542.537 1064.13H534.287V1061.38H542.537V1064.13ZM545.287 1061.38H542.537V1044.88H545.287V1061.38ZM550.523 1050.38V1064.13H547.773V1044.88H553.273V1050.38H550.523ZM556.023 1058.63H553.273V1050.38H556.023V1058.63ZM558.773 1058.63V1044.88H561.523V1064.13H556.023V1058.63H558.773ZM572.259 1044.88V1047.63H566.759V1061.38H572.259V1064.13H564.009V1044.88H572.259ZM577.759 1058.63H575.009V1050.38H577.759V1058.63ZM575.009 1050.38H572.259V1047.63H575.009V1050.38ZM575.009 1061.38H572.259V1058.63H575.009V1061.38ZM582.995 1061.38H580.245V1058.63H582.995V1061.38ZM591.245 1064.13H582.995V1061.38H591.245V1064.13ZM593.995 1061.38H591.245V1055.88H593.995V1061.38ZM591.245 1047.63H582.995V1044.88H591.245V1047.63ZM593.995 1050.38H591.245V1047.63H593.995V1050.38ZM582.995 1053.13H580.245V1047.63H582.995V1053.13ZM591.245 1055.88H582.995V1053.13H591.245V1055.88ZM615.466 1061.38H626.466V1064.13H612.716V1044.88H626.466V1047.63H615.466V1053.13H623.716V1055.88H615.466V1061.38ZM631.702 1050.38V1064.13H628.952V1044.88H634.452V1050.38H631.702ZM637.202 1058.63H634.452V1050.38H637.202V1058.63ZM639.952 1058.63V1044.88H642.702V1064.13H637.202V1058.63H639.952ZM653.438 1044.88V1047.63H647.938V1061.38H653.438V1064.13H645.188V1044.88H653.438ZM658.938 1058.63H656.188V1050.38H658.938V1058.63ZM656.188 1050.38H653.438V1047.63H656.188V1050.38ZM656.188 1061.38H653.438V1058.63H656.188V1061.38Z" fill="#AEE3FF"/>
<rect width="726.75" height="69.75" transform="translate(18 1106.88)" fill="#211F10"/>
<path d="M47.1083 1149.13H52.6083V1151.88H38.8583V1149.13H44.3583V1135.38H38.8583V1132.63H47.1083V1149.13ZM63.3441 1149.13H68.8441V1151.88H55.0941V1149.13H60.5941V1135.38H55.0941V1132.63H63.3441V1149.13ZM79.5799 1151.88H76.8299V1149.13H79.5799V1151.88ZM79.5799 1140.88H76.8299V1138.13H79.5799V1140.88ZM95.8157 1143.63H93.0657V1140.88H95.8157V1143.63ZM90.3157 1149.13H87.5657V1135.38H90.3157V1149.13ZM101.316 1149.13H98.5657V1135.38H101.316V1149.13ZM98.5657 1135.38H90.3157V1132.63H98.5657V1135.38ZM98.5657 1151.88H90.3157V1149.13H98.5657V1151.88ZM112.052 1143.63H109.302V1140.88H112.052V1143.63ZM106.552 1149.13H103.802V1135.38H106.552V1149.13ZM117.552 1149.13H114.802V1135.38H117.552V1149.13ZM114.802 1135.38H106.552V1132.63H114.802V1135.38ZM114.802 1151.88H106.552V1149.13H114.802V1151.88ZM139.023 1143.63V1151.88H136.273V1135.38H139.023V1140.88H147.273V1135.38H150.023V1151.88H147.273V1143.63H139.023ZM147.273 1135.38H139.023V1132.63H147.273V1135.38ZM155.259 1140.88V1151.88H152.509V1132.63H155.259V1135.38H158.009V1140.88H155.259ZM160.759 1146.38H158.009V1140.88H160.759V1146.38ZM163.509 1135.38V1132.63H166.259V1151.88H163.509V1140.88H160.759V1135.38H163.509Z" fill="#AEE3FF"/>
<path d="M293.5 1135.38H288V1132.63H301.75V1135.38H296.25V1151.88H293.5V1135.38ZM306.986 1149.13H304.236V1135.38H306.986V1149.13ZM317.986 1149.13H315.236V1135.38H317.986V1149.13ZM315.236 1135.38H306.986V1132.63H315.236V1135.38ZM315.236 1151.88H306.986V1149.13H315.236V1151.88ZM334.222 1140.88H331.472V1135.38H334.222V1140.88ZM331.472 1132.63V1135.38H323.222V1140.88H331.472V1143.63H323.222V1151.88H320.472V1132.63H331.472ZM361.193 1149.13H366.693V1151.88H352.943V1149.13H358.443V1135.38H352.943V1132.63H361.193V1149.13ZM377.429 1143.63H374.679V1140.88H377.429V1143.63ZM371.929 1149.13H369.179V1135.38H371.929V1149.13ZM382.929 1149.13H380.179V1135.38H382.929V1149.13ZM380.179 1135.38H371.929V1132.63H380.179V1135.38ZM380.179 1151.88H371.929V1149.13H380.179V1151.88ZM407.151 1135.38H401.651V1132.63H415.401V1135.38H409.901V1151.88H407.151V1135.38ZM420.636 1149.13H431.636V1151.88H417.886V1132.63H431.636V1135.38H420.636V1140.88H428.886V1143.63H420.636V1149.13ZM436.872 1143.63V1151.88H434.122V1135.38H436.872V1140.88H445.122V1135.38H447.872V1151.88H445.122V1143.63H436.872ZM445.122 1135.38H436.872V1132.63H445.122V1135.38ZM453.108 1140.88V1151.88H450.358V1132.63H453.108V1135.38H455.858V1140.88H453.108ZM458.608 1146.38H455.858V1140.88H458.608V1146.38ZM461.358 1135.38V1132.63H464.108V1151.88H461.358V1140.88H458.608V1135.38H461.358ZM469.344 1149.13H466.594V1146.38H469.344V1149.13ZM477.594 1151.88H469.344V1149.13H477.594V1151.88ZM480.344 1149.13H477.594V1143.63H480.344V1149.13ZM477.594 1135.38H469.344V1132.63H477.594V1135.38ZM480.344 1138.13H477.594V1135.38H480.344V1138.13ZM469.344 1140.88H466.594V1135.38H469.344V1140.88ZM477.594 1143.63H469.344V1140.88H477.594V1143.63ZM512.815 1140.88H510.065V1135.38H512.815V1140.88ZM510.065 1132.63V1135.38H501.815V1140.88H510.065V1143.63H501.815V1151.88H499.065V1132.63H510.065ZM529.051 1140.88H526.301V1135.38H529.051V1140.88ZM529.051 1151.88H526.301V1149.13H529.051V1151.88ZM526.301 1149.13H523.551V1146.38H526.301V1149.13ZM526.301 1132.63V1135.38H518.051V1140.88H526.301V1143.63H523.551V1146.38H520.801V1143.63H518.051V1151.88H515.301V1132.63H526.301ZM534.287 1149.13H545.287V1151.88H531.537V1132.63H545.287V1135.38H534.287V1140.88H542.537V1143.63H534.287V1149.13ZM550.523 1149.13H547.773V1146.38H550.523V1149.13ZM558.773 1151.88H550.523V1149.13H558.773V1151.88ZM561.523 1149.13H558.773V1143.63H561.523V1149.13ZM558.773 1135.38H550.523V1132.63H558.773V1135.38ZM561.523 1138.13H558.773V1135.38H561.523V1138.13ZM550.523 1140.88H547.773V1135.38H550.523V1140.88ZM558.773 1143.63H550.523V1140.88H558.773V1143.63ZM566.759 1149.13H577.759V1151.88H564.009V1132.63H577.759V1135.38H566.759V1140.88H575.009V1143.63H566.759V1149.13ZM582.995 1138.13V1151.88H580.245V1132.63H585.745V1138.13H582.995ZM588.495 1146.38H585.745V1138.13H588.495V1146.38ZM591.245 1146.38V1132.63H593.995V1151.88H588.495V1146.38H591.245ZM601.98 1135.38H596.48V1132.63H610.23V1135.38H604.73V1151.88H601.98V1135.38Z" fill="#AEE3FF"/>
<rect width="726.75" height="69.75" transform="translate(18 1194.63)" fill="#211F10"/>
<path d="M47.1083 1236.88H52.6083V1239.63H38.8583V1236.88H44.3583V1223.13H38.8583V1220.38H47.1083V1236.88ZM57.8441 1225.88H55.0941V1223.13H57.8441V1225.88ZM66.0941 1223.13H57.8441V1220.38H66.0941V1223.13ZM68.8441 1228.63H66.0941V1223.13H68.8441V1228.63ZM66.0941 1231.38H63.3441V1228.63H66.0941V1231.38ZM63.3441 1234.13H60.5941V1231.38H63.3441V1234.13ZM60.5941 1236.88H68.8441V1239.63H55.0941V1236.88H57.8441V1234.13H60.5941V1236.88ZM79.5799 1239.63H76.8299V1236.88H79.5799V1239.63ZM79.5799 1228.63H76.8299V1225.88H79.5799V1228.63ZM95.8157 1231.38H93.0657V1228.63H95.8157V1231.38ZM90.3157 1236.88H87.5657V1223.13H90.3157V1236.88ZM101.316 1236.88H98.5657V1223.13H101.316V1236.88ZM98.5657 1223.13H90.3157V1220.38H98.5657V1223.13ZM98.5657 1239.63H90.3157V1236.88H98.5657V1239.63ZM112.052 1231.38H109.302V1228.63H112.052V1231.38ZM106.552 1236.88H103.802V1223.13H106.552V1236.88ZM117.552 1236.88H114.802V1223.13H117.552V1236.88ZM114.802 1223.13H106.552V1220.38H114.802V1223.13ZM114.802 1239.63H106.552V1236.88H114.802V1239.63ZM150.023 1228.63H147.273V1223.13H150.023V1228.63ZM147.273 1220.38V1223.13H139.023V1228.63H147.273V1231.38H139.023V1239.63H136.273V1220.38H147.273ZM155.259 1228.63V1239.63H152.509V1220.38H155.259V1223.13H158.009V1228.63H155.259ZM160.759 1234.13H158.009V1228.63H160.759V1234.13ZM163.509 1223.13V1220.38H166.259V1239.63H163.509V1228.63H160.759V1223.13H163.509Z" fill="#AEE3FF"/>
<path d="M290.75 1234.13H288V1220.38H290.75V1234.13ZM296.25 1234.13H293.5V1220.38H296.25V1234.13ZM301.75 1234.13H299V1220.38H301.75V1234.13ZM293.5 1239.63H290.75V1234.13H293.5V1239.63ZM299 1239.63H296.25V1234.13H299V1239.63ZM312.486 1236.88H317.986V1239.63H304.236V1236.88H309.736V1223.13H304.236V1220.38H317.986V1223.13H312.486V1236.88ZM323.222 1225.88V1239.63H320.472V1220.38H325.972V1225.88H323.222ZM328.722 1234.13H325.972V1225.88H328.722V1234.13ZM331.472 1234.13V1220.38H334.222V1239.63H328.722V1234.13H331.472ZM339.457 1225.88V1239.63H336.707V1220.38H342.207V1225.88H339.457ZM344.957 1234.13H342.207V1225.88H344.957V1234.13ZM347.707 1234.13V1220.38H350.457V1239.63H344.957V1234.13H347.707ZM355.693 1236.88H366.693V1239.63H352.943V1220.38H366.693V1223.13H355.693V1228.63H363.943V1231.38H355.693V1236.88ZM382.929 1228.63H380.179V1223.13H382.929V1228.63ZM382.929 1239.63H380.179V1236.88H382.929V1239.63ZM380.179 1236.88H377.429V1234.13H380.179V1236.88ZM380.179 1220.38V1223.13H371.929V1228.63H380.179V1231.38H377.429V1234.13H374.679V1231.38H371.929V1239.63H369.179V1220.38H380.179ZM388.165 1236.88H385.415V1234.13H388.165V1236.88ZM396.415 1239.63H388.165V1236.88H396.415V1239.63ZM399.165 1236.88H396.415V1231.38H399.165V1236.88ZM396.415 1223.13H388.165V1220.38H396.415V1223.13ZM399.165 1225.88H396.415V1223.13H399.165V1225.88ZM388.165 1228.63H385.415V1223.13H388.165V1228.63ZM396.415 1231.38H388.165V1228.63H396.415V1231.38ZM420.636 1231.38V1239.63H417.886V1223.13H420.636V1228.63H428.886V1223.13H431.636V1239.63H428.886V1231.38H420.636ZM428.886 1223.13H420.636V1220.38H428.886V1223.13ZM436.872 1225.88V1239.63H434.122V1220.38H439.622V1225.88H436.872ZM442.372 1234.13H439.622V1225.88H442.372V1234.13ZM445.122 1234.13V1220.38H447.872V1239.63H442.372V1234.13H445.122ZM453.108 1225.88V1239.63H450.358V1220.38H455.858V1225.88H453.108ZM458.608 1234.13H455.858V1225.88H458.608V1234.13ZM461.358 1234.13V1220.38H464.108V1239.63H458.608V1234.13H461.358ZM469.344 1236.88H466.594V1223.13H469.344V1236.88ZM480.344 1236.88H477.594V1223.13H480.344V1236.88ZM477.594 1223.13H469.344V1220.38H477.594V1223.13ZM477.594 1239.63H469.344V1236.88H477.594V1239.63ZM485.58 1236.88H482.83V1220.38H485.58V1236.88ZM493.83 1239.63H485.58V1236.88H493.83V1239.63ZM496.58 1236.88H493.83V1220.38H496.58V1236.88ZM501.815 1225.88V1239.63H499.065V1220.38H504.565V1225.88H501.815ZM507.315 1234.13H504.565V1225.88H507.315V1234.13ZM510.065 1234.13V1220.38H512.815V1239.63H507.315V1234.13H510.065ZM518.051 1236.88H515.301V1223.13H518.051V1236.88ZM529.051 1236.88H526.301V1234.13H529.051V1236.88ZM529.051 1225.88H526.301V1223.13H529.051V1225.88ZM526.301 1239.63H518.051V1236.88H526.301V1239.63ZM526.301 1223.13H518.051V1220.38H526.301V1223.13ZM534.287 1236.88H545.287V1239.63H531.537V1220.38H545.287V1223.13H534.287V1228.63H542.537V1231.38H534.287V1236.88ZM556.023 1220.38V1223.13H550.523V1236.88H556.023V1239.63H547.773V1220.38H556.023ZM561.523 1234.13H558.773V1225.88H561.523V1234.13ZM558.773 1225.88H556.023V1223.13H558.773V1225.88ZM558.773 1236.88H556.023V1234.13H558.773V1236.88Z" fill="#AEE3FF"/>
<rect width="726.75" height="69.75" transform="translate(18 1280.19)" fill="#211F10"/>
<path d="M47.1083 1316.94H44.3583V1314.19H47.1083V1316.94ZM41.6083 1322.44H38.8583V1308.69H41.6083V1322.44ZM52.6083 1322.44H49.8583V1308.69H52.6083V1322.44ZM49.8583 1308.69H41.6083V1305.94H49.8583V1308.69ZM49.8583 1325.19H41.6083V1322.44H49.8583V1325.19ZM63.3441 1322.44H68.8441V1325.19H55.0941V1322.44H60.5941V1308.69H55.0941V1305.94H63.3441V1322.44ZM79.5799 1325.19H76.8299V1322.44H79.5799V1325.19ZM79.5799 1314.19H76.8299V1311.44H79.5799V1314.19ZM95.8157 1316.94H93.0657V1314.19H95.8157V1316.94ZM90.3157 1322.44H87.5657V1308.69H90.3157V1322.44ZM101.316 1322.44H98.5657V1308.69H101.316V1322.44ZM98.5657 1308.69H90.3157V1305.94H98.5657V1308.69ZM98.5657 1325.19H90.3157V1322.44H98.5657V1325.19ZM112.052 1316.94H109.302V1314.19H112.052V1316.94ZM106.552 1322.44H103.802V1308.69H106.552V1322.44ZM117.552 1322.44H114.802V1308.69H117.552V1322.44ZM114.802 1308.69H106.552V1305.94H114.802V1308.69ZM114.802 1325.19H106.552V1322.44H114.802V1325.19ZM150.023 1314.19H147.273V1308.69H150.023V1314.19ZM147.273 1305.94V1308.69H139.023V1314.19H147.273V1316.94H139.023V1325.19H136.273V1305.94H147.273ZM155.259 1314.19V1325.19H152.509V1305.94H155.259V1308.69H158.009V1314.19H155.259ZM160.759 1319.69H158.009V1314.19H160.759V1319.69ZM163.509 1308.69V1305.94H166.259V1325.19H163.509V1314.19H160.759V1308.69H163.509Z" fill="#AEE3FF"/>
<path d="M290.75 1316.94V1325.19H288V1308.69H290.75V1314.19H299V1308.69H301.75V1325.19H299V1316.94H290.75ZM299 1308.69H290.75V1305.94H299V1308.69ZM317.986 1305.94V1308.69H306.986V1314.19H315.236V1316.94H306.986V1325.19H304.236V1305.94H317.986ZM325.972 1308.69H320.472V1305.94H334.222V1308.69H328.722V1325.19H325.972V1308.69ZM339.457 1322.44H350.457V1325.19H336.707V1305.94H350.457V1308.69H339.457V1314.19H347.707V1316.94H339.457V1322.44ZM366.693 1314.19H363.943V1308.69H366.693V1314.19ZM366.693 1325.19H363.943V1322.44H366.693V1325.19ZM363.943 1322.44H361.193V1319.69H363.943V1322.44ZM363.943 1305.94V1308.69H355.693V1314.19H363.943V1316.94H361.193V1319.69H358.443V1316.94H355.693V1325.19H352.943V1305.94H363.943ZM388.165 1322.44H399.165V1325.19H385.415V1305.94H399.165V1308.69H388.165V1314.19H396.415V1316.94H388.165V1322.44ZM409.901 1325.19H407.151V1319.69H409.901V1325.19ZM407.151 1319.69H404.401V1314.19H407.151V1319.69ZM412.651 1319.69H409.901V1314.19H412.651V1319.69ZM404.401 1314.19H401.651V1305.94H404.401V1314.19ZM415.401 1314.19H412.651V1305.94H415.401V1314.19ZM420.636 1322.44H431.636V1325.19H417.886V1305.94H431.636V1308.69H420.636V1314.19H428.886V1316.94H420.636V1322.44ZM436.872 1311.44V1325.19H434.122V1305.94H439.622V1311.44H436.872ZM442.372 1319.69H439.622V1311.44H442.372V1319.69ZM445.122 1319.69V1305.94H447.872V1325.19H442.372V1319.69H445.122ZM455.858 1308.69H450.358V1305.94H464.108V1308.69H458.608V1325.19H455.858V1308.69ZM485.58 1314.19V1325.19H482.83V1305.94H485.58V1308.69H488.33V1314.19H485.58ZM491.08 1319.69H488.33V1314.19H491.08V1319.69ZM493.83 1308.69V1305.94H496.58V1325.19H493.83V1314.19H491.08V1308.69H493.83ZM501.815 1322.44H512.815V1325.19H499.065V1305.94H512.815V1308.69H501.815V1314.19H510.065V1316.94H501.815V1322.44ZM518.051 1322.44H529.051V1325.19H515.301V1305.94H529.051V1308.69H518.051V1314.19H526.301V1316.94H518.051V1322.44ZM537.037 1308.69H531.537V1305.94H545.287V1308.69H539.787V1325.19H537.037V1308.69ZM566.759 1322.44H564.009V1311.44H566.759V1322.44ZM577.759 1327.94H569.509V1325.19H577.759V1327.94ZM577.759 1308.69H569.509V1305.94H577.759V1308.69ZM569.509 1325.19H566.759V1322.44H569.509V1325.19ZM569.509 1311.44H566.759V1308.69H569.509V1311.44ZM582.995 1319.69H580.245V1305.94H582.995V1319.69ZM588.495 1319.69H585.745V1305.94H588.495V1319.69ZM593.995 1319.69H591.245V1305.94H593.995V1319.69ZM585.745 1325.19H582.995V1319.69H585.745V1325.19ZM591.245 1325.19H588.495V1319.69H591.245V1325.19ZM604.73 1322.44H610.23V1325.19H596.48V1322.44H601.98V1308.69H596.48V1305.94H610.23V1308.69H604.73V1322.44ZM615.466 1311.44V1325.19H612.716V1305.94H618.216V1311.44H615.466ZM620.966 1319.69H618.216V1311.44H620.966V1319.69ZM623.716 1319.69V1305.94H626.466V1325.19H620.966V1319.69H623.716ZM631.702 1311.44V1325.19H628.952V1305.94H634.452V1311.44H631.702ZM637.202 1319.69H634.452V1311.44H637.202V1319.69ZM639.952 1319.69V1305.94H642.702V1325.19H637.202V1319.69H639.952ZM647.938 1322.44H658.938V1325.19H645.188V1305.94H658.938V1308.69H647.938V1314.19H656.188V1316.94H647.938V1322.44ZM675.174 1314.19H672.424V1308.69H675.174V1314.19ZM675.174 1325.19H672.424V1322.44H675.174V1325.19ZM672.424 1322.44H669.674V1319.69H672.424V1322.44ZM672.424 1305.94V1308.69H664.174V1314.19H672.424V1316.94H669.674V1319.69H666.924V1316.94H664.174V1325.19H661.424V1305.94H672.424ZM680.409 1322.44H677.659V1319.69H680.409V1322.44ZM688.659 1325.19H680.409V1322.44H688.659V1325.19ZM691.409 1322.44H688.659V1316.94H691.409V1322.44ZM688.659 1308.69H680.409V1305.94H688.659V1308.69ZM691.409 1311.44H688.659V1308.69H691.409V1311.44ZM680.409 1314.19H677.659V1308.69H680.409V1314.19ZM688.659 1316.94H680.409V1314.19H688.659V1316.94ZM704.895 1322.44V1311.44H707.645V1322.44H704.895ZM693.895 1327.94V1325.19H702.145V1327.94H693.895ZM693.895 1308.69V1305.94H702.145V1308.69H693.895ZM702.145 1325.19V1322.44H704.895V1325.19H702.145ZM702.145 1311.44V1308.69H704.895V1311.44H702.145Z" fill="#AEE3FF"/>
<rect width="726.75" height="69.75" transform="translate(18 1370.19)" fill="#211F10"/>
<path d="M47.1083 1406.94H44.3583V1404.19H47.1083V1406.94ZM41.6083 1412.44H38.8583V1398.69H41.6083V1412.44ZM52.6083 1412.44H49.8583V1398.69H52.6083V1412.44ZM49.8583 1398.69H41.6083V1395.94H49.8583V1398.69ZM49.8583 1415.19H41.6083V1412.44H49.8583V1415.19ZM57.8441 1401.44H55.0941V1398.69H57.8441V1401.44ZM66.0941 1398.69H57.8441V1395.94H66.0941V1398.69ZM68.8441 1404.19H66.0941V1398.69H68.8441V1404.19ZM66.0941 1406.94H63.3441V1404.19H66.0941V1406.94ZM63.3441 1409.69H60.5941V1406.94H63.3441V1409.69ZM60.5941 1412.44H68.8441V1415.19H55.0941V1412.44H57.8441V1409.69H60.5941V1412.44ZM79.5799 1415.19H76.8299V1412.44H79.5799V1415.19ZM79.5799 1404.19H76.8299V1401.44H79.5799V1404.19ZM95.8157 1406.94H93.0657V1404.19H95.8157V1406.94ZM90.3157 1412.44H87.5657V1398.69H90.3157V1412.44ZM101.316 1412.44H98.5657V1398.69H101.316V1412.44ZM98.5657 1398.69H90.3157V1395.94H98.5657V1398.69ZM98.5657 1415.19H90.3157V1412.44H98.5657V1415.19ZM112.052 1406.94H109.302V1404.19H112.052V1406.94ZM106.552 1412.44H103.802V1398.69H106.552V1412.44ZM117.552 1412.44H114.802V1398.69H117.552V1412.44ZM114.802 1398.69H106.552V1395.94H114.802V1398.69ZM114.802 1415.19H106.552V1412.44H114.802V1415.19ZM150.023 1404.19H147.273V1398.69H150.023V1404.19ZM147.273 1395.94V1398.69H139.023V1404.19H147.273V1406.94H139.023V1415.19H136.273V1395.94H147.273ZM155.259 1404.19V1415.19H152.509V1395.94H155.259V1398.69H158.009V1404.19H155.259ZM160.759 1409.69H158.009V1404.19H160.759V1409.69ZM163.509 1398.69V1395.94H166.259V1415.19H163.509V1404.19H160.759V1398.69H163.509Z" fill="#AEE3FF"/>
<path d="M290.75 1412.44H301.75V1415.19H288V1395.94H301.75V1398.69H290.75V1404.19H299V1406.94H290.75V1412.44ZM312.486 1415.19H309.736V1409.69H312.486V1415.19ZM309.736 1409.69H306.986V1404.19H309.736V1409.69ZM315.236 1409.69H312.486V1404.19H315.236V1409.69ZM306.986 1404.19H304.236V1395.94H306.986V1404.19ZM317.986 1404.19H315.236V1395.94H317.986V1404.19ZM323.222 1412.44H334.222V1415.19H320.472V1395.94H334.222V1398.69H323.222V1404.19H331.472V1406.94H323.222V1412.44ZM339.457 1401.44V1415.19H336.707V1395.94H342.207V1401.44H339.457ZM344.957 1409.69H342.207V1401.44H344.957V1409.69ZM347.707 1409.69V1395.94H350.457V1415.19H344.957V1409.69H347.707ZM358.443 1398.69H352.943V1395.94H366.693V1398.69H361.193V1415.19H358.443V1398.69ZM388.165 1412.44H399.165V1415.19H385.415V1395.94H399.165V1398.69H388.165V1404.19H396.415V1406.94H388.165V1412.44ZM404.401 1401.44V1415.19H401.651V1395.94H407.151V1401.44H404.401ZM409.901 1409.69H407.151V1401.44H409.901V1409.69ZM412.651 1409.69V1395.94H415.401V1415.19H409.901V1409.69H412.651ZM426.136 1395.94V1398.69H420.636V1412.44H426.136V1415.19H417.886V1395.94H426.136ZM431.636 1409.69H428.886V1401.44H431.636V1409.69ZM428.886 1401.44H426.136V1398.69H428.886V1401.44ZM428.886 1412.44H426.136V1409.69H428.886V1412.44ZM436.872 1412.44H434.122V1409.69H436.872V1412.44ZM445.122 1415.19H436.872V1412.44H445.122V1415.19ZM447.872 1412.44H445.122V1406.94H447.872V1412.44ZM445.122 1398.69H436.872V1395.94H445.122V1398.69ZM447.872 1401.44H445.122V1398.69H447.872V1401.44ZM436.872 1404.19H434.122V1398.69H436.872V1404.19ZM445.122 1406.94H436.872V1404.19H445.122V1406.94Z" fill="#AEE3FF"/>
<rect width="141.75" height="63" transform="translate(0.0128174)" fill="#211F10"/>
<path d="M25.9065 34.4385V42.6885H23.1565V26.1885H25.9065V31.6885H34.1565V26.1885H36.9065V42.6885H34.1565V34.4385H25.9065ZM34.1565 26.1885H25.9065V23.4385H34.1565V26.1885ZM42.1423 39.9385H39.3923V26.1885H42.1423V39.9385ZM50.3923 34.4385H44.8923V31.6885H53.1423V39.9385H50.3923V34.4385ZM50.3923 26.1885H42.1423V23.4385H50.3923V26.1885ZM50.3923 42.6885H42.1423V39.9385H50.3923V42.6885ZM58.3781 39.9385H69.3781V42.6885H55.6281V23.4385H69.3781V26.1885H58.3781V31.6885H66.6281V34.4385H58.3781V39.9385ZM74.6139 28.9385V42.6885H71.8639V23.4385H77.3639V28.9385H74.6139ZM80.1139 37.1885H77.3639V28.9385H80.1139V37.1885ZM82.8639 37.1885V23.4385H85.6139V42.6885H80.1139V37.1885H82.8639ZM96.3497 23.4385V26.1885H90.8497V39.9385H96.3497V42.6885H88.0997V23.4385H96.3497ZM101.85 37.1885H99.0997V28.9385H101.85V37.1885ZM99.0997 28.9385H96.3497V26.1885H99.0997V28.9385ZM99.0997 39.9385H96.3497V37.1885H99.0997V39.9385ZM107.085 34.4385V42.6885H104.335V26.1885H107.085V31.6885H115.335V26.1885H118.085V42.6885H115.335V34.4385H107.085ZM115.335 26.1885H107.085V23.4385H115.335V26.1885Z" fill="#F3787F"/>
<rect width="141.75" height="63" transform="translate(0.0128174 661.438)" fill="#211F10"/>
<path d="M25.9065 695.877V704.127H23.1565V687.627H25.9065V693.127H34.1565V687.627H36.9065V704.127H34.1565V695.877H25.9065ZM34.1565 687.627H25.9065V684.877H34.1565V687.627ZM42.1423 701.377H39.3923V687.627H42.1423V701.377ZM50.3923 695.877H44.8923V693.127H53.1423V701.377H50.3923V695.877ZM50.3923 687.627H42.1423V684.877H50.3923V687.627ZM50.3923 704.127H42.1423V701.377H50.3923V704.127ZM58.3781 701.377H69.3781V704.127H55.6281V684.877H69.3781V687.627H58.3781V693.127H66.6281V695.877H58.3781V701.377ZM74.6139 690.377V704.127H71.8639V684.877H77.3639V690.377H74.6139ZM80.1139 698.627H77.3639V690.377H80.1139V698.627ZM82.8639 698.627V684.877H85.6139V704.127H80.1139V698.627H82.8639ZM96.3497 684.877V687.627H90.8497V701.377H96.3497V704.127H88.0997V684.877H96.3497ZM101.85 698.627H99.0997V690.377H101.85V698.627ZM99.0997 690.377H96.3497V687.627H99.0997V690.377ZM99.0997 701.377H96.3497V698.627H99.0997V701.377ZM107.085 695.877V704.127H104.335V687.627H107.085V693.127H115.335V687.627H118.085V704.127H115.335V695.877H107.085ZM115.335 687.627H107.085V684.877H115.335V687.627Z" fill="#F3787F"/>
<rect width="141.75" height="63" transform="translate(621.013)" fill="#211F10"/>
<path d="M659.399 23.4385V26.1885H653.899V39.9385H659.399V42.6885H651.149V23.4385H659.399ZM664.899 37.1885H662.149V28.9385H664.899V37.1885ZM662.149 28.9385H659.399V26.1885H662.149V28.9385ZM662.149 39.9385H659.399V37.1885H662.149V39.9385ZM670.135 34.4385V42.6885H667.385V26.1885H670.135V31.6885H678.385V26.1885H681.135V42.6885H678.385V34.4385H670.135ZM678.385 26.1885H670.135V23.4385H678.385V26.1885ZM686.371 31.6885H683.621V23.4385H686.371V31.6885ZM691.871 34.4385V42.6885H689.121V34.4385H686.371V31.6885H694.621V34.4385H691.871ZM697.371 31.6885H694.621V23.4385H697.371V31.6885ZM724.343 39.9385H729.843V42.6885H716.093V39.9385H721.593V26.1885H716.093V23.4385H724.343V39.9385Z" fill="#F9BD0D"/>
<rect width="141.75" height="63" transform="translate(621.013 661.438)" fill="#211F10"/>
<path d="M659.399 684.877V687.627H653.899V701.377H659.399V704.127H651.149V684.877H659.399ZM664.899 698.627H662.149V690.377H664.899V698.627ZM662.149 690.377H659.399V687.627H662.149V690.377ZM662.149 701.377H659.399V698.627H662.149V701.377ZM670.135 695.877V704.127H667.385V687.627H670.135V693.127H678.385V687.627H681.135V704.127H678.385V695.877H670.135ZM678.385 687.627H670.135V684.877H678.385V687.627ZM686.371 693.127H683.621V684.877H686.371V693.127ZM691.871 695.877V704.127H689.121V695.877H686.371V693.127H694.621V695.877H691.871ZM697.371 693.127H694.621V684.877H697.371V693.127ZM718.843 690.377H716.093V687.627H718.843V690.377ZM727.093 687.627H718.843V684.877H727.093V687.627ZM729.843 693.127H727.093V687.627H729.843V693.127ZM727.093 695.877H724.343V693.127H727.093V695.877ZM724.343 698.627H721.593V695.877H724.343V698.627ZM721.593 701.377H729.843V704.127H716.093V701.377H718.843V698.627H721.593V701.377Z" fill="#F9BD0D"/>
<rect x="137.25" y="26.9385" width="488.25" height="9" fill="#211F10"/>
<rect x="137.25" y="688.377" width="488.25" height="9" fill="#211F10"/>
</svg>
