<svg width="339" height="650" viewBox="0 0 339 650" fill="none" xmlns="http://www.w3.org/2000/svg">
<rect x="7.67578" y="28" width="2.55858" height="4.26429" fill="#211F10"/>
<rect x="52.8772" y="28" width="2.55858" height="4.26429" fill="#211F10"/>
<rect x="7.67578" y="321.973" width="2.55858" height="4.26429" fill="#211F10"/>
<rect x="52.8772" y="321.973" width="2.55858" height="4.26429" fill="#211F10"/>
<rect x="283.575" y="28" width="2.55858" height="4.26429" fill="#211F10"/>
<rect x="328.777" y="28" width="2.55858" height="4.26429" fill="#211F10"/>
<rect x="283.575" y="321.973" width="2.55858" height="4.26429" fill="#211F10"/>
<rect x="328.777" y="321.973" width="2.55858" height="4.26429" fill="#211F10"/>
<rect x="283.575" y="28" width="2.55858" height="4.26429" fill="#211F10"/>
<rect x="328.777" y="28" width="2.55858" height="4.26429" fill="#211F10"/>
<rect x="283.575" y="321.973" width="2.55858" height="4.26429" fill="#211F10"/>
<rect x="328.777" y="321.973" width="2.55858" height="4.26429" fill="#211F10"/>
<rect width="339" height="246" transform="translate(0 31.9727)" fill="black"/>
<rect width="323" height="31" transform="translate(8 41.9727)" fill="#211F10"/>
<path d="M20.9369 58.306H19.7147V57.0838H20.9369V58.306ZM18.4925 60.7504H17.2703V54.6393H18.4925V60.7504ZM23.3814 60.7504H22.1592V54.6393H23.3814V60.7504ZM22.1592 54.6393H18.4925V53.4171H22.1592V54.6393ZM22.1592 61.9727H18.4925V60.7504H22.1592V61.9727ZM25.7084 55.8615H24.4862V54.6393H25.7084V55.8615ZM29.3751 54.6393H25.7084V53.4171H29.3751V54.6393ZM30.5973 57.0838H29.3751V54.6393H30.5973V57.0838ZM29.3751 58.306H28.1528V57.0838H29.3751V58.306ZM28.1528 59.5282H26.9306V58.306H28.1528V59.5282ZM26.9306 60.7504H30.5973V61.9727H24.4862V60.7504H25.7084V59.5282H26.9306V60.7504ZM35.3688 61.9727H34.1465V60.7504H35.3688V61.9727ZM35.3688 57.0838H34.1465V55.8615H35.3688V57.0838ZM42.5847 58.306H41.3624V57.0838H42.5847V58.306ZM40.1402 60.7504H38.918V54.6393H40.1402V60.7504ZM45.0291 60.7504H43.8069V54.6393H45.0291V60.7504ZM43.8069 54.6393H40.1402V53.4171H43.8069V54.6393ZM43.8069 61.9727H40.1402V60.7504H43.8069V61.9727ZM49.8006 58.306H48.5784V57.0838H49.8006V58.306ZM47.3561 60.7504H46.1339V54.6393H47.3561V60.7504ZM52.245 60.7504H51.0228V54.6393H52.245V60.7504ZM51.0228 54.6393H47.3561V53.4171H51.0228V54.6393ZM51.0228 61.9727H47.3561V60.7504H51.0228V61.9727ZM66.6769 57.0838H65.4546V54.6393H66.6769V57.0838ZM65.4546 53.4171V54.6393H61.788V57.0838H65.4546V58.306H61.788V61.9727H60.5657V53.4171H65.4546ZM69.0039 57.0838V61.9727H67.7817V53.4171H69.0039V54.6393H70.2261V57.0838H69.0039ZM71.4483 59.5282H70.2261V57.0838H71.4483V59.5282ZM72.6706 54.6393V53.4171H73.8928V61.9727H72.6706V57.0838H71.4483V54.6393H72.6706Z" fill="#C9FF49"/>
<path d="M129.222 60.7504H134.111V61.9727H128V53.4171H134.111V54.6393H129.222V57.0838H132.889V58.306H129.222V60.7504ZM136.438 55.8615V61.9727H135.216V53.4171H137.66V55.8615H136.438ZM138.883 59.5282H137.66V55.8615H138.883V59.5282ZM140.105 59.5282V53.4171H141.327V61.9727H138.883V59.5282H140.105ZM144.876 54.6393H142.432V53.4171H148.543V54.6393H146.098V61.9727H144.876V54.6393ZM155.759 57.0838H154.537V54.6393H155.759V57.0838ZM155.759 61.9727H154.537V60.7504H155.759V61.9727ZM154.537 60.7504H153.314V59.5282H154.537V60.7504ZM154.537 53.4171V54.6393H150.87V57.0838H154.537V58.306H153.314V59.5282H152.092V58.306H150.87V61.9727H149.648V53.4171H154.537ZM160.53 60.7504H162.975V61.9727H156.864V60.7504H159.308V54.6393H156.864V53.4171H162.975V54.6393H160.53V60.7504ZM165.302 60.7504H170.191V61.9727H164.08V53.4171H170.191V54.6393H165.302V57.0838H168.968V58.306H165.302V60.7504ZM172.518 60.7504H171.295V59.5282H172.518V60.7504ZM176.184 61.9727H172.518V60.7504H176.184V61.9727ZM177.407 60.7504H176.184V58.306H177.407V60.7504ZM176.184 54.6393H172.518V53.4171H176.184V54.6393ZM177.407 55.8615H176.184V54.6393H177.407V55.8615ZM172.518 57.0838H171.295V54.6393H172.518V57.0838ZM176.184 58.306H172.518V57.0838H176.184V58.306ZM186.95 60.7504H190.616V61.9727H185.727V53.4171H190.616V54.6393H186.95V57.0838H190.616V58.306H186.95V60.7504ZM191.838 60.7504H190.616V58.306H191.838V60.7504ZM191.838 57.0838H190.616V54.6393H191.838V57.0838ZM194.165 60.7504H199.054V61.9727H192.943V53.4171H199.054V54.6393H194.165V57.0838H197.832V58.306H194.165V60.7504ZM201.381 60.7504H200.159V54.6393H201.381V60.7504ZM205.048 58.306H202.604V57.0838H206.27V60.7504H205.048V58.306ZM205.048 54.6393H201.381V53.4171H205.048V54.6393ZM205.048 61.9727H201.381V60.7504H205.048V61.9727ZM211.042 60.7504H213.486V61.9727H207.375V60.7504H209.819V54.6393H207.375V53.4171H213.486V54.6393H211.042V60.7504ZM215.813 55.8615V61.9727H214.591V53.4171H217.035V55.8615H215.813ZM218.258 59.5282H217.035V55.8615H218.258V59.5282ZM219.48 59.5282V53.4171H220.702V61.9727H218.258V59.5282H219.48Z" fill="#C9FF49"/>
<rect width="323" height="31" transform="translate(8 80.9727)" fill="#211F10"/>
<path d="M20.9369 97.306H19.7147V96.0838H20.9369V97.306ZM18.4925 99.7504H17.2703V93.6393H18.4925V99.7504ZM23.3814 99.7504H22.1592V93.6393H23.3814V99.7504ZM22.1592 93.6393H18.4925V92.4171H22.1592V93.6393ZM22.1592 100.973H18.4925V99.7504H22.1592V100.973ZM25.7084 94.8615H24.4862V93.6393H25.7084V94.8615ZM29.3751 93.6393H25.7084V92.4171H29.3751V93.6393ZM30.5973 96.0838H29.3751V93.6393H30.5973V96.0838ZM29.3751 97.306H26.9306V96.0838H29.3751V97.306ZM30.5973 99.7504H29.3751V97.306H30.5973V99.7504ZM29.3751 100.973H25.7084V99.7504H29.3751V100.973ZM25.7084 99.7504H24.4862V98.5282H25.7084V99.7504ZM35.3688 100.973H34.1465V99.7504H35.3688V100.973ZM35.3688 96.0838H34.1465V94.8615H35.3688V96.0838ZM42.5847 97.306H41.3624V96.0838H42.5847V97.306ZM40.1402 99.7504H38.918V93.6393H40.1402V99.7504ZM45.0291 99.7504H43.8069V93.6393H45.0291V99.7504ZM43.8069 93.6393H40.1402V92.4171H43.8069V93.6393ZM43.8069 100.973H40.1402V99.7504H43.8069V100.973ZM49.8006 97.306H48.5784V96.0838H49.8006V97.306ZM47.3561 99.7504H46.1339V93.6393H47.3561V99.7504ZM52.245 99.7504H51.0228V93.6393H52.245V99.7504ZM51.0228 93.6393H47.3561V92.4171H51.0228V93.6393ZM51.0228 100.973H47.3561V99.7504H51.0228V100.973ZM66.6769 96.0838H65.4546V93.6393H66.6769V96.0838ZM65.4546 92.4171V93.6393H61.788V96.0838H65.4546V97.306H61.788V100.973H60.5657V92.4171H65.4546ZM69.0039 96.0838V100.973H67.7817V92.4171H69.0039V93.6393H70.2261V96.0838H69.0039ZM71.4483 98.5282H70.2261V96.0838H71.4483V98.5282ZM72.6706 93.6393V92.4171H73.8928V100.973H72.6706V96.0838H71.4483V93.6393H72.6706Z" fill="#C9FF49"/>
<path d="M129.222 99.7504H128V93.6393H129.222V99.7504ZM134.111 99.7504H132.889V93.6393H134.111V99.7504ZM132.889 93.6393H129.222V92.4171H132.889V93.6393ZM132.889 100.973H129.222V99.7504H132.889V100.973ZM141.327 96.0838H140.105V93.6393H141.327V96.0838ZM140.105 92.4171V93.6393H136.438V96.0838H140.105V97.306H136.438V100.973H135.216V92.4171H140.105ZM143.654 99.7504H148.543V100.973H142.432V92.4171H148.543V93.6393H143.654V96.0838H147.321V97.306H143.654V99.7504ZM150.87 94.8615V100.973H149.648V92.4171H152.092V94.8615H150.87ZM153.314 98.5282H152.092V94.8615H153.314V98.5282ZM154.537 98.5282V92.4171H155.759V100.973H153.314V98.5282H154.537ZM160.53 99.7504H162.975V100.973H156.864V99.7504H159.308V93.6393H156.864V92.4171H162.975V93.6393H160.53V99.7504ZM165.302 94.8615V100.973H164.08V92.4171H166.524V94.8615H165.302ZM167.746 98.5282H166.524V94.8615H167.746V98.5282ZM168.968 98.5282V92.4171H170.191V100.973H167.746V98.5282H168.968ZM172.518 99.7504H171.295V93.6393H172.518V99.7504ZM176.184 97.306H173.74V96.0838H177.407V99.7504H176.184V97.306ZM176.184 93.6393H172.518V92.4171H176.184V93.6393ZM176.184 100.973H172.518V99.7504H176.184V100.973ZM186.95 97.306V100.973H185.727V92.4171H186.95V96.0838H188.172V97.306H186.95ZM191.838 93.6393H190.616V92.4171H191.838V93.6393ZM190.616 94.8615H189.394V93.6393H190.616V94.8615ZM189.394 96.0838H188.172V94.8615H189.394V96.0838ZM191.838 100.973H190.616V99.7504H191.838V100.973ZM190.616 99.7504H189.394V98.5282H190.616V99.7504ZM189.394 98.5282H188.172V97.306H189.394V98.5282ZM194.165 99.7504H199.054V100.973H192.943V92.4171H199.054V93.6393H194.165V96.0838H197.832V97.306H194.165V99.7504ZM201.381 96.0838H200.159V92.4171H201.381V96.0838ZM203.826 97.306V100.973H202.604V97.306H201.381V96.0838H205.048V97.306H203.826ZM206.27 96.0838H205.048V92.4171H206.27V96.0838ZM208.597 94.8615V100.973H207.375V92.4171H209.819V94.8615H208.597ZM211.042 98.5282H209.819V94.8615H211.042V98.5282ZM212.264 98.5282V92.4171H213.486V100.973H211.042V98.5282H212.264ZM215.813 99.7504H214.591V93.6393H215.813V99.7504ZM220.702 99.7504H219.48V93.6393H220.702V99.7504ZM219.48 93.6393H215.813V92.4171H219.48V93.6393ZM219.48 100.973H215.813V99.7504H219.48V100.973ZM224.251 93.6393H221.807V92.4171H227.918V93.6393H225.474V100.973H224.251V93.6393ZM230.245 99.7504H235.134V100.973H229.023V92.4171H235.134V93.6393H230.245V96.0838H233.912V97.306H230.245V99.7504Z" fill="#C9FF49"/>
<rect width="323" height="31" transform="translate(8 119.973)" fill="#211F10"/>
<path d="M20.9369 136.306H19.7147V135.084H20.9369V136.306ZM18.4925 138.75H17.2703V132.639H18.4925V138.75ZM23.3814 138.75H22.1592V132.639H23.3814V138.75ZM22.1592 132.639H18.4925V131.417H22.1592V132.639ZM22.1592 139.973H18.4925V138.75H22.1592V139.973ZM25.7084 133.862H24.4862V132.639H25.7084V133.862ZM29.3751 132.639H25.7084V131.417H29.3751V132.639ZM30.5973 135.084H29.3751V132.639H30.5973V135.084ZM29.3751 136.306H26.9306V135.084H29.3751V136.306ZM30.5973 138.75H29.3751V136.306H30.5973V138.75ZM29.3751 139.973H25.7084V138.75H29.3751V139.973ZM25.7084 138.75H24.4862V137.528H25.7084V138.75ZM35.3688 139.973H34.1465V138.75H35.3688V139.973ZM35.3688 135.084H34.1465V133.862H35.3688V135.084ZM41.3624 135.084H40.1402V133.862H41.3624V135.084ZM43.8069 137.528V139.973H42.5847V137.528H38.918V135.084H40.1402V136.306H42.5847V133.862H41.3624V132.639H42.5847V131.417H43.8069V136.306H45.0291V137.528H43.8069ZM52.245 138.75H51.0228V136.306H52.245V138.75ZM51.0228 139.973H47.3561V138.75H51.0228V139.973ZM47.3561 138.75H46.1339V137.528H47.3561V138.75ZM47.3561 135.084H51.0228V136.306H46.1339V131.417H52.245V132.639H47.3561V135.084ZM66.6769 135.084H65.4546V132.639H66.6769V135.084ZM65.4546 131.417V132.639H61.788V135.084H65.4546V136.306H61.788V139.973H60.5657V131.417H65.4546ZM69.0039 135.084V139.973H67.7817V131.417H69.0039V132.639H70.2261V135.084H69.0039ZM71.4483 137.528H70.2261V135.084H71.4483V137.528ZM72.6706 132.639V131.417H73.8928V139.973H72.6706V135.084H71.4483V132.639H72.6706Z" fill="#C9FF49"/>
<path d="M134.111 135.084H132.889V132.639H134.111V135.084ZM132.889 131.417V132.639H129.222V135.084H132.889V136.306H129.222V139.973H128V131.417H132.889ZM141.327 135.084H140.105V132.639H141.327V135.084ZM141.327 139.973H140.105V138.75H141.327V139.973ZM140.105 138.75H138.883V137.528H140.105V138.75ZM140.105 131.417V132.639H136.438V135.084H140.105V136.306H138.883V137.528H137.66V136.306H136.438V139.973H135.216V131.417H140.105ZM143.654 138.75H142.432V132.639H143.654V138.75ZM148.543 138.75H147.321V132.639H148.543V138.75ZM147.321 132.639H143.654V131.417H147.321V132.639ZM147.321 139.973H143.654V138.75H147.321V139.973ZM150.87 138.75H154.537V139.973H149.648V131.417H154.537V132.639H150.87V135.084H154.537V136.306H150.87V138.75ZM155.759 138.75H154.537V136.306H155.759V138.75ZM155.759 135.084H154.537V132.639H155.759V135.084ZM156.864 139.973V131.417H158.086V138.75H162.975V139.973H156.864ZM165.302 138.75H170.191V139.973H164.08V131.417H170.191V132.639H165.302V135.084H168.968V136.306H165.302V138.75ZM172.518 135.084V139.973H171.295V131.417H172.518V132.639H173.74V135.084H172.518ZM174.962 137.528H173.74V135.084H174.962V137.528ZM176.184 132.639V131.417H177.407V139.973H176.184V135.084H174.962V132.639H176.184ZM186.95 138.75H185.727V137.528H186.95V138.75ZM190.616 139.973H186.95V138.75H190.616V139.973ZM191.838 138.75H190.616V136.306H191.838V138.75ZM190.616 132.639H186.95V131.417H190.616V132.639ZM191.838 133.862H190.616V132.639H191.838V133.862ZM186.95 135.084H185.727V132.639H186.95V135.084ZM190.616 136.306H186.95V135.084H190.616V136.306ZM195.388 132.639H192.943V131.417H199.054V132.639H196.61V139.973H195.388V132.639ZM201.381 136.306V139.973H200.159V132.639H201.381V135.084H205.048V132.639H206.27V139.973H205.048V136.306H201.381ZM205.048 132.639H201.381V131.417H205.048V132.639ZM209.819 132.639H207.375V131.417H213.486V132.639H211.042V139.973H209.819V132.639ZM215.813 138.75H220.702V139.973H214.591V131.417H220.702V132.639H215.813V135.084H219.48V136.306H215.813V138.75ZM223.029 135.084V139.973H221.807V131.417H223.029V132.639H224.251V135.084H223.029ZM225.474 137.528H224.251V135.084H225.474V137.528ZM226.696 132.639V131.417H227.918V139.973H226.696V135.084H225.474V132.639H226.696ZM230.245 138.75H235.134V139.973H229.023V131.417H235.134V132.639H230.245V135.084H233.912V136.306H230.245V138.75ZM237.461 133.862V139.973H236.239V131.417H238.683V133.862H237.461ZM239.905 137.528H238.683V133.862H239.905V137.528ZM241.128 137.528V131.417H242.35V139.973H239.905V137.528H241.128ZM245.899 132.639H243.455V131.417H249.566V132.639H247.121V139.973H245.899V132.639ZM251.893 138.75H250.671V137.528H251.893V138.75ZM255.559 139.973H251.893V138.75H255.559V139.973ZM256.782 138.75H255.559V136.306H256.782V138.75ZM255.559 132.639H251.893V131.417H255.559V132.639ZM256.782 133.862H255.559V132.639H256.782V133.862ZM251.893 135.084H250.671V132.639H251.893V135.084ZM255.559 136.306H251.893V135.084H255.559V136.306ZM271.213 135.084H269.991V132.639H271.213V135.084ZM271.213 139.973H269.991V138.75H271.213V139.973ZM269.991 138.75H268.769V137.528H269.991V138.75ZM269.991 131.417V132.639H266.325V135.084H269.991V136.306H268.769V137.528H267.547V136.306H266.325V139.973H265.102V131.417H269.991ZM273.541 138.75H278.429V139.973H272.318V131.417H278.429V132.639H273.541V135.084H277.207V136.306H273.541V138.75ZM283.201 139.973H281.979V137.528H283.201V139.973ZM281.979 137.528H280.756V135.084H281.979V137.528ZM284.423 137.528H283.201V135.084H284.423V137.528ZM280.756 135.084H279.534V131.417H280.756V135.084ZM285.645 135.084H284.423V131.417H285.645V135.084ZM287.972 138.75H292.861V139.973H286.75V131.417H292.861V132.639H287.972V135.084H291.639V136.306H287.972V138.75ZM295.188 136.306V139.973H293.966V132.639H295.188V135.084H298.855V132.639H300.077V139.973H298.855V136.306H295.188ZM298.855 132.639H295.188V131.417H298.855V132.639ZM301.182 139.973V131.417H302.404V138.75H307.293V139.973H301.182Z" fill="#C9FF49"/>
<rect width="323" height="31" transform="translate(8 158.973)" fill="#211F10"/>
<path d="M20.9369 175.306H19.7147V174.084H20.9369V175.306ZM18.4925 177.75H17.2703V171.639H18.4925V177.75ZM23.3814 177.75H22.1592V171.639H23.3814V177.75ZM22.1592 171.639H18.4925V170.417H22.1592V171.639ZM22.1592 178.973H18.4925V177.75H22.1592V178.973ZM30.5973 177.75H29.3751V175.306H30.5973V177.75ZM29.3751 178.973H25.7084V177.75H29.3751V178.973ZM25.7084 177.75H24.4862V176.528H25.7084V177.75ZM25.7084 174.084H29.3751V175.306H24.4862V170.417H30.5973V171.639H25.7084V174.084ZM35.3688 178.973H34.1465V177.75H35.3688V178.973ZM35.3688 174.084H34.1465V172.862H35.3688V174.084ZM40.1402 172.862H38.918V171.639H40.1402V172.862ZM43.8069 171.639H40.1402V170.417H43.8069V171.639ZM45.0291 174.084H43.8069V171.639H45.0291V174.084ZM43.8069 175.306H41.3624V174.084H43.8069V175.306ZM45.0291 177.75H43.8069V175.306H45.0291V177.75ZM43.8069 178.973H40.1402V177.75H43.8069V178.973ZM40.1402 177.75H38.918V176.528H40.1402V177.75ZM49.8006 175.306H48.5784V174.084H49.8006V175.306ZM47.3561 177.75H46.1339V171.639H47.3561V177.75ZM52.245 177.75H51.0228V171.639H52.245V177.75ZM51.0228 171.639H47.3561V170.417H51.0228V171.639ZM51.0228 178.973H47.3561V177.75H51.0228V178.973ZM66.6769 174.084H65.4546V171.639H66.6769V174.084ZM65.4546 170.417V171.639H61.788V174.084H65.4546V175.306H61.788V178.973H60.5657V170.417H65.4546ZM69.0039 174.084V178.973H67.7817V170.417H69.0039V171.639H70.2261V174.084H69.0039ZM71.4483 176.528H70.2261V174.084H71.4483V176.528ZM72.6706 171.639V170.417H73.8928V178.973H72.6706V174.084H71.4483V171.639H72.6706Z" fill="#C9FF49"/>
<path d="M129.222 174.084V178.973H128V170.417H129.222V171.639H130.444V174.084H129.222ZM131.667 176.528H130.444V174.084H131.667V176.528ZM132.889 171.639V170.417H134.111V178.973H132.889V174.084H131.667V171.639H132.889ZM136.438 177.75H141.327V178.973H135.216V170.417H141.327V171.639H136.438V174.084H140.105V175.306H136.438V177.75ZM143.654 172.862V178.973H142.432V170.417H144.876V172.862H143.654ZM146.098 176.528H144.876V172.862H146.098V176.528ZM147.321 176.528V170.417H148.543V178.973H146.098V176.528H147.321ZM152.092 171.639H149.648V170.417H155.759V171.639H153.314V178.973H152.092V171.639ZM158.086 177.75H156.864V171.639H158.086V177.75ZM162.975 177.75H161.753V171.639H162.975V177.75ZM161.753 171.639H158.086V170.417H161.753V171.639ZM161.753 178.973H158.086V177.75H161.753V178.973ZM170.191 174.084H168.968V171.639H170.191V174.084ZM170.191 178.973H168.968V177.75H170.191V178.973ZM168.968 177.75H167.746V176.528H168.968V177.75ZM168.968 170.417V171.639H165.302V174.084H168.968V175.306H167.746V176.528H166.524V175.306H165.302V178.973H164.08V170.417H168.968ZM179.734 177.75H178.511V171.639H179.734V177.75ZM184.623 177.75H183.4V176.528H184.623V177.75ZM184.623 172.862H183.4V171.639H184.623V172.862ZM183.4 178.973H179.734V177.75H183.4V178.973ZM183.4 171.639H179.734V170.417H183.4V171.639ZM186.95 175.306V178.973H185.727V170.417H186.95V174.084H190.616V170.417H191.838V178.973H190.616V175.306H186.95ZM194.165 177.75H199.054V178.973H192.943V170.417H199.054V171.639H194.165V174.084H197.832V175.306H194.165V177.75ZM201.381 177.75H200.159V171.639H201.381V177.75ZM206.27 177.75H205.048V176.528H206.27V177.75ZM206.27 172.862H205.048V171.639H206.27V172.862ZM205.048 178.973H201.381V177.75H205.048V178.973ZM205.048 171.639H201.381V170.417H205.048V171.639ZM208.597 175.306V178.973H207.375V170.417H208.597V174.084H209.819V175.306H208.597ZM213.486 171.639H212.264V170.417H213.486V171.639ZM212.264 172.862H211.042V171.639H212.264V172.862ZM211.042 174.084H209.819V172.862H211.042V174.084ZM213.486 178.973H212.264V177.75H213.486V178.973ZM212.264 177.75H211.042V176.528H212.264V177.75ZM211.042 176.528H209.819V175.306H211.042V176.528ZM220.702 175.306H214.591V174.084H220.702V175.306ZM225.474 177.75H227.918V178.973H221.807V177.75H224.251V171.639H221.807V170.417H227.918V171.639H225.474V177.75ZM230.245 172.862V178.973H229.023V170.417H231.467V172.862H230.245ZM232.689 176.528H231.467V172.862H232.689V176.528ZM233.912 176.528V170.417H235.134V178.973H232.689V176.528H233.912ZM237.461 177.75H236.239V176.528H237.461V177.75ZM241.128 178.973H237.461V177.75H241.128V178.973ZM242.35 177.75H241.128V175.306H242.35V177.75ZM241.128 171.639H237.461V170.417H241.128V171.639ZM242.35 172.862H241.128V171.639H242.35V172.862ZM237.461 174.084H236.239V171.639H237.461V174.084ZM241.128 175.306H237.461V174.084H241.128V175.306Z" fill="#C9FF49"/>
<rect width="323" height="31" transform="translate(8 197.973)" fill="#211F10"/>
<path d="M20.9369 214.306H19.7147V213.084H20.9369V214.306ZM18.4925 216.75H17.2703V210.639H18.4925V216.75ZM23.3814 216.75H22.1592V210.639H23.3814V216.75ZM22.1592 210.639H18.4925V209.417H22.1592V210.639ZM22.1592 217.973H18.4925V216.75H22.1592V217.973ZM29.3751 217.973H25.7084V216.75H29.3751V217.973ZM30.5973 211.862H29.3751V210.639H30.5973V211.862ZM29.3751 210.639H25.7084V209.417H29.3751V210.639ZM25.7084 214.306V216.75H24.4862V210.639H25.7084V213.084H29.3751V214.306H25.7084ZM30.5973 216.75H29.3751V214.306H30.5973V216.75ZM35.3688 217.973H34.1465V216.75H35.3688V217.973ZM35.3688 213.084H34.1465V211.862H35.3688V213.084ZM40.1402 211.862H38.918V210.639H40.1402V211.862ZM43.8069 210.639H40.1402V209.417H43.8069V210.639ZM45.0291 213.084H43.8069V210.639H45.0291V213.084ZM43.8069 214.306H41.3624V213.084H43.8069V214.306ZM45.0291 216.75H43.8069V214.306H45.0291V216.75ZM43.8069 217.973H40.1402V216.75H43.8069V217.973ZM40.1402 216.75H38.918V215.528H40.1402V216.75ZM49.8006 214.306H48.5784V213.084H49.8006V214.306ZM47.3561 216.75H46.1339V210.639H47.3561V216.75ZM52.245 216.75H51.0228V210.639H52.245V216.75ZM51.0228 210.639H47.3561V209.417H51.0228V210.639ZM51.0228 217.973H47.3561V216.75H51.0228V217.973ZM66.6769 213.084H65.4546V210.639H66.6769V213.084ZM65.4546 209.417V210.639H61.788V213.084H65.4546V214.306H61.788V217.973H60.5657V209.417H65.4546ZM69.0039 213.084V217.973H67.7817V209.417H69.0039V210.639H70.2261V213.084H69.0039ZM71.4483 215.528H70.2261V213.084H71.4483V215.528ZM72.6706 210.639V209.417H73.8928V217.973H72.6706V213.084H71.4483V210.639H72.6706Z" fill="#C9FF49"/>
<path d="M129.222 214.306V217.973H128V209.417H129.222V213.084H132.889V209.417H134.111V217.973H132.889V214.306H129.222ZM138.883 216.75H141.327V217.973H135.216V216.75H137.66V210.639H135.216V209.417H141.327V210.639H138.883V216.75ZM148.543 214.306H142.432V213.084H148.543V214.306ZM152.092 210.639H149.648V209.417H155.759V210.639H153.314V217.973H152.092V210.639ZM158.086 216.75H162.975V217.973H156.864V209.417H162.975V210.639H158.086V213.084H161.753V214.306H158.086V216.75ZM165.302 214.306V217.973H164.08V210.639H165.302V213.084H168.968V210.639H170.191V217.973H168.968V214.306H165.302ZM168.968 210.639H165.302V209.417H168.968V210.639ZM180.956 210.639H179.734V209.417H180.956V210.639ZM184.623 217.973H183.4V216.75H184.623V217.973ZM183.4 216.75H182.178V215.528H183.4V216.75ZM182.178 215.528H180.956V214.306H182.178V215.528ZM180.956 214.306H179.734V213.084H180.956V214.306ZM179.734 213.084H178.511V210.639H179.734V213.084ZM182.178 213.084H180.956V210.639H182.178V213.084ZM182.178 217.973H179.734V216.75H182.178V217.973ZM179.734 216.75H178.511V214.306H179.734V216.75ZM184.623 215.528H183.4V214.306H184.623V215.528ZM194.165 211.862V217.973H192.943V209.417H195.388V211.862H194.165ZM196.61 215.528H195.388V211.862H196.61V215.528ZM197.832 215.528V209.417H199.054V217.973H196.61V215.528H197.832ZM201.381 216.75H206.27V217.973H200.159V209.417H206.27V210.639H201.381V213.084H205.048V214.306H201.381V216.75ZM209.819 210.639H207.375V209.417H213.486V210.639H211.042V217.973H209.819V210.639ZM215.813 215.528H214.591V209.417H215.813V215.528ZM218.258 215.528H217.035V209.417H218.258V215.528ZM220.702 215.528H219.48V209.417H220.702V215.528ZM217.035 217.973H215.813V215.528H217.035V217.973ZM219.48 217.973H218.258V215.528H219.48V217.973ZM223.029 216.75H221.807V210.639H223.029V216.75ZM227.918 216.75H226.696V210.639H227.918V216.75ZM226.696 210.639H223.029V209.417H226.696V210.639ZM226.696 217.973H223.029V216.75H226.696V217.973ZM235.134 213.084H233.912V210.639H235.134V213.084ZM235.134 217.973H233.912V216.75H235.134V217.973ZM233.912 216.75H232.689V215.528H233.912V216.75ZM233.912 209.417V210.639H230.245V213.084H233.912V214.306H232.689V215.528H231.467V214.306H230.245V217.973H229.023V209.417H233.912ZM237.461 214.306V217.973H236.239V209.417H237.461V213.084H238.683V214.306H237.461ZM242.35 210.639H241.128V209.417H242.35V210.639ZM241.128 211.862H239.905V210.639H241.128V211.862ZM239.905 213.084H238.683V211.862H239.905V213.084ZM242.35 217.973H241.128V216.75H242.35V217.973ZM241.128 216.75H239.905V215.528H241.128V216.75ZM239.905 215.528H238.683V214.306H239.905V215.528ZM247.121 216.75H249.566V217.973H243.455V216.75H245.899V210.639H243.455V209.417H249.566V210.639H247.121V216.75ZM251.893 211.862V217.973H250.671V209.417H253.115V211.862H251.893ZM254.337 215.528H253.115V211.862H254.337V215.528ZM255.559 215.528V209.417H256.782V217.973H254.337V215.528H255.559ZM259.109 216.75H257.886V210.639H259.109V216.75ZM262.775 214.306H260.331V213.084H263.998V216.75H262.775V214.306ZM262.775 210.639H259.109V209.417H262.775V210.639ZM262.775 217.973H259.109V216.75H262.775V217.973Z" fill="#C9FF49"/>
<rect width="323" height="31" transform="translate(8 236.973)" fill="#211F10"/>
<path d="M20.9369 253.306H19.7147V252.084H20.9369V253.306ZM18.4925 255.75H17.2703V249.639H18.4925V255.75ZM23.3814 255.75H22.1592V249.639H23.3814V255.75ZM22.1592 249.639H18.4925V248.417H22.1592V249.639ZM22.1592 256.973H18.4925V255.75H22.1592V256.973ZM29.3751 256.973H25.7084V255.75H29.3751V256.973ZM29.3751 249.639H25.7084V248.417H29.3751V249.639ZM25.7084 252.084H24.4862V249.639H25.7084V252.084ZM25.7084 255.75H24.4862V254.528H25.7084V255.75ZM29.3751 253.306H25.7084V252.084H29.3751V249.639H30.5973V255.75H29.3751V253.306ZM35.3688 256.973H34.1465V255.75H35.3688V256.973ZM35.3688 252.084H34.1465V250.862H35.3688V252.084ZM40.1402 250.862H38.918V249.639H40.1402V250.862ZM43.8069 249.639H40.1402V248.417H43.8069V249.639ZM45.0291 252.084H43.8069V249.639H45.0291V252.084ZM43.8069 253.306H41.3624V252.084H43.8069V253.306ZM45.0291 255.75H43.8069V253.306H45.0291V255.75ZM43.8069 256.973H40.1402V255.75H43.8069V256.973ZM40.1402 255.75H38.918V254.528H40.1402V255.75ZM49.8006 253.306H48.5784V252.084H49.8006V253.306ZM47.3561 255.75H46.1339V249.639H47.3561V255.75ZM52.245 255.75H51.0228V249.639H52.245V255.75ZM51.0228 249.639H47.3561V248.417H51.0228V249.639ZM51.0228 256.973H47.3561V255.75H51.0228V256.973ZM66.6769 252.084H65.4546V249.639H66.6769V252.084ZM65.4546 248.417V249.639H61.788V252.084H65.4546V253.306H61.788V256.973H60.5657V248.417H65.4546ZM69.0039 252.084V256.973H67.7817V248.417H69.0039V249.639H70.2261V252.084H69.0039ZM71.4483 254.528H70.2261V252.084H71.4483V254.528ZM72.6706 249.639V248.417H73.8928V256.973H72.6706V252.084H71.4483V249.639H72.6706Z" fill="#C9FF49"/>
<path d="M131.667 248.417V249.639H129.222V255.75H131.667V256.973H128V248.417H131.667ZM134.111 254.528H132.889V250.862H134.111V254.528ZM132.889 250.862H131.667V249.639H132.889V250.862ZM132.889 255.75H131.667V254.528H132.889V255.75ZM138.883 255.75H141.327V256.973H135.216V255.75H137.66V249.639H135.216V248.417H141.327V249.639H138.883V255.75ZM143.654 250.862V256.973H142.432V248.417H144.876V250.862H143.654ZM146.098 254.528H144.876V250.862H146.098V254.528ZM147.321 254.528V248.417H148.543V256.973H146.098V254.528H147.321ZM150.87 250.862V256.973H149.648V248.417H152.092V250.862H150.87ZM153.314 254.528H152.092V250.862H153.314V254.528ZM154.537 254.528V248.417H155.759V256.973H153.314V254.528H154.537ZM158.086 255.75H162.975V256.973H156.864V248.417H162.975V249.639H158.086V252.084H161.753V253.306H158.086V255.75ZM170.191 252.084H168.968V249.639H170.191V252.084ZM170.191 256.973H168.968V255.75H170.191V256.973ZM168.968 255.75H167.746V254.528H168.968V255.75ZM168.968 248.417V249.639H165.302V252.084H168.968V253.306H167.746V254.528H166.524V253.306H165.302V256.973H164.08V248.417H168.968ZM180.956 249.639H179.734V248.417H180.956V249.639ZM184.623 256.973H183.4V255.75H184.623V256.973ZM183.4 255.75H182.178V254.528H183.4V255.75ZM182.178 254.528H180.956V253.306H182.178V254.528ZM180.956 253.306H179.734V252.084H180.956V253.306ZM179.734 252.084H178.511V249.639H179.734V252.084ZM182.178 252.084H180.956V249.639H182.178V252.084ZM182.178 256.973H179.734V255.75H182.178V256.973ZM179.734 255.75H178.511V253.306H179.734V255.75ZM184.623 254.528H183.4V253.306H184.623V254.528ZM194.165 250.862V256.973H192.943V248.417H195.388V250.862H194.165ZM196.61 254.528H195.388V250.862H196.61V254.528ZM197.832 254.528V248.417H199.054V256.973H196.61V254.528H197.832ZM201.381 255.75H206.27V256.973H200.159V248.417H206.27V249.639H201.381V252.084H205.048V253.306H201.381V255.75ZM209.819 249.639H207.375V248.417H213.486V249.639H211.042V256.973H209.819V249.639ZM215.813 254.528H214.591V248.417H215.813V254.528ZM218.258 254.528H217.035V248.417H218.258V254.528ZM220.702 254.528H219.48V248.417H220.702V254.528ZM217.035 256.973H215.813V254.528H217.035V256.973ZM219.48 256.973H218.258V254.528H219.48V256.973ZM223.029 255.75H221.807V249.639H223.029V255.75ZM227.918 255.75H226.696V249.639H227.918V255.75ZM226.696 249.639H223.029V248.417H226.696V249.639ZM226.696 256.973H223.029V255.75H226.696V256.973ZM235.134 252.084H233.912V249.639H235.134V252.084ZM235.134 256.973H233.912V255.75H235.134V256.973ZM233.912 255.75H232.689V254.528H233.912V255.75ZM233.912 248.417V249.639H230.245V252.084H233.912V253.306H232.689V254.528H231.467V253.306H230.245V256.973H229.023V248.417H233.912ZM237.461 253.306V256.973H236.239V248.417H237.461V252.084H238.683V253.306H237.461ZM242.35 249.639H241.128V248.417H242.35V249.639ZM241.128 250.862H239.905V249.639H241.128V250.862ZM239.905 252.084H238.683V250.862H239.905V252.084ZM242.35 256.973H241.128V255.75H242.35V256.973ZM241.128 255.75H239.905V254.528H241.128V255.75ZM239.905 254.528H238.683V253.306H239.905V254.528ZM247.121 255.75H249.566V256.973H243.455V255.75H245.899V249.639H243.455V248.417H249.566V249.639H247.121V255.75ZM251.893 250.862V256.973H250.671V248.417H253.115V250.862H251.893ZM254.337 254.528H253.115V250.862H254.337V254.528ZM255.559 254.528V248.417H256.782V256.973H254.337V254.528H255.559ZM259.109 255.75H257.886V249.639H259.109V255.75ZM262.775 253.306H260.331V252.084H263.998V255.75H262.775V253.306ZM262.775 249.639H259.109V248.417H262.775V249.639ZM262.775 256.973H259.109V255.75H262.775V256.973Z" fill="#C9FF49"/>
<rect width="339" height="324" transform="translate(0 325.973)" fill="black"/>
<rect width="323" height="31" transform="translate(8 335.945)" fill="#211F10"/>
<path d="M20.9369 352.279H19.7147V351.056H20.9369V352.279ZM18.4925 354.723H17.2703V348.612H18.4925V354.723ZM23.3814 354.723H22.1592V348.612H23.3814V354.723ZM22.1592 348.612H18.4925V347.39H22.1592V348.612ZM22.1592 355.945H18.4925V354.723H22.1592V355.945ZM25.7084 355.945H24.4862V354.723H25.7084V355.945ZM26.9306 354.723H25.7084V353.501H26.9306V354.723ZM28.1528 353.501H26.9306V352.279H28.1528V353.501ZM29.3751 352.279H28.1528V351.056H29.3751V352.279ZM29.3751 348.612H24.4862V347.39H30.5973V351.056H29.3751V348.612ZM35.3688 355.945H34.1465V354.723H35.3688V355.945ZM35.3688 351.056H34.1465V349.834H35.3688V351.056ZM42.5847 352.279H41.3624V351.056H42.5847V352.279ZM40.1402 354.723H38.918V348.612H40.1402V354.723ZM45.0291 354.723H43.8069V348.612H45.0291V354.723ZM43.8069 348.612H40.1402V347.39H43.8069V348.612ZM43.8069 355.945H40.1402V354.723H43.8069V355.945ZM49.8006 352.279H48.5784V351.056H49.8006V352.279ZM47.3561 354.723H46.1339V348.612H47.3561V354.723ZM52.245 354.723H51.0228V348.612H52.245V354.723ZM51.0228 348.612H47.3561V347.39H51.0228V348.612ZM51.0228 355.945H47.3561V354.723H51.0228V355.945ZM61.788 352.279V355.945H60.5657V348.612H61.788V351.056H65.4546V348.612H66.6769V355.945H65.4546V352.279H61.788ZM65.4546 348.612H61.788V347.39H65.4546V348.612ZM69.0039 351.056V355.945H67.7817V347.39H69.0039V348.612H70.2261V351.056H69.0039ZM71.4483 353.501H70.2261V351.056H71.4483V353.501ZM72.6706 348.612V347.39H73.8928V355.945H72.6706V351.056H71.4483V348.612H72.6706Z" fill="#AEE3FF"/>
<path d="M129.222 354.723H132.889V355.945H128V347.39H132.889V348.612H129.222V351.056H132.889V352.279H129.222V354.723ZM134.111 354.723H132.889V352.279H134.111V354.723ZM134.111 351.056H132.889V348.612H134.111V351.056ZM141.327 351.056H140.105V348.612H141.327V351.056ZM141.327 355.945H140.105V354.723H141.327V355.945ZM140.105 354.723H138.883V353.501H140.105V354.723ZM140.105 347.39V348.612H136.438V351.056H140.105V352.279H138.883V353.501H137.66V352.279H136.438V355.945H135.216V347.39H140.105ZM143.654 354.723H148.543V355.945H142.432V347.39H148.543V348.612H143.654V351.056H147.321V352.279H143.654V354.723ZM150.87 352.279V355.945H149.648V348.612H150.87V351.056H154.537V348.612H155.759V355.945H154.537V352.279H150.87ZM154.537 348.612H150.87V347.39H154.537V348.612ZM158.086 352.279V355.945H156.864V347.39H158.086V351.056H159.308V352.279H158.086ZM162.975 348.612H161.753V347.39H162.975V348.612ZM161.753 349.834H160.53V348.612H161.753V349.834ZM160.53 351.056H159.308V349.834H160.53V351.056ZM162.975 355.945H161.753V354.723H162.975V355.945ZM161.753 354.723H160.53V353.501H161.753V354.723ZM160.53 353.501H159.308V352.279H160.53V353.501ZM170.191 347.39V348.612H165.302V351.056H168.968V352.279H165.302V355.945H164.08V347.39H170.191ZM172.518 352.279V355.945H171.295V348.612H172.518V351.056H176.184V348.612H177.407V355.945H176.184V352.279H172.518ZM176.184 348.612H172.518V347.39H176.184V348.612ZM179.734 354.723H178.511V353.501H179.734V354.723ZM183.4 355.945H179.734V354.723H183.4V355.945ZM184.623 354.723H183.4V352.279H184.623V354.723ZM183.4 348.612H179.734V347.39H183.4V348.612ZM184.623 349.834H183.4V348.612H184.623V349.834ZM179.734 351.056H178.511V348.612H179.734V351.056ZM183.4 352.279H179.734V351.056H183.4V352.279ZM188.172 348.612H185.727V347.39H191.838V348.612H189.394V355.945H188.172V348.612Z" fill="#AEE3FF"/>
<rect width="323" height="31" transform="translate(8 374.945)" fill="#211F10"/>
<path d="M20.9369 391.279H19.7147V390.056H20.9369V391.279ZM18.4925 393.723H17.2703V387.612H18.4925V393.723ZM23.3814 393.723H22.1592V387.612H23.3814V393.723ZM22.1592 387.612H18.4925V386.39H22.1592V387.612ZM22.1592 394.945H18.4925V393.723H22.1592V394.945ZM29.3751 394.945H25.7084V393.723H29.3751V394.945ZM25.7084 393.723H24.4862V391.279H25.7084V393.723ZM30.5973 393.723H29.3751V391.279H30.5973V393.723ZM29.3751 391.279H25.7084V390.056H29.3751V391.279ZM29.3751 387.612H25.7084V386.39H29.3751V387.612ZM25.7084 390.056H24.4862V387.612H25.7084V390.056ZM30.5973 390.056H29.3751V387.612H30.5973V390.056ZM35.3688 394.945H34.1465V393.723H35.3688V394.945ZM35.3688 390.056H34.1465V388.834H35.3688V390.056ZM40.1402 388.834H38.918V387.612H40.1402V388.834ZM43.8069 387.612H40.1402V386.39H43.8069V387.612ZM45.0291 390.056H43.8069V387.612H45.0291V390.056ZM43.8069 391.279H41.3624V390.056H43.8069V391.279ZM45.0291 393.723H43.8069V391.279H45.0291V393.723ZM43.8069 394.945H40.1402V393.723H43.8069V394.945ZM40.1402 393.723H38.918V392.501H40.1402V393.723ZM49.8006 391.279H48.5784V390.056H49.8006V391.279ZM47.3561 393.723H46.1339V387.612H47.3561V393.723ZM52.245 393.723H51.0228V387.612H52.245V393.723ZM51.0228 387.612H47.3561V386.39H51.0228V387.612ZM51.0228 394.945H47.3561V393.723H51.0228V394.945ZM61.788 391.279V394.945H60.5657V387.612H61.788V390.056H65.4546V387.612H66.6769V394.945H65.4546V391.279H61.788ZM65.4546 387.612H61.788V386.39H65.4546V387.612ZM69.0039 390.056V394.945H67.7817V386.39H69.0039V387.612H70.2261V390.056H69.0039ZM71.4483 392.501H70.2261V390.056H71.4483V392.501ZM72.6706 387.612V386.39H73.8928V394.945H72.6706V390.056H71.4483V387.612H72.6706Z" fill="#AEE3FF"/>
<path d="M129.222 393.723H128V392.501H129.222V393.723ZM132.889 394.945H129.222V393.723H132.889V394.945ZM134.111 393.723H132.889V391.279H134.111V393.723ZM132.889 387.612H129.222V386.39H132.889V387.612ZM134.111 388.834H132.889V387.612H134.111V388.834ZM129.222 390.056H128V387.612H129.222V390.056ZM132.889 391.279H129.222V390.056H132.889V391.279ZM136.438 393.723H135.216V386.39H136.438V393.723ZM140.105 394.945H136.438V393.723H140.105V394.945ZM141.327 393.723H140.105V386.39H141.327V393.723ZM143.654 393.723H147.321V394.945H142.432V386.39H147.321V387.612H143.654V390.056H147.321V391.279H143.654V393.723ZM148.543 393.723H147.321V391.279H148.543V393.723ZM148.543 390.056H147.321V387.612H148.543V390.056ZM150.87 390.056V394.945H149.648V386.39H150.87V387.612H152.092V390.056H150.87ZM153.314 392.501H152.092V390.056H153.314V392.501ZM154.537 387.612V386.39H155.759V394.945H154.537V390.056H153.314V387.612H154.537ZM160.53 393.723H162.975V394.945H156.864V393.723H159.308V387.612H156.864V386.39H162.975V387.612H160.53V393.723ZM165.302 393.723H164.08V392.501H165.302V393.723ZM168.968 394.945H165.302V393.723H168.968V394.945ZM170.191 393.723H168.968V391.279H170.191V393.723ZM168.968 387.612H165.302V386.39H168.968V387.612ZM170.191 388.834H168.968V387.612H170.191V388.834ZM165.302 390.056H164.08V387.612H165.302V390.056ZM168.968 391.279H165.302V390.056H168.968V391.279ZM172.518 393.723H171.295V392.501H172.518V393.723ZM176.184 394.945H172.518V393.723H176.184V394.945ZM177.407 393.723H176.184V391.279H177.407V393.723ZM176.184 387.612H172.518V386.39H176.184V387.612ZM177.407 388.834H176.184V387.612H177.407V388.834ZM172.518 390.056H171.295V387.612H172.518V390.056ZM176.184 391.279H172.518V390.056H176.184V391.279ZM182.178 393.723H184.623V394.945H178.511V393.723H180.956V387.612H178.511V386.39H184.623V387.612H182.178V393.723ZM186.95 393.723H185.727V387.612H186.95V393.723ZM191.838 393.723H190.616V387.612H191.838V393.723ZM190.616 387.612H186.95V386.39H190.616V387.612ZM190.616 394.945H186.95V393.723H190.616V394.945ZM194.165 388.834V394.945H192.943V386.39H195.388V388.834H194.165ZM196.61 392.501H195.388V388.834H196.61V392.501ZM197.832 392.501V386.39H199.054V394.945H196.61V392.501H197.832ZM211.042 386.39V387.612H208.597V393.723H211.042V394.945H207.375V386.39H211.042ZM213.486 392.501H212.264V388.834H213.486V392.501ZM212.264 388.834H211.042V387.612H212.264V388.834ZM212.264 393.723H211.042V392.501H212.264V393.723ZM215.813 393.723H220.702V394.945H214.591V386.39H220.702V387.612H215.813V390.056H219.48V391.279H215.813V393.723ZM223.029 391.279V394.945H221.807V387.612H223.029V390.056H226.696V387.612H227.918V394.945H226.696V391.279H223.029ZM226.696 387.612H223.029V386.39H226.696V387.612ZM232.689 386.39V387.612H230.245V393.723H232.689V394.945H229.023V386.39H232.689ZM235.134 392.501H233.912V388.834H235.134V392.501ZM233.912 388.834H232.689V387.612H233.912V388.834ZM233.912 393.723H232.689V392.501H233.912V393.723ZM236.239 394.945V386.39H237.461V393.723H242.35V394.945H236.239ZM247.121 393.723H249.566V394.945H243.455V393.723H245.899V387.612H243.455V386.39H249.566V387.612H247.121V393.723ZM251.893 388.834V394.945H250.671V386.39H253.115V388.834H251.893ZM254.337 392.501H253.115V388.834H254.337V392.501ZM255.559 392.501V386.39H256.782V394.945H254.337V392.501H255.559ZM259.109 393.723H263.998V394.945H257.886V386.39H263.998V387.612H259.109V390.056H262.775V391.279H259.109V393.723Z" fill="#AEE3FF"/>
<rect width="323" height="31" transform="translate(8 413.945)" fill="#211F10"/>
<path d="M20.9369 430.279H19.7147V429.056H20.9369V430.279ZM18.4925 432.723H17.2703V426.612H18.4925V432.723ZM23.3814 432.723H22.1592V426.612H23.3814V432.723ZM22.1592 426.612H18.4925V425.39H22.1592V426.612ZM22.1592 433.945H18.4925V432.723H22.1592V433.945ZM29.3751 433.945H25.7084V432.723H29.3751V433.945ZM29.3751 426.612H25.7084V425.39H29.3751V426.612ZM25.7084 429.056H24.4862V426.612H25.7084V429.056ZM25.7084 432.723H24.4862V431.501H25.7084V432.723ZM29.3751 430.279H25.7084V429.056H29.3751V426.612H30.5973V432.723H29.3751V430.279ZM35.3688 433.945H34.1465V432.723H35.3688V433.945ZM35.3688 429.056H34.1465V427.834H35.3688V429.056ZM42.5847 430.279H41.3624V429.056H42.5847V430.279ZM40.1402 432.723H38.918V426.612H40.1402V432.723ZM45.0291 432.723H43.8069V426.612H45.0291V432.723ZM43.8069 426.612H40.1402V425.39H43.8069V426.612ZM43.8069 433.945H40.1402V432.723H43.8069V433.945ZM49.8006 430.279H48.5784V429.056H49.8006V430.279ZM47.3561 432.723H46.1339V426.612H47.3561V432.723ZM52.245 432.723H51.0228V426.612H52.245V432.723ZM51.0228 426.612H47.3561V425.39H51.0228V426.612ZM51.0228 433.945H47.3561V432.723H51.0228V433.945ZM61.788 430.279V433.945H60.5657V426.612H61.788V429.056H65.4546V426.612H66.6769V433.945H65.4546V430.279H61.788ZM65.4546 426.612H61.788V425.39H65.4546V426.612ZM69.0039 429.056V433.945H67.7817V425.39H69.0039V426.612H70.2261V429.056H69.0039ZM71.4483 431.501H70.2261V429.056H71.4483V431.501ZM72.6706 426.612V425.39H73.8928V433.945H72.6706V429.056H71.4483V426.612H72.6706Z" fill="#AEE3FF"/>
<path d="M134.111 429.056H132.889V426.612H134.111V429.056ZM132.889 425.39V426.612H129.222V429.056H132.889V430.279H129.222V433.945H128V425.39H132.889ZM141.327 429.056H140.105V426.612H141.327V429.056ZM141.327 433.945H140.105V432.723H141.327V433.945ZM140.105 432.723H138.883V431.501H140.105V432.723ZM140.105 425.39V426.612H136.438V429.056H140.105V430.279H138.883V431.501H137.66V430.279H136.438V433.945H135.216V425.39H140.105ZM143.654 432.723H148.543V433.945H142.432V425.39H148.543V426.612H143.654V429.056H147.321V430.279H143.654V432.723ZM150.87 432.723H149.648V431.501H150.87V432.723ZM154.537 433.945H150.87V432.723H154.537V433.945ZM155.759 432.723H154.537V430.279H155.759V432.723ZM154.537 426.612H150.87V425.39H154.537V426.612ZM155.759 427.834H154.537V426.612H155.759V427.834ZM150.87 429.056H149.648V426.612H150.87V429.056ZM154.537 430.279H150.87V429.056H154.537V430.279ZM158.086 432.723H162.975V433.945H156.864V425.39H162.975V426.612H158.086V429.056H161.753V430.279H158.086V432.723ZM165.302 427.834V433.945H164.08V425.39H166.524V427.834H165.302ZM167.746 431.501H166.524V427.834H167.746V431.501ZM168.968 431.501V425.39H170.191V433.945H167.746V431.501H168.968ZM173.74 426.612H171.295V425.39H177.407V426.612H174.962V433.945H173.74V426.612ZM179.734 430.279V433.945H178.511V426.612H179.734V429.056H183.4V426.612H184.623V433.945H183.4V430.279H179.734ZM183.4 426.612H179.734V425.39H183.4V426.612ZM188.172 426.612H185.727V425.39H191.838V426.612H189.394V433.945H188.172V426.612ZM196.61 432.723H199.054V433.945H192.943V432.723H195.388V426.612H192.943V425.39H199.054V426.612H196.61V432.723ZM201.381 432.723H200.159V426.612H201.381V432.723ZM206.27 432.723H205.048V426.612H206.27V432.723ZM205.048 426.612H201.381V425.39H205.048V426.612ZM205.048 433.945H201.381V432.723H205.048V433.945ZM208.597 427.834V433.945H207.375V425.39H209.819V427.834H208.597ZM211.042 431.501H209.819V427.834H211.042V431.501ZM212.264 431.501V425.39H213.486V433.945H211.042V431.501H212.264ZM227.918 429.056H226.696V426.612H227.918V429.056ZM227.918 433.945H226.696V432.723H227.918V433.945ZM226.696 432.723H225.474V431.501H226.696V432.723ZM226.696 425.39V426.612H223.029V429.056H226.696V430.279H225.474V431.501H224.251V430.279H223.029V433.945H221.807V425.39H226.696ZM230.245 432.723H229.023V426.612H230.245V432.723ZM235.134 432.723H233.912V426.612H235.134V432.723ZM233.912 426.612H230.245V425.39H233.912V426.612ZM233.912 433.945H230.245V432.723H233.912V433.945ZM237.461 432.723H236.239V425.39H237.461V432.723ZM241.128 433.945H237.461V432.723H241.128V433.945ZM242.35 432.723H241.128V425.39H242.35V432.723ZM244.677 427.834V433.945H243.455V425.39H245.899V427.834H244.677ZM247.121 431.501H245.899V427.834H247.121V431.501ZM248.344 431.501V425.39H249.566V433.945H247.121V431.501H248.344ZM254.337 425.39V426.612H251.893V432.723H254.337V433.945H250.671V425.39H254.337ZM256.782 431.501H255.559V427.834H256.782V431.501ZM255.559 427.834H254.337V426.612H255.559V427.834ZM255.559 432.723H254.337V431.501H255.559V432.723ZM259.109 432.723H257.886V431.501H259.109V432.723ZM262.775 433.945H259.109V432.723H262.775V433.945ZM263.998 432.723H262.775V430.279H263.998V432.723ZM262.775 426.612H259.109V425.39H262.775V426.612ZM263.998 427.834H262.775V426.612H263.998V427.834ZM259.109 429.056H257.886V426.612H259.109V429.056ZM262.775 430.279H259.109V429.056H262.775V430.279ZM273.541 432.723H277.207V433.945H272.318V425.39H277.207V426.612H273.541V429.056H277.207V430.279H273.541V432.723ZM278.429 432.723H277.207V430.279H278.429V432.723ZM278.429 429.056H277.207V426.612H278.429V429.056ZM280.756 432.723H285.645V433.945H279.534V425.39H285.645V426.612H280.756V429.056H284.423V430.279H280.756V432.723ZM287.972 432.723H286.75V426.612H287.972V432.723ZM291.639 430.279H289.195V429.056H292.861V432.723H291.639V430.279ZM291.639 426.612H287.972V425.39H291.639V426.612ZM291.639 433.945H287.972V432.723H291.639V433.945ZM297.633 432.723H300.077V433.945H293.966V432.723H296.41V426.612H293.966V425.39H300.077V426.612H297.633V432.723ZM302.404 427.834V433.945H301.182V425.39H303.626V427.834H302.404ZM304.849 431.501H303.626V427.834H304.849V431.501ZM306.071 431.501V425.39H307.293V433.945H304.849V431.501H306.071Z" fill="#AEE3FF"/>
<rect width="323" height="31" transform="translate(8 452.945)" fill="#211F10"/>
<path d="M20.9369 471.723H23.3814V472.945H17.2703V471.723H19.7147V465.612H17.2703V464.39H20.9369V471.723ZM28.1528 469.279H26.9306V468.056H28.1528V469.279ZM25.7084 471.723H24.4862V465.612H25.7084V471.723ZM30.5973 471.723H29.3751V465.612H30.5973V471.723ZM29.3751 465.612H25.7084V464.39H29.3751V465.612ZM29.3751 472.945H25.7084V471.723H29.3751V472.945ZM35.3688 472.945H34.1465V471.723H35.3688V472.945ZM35.3688 468.056H34.1465V466.834H35.3688V468.056ZM41.3624 468.056H40.1402V466.834H41.3624V468.056ZM43.8069 470.501V472.945H42.5847V470.501H38.918V468.056H40.1402V469.279H42.5847V466.834H41.3624V465.612H42.5847V464.39H43.8069V469.279H45.0291V470.501H43.8069ZM52.245 471.723H51.0228V469.279H52.245V471.723ZM51.0228 472.945H47.3561V471.723H51.0228V472.945ZM47.3561 471.723H46.1339V470.501H47.3561V471.723ZM47.3561 468.056H51.0228V469.279H46.1339V464.39H52.245V465.612H47.3561V468.056ZM61.788 469.279V472.945H60.5657V465.612H61.788V468.056H65.4546V465.612H66.6769V472.945H65.4546V469.279H61.788ZM65.4546 465.612H61.788V464.39H65.4546V465.612ZM69.0039 468.056V472.945H67.7817V464.39H69.0039V465.612H70.2261V468.056H69.0039ZM71.4483 470.501H70.2261V468.056H71.4483V470.501ZM72.6706 465.612V464.39H73.8928V472.945H72.6706V468.056H71.4483V465.612H72.6706Z" fill="#AEE3FF"/>
<path d="M134.111 468.056H132.889V465.612H134.111V468.056ZM132.889 464.39V465.612H129.222V468.056H132.889V469.279H129.222V472.945H128V464.39H132.889ZM141.327 468.056H140.105V465.612H141.327V468.056ZM141.327 472.945H140.105V471.723H141.327V472.945ZM140.105 471.723H138.883V470.501H140.105V471.723ZM140.105 464.39V465.612H136.438V468.056H140.105V469.279H138.883V470.501H137.66V469.279H136.438V472.945H135.216V464.39H140.105ZM143.654 471.723H148.543V472.945H142.432V464.39H148.543V465.612H143.654V468.056H147.321V469.279H143.654V471.723ZM150.87 471.723H149.648V470.501H150.87V471.723ZM154.537 472.945H150.87V471.723H154.537V472.945ZM155.759 471.723H154.537V469.279H155.759V471.723ZM154.537 465.612H150.87V464.39H154.537V465.612ZM155.759 466.834H154.537V465.612H155.759V466.834ZM150.87 468.056H149.648V465.612H150.87V468.056ZM154.537 469.279H150.87V468.056H154.537V469.279ZM158.086 471.723H162.975V472.945H156.864V464.39H162.975V465.612H158.086V468.056H161.753V469.279H158.086V471.723ZM165.302 466.834V472.945H164.08V464.39H166.524V466.834H165.302ZM167.746 470.501H166.524V466.834H167.746V470.501ZM168.968 470.501V464.39H170.191V472.945H167.746V470.501H168.968ZM173.74 465.612H171.295V464.39H177.407V465.612H174.962V472.945H173.74V465.612ZM179.734 469.279V472.945H178.511V465.612H179.734V468.056H183.4V465.612H184.623V472.945H183.4V469.279H179.734ZM183.4 465.612H179.734V464.39H183.4V465.612ZM188.172 465.612H185.727V464.39H191.838V465.612H189.394V472.945H188.172V465.612ZM196.61 471.723H199.054V472.945H192.943V471.723H195.388V465.612H192.943V464.39H199.054V465.612H196.61V471.723ZM201.381 471.723H200.159V465.612H201.381V471.723ZM206.27 471.723H205.048V465.612H206.27V471.723ZM205.048 465.612H201.381V464.39H205.048V465.612ZM205.048 472.945H201.381V471.723H205.048V472.945ZM208.597 466.834V472.945H207.375V464.39H209.819V466.834H208.597ZM211.042 470.501H209.819V466.834H211.042V470.501ZM212.264 470.501V464.39H213.486V472.945H211.042V470.501H212.264ZM227.918 468.056H226.696V465.612H227.918V468.056ZM227.918 472.945H226.696V471.723H227.918V472.945ZM226.696 471.723H225.474V470.501H226.696V471.723ZM226.696 464.39V465.612H223.029V468.056H226.696V469.279H225.474V470.501H224.251V469.279H223.029V472.945H221.807V464.39H226.696ZM230.245 471.723H229.023V465.612H230.245V471.723ZM235.134 471.723H233.912V465.612H235.134V471.723ZM233.912 465.612H230.245V464.39H233.912V465.612ZM233.912 472.945H230.245V471.723H233.912V472.945ZM237.461 471.723H236.239V464.39H237.461V471.723ZM241.128 472.945H237.461V471.723H241.128V472.945ZM242.35 471.723H241.128V464.39H242.35V471.723ZM244.677 466.834V472.945H243.455V464.39H245.899V466.834H244.677ZM247.121 470.501H245.899V466.834H247.121V470.501ZM248.344 470.501V464.39H249.566V472.945H247.121V470.501H248.344ZM254.337 464.39V465.612H251.893V471.723H254.337V472.945H250.671V464.39H254.337ZM256.782 470.501H255.559V466.834H256.782V470.501ZM255.559 466.834H254.337V465.612H255.559V466.834ZM255.559 471.723H254.337V470.501H255.559V471.723ZM259.109 471.723H257.886V470.501H259.109V471.723ZM262.775 472.945H259.109V471.723H262.775V472.945ZM263.998 471.723H262.775V469.279H263.998V471.723ZM262.775 465.612H259.109V464.39H262.775V465.612ZM263.998 466.834H262.775V465.612H263.998V466.834ZM259.109 468.056H257.886V465.612H259.109V468.056ZM262.775 469.279H259.109V468.056H262.775V469.279ZM273.541 471.723H278.429V472.945H272.318V464.39H278.429V465.612H273.541V468.056H277.207V469.279H273.541V471.723ZM280.756 466.834V472.945H279.534V464.39H281.979V466.834H280.756ZM283.201 470.501H281.979V466.834H283.201V470.501ZM284.423 470.501V464.39H285.645V472.945H283.201V470.501H284.423ZM290.417 464.39V465.612H287.972V471.723H290.417V472.945H286.75V464.39H290.417ZM292.861 470.501H291.639V466.834H292.861V470.501ZM291.639 466.834H290.417V465.612H291.639V466.834ZM291.639 471.723H290.417V470.501H291.639V471.723Z" fill="#AEE3FF"/>
<rect width="323" height="31" transform="translate(8 491.945)" fill="#211F10"/>
<path d="M20.9369 510.723H23.3814V511.945H17.2703V510.723H19.7147V504.612H17.2703V503.39H20.9369V510.723ZM28.1528 510.723H30.5973V511.945H24.4862V510.723H26.9306V504.612H24.4862V503.39H28.1528V510.723ZM35.3688 511.945H34.1465V510.723H35.3688V511.945ZM35.3688 507.056H34.1465V505.834H35.3688V507.056ZM42.5847 508.279H41.3624V507.056H42.5847V508.279ZM40.1402 510.723H38.918V504.612H40.1402V510.723ZM45.0291 510.723H43.8069V504.612H45.0291V510.723ZM43.8069 504.612H40.1402V503.39H43.8069V504.612ZM43.8069 511.945H40.1402V510.723H43.8069V511.945ZM49.8006 508.279H48.5784V507.056H49.8006V508.279ZM47.3561 510.723H46.1339V504.612H47.3561V510.723ZM52.245 510.723H51.0228V504.612H52.245V510.723ZM51.0228 504.612H47.3561V503.39H51.0228V504.612ZM51.0228 511.945H47.3561V510.723H51.0228V511.945ZM61.788 508.279V511.945H60.5657V504.612H61.788V507.056H65.4546V504.612H66.6769V511.945H65.4546V508.279H61.788ZM65.4546 504.612H61.788V503.39H65.4546V504.612ZM69.0039 507.056V511.945H67.7817V503.39H69.0039V504.612H70.2261V507.056H69.0039ZM71.4483 509.501H70.2261V507.056H71.4483V509.501ZM72.6706 504.612V503.39H73.8928V511.945H72.6706V507.056H71.4483V504.612H72.6706Z" fill="#AEE3FF"/>
<path d="M130.444 504.612H128V503.39H134.111V504.612H131.667V511.945H130.444V504.612ZM136.438 510.723H135.216V504.612H136.438V510.723ZM141.327 510.723H140.105V504.612H141.327V510.723ZM140.105 504.612H136.438V503.39H140.105V504.612ZM140.105 511.945H136.438V510.723H140.105V511.945ZM148.543 507.056H147.321V504.612H148.543V507.056ZM147.321 503.39V504.612H143.654V507.056H147.321V508.279H143.654V511.945H142.432V503.39H147.321ZM160.53 510.723H162.975V511.945H156.864V510.723H159.308V504.612H156.864V503.39H160.53V510.723ZM167.746 508.279H166.524V507.056H167.746V508.279ZM165.302 510.723H164.08V504.612H165.302V510.723ZM170.191 510.723H168.968V504.612H170.191V510.723ZM168.968 504.612H165.302V503.39H168.968V504.612ZM168.968 511.945H165.302V510.723H168.968V511.945ZM180.956 504.612H178.511V503.39H184.623V504.612H182.178V511.945H180.956V504.612ZM186.95 510.723H191.838V511.945H185.727V503.39H191.838V504.612H186.95V507.056H190.616V508.279H186.95V510.723ZM194.165 508.279V511.945H192.943V504.612H194.165V507.056H197.832V504.612H199.054V511.945H197.832V508.279H194.165ZM197.832 504.612H194.165V503.39H197.832V504.612ZM201.381 507.056V511.945H200.159V503.39H201.381V504.612H202.604V507.056H201.381ZM203.826 509.501H202.604V507.056H203.826V509.501ZM205.048 504.612V503.39H206.27V511.945H205.048V507.056H203.826V504.612H205.048ZM208.597 510.723H207.375V509.501H208.597V510.723ZM212.264 511.945H208.597V510.723H212.264V511.945ZM213.486 510.723H212.264V508.279H213.486V510.723ZM212.264 504.612H208.597V503.39H212.264V504.612ZM213.486 505.834H212.264V504.612H213.486V505.834ZM208.597 507.056H207.375V504.612H208.597V507.056ZM212.264 508.279H208.597V507.056H212.264V508.279ZM227.918 507.056H226.696V504.612H227.918V507.056ZM226.696 503.39V504.612H223.029V507.056H226.696V508.279H223.029V511.945H221.807V503.39H226.696ZM235.134 507.056H233.912V504.612H235.134V507.056ZM235.134 511.945H233.912V510.723H235.134V511.945ZM233.912 510.723H232.689V509.501H233.912V510.723ZM233.912 503.39V504.612H230.245V507.056H233.912V508.279H232.689V509.501H231.467V508.279H230.245V511.945H229.023V503.39H233.912ZM237.461 510.723H242.35V511.945H236.239V503.39H242.35V504.612H237.461V507.056H241.128V508.279H237.461V510.723ZM244.677 510.723H243.455V509.501H244.677V510.723ZM248.344 511.945H244.677V510.723H248.344V511.945ZM249.566 510.723H248.344V508.279H249.566V510.723ZM248.344 504.612H244.677V503.39H248.344V504.612ZM249.566 505.834H248.344V504.612H249.566V505.834ZM244.677 507.056H243.455V504.612H244.677V507.056ZM248.344 508.279H244.677V507.056H248.344V508.279ZM251.893 510.723H256.782V511.945H250.671V503.39H256.782V504.612H251.893V507.056H255.559V508.279H251.893V510.723ZM259.109 505.834V511.945H257.886V503.39H260.331V505.834H259.109ZM261.553 509.501H260.331V505.834H261.553V509.501ZM262.775 509.501V503.39H263.998V511.945H261.553V509.501H262.775ZM267.547 504.612H265.102V503.39H271.213V504.612H268.769V511.945H267.547V504.612Z" fill="#AEE3FF"/>
<rect width="323" height="31" transform="translate(8 530.945)" fill="#211F10"/>
<path d="M20.9369 549.723H23.3814V550.945H17.2703V549.723H19.7147V543.612H17.2703V542.39H20.9369V549.723ZM25.7084 544.834H24.4862V543.612H25.7084V544.834ZM29.3751 543.612H25.7084V542.39H29.3751V543.612ZM30.5973 546.056H29.3751V543.612H30.5973V546.056ZM29.3751 547.279H28.1528V546.056H29.3751V547.279ZM28.1528 548.501H26.9306V547.279H28.1528V548.501ZM26.9306 549.723H30.5973V550.945H24.4862V549.723H25.7084V548.501H26.9306V549.723ZM35.3688 550.945H34.1465V549.723H35.3688V550.945ZM35.3688 546.056H34.1465V544.834H35.3688V546.056ZM42.5847 547.279H41.3624V546.056H42.5847V547.279ZM40.1402 549.723H38.918V543.612H40.1402V549.723ZM45.0291 549.723H43.8069V543.612H45.0291V549.723ZM43.8069 543.612H40.1402V542.39H43.8069V543.612ZM43.8069 550.945H40.1402V549.723H43.8069V550.945ZM49.8006 547.279H48.5784V546.056H49.8006V547.279ZM47.3561 549.723H46.1339V543.612H47.3561V549.723ZM52.245 549.723H51.0228V543.612H52.245V549.723ZM51.0228 543.612H47.3561V542.39H51.0228V543.612ZM51.0228 550.945H47.3561V549.723H51.0228V550.945ZM66.6769 546.056H65.4546V543.612H66.6769V546.056ZM65.4546 542.39V543.612H61.788V546.056H65.4546V547.279H61.788V550.945H60.5657V542.39H65.4546ZM69.0039 546.056V550.945H67.7817V542.39H69.0039V543.612H70.2261V546.056H69.0039ZM71.4483 548.501H70.2261V546.056H71.4483V548.501ZM72.6706 543.612V542.39H73.8928V550.945H72.6706V546.056H71.4483V543.612H72.6706Z" fill="#AEE3FF"/>
<path d="M129.222 548.501H128V542.39H129.222V548.501ZM131.667 548.501H130.444V542.39H131.667V548.501ZM134.111 548.501H132.889V542.39H134.111V548.501ZM130.444 550.945H129.222V548.501H130.444V550.945ZM132.889 550.945H131.667V548.501H132.889V550.945ZM138.883 549.723H141.327V550.945H135.216V549.723H137.66V543.612H135.216V542.39H141.327V543.612H138.883V549.723ZM143.654 544.834V550.945H142.432V542.39H144.876V544.834H143.654ZM146.098 548.501H144.876V544.834H146.098V548.501ZM147.321 548.501V542.39H148.543V550.945H146.098V548.501H147.321ZM150.87 544.834V550.945H149.648V542.39H152.092V544.834H150.87ZM153.314 548.501H152.092V544.834H153.314V548.501ZM154.537 548.501V542.39H155.759V550.945H153.314V548.501H154.537ZM158.086 549.723H162.975V550.945H156.864V542.39H162.975V543.612H158.086V546.056H161.753V547.279H158.086V549.723ZM170.191 546.056H168.968V543.612H170.191V546.056ZM170.191 550.945H168.968V549.723H170.191V550.945ZM168.968 549.723H167.746V548.501H168.968V549.723ZM168.968 542.39V543.612H165.302V546.056H168.968V547.279H167.746V548.501H166.524V547.279H165.302V550.945H164.08V542.39H168.968ZM172.518 549.723H171.295V548.501H172.518V549.723ZM176.184 550.945H172.518V549.723H176.184V550.945ZM177.407 549.723H176.184V547.279H177.407V549.723ZM176.184 543.612H172.518V542.39H176.184V543.612ZM177.407 544.834H176.184V543.612H177.407V544.834ZM172.518 546.056H171.295V543.612H172.518V546.056ZM176.184 547.279H172.518V546.056H176.184V547.279ZM186.95 547.279V550.945H185.727V543.612H186.95V546.056H190.616V543.612H191.838V550.945H190.616V547.279H186.95ZM190.616 543.612H186.95V542.39H190.616V543.612ZM194.165 544.834V550.945H192.943V542.39H195.388V544.834H194.165ZM196.61 548.501H195.388V544.834H196.61V548.501ZM197.832 548.501V542.39H199.054V550.945H196.61V548.501H197.832ZM201.381 544.834V550.945H200.159V542.39H202.604V544.834H201.381ZM203.826 548.501H202.604V544.834H203.826V548.501ZM205.048 548.501V542.39H206.27V550.945H203.826V548.501H205.048ZM208.597 549.723H207.375V543.612H208.597V549.723ZM213.486 549.723H212.264V543.612H213.486V549.723ZM212.264 543.612H208.597V542.39H212.264V543.612ZM212.264 550.945H208.597V549.723H212.264V550.945ZM215.813 549.723H214.591V542.39H215.813V549.723ZM219.48 550.945H215.813V549.723H219.48V550.945ZM220.702 549.723H219.48V542.39H220.702V549.723ZM223.029 544.834V550.945H221.807V542.39H224.251V544.834H223.029ZM225.474 548.501H224.251V544.834H225.474V548.501ZM226.696 548.501V542.39H227.918V550.945H225.474V548.501H226.696ZM230.245 549.723H229.023V543.612H230.245V549.723ZM235.134 549.723H233.912V548.501H235.134V549.723ZM235.134 544.834H233.912V543.612H235.134V544.834ZM233.912 550.945H230.245V549.723H233.912V550.945ZM233.912 543.612H230.245V542.39H233.912V543.612ZM237.461 549.723H242.35V550.945H236.239V542.39H242.35V543.612H237.461V546.056H241.128V547.279H237.461V549.723ZM247.121 542.39V543.612H244.677V549.723H247.121V550.945H243.455V542.39H247.121ZM249.566 548.501H248.344V544.834H249.566V548.501ZM248.344 544.834H247.121V543.612H248.344V544.834ZM248.344 549.723H247.121V548.501H248.344V549.723Z" fill="#AEE3FF"/>
<rect width="323" height="31" transform="translate(8 568.973)" fill="#211F10"/>
<path d="M20.9369 585.306H19.7147V584.084H20.9369V585.306ZM18.4925 587.75H17.2703V581.639H18.4925V587.75ZM23.3814 587.75H22.1592V581.639H23.3814V587.75ZM22.1592 581.639H18.4925V580.417H22.1592V581.639ZM22.1592 588.973H18.4925V587.75H22.1592V588.973ZM28.1528 587.75H30.5973V588.973H24.4862V587.75H26.9306V581.639H24.4862V580.417H28.1528V587.75ZM35.3688 588.973H34.1465V587.75H35.3688V588.973ZM35.3688 584.084H34.1465V582.862H35.3688V584.084ZM42.5847 585.306H41.3624V584.084H42.5847V585.306ZM40.1402 587.75H38.918V581.639H40.1402V587.75ZM45.0291 587.75H43.8069V581.639H45.0291V587.75ZM43.8069 581.639H40.1402V580.417H43.8069V581.639ZM43.8069 588.973H40.1402V587.75H43.8069V588.973ZM49.8006 585.306H48.5784V584.084H49.8006V585.306ZM47.3561 587.75H46.1339V581.639H47.3561V587.75ZM52.245 587.75H51.0228V581.639H52.245V587.75ZM51.0228 581.639H47.3561V580.417H51.0228V581.639ZM51.0228 588.973H47.3561V587.75H51.0228V588.973ZM66.6769 584.084H65.4546V581.639H66.6769V584.084ZM65.4546 580.417V581.639H61.788V584.084H65.4546V585.306H61.788V588.973H60.5657V580.417H65.4546ZM69.0039 584.084V588.973H67.7817V580.417H69.0039V581.639H70.2261V584.084H69.0039ZM71.4483 586.528H70.2261V584.084H71.4483V586.528ZM72.6706 581.639V580.417H73.8928V588.973H72.6706V584.084H71.4483V581.639H72.6706Z" fill="#AEE3FF"/>
<path d="M129.222 585.306V588.973H128V581.639H129.222V584.084H132.889V581.639H134.111V588.973H132.889V585.306H129.222ZM132.889 581.639H129.222V580.417H132.889V581.639ZM141.327 580.417V581.639H136.438V584.084H140.105V585.306H136.438V588.973H135.216V580.417H141.327ZM144.876 581.639H142.432V580.417H148.543V581.639H146.098V588.973H144.876V581.639ZM150.87 587.75H155.759V588.973H149.648V580.417H155.759V581.639H150.87V584.084H154.537V585.306H150.87V587.75ZM162.975 584.084H161.753V581.639H162.975V584.084ZM162.975 588.973H161.753V587.75H162.975V588.973ZM161.753 587.75H160.53V586.528H161.753V587.75ZM161.753 580.417V581.639H158.086V584.084H161.753V585.306H160.53V586.528H159.308V585.306H158.086V588.973H156.864V580.417H161.753ZM172.518 587.75H177.407V588.973H171.295V580.417H177.407V581.639H172.518V584.084H176.184V585.306H172.518V587.75ZM182.178 588.973H180.956V586.528H182.178V588.973ZM180.956 586.528H179.734V584.084H180.956V586.528ZM183.4 586.528H182.178V584.084H183.4V586.528ZM179.734 584.084H178.511V580.417H179.734V584.084ZM184.623 584.084H183.4V580.417H184.623V584.084ZM186.95 587.75H191.838V588.973H185.727V580.417H191.838V581.639H186.95V584.084H190.616V585.306H186.95V587.75ZM194.165 582.862V588.973H192.943V580.417H195.388V582.862H194.165ZM196.61 586.528H195.388V582.862H196.61V586.528ZM197.832 586.528V580.417H199.054V588.973H196.61V586.528H197.832ZM202.604 581.639H200.159V580.417H206.27V581.639H203.826V588.973H202.604V581.639ZM215.813 584.084V588.973H214.591V580.417H215.813V581.639H217.035V584.084H215.813ZM218.258 586.528H217.035V584.084H218.258V586.528ZM219.48 581.639V580.417H220.702V588.973H219.48V584.084H218.258V581.639H219.48ZM223.029 587.75H227.918V588.973H221.807V580.417H227.918V581.639H223.029V584.084H226.696V585.306H223.029V587.75ZM230.245 587.75H235.134V588.973H229.023V580.417H235.134V581.639H230.245V584.084H233.912V585.306H230.245V587.75ZM238.683 581.639H236.239V580.417H242.35V581.639H239.905V588.973H238.683V581.639ZM251.893 587.75H250.671V582.862H251.893V587.75ZM256.782 590.195H253.115V588.973H256.782V590.195ZM256.782 581.639H253.115V580.417H256.782V581.639ZM253.115 588.973H251.893V587.75H253.115V588.973ZM253.115 582.862H251.893V581.639H253.115V582.862ZM259.109 586.528H257.886V580.417H259.109V586.528ZM261.553 586.528H260.331V580.417H261.553V586.528ZM263.998 586.528H262.775V580.417H263.998V586.528ZM260.331 588.973H259.109V586.528H260.331V588.973ZM262.775 588.973H261.553V586.528H262.775V588.973ZM268.769 587.75H271.213V588.973H265.102V587.75H267.547V581.639H265.102V580.417H271.213V581.639H268.769V587.75ZM273.541 582.862V588.973H272.318V580.417H274.763V582.862H273.541ZM275.985 586.528H274.763V582.862H275.985V586.528ZM277.207 586.528V580.417H278.429V588.973H275.985V586.528H277.207ZM280.756 582.862V588.973H279.534V580.417H281.979V582.862H280.756ZM283.201 586.528H281.979V582.862H283.201V586.528ZM284.423 586.528V580.417H285.645V588.973H283.201V586.528H284.423ZM287.972 587.75H292.861V588.973H286.75V580.417H292.861V581.639H287.972V584.084H291.639V585.306H287.972V587.75ZM300.077 584.084H298.855V581.639H300.077V584.084ZM300.077 588.973H298.855V587.75H300.077V588.973ZM298.855 587.75H297.633V586.528H298.855V587.75ZM298.855 580.417V581.639H295.188V584.084H298.855V585.306H297.633V586.528H296.41V585.306H295.188V588.973H293.966V580.417H298.855ZM302.404 587.75H301.182V586.528H302.404V587.75ZM306.071 588.973H302.404V587.75H306.071V588.973ZM307.293 587.75H306.071V585.306H307.293V587.75ZM306.071 581.639H302.404V580.417H306.071V581.639ZM307.293 582.862H306.071V581.639H307.293V582.862ZM302.404 584.084H301.182V581.639H302.404V584.084ZM306.071 585.306H302.404V584.084H306.071V585.306ZM313.287 587.75V582.862H314.509V587.75H313.287ZM308.398 590.195V588.973H312.065V590.195H308.398ZM308.398 581.639V580.417H312.065V581.639H308.398ZM312.065 588.973V587.75H313.287V588.973H312.065ZM312.065 582.862V581.639H313.287V582.862H312.065Z" fill="#AEE3FF"/>
<rect width="323" height="31" transform="translate(8 608.973)" fill="#211F10"/>
<path d="M20.9369 625.306H19.7147V624.084H20.9369V625.306ZM18.4925 627.75H17.2703V621.639H18.4925V627.75ZM23.3814 627.75H22.1592V621.639H23.3814V627.75ZM22.1592 621.639H18.4925V620.417H22.1592V621.639ZM22.1592 628.973H18.4925V627.75H22.1592V628.973ZM25.7084 622.862H24.4862V621.639H25.7084V622.862ZM29.3751 621.639H25.7084V620.417H29.3751V621.639ZM30.5973 624.084H29.3751V621.639H30.5973V624.084ZM29.3751 625.306H28.1528V624.084H29.3751V625.306ZM28.1528 626.528H26.9306V625.306H28.1528V626.528ZM26.9306 627.75H30.5973V628.973H24.4862V627.75H25.7084V626.528H26.9306V627.75ZM35.3688 628.973H34.1465V627.75H35.3688V628.973ZM35.3688 624.084H34.1465V622.862H35.3688V624.084ZM42.5847 625.306H41.3624V624.084H42.5847V625.306ZM40.1402 627.75H38.918V621.639H40.1402V627.75ZM45.0291 627.75H43.8069V621.639H45.0291V627.75ZM43.8069 621.639H40.1402V620.417H43.8069V621.639ZM43.8069 628.973H40.1402V627.75H43.8069V628.973ZM49.8006 625.306H48.5784V624.084H49.8006V625.306ZM47.3561 627.75H46.1339V621.639H47.3561V627.75ZM52.245 627.75H51.0228V621.639H52.245V627.75ZM51.0228 621.639H47.3561V620.417H51.0228V621.639ZM51.0228 628.973H47.3561V627.75H51.0228V628.973ZM66.6769 624.084H65.4546V621.639H66.6769V624.084ZM65.4546 620.417V621.639H61.788V624.084H65.4546V625.306H61.788V628.973H60.5657V620.417H65.4546ZM69.0039 624.084V628.973H67.7817V620.417H69.0039V621.639H70.2261V624.084H69.0039ZM71.4483 626.528H70.2261V624.084H71.4483V626.528ZM72.6706 621.639V620.417H73.8928V628.973H72.6706V624.084H71.4483V621.639H72.6706Z" fill="#AEE3FF"/>
<path d="M129.222 627.75H134.111V628.973H128V620.417H134.111V621.639H129.222V624.084H132.889V625.306H129.222V627.75ZM138.883 628.973H137.66V626.528H138.883V628.973ZM137.66 626.528H136.438V624.084H137.66V626.528ZM140.105 626.528H138.883V624.084H140.105V626.528ZM136.438 624.084H135.216V620.417H136.438V624.084ZM141.327 624.084H140.105V620.417H141.327V624.084ZM143.654 627.75H148.543V628.973H142.432V620.417H148.543V621.639H143.654V624.084H147.321V625.306H143.654V627.75ZM150.87 622.862V628.973H149.648V620.417H152.092V622.862H150.87ZM153.314 626.528H152.092V622.862H153.314V626.528ZM154.537 626.528V620.417H155.759V628.973H153.314V626.528H154.537ZM159.308 621.639H156.864V620.417H162.975V621.639H160.53V628.973H159.308V621.639ZM172.518 627.75H177.407V628.973H171.295V620.417H177.407V621.639H172.518V624.084H176.184V625.306H172.518V627.75ZM179.734 622.862V628.973H178.511V620.417H180.956V622.862H179.734ZM182.178 626.528H180.956V622.862H182.178V626.528ZM183.4 626.528V620.417H184.623V628.973H182.178V626.528H183.4ZM189.394 620.417V621.639H186.95V627.75H189.394V628.973H185.727V620.417H189.394ZM191.838 626.528H190.616V622.862H191.838V626.528ZM190.616 622.862H189.394V621.639H190.616V622.862ZM190.616 627.75H189.394V626.528H190.616V627.75ZM194.165 627.75H192.943V626.528H194.165V627.75ZM197.832 628.973H194.165V627.75H197.832V628.973ZM199.054 627.75H197.832V625.306H199.054V627.75ZM197.832 621.639H194.165V620.417H197.832V621.639ZM199.054 622.862H197.832V621.639H199.054V622.862ZM194.165 624.084H192.943V621.639H194.165V624.084ZM197.832 625.306H194.165V624.084H197.832V625.306Z" fill="#AEE3FF"/>
<rect width="63" height="28" transform="translate(0.00561523)" fill="#211F10"/>
<path d="M11.514 15.306V18.9727H10.2918V11.6393H11.514V14.0838H15.1806V11.6393H16.4029V18.9727H15.1806V15.306H11.514ZM15.1806 11.6393H11.514V10.4171H15.1806V11.6393ZM18.7299 17.7504H17.5077V11.6393H18.7299V17.7504ZM22.3966 15.306H19.9521V14.0838H23.6188V17.7504H22.3966V15.306ZM22.3966 11.6393H18.7299V10.4171H22.3966V11.6393ZM22.3966 18.9727H18.7299V17.7504H22.3966V18.9727ZM25.9458 17.7504H30.8347V18.9727H24.7236V10.4171H30.8347V11.6393H25.9458V14.0838H29.6125V15.306H25.9458V17.7504ZM33.1617 12.8615V18.9727H31.9395V10.4171H34.3839V12.8615H33.1617ZM35.6062 16.5282H34.3839V12.8615H35.6062V16.5282ZM36.8284 16.5282V10.4171H38.0506V18.9727H35.6062V16.5282H36.8284ZM42.8221 10.4171V11.6393H40.3776V17.7504H42.8221V18.9727H39.1554V10.4171H42.8221ZM45.2665 16.5282H44.0443V12.8615H45.2665V16.5282ZM44.0443 12.8615H42.8221V11.6393H44.0443V12.8615ZM44.0443 17.7504H42.8221V16.5282H44.0443V17.7504ZM47.5936 15.306V18.9727H46.3713V11.6393H47.5936V14.0838H51.2602V11.6393H52.4824V18.9727H51.2602V15.306H47.5936ZM51.2602 11.6393H47.5936V10.4171H51.2602V11.6393Z" fill="#F3787F"/>
<rect width="63" height="28" transform="translate(0.00561523 293.973)" fill="#211F10"/>
<path d="M11.514 309.279V312.945H10.2918V305.612H11.514V308.056H15.1806V305.612H16.4029V312.945H15.1806V309.279H11.514ZM15.1806 305.612H11.514V304.39H15.1806V305.612ZM18.7299 311.723H17.5077V305.612H18.7299V311.723ZM22.3966 309.279H19.9521V308.056H23.6188V311.723H22.3966V309.279ZM22.3966 305.612H18.7299V304.39H22.3966V305.612ZM22.3966 312.945H18.7299V311.723H22.3966V312.945ZM25.9458 311.723H30.8347V312.945H24.7236V304.39H30.8347V305.612H25.9458V308.056H29.6125V309.279H25.9458V311.723ZM33.1617 306.834V312.945H31.9395V304.39H34.3839V306.834H33.1617ZM35.6062 310.501H34.3839V306.834H35.6062V310.501ZM36.8284 310.501V304.39H38.0506V312.945H35.6062V310.501H36.8284ZM42.8221 304.39V305.612H40.3776V311.723H42.8221V312.945H39.1554V304.39H42.8221ZM45.2665 310.501H44.0443V306.834H45.2665V310.501ZM44.0443 306.834H42.8221V305.612H44.0443V306.834ZM44.0443 311.723H42.8221V310.501H44.0443V311.723ZM47.5936 309.279V312.945H46.3713V305.612H47.5936V308.056H51.2602V305.612H52.4824V312.945H51.2602V309.279H47.5936ZM51.2602 305.612H47.5936V304.39H51.2602V305.612Z" fill="#F3787F"/>
<rect width="63" height="28" transform="translate(276.006)" fill="#211F10"/>
<path d="M293.066 10.4171V11.6393H290.622V17.7504H293.066V18.9727H289.4V10.4171H293.066ZM295.511 16.5282H294.289V12.8615H295.511V16.5282ZM294.289 12.8615H293.066V11.6393H294.289V12.8615ZM294.289 17.7504H293.066V16.5282H294.289V17.7504ZM297.838 15.306V18.9727H296.616V11.6393H297.838V14.0838H301.505V11.6393H302.727V18.9727H301.505V15.306H297.838ZM301.505 11.6393H297.838V10.4171H301.505V11.6393ZM305.054 14.0838H303.832V10.4171H305.054V14.0838ZM307.498 15.306V18.9727H306.276V15.306H305.054V14.0838H308.72V15.306H307.498ZM309.943 14.0838H308.72V10.4171H309.943V14.0838ZM321.93 17.7504H324.374V18.9727H318.263V17.7504H320.708V11.6393H318.263V10.4171H321.93V17.7504Z" fill="#F9BD0D"/>
<rect width="63" height="28" transform="translate(276.006 293.973)" fill="#211F10"/>
<path d="M293.066 304.39V305.612H290.622V311.723H293.066V312.945H289.4V304.39H293.066ZM295.511 310.501H294.289V306.834H295.511V310.501ZM294.289 306.834H293.066V305.612H294.289V306.834ZM294.289 311.723H293.066V310.501H294.289V311.723ZM297.838 309.279V312.945H296.616V305.612H297.838V308.056H301.505V305.612H302.727V312.945H301.505V309.279H297.838ZM301.505 305.612H297.838V304.39H301.505V305.612ZM305.054 308.056H303.832V304.39H305.054V308.056ZM307.498 309.279V312.945H306.276V309.279H305.054V308.056H308.72V309.279H307.498ZM309.943 308.056H308.72V304.39H309.943V308.056ZM319.486 306.834H318.263V305.612H319.486V306.834ZM323.152 305.612H319.486V304.39H323.152V305.612ZM324.374 308.056H323.152V305.612H324.374V308.056ZM323.152 309.279H321.93V308.056H323.152V309.279ZM321.93 310.501H320.708V309.279H321.93V310.501ZM320.708 311.723H324.374V312.945H318.263V311.723H319.486V310.501H320.708V311.723Z" fill="#F9BD0D"/>
<rect x="61" y="11.9727" width="217" height="4" fill="#211F10"/>
<rect x="61" y="305.945" width="217" height="4" fill="#211F10"/>
</svg>
