<svg width="500" height="500" viewBox="0 0 500 500" fill="none" xmlns="http://www.w3.org/2000/svg">
<rect width="500" height="500" fill="white"/>
<rect y="305" width="50" height="195" fill="#0F0763"/>
<rect x="50" y="305" width="50" height="195" fill="#140A8B"/>
<rect x="100" y="305" width="50" height="195" fill="#1A0CB3"/>
<rect x="150" y="305" width="50" height="195" fill="#200FDB"/>
<rect x="200" y="305" width="50" height="195" fill="#3524F0"/>
<rect x="250" y="305" width="50" height="195" fill="#5A4CF3"/>
<rect x="300" y="305" width="50" height="195" fill="#7F74F5"/>
<rect x="350" y="305" width="50" height="195" fill="#A39CF8"/>
<rect x="400" y="305" width="50" height="195" fill="#C8C3FB"/>
<rect x="450" y="305" width="50" height="195" fill="#EDEBFE"/>
<path d="M115.89 166.9C120.803 166.9 124.947 167.633 128.32 169.1C131.767 170.493 134.517 172.437 136.57 174.93C138.697 177.35 140.2 180.063 141.08 183.07L127 188.13C126.267 184.83 125.02 182.337 123.26 180.65C121.5 178.963 119.117 178.12 116.11 178.12C113.323 178.12 110.94 178.78 108.96 180.1C106.98 181.347 105.477 183.29 104.45 185.93C103.423 188.497 102.91 191.723 102.91 195.61C102.91 199.497 103.423 202.723 104.45 205.29C105.55 207.857 107.09 209.763 109.07 211.01C111.123 212.257 113.507 212.88 116.22 212.88C118.42 212.88 120.29 212.513 121.83 211.78C123.37 210.973 124.617 209.837 125.57 208.37C126.597 206.903 127.293 205.143 127.66 203.09L141.3 207.49C140.493 210.79 138.99 213.687 136.79 216.18C134.59 218.673 131.767 220.617 128.32 222.01C124.873 223.403 120.877 224.1 116.33 224.1C110.683 224.1 105.697 222.963 101.37 220.69C97.0433 218.417 93.7067 215.153 91.36 210.9C89.0133 206.647 87.84 201.513 87.84 195.5C87.84 189.487 89.0133 184.353 91.36 180.1C93.7067 175.847 97.0067 172.583 101.26 170.31C105.513 168.037 110.39 166.9 115.89 166.9ZM178.09 166.9C183.663 166.9 188.54 168.037 192.72 170.31C196.973 172.583 200.273 175.847 202.62 180.1C205.04 184.353 206.25 189.487 206.25 195.5C206.25 201.44 205.04 206.573 202.62 210.9C200.273 215.153 196.973 218.417 192.72 220.69C188.54 222.963 183.663 224.1 178.09 224.1C172.59 224.1 167.713 222.963 163.46 220.69C159.207 218.417 155.87 215.153 153.45 210.9C151.103 206.573 149.93 201.44 149.93 195.5C149.93 189.487 151.103 184.353 153.45 180.1C155.87 175.847 159.207 172.583 163.46 170.31C167.713 168.037 172.59 166.9 178.09 166.9ZM178.09 178.12C175.303 178.12 172.92 178.78 170.94 180.1C169.033 181.347 167.567 183.253 166.54 185.82C165.513 188.387 165 191.613 165 195.5C165 199.387 165.513 202.613 166.54 205.18C167.567 207.747 169.033 209.69 170.94 211.01C172.92 212.257 175.303 212.88 178.09 212.88C180.803 212.88 183.113 212.257 185.02 211.01C187 209.69 188.503 207.747 189.53 205.18C190.557 202.613 191.07 199.387 191.07 195.5C191.07 191.613 190.557 188.387 189.53 185.82C188.503 183.253 187 181.347 185.02 180.1C183.113 178.78 180.803 178.12 178.09 178.12ZM233.709 143.91V206.06C233.709 208.627 234.149 210.423 235.029 211.45C235.909 212.477 237.376 212.99 239.429 212.99C240.676 212.99 241.703 212.917 242.509 212.77C243.316 212.55 244.343 212.257 245.589 211.89L244.269 221.79C243.023 222.523 241.446 223.073 239.539 223.44C237.706 223.88 235.873 224.1 234.039 224.1C228.686 224.1 224.763 222.817 222.269 220.25C219.849 217.61 218.639 213.43 218.639 207.71V143.91H233.709ZM279.066 166.9C284.64 166.9 289.516 168.037 293.696 170.31C297.95 172.583 301.25 175.847 303.596 180.1C306.016 184.353 307.226 189.487 307.226 195.5C307.226 201.44 306.016 206.573 303.596 210.9C301.25 215.153 297.95 218.417 293.696 220.69C289.516 222.963 284.64 224.1 279.066 224.1C273.566 224.1 268.69 222.963 264.436 220.69C260.183 218.417 256.846 215.153 254.426 210.9C252.08 206.573 250.906 201.44 250.906 195.5C250.906 189.487 252.08 184.353 254.426 180.1C256.846 175.847 260.183 172.583 264.436 170.31C268.69 168.037 273.566 166.9 279.066 166.9ZM279.066 178.12C276.28 178.12 273.896 178.78 271.916 180.1C270.01 181.347 268.543 183.253 267.516 185.82C266.49 188.387 265.976 191.613 265.976 195.5C265.976 199.387 266.49 202.613 267.516 205.18C268.543 207.747 270.01 209.69 271.916 211.01C273.896 212.257 276.28 212.88 279.066 212.88C281.78 212.88 284.09 212.257 285.996 211.01C287.976 209.69 289.48 207.747 290.506 205.18C291.533 202.613 292.046 199.387 292.046 195.5C292.046 191.613 291.533 188.387 290.506 185.82C289.48 183.253 287.976 181.347 285.996 180.1C284.09 178.78 281.78 178.12 279.066 178.12ZM319.836 223V168H332.926L333.916 178.78C335.383 174.967 337.509 172.033 340.296 169.98C343.156 167.927 346.713 166.9 350.966 166.9C352.213 166.9 353.349 167.01 354.376 167.23C355.403 167.45 356.246 167.743 356.906 168.11L355.146 180.76C354.413 180.467 353.496 180.247 352.396 180.1C351.369 179.953 350.013 179.88 348.326 179.88C346.126 179.88 343.999 180.43 341.946 181.53C339.893 182.557 338.206 184.17 336.886 186.37C335.566 188.497 334.906 191.21 334.906 194.51V223H319.836ZM386.738 224.1C381.165 224.1 376.068 223.11 371.448 221.13C366.902 219.15 363.198 216.363 360.338 212.77L369.028 203.97C370.788 206.61 373.135 208.773 376.068 210.46C379.002 212.147 382.485 212.99 386.518 212.99C389.378 212.99 391.652 212.587 393.338 211.78C395.098 210.9 395.978 209.543 395.978 207.71C395.978 206.537 395.575 205.547 394.768 204.74C393.962 203.86 392.348 203.163 389.928 202.65L380.248 200.67C373.868 199.35 369.322 197.37 366.608 194.73C363.968 192.017 362.648 188.533 362.648 184.28C362.648 181.273 363.528 178.45 365.288 175.81C367.122 173.17 369.835 171.043 373.428 169.43C377.022 167.743 381.495 166.9 386.848 166.9C392.348 166.9 397.115 167.78 401.148 169.54C405.255 171.227 408.482 173.757 410.828 177.13L401.808 185.93C400.195 183.363 398.068 181.42 395.428 180.1C392.862 178.707 390.148 178.01 387.288 178.01C385.235 178.01 383.475 178.23 382.008 178.67C380.542 179.11 379.442 179.733 378.708 180.54C377.975 181.273 377.608 182.227 377.608 183.4C377.608 184.573 378.122 185.6 379.148 186.48C380.175 187.287 382.045 187.983 384.758 188.57L395.978 190.88C401.405 191.98 405.292 193.85 407.638 196.49C409.985 199.057 411.158 202.173 411.158 205.84C411.158 209.36 410.205 212.513 408.298 215.3C406.465 218.013 403.715 220.177 400.048 221.79C396.455 223.33 392.018 224.1 386.738 224.1Z" fill="url(#paint0_linear_227_168)"/>
<defs>
<linearGradient id="paint0_linear_227_168" x1="416" y1="186.051" x2="53.8762" y2="186.051" gradientUnits="userSpaceOnUse">
<stop stop-color="#5A4CF3"/>
<stop offset="1" stop-color="#EDEBFE"/>
</linearGradient>
</defs>
</svg>
