<svg width="67" height="15" viewBox="0 0 67 15" fill="none" xmlns="http://www.w3.org/2000/svg">
<rect width="67" height="15" rx="7.5" fill="#CEF1FF"/>
<path d="M19.0597 6.5H18.267C18.2202 6.27202 18.1381 6.07173 18.021 5.89915C17.9059 5.72656 17.7653 5.58168 17.5991 5.46449C17.435 5.34517 17.2528 5.25568 17.0526 5.19602C16.8523 5.13636 16.6435 5.10653 16.4261 5.10653C16.0298 5.10653 15.6708 5.20668 15.3491 5.40696C15.0295 5.60724 14.7749 5.90234 14.5852 6.29226C14.3977 6.68217 14.304 7.16051 14.304 7.72727C14.304 8.29403 14.3977 8.77237 14.5852 9.16229C14.7749 9.5522 15.0295 9.8473 15.3491 10.0476C15.6708 10.2479 16.0298 10.348 16.4261 10.348C16.6435 10.348 16.8523 10.3182 17.0526 10.2585C17.2528 10.1989 17.435 10.1104 17.5991 9.99325C17.7653 9.87393 17.9059 9.72798 18.021 9.5554C18.1381 9.38068 18.2202 9.1804 18.267 8.95455H19.0597C19 9.28906 18.8913 9.58842 18.7337 9.85263C18.576 10.1168 18.38 10.3416 18.1456 10.527C17.9112 10.7102 17.6481 10.8498 17.3562 10.9457C17.0664 11.0415 16.7564 11.0895 16.4261 11.0895C15.8679 11.0895 15.3714 10.9531 14.9368 10.6804C14.5021 10.4077 14.1602 10.0199 13.9109 9.51705C13.6616 9.0142 13.5369 8.41761 13.5369 7.72727C13.5369 7.03693 13.6616 6.44034 13.9109 5.9375C14.1602 5.43466 14.5021 5.04688 14.9368 4.77415C15.3714 4.50142 15.8679 4.36506 16.4261 4.36506C16.7564 4.36506 17.0664 4.413 17.3562 4.50888C17.6481 4.60476 17.9112 4.74538 18.1456 4.93075C18.38 5.11399 18.576 5.33771 18.7337 5.60192C18.8913 5.86399 19 6.16335 19.0597 6.5ZM22.2325 11.1023C21.7893 11.1023 21.4005 10.9968 21.066 10.7859C20.7336 10.5749 20.4736 10.2798 20.2861 9.90057C20.1008 9.52131 20.0081 9.07812 20.0081 8.57102C20.0081 8.05966 20.1008 7.61328 20.2861 7.23189C20.4736 6.8505 20.7336 6.55433 21.066 6.34339C21.4005 6.13246 21.7893 6.02699 22.2325 6.02699C22.6757 6.02699 23.0635 6.13246 23.3959 6.34339C23.7304 6.55433 23.9903 6.8505 24.1757 7.23189C24.3632 7.61328 24.4569 8.05966 24.4569 8.57102C24.4569 9.07812 24.3632 9.52131 24.1757 9.90057C23.9903 10.2798 23.7304 10.5749 23.3959 10.7859C23.0635 10.9968 22.6757 11.1023 22.2325 11.1023ZM22.2325 10.4247C22.5692 10.4247 22.8461 10.3384 23.0635 10.1658C23.2808 9.99325 23.4417 9.76634 23.5461 9.48509C23.6505 9.20384 23.7027 8.89915 23.7027 8.57102C23.7027 8.2429 23.6505 7.93714 23.5461 7.65376C23.4417 7.37038 23.2808 7.14134 23.0635 6.96662C22.8461 6.7919 22.5692 6.70455 22.2325 6.70455C21.8959 6.70455 21.6189 6.7919 21.4015 6.96662C21.1842 7.14134 21.0233 7.37038 20.9189 7.65376C20.8145 7.93714 20.7623 8.2429 20.7623 8.57102C20.7623 8.89915 20.8145 9.20384 20.9189 9.48509C21.0233 9.76634 21.1842 9.99325 21.4015 10.1658C21.6189 10.3384 21.8959 10.4247 22.2325 10.4247ZM25.6083 11V6.09091H26.337V6.83239H26.3881C26.4776 6.58949 26.6396 6.3924 26.8739 6.24112C27.1083 6.08984 27.3725 6.0142 27.6665 6.0142C27.7219 6.0142 27.7912 6.01527 27.8743 6.0174C27.9574 6.01953 28.0202 6.02273 28.0629 6.02699V6.79403C28.0373 6.78764 27.9787 6.77805 27.8871 6.76527C27.7976 6.75035 27.7028 6.7429 27.6026 6.7429C27.364 6.7429 27.1509 6.79297 26.9634 6.89311C26.7781 6.99112 26.631 7.12749 26.5224 7.3022C26.4158 7.47479 26.3626 7.67187 26.3626 7.89347V11H25.6083ZM30.8658 11.1023C30.3928 11.1023 29.9847 10.9979 29.6417 10.7891C29.3008 10.5781 29.0376 10.2841 28.8523 9.90696C28.669 9.5277 28.5774 9.08665 28.5774 8.58381C28.5774 8.08097 28.669 7.63778 28.8523 7.25426C29.0376 6.86861 29.2955 6.56818 29.6257 6.35298C29.9581 6.13565 30.3459 6.02699 30.7891 6.02699C31.0447 6.02699 31.2972 6.0696 31.5465 6.15483C31.7958 6.24006 32.0227 6.37855 32.2273 6.57031C32.4318 6.75994 32.5948 7.01136 32.7163 7.32457C32.8377 7.63778 32.8984 8.02344 32.8984 8.48153V8.80114H29.1143V8.14915H32.1314C32.1314 7.87216 32.076 7.625 31.9652 7.40767C31.8565 7.19034 31.701 7.01882 31.4986 6.89311C31.2983 6.7674 31.0618 6.70455 30.7891 6.70455C30.4886 6.70455 30.2287 6.77912 30.0092 6.92827C29.7919 7.07528 29.6246 7.26705 29.5075 7.50355C29.3903 7.74006 29.3317 7.99361 29.3317 8.2642V8.69886C29.3317 9.0696 29.3956 9.38388 29.5234 9.64169C29.6534 9.89737 29.8335 10.0923 30.0636 10.2266C30.2937 10.3587 30.5611 10.4247 30.8658 10.4247C31.0639 10.4247 31.2429 10.397 31.4027 10.3416C31.5646 10.2841 31.7042 10.1989 31.8214 10.0859C31.9386 9.97088 32.0291 9.82812 32.093 9.65767L32.8217 9.86222C32.745 10.1094 32.6161 10.3267 32.435 10.5142C32.2539 10.6996 32.0302 10.8445 31.7638 10.9489C31.4975 11.0511 31.1982 11.1023 30.8658 11.1023ZM36.6793 11V4.45455H40.6296V5.15767H37.4719V7.36932H40.4251V8.07244H37.4719V10.2969H40.6808V11H36.6793ZM45.9702 6.09091L44.1548 11H43.3878L41.5724 6.09091H42.3906L43.7457 10.0028H43.7969L45.152 6.09091H45.9702ZM48.8482 11.1023C48.3752 11.1023 47.9672 10.9979 47.6241 10.7891C47.2832 10.5781 47.0201 10.2841 46.8347 9.90696C46.6515 9.5277 46.5598 9.08665 46.5598 8.58381C46.5598 8.08097 46.6515 7.63778 46.8347 7.25426C47.0201 6.86861 47.2779 6.56818 47.6081 6.35298C47.9405 6.13565 48.3283 6.02699 48.7715 6.02699C49.0272 6.02699 49.2797 6.0696 49.5289 6.15483C49.7782 6.24006 50.0051 6.37855 50.2097 6.57031C50.4142 6.75994 50.5772 7.01136 50.6987 7.32457C50.8201 7.63778 50.8809 8.02344 50.8809 8.48153V8.80114H47.0968V8.14915H50.1138C50.1138 7.87216 50.0584 7.625 49.9476 7.40767C49.839 7.19034 49.6834 7.01882 49.481 6.89311C49.2807 6.7674 49.0442 6.70455 48.7715 6.70455C48.4711 6.70455 48.2111 6.77912 47.9917 6.92827C47.7743 7.07528 47.6071 7.26705 47.4899 7.50355C47.3727 7.74006 47.3141 7.99361 47.3141 8.2642V8.69886C47.3141 9.0696 47.378 9.38388 47.5059 9.64169C47.6358 9.89737 47.8159 10.0923 48.046 10.2266C48.2761 10.3587 48.5435 10.4247 48.8482 10.4247C49.0463 10.4247 49.2253 10.397 49.3851 10.3416C49.5471 10.2841 49.6866 10.1989 49.8038 10.0859C49.921 9.97088 50.0115 9.82812 50.0755 9.65767L50.8042 9.86222C50.7275 10.1094 50.5985 10.3267 50.4174 10.5142C50.2363 10.6996 50.0126 10.8445 49.7463 10.9489C49.4799 11.0511 49.1806 11.1023 48.8482 11.1023ZM52.7825 8.04688V11H52.0282V6.09091H52.7569V6.85795H52.8208C52.9359 6.60866 53.1106 6.40838 53.345 6.2571C53.5794 6.10369 53.8819 6.02699 54.2527 6.02699C54.585 6.02699 54.8759 6.09517 55.1252 6.23153C55.3745 6.36577 55.5684 6.57031 55.7069 6.84517C55.8453 7.1179 55.9146 7.46307 55.9146 7.88068V11H55.1603V7.93182C55.1603 7.54616 55.0602 7.24574 54.8599 7.03054C54.6596 6.81321 54.3848 6.70455 54.0353 6.70455C53.7946 6.70455 53.5794 6.75675 53.3897 6.86115C53.2022 6.96555 53.0542 7.1179 52.9455 7.31818C52.8368 7.51847 52.7825 7.76136 52.7825 8.04688ZM59.4278 6.09091V6.73011H56.8838V6.09091H59.4278ZM57.6253 4.91477H58.3795V9.59375C58.3795 9.80682 58.4104 9.96662 58.4722 10.0732C58.5361 10.1776 58.6171 10.2479 58.7151 10.2841C58.8153 10.3182 58.9207 10.3352 59.0315 10.3352C59.1146 10.3352 59.1828 10.331 59.2361 10.3224C59.2893 10.3118 59.3319 10.3033 59.3639 10.2969L59.5173 10.9744C59.4662 10.9936 59.3948 11.0128 59.3032 11.032C59.2116 11.0533 59.0954 11.0639 58.9548 11.0639C58.7417 11.0639 58.5329 11.0181 58.3284 10.9265C58.126 10.8349 57.9577 10.6953 57.8234 10.5078C57.6913 10.3203 57.6253 10.0838 57.6253 9.7983V4.91477Z" fill="black"/>
<rect x="3" y="4" width="7" height="7" rx="3.5" fill="#1ABCFE"/>
</svg>
