<svg width="250" height="250" viewBox="0 0 250 250" fill="none" xmlns="http://www.w3.org/2000/svg">
<g clip-path="url(#clip0_253_3848)">
<rect width="250" height="250" fill="white"/>
<path fill-rule="evenodd" clip-rule="evenodd" d="M184.401 102.138C184.401 108.586 179.155 113.814 172.684 113.814H160.754V90.4609H172.684C179.155 90.4609 184.401 95.6886 184.401 102.138ZM172.684 109.993C177.037 109.993 180.566 106.476 180.566 102.138C180.566 97.7991 177.037 94.2823 172.684 94.2823H164.589V109.993H172.684Z" fill="black"/>
<path fill-rule="evenodd" clip-rule="evenodd" d="M140.943 102.138C140.943 108.586 146.189 113.814 152.66 113.814H164.59V90.4609H152.66C146.189 90.4609 140.943 95.6886 140.943 102.138ZM152.66 109.993C148.307 109.993 144.778 106.476 144.778 102.138C144.778 97.7991 148.307 94.2823 152.66 94.2823H160.755V109.993H152.66Z" fill="black"/>
<path fill-rule="evenodd" clip-rule="evenodd" d="M140.943 121.669C140.943 128.118 146.189 133.345 152.66 133.345H164.59V109.992L152.66 109.992C146.189 109.992 140.943 115.22 140.943 121.669ZM152.66 129.524C148.307 129.524 144.778 126.007 144.778 121.669C144.778 117.331 148.307 113.814 152.66 113.814L160.755 113.814V129.524H152.66Z" fill="black"/>
<path fill-rule="evenodd" clip-rule="evenodd" d="M140.943 141.201C140.943 147.663 146.256 152.877 152.713 152.877C159.229 152.877 164.59 147.615 164.59 141.095V129.524L152.66 129.524C146.189 129.524 140.943 134.752 140.943 141.201ZM152.713 149.056C148.346 149.056 144.778 145.525 144.778 141.201C144.778 136.862 148.307 133.346 152.66 133.346L160.755 133.345V141.095C160.755 145.478 157.139 149.056 152.713 149.056Z" fill="black"/>
<path fill-rule="evenodd" clip-rule="evenodd" d="M160.752 121.669C160.752 128.118 165.998 133.345 172.469 133.345H172.682C179.153 133.345 184.399 128.118 184.399 121.669C184.399 115.22 179.153 109.992 172.682 109.992H172.469C165.998 109.992 160.752 115.22 160.752 121.669ZM172.469 129.524C168.116 129.524 164.586 126.007 164.586 121.669C164.586 117.331 168.116 113.814 172.469 113.814H172.682C177.035 113.814 180.564 117.331 180.564 121.669C180.564 126.007 177.035 129.524 172.682 129.524H172.469Z" fill="black"/>
<path fill-rule="evenodd" clip-rule="evenodd" d="M94.9037 147.379L97.0392 149.291C96.8535 149.82 96.7527 150.389 96.7527 150.982C96.7527 153.801 99.0396 156.087 101.861 156.087C104.682 156.087 106.969 153.801 106.969 150.982C106.969 150.437 106.883 149.913 106.726 149.421L109.011 147.374L109.119 147.277C117.007 140.239 123.863 134.122 128.709 128.288C132.164 124.128 134.803 119.876 136.064 115.267C138.297 114.722 139.955 112.708 139.955 110.307C139.955 108.085 138.534 106.194 136.55 105.493C134.8 95.7298 126.3 88.5874 115.955 88.5874C112.28 88.5874 108.917 89.9894 106.149 91.7496C105.382 92.2374 104.643 92.7639 103.936 93.3151C103.302 93.033 102.6 92.8761 101.861 92.8761C101.168 92.8761 100.508 93.0138 99.9063 93.2631C99.2194 92.7306 98.503 92.2221 97.7603 91.7496C94.9928 89.9894 91.6295 88.5874 87.9543 88.5874C77.6331 88.5874 69.1475 95.6976 67.3713 105.426C65.2838 106.068 63.7666 108.011 63.7666 110.307C63.7666 112.779 65.5241 114.841 67.858 115.312C69.1232 119.904 71.7564 124.142 75.2004 128.288C80.0469 134.122 86.9025 140.239 94.7901 147.277L94.9037 147.379ZM71.6241 114.611C74.3434 123.908 83.9678 132.511 97.4435 144.535L99.5538 146.425C100.247 146.074 101.031 145.876 101.861 145.876C102.739 145.876 103.565 146.097 104.286 146.487L106.466 144.535C119.894 132.553 129.499 123.969 132.257 114.709C130.75 113.821 129.739 112.182 129.739 110.307C129.739 108.254 130.951 106.484 132.699 105.674C131.08 97.9879 124.295 92.3994 115.955 92.3994C112.633 92.3994 109.392 93.9665 106.601 96.0759C106.838 96.6649 106.969 97.308 106.969 97.9818C106.969 100.802 104.682 103.087 101.861 103.087C99.0396 103.087 96.7527 100.802 96.7527 97.9818C96.7527 97.2668 96.8997 96.5862 97.1652 95.9683C94.4064 93.9134 91.22 92.3994 87.9543 92.3994C79.5843 92.3994 72.781 98.0284 71.1934 105.757C72.849 106.601 73.9825 108.322 73.9825 110.307C73.9825 112.115 73.0425 113.704 71.6241 114.611ZM67.0347 108.742C67.4778 108.222 68.1377 107.893 68.8746 107.893C69.6884 107.893 70.4079 108.294 70.8458 108.911C71.1259 109.305 71.2906 109.787 71.2906 110.307C71.2906 111.641 70.209 112.722 68.8746 112.722C67.5403 112.722 66.4585 111.641 66.4585 110.307C66.4585 109.71 66.6754 109.164 67.0347 108.742ZM104.277 150.982C104.277 150.89 104.272 150.799 104.262 150.71C104.218 150.326 104.085 149.969 103.884 149.661C103.47 149.029 102.767 148.602 101.962 148.569L101.946 148.568C101.918 148.567 101.889 148.567 101.861 148.567C100.526 148.567 99.4446 149.648 99.4446 150.982C99.4446 151.092 99.4521 151.2 99.4662 151.306C99.4748 151.37 99.486 151.433 99.4993 151.495C99.7349 152.582 100.703 153.397 101.861 153.397C103.195 153.397 104.277 152.315 104.277 150.982ZM134.847 112.722C134.148 112.722 133.518 112.425 133.076 111.951C133.013 111.883 132.954 111.811 132.899 111.737C132.605 111.336 132.431 110.842 132.431 110.307C132.431 109.682 132.668 109.113 133.058 108.684C133.5 108.198 134.138 107.893 134.847 107.893C135.593 107.893 136.26 108.231 136.703 108.762C136.767 108.838 136.825 108.918 136.879 109.001C137.122 109.378 137.263 109.826 137.263 110.307C137.263 111.641 136.181 112.722 134.847 112.722ZM101.861 95.5669C102.695 95.5669 103.43 95.9892 103.864 96.6316C104.078 96.9486 104.219 97.3194 104.263 97.7193C104.272 97.8054 104.277 97.893 104.277 97.9818C104.277 99.3154 103.195 100.397 101.861 100.397C100.526 100.397 99.4446 99.3154 99.4446 97.9818C99.4446 97.9434 99.4455 97.9053 99.4473 97.8673C99.5072 96.5868 100.565 95.5669 101.861 95.5669Z" fill="black"/>
<mask id="mask0_253_3848" style="mask-type:alpha" maskUnits="userSpaceOnUse" x="71" y="92" width="62" height="55">
<path d="M99.5557 146.425L97.4454 144.535C83.9699 132.511 74.3453 123.908 71.626 114.611C73.0444 113.704 73.9846 112.115 73.9846 110.307C73.9846 108.322 72.8509 106.601 71.1953 105.757C72.7829 98.0282 79.5862 92.3994 87.9562 92.3994C91.2219 92.3994 94.4083 93.9134 97.1671 95.9684C96.9016 96.5862 96.7546 97.2668 96.7546 97.9817C96.7546 100.802 99.0415 103.087 101.863 103.087C104.684 103.087 106.971 100.802 106.971 97.9817C106.971 97.308 106.84 96.6647 106.603 96.0759C109.394 93.9665 112.635 92.3994 115.957 92.3994C124.297 92.3994 131.082 97.988 132.701 105.674C130.953 106.484 129.741 108.254 129.741 110.307C129.741 112.182 130.752 113.821 132.259 114.709C129.5 123.968 119.896 132.553 106.468 144.535L104.288 146.487C103.567 146.097 102.741 145.876 101.863 145.876C101.033 145.876 100.249 146.074 99.5557 146.425Z" fill="#236DF6"/>
</mask>
<g mask="url(#mask0_253_3848)">
<path d="M135.532 91.0522H68.3271V151.756H135.532V91.0522Z" fill="#80C9F0"/>
<path d="M142.225 91.9292H56.3467V156.088H142.225V91.9292Z" fill="white"/>
<mask id="mask1_253_3848" style="mask-type:luminance" maskUnits="userSpaceOnUse" x="68" y="76" width="87" height="87">
<path d="M154.992 76.2563H68.001V162.918H154.992V76.2563Z" fill="white"/>
</mask>
<g mask="url(#mask1_253_3848)">
<path d="M68.1191 162.91H154.764V76.2646H68.1191V162.91Z" fill="#8296FF"/>
<path d="M126.404 137.026C127.317 136.909 128.323 136.765 129.373 136.602V134.585H118.533C115.427 134.887 113.237 135.077 113.226 135.435C113.206 136.081 120.307 136.504 120.27 136.969C120.208 137.742 100.536 137.365 100.368 138.659C100.303 139.161 103.222 139.532 103.146 140.067C102.995 141.12 91.4692 141.04 88.3916 141.649V142.393C89.3431 142.679 90.8572 142.955 90.8214 143.295C90.7935 143.563 89.8262 143.627 88.3916 143.682V144.918H90.5433C91.1085 143.986 105.86 144.246 106.031 143.054C106.107 142.52 103.188 142.149 103.253 141.647C103.421 140.352 123.093 140.729 123.155 139.956C123.192 139.491 116.091 139.068 116.111 138.423C116.127 137.893 120.927 137.73 126.404 137.026Z" fill="#5E77FF"/>
<path d="M99.4812 143.463C99.4812 143.463 100.899 143.521 99.9139 143.669C98.9284 143.818 97.3424 143.957 97.3424 143.957C97.3424 143.957 99.4522 144.35 98.7434 144.461C98.0347 144.573 94.9817 144.417 94.9817 144.417C94.9817 144.417 95.9492 144.678 95.6416 144.738C95.3338 144.799 93.8135 144.656 93.8135 144.656C93.8135 144.656 96.1431 144.791 94.6633 144.297C94.6633 144.297 98.4923 144.533 97.9456 144.243C97.3984 143.952 96.6413 143.808 96.6413 143.808C96.6413 143.808 101.299 143.625 99.4812 143.463Z" fill="#8296FF"/>
<path d="M125.035 133.526C126.728 133.406 128.595 133.258 130.543 133.092V131.023H110.429C104.667 131.333 100.602 131.528 100.582 131.895C100.545 132.557 113.721 132.991 113.652 133.468C113.538 134.26 77.0362 133.873 76.7237 135.201C76.6022 135.716 82.0204 136.096 81.8782 136.645C81.5976 137.724 60.2115 137.642 54.501 138.267V139.03C56.2663 139.324 59.0758 139.606 59.0096 139.955C58.9574 140.23 57.1626 140.295 54.501 140.352V141.619H58.4933C59.542 140.663 86.9137 140.93 87.231 139.708C87.3732 139.16 81.9554 138.78 82.0767 138.265C82.3892 136.937 118.891 137.324 119.005 136.531C119.075 136.054 105.898 135.621 105.935 134.958C105.965 134.415 114.872 134.249 125.035 133.526Z" fill="#5E77FF"/>
<path d="M154.676 79.4497H68.0508V117.7H154.676V79.4497Z" fill="#BEC9FF"/>
<path d="M68.0244 87.5254H141.941C138.765 92.1559 131.19 96.7693 122.015 99.6702C113.359 102.408 107.3 101.205 114.332 97.404C112.147 98.3609 103.453 102.921 101.023 103.689C91.2642 106.775 74.4997 107.725 68.0244 106.255V87.5254Z" fill="#99A9FF"/>
<path d="M152.726 87.5252C137.69 98.3924 123.756 104.817 108.702 108.696C104.497 109.78 100.247 110.799 95.8847 111.022C94.3367 111.101 90.6091 111.448 89.8279 109.494C89.2364 108.014 91.557 106.666 95.427 104.083C95.1636 104.508 95.0988 104.914 95.265 105.33C96.046 107.284 99.7736 106.937 101.322 106.858C105.684 106.635 109.933 105.616 114.139 104.532C129.008 100.7 139.362 95.3297 150.469 87.5054L152.726 87.5252Z" fill="#99A9FF"/>
<path d="M103.312 116.45C101.039 113.701 100.183 116.706 100.183 116.706C98.9945 112.714 93.3893 115.087 93.3893 115.087C89.837 110.037 82.4798 113.559 82.4798 113.559C83.1449 110.265 79.2607 110.756 79.2607 110.756C78.8678 107.286 74.4675 108.599 74.4675 108.599C72.4205 104.423 70.049 103.131 68.1191 102.926V118.166H109.535C107.39 114.935 103.312 116.45 103.312 116.45Z" fill="#FFFCFA"/>
<path d="M119.497 116.972C121.771 115.06 122.627 117.151 122.627 117.151C123.815 114.373 129.42 116.024 129.42 116.024C132.973 112.511 140.33 114.961 140.33 114.961C139.665 112.67 143.549 113.011 143.549 113.011C143.942 110.597 148.342 111.511 148.342 111.511C150.389 108.606 152.761 107.707 154.69 107.564V118.166H113.274C115.42 115.918 119.497 116.972 119.497 116.972Z" fill="#FFFCFA"/>
<path d="M86.5621 100.679H77.6143C77.6143 100.679 77.8825 99.4849 78.4663 99.6269C79.0502 99.7689 79.3029 100.321 79.95 100.147C80.5969 99.9739 80.8178 98.8221 81.6226 99.2323C82.4275 99.6427 82.2538 100.452 83.2008 100.189C84.1476 99.9266 84.6525 99.6584 85.5993 100.053C86.5463 100.447 86.5621 100.679 86.5621 100.679Z" fill="#FFFCFA"/>
<path d="M131.405 100.614H122.457C122.457 100.614 122.725 99.419 123.309 99.561C123.893 99.703 124.146 100.255 124.793 100.081C125.44 99.9079 125.661 98.7562 126.465 99.1663C127.27 99.5767 127.097 100.386 128.044 100.123C128.99 99.8607 129.495 99.5925 130.442 99.9871C131.389 100.382 131.405 100.614 131.405 100.614Z" fill="#FFFCFA"/>
<path d="M109.737 137.237C109.737 137.237 111.801 137.32 110.366 137.537C108.932 137.753 106.623 137.956 106.623 137.956C106.623 137.956 109.694 138.527 108.662 138.689C107.631 138.851 103.187 138.624 103.187 138.624C103.187 138.624 104.595 139.005 104.147 139.093C103.699 139.181 101.486 138.973 101.486 138.973C101.486 138.973 104.878 139.17 102.723 138.451C102.723 138.451 108.297 138.794 107.501 138.371C106.705 137.948 105.603 137.738 105.603 137.738C105.603 137.738 112.383 137.471 109.737 137.237Z" fill="#FFFCFA"/>
<path d="M93.2364 131.023C93.2364 131.023 91.1723 131.106 92.6069 131.323C94.0412 131.54 96.35 131.742 96.35 131.742C96.35 131.742 93.2787 132.313 94.3105 132.475C95.3424 132.638 99.7864 132.411 99.7864 132.411C99.7864 132.411 98.3779 132.791 98.8258 132.879C99.2738 132.967 101.487 132.759 101.487 132.759C101.487 132.759 98.0957 132.956 100.25 132.237C100.25 132.237 94.676 132.58 95.472 132.157C96.2683 131.735 97.3703 131.524 97.3703 131.524C97.3703 131.524 90.5902 131.258 93.2364 131.023Z" fill="#FFFCFA"/>
<path d="M115.698 123.197H114.773V120.418H131.171V123.548H116.166C116.166 123.354 115.957 123.197 115.698 123.197Z" fill="#5E77FF"/>
<path d="M110.131 123.197V119.619H93.4316V123.197H94.3566H109.206H110.131Z" fill="#001CB5"/>
<path d="M88.3779 118.488H72.7305V119.365H88.7253L88.3779 118.488Z" fill="#BEC9FF"/>
<path d="M87.9735 118.136H72.5547V118.487H88.3681C88.1501 118.487 87.9735 118.33 87.9735 118.136Z" fill="white"/>
<path d="M88.7899 119.527L88.726 119.365H71.8535L72.3928 120.418H88.7899V119.527Z" fill="#001CB5"/>
<path d="M87.8652 123.197H88.7897V120.418H72.3926V123.548H87.3976C87.3976 123.354 87.6064 123.197 87.8652 123.197Z" fill="#5E77FF"/>
<path d="M88.1495 123.899H87.8646C87.6059 123.899 87.3971 123.742 87.3971 123.548H72.071C71.8899 123.548 71.7432 123.691 71.7432 123.869C71.7432 124.047 71.8899 124.19 72.071 124.19H88.2204L88.1495 123.899Z" fill="#BEC9FF"/>
<path d="M88.2211 124.19H72.0654V124.464H88.2877L88.2211 124.19Z" fill="#0029FF"/>
<path d="M88.6697 126.588H88.507C88.507 126.279 88.4636 125.593 88.4399 125.244H70.6836C70.6836 125.244 70.6355 125.739 71.2115 125.883C71.2115 125.883 70.9716 126.43 71.5476 126.588C71.5476 126.588 71.4518 127.419 72.0757 127.419C72.6996 127.419 88.6697 127.419 88.6697 127.419V126.588Z" fill="#0029FF"/>
<path d="M114.895 126.589H115.057C115.057 126.28 115.1 125.594 115.124 125.244H132.88C132.88 125.244 132.929 125.74 132.353 125.884C132.353 125.884 132.593 126.43 132.016 126.589C132.016 126.589 132.112 127.42 131.488 127.42C130.865 127.42 114.895 127.42 114.895 127.42V126.589Z" fill="#0029FF"/>
<path d="M92.9368 111.18V107.499H89.2832V111.18H92.9368Z" fill="#5E77FF"/>
<path d="M110.626 111.18V107.499H114.279V111.18H110.626Z" fill="#5E77FF"/>
<path d="M88.3774 117.802H88.9762V117.25H72.3262V118.15H87.9652C87.9652 117.958 88.1497 117.802 88.3774 117.802Z" fill="#0029FF"/>
<path d="M115.241 117.802H114.626V117.25H131.726V118.15H115.664C115.664 117.958 115.475 117.802 115.241 117.802Z" fill="#0029FF"/>
<path d="M87.3423 143.541V143.132H87.6074V142.723H87.8043L88.1305 141.352L87.9368 141.332V140.924H88.2V140.515H88.4048V140.106H88.6692V127.419H72.0752V143.949H87.0015V143.541H87.3423Z" fill="#0029FF"/>
<path d="M116.221 143.541V143.132H115.956V142.723H115.759L115.433 141.352L115.626 141.332V140.924H115.363V140.515H115.159V140.106H114.895V127.419H131.488V143.949H116.562V143.541H116.221Z" fill="#0029FF"/>
<path d="M88.6114 125.244H70.6827L70.0586 124.464H88.6114V125.244Z" fill="#2245FF"/>
<path d="M73.1212 127.42H72.5547V125.244H73.1212V127.42Z" fill="#3D5CFF"/>
<path d="M74.7072 127.42H74.1406V125.244H74.7072V127.42Z" fill="#3D5CFF"/>
<path d="M76.2941 127.419H75.7275V125.244H76.2941V127.419Z" fill="#3D5CFF"/>
<path d="M77.8788 127.42H77.3125V125.244H77.8788V127.42Z" fill="#3D5CFF"/>
<path d="M79.4667 127.419H78.9004V125.244H79.4667V127.419Z" fill="#3D5CFF"/>
<path d="M81.0517 127.42H80.4854V125.244H81.0517V127.42Z" fill="#3D5CFF"/>
<path d="M82.6388 127.42H82.0723V125.244H82.6388V127.42Z" fill="#3D5CFF"/>
<path d="M84.2248 127.42H83.6582V125.244H84.2248V127.42Z" fill="#3D5CFF"/>
<path d="M85.8105 127.42H85.2441V125.244H85.8105V127.42Z" fill="#3D5CFF"/>
<path d="M87.3978 127.42H86.8311V125.244H87.3978V127.42Z" fill="#3D5CFF"/>
<path d="M87.3614 128.084H77.5615V127.419H87.3614V128.084Z" fill="#3D5CFF"/>
<path d="M87.0783 128.085H77.8447V128.596H87.0783V128.085Z" fill="#001CB5"/>
<path d="M86.7114 128.595H78.2109V143.949H86.7114V128.595Z" fill="#5E77FF"/>
<path d="M85.3505 143.95H79.5723V135.314H85.3505V143.95Z" fill="#F4B33E"/>
<path d="M82.4621 129.74C82.4394 129.738 78.9004 129.972 78.9004 134.655H86.0241C86.0241 129.972 82.4851 129.738 82.4621 129.74Z" fill="#001CB5"/>
<path d="M82.4621 129.74C82.4394 129.738 78.9004 129.972 78.9004 134.655H86.0241C86.0241 129.972 82.4851 129.738 82.4621 129.74Z" stroke="#8296FF" stroke-width="0.117011" stroke-miterlimit="10" stroke-linecap="round" stroke-linejoin="round"/>
<path d="M84.6387 130.764V134.656" stroke="#8296FF" stroke-width="0.117011" stroke-miterlimit="10" stroke-linecap="round" stroke-linejoin="round"/>
<path d="M83.7256 130.121V134.656" stroke="#8296FF" stroke-width="0.117011" stroke-miterlimit="10" stroke-linecap="round" stroke-linejoin="round"/>
<path d="M82.8115 129.795V134.656" stroke="#8296FF" stroke-width="0.117011" stroke-miterlimit="10" stroke-linecap="round" stroke-linejoin="round"/>
<path d="M81.8994 129.848V134.655" stroke="#8296FF" stroke-width="0.117011" stroke-miterlimit="10" stroke-linecap="round" stroke-linejoin="round"/>
<path d="M80.9863 130.236V134.656" stroke="#8296FF" stroke-width="0.117011" stroke-miterlimit="10" stroke-linecap="round" stroke-linejoin="round"/>
<path d="M80.0723 130.983V134.656" stroke="#8296FF" stroke-width="0.117011" stroke-miterlimit="10" stroke-linecap="round" stroke-linejoin="round"/>
<path d="M85.9598 133.62H78.9639" stroke="#8296FF" stroke-width="0.117011" stroke-miterlimit="10" stroke-linecap="round" stroke-linejoin="round"/>
<path d="M85.7716 132.707H79.1494" stroke="#8296FF" stroke-width="0.117011" stroke-miterlimit="10" stroke-linecap="round" stroke-linejoin="round"/>
<path d="M85.4109 131.793H79.5137" stroke="#8296FF" stroke-width="0.117011" stroke-miterlimit="10" stroke-linecap="round" stroke-linejoin="round"/>
<path d="M84.7559 130.88H80.168" stroke="#8296FF" stroke-width="0.117011" stroke-miterlimit="10" stroke-linecap="round" stroke-linejoin="round"/>
<path d="M84.6765 143.949H80.2451V136.222H84.6765V143.949Z" fill="#8296FF"/>
<path d="M84.4014 143.95V140.929C84.4014 140.701 84.216 140.515 83.9876 140.515C83.9161 140.515 83.8495 140.535 83.791 140.567V139.003C83.791 138.214 83.1517 137.574 82.3633 137.574C81.5745 137.574 80.9353 138.214 80.9353 139.003V140.515C80.7067 140.515 80.5215 140.701 80.5215 140.929V143.95H84.4014Z" fill="#001CB5"/>
<path d="M82.1986 140.515V139.003C82.1986 138.441 82.5233 137.957 82.9947 137.724C82.8043 137.629 82.5904 137.574 82.3633 137.574C81.5745 137.574 80.9353 138.214 80.9353 139.003V140.515C80.7067 140.515 80.5215 140.701 80.5215 140.929V143.95H81.7849V140.929C81.7849 140.701 81.97 140.515 82.1986 140.515Z" fill="#94421C"/>
<path d="M87.0781 122.809H77.8799V120.995H87.0781V122.809Z" fill="white"/>
<path d="M93.816 140.515H88.4043V140.106H93.816V140.515Z" fill="#2245FF"/>
<path d="M94.0219 140.924H88.2012V140.515H94.0219V140.924Z" fill="#001CB5"/>
<path d="M93.5478 125.03L93.7969 123.899H93.4556L93.2376 125.03H92.9883L93.1804 123.899H92.8384L92.678 125.03H92.4287L92.5637 123.899H91.8653L91.7953 125.03H91.5456L91.5903 123.899H91.2486L91.2357 125.03H90.986L90.9734 123.899H90.6321L90.6764 125.03H90.4266L90.3569 123.899H89.6583L89.793 125.03H89.544L89.3838 123.899H89.0415L89.2337 125.03H88.9844L88.7666 123.899H88.425L88.6746 125.03H88.4248C88.4248 125.03 88.5067 126.165 88.5067 126.589H93.7152C93.7152 126.023 93.7494 125.479 93.7902 125.03H93.5478Z" fill="#2245FF"/>
<path d="M93.3809 107.056C93.3809 107.301 93.1824 107.499 92.9374 107.499H89.2841C89.0393 107.499 88.8408 107.301 88.8408 107.056C88.8408 106.811 89.0393 106.612 89.2841 106.612H92.9374C93.1824 106.612 93.3809 106.811 93.3809 107.056Z" fill="#001CB5"/>
<path d="M91.1098 103.146C91.1098 103.146 89.2832 105.373 89.2832 106.316V106.612H92.9368V106.316C92.9368 105.373 91.1098 103.146 91.1098 103.146Z" fill="#3D5CFF"/>
<path d="M91.4994 109.865V108.247C91.4994 108.033 91.3255 107.859 91.1113 107.859C90.8971 107.859 90.7236 108.033 90.7236 108.247V109.865H91.4994Z" fill="white"/>
<path d="M90.1083 109.865V108.248C90.1083 108.033 89.998 107.859 89.8624 107.859C89.7265 107.859 89.6162 108.033 89.6162 108.248V109.865H90.1083Z" fill="white"/>
<path d="M92.6054 109.865V108.247C92.6054 108.033 92.4951 107.859 92.3594 107.859C92.2235 107.859 92.1133 108.033 92.1133 108.247V109.865H92.6054Z" fill="white"/>
<path d="M93.279 117.786H88.9424V116.323H93.279V117.786Z" fill="#3D5CFF"/>
<path d="M94.2481 118.137C94.2481 118.331 94.0712 118.488 93.8532 118.488H88.3693C88.1512 118.488 87.9746 118.331 87.9746 118.137C87.9746 117.943 88.1512 117.786 88.3693 117.786H93.8532C94.0712 117.786 94.2481 117.943 94.2481 118.137Z" fill="#0029FF"/>
<path d="M94.8249 123.548C94.8249 123.742 94.6152 123.899 94.3574 123.899H87.865C87.6065 123.899 87.3975 123.742 87.3975 123.548C87.3975 123.354 87.6065 123.197 87.865 123.197H94.3574C94.6152 123.197 94.8249 123.354 94.8249 123.548Z" fill="#0029FF"/>
<path d="M89.1999 119.619H88.8255L88.3779 118.488H88.8255L89.1999 119.619Z" fill="white"/>
<path d="M90.0393 119.619H89.6649L89.3818 118.488H89.8294L90.0393 119.619Z" fill="white"/>
<path d="M90.8777 119.619H90.5036L90.3848 118.488H90.8321L90.8777 119.619Z" fill="white"/>
<path d="M91.7167 119.619H91.3428L91.3884 118.488H91.836L91.7167 119.619Z" fill="white"/>
<path d="M92.5566 119.619H92.1826L92.3928 118.488H92.8403L92.5566 119.619Z" fill="white"/>
<path d="M93.3945 119.619H93.0205L93.3945 118.488H93.8427L93.3945 119.619Z" fill="white"/>
<path d="M88.6739 125.03H88.4244L88.1494 123.899H88.4246L88.6739 125.03Z" fill="white"/>
<path d="M89.2339 125.03H88.9844L88.7666 123.899H89.0418L89.2339 125.03Z" fill="white"/>
<path d="M89.7933 125.03H89.5442L89.3838 123.899H89.6585L89.7933 125.03Z" fill="white"/>
<path d="M90.6759 125.03H90.4262L90.3564 123.899H90.6312L90.6759 125.03Z" fill="white"/>
<path d="M91.235 125.03H90.9853L90.9727 123.899H91.2478L91.235 125.03Z" fill="white"/>
<path d="M91.7947 125.03H91.5449L91.5897 123.899H91.8646L91.7947 125.03Z" fill="white"/>
<path d="M92.678 125.03H92.4287L92.5637 123.899H92.8384L92.678 125.03Z" fill="white"/>
<path d="M93.2378 125.03H92.9883L93.1804 123.899H93.4556L93.2378 125.03Z" fill="white"/>
<path d="M93.7972 125.03H93.5479L93.7972 123.899H94.0719L93.7972 125.03Z" fill="white"/>
<path d="M93.3958 119.619H93.0218L93.3958 118.488H92.8405L92.557 119.619H92.183L92.393 118.488H91.837L91.7177 119.619H91.344L91.3895 118.488H90.8333L90.8789 119.619H90.5048L90.386 118.488H89.83L90.0399 119.619H89.6657L89.3825 118.488H88.8265L89.2011 119.619H88.8265L88.79 119.526V123.197H93.4327V119.526L93.3958 119.619Z" fill="#2245FF"/>
<path d="M93.279 111.412C93.279 111.54 93.1751 111.644 93.0466 111.644H89.1748C89.0466 111.644 88.9424 111.54 88.9424 111.412C88.9424 111.283 89.0466 111.18 89.1748 111.18H93.0466C93.1751 111.18 93.279 111.283 93.279 111.412Z" fill="#2245FF"/>
<path d="M92.9379 113.246H89.2844L88.6123 112.281H93.61L92.9379 113.246Z" fill="#0029FF"/>
<path d="M89.6441 140.107H88.6689V126.588H89.6441V140.107Z" fill="#8296FF"/>
<path d="M91.5982 140.107H90.623V126.588H91.5982V140.107Z" fill="#D47C28"/>
<path d="M92.575 140.107H91.5996V126.588H92.575V140.107Z" fill="#CB7026"/>
<path d="M93.5535 140.107H92.5781V126.588H93.5535V140.107Z" fill="#BA5E23"/>
<path d="M94.2847 141.352H87.9375V140.924H94.2847V141.352Z" fill="#8296FF"/>
<path d="M94.4162 142.723H87.8037L88.13 141.353H94.0904L94.4162 142.723Z" fill="#2245FF"/>
<path d="M94.6141 143.132H87.6074V142.724H94.6141V143.132Z" fill="#E1882A"/>
<path d="M94.8782 143.541H87.3418V143.132H94.8782V143.541Z" fill="#CE7C26"/>
<path d="M95.2201 143.95H87.002V143.541H95.2201V143.95Z" fill="#8296FF"/>
<path d="M92.9368 111.645H89.2832V112.281H92.9368V111.645Z" fill="#5E77FF"/>
<path d="M89.2832 116.323H92.9368V113.245H89.2832V116.323Z" fill="#2245FF"/>
<path d="M114.951 125.244H132.88L133.504 124.464H114.951V125.244Z" fill="#2245FF"/>
<path d="M130.441 127.42H131.008V125.244H130.441V127.42Z" fill="#3D5CFF"/>
<path d="M128.855 127.42H129.422V125.244H128.855V127.42Z" fill="#3D5CFF"/>
<path d="M127.27 127.42H127.836V125.244H127.27V127.42Z" fill="#3D5CFF"/>
<path d="M125.684 127.42H126.25V125.244H125.684V127.42Z" fill="#3D5CFF"/>
<path d="M124.097 127.419H124.663V125.244H124.097V127.419Z" fill="#3D5CFF"/>
<path d="M122.512 127.419H123.078V125.244H122.512V127.419Z" fill="#3D5CFF"/>
<path d="M120.924 127.42H121.49V125.244H120.924V127.42Z" fill="#3D5CFF"/>
<path d="M119.339 127.42H119.905V125.244H119.339V127.42Z" fill="#3D5CFF"/>
<path d="M117.752 127.42H118.318V125.244H117.752V127.42Z" fill="#3D5CFF"/>
<path d="M116.166 127.42H116.732V125.244H116.166V127.42Z" fill="#3D5CFF"/>
<path d="M116.201 128.084H126.002V127.419H116.201V128.084Z" fill="#3D5CFF"/>
<path d="M116.485 128.084H125.719V128.595H116.485V128.084Z" fill="#001CB5"/>
<path d="M116.852 128.595H125.352V143.949H116.852V128.595Z" fill="#5E77FF"/>
<path d="M118.213 143.95H123.991V135.314H118.213V143.95Z" fill="#F4B33E"/>
<path d="M121.102 129.74C121.125 129.738 124.664 129.972 124.664 134.656H117.54C117.54 129.972 121.079 129.738 121.102 129.74Z" fill="#001CB5"/>
<path d="M121.102 129.74C121.125 129.738 124.664 129.972 124.664 134.656H117.54C117.54 129.972 121.079 129.738 121.102 129.74Z" stroke="#8296FF" stroke-width="0.117011" stroke-miterlimit="10" stroke-linecap="round" stroke-linejoin="round"/>
<path d="M118.926 130.763V134.655" stroke="#8296FF" stroke-width="0.117011" stroke-miterlimit="10" stroke-linecap="round" stroke-linejoin="round"/>
<path d="M119.838 130.122V134.656" stroke="#8296FF" stroke-width="0.117011" stroke-miterlimit="10" stroke-linecap="round" stroke-linejoin="round"/>
<path d="M120.751 129.795V134.656" stroke="#8296FF" stroke-width="0.117011" stroke-miterlimit="10" stroke-linecap="round" stroke-linejoin="round"/>
<path d="M121.664 129.848V134.655" stroke="#8296FF" stroke-width="0.117011" stroke-miterlimit="10" stroke-linecap="round" stroke-linejoin="round"/>
<path d="M122.578 130.236V134.656" stroke="#8296FF" stroke-width="0.117011" stroke-miterlimit="10" stroke-linecap="round" stroke-linejoin="round"/>
<path d="M123.49 130.983V134.656" stroke="#8296FF" stroke-width="0.117011" stroke-miterlimit="10" stroke-linecap="round" stroke-linejoin="round"/>
<path d="M117.604 133.62H124.599" stroke="#8296FF" stroke-width="0.117011" stroke-miterlimit="10" stroke-linecap="round" stroke-linejoin="round"/>
<path d="M117.791 132.707H124.413" stroke="#8296FF" stroke-width="0.117011" stroke-miterlimit="10" stroke-linecap="round" stroke-linejoin="round"/>
<path d="M118.152 131.793H124.05" stroke="#8296FF" stroke-width="0.117011" stroke-miterlimit="10" stroke-linecap="round" stroke-linejoin="round"/>
<path d="M118.809 130.88H123.397" stroke="#8296FF" stroke-width="0.117011" stroke-miterlimit="10" stroke-linecap="round" stroke-linejoin="round"/>
<path d="M118.886 143.949H123.317V136.222H118.886V143.949Z" fill="#8296FF"/>
<path d="M119.161 143.949V140.928C119.161 140.7 119.347 140.514 119.575 140.514C119.646 140.514 119.713 140.534 119.772 140.566V139.002C119.772 138.213 120.411 137.573 121.199 137.573C121.988 137.573 122.627 138.213 122.627 139.002V140.514C122.856 140.514 123.041 140.7 123.041 140.928V143.949H119.161Z" fill="#001CB5"/>
<path d="M121.365 140.515V139.003C121.365 138.441 121.04 137.957 120.568 137.724C120.759 137.629 120.973 137.574 121.2 137.574C121.989 137.574 122.628 138.214 122.628 139.003V140.515C122.856 140.515 123.042 140.701 123.042 140.929V143.95H121.778V140.929C121.778 140.701 121.593 140.515 121.365 140.515Z" fill="#94421C"/>
<path d="M115.185 118.488H130.833V119.365H114.838L115.185 118.488Z" fill="#BEC9FF"/>
<path d="M116.485 122.809H125.684V120.995H116.485V122.809Z" fill="white"/>
<path d="M109.746 140.515H115.158V140.106H109.746V140.515Z" fill="#2245FF"/>
<path d="M109.542 140.924H115.363V140.515H109.542V140.924Z" fill="#001CB5"/>
<path d="M110.015 125.03L109.767 123.899H110.108L110.326 125.03H110.575L110.383 123.899H110.725L110.885 125.03H111.135L111 123.899H111.698L111.768 125.03H112.018L111.973 123.899H112.315L112.328 125.03H112.578L112.59 123.899H112.932L112.887 125.03H113.137L113.207 123.899H113.905L113.77 125.03H114.02L114.18 123.899H114.521L114.33 125.03H114.579L114.797 123.899H115.138L114.889 125.03H115.139C115.139 125.03 115.057 126.165 115.057 126.589H109.848C109.848 126.023 109.814 125.479 109.774 125.03H110.015Z" fill="#2245FF"/>
<path d="M110.184 107.056C110.184 107.301 110.382 107.499 110.627 107.499H114.281C114.525 107.499 114.723 107.301 114.723 107.056C114.723 106.811 114.525 106.612 114.281 106.612H110.627C110.382 106.612 110.184 106.811 110.184 107.056Z" fill="#001CB5"/>
<path d="M112.453 103.146C112.453 103.146 114.279 105.373 114.279 106.316V106.612H110.626V106.316C110.626 105.373 112.453 103.146 112.453 103.146Z" fill="#3D5CFF"/>
<path d="M112.064 109.865V108.247C112.064 108.033 112.238 107.859 112.453 107.859C112.667 107.859 112.84 108.033 112.84 108.247V109.865H112.064Z" fill="white"/>
<path d="M113.456 109.865V108.247C113.456 108.033 113.566 107.859 113.702 107.859C113.838 107.859 113.948 108.033 113.948 108.247V109.865H113.456Z" fill="white"/>
<path d="M110.957 109.865V108.247C110.957 108.033 111.067 107.859 111.203 107.859C111.339 107.859 111.449 108.033 111.449 108.247V109.865H110.957Z" fill="white"/>
<path d="M110.284 117.786H114.621V116.323H110.284V117.786Z" fill="#3D5CFF"/>
<path d="M109.315 118.137C109.315 118.331 109.493 118.488 109.711 118.488H115.194C115.412 118.488 115.589 118.331 115.589 118.137C115.589 117.943 115.412 117.786 115.194 117.786H109.711C109.493 117.786 109.315 117.943 109.315 118.137Z" fill="#0029FF"/>
<path d="M108.739 123.548C108.739 123.742 108.949 123.899 109.207 123.899H115.699C115.958 123.899 116.167 123.742 116.167 123.548C116.167 123.354 115.958 123.197 115.699 123.197H109.207C108.949 123.197 108.739 123.354 108.739 123.548Z" fill="#0029FF"/>
<path d="M114.363 119.619H114.738L115.185 118.488H114.738L114.363 119.619Z" fill="white"/>
<path d="M113.524 119.619H113.898L114.182 118.488H113.734L113.524 119.619Z" fill="white"/>
<path d="M112.685 119.619H113.059L113.178 118.488H112.731L112.685 119.619Z" fill="white"/>
<path d="M111.847 119.619H112.22L112.175 118.488H111.728L111.847 119.619Z" fill="white"/>
<path d="M111.007 119.619H111.381L111.171 118.488H110.724L111.007 119.619Z" fill="white"/>
<path d="M110.169 119.619H110.543L110.169 118.488H109.721L110.169 119.619Z" fill="white"/>
<path d="M114.889 125.03H115.139L115.413 123.899H115.138L114.889 125.03Z" fill="white"/>
<path d="M114.329 125.03H114.579L114.796 123.899H114.521L114.329 125.03Z" fill="white"/>
<path d="M113.771 125.03H114.02L114.18 123.899H113.905L113.771 125.03Z" fill="white"/>
<path d="M112.888 125.03H113.137L113.207 123.899H112.932L112.888 125.03Z" fill="white"/>
<path d="M112.327 125.03H112.577L112.589 123.899H112.314L112.327 125.03Z" fill="white"/>
<path d="M111.768 125.03H112.017L111.973 123.899H111.698L111.768 125.03Z" fill="white"/>
<path d="M110.886 125.03H111.135L111.001 123.899H110.726L110.886 125.03Z" fill="white"/>
<path d="M110.326 125.03H110.575L110.383 123.899H110.108L110.326 125.03Z" fill="white"/>
<path d="M109.766 125.03H110.015L109.766 123.899H109.491L109.766 125.03Z" fill="white"/>
<path d="M110.168 119.619H110.542L110.168 118.488H110.723L111.006 119.619H111.381L111.17 118.488H111.727L111.846 119.619H112.219L112.174 118.488H112.731L112.685 119.619H113.059L113.178 118.488H113.733L113.524 119.619H113.898L114.181 118.488H114.737L114.363 119.619H114.737L114.774 119.526V123.197H110.131V119.526L110.168 119.619Z" fill="#2245FF"/>
<path d="M110.284 111.412C110.284 111.54 110.388 111.644 110.517 111.644H114.389C114.516 111.644 114.621 111.54 114.621 111.412C114.621 111.284 114.516 111.18 114.389 111.18H110.517C110.388 111.18 110.284 111.284 110.284 111.412Z" fill="#2245FF"/>
<path d="M110.626 113.246H114.28L114.952 112.281H109.954L110.626 113.246Z" fill="#0029FF"/>
<path d="M109.278 141.352H115.626V140.924H109.278V141.352Z" fill="#8296FF"/>
<path d="M109.146 142.723H115.759L115.433 141.353H109.472L109.146 142.723Z" fill="#3D5CFF"/>
<path d="M108.949 143.132H115.955V142.724H108.949V143.132Z" fill="#E1882A"/>
<path d="M108.685 143.541H116.221V143.132H108.685V143.541Z" fill="#CE7C26"/>
<path d="M108.344 143.95H116.562V143.541H108.344V143.95Z" fill="#8296FF"/>
<path d="M110.626 111.645H114.279V112.281H110.626V111.645Z" fill="#5E77FF"/>
<path d="M114.279 116.323H110.626V113.245H114.279V116.323Z" fill="#2245FF"/>
<path d="M110.986 140.107H110.011V126.588H110.986V140.107Z" fill="#8296FF"/>
<path d="M112.94 140.107H111.965V126.588H112.94V140.107Z" fill="#D47C28"/>
<path d="M113.917 140.107H112.942V126.588H113.917V140.107Z" fill="#CB7026"/>
<path d="M114.895 140.107H113.919V126.588H114.895V140.107Z" fill="#BA5E23"/>
<path d="M115.589 118.136H131.008V118.487H115.194C115.412 118.487 115.589 118.33 115.589 118.136Z" fill="white"/>
<path d="M114.773 119.527L114.837 119.365H131.71L131.171 120.418H114.773V119.527Z" fill="#001CB5"/>
<path d="M115.413 123.899H115.698C115.957 123.899 116.166 123.742 116.166 123.548H131.492C131.673 123.548 131.82 123.691 131.82 123.869C131.82 124.047 131.673 124.19 131.492 124.19H115.343L115.413 123.899Z" fill="#BEC9FF"/>
<path d="M115.343 124.19H131.498V124.464H115.276L115.343 124.19Z" fill="#0029FF"/>
<path d="M109.847 126.589C109.847 126.023 109.813 125.479 109.773 125.03H109.766L109.595 124.328H93.9669L93.7961 125.03H93.7891C93.7486 125.479 93.7144 126.023 93.7144 126.589H93.5518V140.107H93.8159V140.515H94.0204V140.924H94.2837V141.352H94.0904L94.4162 142.724H94.6135V143.132H94.8781V143.541H95.219V143.95H95.9593H95.9586C95.9586 143.132 95.5012 143.132 95.5012 143.132V135.314C95.9404 135.314 95.9624 134.984 95.9602 134.595H94.7308V133.82H95.2764C95.5869 126.702 101.781 125.699 101.781 125.699C101.781 125.699 107.975 126.702 108.285 133.82H108.832V134.595H107.602C107.6 134.984 107.622 135.314 108.061 135.314V143.132C108.061 143.132 107.604 143.132 107.604 143.95H107.603H108.343V143.541H108.684V143.132H108.949V142.724H109.146L109.472 141.352H109.278V140.924H109.542V140.515H109.746V140.107H110.01V126.589H109.847Z" fill="#001CB5"/>
<path d="M95.3393 123.197H94.7471V119.619H95.3393V123.197Z" fill="#3D5CFF"/>
<path d="M97.2639 123.197H96.6719V119.619H97.2639V123.197Z" fill="#3D5CFF"/>
<path d="M99.1902 123.197H98.5986V119.619H99.1902V123.197Z" fill="#3D5CFF"/>
<path d="M101.116 123.197H100.523V119.619H101.116V123.197Z" fill="#3D5CFF"/>
<path d="M103.041 123.197H102.449V119.619H103.041V123.197Z" fill="#3D5CFF"/>
<path d="M104.966 123.197H104.374V119.619H104.966V123.197Z" fill="#3D5CFF"/>
<path d="M106.89 123.197H106.299V119.619H106.89V123.197Z" fill="#3D5CFF"/>
<path d="M108.816 123.197H108.224V119.619H108.816V123.197Z" fill="#3D5CFF"/>
<path d="M94.7314 133.82H96.4113C96.4113 133.82 96.4354 134.221 96.1975 134.221C96.1975 134.221 96.2641 134.594 95.9975 134.594H94.7314V133.82Z" fill="#3D5CFF"/>
<path d="M108.832 133.82H107.152C107.152 133.82 107.128 134.221 107.366 134.221C107.366 134.221 107.299 134.594 107.566 134.594H108.832V133.82Z" fill="#3D5CFF"/>
<path d="M108.286 133.82C107.976 126.702 101.782 125.699 101.782 125.699C101.782 125.699 95.5876 126.702 95.2773 133.82H95.9742C96.2928 127.483 101.782 126.589 101.782 126.589C101.782 126.589 107.271 127.483 107.59 133.82H108.286Z" fill="#0029FF"/>
<path d="M110.625 111.645H110.516C110.387 111.645 110.284 111.54 110.284 111.413C110.284 111.284 110.387 111.18 110.516 111.18H110.625V110.181H92.9365V111.18H93.0456C93.1741 111.18 93.2781 111.284 93.2781 111.413C93.2781 111.54 93.1741 111.645 93.0456 111.645H92.9365V111.962H110.625V111.645Z" fill="#3D5CFF"/>
<path d="M110.289 112.763L109.969 112.281H110.625V111.962H92.9365V112.281H93.6088L93.2725 112.763H110.289Z" fill="#001CB5"/>
<path d="M93.8518 118.488H109.71C109.492 118.488 109.315 118.331 109.315 118.137C109.315 117.943 109.492 117.786 109.71 117.786H110.284V116.323H110.625V113.246L110.289 112.764H93.2725L92.9365 113.246V116.323H93.2781V117.786H93.8518C94.0699 117.786 94.2467 117.943 94.2467 118.137C94.2467 118.331 94.0699 118.488 93.8518 118.488Z" fill="#5E77FF"/>
<path d="M110.132 119.619V119.526L110.168 119.619L109.72 118.488H109.711H93.8527H93.8435L93.3955 119.619L93.4322 119.526V119.619H110.132Z" fill="#0029FF"/>
<path d="M109.491 123.899H109.206C108.948 123.899 108.739 123.742 108.739 123.548C108.739 123.354 108.948 123.197 109.206 123.197H94.3566C94.6145 123.197 94.8242 123.354 94.8242 123.548C94.8242 123.742 94.6145 123.899 94.3566 123.899H94.0713L94.0576 123.956H109.505L109.491 123.899Z" fill="#3D5CFF"/>
<path d="M109.505 123.948H94.058L93.9678 124.328H109.596L109.505 123.948Z" fill="#0029FF"/>
<path d="M95.9593 143.95C95.9593 143.133 95.5016 143.133 95.5016 143.133V135.314C95.9408 135.314 95.9629 134.984 95.9608 134.595H94.7314V143.133H94.8181V143.541H95.1589V143.95H95.9593Z" fill="#3D5CFF"/>
<path d="M107.604 134.595C107.601 134.984 107.623 135.314 108.063 135.314V143.133C108.063 143.133 107.605 143.133 107.605 143.95H108.344V143.541H108.685V143.133H108.833V134.595H107.604Z" fill="#3D5CFF"/>
<path d="M94.7314 124.854V133.819H95.2771C95.5873 126.701 101.782 125.699 101.782 125.699C101.782 125.699 107.975 126.701 108.286 133.819H108.832V124.854H94.7314Z" fill="#3D5CFF"/>
<path d="M108.512 117.23H95.0498V113.888H108.512V117.23Z" fill="white"/>
<path d="M97.1164 126.258C97.1164 126.643 96.8036 126.956 96.4187 126.956C96.033 126.956 95.7207 126.643 95.7207 126.258C95.7207 125.872 96.033 125.56 96.4187 125.56C96.8036 125.56 97.1164 125.872 97.1164 126.258Z" fill="#0029FF"/>
<path d="M96.757 126.258C96.757 126.445 96.6055 126.596 96.419 126.596C96.232 126.596 96.0811 126.445 96.0811 126.258C96.0811 126.071 96.232 125.92 96.419 125.92C96.6055 125.92 96.757 126.071 96.757 126.258Z" fill="#5E77FF"/>
<path d="M107.844 126.258C107.844 126.643 107.531 126.956 107.146 126.956C106.76 126.956 106.447 126.643 106.447 126.258C106.447 125.872 106.76 125.56 107.146 125.56C107.531 125.56 107.844 125.872 107.844 126.258Z" fill="#0029FF"/>
<path d="M107.483 126.258C107.483 126.445 107.332 126.596 107.146 126.596C106.959 126.596 106.808 126.445 106.808 126.258C106.808 126.071 106.959 125.92 107.146 125.92C107.332 125.92 107.483 126.071 107.483 126.258Z" fill="#5E77FF"/>
<path d="M114.9 140.107H110.021V126.588H114.9V140.107Z" fill="#3D5CFF"/>
<path d="M93.5877 140.107H88.6719V126.588H93.5877V140.107Z" fill="#3D5CFF"/>
<path d="M120.095 100.478C120.095 100.478 121.359 100.557 121.8 101.342C121.8 101.342 122.294 100.138 123.053 100.06C123.053 100.06 121.888 99.9909 121.849 100.894C121.849 100.894 120.656 99.8962 120.095 100.478Z" fill="#001CB5"/>
<path d="M126.408 105.032C126.408 105.032 128.267 105.148 128.916 106.302C128.916 106.302 129.642 104.532 130.757 104.417C130.757 104.417 129.045 104.316 128.988 105.643C128.988 105.643 127.234 104.176 126.408 105.032Z" fill="#001CB5"/>
<path d="M123.026 97.7441C123.026 97.7441 123.856 98.1448 123.938 98.7951C123.938 98.7951 124.601 98.1201 125.134 98.276C125.134 98.276 124.369 97.9095 124.094 98.5066C124.094 98.5066 123.565 97.5063 123.026 97.7441Z" fill="#001CB5"/>
</g>
</g>
<line x1="0.707107" y1="-0.707107" x2="250.707" y2="249.293" stroke="#FA0202" stroke-width="2"/>
</g>
<defs>
<clipPath id="clip0_253_3848">
<rect width="250" height="250" fill="white"/>
</clipPath>
</defs>
</svg>
