<svg width="48" height="48" viewBox="0 0 48 48" fill="none" xmlns="http://www.w3.org/2000/svg">
<path d="M7.666 2.666C7.43868 2.66852 7.21345 2.70978 7 2.788V2C7 0.898 7.898 0 9 0H38.334C39.436 0 40.334 0.898 40.334 2V2.666H7.666ZM42.334 7.334H5.666C4.564 7.334 3.666 8.232 3.666 9.334V46C3.666 47.102 4.564 48 5.666 48H20.266L22.462 36.71H17.982C17.88 36.71 7.666 36.228 7.666 36.228L16.944 35.574L16.788 34.842L12.832 34.272L16.596 33.956L16.348 33.058L10.198 32.124C10.198 32.124 16.88 31.378 16.982 31.378H23.446L23.94 28.716C24.518 25.484 25.83 23.102 27.886 21.33C29.952 19.546 32.574 18.666 35.76 18.666C37.046 18.666 37.866 18.968 38.222 19.592C38.458 19.964 38.624 20.624 38.78 21.31C38.928 22.014 39.06 22.652 38.97 23.116C38.856 23.806 38.048 24.046 36.576 24.046H36.07C33.416 24.046 31.802 25.572 31.26 28.666L30.774 31.376H33.854C35.002 31.376 35.416 32.18 35.098 33.988C34.758 35.87 34.02 36.708 32.876 36.708H29.8L27.608 48H42.332C43.434 48 44.332 47.102 44.332 46V9.334C44.332 8.80391 44.1216 8.29551 43.7469 7.92049C43.3723 7.54548 42.8641 7.33453 42.334 7.334ZM41 4.666C40.9995 4.48953 40.9291 4.32043 40.8044 4.19565C40.6796 4.07086 40.5105 4.00053 40.334 4H7.666C7.48953 4.00053 7.32043 4.07086 7.19565 4.19565C7.07086 4.32043 7.00053 4.48953 7 4.666V6H41V4.666Z" fill="#757575"/>
</svg>
