<svg width="56" height="47" viewBox="0 0 56 47" fill="none" xmlns="http://www.w3.org/2000/svg">
<path fill-rule="evenodd" clip-rule="evenodd" d="M27.4375 45.8156C39.7966 45.8156 49.8156 35.7966 49.8156 23.4375C49.8156 11.0784 39.7966 1.05938 27.4375 1.05938C15.0784 1.05938 5.05938 11.0784 5.05938 23.4375C5.05938 35.7966 15.0784 45.8156 27.4375 45.8156ZM27.4375 46.875C40.3817 46.875 50.875 36.3817 50.875 23.4375C50.875 10.4933 40.3817 0 27.4375 0C14.4933 0 4 10.4933 4 23.4375C4 36.3817 14.4933 46.875 27.4375 46.875Z" fill="black"/>
<path fill-rule="evenodd" clip-rule="evenodd" d="M44.0071 15.4896C44.0071 17.2809 42.5499 18.7331 40.7524 18.7331H37.4386V12.2461H40.7524C42.5499 12.2461 44.0071 13.6983 44.0071 15.4896ZM40.7524 17.6716C41.9617 17.6716 42.9419 16.6947 42.9419 15.4896C42.9419 14.2845 41.9617 13.3076 40.7524 13.3076H38.5038V17.6716H40.7524Z" fill="black"/>
<path fill-rule="evenodd" clip-rule="evenodd" d="M31.9354 15.4896C31.9354 17.2809 33.3926 18.7331 35.1901 18.7331H38.5039V12.2461H35.1901C33.3926 12.2461 31.9354 13.6983 31.9354 15.4896ZM35.1901 17.6716C33.9809 17.6716 33.0006 16.6947 33.0006 15.4896C33.0006 14.2845 33.9809 13.3076 35.1901 13.3076H37.4387V17.6716H35.1901Z" fill="black"/>
<path fill-rule="evenodd" clip-rule="evenodd" d="M31.9354 20.915C31.9354 22.7063 33.3926 24.1585 35.1901 24.1585H38.5039V17.6715L35.1901 17.6716C33.3926 17.6716 31.9354 19.1237 31.9354 20.915ZM35.1901 23.097C33.9809 23.097 33.0006 22.1201 33.0006 20.915C33.0006 19.7099 33.9809 18.7331 35.1901 18.7331L37.4387 18.733V23.097H35.1901Z" fill="black"/>
<path fill-rule="evenodd" clip-rule="evenodd" d="M31.9354 26.3405C31.9354 28.1355 33.411 29.584 35.2048 29.584C37.0149 29.584 38.5039 28.1223 38.5039 26.311V23.097L35.1901 23.097C33.3926 23.097 31.9354 24.5491 31.9354 26.3405ZM35.2048 28.5224C33.9918 28.5224 33.0006 27.5418 33.0006 26.3405C33.0006 25.1354 33.9809 24.1585 35.1901 24.1585L37.4387 24.1585V26.311C37.4387 27.5286 36.4341 28.5224 35.2048 28.5224Z" fill="black"/>
<path fill-rule="evenodd" clip-rule="evenodd" d="M37.4381 20.915C37.4381 22.7063 38.8953 24.1585 40.6928 24.1585H40.7519C42.5494 24.1585 44.0066 22.7063 44.0066 20.915C44.0066 19.1237 42.5494 17.6715 40.7519 17.6715H40.6928C38.8953 17.6715 37.4381 19.1237 37.4381 20.915ZM40.6928 23.097C39.4835 23.097 38.5033 22.1201 38.5033 20.915C38.5033 19.7099 39.4835 18.733 40.6928 18.733H40.7519C41.9612 18.733 42.9414 19.7099 42.9414 20.915C42.9414 22.1201 41.9612 23.097 40.7519 23.097H40.6928Z" fill="black"/>
<path d="M21.1028 15.2268C21.5763 15.2268 21.9601 14.8431 21.9601 14.3699C21.9601 13.8966 21.5763 13.5129 21.1028 13.5129C20.6293 13.5129 20.2455 13.8966 20.2455 14.3699C20.2455 14.8431 20.6293 15.2268 21.1028 15.2268Z" fill="white"/>
<path d="M11.9103 18.6116C12.3838 18.6116 12.7676 18.228 12.7676 17.7547C12.7676 17.2814 12.3838 16.8978 11.9103 16.8978C11.4368 16.8978 11.053 17.2814 11.053 17.7547C11.053 18.228 11.4368 18.6116 11.9103 18.6116Z" fill="white"/>
<path d="M31.1334 17.7547C31.1334 18.228 30.7495 18.6116 30.2761 18.6116C29.8026 18.6116 29.4188 18.228 29.4188 17.7547C29.4188 17.2814 29.8026 16.8978 30.2761 16.8978C30.7495 16.8978 31.1334 17.2814 31.1334 17.7547Z" fill="white"/>
<path d="M21.0791 29.9658C21.5526 29.9658 21.9364 29.5822 21.9364 29.1089C21.9364 28.6356 21.5526 28.252 21.0791 28.252C20.6056 28.252 20.2218 28.6356 20.2218 29.1089C20.2218 29.5822 20.6056 29.9658 21.0791 29.9658Z" fill="white"/>
<path fill-rule="evenodd" clip-rule="evenodd" d="M19.1468 28.0565L19.74 28.5878C19.6884 28.7348 19.6603 28.8928 19.6603 29.0573C19.6603 29.8406 20.2956 30.4756 21.0792 30.4756C21.8629 30.4756 22.4981 29.8406 22.4981 29.0573C22.4981 28.9061 22.4745 28.7605 22.4306 28.6238L23.0655 28.0551L23.0955 28.0283C25.2866 26.0733 27.1909 24.3741 28.5371 22.7535C29.4969 21.598 30.23 20.417 30.5801 19.1366C31.2005 18.9851 31.6609 18.4257 31.6609 17.7589C31.6609 17.1415 31.2662 16.6162 30.7152 16.4215C30.2292 13.7096 27.8679 11.7256 24.9944 11.7256C23.9735 11.7256 23.0392 12.115 22.2705 12.604C22.0575 12.7395 21.8522 12.8857 21.6558 13.0389C21.4796 12.9605 21.2845 12.9169 21.0792 12.9169C20.8869 12.9169 20.7036 12.9551 20.5364 13.0244C20.3456 12.8765 20.1466 12.7352 19.9403 12.604C19.1715 12.115 18.2373 11.7256 17.2164 11.7256C14.3494 11.7256 11.9923 13.7007 11.4988 16.4031C10.919 16.5813 10.4976 17.1209 10.4976 17.7589C10.4976 18.4455 10.9857 19.0182 11.6341 19.1491C11.9855 20.4246 12.7169 21.6018 13.6736 22.7535C15.0199 24.3741 16.9242 26.0733 19.1152 28.0283L19.1468 28.0565ZM12.6802 18.9544C13.4356 21.5369 16.109 23.9265 19.8523 27.2665L20.4385 27.7916C20.6309 27.6941 20.8487 27.6391 21.0792 27.6391C21.3231 27.6391 21.5526 27.7006 21.753 27.8089L22.3585 27.2665C26.0886 23.9382 28.7564 21.5537 29.5225 18.9815C29.104 18.7349 28.8231 18.2797 28.8231 17.7589C28.8231 17.1886 29.1599 16.697 29.6454 16.4718C29.1956 14.3369 27.311 12.7845 24.9944 12.7845C24.0715 12.7845 23.1714 13.2198 22.396 13.8057C22.4619 13.9693 22.4981 14.148 22.4981 14.3351C22.4981 15.1184 21.8629 15.7534 21.0792 15.7534C20.2956 15.7534 19.6603 15.1184 19.6603 14.3351C19.6603 14.1365 19.7012 13.9475 19.7749 13.7759C19.0086 13.205 18.1235 12.7845 17.2164 12.7845C14.8914 12.7845 13.0016 14.3481 12.5605 16.4949C13.0204 16.7295 13.3353 17.2074 13.3353 17.7589C13.3353 18.2611 13.0742 18.7024 12.6802 18.9544ZM11.4054 17.3242C11.4054 17.3242 11.4054 17.3242 11.4054 17.3242C11.5285 17.1797 11.7118 17.0881 11.9165 17.0881C12.1425 17.0881 12.3424 17.1998 12.464 17.3709C12.464 17.3709 12.464 17.3709 12.464 17.3709C12.5418 17.4805 12.5876 17.6143 12.5876 17.7589C12.5876 18.1294 12.2871 18.4297 11.9164 18.4297C11.5458 18.4297 11.2453 18.1294 11.2453 17.7589C11.2453 17.593 11.3056 17.4413 11.4054 17.3242ZM21.7504 29.0573C21.7504 29.0318 21.7489 29.0066 21.7462 28.9819C21.7342 28.8752 21.6972 28.7761 21.6412 28.6906C21.5262 28.5149 21.331 28.3964 21.1075 28.3871L21.103 28.3869C21.0951 28.3867 21.0872 28.3866 21.0793 28.3866C20.7086 28.3866 20.4081 28.6869 20.4081 29.0574C20.4081 29.0879 20.4102 29.1181 20.4142 29.1475C20.4165 29.1652 20.4196 29.1827 20.4233 29.2C20.4887 29.5019 20.7576 29.7281 21.0792 29.7281C21.4499 29.7281 21.7504 29.4278 21.7504 29.0573ZM30.242 18.4297C30.0478 18.4297 29.8728 18.3472 29.7503 18.2154C29.7328 18.1966 29.7163 18.1767 29.7011 18.156C29.6192 18.0448 29.5709 17.9075 29.5709 17.7589C29.5709 17.5853 29.6369 17.4271 29.7452 17.3079C29.868 17.1729 30.0451 17.0881 30.242 17.0881C30.4493 17.0881 30.6347 17.1821 30.7578 17.3297C30.7754 17.3507 30.7917 17.3729 30.8066 17.3961C30.874 17.5007 30.9131 17.6252 30.9131 17.7589C30.9131 18.1294 30.6127 18.4297 30.242 18.4297ZM21.0793 13.6644C21.3109 13.6644 21.5151 13.7817 21.6358 13.9601C21.6953 14.0482 21.7344 14.1511 21.7464 14.2622C21.749 14.2862 21.7504 14.3105 21.7504 14.3351C21.7504 14.7056 21.4499 15.0059 21.0792 15.0059C20.7086 15.0059 20.4081 14.7056 20.4081 14.3351C20.4081 14.3245 20.4084 14.3139 20.4089 14.3034C20.4255 13.9476 20.7193 13.6644 21.0793 13.6644Z" fill="black"/>
<mask id="mask0_107_491" style="mask-type:alpha" maskUnits="userSpaceOnUse" x="12" y="12" width="18" height="16">
<path d="M20.4385 27.7916L19.8523 27.2665C16.109 23.9265 13.4356 21.5369 12.6802 18.9543C13.0742 18.7023 13.3353 18.2611 13.3353 17.7589C13.3353 17.2074 13.0204 16.7294 12.5605 16.4948C13.0016 14.348 14.8914 12.7844 17.2164 12.7844C18.1235 12.7844 19.0086 13.205 19.7749 13.7758C19.7012 13.9474 19.6604 14.1365 19.6604 14.3351C19.6604 15.1184 20.2956 15.7533 21.0792 15.7533C21.8629 15.7533 22.4981 15.1184 22.4981 14.3351C22.4981 14.148 22.4619 13.9693 22.396 13.8057C23.1714 13.2197 24.0715 12.7844 24.9944 12.7844C27.311 12.7844 29.1956 14.3368 29.6454 16.4717C29.1599 16.697 28.8231 17.1886 28.8231 17.7589C28.8231 18.2797 29.104 18.7349 29.5225 18.9815C28.7564 21.5537 26.0886 23.9382 22.3585 27.2665L21.753 27.8089C21.5526 27.7005 21.3231 27.6391 21.0792 27.6391C20.8487 27.6391 20.6309 27.694 20.4385 27.7916Z" fill="#236DF6"/>
</mask>
<g mask="url(#mask0_107_491)">
<rect x="11.7642" y="12.4103" width="18.6681" height="16.8621" fill="#80C9F0"/>
<rect x="8.43616" y="12.6538" width="23.8552" height="17.8218" fill="white"/>
<g clip-path="url(#clip0_107_491)">
<path d="M11.7062 32.3706H35.7742V8.30259H11.7062V32.3706Z" fill="#8296FF"/>
<path d="M27.8964 25.1808C28.1499 25.1482 28.4293 25.1083 28.721 25.0632V24.5028H25.7099C24.8473 24.5868 24.2388 24.6396 24.2358 24.739C24.2302 24.9183 26.2028 25.0358 26.1925 25.165C26.1753 25.3797 20.711 25.2749 20.6642 25.6345C20.646 25.7741 21.4571 25.8771 21.4358 26.0255C21.3938 26.318 18.1923 26.2957 17.3374 26.465V26.6716C17.6017 26.7512 18.0223 26.8277 18.0123 26.9222C18.0045 26.9968 17.7359 27.0143 17.3374 27.0297V27.373H17.9351C18.092 27.1141 22.1896 27.1864 22.2371 26.8553C22.2584 26.7069 21.4474 26.6039 21.4655 26.4643C21.5123 26.1047 26.9766 26.2095 26.9938 25.9948C27.0041 25.8656 25.0316 25.7481 25.0371 25.5688C25.0417 25.4216 26.3751 25.3765 27.8964 25.1808Z" fill="#5E77FF"/>
<path d="M20.418 26.9689C20.418 26.9689 20.812 26.9848 20.5382 27.0262C20.2645 27.0675 19.8239 27.1061 19.8239 27.1061C19.8239 27.1061 20.41 27.2151 20.2131 27.2461C20.0162 27.277 19.1681 27.2337 19.1681 27.2337C19.1681 27.2337 19.4369 27.3063 19.3514 27.3231C19.2659 27.34 18.8436 27.3002 18.8436 27.3002C18.8436 27.3002 19.4908 27.3378 19.0797 27.2005C19.0797 27.2005 20.1433 27.266 19.9914 27.1854C19.8395 27.1047 19.6292 27.0646 19.6292 27.0646C19.6292 27.0646 20.9231 27.0137 20.418 26.9689Z" fill="#8296FF"/>
<path d="M27.5161 24.2085C27.9864 24.1751 28.5049 24.1342 29.0461 24.0879V23.5132H23.4589C21.8583 23.5994 20.7293 23.6535 20.7236 23.7554C20.7133 23.9394 24.3735 24.0598 24.3543 24.1923C24.3224 24.4125 14.1831 24.305 14.0963 24.6738C14.0626 24.8169 15.5676 24.9225 15.5281 25.0748C15.4502 25.3747 9.50961 25.3518 7.92334 25.5255V25.7373C8.4137 25.819 9.19413 25.8974 9.17575 25.9944C9.16124 26.0708 8.66269 26.0888 7.92334 26.1046V26.4567H9.03232C9.32362 26.1911 16.9269 26.2653 17.015 25.9258C17.0545 25.7735 15.5496 25.6679 15.5832 25.5248C15.6701 25.156 25.8094 25.2634 25.8412 25.0433C25.8604 24.9108 22.2002 24.7903 22.2105 24.6064C22.219 24.4554 24.6931 24.4092 27.5161 24.2085Z" fill="#5E77FF"/>
<path d="M35.7499 9.18738H11.6874V19.8124H35.7499V9.18738Z" fill="#BEC9FF"/>
<path d="M11.6798 11.4305H32.2121C31.3299 12.7167 29.2257 13.9983 26.6773 14.8041C24.2726 15.5644 22.5897 15.2305 24.5431 14.1745C23.936 14.4404 21.5211 15.7069 20.8461 15.9203C18.1353 16.7775 13.4785 17.0414 11.6798 16.6332V11.4305Z" fill="#99A9FF"/>
<path d="M35.2079 11.4305C31.0314 14.4492 27.1609 16.2338 22.9792 17.3114C21.811 17.6124 20.6305 17.8954 19.4188 17.9574C18.9888 17.9793 17.9534 18.0758 17.7364 17.533C17.5721 17.1219 18.2167 16.7475 19.2917 16.0299C19.2185 16.1481 19.2005 16.2608 19.2467 16.3763C19.4636 16.9191 20.4991 16.8227 20.9291 16.8007C22.1408 16.7388 23.3212 16.4557 24.4895 16.1547C28.6196 15.0904 31.4957 13.5985 34.5811 11.425L35.2079 11.4305Z" fill="#99A9FF"/>
<path d="M21.4821 19.4652C20.8506 18.7016 20.6128 19.5364 20.6128 19.5364C20.2827 18.4273 18.7257 19.0865 18.7257 19.0865C17.7389 17.6838 15.6953 18.6623 15.6953 18.6623C15.88 17.7472 14.8011 17.8837 14.8011 17.8837C14.6919 16.9197 13.4697 17.2845 13.4697 17.2845C12.901 16.1245 12.2422 15.7654 11.7062 15.7087V19.9418H23.2106C22.6147 19.0445 21.4821 19.4652 21.4821 19.4652Z" fill="#FFFCFA"/>
<path d="M25.9778 19.6102C26.6093 19.0791 26.8471 19.6598 26.8471 19.6598C27.1772 18.8883 28.7342 19.3468 28.7342 19.3468C29.721 18.371 31.7646 19.0517 31.7646 19.0517C31.5799 18.4152 32.6588 18.5101 32.6588 18.5101C32.768 17.8395 33.9903 18.0933 33.9903 18.0933C34.5589 17.2863 35.2177 17.0366 35.7537 16.997V19.9418H24.2493C24.8452 19.3176 25.9778 19.6102 25.9778 19.6102Z" fill="#FFFCFA"/>
<path d="M16.8292 15.0846H14.3438C14.3438 15.0846 14.4183 14.7527 14.5805 14.7922C14.7427 14.8316 14.8128 14.9849 14.9925 14.9367C15.1723 14.8886 15.2336 14.5686 15.4572 14.6826C15.6808 14.7966 15.6325 15.0213 15.8955 14.9484C16.1586 14.8755 16.2988 14.8009 16.5618 14.9105C16.8249 15.0201 16.8292 15.0846 16.8292 15.0846Z" fill="#FFFCFA"/>
<path d="M29.2857 15.0662H26.8002C26.8002 15.0662 26.8747 14.7343 27.0369 14.7737C27.1991 14.8132 27.2693 14.9665 27.4489 14.9183C27.6287 14.8702 27.6901 14.5502 27.9136 14.6641C28.1372 14.7781 28.089 15.0029 28.352 14.93C28.615 14.857 28.7553 14.7825 29.0183 14.8921C29.2813 15.0017 29.2857 15.0662 29.2857 15.0662Z" fill="#FFFCFA"/>
<path d="M23.2666 25.2394C23.2666 25.2394 23.84 25.2624 23.4415 25.3226C23.0431 25.3829 22.4017 25.4391 22.4017 25.4391C22.4017 25.4391 23.2549 25.5977 22.9682 25.6428C22.6816 25.6879 21.4472 25.6248 21.4472 25.6248C21.4472 25.6248 21.8385 25.7304 21.714 25.7549C21.5896 25.7795 20.9749 25.7216 20.9749 25.7216C20.9749 25.7216 21.9169 25.7762 21.3185 25.5765C21.3185 25.5765 22.8668 25.6719 22.6456 25.5544C22.4244 25.4371 22.1183 25.3786 22.1183 25.3786C22.1183 25.3786 24.0017 25.3046 23.2666 25.2394Z" fill="#FFFCFA"/>
<path d="M18.6831 23.5133C18.6831 23.5133 18.1097 23.5363 18.5082 23.5966C18.9066 23.6568 19.548 23.713 19.548 23.713C19.548 23.713 18.6948 23.8716 18.9815 23.9167C19.2681 23.9618 20.5025 23.8987 20.5025 23.8987C20.5025 23.8987 20.1112 24.0043 20.2357 24.0289C20.3601 24.0534 20.9749 23.9955 20.9749 23.9955C20.9749 23.9955 20.0329 24.0502 20.6313 23.8505C20.6313 23.8505 19.0829 23.9458 19.3041 23.8284C19.5253 23.711 19.8314 23.6526 19.8314 23.6526C19.8314 23.6526 17.948 23.5785 18.6831 23.5133Z" fill="#FFFCFA"/>
<path d="M24.9226 21.3394H24.6658V20.5676H29.2205V21.4369H25.0526C25.0526 21.383 24.9945 21.3394 24.9226 21.3394Z" fill="#5E77FF"/>
<path d="M23.3762 21.3394V20.3455H18.7374V21.3394H18.9944H23.1193H23.3762Z" fill="#001CB5"/>
<path d="M17.3336 20.0314H12.9871V20.2751H17.43L17.3336 20.0314Z" fill="#BEC9FF"/>
<path d="M17.2214 19.9339H12.9384V20.0314H17.331C17.2705 20.0314 17.2214 19.9877 17.2214 19.9339Z" fill="white"/>
<path d="M17.4478 20.3199L17.4301 20.2751H12.7433L12.8931 20.5676H17.4478V20.3199Z" fill="#001CB5"/>
<path d="M17.1911 21.3394H17.448V20.5676H12.8932V21.4369H17.0612C17.0612 21.383 17.1192 21.3394 17.1911 21.3394Z" fill="#5E77FF"/>
<path d="M17.2702 21.5344H17.191C17.1192 21.5344 17.0612 21.4908 17.0612 21.4369H12.8039C12.7536 21.4369 12.7129 21.4768 12.7129 21.5261C12.7129 21.5755 12.7536 21.6154 12.8039 21.6154H17.2899L17.2702 21.5344Z" fill="#BEC9FF"/>
<path d="M17.2898 21.6153H12.8021V21.6914H17.3083L17.2898 21.6153Z" fill="#0029FF"/>
<path d="M17.4145 22.2816H17.3693C17.3693 22.1958 17.3573 22.0051 17.3507 21.908H12.4184C12.4184 21.908 12.405 22.0457 12.565 22.0857C12.565 22.0857 12.4984 22.2375 12.6584 22.2816C12.6584 22.2816 12.6317 22.5125 12.8051 22.5125C12.9784 22.5125 17.4145 22.5125 17.4145 22.5125V22.2816Z" fill="#0029FF"/>
<path d="M24.6993 22.2816H24.7445C24.7445 22.1958 24.7565 22.0051 24.7631 21.908H29.6954C29.6954 21.908 29.7088 22.0457 29.5488 22.0857C29.5488 22.0857 29.6155 22.2375 29.4554 22.2816C29.4554 22.2816 29.482 22.5125 29.3087 22.5125C29.1355 22.5125 24.6993 22.5125 24.6993 22.5125V22.2816Z" fill="#0029FF"/>
<path d="M18.6001 18.0015V16.9789H17.5852V18.0015H18.6001Z" fill="#5E77FF"/>
<path d="M23.5135 18.0015V16.9789H24.5284V18.0015H23.5135Z" fill="#5E77FF"/>
<path d="M17.3334 19.8407H17.4998V19.6875H12.8748V19.9375H17.219C17.219 19.8841 17.2702 19.8407 17.3334 19.8407Z" fill="#0029FF"/>
<path d="M24.7956 19.8407H24.6248V19.6875H29.3748V19.9375H24.9131C24.9131 19.8841 24.8605 19.8407 24.7956 19.8407Z" fill="#0029FF"/>
<path d="M17.046 26.9905V26.877H17.1196V26.7635H17.1742L17.2649 26.3826L17.2111 26.3771V26.2635H17.2842V26.15H17.3411V26.0365H17.4145V22.5124H12.8051V27.104H16.9513V26.9905H17.046Z" fill="#0029FF"/>
<path d="M25.0678 26.9905V26.877H24.9942V26.7635H24.9395L24.8489 26.3826L24.9027 26.3771V26.2635H24.8296V26.15H24.7727V26.0365H24.6993V22.5124H29.3087V27.104H25.1626V26.9905H25.0678Z" fill="#0029FF"/>
<path d="M17.3986 21.908H12.4184L12.245 21.6914H17.3986V21.908Z" fill="#2245FF"/>
<path d="M13.0958 22.5125H12.9384V21.908H13.0958V22.5125Z" fill="#3D5CFF"/>
<path d="M13.5363 22.5125H13.3789V21.908H13.5363V22.5125Z" fill="#3D5CFF"/>
<path d="M13.9769 22.5125H13.8196V21.908H13.9769V22.5125Z" fill="#3D5CFF"/>
<path d="M14.4175 22.5125H14.2601V21.908H14.4175V22.5125Z" fill="#3D5CFF"/>
<path d="M14.858 22.5125H14.7007V21.908H14.858V22.5125Z" fill="#3D5CFF"/>
<path d="M15.2988 22.5125H15.1415V21.908H15.2988V22.5125Z" fill="#3D5CFF"/>
<path d="M15.7394 22.5125H15.582V21.908H15.7394V22.5125Z" fill="#3D5CFF"/>
<path d="M16.1799 22.5125H16.0226V21.908H16.1799V22.5125Z" fill="#3D5CFF"/>
<path d="M16.6205 22.5125H16.4631V21.908H16.6205V22.5125Z" fill="#3D5CFF"/>
<path d="M17.0611 22.5125H16.9037V21.908H17.0611V22.5125Z" fill="#3D5CFF"/>
<path d="M17.0512 22.6971H14.329V22.5125H17.0512V22.6971Z" fill="#3D5CFF"/>
<path d="M16.9725 22.6971H14.4076V22.839H16.9725V22.6971Z" fill="#001CB5"/>
<path d="M16.8708 22.839H14.5095V27.104H16.8708V22.839Z" fill="#5E77FF"/>
<path d="M16.4928 27.104H14.8877V24.7052H16.4928V27.104Z" fill="#F4B33E"/>
<path d="M15.6901 23.1569C15.6838 23.1564 14.7007 23.2214 14.7007 24.5223H16.6795C16.6795 23.2214 15.6965 23.1564 15.6901 23.1569Z" fill="#001CB5"/>
<path d="M15.6901 23.1569C15.6838 23.1564 14.7007 23.2214 14.7007 24.5223H16.6795C16.6795 23.2214 15.6965 23.1564 15.6901 23.1569Z" stroke="#8296FF" stroke-width="0.0325031" stroke-miterlimit="10" stroke-linecap="round" stroke-linejoin="round"/>
<path d="M16.2948 23.4412V24.5223" stroke="#8296FF" stroke-width="0.0325031" stroke-miterlimit="10" stroke-linecap="round" stroke-linejoin="round"/>
<path d="M16.0411 23.2627V24.5223" stroke="#8296FF" stroke-width="0.0325031" stroke-miterlimit="10" stroke-linecap="round" stroke-linejoin="round"/>
<path d="M15.7874 23.1721V24.5223" stroke="#8296FF" stroke-width="0.0325031" stroke-miterlimit="10" stroke-linecap="round" stroke-linejoin="round"/>
<path d="M15.5338 23.1869V24.5223" stroke="#8296FF" stroke-width="0.0325031" stroke-miterlimit="10" stroke-linecap="round" stroke-linejoin="round"/>
<path d="M15.2802 23.2948V24.5223" stroke="#8296FF" stroke-width="0.0325031" stroke-miterlimit="10" stroke-linecap="round" stroke-linejoin="round"/>
<path d="M15.0266 23.5021V24.5223" stroke="#8296FF" stroke-width="0.0325031" stroke-miterlimit="10" stroke-linecap="round" stroke-linejoin="round"/>
<path d="M16.6618 24.2346H14.7185" stroke="#8296FF" stroke-width="0.0325031" stroke-miterlimit="10" stroke-linecap="round" stroke-linejoin="round"/>
<path d="M16.6098 23.981H14.7703" stroke="#8296FF" stroke-width="0.0325031" stroke-miterlimit="10" stroke-linecap="round" stroke-linejoin="round"/>
<path d="M16.5092 23.7273H14.8711" stroke="#8296FF" stroke-width="0.0325031" stroke-miterlimit="10" stroke-linecap="round" stroke-linejoin="round"/>
<path d="M16.3273 23.4736H15.0529" stroke="#8296FF" stroke-width="0.0325031" stroke-miterlimit="10" stroke-linecap="round" stroke-linejoin="round"/>
<path d="M16.3056 27.104H15.0747V24.9575H16.3056V27.104Z" fill="#8296FF"/>
<path d="M16.229 27.104V26.265C16.229 26.2015 16.1775 26.15 16.1141 26.15C16.0942 26.15 16.0757 26.1556 16.0595 26.1644V25.7297C16.0595 25.5107 15.8819 25.333 15.6629 25.333C15.4438 25.333 15.2662 25.5107 15.2662 25.7297V26.15C15.2027 26.15 15.1512 26.2015 15.1512 26.265V27.104H16.229Z" fill="#001CB5"/>
<path d="M15.6171 26.15V25.7297C15.6171 25.5737 15.7073 25.4392 15.8383 25.3745C15.7854 25.3481 15.7259 25.333 15.6629 25.333C15.4438 25.333 15.2662 25.5107 15.2662 25.7297V26.15C15.2027 26.15 15.1512 26.2015 15.1512 26.265V27.104H15.5022V26.265C15.5022 26.2015 15.5536 26.15 15.6171 26.15Z" fill="#94421C"/>
<path d="M16.9726 21.2317H14.4175V20.7277H16.9726V21.2317Z" fill="white"/>
<path d="M18.8443 26.15H17.3411V26.0365H18.8443V26.15Z" fill="#2245FF"/>
<path d="M18.9012 26.2635H17.2843V26.15H18.9012V26.2635Z" fill="#001CB5"/>
<path d="M18.7696 21.8487L18.8388 21.5344H18.744L18.6835 21.8487H18.6142L18.6675 21.5344H18.5726L18.528 21.8487H18.4587L18.4963 21.5344H18.3022L18.2828 21.8487H18.2134L18.2259 21.5344H18.1309L18.1274 21.8487H18.058L18.0545 21.5344H17.9597L17.972 21.8487H17.9026L17.8832 21.5344H17.6892L17.7266 21.8487H17.6574L17.6129 21.5344H17.5179L17.5713 21.8487H17.502L17.4415 21.5344H17.3466L17.4159 21.8487H17.3466C17.3466 21.8487 17.3693 22.1637 17.3693 22.2816H18.8162C18.8162 22.1243 18.8256 21.9732 18.8369 21.8487H18.7696Z" fill="#2245FF"/>
<path d="M18.7232 16.8558C18.7232 16.9237 18.6681 16.9789 18.6001 16.9789H17.5852C17.5173 16.9789 17.4622 16.9237 17.4622 16.8558C17.4622 16.7878 17.5173 16.7325 17.5852 16.7325H18.6001C18.6681 16.7325 18.7232 16.7878 18.7232 16.8558Z" fill="#001CB5"/>
<path d="M18.0926 15.77C18.0926 15.77 17.5852 16.3885 17.5852 16.6503V16.7325H18.6001V16.6503C18.6001 16.3885 18.0926 15.77 18.0926 15.77Z" fill="#3D5CFF"/>
<path d="M18.2005 17.6361V17.1867C18.2005 17.1272 18.1522 17.0789 18.0927 17.0789C18.0332 17.0789 17.985 17.1272 17.985 17.1867V17.6361H18.2005Z" fill="white"/>
<path d="M17.8142 17.6361V17.1867C17.8142 17.1272 17.7836 17.0789 17.7459 17.0789C17.7081 17.0789 17.6775 17.1272 17.6775 17.1867V17.6361H17.8142Z" fill="white"/>
<path d="M18.5079 17.6361V17.1867C18.5079 17.1272 18.4773 17.0789 18.4396 17.0789C18.4018 17.0789 18.3712 17.1272 18.3712 17.1867V17.6361H18.5079Z" fill="white"/>
<path d="M18.6951 19.8363H17.4905V19.43H18.6951V19.8363Z" fill="#3D5CFF"/>
<path d="M18.9641 19.9339C18.9641 19.9877 18.915 20.0314 18.8544 20.0314H17.3311C17.2705 20.0314 17.2214 19.9877 17.2214 19.9339C17.2214 19.88 17.2705 19.8364 17.3311 19.8364H18.8544C18.915 19.8364 18.9641 19.88 18.9641 19.9339Z" fill="#0029FF"/>
<path d="M19.1243 21.4369C19.1243 21.4908 19.066 21.5344 18.9944 21.5344H17.191C17.1192 21.5344 17.0612 21.4908 17.0612 21.4369C17.0612 21.3831 17.1192 21.3394 17.191 21.3394H18.9944C19.066 21.3394 19.1243 21.3831 19.1243 21.4369Z" fill="#0029FF"/>
<path d="M17.5619 20.3456H17.4579L17.3336 20.0314H17.4579L17.5619 20.3456Z" fill="white"/>
<path d="M17.7951 20.3456H17.6911L17.6124 20.0314H17.7367L17.7951 20.3456Z" fill="white"/>
<path d="M18.028 20.3456H17.9241L17.8911 20.0314H18.0154L18.028 20.3456Z" fill="white"/>
<path d="M18.2611 20.3456H18.1572L18.1699 20.0314H18.2942L18.2611 20.3456Z" fill="white"/>
<path d="M18.4943 20.3456H18.3904L18.4487 20.0314H18.573L18.4943 20.3456Z" fill="white"/>
<path d="M18.7272 20.3456H18.6233L18.7272 20.0314H18.8517L18.7272 20.3456Z" fill="white"/>
<path d="M17.4158 21.8486H17.3465L17.2701 21.5344H17.3466L17.4158 21.8486Z" fill="white"/>
<path d="M17.5712 21.8486H17.5019L17.4414 21.5344H17.5178L17.5712 21.8486Z" fill="white"/>
<path d="M17.7267 21.8486H17.6575L17.6129 21.5344H17.6893L17.7267 21.8486Z" fill="white"/>
<path d="M17.972 21.8486H17.9026L17.8832 21.5344H17.9595L17.972 21.8486Z" fill="white"/>
<path d="M18.1274 21.8486H18.058L18.0546 21.5344H18.131L18.1274 21.8486Z" fill="white"/>
<path d="M18.2828 21.8486H18.2134L18.2258 21.5344H18.3022L18.2828 21.8486Z" fill="white"/>
<path d="M18.528 21.8486H18.4587L18.4963 21.5344H18.5726L18.528 21.8486Z" fill="white"/>
<path d="M18.6834 21.8486H18.6141L18.6675 21.5344H18.7439L18.6834 21.8486Z" fill="white"/>
<path d="M18.8389 21.8486H18.7697L18.8389 21.5344H18.9152L18.8389 21.8486Z" fill="white"/>
<path d="M18.7272 20.3455H18.6233L18.7272 20.0313H18.5729L18.4941 20.3455H18.3902L18.4486 20.0313H18.2941L18.261 20.3455H18.1572L18.1698 20.0313H18.0153L18.028 20.3455H17.9241L17.8911 20.0313H17.7366L17.795 20.3455H17.691L17.6123 20.0313H17.4579L17.5619 20.3455H17.4579L17.4478 20.3197V21.3394H18.7374V20.3197L18.7272 20.3455Z" fill="#2245FF"/>
<path d="M18.6951 18.0659C18.6951 18.1014 18.6662 18.1304 18.6306 18.1304H17.555C17.5195 18.1304 17.4905 18.1014 17.4905 18.0659C17.4905 18.0302 17.5195 18.0014 17.555 18.0014H18.6306C18.6662 18.0014 18.6951 18.0302 18.6951 18.0659Z" fill="#2245FF"/>
<path d="M18.6001 18.5751H17.5853L17.3986 18.3071H18.7868L18.6001 18.5751Z" fill="#0029FF"/>
<path d="M17.6854 26.0365H17.4146V22.2814H17.6854V26.0365Z" fill="#8296FF"/>
<path d="M18.2281 26.0365H17.9573V22.2814H18.2281V26.0365Z" fill="#D47C28"/>
<path d="M18.4995 26.0365H18.2285V22.2814H18.4995V26.0365Z" fill="#CB7026"/>
<path d="M18.771 26.0365H18.5V22.2814H18.771V26.0365Z" fill="#BA5E23"/>
<path d="M18.9743 26.3826H17.2112V26.2635H18.9743V26.3826Z" fill="#8296FF"/>
<path d="M19.0112 26.7634H17.1743L17.2649 26.3826H18.9206L19.0112 26.7634Z" fill="#2245FF"/>
<path d="M19.0659 26.877H17.1196V26.7634H19.0659V26.877Z" fill="#E1882A"/>
<path d="M19.1393 26.9905H17.0459V26.877H19.1393V26.9905Z" fill="#CE7C26"/>
<path d="M19.2341 27.104H16.9513V26.9905H19.2341V27.104Z" fill="#8296FF"/>
<path d="M18.6001 18.1304H17.5852V18.3073H18.6001V18.1304Z" fill="#5E77FF"/>
<path d="M17.5852 19.4301H18.6001V18.5752H17.5852V19.4301Z" fill="#2245FF"/>
<path d="M24.7151 21.908H29.6953L29.8687 21.6914H24.7151V21.908Z" fill="#2245FF"/>
<path d="M29.0179 22.5125H29.1753V21.908H29.0179V22.5125Z" fill="#3D5CFF"/>
<path d="M28.5773 22.5125H28.7347V21.908H28.5773V22.5125Z" fill="#3D5CFF"/>
<path d="M28.1368 22.5125H28.2942V21.908H28.1368V22.5125Z" fill="#3D5CFF"/>
<path d="M27.6963 22.5125H27.8536V21.908H27.6963V22.5125Z" fill="#3D5CFF"/>
<path d="M27.2555 22.5125H27.413V21.908H27.2555V22.5125Z" fill="#3D5CFF"/>
<path d="M26.8149 22.5125H26.9723V21.908H26.8149V22.5125Z" fill="#3D5CFF"/>
<path d="M26.3744 22.5125H26.5317V21.908H26.3744V22.5125Z" fill="#3D5CFF"/>
<path d="M25.9338 22.5125H26.0912V21.908H25.9338V22.5125Z" fill="#3D5CFF"/>
<path d="M25.493 22.5125H25.6504V21.908H25.493V22.5125Z" fill="#3D5CFF"/>
<path d="M25.0526 22.5125H25.2099V21.908H25.0526V22.5125Z" fill="#3D5CFF"/>
<path d="M25.0624 22.6971H27.7847V22.5125H25.0624V22.6971Z" fill="#3D5CFF"/>
<path d="M25.141 22.6971H27.7059V22.839H25.141V22.6971Z" fill="#001CB5"/>
<path d="M25.2429 22.839H27.6041V27.104H25.2429V22.839Z" fill="#5E77FF"/>
<path d="M25.6211 27.104H27.226V24.7052H25.6211V27.104Z" fill="#F4B33E"/>
<path d="M26.4237 23.1569C26.4301 23.1564 27.4132 23.2214 27.4132 24.5223H25.4343C25.4343 23.2214 26.4173 23.1564 26.4237 23.1569Z" fill="#001CB5"/>
<path d="M26.4237 23.1569C26.4301 23.1564 27.4132 23.2214 27.4132 24.5223H25.4343C25.4343 23.2214 26.4173 23.1564 26.4237 23.1569Z" stroke="#8296FF" stroke-width="0.0325031" stroke-miterlimit="10" stroke-linecap="round" stroke-linejoin="round"/>
<path d="M25.819 23.4412V24.5223" stroke="#8296FF" stroke-width="0.0325031" stroke-miterlimit="10" stroke-linecap="round" stroke-linejoin="round"/>
<path d="M26.0726 23.2627V24.5223" stroke="#8296FF" stroke-width="0.0325031" stroke-miterlimit="10" stroke-linecap="round" stroke-linejoin="round"/>
<path d="M26.3262 23.1721V24.5223" stroke="#8296FF" stroke-width="0.0325031" stroke-miterlimit="10" stroke-linecap="round" stroke-linejoin="round"/>
<path d="M26.5798 23.1869V24.5223" stroke="#8296FF" stroke-width="0.0325031" stroke-miterlimit="10" stroke-linecap="round" stroke-linejoin="round"/>
<path d="M26.8335 23.2948V24.5223" stroke="#8296FF" stroke-width="0.0325031" stroke-miterlimit="10" stroke-linecap="round" stroke-linejoin="round"/>
<path d="M27.0872 23.5021V24.5223" stroke="#8296FF" stroke-width="0.0325031" stroke-miterlimit="10" stroke-linecap="round" stroke-linejoin="round"/>
<path d="M25.4519 24.2346H27.3952" stroke="#8296FF" stroke-width="0.0325031" stroke-miterlimit="10" stroke-linecap="round" stroke-linejoin="round"/>
<path d="M25.5039 23.981H27.3435" stroke="#8296FF" stroke-width="0.0325031" stroke-miterlimit="10" stroke-linecap="round" stroke-linejoin="round"/>
<path d="M25.6045 23.7273H27.2426" stroke="#8296FF" stroke-width="0.0325031" stroke-miterlimit="10" stroke-linecap="round" stroke-linejoin="round"/>
<path d="M25.7865 23.4736H27.0609" stroke="#8296FF" stroke-width="0.0325031" stroke-miterlimit="10" stroke-linecap="round" stroke-linejoin="round"/>
<path d="M25.8081 27.104H27.039V24.9575H25.8081V27.104Z" fill="#8296FF"/>
<path d="M25.8845 27.104V26.265C25.8845 26.2015 25.936 26.15 25.9995 26.15C26.0193 26.15 26.0378 26.1556 26.0541 26.1644V25.7297C26.0541 25.5107 26.2318 25.333 26.4506 25.333C26.6698 25.333 26.8474 25.5107 26.8474 25.7297V26.15C26.9108 26.15 26.9623 26.2015 26.9623 26.265V27.104H25.8845Z" fill="#001CB5"/>
<path d="M26.4966 26.15V25.7297C26.4966 25.5737 26.4062 25.4392 26.2754 25.3745C26.3284 25.3481 26.3877 25.333 26.4508 25.333C26.6699 25.333 26.8475 25.5107 26.8475 25.7297V26.15C26.9109 26.15 26.9625 26.2015 26.9625 26.265V27.104H26.6114V26.265C26.6114 26.2015 26.5601 26.15 26.4966 26.15Z" fill="#94421C"/>
<path d="M24.78 20.0314H29.1265V20.2751H24.6835L24.78 20.0314Z" fill="#BEC9FF"/>
<path d="M25.141 21.2317H27.6961V20.7277H25.141V21.2317Z" fill="white"/>
<path d="M23.2694 26.15H24.7726V26.0365H23.2694V26.15Z" fill="#2245FF"/>
<path d="M23.2125 26.2635H24.8294V26.15H23.2125V26.2635Z" fill="#001CB5"/>
<path d="M23.344 21.8487L23.2749 21.5344H23.3698L23.4302 21.8487H23.4995L23.4462 21.5344H23.5411L23.5856 21.8487H23.6549L23.6175 21.5344H23.8115L23.8308 21.8487H23.9001L23.8879 21.5344H23.9828L23.9863 21.8487H24.0557L24.0592 21.5344H24.1541L24.1417 21.8487H24.2111L24.2305 21.5344H24.4245L24.3871 21.8487H24.4563L24.5007 21.5344H24.5956L24.5424 21.8487H24.6118L24.6722 21.5344H24.7671L24.6978 21.8487H24.7672C24.7672 21.8487 24.7444 22.1637 24.7444 22.2816H23.2975C23.2975 22.1243 23.288 21.9732 23.2768 21.8487H23.344Z" fill="#2245FF"/>
<path d="M23.3905 16.8558C23.3905 16.9237 23.4457 16.9789 23.5136 16.9789H24.5286C24.5965 16.9789 24.6516 16.9237 24.6516 16.8558C24.6516 16.7878 24.5965 16.7325 24.5286 16.7325H23.5136C23.4457 16.7325 23.3905 16.7878 23.3905 16.8558Z" fill="#001CB5"/>
<path d="M24.021 15.77C24.021 15.77 24.5284 16.3885 24.5284 16.6503V16.7325H23.5135V16.6503C23.5135 16.3885 24.021 15.77 24.021 15.77Z" fill="#3D5CFF"/>
<path d="M23.9132 17.6361V17.1867C23.9132 17.1272 23.9615 17.0789 24.021 17.0789C24.0806 17.0789 24.1287 17.1272 24.1287 17.1867V17.6361H23.9132Z" fill="white"/>
<path d="M24.2997 17.6361V17.1867C24.2997 17.1272 24.3302 17.0789 24.3679 17.0789C24.4058 17.0789 24.4363 17.1272 24.4363 17.1867V17.6361H24.2997Z" fill="white"/>
<path d="M23.6057 17.6361V17.1867C23.6057 17.1272 23.6363 17.0789 23.6741 17.0789C23.7118 17.0789 23.7424 17.1272 23.7424 17.1867V17.6361H23.6057Z" fill="white"/>
<path d="M23.4187 19.8363H24.6233V19.43H23.4187V19.8363Z" fill="#3D5CFF"/>
<path d="M23.1497 19.9339C23.1497 19.9877 23.1988 20.0314 23.2594 20.0314H24.7827C24.8432 20.0314 24.8923 19.9877 24.8923 19.9339C24.8923 19.88 24.8432 19.8364 24.7827 19.8364H23.2594C23.1988 19.8364 23.1497 19.88 23.1497 19.9339Z" fill="#0029FF"/>
<path d="M22.9894 21.4369C22.9894 21.4908 23.0476 21.5344 23.1193 21.5344H24.9227C24.9945 21.5344 25.0526 21.4908 25.0526 21.4369C25.0526 21.3831 24.9945 21.3394 24.9227 21.3394H23.1193C23.0476 21.3394 22.9894 21.3831 22.9894 21.4369Z" fill="#0029FF"/>
<path d="M24.5516 20.3456H24.6557L24.78 20.0314H24.6557L24.5516 20.3456Z" fill="white"/>
<path d="M24.3187 20.3456H24.4226L24.5014 20.0314H24.3769L24.3187 20.3456Z" fill="white"/>
<path d="M24.0856 20.3456H24.1895L24.2225 20.0314H24.0984L24.0856 20.3456Z" fill="white"/>
<path d="M23.8525 20.3456H23.9563L23.9437 20.0314H23.8195L23.8525 20.3456Z" fill="white"/>
<path d="M23.6194 20.3456H23.7233L23.6649 20.0314H23.5406L23.6194 20.3456Z" fill="white"/>
<path d="M23.3865 20.3456H23.4904L23.3865 20.0314H23.2621L23.3865 20.3456Z" fill="white"/>
<path d="M24.6978 21.8486H24.7672L24.8434 21.5344H24.767L24.6978 21.8486Z" fill="white"/>
<path d="M24.5425 21.8486H24.6119L24.6723 21.5344H24.5957L24.5425 21.8486Z" fill="white"/>
<path d="M24.3871 21.8486H24.4564L24.5009 21.5344H24.4245L24.3871 21.8486Z" fill="white"/>
<path d="M24.1416 21.8486H24.211L24.2304 21.5344H24.154L24.1416 21.8486Z" fill="white"/>
<path d="M23.9863 21.8486H24.0557L24.0592 21.5344H23.9828L23.9863 21.8486Z" fill="white"/>
<path d="M23.8309 21.8486H23.9002L23.8879 21.5344H23.8115L23.8309 21.8486Z" fill="white"/>
<path d="M23.5857 21.8486H23.6549L23.6175 21.5344H23.5411L23.5857 21.8486Z" fill="white"/>
<path d="M23.4303 21.8486H23.4995L23.4463 21.5344H23.3699L23.4303 21.8486Z" fill="white"/>
<path d="M23.2749 21.8486H23.344L23.2749 21.5344H23.1985L23.2749 21.8486Z" fill="white"/>
<path d="M23.3865 20.3455H23.4904L23.3865 20.0313H23.5408L23.6195 20.3455H23.7234L23.6651 20.0313H23.8196L23.8527 20.3455H23.9564L23.9439 20.0313H24.0985L24.0857 20.3455H24.1896L24.2226 20.0313H24.377L24.3188 20.3455H24.4227L24.5015 20.0313H24.6559L24.5518 20.3455H24.6559L24.6659 20.3197V21.3394H23.3763V20.3197L23.3865 20.3455Z" fill="#2245FF"/>
<path d="M23.4187 18.0659C23.4187 18.1014 23.4475 18.1304 23.4833 18.1304H24.5588C24.5943 18.1304 24.6233 18.1014 24.6233 18.0659C24.6233 18.0302 24.5943 18.0014 24.5588 18.0014H23.4833C23.4475 18.0014 23.4187 18.0302 23.4187 18.0659Z" fill="#2245FF"/>
<path d="M23.5136 18.5751H24.5284L24.7152 18.3071H23.3269L23.5136 18.5751Z" fill="#0029FF"/>
<path d="M23.1394 26.3826H24.9025V26.2635H23.1394V26.3826Z" fill="#8296FF"/>
<path d="M23.1025 26.7634H24.9393L24.8488 26.3826H23.1931L23.1025 26.7634Z" fill="#3D5CFF"/>
<path d="M23.0479 26.877H24.9941V26.7634H23.0479V26.877Z" fill="#E1882A"/>
<path d="M22.9742 26.9905H25.0678V26.877H22.9742V26.9905Z" fill="#CE7C26"/>
<path d="M22.8796 27.104H25.1625V26.9905H22.8796V27.104Z" fill="#8296FF"/>
<path d="M23.5135 18.1304H24.5284V18.3073H23.5135V18.1304Z" fill="#5E77FF"/>
<path d="M24.5284 19.4301H23.5135V18.5752H24.5284V19.4301Z" fill="#2245FF"/>
<path d="M23.6138 26.0365H23.3428V22.2814H23.6138V26.0365Z" fill="#8296FF"/>
<path d="M24.1565 26.0365H23.8856V22.2814H24.1565V26.0365Z" fill="#D47C28"/>
<path d="M24.4278 26.0365H24.157V22.2814H24.4278V26.0365Z" fill="#CB7026"/>
<path d="M24.6992 26.0365H24.4282V22.2814H24.6992V26.0365Z" fill="#BA5E23"/>
<path d="M24.8923 19.9339H29.1754V20.0314H24.7827C24.8433 20.0314 24.8923 19.9877 24.8923 19.9339Z" fill="white"/>
<path d="M24.6658 20.3199L24.6835 20.2751H29.3703L29.2205 20.5676H24.6658V20.3199Z" fill="#001CB5"/>
<path d="M24.8435 21.5344H24.9227C24.9946 21.5344 25.0526 21.4908 25.0526 21.4369H29.3098C29.36 21.4369 29.4009 21.4768 29.4009 21.5261C29.4009 21.5755 29.36 21.6154 29.3098 21.6154H24.8239L24.8435 21.5344Z" fill="#BEC9FF"/>
<path d="M24.8239 21.6153H29.3116V21.6914H24.8054L24.8239 21.6153Z" fill="#0029FF"/>
<path d="M23.2975 22.2816C23.2975 22.1243 23.2881 21.9732 23.2769 21.8486H23.275L23.2275 21.6535H18.8863L18.8389 21.8486H18.837C18.8257 21.9732 18.8162 22.1243 18.8162 22.2816H18.771V26.0365H18.8444V26.15H18.9012V26.2635H18.9743V26.3826H18.9206L19.0112 26.7635H19.0659V26.877H19.1395V26.9905H19.2341V27.104H19.4397H19.4396C19.4396 26.877 19.3125 26.877 19.3125 26.877V24.7052C19.4345 24.7052 19.4406 24.6135 19.44 24.5053H19.0985V24.2901H19.2501C19.3363 22.3129 21.0569 22.0345 21.0569 22.0345C21.0569 22.0345 22.7774 22.3129 22.8637 24.2901H23.0153V24.5053H22.6739C22.6732 24.6135 22.6793 24.7052 22.8014 24.7052V26.877C22.8014 26.877 22.6744 26.877 22.6744 27.104H22.6742H22.8797V26.9905H22.9743V26.877H23.0479V26.7635H23.1027L23.1932 26.3826H23.1395V26.2635H23.2127V26.15H23.2695V26.0365H23.3428V22.2816H23.2975Z" fill="#001CB5"/>
<path d="M19.2674 21.3394H19.1029V20.3455H19.2674V21.3394Z" fill="#3D5CFF"/>
<path d="M19.8021 21.3394H19.6377V20.3455H19.8021V21.3394Z" fill="#3D5CFF"/>
<path d="M20.3369 21.3394H20.1726V20.3455H20.3369V21.3394Z" fill="#3D5CFF"/>
<path d="M20.8717 21.3394H20.7073V20.3455H20.8717V21.3394Z" fill="#3D5CFF"/>
<path d="M21.4064 21.3394H21.2421V20.3455H21.4064V21.3394Z" fill="#3D5CFF"/>
<path d="M21.9413 21.3394H21.7769V20.3455H21.9413V21.3394Z" fill="#3D5CFF"/>
<path d="M22.4758 21.3394H22.3115V20.3455H22.4758V21.3394Z" fill="#3D5CFF"/>
<path d="M23.0108 21.3394H22.8463V20.3455H23.0108V21.3394Z" fill="#3D5CFF"/>
<path d="M19.0985 24.2901H19.5652C19.5652 24.2901 19.5718 24.4015 19.5058 24.4015C19.5058 24.4015 19.5243 24.5054 19.4502 24.5054H19.0985V24.2901Z" fill="#3D5CFF"/>
<path d="M23.0152 24.2901H22.5485C22.5485 24.2901 22.542 24.4015 22.6079 24.4015C22.6079 24.4015 22.5894 24.5054 22.6636 24.5054H23.0152V24.2901Z" fill="#3D5CFF"/>
<path d="M22.8636 24.29C22.7773 22.3128 21.0568 22.0344 21.0568 22.0344C21.0568 22.0344 19.3362 22.3128 19.25 24.29H19.4436C19.5321 22.53 21.0568 22.2815 21.0568 22.2815C21.0568 22.2815 22.5816 22.53 22.6701 24.29H22.8636Z" fill="#0029FF"/>
<path d="M23.5136 18.1304H23.4833C23.4475 18.1304 23.4187 18.1014 23.4187 18.0659C23.4187 18.0303 23.4475 18.0015 23.4833 18.0015H23.5136V17.7238H18.6001V18.0015H18.6304C18.6661 18.0015 18.695 18.0303 18.695 18.0659C18.695 18.1014 18.6661 18.1304 18.6304 18.1304H18.6001V18.2188H23.5136V18.1304Z" fill="#3D5CFF"/>
<path d="M23.4203 18.4413L23.3312 18.3072H23.5136V18.2188H18.6001V18.3072H18.7868L18.6934 18.4413H23.4203Z" fill="#001CB5"/>
<path d="M18.8543 20.0314H23.2593C23.1988 20.0314 23.1496 19.9877 23.1496 19.9339C23.1496 19.88 23.1988 19.8364 23.2593 19.8364H23.4187V19.43H23.5136V18.5752L23.4203 18.4413H18.6934L18.6001 18.5752V19.43H18.695V19.8364H18.8543C18.9149 19.8364 18.964 19.88 18.964 19.9339C18.964 19.9877 18.9149 20.0314 18.8543 20.0314Z" fill="#5E77FF"/>
<path d="M23.3762 20.3456V20.3198L23.3864 20.3456L23.262 20.0314H23.2594H18.8543H18.8518L18.7273 20.3456L18.7375 20.3198V20.3456H23.3762Z" fill="#0029FF"/>
<path d="M23.1985 21.5344H23.1194C23.0476 21.5344 22.9894 21.4908 22.9894 21.4369C22.9894 21.3831 23.0476 21.3394 23.1194 21.3394H18.9944C19.0661 21.3394 19.1243 21.3831 19.1243 21.4369C19.1243 21.4908 19.0661 21.5344 18.9944 21.5344H18.9152L18.9114 21.5503H23.2023L23.1985 21.5344Z" fill="#3D5CFF"/>
<path d="M23.2022 21.5479H18.9113L18.8862 21.6534H23.2274L23.2022 21.5479Z" fill="#0029FF"/>
<path d="M19.4396 27.104C19.4396 26.877 19.3125 26.877 19.3125 26.877V24.7052C19.4345 24.7052 19.4406 24.6135 19.44 24.5053H19.0985V26.877H19.1226V26.9905H19.2173V27.104H19.4396Z" fill="#3D5CFF"/>
<path d="M22.6739 24.5053C22.6731 24.6135 22.6793 24.7052 22.8014 24.7052V26.877C22.8014 26.877 22.6743 26.877 22.6743 27.104H22.8797V26.9905H22.9743V26.877H23.0153V24.5053H22.6739Z" fill="#3D5CFF"/>
<path d="M19.0985 21.7997V24.29H19.2501C19.3363 22.3128 21.0569 22.0344 21.0569 22.0344C21.0569 22.0344 22.7774 22.3128 22.8637 24.29H23.0153V21.7997H19.0985Z" fill="#3D5CFF"/>
<path d="M22.9267 19.6819H19.1871V18.7535H22.9267V19.6819Z" fill="white"/>
<path d="M19.761 22.1896C19.761 22.2965 19.6742 22.3834 19.5672 22.3834C19.4601 22.3834 19.3733 22.2965 19.3733 22.1896C19.3733 22.0825 19.4601 21.9957 19.5672 21.9957C19.6742 21.9957 19.761 22.0825 19.761 22.1896Z" fill="#0029FF"/>
<path d="M19.661 22.1896C19.661 22.2414 19.6189 22.2833 19.5671 22.2833C19.5152 22.2833 19.4733 22.2414 19.4733 22.1896C19.4733 22.1376 19.5152 22.0957 19.5671 22.0957C19.6189 22.0957 19.661 22.1376 19.661 22.1896Z" fill="#5E77FF"/>
<path d="M22.7405 22.1896C22.7405 22.2965 22.6538 22.3834 22.5467 22.3834C22.4395 22.3834 22.3527 22.2965 22.3527 22.1896C22.3527 22.0825 22.4395 21.9957 22.5467 21.9957C22.6538 21.9957 22.7405 22.0825 22.7405 22.1896Z" fill="#0029FF"/>
<path d="M22.6404 22.1896C22.6404 22.2414 22.5984 22.2833 22.5466 22.2833C22.4947 22.2833 22.4528 22.2414 22.4528 22.1896C22.4528 22.1376 22.4947 22.0957 22.5466 22.0957C22.5984 22.0957 22.6404 22.1376 22.6404 22.1896Z" fill="#5E77FF"/>
<path d="M24.7011 26.0365H23.3456V22.2814H24.7011V26.0365Z" fill="#3D5CFF"/>
<path d="M18.7806 26.0365H17.4152V22.2814H18.7806V26.0365Z" fill="#3D5CFF"/>
<path d="M26.144 15.0284C26.144 15.0284 26.4952 15.0502 26.6178 15.2683C26.6178 15.2683 26.7549 14.9339 26.9657 14.9121C26.9657 14.9121 26.6422 14.893 26.6314 15.1438C26.6314 15.1438 26.3 14.8667 26.144 15.0284Z" fill="#001CB5"/>
<path d="M27.8975 16.2935C27.8975 16.2935 28.4137 16.3256 28.594 16.6462C28.594 16.6462 28.7956 16.1546 29.1056 16.1226C29.1056 16.1226 28.63 16.0945 28.614 16.4632C28.614 16.4632 28.1268 16.0558 27.8975 16.2935Z" fill="#001CB5"/>
<path d="M26.9583 14.269C26.9583 14.269 27.1888 14.3803 27.2114 14.5609C27.2114 14.5609 27.3958 14.3734 27.5438 14.4168C27.5438 14.4168 27.3311 14.3149 27.2548 14.4808C27.2548 14.4808 27.1078 14.203 26.9583 14.269Z" fill="#001CB5"/>
</g>
</g>
<path d="M22.357 32.6145V35.3713H21.8349V33.9345L21.8641 33.1283H21.8557L21.0913 35.3713H20.6193L19.8591 33.1283H19.8508L19.88 33.9345V35.3713H19.3579V32.6145H20.1933L20.6904 34.1182L20.8658 34.7406H20.8741L21.0538 34.1224L21.5466 32.6145H22.357ZM25.3755 32.6145V34.2853C25.3755 34.6613 25.2752 34.9439 25.0747 35.1333C24.8742 35.3198 24.5818 35.4131 24.1976 35.4131C23.8133 35.4131 23.5209 35.3198 23.3204 35.1333C23.1199 34.9439 23.0196 34.6613 23.0196 34.2853V32.6145H23.5961V34.2603C23.5961 34.4914 23.6448 34.6626 23.7423 34.774C23.8425 34.8854 23.9943 34.9411 24.1976 34.9411C24.4008 34.9411 24.5512 34.8854 24.6487 34.774C24.7461 34.6626 24.7949 34.4914 24.7949 34.2603V32.6145H25.3755ZM29.0385 32.6145V35.3713H28.5164V33.9345L28.5456 33.1283H28.5373L27.7729 35.3713H27.3009L26.5407 33.1283H26.5323L26.5616 33.9345V35.3713H26.0394V32.6145H26.8748L27.3719 34.1182L27.5473 34.7406H27.5557L27.7353 34.1224L28.2282 32.6145H29.0385ZM29.7555 35.3713V32.6145H30.9626C31.2968 32.6145 31.5432 32.68 31.702 32.8108C31.8607 32.9417 31.94 33.1269 31.94 33.3664C31.94 33.514 31.8955 33.6449 31.8064 33.759C31.7173 33.8732 31.5864 33.9456 31.4137 33.9762V33.9804C31.6059 34.0083 31.7535 34.0807 31.8565 34.1976C31.9595 34.3146 32.0111 34.4538 32.0111 34.6153C32.0111 34.852 31.9247 35.0372 31.7521 35.1708C31.5822 35.3045 31.333 35.3713 31.0044 35.3713H29.7555ZM30.3152 34.9369H30.9543C31.1102 34.9369 31.2258 34.9049 31.301 34.8409C31.3761 34.7768 31.4137 34.6877 31.4137 34.5735C31.4137 34.4566 31.3761 34.3675 31.301 34.3062C31.2258 34.2449 31.1102 34.2143 30.9543 34.2143H30.3152V34.9369ZM30.3152 33.7716H30.8874C31.191 33.7716 31.3427 33.6532 31.3427 33.4165C31.3427 33.1798 31.191 33.0615 30.8874 33.0615H30.3152V33.7716ZM34.9308 35.3713H34.3335L34.1038 34.6988H33.047L32.8173 35.3713H32.2283L33.235 32.6145H33.9242L34.9308 35.3713ZM33.1765 34.2728H33.9743L33.5733 33.0698L33.1765 34.2728ZM35.9162 32.6145V35.3713H35.3397V32.6145H35.9162Z" fill="black"/>
<defs>
<clipPath id="clip0_107_491">
<rect width="24.1642" height="24.0728" fill="white" transform="translate(11.6733 8.30017)"/>
</clipPath>
</defs>
</svg>
