<svg width="48" height="48" viewBox="0 0 48 48" fill="none" xmlns="http://www.w3.org/2000/svg">
<g clip-path="url(#clip0_141_78)">
<path d="M48 24.0938C47.875 37.6233 37.1094 48.1328 23.5156 48C10.3672 47.8711 -0.101562 36.9123 3.35858e-07 23.4413C0.101563 10.4197 11.1523 -0.140648 24.5117 2.50293e-07C37.5 0.117207 48.1211 11.0252 48 24.0938Z" fill="#7E7E7E"/>
<path d="M25.2813 18.3389C25.8438 16.8426 25.9648 15.2564 26.8086 14.6274C27.9062 13.8069 29.5781 13.7561 31.2539 13.3108L31.8789 10.3142C27.0039 8.77487 22.8633 10.8338 21.5508 15.3189C20.7695 17.9834 20.7695 17.9834 18.0078 18.5577C17.8789 19.6126 17.7461 20.6909 17.5938 21.902H20.9141L16.5391 30.712L19.6641 30.8839L16.7969 36.5958L26.1719 27.6881L26.0352 27.3482H22.582C24.6094 25.3948 26.2422 23.6718 28.0078 22.113C29.1797 21.0894 29.4336 19.8665 29.5039 18.3506L25.2813 18.3389Z" fill="white"/>
</g>
<defs>
<clipPath id="clip0_141_78">
<rect width="48" height="48" fill="white"/>
</clipPath>
</defs>
</svg>
