<svg width="250" height="250" viewBox="0 0 250 250" fill="none" xmlns="http://www.w3.org/2000/svg">
<g clip-path="url(#clip0_524_782)">
<path fill-rule="evenodd" clip-rule="evenodd" d="M16.6296 863.902C11.5713 863.412 -24.0288 864.73 -14.5014 854.331C-17.4423 847.935 -9.22616 842.539 -4.16336 837.673C0.573639 833.146 5.24195 828.115 10.1061 822.296C14.6358 816.9 19.7421 810.522 23.0433 803.079C23.7741 801.912 24.5163 801.095 25.2513 800.649L25.6752 800.392L25.9392 799.971C28.7253 795.517 31.0257 790.914 33.5574 786.376C27.3657 784.135 21.7401 781.884 14.727 778.774C24.6228 720.394 39.4539 663.516 49.0434 604.963C54.8802 554.011 58.0137 502.58 71.3703 452.399L73.0791 452.531L74.0313 449.243C72.6285 449.206 69.7866 449.111 68.3796 449.056L68.709 450.739C62.3418 450 56.1024 448.183 49.9125 446.641C46.7535 446.208 43.5864 443.944 44.7231 440.173C45.0888 434.7 46.2189 429.361 46.7508 423.891C44.7363 422.513 42.6583 420.94 40.6678 419.328C35.404 421.815 29.0418 429.844 23.286 427.801C9.83494 409.714 -1.45376 387.971 -11.6694 370.601C-36.3429 330.431 5.49995 293 10.5 255.5C16.3765 211.427 27.0069 172.575 71.1123 163.769C76.0641 162.843 81.2529 162.804 86.0118 160.543C86.256 157.303 87.8724 155.441 89.0556 155.414C91.9296 154.782 95.0854 153.765 97.8919 153.739C98.8813 153.325 100.089 153.666 101.039 153.853C103.868 148.165 103.615 140.904 106.715 135.572C106.827 131.532 108.056 127.069 120.484 126.256C128.944 125.549 140.926 124.867 147.688 128.571C152.42 132.387 152.468 140.936 151.875 146.96C151.223 151.384 151.515 156.53 154.973 161.726C164.83 158.677 171.703 165.121 177.873 177.142C203.702 180.664 209.272 182.665 219.293 208.297C224.072 219.412 229.049 231.287 232.774 243.455C237.763 258.331 238.202 273.902 243.052 288.883C256.226 321.9 269.622 343.208 273.841 381.646C275.9 398.617 274.717 407.033 272.76 409.582C267.192 407.97 260.01 406.734 254.163 406.047L260.42 410.815C255.118 434.898 270.388 503.576 228.986 498.3C228.619 497.404 229.294 492.473 229.472 490.428C228.34 490.507 226.246 490.582 225.132 490.441C223.157 496.149 220.193 501.277 218.322 507.083C217.397 510.62 216.227 514.181 215.084 517.621C189.011 605.592 183.848 690.281 195.483 778.598L194.957 778.789L194.744 779.169L194.424 779.289C193.603 780.387 192.439 780.435 190.583 780.438C179.178 780.839 169.158 781.355 159.865 781.614C160.851 786.558 160.22 791.762 159.785 796.791C165.194 796.41 170.156 798.609 175.099 801.25C184.545 805.895 193.952 810.775 203.098 816.109C212.178 821.931 226.863 826.908 219.572 837.371L221.68 838.2C221.751 838.228 221.796 838.253 221.823 838.269C222.072 839.158 219.217 842.836 218.371 842.797C198.403 843.73 181.373 839.059 155.831 834.165C149.983 832.04 120.53 828.425 120.406 822.846C120.5 821.106 122.294 821.225 123.545 821.007C119.793 802.023 132.478 800.491 134.294 783.265C131.782 783.744 129.067 784.155 126.495 783.448C124.238 746.688 127.864 709.058 123.854 671.938L119.777 671.486C106.074 711.878 91.8651 753.205 80.9526 795.161C80.7447 796.072 79.725 795.449 79.2588 795.116C72.1263 794.947 64.9917 794.184 57.9978 792.98C57.8298 797.107 57.6531 801.31 57.4797 805.433L58.5576 806.012C59.2527 806.982 58.9602 811.52 58.8342 813.473C58.7073 815.47 58.6023 816.915 58.7787 818.269C61.0281 822.712 53.3367 832.34 49.2687 837.694C40.4055 849.186 33.0636 866.206 16.6296 863.902Z" fill="white"/>
<path fill-rule="evenodd" clip-rule="evenodd" d="M104.62 136.032C107.035 134.395 103.597 148.603 103.591 149.971L103.53 150.268C102.928 153.162 101.869 156.529 99.4299 158.386C100.555 167.596 101.955 176.778 103.678 185.893L104.691 186.026C119.728 188.02 134.862 190.762 150.151 189.333C158.387 189.398 163.84 183.758 167.161 176.763C166.936 175.938 166.711 175.117 166.48 174.292C156.02 167.881 148.099 154.873 152.812 142.594C153.013 142.069 153.637 142.033 153.958 142.306C154.01 142.31 154.057 142.353 154.054 142.411L153.899 144.806C153.57 150.034 153.423 155.452 156.253 160.159C167.634 157.562 174.711 167.057 179.47 176.044L182.888 176.55C195.967 178.494 208.58 180.795 215.038 194.202L215.923 196.085C224.947 215.351 233.356 235.161 238.279 255.907C240.757 266.944 241.654 278.317 245.289 289.081C252.838 309.069 263.474 327.853 269.242 348.547C272.821 356.013 282.892 412.217 272.956 412.645C269.383 411.574 265.744 410.707 262.066 410.091C262.633 410.524 262.84 411.259 262.732 412.009C261.448 421.018 261.352 430.144 261.358 439.228C262.036 461.229 261.428 508.562 228.316 500.965C225.898 500.074 227.468 496.195 227.371 493.486C227.182 493.495 226.99 493.491 226.798 493.479C224.897 498.612 222.232 503.35 220.561 508.566C219.145 513.049 218.155 517.87 216.181 522.162C195.274 596.561 186.644 674.812 194.818 751.815C195.277 756.426 195.793 761.032 196.369 765.628C196.297 768.501 199.7 780.533 196.645 781.341C196.526 781.574 196.114 781.84 195.868 781.924C194.013 783.927 190.928 783.184 188.479 783.45C179.824 783.836 171.17 784.192 162.511 784.479C163.03 788.156 162.611 791.887 162.304 795.559C168.619 795.61 174.422 799.457 180.007 802.069C188.302 806.163 196.462 810.54 204.466 815.181C211.857 820.357 228.369 825.355 222.688 837.09C226.924 838.81 221.037 846.005 217.819 846.086C196.868 845.98 176.051 841.224 155.578 837.049C143.945 833.973 131.251 832.804 120.49 827.499C117.435 826.117 118.075 820.605 121.435 820.093C118.94 801.714 129.069 801.968 131.917 786.661C130.259 786.932 128.428 786.779 126.766 786.441C122.917 790.004 124.331 761.964 123.808 759.225C123.704 730.473 125.066 701.66 122.005 673.006L116.803 688.332C104.676 724.102 92.7305 759.965 83.2236 796.534C82.6539 798.741 80.3379 799.006 78.8589 798.043C72.6159 797.86 66.3969 797.272 60.2379 796.275C60.1179 799.2 59.9949 802.125 59.8719 805.05C62.5284 806.483 60.7296 815.509 61.0689 818.562C63.9447 825.191 52.2891 837.951 48.4572 843.421C41.6232 852.973 34.8404 866.339 21.6253 866.784L21.2229 866.794C11.3598 867.034 1.40726 866.457 -8.36014 865.048L-9.4144 864.876C-12.2347 864.408 -15.392 863.746 -17.0211 861.225C-18.3951 859.101 -18.2271 856.36 -16.5591 854.737C-18.7617 846.737 -10.188 841.893 -5.39914 837.022C3.54686 828.384 11.6778 818.883 18.7089 808.624L19.1127 807.666C20.4161 804.589 21.9733 801.172 24.3999 799.699C26.7132 796.021 28.6899 792.151 30.7809 788.349C25.0749 786.252 19.4559 783.91 13.8999 781.444C12.794 780.951 12.4425 779.512 12.6355 778.441L12.6495 778.369C23.4966 721.987 36.5013 666.007 46.6164 609.496C53.0766 557.415 55.725 504.671 69.3069 453.736C62.718 453.05 56.1597 451.155 49.6935 449.535C44.5092 448.431 41.8875 445.795 42.9099 440.299C43.2615 435.414 44.2389 430.608 44.7669 425.743C43.3866 424.776 42.0399 423.76 40.7289 422.715C38.2986 424.531 35.7909 426.24 33.2139 427.836C27.0438 432.284 22.281 432.977 18.4689 425.686C7.42916 408.228 -3.21754 390.515 -13.2654 372.466C-22.5852 355.151 11.8658 356.436 9.5 336.5C6.0632 300.623 3.5 238 24.5 196C37.3184 178.511 48.9483 166.99 67.3482 162.907C73.0077 162.067 78.9744 161.953 84.3699 159.898C84.8082 157.272 86.04 154.855 88.8219 154.212C91.7487 153.564 94.8861 152.563 97.8339 152.49C98.5005 152.302 99.2868 152.183 99.9909 152.313C102.008 147.068 102.305 141.159 104.62 136.032ZM-8.09909 858.883C-7.59509 859.132 -7.07309 859.348 -6.53909 859.539C-5.88209 859.629 -5.22809 859.713 -4.57409 859.788C-5.75909 859.522 -6.93509 859.222 -8.09909 858.883ZM57.3727 807.895C47.7085 811.407 45.0517 794.919 26.0437 801.591C18.6151 815.399 8.998 827.939 -1.9946 839.088C-5.9018 843.951 -17.4665 849.472 -11.2343 856.602L-10.2798 856.777C0.543088 858.748 11.5289 860.314 22.5577 859.422C30.8917 857.121 37.1416 850.434 42.193 843.691C45.8473 837.206 50.1223 831.103 54.4864 825.085C56.8858 822.093 57.1291 818.284 57.1177 814.602C57.1984 812.364 57.2827 810.129 57.3727 807.895ZM165.94 799.8C161.836 798.294 157.627 799.711 153.895 801.559C147.519 804.415 133.709 807.838 127.81 803.284C124.917 808.073 123.947 813.398 124.741 818.922L124.75 819.264C124.817 821.495 125.129 823.292 127.836 823.45L135.525 825.386C161.464 831.905 187.658 838.208 214.357 840.022C221.483 835.567 221.683 829.711 214.108 825.633L212.17 824.444C197.3 815.336 182.081 806.384 165.94 799.8ZM222.37 837.685C222.298 837.808 222.229 837.931 222.157 838.05C222.268 838.104 222.37 838.183 222.466 838.266C222.466 838.065 222.436 837.868 222.37 837.685ZM32.2209 788.872C32.3199 790.897 31.3269 793.183 30.6279 795C30.2169 796.074 29.7939 797.608 29.1399 798.837C45.3926 794.037 50.3361 808.102 56.1957 805.178L56.3736 805.084V805.081C55.1778 802.345 56.4819 798.494 57.2859 795.765C48.7521 794.22 40.3731 791.816 32.2209 788.872ZM160.636 784.543L155.951 784.687C148.662 784.909 141.373 785.102 134.08 785.091C134.843 790.339 133.35 798.996 129.958 803.074C129.952 803.076 129.946 803.076 129.943 803.079C139.543 804.535 148.635 800.132 157.186 796.428C157.546 792.407 159.123 788.303 160.636 784.543ZM129.286 800.529L128.41 802.168V802.168C128.536 802.309 128.68 802.437 128.833 802.549C128.744 801.867 128.986 801.193 129.286 800.529ZM31.1734 788.497C31.0114 789.201 30.8227 789.907 30.6217 790.612C30.9277 789.919 31.2757 789.256 31.6984 788.686L31.1734 788.497V788.497ZM133.576 785.095L133.063 785.1V785.1L133.06 785.395V785.395C133.18 785.596 133.201 785.841 133.051 786.039C133.033 786.946 132.994 787.854 132.925 788.763L133.096 787.714C133.24 786.84 133.393 785.967 133.576 785.095ZM127.057 784.795L127.084 785.25V785.25C127.741 785.226 128.404 785.253 129.058 785.221C129.403 785.202 129.757 785.143 130.114 785.079C129.085 785.047 128.059 784.965 127.057 784.795ZM243.814 408.802C243.49 409.183 243.136 409.414 242.776 409.531C242.779 418.192 241.033 426.709 236.248 434.209C234.258 436.852 233.133 439.86 232.171 442.996C227.111 457.346 226.171 472.761 228.016 487.789C232.988 480.485 234.964 471.77 236.353 463.177C236.428 462.745 237.142 462.751 237.22 463.177C238.9 472.375 236.012 481.409 232.558 489.91C230.401 491.454 230.915 495.498 230.656 497.878C267.313 503.227 254.565 432.755 259.261 411.052C259.348 410.455 259.855 410.02 260.431 409.837C254.933 408.997 249.361 408.935 243.814 408.802ZM71.1879 452.095C71.2329 452.325 71.2719 452.557 71.3019 452.787L71.4999 452.107V452.107C71.3979 452.103 71.2929 452.1 71.1879 452.095ZM95.9615 154.012L95.3198 154.18C88.5467 155.929 86.3547 155.689 85.9715 163.878C84.3065 174.992 78.1601 184.686 75.3971 195.433C74.2919 199.228 75.461 206.222 80.7008 205.195C82.3985 204.673 83.7218 206.964 82.4378 208.18C78.6428 211.774 74.9588 215.478 71.2538 219.16C86.1314 269.44 105.458 318.414 129.001 365.269C129.934 367.128 127.135 368.763 126.208 366.903C102.803 319.899 83.3379 270.941 68.2299 220.648L67.7735 219.123C67.1063 217.271 75.6377 210.636 77.1908 208.471C61.6127 200.955 83.3618 174.634 83.9528 161.959C79.4942 163.921 74.4398 163.217 69.7298 164.007C60.6941 165.594 52.763 170.821 45.7136 176.462C17.0789 201.78 22.7801 236.831 4.47526 269.869C-7.99064 291.424 -14.0002 317.776 -1.49054 340.705C13.0247 370.104 29.8625 398.441 47.6648 425.95C49.6196 428.496 52.628 425.569 54.6878 424.5C66.5279 417.376 52.7948 407.684 60.6908 396.351C41.5484 372.833 48.8738 347.131 37.0814 319.128L36.9187 318.804C34.2729 313.479 32.1809 307.037 36.5945 302.022C52.2674 281.922 42.2063 260.584 55.3235 238.747C55.4588 238.527 55.7615 238.72 55.6628 238.948C54.3158 242.001 52.8968 245.032 51.4178 248.035C54.4052 292.434 53.9006 337.702 55.1918 382.384C58.6748 387 62.2598 391.539 65.9288 396.007C77.8307 387.794 91.8314 382.438 106.21 380.778L107.139 380.685C113.247 380.056 123.335 378.87 124.135 386.809C123.145 396.576 102.986 391.085 96.5408 396.624C107.106 400.888 119.213 402.089 128.913 408.517C132.025 410.334 138.125 416.126 132.166 418.342C129.566 418.564 126.88 417.553 124.282 417.331C127.206 418.317 129.895 419.988 131.608 422.608C132.841 424.404 133.741 428.134 130.795 428.902C124.079 429.092 117.39 426.899 110.776 425.809L111.363 426.048C116.186 428.024 123.681 431.575 117.186 436.81C110.685 440.18 102.813 434.447 96.3368 432.917C78.8927 428.853 65.9882 439.991 48.1058 427.933C47.5985 431.963 46.8362 435.964 46.5314 440.016L46.492 440.246C45.8721 443.945 46.4029 445.28 50.3861 445.987C55.1885 447.439 60.2183 447.894 65.2088 448.164C89.225 449.435 113.401 448.533 137.254 445.453C140.686 444.531 148.749 445.4 150.184 441.619C147.495 344.279 106.987 252.685 95.8328 156.61C95.6498 155.686 95.6378 154.744 95.9615 154.012ZM163.669 162.331C161.753 162.409 159.97 162.825 158.065 163.018C159.12 165.265 164.689 168.445 164.182 169.561C164.584 169.873 164.992 170.173 165.406 170.463C164.83 168.436 164.248 166.411 163.665 164.382C184.827 216.02 187.735 277.116 190.546 333.448C191.473 361.851 191.976 390.343 190.606 418.728C189.844 426.268 187.828 433.887 188.377 441.501C200.797 443.293 213.397 443.446 225.868 442.12C226.237 441.15 226.654 440.197 227.127 439.26C245.795 416.46 235.895 387.887 226.906 363.189C221.47 363.42 216.003 363.075 210.562 363.142C212.243 368.354 212.676 373.868 213.571 379.258C214.18 383.098 214.957 386.909 215.851 390.691L216.122 391.826C216.454 393.185 216.859 394.641 216.385 395.983C215.905 397.348 214.249 397.899 213.151 396.837C211.171 394.577 211.384 391.208 210.745 388.405L210.627 387.523C209.537 379.474 208.102 371.124 210.094 363.138C208.139 362.718 202.795 364.262 202.515 361.629C202.598 357.282 199.449 347.862 202.954 344.998C205.039 343.405 208.624 343.909 211.069 343.81C213.895 343.696 216.718 343.59 219.541 343.609C196.854 288.684 203.163 271.776 205.465 217.114L205.534 215.446C205.528 215.086 206.107 214.996 206.17 215.359C209.639 237.749 205.015 260.418 207.205 282.879C211.096 325.556 238.089 362.196 242.602 404.668C252.334 403.536 262.181 404.924 271.615 407.371C271.813 405.646 271.966 403.914 272.074 402.184C273.865 370.482 262.761 339.695 249.806 311.262C242.042 296.17 237.243 280.063 235.234 263.221C231.334 241.284 222.582 220.62 213.858 200.243C208.343 185.006 196.422 181.413 181.639 179.644C186.625 187.924 191.581 196.222 196.528 204.526C197.632 207.037 194.248 208.83 192.772 210.375C210.933 220.297 200.329 250.937 200.704 268.105C199.356 283.88 198.847 299.746 196.471 315.412C196.297 316.498 194.635 316.18 194.62 315.162C194.839 291.689 197.633 268.311 198.859 244.875L199.008 243.167C199.964 232.071 200.9 216.064 187.582 213.019C185.785 212.724 185.647 210.049 187.09 209.245C189.01 208.174 190.693 206.865 192.199 205.309C187.111 196.756 182.032 188.197 176.998 179.607L176.762 179.208C173.186 173.131 169.865 166.059 163.669 162.331ZM120.454 386.214C118.985 381.879 104.727 384.702 100.921 385.174C86.8866 387.828 72.7629 394.05 62.0736 403.633C61.4139 404.224 60.6339 404.214 60.0189 403.894C55.2312 410.021 49.7025 415.574 43.6389 420.453C44.7486 421.329 45.8889 422.178 47.0616 422.991C47.6229 423.051 48.1299 423.343 48.3579 423.864C65.0412 435.975 77.3142 426.528 94.6449 428.71C101.116 430.017 107.074 434.14 113.743 434.314C118.636 433.199 114.327 431.15 112.042 430.357C106.867 427.882 101.591 425.625 96.3039 423.4L92.0736 421.624C89.9949 420.75 90.7089 417.603 93.0309 418.152C97.0959 419.112 101.173 420.024 105.253 420.922C113.099 422.525 121.132 424.582 129.061 425.362C127.298 420.454 108.598 415.154 103.162 413.203C101.108 412.231 95.2515 412.416 95.9202 409.227C96.4602 406.26 102.692 409.658 104.77 409.899C113.251 412.055 121.909 413.361 130.552 414.675C121.269 405.345 106.879 404.54 95.0229 400.17L94.6972 400.096C92.5887 399.604 89.7008 398.677 91.4145 396.277C97.5051 387.281 121.474 391.832 120.454 386.214ZM102.913 336.118C107.237 332.563 109.553 339.864 109.279 343.258C109.483 346.075 109.702 348.892 109.885 351.709C109.616 353.911 111.959 361.942 108.826 362.014C95.1268 361.317 81.4507 361.493 67.7467 360.667C67.729 363.436 67.594 366.201 67.735 368.974C67.6606 372.44 68.8627 375.903 68.1607 379.33C67.732 380.905 65.593 381.118 64.7581 379.774C62.2549 373.874 63.976 366.264 65.7487 360.298C59.0386 359.055 58.1128 352.736 59.881 347.098L59.8626 346.792C59.764 345.053 59.7718 343.187 60.5467 341.782C62.6194 339.337 66.9172 340.925 69.772 340.741C78.5224 339.837 87.4339 339.587 96.082 337.977C98.3206 337.397 100.604 336.227 102.913 336.118ZM48.5169 253.747C41.7045 266.774 33.8664 279.17 25.5219 291.24C23.7339 293.818 21.8979 296.362 20.0325 298.887L19.8025 299.183C16.0401 303.992 12.0513 307.942 15.6102 314.301C24.8394 336.758 37.1967 357.847 51.5139 377.419C50.6073 336.194 49.8063 294.958 48.5169 253.747ZM219.793 344.269C202.676 347.862 202.356 341.133 205.213 360.177C212.078 360.225 218.939 360.07 225.805 360.181C223.843 354.862 221.809 349.567 219.793 344.269ZM104.899 338.889C95.9592 342.001 86.4675 341.557 77.1309 341.94C77.1498 343.951 67.5975 342.085 65.7639 342.361L65.1264 342.306C63.6001 342.179 61.6376 342.13 61.6206 344.02C62.1069 347.277 60.2769 350.845 61.4106 354.046C62.9409 358.357 69.4866 357.913 73.0986 357.997C79.0539 358.132 85.0086 358.275 90.9639 358.432C96.3129 358.573 101.68 358.839 107.032 358.878C106.552 355.063 106.42 351.15 106.129 347.338C105.763 344.596 106.291 341.346 104.899 338.889ZM142.489 352.752C142.498 352.8 142.507 352.849 142.519 352.899C142.589 352.881 142.66 352.865 142.733 352.849L142.843 352.827V352.824C142.726 352.803 142.606 352.78 142.489 352.752ZM168.415 181.393C164.549 188.031 158.14 192.295 150.421 192.358C136.872 193.139 123.145 192.241 109.942 189.027C108.001 188.542 105.682 188.119 103.897 187.057C114.09 242.384 130.568 296.28 142.189 351.288C150.604 352.031 158.994 351.953 167.428 351.556C173.937 351.457 180.511 352.158 186.976 351.189L186.774 344.36C185.143 289.693 182.872 234.367 168.415 181.393Z" fill="black"/>
<path fill-rule="evenodd" clip-rule="evenodd" d="M186.77 81.0159C185.633 62.3553 179.578 41.199 161.757 32.037C122.469 16.2696 70.8139 55.9764 68.0791 96.54C67.1257 110.425 74.8351 125.598 88.9234 129.458C92.0557 133.608 96.7927 136.142 101.468 138.342C157.156 167.234 193.128 143.748 186.77 81.0159V81.0159Z" fill="white"/>
<path fill-rule="evenodd" clip-rule="evenodd" d="M199.457 69.4079C197.489 63.9419 195.41 58.5179 193.223 53.1359C191.093 47.8979 189.169 42.5467 186.524 37.5569C170.726 7.75494 141.998 7.75494 127.148 11.6489C119.447 8.33094 111.641 19.8059 103.622 22.8C90.6402 27.647 90.7803 60.8411 85.3698 69.4079C73.4241 88.3226 65.9691 113.498 73.9041 135.355C74.9412 138.211 80.3811 116.191 81.8703 118.741C80.9322 120.012 79.8525 121.216 78.6564 122.4C75.102 125.916 71.5476 129.317 68.4771 133.283C65.4258 137.225 62.8962 141.417 61.0131 146.038C57.4623 154.754 58.2056 160.134 62.9 168.45C70.2645 178.811 75.3501 184.05 78.5001 187.5C78.8146 187.523 86.6001 190.8 89.6001 195.45C89.9211 195.708 82.4028 198.363 82.7268 198.618C86.5578 201.633 90.5778 204.675 94.9758 206.82C97.9548 208.275 101.861 209.49 104.969 208.44C106.379 209.382 108.692 209.184 110.09 208.413C112.388 207.147 114.257 204.867 115.394 202.533C118.151 196.866 117.488 190.665 116.78 184.611C116 177.924 115.25 171.234 114.488 164.547C113.891 159.318 113.267 154.002 111.677 148.965C110.855 146.355 109.778 143.847 108.386 141.489C108.422 141.291 108.416 141.093 108.359 140.907C107.903 139.425 106.961 138.648 105.845 137.64C105.701 137.511 105.557 137.379 105.416 137.244C104.858 136.608 104.261 136.017 103.622 135.516C103.376 135.267 103.133 135.015 102.89 134.763C100.871 132.648 98.9628 130.425 97.2678 128.043C95.6238 125.733 94.1388 123.321 92.7258 120.864C91.2888 118.365 90.3378 115.608 88.9038 113.127C88.7808 112.914 88.4688 112.872 88.2948 113.049C87.8508 113.508 87.5658 114.018 87.6198 114.555L87.3978 114.588C87.3138 113.778 86.5668 113.118 85.5528 113.295C84.0348 113.559 82.7868 113.658 81.4728 113.154C81.7038 111.621 81.9168 110.085 82.1268 108.546C82.5108 105.714 82.8678 102.873 83.1738 100.032C83.9148 100.209 84.6498 100.464 85.3698 100.788C86.3958 101.247 87.3648 101.865 88.1928 102.624C89.0088 103.374 89.5728 104.385 90.5688 104.907C91.7148 105.504 93.0978 104.517 92.7618 103.221C92.0808 100.602 88.2258 99.1019 85.8408 98.6069C85.0218 98.4359 84.1848 98.3639 83.3478 98.3819C83.5368 96.5579 83.7048 94.7339 83.8428 92.9069C83.9088 92.0429 83.9688 91.1789 84.0258 90.3119C85.8798 89.7509 87.8658 89.5829 89.7948 89.8469C90.4308 90.3539 91.0668 90.8549 91.6818 91.3619C93.6348 92.9759 95.5788 94.5989 97.4988 96.2519C97.6728 96.3989 97.8438 96.5459 98.0178 96.6959C99.1578 97.6769 100.58 96.7049 100.388 95.3159C98.8218 83.9339 95.4588 44.5709 103.622 37.5569C112.658 29.7899 116.402 36.2535 127.148 22.7999C132.097 23.8072 167.267 27.9839 171.827 35.2499C178.211 45.4319 176.276 76.3109 176.762 87.8609C177.248 99.4199 178.484 111.477 175.859 122.874C173.438 133.383 166.883 142.362 156.713 146.49C156.461 146.592 156.206 146.691 155.951 146.787C150.692 148.77 144.953 149.331 139.421 148.287C133.298 147.129 128.186 144.327 123.092 140.88C122.798 140.685 122.369 141.087 122.591 141.381C140.15 147.6 142.739 148.839 153.2 146.49C156.959 140.508 152.954 146.787 154.412 150.54C152.072 157.269 152.543 164.655 155.591 171.207C157.424 175.149 160.22 178.56 163.625 181.251C167.378 184.215 172.034 186.609 174.638 190.77C177.023 194.583 176.315 198.867 172.232 201.069C171.203 201.627 170.807 203.43 171.827 204.222C172.217 204.522 172.607 204.828 173.006 205.128C175.292 206.853 181.571 210.093 182.588 210.213C191.618 211.284 197.69 204.654 201.581 196.833C206.15 187.653 204.962 176.466 199.928 167.724C195.89 160.71 187.937 153.798 191.099 144.921C192.227 141.75 194.534 139.047 196.775 136.605C199.331 133.824 202.079 131.22 204.53 128.34C206.966 125.481 209.126 122.37 210.332 118.782C212.093 113.538 211.217 107.868 209.894 102.633C207.059 91.3949 203.378 80.3069 199.457 69.4079Z" fill="black"/>
<path fill-rule="evenodd" clip-rule="evenodd" d="M187.082 147.588C183.659 131.52 193.163 115.245 191.198 98.9487C190.247 91.0557 189.488 83.142 188.609 75.243C187.787 67.8837 186.83 60.5007 184.91 53.3367C183.125 46.6797 180.515 40.0887 176.669 34.341C173.063 28.9527 168.53 24.3357 163.325 20.4807C153.041 12.8637 139.889 8.8107 127.097 10.1547C125.165 10.3587 123.251 10.6857 121.358 11.1237C121.961 10.9467 122.57 10.7814 123.185 10.6377C123.383 10.59 123.295 10.3233 123.101 10.341C71.0585 15.0693 58.8167 105.576 57.7037 123.825C57.6167 125.244 57.548 126.66 57.497 128.079C57.1067 131.244 56.8157 134.418 56.6777 137.601C56.522 141.273 56.597 144.969 56.9357 148.629C57.2837 152.381 57.6797 156.228 59.246 159.678C60.2057 161.802 104.966 158.892 105.428 156.384C106.364 151.32 106.844 146.094 106.55 140.943C106.55 139.2 107.828 149.268 107.3 146.85C107.156 146.19 110.45 137.55 109.145 130.725C109.145 130.725 105.719 115.431 110.342 107.982C119.963 92.4717 125.993 77.2497 133.856 60.7314C137.798 52.4547 153.683 43.665 155.543 34.5957L155.843 34.6557C155.807 34.7637 155.831 34.8987 155.939 34.9737C164.486 40.8807 170.198 49.8327 173.9 59.418C178.211 70.5777 180.302 82.6287 180.002 94.5867C179.525 113.589 172.322 137.073 151.943 143.079C147.293 144.45 142.271 144.837 137.507 143.835C135.26 143.361 133.058 142.631 131.03 141.552C128.78 140.355 126.932 138.66 124.823 137.265C122.894 135.99 120.617 138.477 121.727 140.364C124.178 144.534 129.452 147.084 133.982 148.338C138.815 149.679 143.912 149.742 148.835 148.89C149.21 148.827 149.582 148.755 149.951 148.677C150.035 149.913 150.566 151.143 151.43 152.142C151.817 152.592 152.294 152.981 152.828 153.309C152.897 154.515 153.674 155.727 154.937 155.991C161.684 157.395 180.344 155.316 187.082 153.309C188.891 152.769 187.466 149.394 187.082 147.588Z" fill="black"/>
</g>
<defs>
<clipPath id="clip0_524_782">
<rect width="250" height="250" fill="white"/>
</clipPath>
</defs>
</svg>
