<svg width="250" height="250" viewBox="0 0 250 250" fill="none" xmlns="http://www.w3.org/2000/svg">
<g clip-path="url(#clip0_529_792)">
<path fill-rule="evenodd" clip-rule="evenodd" d="M72.0905 188.301C89.4019 184.488 99.6695 184.488 105.479 178.581C111.289 172.674 112.343 162.535 114.753 154.707C116.081 150.393 129.092 146.475 141.712 147.089C151.997 147.588 162.362 151.931 163.163 154.707C164.946 160.888 167.814 187.349 177.243 191.414C186.672 195.48 206.803 191.773 212.559 201.482C218.315 211.19 237.216 250.765 237.216 259.987C237.216 269.208 52.4199 266.389 52.4199 266.389C52.4199 266.389 54.779 192.114 72.0905 188.301Z" fill="white"/>
<path fill-rule="evenodd" clip-rule="evenodd" d="M-3.37585 403.102C-3.11158 403.29 -3.32021 403.294 -3.37585 403.102ZM-4.40111 402.338C-4.38373 402.352 -4.36286 402.366 -4.342 402.38C-4.55063 402.362 -4.67929 402.15 -4.40111 402.338M269.083 377.889C267.922 372.927 266.764 367.962 265.603 363C263.179 352.623 260.752 342.244 258.328 331.864C253.582 311.564 248.839 291.264 244.092 270.964C241.683 260.647 238.929 250.41 236.442 240.111C234.266 231.084 232.468 221.841 228.73 213.298C224.915 204.577 218.215 197.288 209.341 193.592C201.868 190.483 193.464 188.762 185.327 188.369C186.349 187.117 186.589 185.264 185.097 183.751C183.248 181.877 182.872 179.092 182.378 176.613C181.763 173.514 180.807 170.194 178.964 167.586C178.185 166.483 177.051 165.969 175.716 166.264C174.895 166.445 174.088 166.657 173.292 166.897C173.035 166.64 172.781 166.365 172.559 166.031C172.054 165.26 171.728 164.129 171.004 163.538C170.514 163.135 169.957 163.038 169.384 163.33C167.843 164.112 167.715 166.48 168.045 167.934C168.111 168.215 168.191 168.497 168.289 168.772C168.184 168.82 168.076 168.869 167.969 168.918H167.965C165.955 168.535 163.389 169.342 161.428 169.537C159.15 169.763 156.862 169.912 154.574 169.985C149.89 170.135 145.2 169.996 140.537 169.526C135.992 169.074 131.479 168.347 126.989 167.527C124.194 167.016 120.786 166.591 118.331 164.912C118.292 164.074 118.272 163.232 118.255 162.394C118.219 160.937 118.296 159.793 117.521 158.514C117.51 158.5 117.493 158.496 117.476 158.503C116.516 159.004 115.827 159.859 115.323 160.875C114.402 160.628 113.41 160.663 112.552 161.021C111.338 161.525 110.434 162.106 109.492 163.038C108.091 164.418 107.68 166.031 107.27 167.885C106.974 169.213 106.79 170.162 106.262 171.053C106.147 171.244 106.025 171.446 105.893 171.63C105.844 171.678 105.754 171.772 105.601 171.932C105.448 172.085 105.295 172.235 105.138 172.384C105.048 172.475 104.603 172.836 104.672 172.788C102.746 174.22 101.004 174.759 98.6256 175.444C93.5071 176.919 88.2634 177.882 83.1623 179.447C77.5883 181.157 72.136 183.237 66.8054 185.598C46.0706 194.781 27.5126 209.32 14.8589 228.253C0.122371 250.306 -5.30212 277.091 -7.99002 303.059C-10.9318 331.52 -10.7266 360.305 -11.3699 388.884C-11.4499 392.459 -11.5299 396.033 -11.6098 399.608C-11.6898 403.103 -11.9054 406.865 -8.8037 409.219C-6.03929 411.312 -2.67333 410.655 0.386642 409.713C3.6622 408.708 6.99687 407.908 10.3733 407.334C16.7436 406.26 23.3155 406.131 29.7415 406.757C33.1944 407.094 37.4192 408.374 40.2566 405.669C41.2755 404.695 41.8631 403.461 42.343 402.164C42.9411 400.564 43.64 398.996 44.3354 397.424C44.9092 396.131 45.4795 394.83 46.0497 393.533C46.9747 397.584 47.8996 401.635 48.8246 405.69C49.1897 407.286 50.8553 407.407 51.8602 406.632C53.5014 407.512 55.6573 407.494 57.5211 407.71C60.5185 408.054 63.5399 408.172 66.5515 408.277C72.4524 408.478 78.3533 408.59 84.2576 408.666C96.2958 408.819 108.334 408.763 120.369 408.711C144.212 408.607 168.052 408.12 191.885 407.501C198.596 407.327 205.307 407.171 212.018 407.007C215.37 406.928 218.726 406.848 222.081 406.754C223.086 406.726 224.101 406.632 225.054 406.409H225.058C225.482 406.781 226.004 407.067 226.626 407.237C228.855 407.849 231.07 406.486 231.737 404.333C232.047 403.346 232.263 402.442 232.186 401.482C232.301 400.759 232.416 400.036 232.53 399.312C236.251 401.666 240.716 402.306 245.122 402.014C250.104 401.684 255.087 400.773 260.032 400.095C264.674 399.458 272.199 399.664 272.421 393.252C272.501 390.904 271.51 388.272 270.982 386.012C270.349 383.303 269.716 380.598 269.083 377.889" fill="black"/>
<path fill-rule="evenodd" clip-rule="evenodd" d="M199.971 92.4991C199.833 84.7094 199.68 76.7639 198.522 69.05C197.39 61.5086 194.275 54.6918 188.923 49.2155C177.555 37.5831 161.076 34.7419 145.737 32.1381L119.512 27.6862C111.512 26.3283 102.976 24.1578 94.8925 26.0835C90.9094 27.0325 87.5267 29.237 84.4351 31.8453C81.4551 34.3594 78.2512 37.0591 76.2319 40.4414C74.2092 43.8286 73.5134 47.7881 72.8559 51.619C72.1142 55.938 71.538 60.2909 71.1287 64.6541C70.3085 73.3959 70.1965 82.2034 70.7915 90.9632C71.0797 95.2121 71.5384 99.4487 72.1239 103.667C72.4143 105.758 72.7425 107.845 73.1132 109.924C73.2224 110.537 73.3055 111.215 73.4175 111.901C72.5902 114.254 72.1201 116.69 72.158 119.116C72.2696 126.263 78.3016 130.762 84.3826 133.178C87.9085 134.578 91.5947 135.53 95.0591 137.095C98.7036 138.74 101.184 141.409 103.676 144.452C108.428 150.257 113.791 155.474 119.915 159.827C132.898 169.056 149.343 173.421 165.096 170.108C168.876 169.313 172.689 168.079 176.087 166.219C179.674 164.255 182.371 161.41 184.636 158.045C188.842 151.8 191.858 144.767 194.14 137.611C196.467 130.311 198.119 122.997 199.02 115.385C199.918 107.798 200.107 100.133 199.971 92.4991V92.4991Z" fill="white"/>
<path fill-rule="evenodd" clip-rule="evenodd" d="M116.285 0.551169C127.137 -0.941609 142.116 3.91018 147.521 13.693C173.324 7.60996 205.869 7.41072 227.136 27.6611C249.327 51.6826 221.454 83.355 202.971 90.4958C204.317 97.0355 202.219 138.931 187.373 157.619C175.59 173.453 148.152 180.76 135.456 161.848L135.357 161.692C133.997 159.508 135.168 159.578 136.565 161.202C148.997 172.135 165.901 172.322 178.927 160.784C203.34 139.695 200.823 87.9846 189.206 58.0695C156.127 54.4365 120.71 64.4624 97.8628 89.3626L99.4078 98.6635C99.671 100.248 99.9701 101.831 100.198 103.421C100.344 104.44 100.361 105.454 99.6547 106.278C97.3239 109.001 93.3956 104.91 90.1636 103.282C89.2094 103.148 88.2535 103.096 87.316 103.162C71.7874 105.162 74.847 135.286 91.914 130.006C93.348 129.112 94.58 129.385 95.1364 130.681C99.2044 134.407 101.887 141.053 108.645 147.454C111.03 149.855 113.2 151.864 115.883 153.79C117.458 155.383 122.212 157.008 120.705 159.734C117.855 165.938 101.049 146.45 98.0781 141.061C88.7685 144.737 78.4515 143.488 68.8039 142.59C17.9076 139.944 24.7021 86.2932 66.4206 52.4211C74.2736 46.6399 82.9379 41.9237 91.9442 38.2945C93.1738 37.799 92.6366 35.7801 91.3896 36.2826C85.4303 38.6843 79.6209 41.5429 74.0831 44.8515L74.0747 42.8735C74.0666 39.5418 74.1188 36.0733 74.6975 33.0293C74.9868 30.92 75.4733 28.6671 76.2223 26.9723C77.1483 21.7762 91.6535 3.94078 116.285 0.551169ZM86.6366 110.078C87.4224 109.332 88.8895 110.222 89.5891 110.199C91.3781 110.444 93.0778 111.2 94.4033 112.132C95.2786 112.623 95.892 113.083 96.4045 113.507L96.4184 113.503C96.4146 113.503 96.4097 113.507 96.4055 113.508L96.4538 113.54C97.2001 114.071 99.9321 117.057 98.2061 116.254C98.0774 116.087 97.9456 115.926 97.8128 115.769C97.7985 115.79 97.7787 115.811 97.7551 115.832L97.852 115.976C99.3191 118.183 96.7862 115.858 96.3965 115.24C96.3781 115.255 96.3572 115.265 96.3367 115.276L96.8442 115.893C96.9151 115.981 96.9709 116.051 97.0172 116.11L97.1242 116.214C98.8204 117.881 98.8734 119.381 96.9028 116.916C96.9803 117.033 97.0426 117.156 97.0513 117.265L97.168 117.414C98.7153 119.407 97.4568 118.699 96.6879 117.848L96.6236 117.775L96.6368 117.795C97.352 118.896 95.9329 118.123 95.6821 117.534L95.6715 117.507C95.3982 117.284 95.2301 117.034 95.1724 116.971L95.1617 116.96C93.8313 115.597 91.9029 114.444 90.2647 113.92C90.0272 113.875 89.787 113.838 89.5443 113.813C88.5592 113.593 87.5633 113.442 86.557 113.361C86.4339 113.346 86.309 113.256 86.2158 113.139C84.6941 113.088 85.1639 112.464 85.7952 112.348L85.8063 112.346L85.681 112.336C84.7044 112.24 84.0375 111.89 85.0249 111.675L85.1501 111.65C85.1348 111.626 85.1212 111.602 85.108 111.578C84.2623 111.485 84.8142 110.663 85.2836 110.862C85.0861 110.216 85.9888 110.539 86.1014 110.443C86.1873 110.348 86.2941 110.263 86.3556 110.259C86.6275 110.067 86.4958 110.084 86.6366 110.078ZM91.811 99.6236L91.6128 99.7394C91.4524 99.8329 91.2876 99.8951 91.1221 99.9316C91.3558 100.031 91.5867 100.139 91.8151 100.253C91.8114 100.113 91.8088 99.9729 91.8088 99.8331L91.811 99.6236Z" fill="black"/>
</g>
<defs>
<clipPath id="clip0_529_792">
<rect width="250" height="250" fill="white"/>
</clipPath>
</defs>
</svg>
