<svg width="89" height="33" viewBox="0 0 89 33" fill="none" xmlns="http://www.w3.org/2000/svg">
<g filter="url(#filter0_d_106_138)">
<rect x="3" y="16" width="73.5" height="12.75" rx="0.75" fill="#EE46D3"/>
<path d="M12.9418 21.2686C12.8903 21.1071 12.821 20.9624 12.734 20.8345C12.6488 20.7049 12.5467 20.5948 12.4278 20.5043C12.3088 20.4119 12.173 20.3418 12.0203 20.2939C11.8693 20.2459 11.7033 20.2219 11.5222 20.2219C11.215 20.2219 10.9381 20.301 10.6913 20.459C10.4444 20.617 10.2491 20.8487 10.1053 21.1541C9.96327 21.4577 9.89225 21.8297 9.89225 22.2701C9.89225 22.7122 9.96416 23.0859 10.108 23.3913C10.2518 23.6967 10.4489 23.9284 10.6992 24.0865C10.9496 24.2445 11.2346 24.3235 11.5542 24.3235C11.8507 24.3235 12.109 24.2631 12.3292 24.1424C12.5512 24.0217 12.7225 23.8512 12.8432 23.631C12.9658 23.4091 13.027 23.1481 13.027 22.848L13.2401 22.888H11.6794V22.2088H13.8234V22.8294C13.8234 23.2875 13.7257 23.6852 13.5304 24.0225C13.3368 24.3581 13.0687 24.6174 12.7261 24.8002C12.3851 24.9831 11.9945 25.0746 11.5542 25.0746C11.0606 25.0746 10.6273 24.9609 10.2545 24.7337C9.88337 24.5064 9.59395 24.1841 9.38621 23.7669C9.17847 23.3478 9.0746 22.8507 9.0746 22.2754C9.0746 21.8404 9.13497 21.4498 9.2557 21.1035C9.37644 20.7573 9.54601 20.4634 9.7644 20.2219C9.98457 19.9787 10.2429 19.7931 10.5394 19.6653C10.8377 19.5357 11.1636 19.4709 11.5169 19.4709C11.8116 19.4709 12.086 19.5144 12.3399 19.6014C12.5955 19.6884 12.8228 19.8118 13.0217 19.9716C13.2223 20.1314 13.3883 20.3214 13.5197 20.5415C13.6511 20.7599 13.7399 21.0023 13.7861 21.2686H12.9418ZM14.8791 25V20.9091H15.6488V21.5589H15.6915C15.766 21.3388 15.8974 21.1657 16.0856 21.0396C16.2756 20.9118 16.4905 20.8478 16.7302 20.8478C16.7799 20.8478 16.8385 20.8496 16.9059 20.8532C16.9752 20.8567 17.0293 20.8612 17.0684 20.8665V21.6282C17.0364 21.6193 16.9796 21.6096 16.898 21.5989C16.8163 21.5865 16.7346 21.5803 16.6529 21.5803C16.4647 21.5803 16.2969 21.6202 16.1496 21.7001C16.004 21.7782 15.8885 21.8874 15.8033 22.0277C15.7181 22.1662 15.6755 22.3242 15.6755 22.5018V25H14.8791ZM18.9864 25.0906C18.7272 25.0906 18.4928 25.0426 18.2833 24.9467C18.0738 24.8491 17.9078 24.7079 17.7853 24.5233C17.6645 24.3386 17.6042 24.1122 17.6042 23.8441C17.6042 23.6133 17.6486 23.4233 17.7373 23.2741C17.8261 23.125 17.946 23.0069 18.0969 22.9199C18.2478 22.8329 18.4165 22.7672 18.6029 22.7228C18.7894 22.6784 18.9793 22.6447 19.1729 22.6216C19.4179 22.5932 19.6168 22.5701 19.7695 22.5524C19.9222 22.5328 20.0331 22.5018 20.1024 22.4592C20.1716 22.4165 20.2063 22.3473 20.2063 22.2514V22.2328C20.2063 22.0002 20.1406 21.82 20.0092 21.6921C19.8796 21.5643 19.686 21.5004 19.4286 21.5004C19.1605 21.5004 18.9492 21.5598 18.7947 21.6788C18.642 21.796 18.5363 21.9265 18.4777 22.0703L17.7293 21.8999C17.8181 21.6513 17.9477 21.4506 18.1182 21.2979C18.2904 21.1435 18.4884 21.0316 18.7121 20.9624C18.9358 20.8913 19.1711 20.8558 19.4179 20.8558C19.5813 20.8558 19.7544 20.8754 19.9373 20.9144C20.1219 20.9517 20.2942 21.021 20.454 21.1222C20.6155 21.2234 20.7478 21.3681 20.8508 21.5563C20.9538 21.7427 21.0053 21.9851 21.0053 22.2834V25H20.2276V24.4407H20.1956C20.1441 24.5437 20.0669 24.6449 19.9639 24.7443C19.8609 24.8437 19.7286 24.9263 19.5671 24.992C19.4055 25.0577 19.2119 25.0906 18.9864 25.0906ZM19.1596 24.4513C19.3797 24.4513 19.5679 24.4078 19.7242 24.3208C19.8822 24.2338 20.0021 24.1202 20.0837 23.9799C20.1672 23.8379 20.2089 23.6861 20.2089 23.5245V22.9972C20.1805 23.0256 20.1255 23.0522 20.0438 23.0771C19.9639 23.1001 19.8725 23.1206 19.7695 23.1383C19.6665 23.1543 19.5662 23.1694 19.4685 23.1836C19.3709 23.196 19.2892 23.2067 19.2235 23.2156C19.069 23.2351 18.9279 23.2679 18.8 23.3141C18.6739 23.3603 18.5727 23.4268 18.4964 23.5138C18.4218 23.5991 18.3845 23.7127 18.3845 23.8548C18.3845 24.0518 18.4573 24.201 18.6029 24.3022C18.7485 24.4016 18.9341 24.4513 19.1596 24.4513ZM22.1409 26.5341V20.9091H22.9186V21.5723H22.9852C23.0314 21.487 23.098 21.3885 23.185 21.2766C23.272 21.1648 23.3927 21.0671 23.5472 20.9837C23.7017 20.8984 23.9059 20.8558 24.1598 20.8558C24.49 20.8558 24.7848 20.9393 25.044 21.1062C25.3032 21.2731 25.5065 21.5137 25.6539 21.8279C25.8031 22.1422 25.8776 22.5204 25.8776 22.9625C25.8776 23.4047 25.8039 23.7837 25.6566 24.0998C25.5092 24.4141 25.3068 24.6564 25.0493 24.8269C24.7919 24.9956 24.498 25.0799 24.1678 25.0799C23.9192 25.0799 23.7159 25.0382 23.5579 24.9547C23.4016 24.8713 23.2791 24.7736 23.1903 24.6618C23.1015 24.5499 23.0332 24.4505 22.9852 24.3635H22.9373V26.5341H22.1409ZM22.9213 22.9545C22.9213 23.2422 22.963 23.4943 23.0465 23.7109C23.1299 23.9276 23.2507 24.0971 23.4087 24.2196C23.5667 24.3404 23.7603 24.4007 23.9893 24.4007C24.2272 24.4007 24.4261 24.3377 24.5859 24.2116C24.7457 24.0838 24.8664 23.9107 24.9481 23.6923C25.0316 23.4739 25.0733 23.228 25.0733 22.9545C25.0733 22.6847 25.0325 22.4423 24.9508 22.2275C24.8709 22.0126 24.7501 21.843 24.5886 21.7188C24.4288 21.5945 24.229 21.5323 23.9893 21.5323C23.7585 21.5323 23.5632 21.5918 23.4034 21.7108C23.2454 21.8297 23.1255 21.9957 23.0438 22.2088C22.9621 22.4219 22.9213 22.6705 22.9213 22.9545ZM27.6412 22.571V25H26.8449V19.5455H27.6305V21.5749H27.6811C27.777 21.3548 27.9235 21.1799 28.1206 21.0502C28.3177 20.9206 28.5751 20.8558 28.893 20.8558C29.1735 20.8558 29.4185 20.9135 29.6281 21.0289C29.8394 21.1444 30.0027 21.3166 30.1181 21.5456C30.2353 21.7729 30.2939 22.057 30.2939 22.3979V25H29.4976V22.4938C29.4976 22.1937 29.4203 21.9611 29.2658 21.796C29.1114 21.6291 28.8965 21.5456 28.6213 21.5456C28.4331 21.5456 28.2644 21.5856 28.1153 21.6655C27.9679 21.7454 27.8516 21.8626 27.7664 22.017C27.6829 22.1697 27.6412 22.3544 27.6412 22.571ZM31.4316 25V20.9091H32.2279V25H31.4316ZM31.8337 20.2779C31.6952 20.2779 31.5763 20.2317 31.4769 20.1394C31.3792 20.0453 31.3304 19.9334 31.3304 19.8038C31.3304 19.6724 31.3792 19.5605 31.4769 19.4682C31.5763 19.3741 31.6952 19.3271 31.8337 19.3271C31.9722 19.3271 32.0903 19.3741 32.188 19.4682C32.2874 19.5605 32.3371 19.6724 32.3371 19.8038C32.3371 19.9334 32.2874 20.0453 32.188 20.1394C32.0903 20.2317 31.9722 20.2779 31.8337 20.2779ZM35.0974 25.0826C34.7015 25.0826 34.3606 24.9929 34.0747 24.8136C33.7906 24.6325 33.5722 24.383 33.4195 24.0652C33.2668 23.7473 33.1905 23.3833 33.1905 22.9732C33.1905 22.5577 33.2686 22.1911 33.4249 21.8732C33.5811 21.5536 33.8013 21.3042 34.0854 21.1248C34.3695 20.9455 34.7042 20.8558 35.0894 20.8558C35.4002 20.8558 35.6772 20.9135 35.9204 21.0289C36.1637 21.1426 36.3599 21.3024 36.509 21.5083C36.6599 21.7143 36.7496 21.9549 36.778 22.2301H36.003C35.9604 22.0384 35.8627 21.8732 35.71 21.7347C35.5591 21.5962 35.3567 21.527 35.1028 21.527C34.8808 21.527 34.6864 21.5856 34.5195 21.7028C34.3544 21.8182 34.2256 21.9833 34.1333 22.1982C34.041 22.4112 33.9948 22.6634 33.9948 22.9545C33.9948 23.2528 34.0401 23.5103 34.1306 23.7269C34.2212 23.9435 34.349 24.1113 34.5142 24.2303C34.6811 24.3493 34.8773 24.4087 35.1028 24.4087C35.2537 24.4087 35.3904 24.3812 35.5129 24.3262C35.6372 24.2694 35.7411 24.1886 35.8245 24.0838C35.9098 23.979 35.9692 23.853 36.003 23.7056H36.778C36.7496 23.9702 36.6635 24.2063 36.5197 24.4141C36.3758 24.6218 36.1832 24.7852 35.9417 24.9041C35.702 25.0231 35.4206 25.0826 35.0974 25.0826ZM41.5942 25H39.8284V19.5455H41.6501C42.1846 19.5455 42.6436 19.6547 43.0271 19.873C43.4106 20.0897 43.7045 20.4013 43.9087 20.8079C44.1146 21.2127 44.2176 21.6983 44.2176 22.2647C44.2176 22.8329 44.1137 23.3212 43.906 23.7296C43.7 24.138 43.4017 24.4522 43.0111 24.6724C42.6205 24.8908 42.1482 25 41.5942 25ZM40.6514 24.2809H41.5489C41.9644 24.2809 42.3098 24.2028 42.585 24.0465C42.8602 23.8885 43.0662 23.6603 43.2029 23.362C43.3396 23.062 43.408 22.6962 43.408 22.2647C43.408 21.8368 43.3396 21.4737 43.2029 21.1754C43.0679 20.8771 42.8664 20.6507 42.5983 20.4963C42.3302 20.3418 41.9973 20.2646 41.5995 20.2646H40.6514V24.2809ZM47.0152 25.0826C46.6122 25.0826 46.265 24.9964 45.9738 24.8242C45.6844 24.6502 45.4607 24.4061 45.3027 24.0918C45.1464 23.7757 45.0683 23.4055 45.0683 22.9812C45.0683 22.5621 45.1464 22.1928 45.3027 21.8732C45.4607 21.5536 45.6809 21.3042 45.9632 21.1248C46.2473 20.9455 46.5793 20.8558 46.9593 20.8558C47.1901 20.8558 47.4138 20.894 47.6305 20.9703C47.8471 21.0467 48.0415 21.1665 48.2137 21.3299C48.386 21.4933 48.5218 21.7054 48.6212 21.9664C48.7207 22.2257 48.7704 22.5408 48.7704 22.9119V23.1942H45.5184V22.5977H47.99C47.99 22.3881 47.9474 22.2026 47.8622 22.041C47.7769 21.8777 47.6571 21.7489 47.5026 21.6548C47.3499 21.5607 47.1706 21.5137 46.9646 21.5137C46.7409 21.5137 46.5456 21.5687 46.3787 21.6788C46.2136 21.7871 46.0857 21.9292 45.9952 22.1049C45.9064 22.2789 45.862 22.468 45.862 22.6722V23.1383C45.862 23.4118 45.9099 23.6444 46.0058 23.8361C46.1035 24.0279 46.2393 24.1744 46.4133 24.2756C46.5873 24.375 46.7906 24.4247 47.0232 24.4247C47.1741 24.4247 47.3117 24.4034 47.436 24.3608C47.5603 24.3164 47.6677 24.2507 47.7583 24.1637C47.8488 24.0767 47.9181 23.9693 47.966 23.8414L48.7198 23.9773C48.6594 24.1992 48.5511 24.3936 48.3948 24.5605C48.2404 24.7257 48.0459 24.8544 47.8116 24.9467C47.579 25.0373 47.3135 25.0826 47.0152 25.0826ZM52.7945 21.9078L52.0727 22.0357C52.0425 21.9434 51.9946 21.8555 51.9289 21.772C51.8649 21.6886 51.7779 21.6202 51.6679 21.5669C51.5578 21.5137 51.4202 21.487 51.255 21.487C51.0295 21.487 50.8413 21.5376 50.6904 21.6388C50.5395 21.7383 50.464 21.867 50.464 22.025C50.464 22.1618 50.5146 22.2718 50.6158 22.3553C50.717 22.4387 50.8804 22.5071 51.1059 22.5604L51.7557 22.7095C52.1322 22.7965 52.4127 22.9306 52.5974 23.1117C52.782 23.2928 52.8744 23.5281 52.8744 23.8175C52.8744 24.0625 52.8033 24.2809 52.6613 24.4727C52.521 24.6626 52.3248 24.8118 52.0727 24.9201C51.8223 25.0284 51.532 25.0826 51.2018 25.0826C50.7437 25.0826 50.3699 24.9849 50.0805 24.7896C49.7911 24.5925 49.6135 24.3129 49.5478 23.9506L50.3175 23.8335C50.3655 24.0341 50.464 24.1859 50.6132 24.2889C50.7623 24.3901 50.9567 24.4407 51.1964 24.4407C51.4575 24.4407 51.6661 24.3865 51.8223 24.2782C51.9786 24.1681 52.0567 24.0341 52.0567 23.8761C52.0567 23.7482 52.0088 23.6408 51.9129 23.5538C51.8188 23.4668 51.6741 23.4011 51.4788 23.3567L50.7863 23.2049C50.4045 23.1179 50.1222 22.9794 49.9393 22.7894C49.7582 22.5994 49.6677 22.3588 49.6677 22.0676C49.6677 21.8262 49.7352 21.6149 49.8701 21.4338C50.005 21.2527 50.1915 21.1115 50.4294 21.0103C50.6673 20.9073 50.9399 20.8558 51.247 20.8558C51.6892 20.8558 52.0372 20.9517 52.2911 21.1435C52.545 21.3335 52.7128 21.5882 52.7945 21.9078ZM53.8249 25V20.9091H54.6213V25H53.8249ZM54.2271 20.2779C54.0886 20.2779 53.9696 20.2317 53.8702 20.1394C53.7726 20.0453 53.7237 19.9334 53.7237 19.8038C53.7237 19.6724 53.7726 19.5605 53.8702 19.4682C53.9696 19.3741 54.0886 19.3271 54.2271 19.3271C54.3656 19.3271 54.4837 19.3741 54.5813 19.4682C54.6808 19.5605 54.7305 19.6724 54.7305 19.8038C54.7305 19.9334 54.6808 20.0453 54.5813 20.1394C54.4837 20.2317 54.3656 20.2779 54.2271 20.2779ZM57.4828 26.6193C57.1579 26.6193 56.8782 26.5767 56.6439 26.4915C56.4113 26.4063 56.2213 26.2935 56.0739 26.1532C55.9265 26.013 55.8164 25.8594 55.7436 25.6925L56.4281 25.4102C56.4761 25.4883 56.54 25.5708 56.6199 25.6578C56.7016 25.7466 56.8116 25.8221 56.9501 25.8842C57.0904 25.9464 57.2706 25.9775 57.4908 25.9775C57.7926 25.9775 58.0421 25.9038 58.2392 25.7564C58.4363 25.6108 58.5348 25.3782 58.5348 25.0586V24.2543H58.4842C58.4363 24.3413 58.367 24.438 58.2765 24.5446C58.1877 24.6511 58.0652 24.7434 57.9089 24.8216C57.7527 24.8997 57.5494 24.9387 57.299 24.9387C56.9759 24.9387 56.6847 24.8633 56.4255 24.7124C56.168 24.5597 55.9638 24.335 55.8129 24.0385C55.6637 23.7402 55.5892 23.3736 55.5892 22.9386C55.5892 22.5036 55.6629 22.1307 55.8102 21.82C55.9594 21.5092 56.1636 21.2713 56.4228 21.1062C56.682 20.9393 56.9759 20.8558 57.3044 20.8558C57.5583 20.8558 57.7633 20.8984 57.9196 20.9837C58.0758 21.0671 58.1975 21.1648 58.2845 21.2766C58.3733 21.3885 58.4416 21.487 58.4896 21.5723H58.5482V20.9091H59.3285V25.0906C59.3285 25.4421 59.2468 25.7306 59.0835 25.9561C58.9201 26.1816 58.6991 26.3485 58.4203 26.4569C58.1433 26.5652 57.8308 26.6193 57.4828 26.6193ZM57.4748 24.2782C57.7039 24.2782 57.8974 24.225 58.0554 24.1184C58.2152 24.0101 58.336 23.8556 58.4176 23.655C58.5011 23.4526 58.5428 23.2102 58.5428 22.9279C58.5428 22.6527 58.502 22.4103 58.4203 22.2008C58.3386 21.9913 58.2188 21.8279 58.0608 21.7108C57.9027 21.5918 57.7074 21.5323 57.4748 21.5323C57.2351 21.5323 57.0354 21.5945 56.8756 21.7188C56.7158 21.8413 56.595 22.0082 56.5133 22.2195C56.4334 22.4308 56.3935 22.6669 56.3935 22.9279C56.3935 23.196 56.4343 23.4313 56.516 23.6337C56.5977 23.8361 56.7184 23.9941 56.8782 24.1078C57.0398 24.2214 57.2387 24.2782 57.4748 24.2782ZM61.2679 22.571V25H60.4715V20.9091H61.2359V21.5749H61.2865C61.3806 21.3583 61.528 21.1843 61.7286 21.0529C61.931 20.9215 62.1858 20.8558 62.493 20.8558C62.7718 20.8558 63.0159 20.9144 63.2254 21.0316C63.4349 21.147 63.5974 21.3192 63.7128 21.5483C63.8282 21.7773 63.8859 22.0605 63.8859 22.3979V25H63.0896V22.4938C63.0896 22.1973 63.0124 21.9656 62.8579 21.7987C62.7034 21.63 62.4912 21.5456 62.2213 21.5456C62.0367 21.5456 61.8724 21.5856 61.7286 21.6655C61.5866 21.7454 61.4738 21.8626 61.3904 22.017C61.3087 22.1697 61.2679 22.3544 61.2679 22.571ZM66.7921 25.0826C66.389 25.0826 66.0419 24.9964 65.7507 24.8242C65.4613 24.6502 65.2376 24.4061 65.0795 24.0918C64.9233 23.7757 64.8452 23.4055 64.8452 22.9812C64.8452 22.5621 64.9233 22.1928 65.0795 21.8732C65.2376 21.5536 65.4577 21.3042 65.7401 21.1248C66.0241 20.9455 66.3562 20.8558 66.7361 20.8558C66.967 20.8558 67.1907 20.894 67.4073 20.9703C67.6239 21.0467 67.8184 21.1665 67.9906 21.3299C68.1628 21.4933 68.2986 21.7054 68.3981 21.9664C68.4975 22.2257 68.5472 22.5408 68.5472 22.9119V23.1942H65.2953V22.5977H67.7669C67.7669 22.3881 67.7242 22.2026 67.639 22.041C67.5538 21.8777 67.4339 21.7489 67.2795 21.6548C67.1268 21.5607 66.9474 21.5137 66.7415 21.5137C66.5178 21.5137 66.3224 21.5687 66.1555 21.6788C65.9904 21.7871 65.8626 21.9292 65.772 22.1049C65.6832 22.2789 65.6388 22.468 65.6388 22.6722V23.1383C65.6388 23.4118 65.6868 23.6444 65.7827 23.8361C65.8803 24.0279 66.0162 24.1744 66.1902 24.2756C66.3642 24.375 66.5675 24.4247 66.8001 24.4247C66.951 24.4247 67.0886 24.4034 67.2129 24.3608C67.3372 24.3164 67.4446 24.2507 67.5352 24.1637C67.6257 24.0767 67.695 23.9693 67.7429 23.8414L68.4966 23.9773C68.4363 24.1992 68.3279 24.3936 68.1717 24.5605C68.0172 24.7257 67.8228 24.8544 67.5884 24.9467C67.3558 25.0373 67.0904 25.0826 66.7921 25.0826ZM69.5058 25V20.9091H70.2755V21.5589H70.3181C70.3927 21.3388 70.5241 21.1657 70.7123 21.0396C70.9023 20.9118 71.1171 20.8478 71.3568 20.8478C71.4065 20.8478 71.4651 20.8496 71.5326 20.8532C71.6019 20.8567 71.656 20.8612 71.6951 20.8665V21.6282C71.6631 21.6193 71.6063 21.6096 71.5246 21.5989C71.4429 21.5865 71.3613 21.5803 71.2796 21.5803C71.0914 21.5803 70.9236 21.6202 70.7762 21.7001C70.6306 21.7782 70.5152 21.8874 70.43 22.0277C70.3447 22.1662 70.3021 22.3242 70.3021 22.5018V25H69.5058Z" fill="white"/>
</g>
<g filter="url(#filter1_d_106_138)">
<path d="M82.875 13L84.75 3.25L76.5 8.125L80.625 9.25L82.875 13Z" fill="#EE46D3"/>
<path d="M83.2433 13.0708L83.058 14.0339L82.5534 13.1929L80.381 9.57214L76.4013 8.48679L75.5456 8.2534L76.3092 7.80215L84.5592 2.92715L85.2753 2.504L85.1183 3.32082L83.2433 13.0708Z" stroke="white" stroke-width="0.75" stroke-linecap="square"/>
</g>
<defs>
<filter id="filter0_d_106_138" x="0" y="13.75" width="79.5" height="18.75" filterUnits="userSpaceOnUse" color-interpolation-filters="sRGB">
<feFlood flood-opacity="0" result="BackgroundImageFix"/>
<feColorMatrix in="SourceAlpha" type="matrix" values="0 0 0 0 0 0 0 0 0 0 0 0 0 0 0 0 0 0 127 0" result="hardAlpha"/>
<feOffset dy="0.75"/>
<feGaussianBlur stdDeviation="1.5"/>
<feColorMatrix type="matrix" values="0 0 0 0 0 0 0 0 0 0 0 0 0 0 0 0 0 0 0.16 0"/>
<feBlend mode="normal" in2="BackgroundImageFix" result="effect1_dropShadow_106_138"/>
<feBlend mode="normal" in="SourceGraphic" in2="effect1_dropShadow_106_138" result="shape"/>
</filter>
<filter id="filter1_d_106_138" x="72.3412" y="0.257996" width="15.7095" height="17.8099" filterUnits="userSpaceOnUse" color-interpolation-filters="sRGB">
<feFlood flood-opacity="0" result="BackgroundImageFix"/>
<feColorMatrix in="SourceAlpha" type="matrix" values="0 0 0 0 0 0 0 0 0 0 0 0 0 0 0 0 0 0 127 0" result="hardAlpha"/>
<feOffset dy="0.75"/>
<feGaussianBlur stdDeviation="1.125"/>
<feColorMatrix type="matrix" values="0 0 0 0 0 0 0 0 0 0 0 0 0 0 0 0 0 0 0.1 0"/>
<feBlend mode="normal" in2="BackgroundImageFix" result="effect1_dropShadow_106_138"/>
<feBlend mode="normal" in="SourceGraphic" in2="effect1_dropShadow_106_138" result="shape"/>
</filter>
</defs>
</svg>
