<svg width="120" height="48" viewBox="0 0 120 48" fill="none" xmlns="http://www.w3.org/2000/svg">
<g clip-path="url(#clip0_141_65)">
<path d="M23.3142 44.5019V47.8321H0.00354004V44.5019H23.3142ZM59.7432 44.5019C57.4049 46.6517 54.342 47.8408 51.1657 47.8319L26.6442 47.7991V44.5019H59.7432ZM94.4034 44.5019L93.2406 47.8319L92.0882 44.5019H94.4034ZM83.2557 44.5019V47.8321H66.6053V44.5019H83.2557ZM119.886 44.5019V47.8321H103.236V44.5019H119.886ZM63.515 38.1448C63.2291 39.3129 62.7779 40.4342 62.1752 41.4748H26.6442V38.1448H63.515ZM96.635 38.1448L95.4664 41.4751H91.0254L89.8565 38.1448H96.635ZM83.2557 38.1448V41.4748H66.6053V38.1448H83.2557ZM119.886 38.1448V41.4748H103.236V38.1448H119.886ZM23.3142 38.1448V41.4748H0.00354004V38.1448H23.3142ZM16.6537 31.787V35.1173H6.6636V31.787H16.6537ZM43.2944 31.787V35.1173H33.3041V31.787H43.2944ZM63.435 31.787C63.7301 32.8725 63.8798 33.9924 63.8803 35.1173H52.6794V31.787H63.435ZM98.8669 31.787L97.6978 35.1173H88.7935L87.6241 31.787H98.8669ZM83.2554 31.787V35.1173H73.2651V31.787H83.2554ZM113.226 31.787V35.1173H103.236V31.787H113.226ZM16.6537 25.4297V28.7597H6.6636V25.4297H16.6537ZM83.2554 25.4297V28.7597H73.2651V25.4297H83.2554ZM113.226 25.4297V28.7597H103.236V25.4297H113.226ZM59.3936 25.4297C60.5027 26.3731 61.4421 27.4992 62.1713 28.7595H33.3043V25.4295L59.3936 25.4297ZM101.099 25.4297L99.9299 28.7597H86.5614L85.3925 25.4295L101.099 25.4297ZM92.3094 19.0724L93.2455 21.7641L94.1814 19.0724H113.226V22.4024H103.236V19.3428L102.162 22.4027H84.3299L83.2554 19.3424V22.4027H73.2656V19.0724H92.3094ZM33.3041 19.0724H62.1717C61.4425 20.3328 60.503 21.459 59.3938 22.4024H33.3043L33.3041 19.0724ZM16.6537 19.0724V22.4024H6.6636V19.0722L16.6537 19.0724ZM16.6537 12.7149V16.0449H6.6636V12.7149H16.6537ZM43.2944 12.7149V16.0449H33.3041V12.7149H43.2944ZM63.8805 12.7149C63.88 13.8397 63.7301 14.9595 63.435 16.0449H52.6794V12.7149H63.8805ZM90.0986 12.7149L91.2567 16.0449H73.2656V12.7149H90.0986ZM113.226 12.7149V16.0449H95.2346L96.3925 12.7149H113.226ZM23.3137 6.35732V9.68758H0.00354004V6.35709L23.3137 6.35732ZM62.175 6.35732C62.7777 7.39797 63.2288 8.51927 63.5148 9.68735H26.6438V6.35732H62.175ZM119.886 6.35732V9.68735H97.4452L98.6033 6.35732H119.886ZM87.8878 6.35732L89.0459 9.68735H66.6051V6.35732H87.8878ZM23.3144 0.000246016V3.33004H0.00354004V1.18696e-05L23.3144 0.000246016ZM51.1657 1.18696e-05C54.3412 -0.00433275 57.4025 1.18415 59.7432 3.33004H26.6442V1.18696e-05H51.1657ZM119.886 1.18696e-05V3.33028H99.6562L100.814 0.000246016L119.886 1.18696e-05ZM85.6777 1.18696e-05L86.8355 3.33028H66.6053V0.000246016L85.6777 1.18696e-05Z" fill="#757575"/>
</g>
<defs>
<clipPath id="clip0_141_65">
<rect width="119.89" height="48" fill="white"/>
</clipPath>
</defs>
</svg>
