<svg width="66" height="15" viewBox="0 0 66 15" fill="none" xmlns="http://www.w3.org/2000/svg">
<rect width="66" height="15" rx="7.5" fill="#C3C3C3"/>
<path d="M13.7926 11V4.45455H14.5852V10.2969H17.6278V11H13.7926ZM20.1974 11.1151C19.8864 11.1151 19.604 11.0565 19.3505 10.9393C19.0969 10.82 18.8956 10.6484 18.7464 10.4247C18.5973 10.1989 18.5227 9.92614 18.5227 9.60653C18.5227 9.32528 18.5781 9.0973 18.6889 8.92259C18.7997 8.74574 18.9478 8.60724 19.1332 8.5071C19.3185 8.40696 19.5231 8.33239 19.7468 8.28338C19.9727 8.23224 20.1996 8.19176 20.4276 8.16193C20.7259 8.12358 20.9677 8.09482 21.1531 8.07564C21.3406 8.05433 21.4769 8.01918 21.5621 7.97017C21.6495 7.92116 21.6932 7.83594 21.6932 7.71449V7.68892C21.6932 7.37358 21.6069 7.12855 21.4343 6.95384C21.2638 6.77912 21.005 6.69176 20.6577 6.69176C20.2976 6.69176 20.0153 6.7706 19.8107 6.92827C19.6062 7.08594 19.4624 7.25426 19.3793 7.43324L18.6634 7.17756C18.7912 6.87926 18.9616 6.64702 19.1747 6.48082C19.3899 6.3125 19.6243 6.19531 19.8778 6.12926C20.1335 6.06108 20.3849 6.02699 20.6321 6.02699C20.7898 6.02699 20.9709 6.04616 21.1754 6.08452C21.3821 6.12074 21.5813 6.19638 21.7731 6.31143C21.967 6.42649 22.1278 6.60014 22.2557 6.83239C22.3835 7.06463 22.4474 7.37571 22.4474 7.76562V11H21.6932V10.3352H21.6548C21.6037 10.4418 21.5185 10.5558 21.3991 10.6772C21.2798 10.7987 21.1211 10.902 20.9229 10.9872C20.7248 11.0724 20.483 11.1151 20.1974 11.1151ZM20.3125 10.4375C20.6108 10.4375 20.8622 10.3789 21.0668 10.2617C21.2734 10.1445 21.429 9.99325 21.5334 9.80788C21.6399 9.62251 21.6932 9.42756 21.6932 9.22301V8.53267C21.6612 8.57102 21.5909 8.60618 21.4822 8.63814C21.3757 8.66797 21.2521 8.6946 21.1115 8.71804C20.973 8.73935 20.8377 8.75852 20.7056 8.77557C20.5756 8.79048 20.4702 8.80327 20.3892 8.81392C20.1932 8.83949 20.0099 8.88104 19.8395 8.93857C19.6712 8.99396 19.5348 9.07812 19.4304 9.19105C19.3281 9.30185 19.277 9.45312 19.277 9.64489C19.277 9.90696 19.3739 10.1051 19.5678 10.2393C19.7638 10.3714 20.0121 10.4375 20.3125 10.4375ZM27.3014 7.19034L26.6238 7.3821C26.5812 7.26918 26.5184 7.15945 26.4353 7.05291C26.3543 6.94425 26.2435 6.85476 26.1029 6.78445C25.9623 6.71413 25.7822 6.67898 25.5628 6.67898C25.2623 6.67898 25.012 6.74822 24.8117 6.88672C24.6135 7.02308 24.5145 7.19673 24.5145 7.40767C24.5145 7.59517 24.5827 7.74325 24.719 7.85192C24.8554 7.96058 25.0684 8.05114 25.3582 8.12358L26.0869 8.30256C26.5258 8.40909 26.8529 8.57209 27.0681 8.79155C27.2833 9.00888 27.3909 9.28906 27.3909 9.6321C27.3909 9.91335 27.3099 10.1648 27.148 10.3864C26.9882 10.608 26.7645 10.7827 26.4768 10.9105C26.1892 11.0384 25.8547 11.1023 25.4733 11.1023C24.9726 11.1023 24.5581 10.9936 24.23 10.7763C23.9019 10.5589 23.6942 10.2415 23.6068 9.82386L24.3227 9.64489C24.3909 9.90909 24.5198 10.1072 24.7094 10.2393C24.9012 10.3714 25.1515 10.4375 25.4605 10.4375C25.8121 10.4375 26.0912 10.3629 26.2979 10.2138C26.5067 10.0625 26.6111 9.88139 26.6111 9.67045C26.6111 9.5 26.5514 9.35724 26.4321 9.24219C26.3128 9.125 26.1295 9.03764 25.8824 8.98011L25.0642 8.78835C24.6146 8.68182 24.2844 8.51669 24.0734 8.29297C23.8646 8.06712 23.7602 7.7848 23.7602 7.44602C23.7602 7.16903 23.838 6.92401 23.9935 6.71094C24.1512 6.49787 24.3653 6.33061 24.6359 6.20916C24.9086 6.08771 25.2176 6.02699 25.5628 6.02699C26.0486 6.02699 26.43 6.13352 26.7069 6.34659C26.9861 6.55966 27.1842 6.84091 27.3014 7.19034ZM30.6612 6.09091V6.73011H28.1172V6.09091H30.6612ZM28.8587 4.91477H29.6129V9.59375C29.6129 9.80682 29.6438 9.96662 29.7056 10.0732C29.7695 10.1776 29.8505 10.2479 29.9485 10.2841C30.0487 10.3182 30.1541 10.3352 30.2649 10.3352C30.348 10.3352 30.4162 10.331 30.4695 10.3224C30.5227 10.3118 30.5653 10.3033 30.5973 10.2969L30.7507 10.9744C30.6996 10.9936 30.6282 11.0128 30.5366 11.032C30.445 11.0533 30.3288 11.0639 30.1882 11.0639C29.9751 11.0639 29.7663 11.0181 29.5618 10.9265C29.3594 10.8349 29.1911 10.6953 29.0568 10.5078C28.9247 10.3203 28.8587 10.0838 28.8587 9.7983V4.91477ZM34.4293 11V4.45455H38.3796V5.15767H35.2219V7.36932H38.1751V8.07244H35.2219V10.2969H38.4308V11H34.4293ZM43.7202 6.09091L41.9048 11H41.1378L39.3224 6.09091H40.1406L41.4957 10.0028H41.5469L42.902 6.09091H43.7202ZM46.5982 11.1023C46.1252 11.1023 45.7172 10.9979 45.3741 10.7891C45.0332 10.5781 44.7701 10.2841 44.5847 9.90696C44.4015 9.5277 44.3098 9.08665 44.3098 8.58381C44.3098 8.08097 44.4015 7.63778 44.5847 7.25426C44.7701 6.86861 45.0279 6.56818 45.3581 6.35298C45.6905 6.13565 46.0783 6.02699 46.5215 6.02699C46.7772 6.02699 47.0297 6.0696 47.2789 6.15483C47.5282 6.24006 47.7551 6.37855 47.9597 6.57031C48.1642 6.75994 48.3272 7.01136 48.4487 7.32457C48.5701 7.63778 48.6309 8.02344 48.6309 8.48153V8.80114H44.8468V8.14915H47.8638C47.8638 7.87216 47.8084 7.625 47.6976 7.40767C47.589 7.19034 47.4334 7.01882 47.231 6.89311C47.0307 6.7674 46.7942 6.70455 46.5215 6.70455C46.2211 6.70455 45.9611 6.77912 45.7417 6.92827C45.5243 7.07528 45.3571 7.26705 45.2399 7.50355C45.1227 7.74006 45.0641 7.99361 45.0641 8.2642V8.69886C45.0641 9.0696 45.128 9.38388 45.2559 9.64169C45.3858 9.89737 45.5659 10.0923 45.796 10.2266C46.0261 10.3587 46.2935 10.4247 46.5982 10.4247C46.7963 10.4247 46.9753 10.397 47.1351 10.3416C47.2971 10.2841 47.4366 10.1989 47.5538 10.0859C47.671 9.97088 47.7615 9.82812 47.8255 9.65767L48.5542 9.86222C48.4775 10.1094 48.3485 10.3267 48.1674 10.5142C47.9863 10.6996 47.7626 10.8445 47.4963 10.9489C47.2299 11.0511 46.9306 11.1023 46.5982 11.1023ZM50.5325 8.04688V11H49.7782V6.09091H50.5069V6.85795H50.5708C50.6859 6.60866 50.8606 6.40838 51.095 6.2571C51.3294 6.10369 51.6319 6.02699 52.0027 6.02699C52.335 6.02699 52.6259 6.09517 52.8752 6.23153C53.1245 6.36577 53.3184 6.57031 53.4569 6.84517C53.5953 7.1179 53.6646 7.46307 53.6646 7.88068V11H52.9103V7.93182C52.9103 7.54616 52.8102 7.24574 52.6099 7.03054C52.4096 6.81321 52.1348 6.70455 51.7853 6.70455C51.5446 6.70455 51.3294 6.75675 51.1397 6.86115C50.9522 6.96555 50.8042 7.1179 50.6955 7.31818C50.5868 7.51847 50.5325 7.76136 50.5325 8.04688ZM57.1778 6.09091V6.73011H54.6338V6.09091H57.1778ZM55.3753 4.91477H56.1295V9.59375C56.1295 9.80682 56.1604 9.96662 56.2222 10.0732C56.2861 10.1776 56.3671 10.2479 56.4651 10.2841C56.5653 10.3182 56.6707 10.3352 56.7815 10.3352C56.8646 10.3352 56.9328 10.331 56.9861 10.3224C57.0393 10.3118 57.0819 10.3033 57.1139 10.2969L57.2673 10.9744C57.2162 10.9936 57.1448 11.0128 57.0532 11.032C56.9616 11.0533 56.8454 11.0639 56.7048 11.0639C56.4917 11.0639 56.2829 11.0181 56.0784 10.9265C55.876 10.8349 55.7077 10.6953 55.5734 10.5078C55.4413 10.3203 55.3753 10.0838 55.3753 9.7983V4.91477Z" fill="black"/>
<rect x="3" y="4" width="7" height="7" rx="3.5" fill="#656565"/>
</svg>
