<svg width="100" height="100" viewBox="0 0 100 100" fill="none" xmlns="http://www.w3.org/2000/svg">
<g clip-path="url(#clip0_287_247)">
<g clip-path="url(#clip1_287_247)">
<path d="M76.5625 0H23.4375C10.4933 0 0 10.4933 0 23.4375V76.5625C0 89.5067 10.4933 100 23.4375 100H76.5625C89.5067 100 100 89.5067 100 76.5625V23.4375C100 10.4933 89.5067 0 76.5625 0Z" fill="white"/>
<path d="M76.5625 0H23.4375C10.4933 0 0 10.4933 0 23.4375V76.5625C0 89.5067 10.4933 100 23.4375 100H76.5625C89.5067 100 100 89.5067 100 76.5625V23.4375C100 10.4933 89.5067 0 76.5625 0Z" fill="#0A66C2"/>
<path d="M72.1543 85.0332H83.5879C84.0022 85.0332 84.3996 84.8686 84.6926 84.5757C84.9856 84.2828 85.1503 83.8854 85.1504 83.4711L85.1562 59.3141C85.1562 46.6879 82.4355 36.9828 67.6805 36.9828C62.0715 36.7742 56.782 39.6656 53.9277 44.4937C53.9138 44.5172 53.8925 44.5354 53.8672 44.5457C53.842 44.5559 53.814 44.5576 53.7877 44.5505C53.7613 44.5434 53.738 44.5278 53.7214 44.5062C53.7047 44.4846 53.6955 44.4581 53.6953 44.4309V39.7109C53.6953 39.2965 53.5307 38.8991 53.2377 38.6061C52.9446 38.3131 52.5472 38.1484 52.1328 38.1484H41.2824C40.868 38.1484 40.4706 38.3131 40.1776 38.6061C39.8845 38.8991 39.7199 39.2965 39.7199 39.7109V83.4687C39.7199 83.8831 39.8845 84.2806 40.1776 84.5736C40.4706 84.8666 40.868 85.0312 41.2824 85.0312H52.7152C53.1296 85.0312 53.5271 84.8666 53.8201 84.5736C54.1131 84.2806 54.2777 83.8831 54.2777 83.4687V61.8387C54.2777 55.7227 55.4379 49.7996 63.0203 49.7996C70.4949 49.7996 70.5918 56.798 70.5918 62.2348V83.4707C70.5918 83.8851 70.7564 84.2825 71.0494 84.5756C71.3425 84.8686 71.7399 85.0332 72.1543 85.0332ZM14.8438 23.2922C14.8438 27.9266 18.659 31.7398 23.2937 31.7398C27.9273 31.7395 31.7402 27.9238 31.7402 23.2902C31.7395 18.6566 27.9262 14.8438 23.2922 14.8438C18.657 14.8438 14.8438 18.6578 14.8438 23.2922ZM17.5621 85.0332H29.0102C29.4246 85.0332 29.822 84.8686 30.115 84.5756C30.408 84.2825 30.5727 83.8851 30.5727 83.4707V39.7109C30.5727 39.2965 30.408 38.8991 30.115 38.6061C29.822 38.3131 29.4246 38.1484 29.0102 38.1484H17.5621C17.1477 38.1484 16.7503 38.3131 16.4573 38.6061C16.1642 38.8991 15.9996 39.2965 15.9996 39.7109V83.4707C15.9996 83.8851 16.1642 84.2825 16.4573 84.5756C16.7503 84.8686 17.1477 85.0332 17.5621 85.0332Z" fill="white"/>
</g>
</g>
<defs>
<clipPath id="clip0_287_247">
<rect width="100" height="100" fill="white"/>
</clipPath>
<clipPath id="clip1_287_247">
<rect width="100" height="100" fill="white"/>
</clipPath>
</defs>
</svg>
