<svg width="500" height="500" viewBox="0 0 500 500" fill="none" xmlns="http://www.w3.org/2000/svg">
<rect width="500" height="500" fill="#1704E2"/>
<rect width="320" height="320" transform="translate(90 90)" fill="#2167FF"/>
<path d="M249.6 141.6H211.8C201.775 141.6 192.16 145.583 185.071 152.671C177.982 159.76 174 169.375 174 179.4C174 189.425 177.982 199.04 185.071 206.129C192.16 213.218 201.775 217.2 211.8 217.2H249.6M249.6 141.6V217.2M249.6 141.6H287.4C292.364 141.6 297.279 142.578 301.865 144.477C306.452 146.377 310.619 149.161 314.129 152.671C317.639 156.182 320.423 160.349 322.323 164.935C324.222 169.521 325.2 174.436 325.2 179.4C325.2 184.364 324.222 189.279 322.323 193.866C320.423 198.452 317.639 202.619 314.129 206.129C310.619 209.639 306.452 212.423 301.865 214.323C297.279 216.222 292.364 217.2 287.4 217.2H249.6" stroke="white" stroke-width="12.96" stroke-linecap="round" stroke-linejoin="round"/>
<path d="M211.8 292.8C201.775 292.8 192.16 296.783 185.071 303.872C177.982 310.96 174 320.575 174 330.6C174 340.625 177.982 350.24 185.071 357.329C192.16 364.418 201.775 368.4 211.8 368.4C221.825 368.4 231.44 364.418 238.529 357.329C245.618 350.24 249.6 340.625 249.6 330.6V292.8M211.8 292.8H249.6M211.8 292.8C201.775 292.8 192.16 288.818 185.071 281.729C177.982 274.64 174 265.025 174 255C174 244.975 177.982 235.36 185.071 228.272C192.16 221.183 201.775 217.2 211.8 217.2H249.6V292.8M249.6 255C249.6 250.036 250.578 245.121 252.477 240.535C254.377 235.949 257.161 231.782 260.671 228.272C264.181 224.762 268.348 221.977 272.935 220.078C277.521 218.178 282.436 217.2 287.4 217.2C292.364 217.2 297.279 218.178 301.865 220.078C306.452 221.977 310.619 224.762 314.129 228.272C317.639 231.782 320.423 235.949 322.323 240.535C324.222 245.121 325.2 250.036 325.2 255C325.2 259.964 324.222 264.88 322.323 269.466C320.423 274.052 317.639 278.219 314.129 281.729C310.619 285.239 306.452 288.023 301.865 289.923C297.279 291.822 292.364 292.8 287.4 292.8C282.436 292.8 277.521 291.822 272.935 289.923C268.348 288.023 264.181 285.239 260.671 281.729C257.161 278.219 254.377 274.052 252.477 269.466C250.578 264.88 249.6 259.964 249.6 255Z" stroke="white" stroke-width="12.96" stroke-linecap="round" stroke-linejoin="round"/>
<rect x="90" y="451" width="7" height="113" transform="rotate(-90 90 451)" fill="#3775FB"/>
<rect x="296" y="451.188" width="7.1875" height="115" transform="rotate(-90 296 451.188)" fill="#3775FB"/>
<path d="M223.026 454V452.05C224.61 450.917 225.935 449.917 227.001 449.05C228.085 448.183 228.951 447.383 229.601 446.65C230.251 445.917 230.718 445.225 231.001 444.575C231.301 443.908 231.451 443.233 231.451 442.55C231.451 441.667 231.176 440.95 230.626 440.4C230.076 439.85 229.31 439.575 228.326 439.575C227.293 439.575 226.468 439.925 225.851 440.625C225.251 441.308 224.91 442.25 224.826 443.45L222.501 442.375C222.618 441.325 222.926 440.417 223.426 439.65C223.926 438.883 224.601 438.292 225.451 437.875C226.318 437.458 227.318 437.25 228.451 437.25C229.385 437.25 230.201 437.383 230.901 437.65C231.618 437.917 232.218 438.292 232.701 438.775C233.185 439.242 233.551 439.792 233.801 440.425C234.068 441.058 234.201 441.733 234.201 442.45C234.201 443.5 233.943 444.517 233.426 445.5C232.91 446.467 232.093 447.458 230.976 448.475C229.86 449.492 228.393 450.583 226.576 451.75V451.8C226.776 451.767 227.051 451.75 227.401 451.75C227.751 451.733 228.101 451.725 228.451 451.725C228.801 451.708 229.085 451.7 229.301 451.7H234.501V454H223.026ZM244.489 454V449.875H236.439V448.05C236.472 447.967 236.522 447.867 236.589 447.75C236.672 447.633 236.764 447.5 236.864 447.35L243.739 437.5H247.014V447.8H249.814V449.875H247.014V454H244.489ZM238.939 447.8H244.489V441.975C244.489 441.575 244.497 441.167 244.514 440.75C244.547 440.317 244.572 439.892 244.589 439.475H244.539C244.356 439.875 244.114 440.317 243.814 440.8C243.531 441.267 243.264 441.675 243.014 442.025L239.114 447.575C239.081 447.608 239.047 447.642 239.014 447.675C238.997 447.708 238.972 447.75 238.939 447.8ZM252.966 459.25V441.5H255.341L255.541 445L255.191 444.575C255.391 443.925 255.699 443.35 256.116 442.85C256.532 442.35 257.049 441.958 257.666 441.675C258.299 441.392 258.991 441.25 259.741 441.25C260.757 441.25 261.682 441.508 262.516 442.025C263.349 442.542 264.007 443.283 264.491 444.25C264.974 445.2 265.216 446.358 265.216 447.725C265.216 449.092 264.966 450.267 264.466 451.25C263.982 452.217 263.316 452.958 262.466 453.475C261.632 453.992 260.699 454.25 259.666 454.25C258.599 454.25 257.691 453.975 256.941 453.425C256.191 452.858 255.657 452.142 255.341 451.275L255.641 450.85V459.25H252.966ZM259.091 452.075C260.174 452.075 261.016 451.692 261.616 450.925C262.232 450.158 262.541 449.1 262.541 447.75C262.541 446.4 262.241 445.342 261.641 444.575C261.041 443.792 260.207 443.4 259.141 443.4C258.441 443.4 257.824 443.583 257.291 443.95C256.774 444.3 256.366 444.8 256.066 445.45C255.782 446.083 255.641 446.85 255.641 447.75C255.641 448.633 255.782 449.4 256.066 450.05C256.349 450.7 256.749 451.2 257.266 451.55C257.782 451.9 258.391 452.075 259.091 452.075ZM270.004 441.5L273.529 446.85L274.029 446.925L279.104 454H275.929L272.254 448.5L271.679 448.3L266.779 441.5H270.004ZM279.029 441.5L274.129 448.2L273.579 448.175L269.579 454H266.529L271.854 446.875L272.379 446.925L275.954 441.5H279.029Z" fill="white"/>
<rect x="52" y="90" width="8.125" height="130" fill="#3775FB"/>
<rect x="52" y="280" width="8.125" height="130" fill="#3775FB"/>
<path d="M24.0264 258V256.05C25.6097 254.917 26.9347 253.917 28.0014 253.05C29.0847 252.183 29.9514 251.383 30.6014 250.65C31.2514 249.917 31.718 249.225 32.0014 248.575C32.3014 247.908 32.4514 247.233 32.4514 246.55C32.4514 245.667 32.1764 244.95 31.6264 244.4C31.0764 243.85 30.3097 243.575 29.3264 243.575C28.293 243.575 27.468 243.925 26.8514 244.625C26.2514 245.308 25.9097 246.25 25.8264 247.45L23.5014 246.375C23.618 245.325 23.9264 244.417 24.4264 243.65C24.9264 242.883 25.6014 242.292 26.4514 241.875C27.318 241.458 28.318 241.25 29.4514 241.25C30.3847 241.25 31.2014 241.383 31.9014 241.65C32.618 241.917 33.218 242.292 33.7014 242.775C34.1847 243.242 34.5514 243.792 34.8014 244.425C35.068 245.058 35.2014 245.733 35.2014 246.45C35.2014 247.5 34.943 248.517 34.4264 249.5C33.9097 250.467 33.093 251.458 31.9764 252.475C30.8597 253.492 29.393 254.583 27.5764 255.75V255.8C27.7764 255.767 28.0514 255.75 28.4014 255.75C28.7514 255.733 29.1014 255.725 29.4514 255.725C29.8014 255.708 30.0847 255.7 30.3014 255.7H35.5014V258H24.0264ZM45.4889 258V253.875H37.4389V252.05C37.4722 251.967 37.5222 251.867 37.5889 251.75C37.6722 251.633 37.7639 251.5 37.8639 251.35L44.7389 241.5H48.0139V251.8H50.8139V253.875H48.0139V258H45.4889ZM39.9389 251.8H45.4889V245.975C45.4889 245.575 45.4972 245.167 45.5139 244.75C45.5472 244.317 45.5722 243.892 45.5889 243.475H45.5389C45.3555 243.875 45.1139 244.317 44.8139 244.8C44.5305 245.267 44.2639 245.675 44.0139 246.025L40.1139 251.575C40.0805 251.608 40.0472 251.642 40.0139 251.675C39.9972 251.708 39.9722 251.75 39.9389 251.8ZM53.9656 263.25V245.5H56.3406L56.5406 249L56.1906 248.575C56.3906 247.925 56.699 247.35 57.1156 246.85C57.5323 246.35 58.049 245.958 58.6656 245.675C59.299 245.392 59.9906 245.25 60.7406 245.25C61.7573 245.25 62.6823 245.508 63.5156 246.025C64.349 246.542 65.0073 247.283 65.4906 248.25C65.974 249.2 66.2156 250.358 66.2156 251.725C66.2156 253.092 65.9656 254.267 65.4656 255.25C64.9823 256.217 64.3156 256.958 63.4656 257.475C62.6323 257.992 61.699 258.25 60.6656 258.25C59.599 258.25 58.6906 257.975 57.9406 257.425C57.1906 256.858 56.6573 256.142 56.3406 255.275L56.6406 254.85V263.25H53.9656ZM60.0906 256.075C61.174 256.075 62.0156 255.692 62.6156 254.925C63.2323 254.158 63.5406 253.1 63.5406 251.75C63.5406 250.4 63.2406 249.342 62.6406 248.575C62.0406 247.792 61.2073 247.4 60.1406 247.4C59.4406 247.4 58.824 247.583 58.2906 247.95C57.774 248.3 57.3656 248.8 57.0656 249.45C56.7823 250.083 56.6406 250.85 56.6406 251.75C56.6406 252.633 56.7823 253.4 57.0656 254.05C57.349 254.7 57.749 255.2 58.2656 255.55C58.7823 255.9 59.3906 256.075 60.0906 256.075ZM71.0035 245.5L74.5285 250.85L75.0285 250.925L80.1035 258H76.9285L73.2535 252.5L72.6785 252.3L67.7785 245.5H71.0035ZM80.0285 245.5L75.1285 252.2L74.5785 252.175L70.5785 258H67.5285L72.8535 250.875L73.3785 250.925L76.9535 245.5H80.0285Z" fill="white"/>
</svg>
