<svg width="100" height="100" viewBox="0 0 100 100" fill="none" xmlns="http://www.w3.org/2000/svg">
<g clip-path="url(#clip0_287_264)">
<rect width="100" height="100" rx="22" fill="black"/>
<path d="M37 30.75C41.9728 30.75 46.7419 32.7254 50.2582 36.2417C53.7746 39.7581 55.75 44.5272 55.75 49.5C55.75 54.4728 53.7746 59.2419 50.2582 62.7583C46.7419 66.2746 41.9728 68.25 37 68.25C32.0272 68.25 27.2581 66.2746 23.7417 62.7583C20.2254 59.2419 18.25 54.4728 18.25 49.5C18.25 44.5272 20.2254 39.7581 23.7417 36.2417C27.2581 32.7254 32.0272 30.75 37 30.75ZM65.125 33.875C69.8125 33.875 72.9375 40.8719 72.9375 49.5C72.9375 58.1281 69.8125 65.125 65.125 65.125C60.4375 65.125 57.3125 58.1281 57.3125 49.5C57.3125 40.8719 60.4375 33.875 65.125 33.875ZM77.625 35.4375C78.8125 35.4375 79.85 38.0219 80.375 42.4563L80.5219 43.8406L80.5812 44.575L80.675 46.1188L80.7062 46.9281L80.7437 48.6188L80.75 49.5L80.7437 50.3812L80.7062 52.0719L80.675 52.8844L80.5812 54.425L80.5187 55.1594L80.3781 56.5437C79.85 60.9812 78.8156 63.5625 77.625 63.5625C76.4375 63.5625 75.4 60.9781 74.875 56.5437L74.7281 55.1594L74.6687 54.425L74.575 52.8812L74.5437 52.0719L74.5062 50.3812V48.6188L74.5437 46.9281L74.575 46.1156L74.6687 44.575L74.7312 43.8406L74.8719 42.4563C75.4 38.0188 76.4344 35.4375 77.625 35.4375Z" fill="white"/>
</g>
<defs>
<clipPath id="clip0_287_264">
<rect width="100" height="100" fill="white"/>
</clipPath>
</defs>
</svg>
