<svg width="60" height="15" viewBox="0 0 60 15" fill="none" xmlns="http://www.w3.org/2000/svg">
<rect width="60" height="15" rx="7.5" fill="#EDDEFF"/>
<path d="M13.7926 4.45455H14.7386L16.9631 9.88778H17.0398L19.2642 4.45455H20.2102V11H19.4688V6.02699H19.4048L17.3594 11H16.6435L14.598 6.02699H14.5341V11H13.7926V4.45455ZM23.7554 11.1023C23.2824 11.1023 22.8744 10.9979 22.5313 10.7891C22.1904 10.5781 21.9273 10.2841 21.7419 9.90696C21.5587 9.5277 21.4671 9.08665 21.4671 8.58381C21.4671 8.08097 21.5587 7.63778 21.7419 7.25426C21.9273 6.86861 22.1851 6.56818 22.5154 6.35298C22.8477 6.13565 23.2355 6.02699 23.6787 6.02699C23.9344 6.02699 24.1869 6.0696 24.4362 6.15483C24.6855 6.24006 24.9124 6.37855 25.1169 6.57031C25.3215 6.75994 25.4845 7.01136 25.6059 7.32457C25.7274 7.63778 25.7881 8.02344 25.7881 8.48153V8.80114H22.004V8.14915H25.021C25.021 7.87216 24.9656 7.625 24.8548 7.40767C24.7462 7.19034 24.5906 7.01882 24.3882 6.89311C24.1879 6.7674 23.9514 6.70455 23.6787 6.70455C23.3783 6.70455 23.1183 6.77912 22.8989 6.92827C22.6816 7.07528 22.5143 7.26705 22.3971 7.50355C22.2799 7.74006 22.2213 7.99361 22.2213 8.2642V8.69886C22.2213 9.0696 22.2852 9.38388 22.4131 9.64169C22.5431 9.89737 22.7231 10.0923 22.9532 10.2266C23.1833 10.3587 23.4507 10.4247 23.7554 10.4247C23.9536 10.4247 24.1325 10.397 24.2923 10.3416C24.4543 10.2841 24.5938 10.1989 24.711 10.0859C24.8282 9.97088 24.9188 9.82812 24.9827 9.65767L25.7114 9.86222C25.6347 10.1094 25.5058 10.3267 25.3247 10.5142C25.1436 10.6996 24.9198 10.8445 24.6535 10.9489C24.3872 11.0511 24.0878 11.1023 23.7554 11.1023ZM28.9937 11.1023C28.5207 11.1023 28.1127 10.9979 27.7696 10.7891C27.4287 10.5781 27.1656 10.2841 26.9802 9.90696C26.797 9.5277 26.7053 9.08665 26.7053 8.58381C26.7053 8.08097 26.797 7.63778 26.9802 7.25426C27.1656 6.86861 27.4234 6.56818 27.7536 6.35298C28.086 6.13565 28.4738 6.02699 28.917 6.02699C29.1727 6.02699 29.4252 6.0696 29.6744 6.15483C29.9237 6.24006 30.1507 6.37855 30.3552 6.57031C30.5597 6.75994 30.7227 7.01136 30.8442 7.32457C30.9656 7.63778 31.0264 8.02344 31.0264 8.48153V8.80114H27.2423V8.14915H30.2593C30.2593 7.87216 30.2039 7.625 30.0931 7.40767C29.9845 7.19034 29.8289 7.01882 29.6265 6.89311C29.4262 6.7674 29.1897 6.70455 28.917 6.70455C28.6166 6.70455 28.3566 6.77912 28.1372 6.92827C27.9198 7.07528 27.7526 7.26705 27.6354 7.50355C27.5182 7.74006 27.4596 7.99361 27.4596 8.2642V8.69886C27.4596 9.0696 27.5235 9.38388 27.6514 9.64169C27.7813 9.89737 27.9614 10.0923 28.1915 10.2266C28.4216 10.3587 28.689 10.4247 28.9937 10.4247C29.1919 10.4247 29.3708 10.397 29.5306 10.3416C29.6926 10.2841 29.8321 10.1989 29.9493 10.0859C30.0665 9.97088 30.157 9.82812 30.221 9.65767L30.9497 9.86222C30.873 10.1094 30.7441 10.3267 30.5629 10.5142C30.3818 10.6996 30.1581 10.8445 29.8918 10.9489C29.6254 11.0511 29.3261 11.1023 28.9937 11.1023ZM34.3087 6.09091V6.73011H31.7646V6.09091H34.3087ZM32.5061 4.91477H33.2604V9.59375C33.2604 9.80682 33.2913 9.96662 33.3531 10.0732C33.417 10.1776 33.498 10.2479 33.596 10.2841C33.6961 10.3182 33.8016 10.3352 33.9124 10.3352C33.9955 10.3352 34.0637 10.331 34.1169 10.3224C34.1702 10.3118 34.2128 10.3033 34.2448 10.2969L34.3982 10.9744C34.347 10.9936 34.2757 11.0128 34.184 11.032C34.0924 11.0533 33.9763 11.0639 33.8357 11.0639C33.6226 11.0639 33.4138 11.0181 33.2093 10.9265C33.0068 10.8349 32.8385 10.6953 32.7043 10.5078C32.5722 10.3203 32.5061 10.0838 32.5061 9.7983V4.91477ZM38.0512 4.45455H38.8438V9.13352C38.8438 9.55114 38.7671 9.90589 38.6137 10.1978C38.4603 10.4897 38.2441 10.7113 37.9649 10.8626C37.6858 11.0138 37.3566 11.0895 36.9774 11.0895C36.6194 11.0895 36.3009 11.0245 36.0218 10.8945C35.7426 10.7624 35.5232 10.5749 35.3634 10.332C35.2036 10.0891 35.1237 9.80043 35.1237 9.46591H35.9035C35.9035 9.65128 35.9493 9.81321 36.0409 9.9517C36.1347 10.0881 36.2625 10.1946 36.4244 10.2713C36.5864 10.348 36.7707 10.3864 36.9774 10.3864C37.2053 10.3864 37.3992 10.3384 37.559 10.2425C37.7188 10.1467 37.8403 10.006 37.9234 9.82067C38.0086 9.63317 38.0512 9.40412 38.0512 9.13352V4.45455ZM41.7746 11.1151C41.4635 11.1151 41.1812 11.0565 40.9276 10.9393C40.6741 10.82 40.4727 10.6484 40.3236 10.4247C40.1744 10.1989 40.0999 9.92614 40.0999 9.60653C40.0999 9.32528 40.1553 9.0973 40.2661 8.92259C40.3769 8.74574 40.5249 8.60724 40.7103 8.5071C40.8957 8.40696 41.1002 8.33239 41.324 8.28338C41.5498 8.23224 41.7767 8.19176 42.0047 8.16193C42.303 8.12358 42.5448 8.09482 42.7302 8.07564C42.9177 8.05433 43.0541 8.01918 43.1393 7.97017C43.2267 7.92116 43.2703 7.83594 43.2703 7.71449V7.68892C43.2703 7.37358 43.184 7.12855 43.0115 6.95384C42.841 6.77912 42.5821 6.69176 42.2348 6.69176C41.8747 6.69176 41.5924 6.7706 41.3879 6.92827C41.1833 7.08594 41.0395 7.25426 40.9564 7.43324L40.2405 7.17756C40.3683 6.87926 40.5388 6.64702 40.7519 6.48082C40.9671 6.3125 41.2014 6.19531 41.455 6.12926C41.7107 6.06108 41.9621 6.02699 42.2093 6.02699C42.3669 6.02699 42.548 6.04616 42.7526 6.08452C42.9593 6.12074 43.1585 6.19638 43.3502 6.31143C43.5441 6.42649 43.705 6.60014 43.8328 6.83239C43.9607 7.06463 44.0246 7.37571 44.0246 7.76562V11H43.2703V10.3352H43.232C43.1808 10.4418 43.0956 10.5558 42.9763 10.6772C42.857 10.7987 42.6982 10.902 42.5001 10.9872C42.3019 11.0724 42.0601 11.1151 41.7746 11.1151ZM41.8896 10.4375C42.1879 10.4375 42.4394 10.3789 42.6439 10.2617C42.8506 10.1445 43.0061 9.99325 43.1105 9.80788C43.2171 9.62251 43.2703 9.42756 43.2703 9.22301V8.53267C43.2384 8.57102 43.1681 8.60618 43.0594 8.63814C42.9529 8.66797 42.8293 8.6946 42.6887 8.71804C42.5502 8.73935 42.4149 8.75852 42.2828 8.77557C42.1528 8.79048 42.0473 8.80327 41.9664 8.81392C41.7703 8.83949 41.5871 8.88104 41.4166 8.93857C41.2483 8.99396 41.1119 9.07812 41.0075 9.19105C40.9053 9.30185 40.8541 9.45312 40.8541 9.64489C40.8541 9.90696 40.9511 10.1051 41.145 10.2393C41.341 10.3714 41.5892 10.4375 41.8896 10.4375ZM45.4013 11V6.09091H46.13V6.85795H46.1939C46.2962 6.59588 46.4613 6.3924 46.6893 6.24751C46.9173 6.1005 47.1911 6.02699 47.5107 6.02699C47.8345 6.02699 48.104 6.1005 48.3192 6.24751C48.5366 6.3924 48.706 6.59588 48.8274 6.85795H48.8786C49.0043 6.6044 49.1928 6.40305 49.4442 6.25391C49.6957 6.10263 49.9972 6.02699 50.3487 6.02699C50.7876 6.02699 51.1467 6.16442 51.4258 6.43928C51.7049 6.712 51.8445 7.13707 51.8445 7.71449V11H51.0902V7.71449C51.0902 7.35227 50.9911 7.09339 50.793 6.93786C50.5948 6.78232 50.3615 6.70455 50.093 6.70455C49.7479 6.70455 49.4805 6.80895 49.2908 7.01776C49.1012 7.22443 49.0064 7.48651 49.0064 7.80398V11H48.2393V7.63778C48.2393 7.35866 48.1488 7.13388 47.9677 6.96342C47.7866 6.79084 47.5533 6.70455 47.2678 6.70455C47.0717 6.70455 46.8885 6.75675 46.718 6.86115C46.5497 6.96555 46.4134 7.11044 46.3089 7.29581C46.2067 7.47905 46.1555 7.69105 46.1555 7.93182V11H45.4013Z" fill="black"/>
<rect x="3" y="4" width="7" height="7" rx="3.5" fill="#A259FF"/>
</svg>
