<svg width="250" height="250" viewBox="0 0 250 250" fill="none" xmlns="http://www.w3.org/2000/svg">
<g clip-path="url(#clip0_524_749)">
<path fill-rule="evenodd" clip-rule="evenodd" d="M205.571 219.321C202.888 208.918 200.421 204.506 195.655 200.89C191.197 197.508 184.69 194.668 175.195 192.592C165.306 190.864 165.025 185.725 162.546 177.465C161.822 174.982 158.238 174.321 156.69 176.111C156.472 175.876 156.245 175.66 156.009 175.465C156.22 174.281 154.496 170.887 154.553 169.754C155.155 157.931 151.286 151.994 141.632 149.786C139.533 149.306 125.272 149.024 123.224 149.59C114.275 152.063 105.465 159.918 106.813 169.38C104.004 173.051 101.254 175.291 96.9201 176.474C87.2747 177.698 77.6303 178.787 67.9825 179.719C49.097 182.68 31.3903 192.675 19.2882 207.251C18.172 208.596 17.8495 210.423 18.8347 211.857C18.0629 215.162 13.7189 223.178 17.137 225.444C11.5162 238.884 -1.41619 264.863 -1.44045 272.285C-1.54238 303.463 1.82626 344.047 32.5991 361.301C33.8312 362.512 34.0075 363.852 34.541 365.654C35.8939 371.33 40.8073 375.387 46.1852 375.056C72.6776 375.644 98.3373 372.413 124.83 372.256C136.514 372.187 150.564 373.931 160.713 375.092C170.863 376.254 181.108 375.227 190.848 372.256C191.669 373.549 193.33 374.302 195.014 373.931C205.111 371.925 213.276 365.704 220.388 358.905C222.561 354.952 231.048 343.69 227.675 339.77C230.733 326.845 230.574 312.957 225.139 300.649C225.91 298.393 224.506 295.913 225.139 293.584C225.598 291.898 226.773 291.2 227.364 289.531C228.196 287.182 227.291 284.03 226.354 281.632C225.97 280.438 227.061 279.152 227.364 277.932C228.801 272.182 225.51 272.689 223.138 268.844C223.173 268.832 223.79 266.088 223.787 266.102C224.15 264.142 223.24 261.632 222.447 259.996C221.91 258.891 220.761 258.199 219.619 258.326C220.769 254.423 222.223 251.175 223.787 247.414C226.553 240.786 230.054 234.438 234.026 228.438C235.652 225.981 233.468 223.135 230.836 222.967C222.316 222.426 213.891 221.2 205.571 219.321Z" fill="white"/>
<path fill-rule="evenodd" clip-rule="evenodd" d="M180.708 269.449C177.3 268.113 173.631 267.375 169.944 267.088C171.929 266.74 173.92 266.405 175.928 266.233C177.328 266.113 178.627 266.125 179.679 267.187C180.381 267.895 180.711 268.806 181.172 269.643C181.022 269.575 180.865 269.511 180.708 269.449ZM217.281 256.958C211.7 257.242 206.114 258.568 201.066 260.972C199 261.957 197.129 263.379 196.581 265.718C196.304 266.913 196.372 268.147 196.519 269.354C196.63 270.268 196.658 271.434 197.452 272.053C197.587 272.158 197.732 272.238 197.883 272.296C196.021 273.136 194.248 274.146 192.672 275.186C191.231 276.137 189.751 277.603 189.086 279.255C189.031 279.068 188.975 278.893 188.92 278.726C187.787 275.377 186.042 272.635 183.293 270.791C183.78 270.573 184.115 270.055 183.958 269.341C183.306 266.359 180.55 263.767 177.439 263.952C174.032 264.152 170.372 265.392 167.29 266.959C166.167 266.934 165.047 266.95 163.939 266.999C163.748 267.005 163.757 267.264 163.939 267.285C164.838 267.399 165.736 267.525 166.635 267.673C168.771 268.015 170.901 268.449 172.985 268.987C175.484 269.634 178.07 270.283 180.406 271.413C184.937 273.608 187.741 279.345 187.165 284.337C187.07 285.156 186.753 287.631 185.617 287.375C184.657 287.16 184.275 285.156 183.94 284.414C183.041 282.444 181.422 281.158 179.48 280.287C177.199 279.262 174.758 278.569 172.394 277.763C171.055 277.304 169.716 276.845 168.374 276.39C167.001 275.919 165.696 275.269 164.234 275.599C163.351 275.799 163.249 276.851 163.745 277.455C164.499 278.375 165.619 278.646 166.706 279.025C168.14 279.523 169.572 280.022 171.003 280.52C173.216 281.29 175.534 281.939 177.691 282.881L177.624 283.035C177.448 282.986 177.242 283.161 177.276 283.377C177.599 285.368 178.048 287.671 177.549 289.666C177.156 291.247 175.767 292.999 173.964 292.534C174.247 292.275 174.352 291.829 174.161 291.417C173.446 289.89 164.09 283.863 163.255 286.101C163.228 286.181 163.314 286.239 163.382 286.227C164.093 286.079 165.284 287.292 165.853 287.677C166.675 288.231 167.509 288.773 168.322 289.342C169.211 289.964 170.079 290.617 170.926 291.29C171.591 291.82 172.092 292.371 172.855 292.639C172.456 292.829 172.138 293.183 172.003 293.636C171.658 294.815 170.994 295.815 169.839 296.336C168.63 296.877 167.266 296.535 165.992 296.668C164.256 296.843 162.741 297.668 161.476 298.847C158.82 301.328 157.487 305.699 153.772 306.871C151.553 307.57 149.091 307.13 146.844 306.813C144.335 306.459 141.891 306.179 139.364 306.548C136.945 306.902 134.658 307.739 132.448 308.761C130.376 309.718 128.086 310.802 126.249 312.23C125.87 311.063 125.488 309.909 125.199 308.718C124.516 305.902 124.146 303.033 124.057 300.14C123.974 297.385 124.128 294.618 124.365 291.875C124.482 290.506 124.667 289.142 124.784 287.772C124.814 287.428 124.876 287.058 124.922 286.689C128.203 284.753 131.65 283.269 135.125 281.743C135.135 281.74 135.144 281.733 135.153 281.73C135.261 281.681 135.366 281.635 135.473 281.589C135.47 281.582 135.467 281.577 135.461 281.57C135.858 281.327 136.135 281.004 136.301 280.641C141.309 277.319 145.495 272.786 148.617 267.497C149.925 265.281 151.184 262.982 152.895 261.04C154.717 258.968 156.881 257.737 159.559 257.097C162.689 256.346 165.915 255.896 169.122 255.641C170.874 255.503 172.831 255.287 174.74 255.297C176.069 255.305 177.371 255.419 178.565 255.749C180.335 256.235 181.37 257.58 182.481 258.941C183.543 260.246 184.598 261.554 185.589 262.915C186.528 264.204 187.415 265.537 188.184 266.934C188.646 267.771 189.074 268.634 189.434 269.523C189.56 269.837 189.726 270.194 189.803 270.52C189.88 270.849 189.739 271.198 190.108 271.198C188.584 271.219 188.6 273.653 190.114 273.564C196.042 273.219 187.55 261.646 186.309 260.033C184.552 257.749 182.739 254.77 179.926 253.708C179.886 253.693 179.843 253.678 179.803 253.665C180.622 252.889 181.268 251.96 181.887 251.015C182.524 250.042 183.284 248.928 183.493 247.774C183.626 247.038 182.712 246.619 182.278 247.263C181.647 248.201 181.342 249.39 180.871 250.421C180.391 251.467 179.806 252.455 179.344 253.511C178.233 253.169 177.033 253.013 175.811 252.96C177.353 250.873 179.987 246.847 180.305 246.33C181.764 243.935 183.152 241.467 184.478 238.995C185.912 236.317 187.141 233.529 188.514 230.82C189.292 229.284 190.077 227.736 190.942 226.246C191.241 225.735 191.561 225.224 191.924 224.759C191.995 224.667 192.084 224.59 192.167 224.504C192.263 224.452 192.361 224.393 192.416 224.363C192.915 224.076 193.091 223.412 193.441 222.99C194.002 222.31 194.66 222.23 195.504 222.22C197.301 222.202 199.105 222.272 200.899 222.322C203.537 222.396 206.172 222.5 208.807 222.639C209.604 222.682 210.398 222.725 211.195 222.774C215.027 223.002 218.856 223.3 222.676 223.667C226.056 223.99 229.436 224.517 232.818 224.769C228.238 235.65 223.16 246.333 217.41 256.645C217.351 256.749 217.308 256.854 217.281 256.958ZM191.868 284.99C191.13 285.329 190.412 285.75 189.745 286.231C189.855 285.483 189.883 284.695 189.852 283.904C190.403 284.495 191.108 284.833 191.868 284.99ZM223.403 266.273C223.35 266.279 223.301 266.306 223.277 266.359C222.255 268.467 222.682 270.822 224.351 272.475C225.225 273.337 227.13 274.309 227.068 275.725C227.016 276.87 225.77 277.83 225.237 278.775C224.742 279.656 224.557 280.622 224.954 281.577C225.462 282.798 226.881 283.285 227.367 284.485C227.983 286.009 226.983 287.847 226.281 289.173C225.628 290.401 224.785 291.629 224.225 292.928C220.473 294.871 217.114 297.85 214.227 300.876C211.066 304.185 208.354 308.078 203.334 307.98C202.833 307.97 202.451 308.235 202.223 308.601C200.826 308.666 199.425 308.694 198.028 308.7C195.572 308.712 193.115 308.687 190.662 308.61C190.49 308.016 190.616 307.21 190.606 306.708C190.576 305.092 190.561 303.479 190.493 301.863C190.474 301.414 190.456 300.962 190.437 300.512C191.321 302.11 193.045 302.836 195.008 302.725C198.166 302.541 201.343 302.024 204.47 301.559C206.117 301.316 207.76 301.039 209.401 300.743C210.749 300.503 212.651 300.565 213.593 299.484C213.815 299.232 213.827 298.77 213.479 298.601C212.547 298.142 211.959 298.398 210.934 298.595C209.684 298.838 208.431 299.069 207.175 299.284C204.765 299.703 202.349 300.091 199.927 300.432C198.548 300.626 197.166 300.817 195.784 300.968C194.577 301.097 193.217 301.273 192.244 300.365C190.284 298.53 191.382 295.455 192.623 293.602C192.647 293.566 192.647 293.531 192.638 293.501C193.808 293.227 194.974 292.907 196.138 292.682C198.376 292.251 200.629 291.888 202.885 291.565C207.52 290.903 212.187 290.466 216.846 290.026C218.001 289.915 218.013 288.099 216.846 288.207C210.152 288.819 203.424 289.401 196.818 290.691C195.162 291.01 193.518 291.374 191.884 291.783C191.112 291.974 190.284 292.273 189.474 292.282C189.425 292.282 189.375 292.282 189.326 292.279C187.741 292.23 187.51 290.872 188.381 289.743C188.489 289.604 188.6 289.465 188.714 289.333C190.253 287.498 192.17 286.273 194.146 285.005C196.36 284.704 198.566 284.033 200.733 283.54C206.083 282.321 211.432 281.102 216.785 279.887C217.834 279.646 217.388 278.034 216.339 278.271C212.276 279.191 208.213 280.111 204.15 281.032L198.203 282.38C197.015 282.648 195.531 283.186 194.134 283.38C193.445 283.476 192.777 283.488 192.173 283.347C190.225 282.885 190.127 280.45 190.967 279.003C191.909 277.378 193.688 276.362 195.267 275.442C198.003 273.844 200.915 272.696 203.759 271.373C204.264 271.262 204.769 271.151 205.273 271.04C208.21 270.394 211.565 270.077 214.329 268.892C215.157 268.541 214.704 267.236 213.886 267.254C211.74 267.301 209.496 268.064 207.4 268.516C205.132 269.009 202.86 269.498 200.592 269.988C200.364 270.037 199.016 270.468 198.813 270.372C198.683 270.311 198.637 269.862 198.594 269.566C198.455 268.593 198.354 267.572 198.505 266.596C198.837 264.407 200.663 263.379 202.509 262.539C206.622 260.671 211.131 259.501 215.619 259.033C216.653 258.925 217.687 258.858 218.727 258.824C219.949 258.787 220.956 258.571 221.574 259.775C222.547 261.671 223.083 264.109 223.403 266.273ZM217.692 335.018C216.796 331.919 217.039 328.61 216.426 325.45C216.109 323.819 215.677 322.201 215.204 320.609C214.823 319.323 214.188 317.955 214.116 316.613C214.111 316.524 214.217 316.472 214.29 316.513C215.554 317.237 216.525 318.802 217.245 320.03C218.108 321.5 218.767 323.039 219.299 324.657C220.358 327.881 221.228 331.769 219.862 335.018C219.455 335.985 218.027 336.179 217.692 335.018ZM190 293.972C190.758 293.898 191.515 293.753 192.272 293.584C191.425 294.409 190.644 295.403 190.209 296.505C190.142 295.659 190.055 294.815 189.942 293.975C189.96 293.975 189.982 293.975 190 293.972ZM182.723 358.478C181.388 357.546 180.415 356.243 179.283 355.094C178.169 353.963 179.91 352.222 181.024 353.353C181.99 354.333 182.829 355.558 183.966 356.351C184.513 356.733 184.767 357.422 184.408 358.036C184.091 358.577 183.269 358.858 182.723 358.478ZM175.277 322.666C177.714 321.612 180.112 320.464 182.663 319.705C184.187 319.251 184.833 321.628 183.317 322.079C180.968 322.779 178.764 323.822 176.52 324.792C175.079 325.415 173.826 323.293 175.277 322.666ZM149.536 321.929C148.939 320.458 151.323 319.824 151.91 321.274C152.586 322.943 153.361 324.569 154.037 326.238C154.633 327.709 152.25 328.343 151.663 326.893C150.987 325.224 150.211 323.598 149.536 321.929ZM124.128 351.298C123.731 351.828 123.069 352.115 122.444 351.74C121.92 351.426 121.6 350.592 122.002 350.056C123.176 348.491 124.365 346.946 125.74 345.551C126.855 344.421 128.596 346.163 127.481 347.293C126.253 348.538 125.177 349.901 124.128 351.298ZM120.496 186.505C121.626 187.277 122.616 188.215 123.582 189.18C124.704 190.302 122.963 192.043 121.84 190.921C121.026 190.107 120.206 189.282 119.253 188.631C118.702 188.255 118.455 187.555 118.811 186.947C119.13 186.401 119.946 186.13 120.496 186.505ZM157.459 226.13C156.82 227.41 156.245 228.664 156.209 230.119C156.17 231.703 153.708 231.704 153.747 230.119C153.794 228.215 154.496 226.565 155.333 224.887C156.042 223.468 158.165 224.716 157.459 226.13ZM171.022 194.306C172.346 193.423 173.577 195.557 172.265 196.432C171.201 197.141 170.137 197.85 169.073 198.56C167.75 199.442 166.519 197.308 167.83 196.433C168.894 195.724 169.958 195.015 171.022 194.306ZM112.196 249.948C111.971 251.513 109.598 250.843 109.822 249.293C110.168 246.898 110.591 244.534 111.24 242.201C111.666 240.675 114.041 241.327 113.615 242.856C112.965 245.189 112.542 247.553 112.196 249.948ZM103.563 278.154C101.978 278.121 101.978 275.658 103.563 275.692C104.997 275.723 106.407 276.1 107.791 276.445C109.33 276.83 108.674 279.204 107.136 278.82C105.967 278.527 104.776 278.18 103.563 278.154ZM100.376 334.974C99.8315 335.239 99.2728 335.478 98.7225 335.73C97.6202 336.234 96.5186 336.738 95.4173 337.244C93.123 338.297 90.8298 339.354 88.5389 340.414C83.9527 342.537 79.3311 344.585 74.7337 346.685C70.0456 348.827 65.3699 350.997 60.6999 353.178C58.4998 354.205 56.283 355.194 54.0705 356.195C52.1788 357.05 49.8404 358.545 47.7637 358.685C47.6569 358.693 47.6212 358.558 47.6821 358.488C48.4667 357.596 49.7182 357.077 50.7494 356.497C51.8026 355.904 52.8756 355.347 53.9437 354.782C56.1703 353.602 58.3997 352.432 60.6479 351.293C65.1449 349.018 69.6504 346.758 74.1569 344.502C78.753 342.201 83.3432 339.884 87.9796 337.664C90.1625 336.619 92.3476 335.577 94.5339 334.538C95.7183 333.976 96.9034 333.414 98.0884 332.853C98.6003 332.611 99.1069 332.349 99.6302 332.133C100.325 331.845 100.854 331.904 101.571 331.726C102.741 331.438 103.247 332.925 102.349 333.573C101.61 334.106 101.221 334.562 100.376 334.974ZM83.9376 360.224C83.6849 359.61 84.214 358.863 84.7976 358.709C85.4966 358.525 86.0571 358.95 86.3123 359.569C86.9873 361.211 87.9488 362.718 89.1865 363.99C90.2927 365.127 88.5524 366.869 87.4453 365.731C85.8943 364.136 84.78 362.272 83.9376 360.224ZM71.8436 320.699C70.721 319.577 72.4626 317.836 73.5848 318.958L76.7761 322.149C77.8986 323.271 76.1568 325.012 75.0349 323.89L71.8436 320.699ZM39.1028 315.496C36.8084 316.169 34.1324 316.788 32.5682 318.745C32.4918 318.841 32.3635 318.718 32.4093 318.622C34.4119 314.471 40.1548 313.015 44.131 311.56C46.9433 310.531 49.829 309.678 52.7389 308.916C52.448 305.596 53.2502 302.038 53.529 298.735C53.8267 295.208 54.0689 291.672 54.1933 288.134C54.3204 284.525 54.3512 280.892 54.2324 277.282C54.1142 273.686 53.6472 270.133 53.4429 266.548C53.4232 266.202 53.9058 266.185 54.0098 266.472C55.2182 269.798 55.7344 273.483 56.1278 276.99C56.5329 280.603 56.6674 284.206 56.6157 287.84C56.5621 291.577 56.3448 295.305 56.0465 299.03C55.9053 300.795 55.7412 302.558 55.5864 304.323C55.4682 305.669 55.4134 307.004 55.1388 308.308C56.8939 307.877 58.653 307.47 60.4065 307.074C65.998 305.812 71.6129 304.641 77.181 303.277C79.9143 302.607 82.6084 301.805 85.3294 301.093C87.8915 300.422 90.5959 299.609 93.2263 299.31C94.1651 299.203 94.2845 300.487 93.6631 300.923C91.5251 302.424 88.6856 303.469 86.2162 304.309C83.7378 305.152 81.1615 305.759 78.6212 306.384C73.3237 307.686 67.9759 308.752 62.6362 309.861C57.3039 310.97 51.9614 312.07 46.6891 313.437C44.1501 314.096 41.6196 314.757 39.1028 315.496ZM26.5303 249.62C25.1594 250.424 23.9217 248.295 25.2877 247.493C27.0751 246.444 28.9801 245.656 30.9005 244.887C32.3742 244.297 33.0083 246.68 31.5551 247.262C29.8293 247.953 28.1364 248.677 26.5303 249.62ZM21.5659 341.103C20.1913 341.9 18.9527 339.771 20.3233 338.977C22.2483 337.861 24.3564 337.116 26.3513 336.14C27.7706 335.445 29.0172 337.57 27.5939 338.266C25.5993 339.243 23.4909 339.987 21.5659 341.103ZM19.3332 289.172C20.6623 290.435 22.4362 291.029 24.1087 291.693C25.5671 292.27 24.9275 294.651 23.4541 294.067C21.3702 293.241 19.2477 292.486 17.592 290.913C16.4402 289.819 18.1845 288.081 19.3332 289.172ZM34.0372 218.648C35.4983 219.221 34.8584 221.602 33.3825 221.023C31.7457 220.38 30.0552 219.892 28.4183 219.25C26.9575 218.676 27.5971 216.296 29.073 216.875C30.7099 217.517 32.4003 218.006 34.0372 218.648ZM59.9762 190.636C61.5287 190.374 62.1899 192.747 60.6309 193.01C58.6967 193.337 56.792 193.719 54.9575 194.429C53.4761 195.002 52.8405 192.62 54.3028 192.054C56.1376 191.345 58.0423 190.962 59.9762 190.636ZM68.5472 258.839C67.1236 258.139 68.3727 256.016 69.7898 256.713C71.2832 257.447 72.8305 258.015 74.46 258.361C76.0116 258.692 75.3508 261.065 73.8053 260.736C71.9715 260.345 70.2265 259.665 68.5472 258.839ZM76.6419 220.421C78.1748 220.001 78.823 222.377 77.2966 222.795C74.6111 223.531 71.8461 223.914 69.1408 224.568C67.5991 224.941 66.9468 222.566 68.4861 222.194C71.1914 221.539 73.9567 221.157 76.6419 220.421ZM110.982 208.365C112.54 208.653 111.876 211.026 110.327 210.74C108.678 210.435 107.007 210.43 105.336 210.429C103.749 210.428 103.752 207.966 105.336 207.966C107.235 207.967 109.11 208.019 110.982 208.365ZM222.978 221.229C218.955 220.845 214.926 220.537 210.89 220.306C210.702 220.296 210.518 220.284 210.33 220.275C210.309 220.232 210.281 220.192 210.253 220.149C208.936 218.216 207.966 216.283 207.126 214.097C206.323 212.017 205.544 209.872 204.307 207.994C202.895 205.855 200.99 204.181 198.902 202.73C197.635 203.582 196.46 204.579 195.384 205.636C194.253 206.748 192.511 205.007 193.643 203.895C194.599 202.956 195.619 202.088 196.697 201.304C195.452 200.547 194.182 199.836 192.943 199.129C188.298 196.479 183.542 194.029 178.688 191.788C176.432 190.745 174.148 189.818 171.849 188.879C170.611 188.375 169.39 187.725 168.152 187.141C168.242 186.266 167.98 185.287 167.309 184.712C166.813 184.29 166.429 184.133 165.838 183.835C165.705 183.788 165.625 183.761 165.588 183.745C165.616 183.751 165.696 183.776 165.828 183.819C166.142 183.964 166.167 183.921 165.902 183.693C165.887 183.195 164.905 182.142 164.68 181.628C163.899 179.864 163.655 177.999 162.501 176.392C160.91 174.179 158.238 173.342 155.748 174.093C155.489 171.43 155.422 168.651 154.418 166.274C154.391 166.21 154.301 166.182 154.261 166.253C153.215 168.035 153.126 170.02 153.046 172.076C152.969 174.006 153.042 175.979 153.295 177.897C153.135 178.02 152.972 178.137 152.802 178.251C152.008 178.774 151.153 179.177 150.254 179.476C148.542 180.042 146.748 180.289 144.953 180.375C140.321 180.596 135.547 180.129 130.992 179.334C126.384 178.531 119.32 177.324 115.22 175.019C112.514 173.499 110.018 171.642 107.488 169.845C108.405 166.89 108.639 163.714 107.716 161.217C107.605 160.919 107.137 160.863 107.048 161.217C106.469 163.6 106.3 165.994 105.53 168.349C105.518 168.383 105.506 168.42 105.494 168.454C105.253 168.291 105.013 168.13 104.773 167.97C104.219 167.604 103.465 167.878 103.133 168.401C97.8167 176.777 89.3987 177.257 80.5586 178.753C70.8842 180.39 61.1611 182.157 51.8594 185.361C42.9639 188.427 34.4625 192.89 27.7278 199.557C26.2033 201.067 24.7776 202.675 23.4319 204.354C24.7339 204.518 26.0251 204.773 27.2997 205.174C28.8088 205.648 28.1603 208.024 26.645 207.548C25.0069 207.034 23.3506 206.779 21.6774 206.652C17.1014 212.912 13.5333 220.01 10.448 226.997C4.52989 240.393 0.67777 254.659 -1.09485 269.183C-0.121586 268.6 0.869222 268.044 1.88465 267.527C3.29561 266.81 4.54004 268.935 3.12755 269.654C1.559 270.452 0.0353916 271.331 -1.44082 272.284C-2.08566 278.642 -2.33559 285.041 -2.18415 291.429C-1.82403 306.659 0.232076 322.335 4.88293 336.866C7.16373 343.998 10.1863 351.072 14.6894 357.098C16.7271 359.828 19.0417 362.291 21.7688 364.344C23.0893 365.341 24.4867 366.231 25.9611 366.982C27.8602 367.954 30.3349 368.274 31.9724 369.65C32.5111 370.103 32.9266 370.7 33.2405 371.374C33.0589 372.654 33.0374 373.938 33.3883 375.218C33.4991 375.619 33.8007 375.945 34.1732 376.102C34.1793 376.213 34.1793 376.32 34.1793 376.425C34.1793 376.474 34.2532 376.486 34.2624 376.438C34.2778 376.342 34.2932 376.246 34.3086 376.148C34.4287 376.188 34.5549 376.207 34.6841 376.207C39.3596 376.224 44.0409 376.11 48.7226 375.952C48.3606 374.843 47.9685 373.743 47.592 372.634C47.0808 371.128 49.4598 370.487 49.9664 371.98C50.4069 373.276 50.8673 374.561 51.277 375.862C56.2932 375.676 61.3079 375.452 66.3137 375.286C76.9605 374.932 87.6042 374.815 98.2538 374.591C114.792 374.24 131.451 373.522 148.015 374.224C148.588 373.009 149.229 371.821 149.837 370.622C150.554 369.206 152.678 370.454 151.963 371.865C151.54 372.698 151.103 373.521 150.687 374.352C154.042 374.526 157.393 374.757 160.737 375.071C166.444 375.606 172.095 376.557 177.796 377.149C183.591 377.752 189.261 377.644 195.011 376.687C196.045 376.515 196.655 375.889 196.907 375.114C196.916 375.111 196.922 375.105 196.928 375.095C197.224 374.75 197.501 374.465 197.787 374.215C198.129 373.994 198.498 373.806 198.932 373.639C199.742 373.332 200.585 373.144 201.441 373.018C202.383 372.876 203.337 372.864 204.279 372.747C205.073 372.645 205.849 372.494 206.624 372.31C208.019 371.978 209.342 371.544 210.66 370.968C211.808 370.466 212.845 369.746 213.824 368.961C215.849 367.48 217.603 365.591 219.136 363.627C220.029 362.479 220.869 361.287 221.633 360.047C222.962 357.898 224.095 355.667 225.24 353.417C225.656 352.75 226.035 352.067 226.381 351.37C224.144 350.711 221.884 350.174 219.512 350.135C217.926 350.11 217.927 347.647 219.512 347.673C222.233 347.716 224.806 348.352 227.363 349.109C227.488 348.778 227.607 348.445 227.718 348.107C228.023 347.403 228.275 346.679 228.484 345.947C228.607 345.614 228.73 345.282 228.854 344.949C229.131 343.798 229.408 342.644 229.688 341.49C230.245 339.643 230.685 337.768 231.008 335.869C231.279 334.62 231.488 333.361 231.63 332.086C232.061 328.999 232.412 325.918 232.436 322.797C232.399 320.873 232.276 318.953 232.067 317.041C231.978 315.742 231.827 314.449 231.624 313.166C231.359 311.258 231.097 309.368 230.657 307.484C230.328 306.21 229.999 304.935 229.669 303.661C228.847 301.005 227.878 298.401 226.76 295.855C226.699 295.695 226.388 295.344 226.2 295.341C226.059 295.338 225.861 295.467 225.926 295.64C225.933 295.655 225.938 295.674 225.945 295.689C225.88 295.544 225.819 295.397 225.754 295.252C225.699 295.116 225.483 294.846 225.317 294.849C225.308 294.849 225.298 294.849 225.286 294.852C225.329 294.821 225.369 294.781 225.409 294.735C226.514 293.427 227.231 291.706 228.023 290.192C228.678 288.942 229.297 287.625 229.475 286.212C229.632 284.972 229.42 283.749 228.641 282.746C227.755 281.604 226.086 281.068 227.013 279.419C228.066 277.541 229.614 275.913 228.072 273.78C227.287 272.693 226.043 272.096 225.12 271.151C224.058 270.058 223.553 268.596 223.581 267.104C223.646 267.141 223.732 267.122 223.763 267.03C224.655 264.333 224.009 261.373 223.095 258.747C222.596 257.322 221.54 256.931 220.312 256.86C225.631 246.472 230.608 235.917 235.043 225.12C235.191 224.766 235.336 224.412 235.48 224.058C235.696 223.528 235.24 222.824 234.714 222.707C230.879 221.866 226.884 221.598 222.978 221.229Z" fill="black"/>
<path fill-rule="evenodd" clip-rule="evenodd" d="M105.944 28.1627C125.34 27.1039 142.524 21.6542 156.177 33.8508C156.177 33.8508 178.264 17.3567 181.949 23.6387C184.419 27.8481 180.994 33.4989 181.912 38.6932C187.9 48.9 187.561 66.1762 187.9 70.2248C188.753 80.4295 194.127 118.83 194.127 127.948C194.127 132.603 190.29 144.793 187.9 151.577C182.58 166.677 172.426 174.372 155.774 174.372C139.122 174.372 111.942 160.454 103.225 148.097C102.461 147.014 97.5206 150.173 92.3533 144.693C86.7554 138.755 83.65 127.431 83.65 120.68C83.65 112.114 78.1137 106.173 78.7577 95.2082C80.1958 70.72 85.1899 29.2957 105.944 28.1627Z" fill="white"/>
<path fill-rule="evenodd" clip-rule="evenodd" d="M103.777 -0.308162C104.03 -0.323552 104.285 -0.31124 104.541 -0.286308C104.821 -0.273996 105.101 -0.246602 105.381 -0.19089C106.806 0.0827437 108.077 0.836854 109.062 1.89876C109.09 1.92647 109.111 1.95755 109.136 1.98495C109.598 2.33276 110.026 2.72705 110.41 3.14535C110.478 3.08072 110.543 3.01639 110.613 2.95175C110.817 2.77292 111.029 2.60363 111.251 2.44388C112.178 1.64866 113.266 1.07056 114.436 0.741648L114.596 0.698344C114.627 0.68911 114.658 0.682954 114.689 0.676798C115.52 0.400086 116.394 0.258498 117.274 0.261268C118.327 0.22741 119.383 0.400086 120.368 0.806074C121.534 1.28963 122.55 2.05266 123.403 2.97022C123.963 3.42576 124.452 3.92717 124.969 4.47844C126.037 5.62007 126.881 6.95592 127.413 8.42751C127.487 8.63373 127.552 8.84581 127.61 9.05819C128.912 8.90768 130.22 8.79995 131.528 8.74731C132.997 8.65836 134.465 8.62727 135.936 8.67683C139.99 8.80887 143.954 9.52328 147.793 10.8314C148.562 11.0589 149.31 11.3482 150.03 11.7053C151.16 12.1547 152.228 12.7272 153.235 13.4197L154.092 13.9282C154.523 14.1842 154.953 14.4435 155.371 14.7094C156.365 15.3469 157.307 16.0606 158.199 16.8301C159.141 17.5907 160.031 18.4187 160.877 19.2864C161.107 19.5212 161.329 19.7592 161.548 19.9986C163.499 21.0516 165.232 22.3998 166.849 24.0077C168.131 23.2702 169.458 22.6017 170.828 22.0073C172.241 21.3948 174.036 20.7638 175.516 20.3486C176.846 19.9762 178.16 19.7207 179.493 19.5326C180.099 19.428 180.709 19.3449 181.321 19.2741L181.297 19.2836V19.2836C181.728 19.2371 182.155 19.1971 182.589 19.1602L182.577 19.1571V19.1571C182.762 19.142 182.95 19.1263 183.134 19.114L183.584 19.0774V19.0774C183.719 19.0651 183.916 19.3818 183.928 19.4926L183.944 19.6065V19.6065C184.045 19.7207 184.138 19.8469 184.202 19.9238C184.282 19.9174 184.362 19.9115 184.442 19.9081C184.682 19.8869 184.959 20.3144 185.101 20.4776L185.229 20.628C185.375 20.8033 185.521 21.0053 185.544 21.2255C185.701 22.5032 185.849 23.7833 185.984 25.0638C186.037 26.0334 185.984 26.9937 185.824 27.9448C185.704 28.8682 185.581 29.7916 185.458 30.7119C185.261 31.3586 185.067 32.005 184.873 32.6511C184.796 32.8976 184.71 33.1405 184.627 33.3836C184.135 35.0076 183.558 36.5884 182.87 38.1204C183.372 38.675 183.839 39.25 184.274 39.8437C184.378 39.9505 184.483 40.0567 184.581 40.1675C184.609 40.1247 184.649 40.0847 184.692 40.0629C184.839 39.9982 184.947 40.0752 185.039 40.2017C186.009 41.1279 186.714 42.2086 187.151 43.4425L187.423 44.0861C187.468 44.1937 187.513 44.3014 187.557 44.409C187.905 45.345 188.173 46.3054 188.395 47.2777C188.593 48.0429 188.735 48.8186 188.827 49.6025C189.492 51.835 190.017 54.1189 190.513 56.372C190.591 56.7266 190.554 57.043 190.441 57.3126L190.731 57.5952V57.5952L191.226 58.0885C192.058 58.9183 192.907 59.7906 193.526 60.7778C194.166 61.8028 194.637 62.8986 195.16 63.9854L195.273 64.2163V64.2163L195.503 64.6792C195.752 65.1847 195.872 65.464 196.093 66.0751C196.459 67.0942 196.656 68.1188 196.748 69.1995C196.884 70.7721 196.865 72.4865 196.176 73.9486C196.173 73.9609 196.166 73.9704 196.16 73.9794C195.846 75.3925 195.071 76.7034 193.892 77.5406C193.639 77.7779 193.369 77.9903 193.079 78.1593C192.385 78.5671 191.747 78.6035 190.989 78.4149L190.894 78.3901C190.798 78.3655 190.712 78.344 190.629 78.3255C190.752 78.4271 190.814 78.5474 190.629 78.6333C190.451 78.7195 190.291 78.7687 190.14 78.7872C190.204 78.8703 190.211 78.9596 190.075 79.0334C189.78 79.1904 189.54 79.24 189.293 79.1966L189.345 79.6245C189.749 82.8626 190.11 83.503 190.426 86.9811C190.635 90.5421 190.968 94.0941 191.426 97.631L191.584 98.9162C192.091 102.989 192.66 107.093 193.532 111.1C193.972 112.851 194.35 114.615 194.671 116.391C195.123 117.742 195.44 119.124 195.615 120.534C195.871 121.968 196.046 123.415 196.148 124.874C196.502 125.807 196.674 126.755 196.665 127.721C196.711 129.02 196.668 130.316 196.53 131.606C196.453 132.948 196.268 134.277 195.976 135.595C195.714 137.402 195.237 139.147 194.554 140.84C194.006 142.73 193.335 144.583 192.571 146.395C191.386 149.203 189.955 151.81 188.327 154.38C186.8 156.79 185.163 159.111 183.291 161.269C180.872 164.057 178.114 166.612 175.091 168.766C173.368 170.041 171.549 171.186 169.646 172.165C167.319 173.365 164.956 174.445 162.435 175.175C160.862 175.63 159.261 175.944 157.642 176.185C154.463 176.655 151.169 176.584 147.971 176.034C145.909 175.756 143.88 175.276 141.963 174.59C140.387 174.024 138.885 173.374 137.383 172.642C136.61 172.269 135.865 171.838 135.151 171.355C133.951 170.576 132.827 169.696 131.781 168.723C131.439 168.431 131.107 168.132 130.781 167.818C130.624 167.68 130.71 167.474 130.891 167.425L130.947 167.418V167.418C130.876 167.354 130.802 167.289 130.731 167.221C130.716 167.209 130.704 167.194 130.691 167.178C130.657 167.147 130.62 167.117 130.59 167.086C130.47 166.981 130.59 166.747 130.694 166.692C130.734 166.67 130.787 166.667 130.845 166.673C130.833 166.661 130.824 166.652 130.811 166.643C130.799 166.633 130.796 166.609 130.799 166.584L130.753 166.547V166.547C130.596 166.409 130.676 166.206 130.861 166.153C130.951 166.126 131.099 166.14 131.255 166.173L131.313 166.187L131.208 166.088C131.024 165.928 131.082 165.75 131.31 165.695C131.48 165.705 131.648 165.728 131.814 165.769L131.938 165.802C131.999 165.818 132.058 165.836 132.119 165.855C132.015 165.759 131.91 165.667 131.809 165.571C131.707 165.482 131.815 165.227 131.907 165.175C132.033 165.104 132.279 165.202 132.393 165.285C132.673 165.316 133.043 165.439 133.178 165.556C133.551 165.913 133.935 166.255 134.326 166.587C134.563 166.661 134.788 166.76 134.96 166.907C135.404 167.332 135.865 167.732 136.336 168.12L136.694 168.367C136.754 168.407 136.814 168.447 136.875 168.486C137.552 168.883 138.229 169.277 138.903 169.674C141.375 170.512 143.847 171.349 146.315 172.183L146.641 172.281V172.281L149.039 172.577V172.577C150.615 172.743 152.194 172.734 153.77 172.552C154.952 172.568 156.125 172.451 157.279 172.211C159.24 171.878 161.163 171.389 163.035 170.705C165.189 169.921 167.243 168.887 169.246 167.772C169.967 167.369 170.674 166.941 171.37 166.489C171.595 166.329 171.819 166.165 172.044 165.999C173.525 164.888 174.941 163.703 176.304 162.45C176.944 161.862 177.56 161.25 178.154 160.616C178.24 160.523 178.323 160.435 178.406 160.342C178.976 159.72 179.527 159.077 180.053 158.412L180.555 157.846V157.846C182.58 155.325 184.381 152.613 186 149.821C187.607 147.054 188.93 144.142 189.983 141.129C190.321 140.055 190.617 138.965 190.863 137.864C191.319 136.54 191.617 135.183 191.756 133.798C191.802 133.526 191.839 133.255 191.876 132.985L191.897 132.558C191.9 132.486 191.902 132.415 191.903 132.344C191.965 131.914 192.017 131.483 192.057 131.052C192.082 130.618 192.097 130.184 192.1 129.75L192.067 127.087V127.087C192.057 127.004 192.048 126.918 192.042 126.832L191.974 126.244C191.826 125.031 191.713 123.815 191.565 122.603C191.565 122.596 191.565 122.587 191.562 122.578C191.506 122.125 191.448 121.67 191.38 121.214C191.346 120.943 191.303 120.673 191.263 120.402L191.186 119.928V119.928C191.044 119.104 190.87 118.287 190.66 117.477L190.568 117.13L190.032 114.437L189.429 111.786C189.038 110.01 188.712 108.222 188.453 106.418C187.985 103.544 187.585 100.666 187.237 97.7754C187.219 97.6369 187.2 97.4953 187.185 97.3568C186.831 94.6761 186.575 91.9857 186.409 89.2863C186.185 86.6272 186.055 83.9613 186.021 81.293C186.018 81.1726 186.098 81.0745 186.194 81.0187L186.185 80.5057C186.174 80.0518 186.166 80.5963 186.162 80.0789L186.156 78.6557C186.156 78.537 186.157 78.4545 186.16 78.4486C184.515 78.5623 183.409 78.4691 181.821 78.3855L181.552 78.3717C180.096 78.3043 178.65 78.1442 177.212 77.9038C177.206 77.978 177.157 78.03 177.074 78.0454C176.926 78.0516 176.787 78.0516 176.646 78.0549L176.698 78.2547V78.2547C176.701 78.3566 176.655 78.4209 176.557 78.4486L176.146 78.4671C175.598 78.4901 175.048 78.5009 174.503 78.4271C174.014 78.3627 173.537 78.2485 173.063 78.1131C172.771 78.0639 172.472 77.9965 172.167 77.91C171.385 77.6853 170.61 77.3836 169.825 77.1439C169.025 76.9743 168.212 76.9192 167.363 77.122C166.464 77.3344 165.703 77.7191 164.762 77.4852C164.574 77.4393 164.392 77.3685 164.211 77.2944L164.043 77.2826C164.014 77.2801 163.985 77.277 163.955 77.2728C162.973 77.1315 162.099 76.5098 161.163 76.1771C160.837 76.0975 160.513 76.1176 160.196 76.2497L160.117 76.2851L159.806 76.5159C159.681 76.6635 159.557 76.8125 159.435 76.9621L159.252 77.1866C158.917 77.6022 158.559 77.9746 158.125 78.2455C157.602 78.7287 156.98 79.0119 156.239 79.0304C155.817 79.0427 155.398 78.9534 154.992 78.8244C153.459 79.2985 151.819 79.3939 150.289 78.9322C149.683 78.8395 149.088 78.6767 148.519 78.4209C148.251 78.3009 147.983 78.1593 147.725 78.0023C146.645 78.4582 145.623 79.0642 144.579 79.5878L144.344 79.7058C143.278 80.2369 142.098 80.7548 140.892 80.6774C139.371 80.5786 137.878 80.3757 136.389 80.12C136.376 80.12 136.361 80.1169 136.349 80.1138L136.144 80.0797V80.0797L135.398 79.9489V79.9489L134.797 79.8371V79.8371L134.49 79.9548C132.023 80.8882 129.32 81.6164 126.841 80.9633C125.76 80.8313 124.748 80.4678 123.833 79.8491C123.803 79.8276 123.772 79.806 123.741 79.7814C123.596 79.7075 123.461 79.6247 123.341 79.5355L123.315 79.5153V79.5153L123.292 79.4951L123.279 79.489C121.928 78.8675 121.153 77.5437 121.288 76.0604C121.205 75.5892 121.208 75.1275 121.3 74.6353C120.86 75.1552 120.411 75.6695 119.955 76.1801C118.289 78.1865 116.657 80.233 115.146 82.3635L114.8 82.8566C113.968 84.029 113.196 85.2421 112.482 86.4914C111.758 87.7257 111.017 88.948 110.25 90.1546C109.254 91.2558 108.29 92.3835 107.362 93.5388L106.966 94.0356L105.63 95.7931C104.685 96.9138 103.9 98.1389 103.282 99.4683C102.774 100.414 102.306 101.377 101.884 102.365C101.749 102.663 101.62 102.965 101.493 103.267C101.059 104.445 100.693 105.646 100.407 106.886C100.177 107.784 100.012 108.694 99.9137 109.617L99.8835 109.925C99.8466 110.287 99.8189 110.651 99.8035 111.014C99.8928 111.066 99.9667 111.119 100.022 111.171L100.247 111.251V111.251L100.428 111.305C100.712 111.393 101.201 111.575 101.084 111.799L100.49 112.932V112.932C100.551 112.996 100.579 113.064 100.539 113.138C100.142 113.898 99.742 114.658 99.3418 115.419C99.3295 115.446 99.308 115.468 99.2864 115.483C99.6281 115.64 99.9605 115.812 100.278 116C100.896 116.37 101.352 116.797 101.773 117.296C102.217 117.561 102.635 117.85 103.029 118.183C103.516 118.693 103.94 119.254 104.3 119.86C104.633 120.433 104.904 121.03 105.113 121.654C105.205 121.984 105.249 122.325 105.245 122.673C104.873 125.302 101.866 123.501 101.807 123.27C101.395 121.682 100.921 120.679 99.8558 119.497L99.8281 119.478V119.478C99.2125 119.207 98.6031 118.94 97.966 118.73C97.8705 118.749 97.772 118.761 97.6735 118.777C97.7844 118.934 97.7289 119.088 97.5043 119.115C96.5347 119.306 95.5559 119.358 94.5709 119.275L93.075 119.063V119.063C92.4545 119.301 91.8614 119.607 91.3024 119.971L91.1174 120.094L91.0835 120.119C89.64 121.279 88.5257 122.821 87.7624 124.502C87.6947 124.651 87.6297 124.803 87.5674 124.955L87.4761 125.185L87.47 125.197C86.4727 129.116 87.3622 133.419 89.1844 136.974C90.1786 138.565 91.2159 140.126 92.2994 141.655L93.352 143.032V143.032C93.9738 143.616 94.5832 144.216 95.1773 144.832C95.2696 144.924 95.3681 145.017 95.4666 145.106C95.7806 145.312 96.1007 145.494 96.427 145.648C96.5532 145.691 96.6824 145.731 96.8117 145.765C97.4396 146.066 98.0983 146.226 98.7909 146.245C99.7056 146.306 100.593 146.198 101.451 145.926L101.623 145.869L101.749 145.823C102.217 145.524 102.651 145.152 103.063 144.715C103.155 144.619 103.328 144.619 103.525 144.672C103.633 144.561 103.74 144.444 103.842 144.318C103.913 144.241 104.023 144.238 104.11 144.296C104.402 144.263 105.193 144.712 104.987 144.949C104.953 145.004 104.91 145.053 104.873 145.106C105.011 145.177 105.15 145.257 105.273 145.34C105.92 145.519 106.874 146.164 106.797 146.358L106.788 146.374C106.638 146.657 106.443 146.894 106.204 147.082L106.123 147.143L105.941 147.27C106.197 147.43 106.412 147.614 106.304 147.744C106.255 147.839 106.203 147.932 106.141 148.015C106.664 148.661 107.185 149.313 107.702 149.966C108.219 151.087 108.859 152.133 109.622 153.102C110.259 154.155 111.026 155.1 111.922 155.943C111.995 156.018 112.072 156.088 112.146 156.159C112.806 156.647 113.497 157.103 114.216 157.542L114.526 157.729C114.689 157.827 114.963 157.95 114.833 158.187C114.818 158.218 114.8 158.243 114.778 158.261C115.23 158.557 115.698 158.837 116.182 159.096L116.227 159.124C116.41 159.24 116.658 159.452 116.397 159.625C116.175 159.772 115.588 159.372 115.31 159.188C115.258 159.188 115.197 159.173 115.135 159.154C115.227 159.203 115.318 159.256 115.411 159.308L115.551 159.385C115.658 159.449 116.188 159.8 115.818 159.948C115.637 159.963 115.471 159.917 115.317 159.812C115.135 159.723 114.957 159.628 114.781 159.529C114.843 159.625 114.843 159.72 114.689 159.782C114.636 159.785 114.584 159.782 114.532 159.776C114.895 160.007 115.267 160.222 115.652 160.425L115.714 160.464C115.877 160.569 116.136 160.77 115.948 160.942C115.735 161.133 115.15 160.727 115 160.635L114.55 160.367V160.367C114.516 160.382 114.479 160.388 114.439 160.391C114.575 160.475 114.701 160.564 114.84 160.644L115.028 160.746C115.264 160.877 115.598 161.091 115.477 161.305C115.356 161.517 114.997 161.343 114.765 161.205L114.516 161.051C114.505 161.044 114.494 161.038 114.483 161.031L114.473 161.068C114.471 161.074 114.468 161.081 114.464 161.087C114.349 161.288 114.058 161.156 113.858 161.04L113.698 160.942C113.425 160.778 113.155 160.615 112.886 160.451L112.485 160.204H112.479C111.091 159.369 109.807 158.538 108.597 157.467C107.874 156.827 107.2 156.15 106.56 155.426C105.273 153.977 104.316 152.318 103.392 150.625C103.377 150.597 103.399 150.526 103.436 150.449C103.334 150.24 103.235 150.027 103.137 149.809C102.189 150.074 101.13 150.151 100.154 150.086C99.6311 150.052 99.114 149.96 98.6 149.821C96.9594 149.594 95.3774 148.846 94.0107 147.95C93.9245 147.894 93.8476 147.833 93.7676 147.778C93.2043 147.46 92.6687 147.091 92.1608 146.669C91.1697 145.851 90.2248 144.94 89.366 143.988C88.7443 143.25 88.1564 142.483 87.6054 141.689C87.0452 140.904 86.4789 140.12 85.9125 139.335C84.3396 136.872 83.3331 134.037 82.9422 131.141C82.7514 130.073 82.6529 128.992 82.6744 127.915C82.6898 127.136 82.776 126.348 82.9268 125.564C82.8376 125.477 82.7483 125.391 82.6591 125.302C82.6098 125.388 82.5606 125.45 82.5298 125.419L81.8243 124.713C81.3239 124.208 80.9881 123.837 80.4121 123.021C79.4949 121.719 78.8116 120.288 78.3037 118.78C77.9374 117.703 77.6942 116.477 77.5988 115.293C77.568 115.095 77.5373 114.895 77.5126 114.692C77.3157 113.088 77.4973 111.553 77.7404 109.97C77.7558 109.866 77.8081 109.801 77.8789 109.767C77.8968 109.642 77.918 109.513 77.9389 109.385C75.9001 107.227 74.4328 104.625 74.5525 101.484C74.5901 100.494 74.7932 99.5184 75.1811 98.6074L75.2282 98.5046V98.5046C73.5263 98.2429 72.1763 97.0474 71.1621 95.5657C71.0722 95.4946 70.9851 95.4229 70.9014 95.3515C69.0878 93.8026 67.8305 91.6095 66.9696 89.293C66.353 87.9479 65.9446 86.5105 65.7713 85.0195C65.759 84.913 65.7516 84.8075 65.7421 84.7016C65.321 82.3441 65.2139 79.963 65.4084 77.6172C64.9858 76.1654 64.642 74.6879 64.4065 73.176C64.2957 72.4561 64.2188 71.7355 64.1603 71.0152L64.1541 70.9755L64.1449 70.846L64.1189 70.5229C64.1148 70.4694 64.111 70.4161 64.108 70.3627C63.5878 63.7696 65.0621 57.2812 67.4999 51.1745C67.7123 50.6253 67.9316 50.0775 68.1578 49.534L68.3978 48.9663V48.9663C70.8448 45.0203 74.5193 41.8287 77.6315 38.458C78.7054 37.2951 76.9685 35.5493 75.8905 36.7168C73.8227 38.9563 71.6044 41.1014 69.6016 43.4034C69.2479 43.4293 68.8936 43.4388 68.5403 43.4213C67.9247 43.3902 67.3275 43.292 66.7489 43.1347C65.3053 42.9223 63.991 42.3406 62.7967 41.4849C61.1992 40.7403 59.8357 39.3365 59.7003 37.5051C59.6849 37.3204 59.6879 37.1388 59.7003 36.9575C59.5525 36.0615 59.6849 35.123 60.0604 34.2578C60.125 34.0208 60.2081 33.7868 60.3128 33.556C60.6175 32.8696 61.1192 32.2112 61.7317 31.7646C61.7471 31.7554 61.7594 31.7495 61.7718 31.74C61.8364 31.6726 61.8979 31.6045 61.9687 31.5433C62.0734 31.4476 62.1842 31.3586 62.3012 31.2755C61.8856 30.5919 61.5101 29.8904 61.19 29.1421C60.8422 28.3295 60.6637 27.505 60.5652 26.6336C60.5252 26.2888 60.5098 25.9472 60.5036 25.6058C60.4851 25.4485 60.4728 25.2885 60.4605 25.1284C60.3836 23.9095 60.5252 22.6448 60.9807 21.5056C61.0146 21.4197 61.0577 21.3333 61.0977 21.244C61.1839 20.9854 61.2793 20.7272 61.3962 20.4745C61.8518 19.5049 62.4982 18.6831 63.2954 18.009C63.7263 17.575 64.2095 17.1903 64.7359 16.864C65.0467 16.6701 65.4007 16.4977 65.7732 16.3561C66.438 16.0052 67.2906 15.6851 67.9832 15.6608C68.0663 15.6574 68.1401 15.667 68.2202 15.667C68.2848 13.8999 68.5126 11.9761 69.2113 10.3756C69.6176 9.21548 70.227 8.18435 71.1443 7.44224C71.6762 6.887 72.3318 6.4361 73.1497 6.14138L73.2958 6.091L73.3512 6.07561C74.0868 5.71856 74.881 5.57697 75.6966 5.58036C76.6477 5.5308 77.6173 5.70964 78.4453 6.1464C78.6176 6.23874 78.8023 6.35263 78.9778 6.47575C79.1101 6.21104 79.2579 5.94325 79.4272 5.67578C80.0212 4.72437 80.7384 3.89639 81.5694 3.14228C81.6679 3.05301 81.7757 2.97299 81.8803 2.88711C82.2835 2.52083 82.7114 2.18225 83.1546 1.87445C84.1119 1.20929 85.1615 0.714041 86.2634 0.393622C87.5356 -0.0764728 88.8779 -0.294726 90.2207 -0.248805L90.4987 -0.23706V-0.23706C90.5603 -0.231212 90.6218 -0.228134 90.6803 -0.225056C92.0131 -0.138564 93.3274 0.187704 94.5832 0.679876C95.8852 1.19421 96.9871 1.97264 98.0121 2.86526C98.2522 2.53314 98.5261 2.21888 98.8617 1.92339C98.9571 1.84059 99.0586 1.76641 99.1541 1.68946C99.2279 1.61559 99.3049 1.54479 99.3849 1.474C99.7512 1.15081 100.139 0.870712 100.564 0.621394C101.041 0.341604 101.555 0.14769 102.087 0.0276476C102.629 -0.15734 103.199 -0.271226 103.777 -0.308162ZM97.452 126.582C97.5065 126.579 100.357 127.648 101.778 128.34L101.847 128.374C103.485 129.186 104.273 129.771 105.744 130.815C105.843 130.886 105.944 130.993 105.944 131.098C105.944 132.618 105.575 134.476 104.297 133.653C104.113 133.534 103.927 133.417 103.739 133.303L103.457 133.132L103.448 133.136C103.451 133.136 103.454 133.132 103.457 133.129C100.675 131.433 97.7352 130.104 94.6325 129.153C94.4201 129.076 95.993 126.699 96.427 126.832C96.1777 126.733 97.4105 126.585 97.452 126.582ZM126.688 59.4558C124.838 59.6538 122.987 59.8486 121.137 60.0391C119.958 60.1746 118.776 60.2946 117.594 60.3962C115.818 60.5288 114.042 60.5501 112.273 60.3069C111.645 60.221 111.029 60.0976 110.42 59.9468C110.004 60.2515 109.573 60.5378 109.133 60.812L104.245 64.5515V64.5515C100.967 67.1281 97.7598 69.8579 94.8726 72.8713C89.8302 78.1359 85.7232 84.295 83.1411 91.1174C82.9069 91.2556 82.7259 91.4966 82.6656 91.8662C82.2094 94.6626 80.8754 97.213 80.3934 99.998C79.9188 102.741 80.5501 105.073 82.2731 107.247C82.6409 107.712 83.3944 107.687 83.8567 107.374C83.9642 107.585 84.4296 107.576 84.593 106.643C85.3591 105.814 86.0144 104.944 86.4583 103.867C86.7852 103.074 86.2357 102.525 85.569 102.417C85.8461 101.419 86.1585 100.431 86.5097 99.4532C87.55 96.5473 88.8736 93.7712 90.5388 91.1672C92.0039 88.8769 93.6999 86.8824 95.5221 84.8817C95.5436 84.854 95.5805 84.845 95.6206 84.8389L95.9992 84.42V84.42C96.0515 84.3615 96.1592 84.3676 96.2792 84.3984C96.3931 84.2784 96.5039 84.1552 96.6209 84.0352C96.7348 83.9121 96.861 83.949 96.9318 84.0475C97.1257 84.0044 97.4797 84.2137 97.5874 84.2818C97.7721 84.4046 97.8306 84.5431 97.6736 84.7185C97.6459 84.7496 97.6182 84.7804 97.5905 84.8078C97.8029 84.8974 98.0122 85.0171 98.1753 85.1344C98.7447 85.2602 99.545 85.7897 99.4065 85.9469C99.1141 86.2514 98.8309 86.5625 98.5508 86.8793C98.7971 87.052 98.9571 87.2209 98.8925 87.2951C97.6921 88.5599 96.584 89.8991 95.5682 91.3178C94.7957 92.3766 94.0969 93.4785 93.4721 94.6266C92.5426 96.2518 91.7546 97.9231 91.0559 99.6407C90.9574 99.9026 90.862 100.164 90.7696 100.426C89.7477 103.285 88.9844 106.252 88.6612 109.275L88.6477 109.479C88.5875 110.568 88.5639 113.483 88.4519 114.178C89.1321 114.514 89.8401 114.8 90.5757 115.034C90.7142 115.074 90.8558 115.111 90.9974 115.145C91.0774 115.111 91.1605 115.083 91.2436 115.058C91.9208 114.784 92.6287 114.587 93.3521 114.492C93.8395 114.428 94.3247 114.405 94.8095 114.419L95.0173 114.427C95.2327 114.434 95.4451 114.449 95.6606 114.471C95.6483 114.347 95.6421 114.228 95.6329 114.104C95.5713 114.064 95.5251 114.009 95.5221 113.935C95.3774 112.55 95.3743 111.165 95.5128 109.78C95.6052 109.056 95.7129 108.336 95.8299 107.616C95.9499 107.025 96.0884 106.443 96.2392 105.861C96.6394 104.23 97.1719 102.639 97.8182 101.081C99.6589 96.6396 102.297 92.6351 104.95 88.6522C106.886 85.7438 108.717 82.7701 110.721 79.9107C112.426 77.476 114.218 75.0782 116.129 72.8005C118.038 70.5262 120.054 68.3374 122.23 66.3124C122.581 65.9889 122.935 65.6749 123.295 65.3644C125.357 63.5176 127.598 61.9998 129.931 60.5104C130.02 60.4519 130.18 60.5165 130.313 60.627L130.689 60.3956C130.752 60.3572 130.815 60.3192 130.879 60.2823C130.938 60.2457 131.002 60.3069 131.036 60.3592C131.196 60.2761 131.356 60.1964 131.516 60.1161C131.633 60.0219 131.753 59.9326 131.871 59.8397C130.141 59.7526 128.413 59.6233 126.688 59.4558ZM148.387 38.9364C146.989 38.6566 145.586 38.6162 144.176 38.8255C143.585 38.912 142.997 39.0161 142.414 39.142C143.738 40.2962 144.803 41.7733 145.494 43.4733C146.241 45.3109 143.262 46.1029 142.526 44.2918C141.816 42.5447 140.472 41.2045 138.848 40.4012C138.497 40.5972 138.157 40.8096 137.832 41.0448C137.407 41.3895 137.007 41.762 136.632 42.1713C135.813 43.0612 135.062 44.249 134.57 45.4248C134.379 46.065 134.237 46.7237 134.148 47.4009C134.129 47.5548 134.111 47.7117 134.096 47.8687C133.792 51.0541 134.703 54.1534 136.27 56.8959L136.331 56.8968V56.8968C137.73 56.1384 139.194 55.4994 140.701 54.9789C141.908 54.1666 143.16 53.4153 144.45 52.735C147.192 51.2886 150.087 50.1735 153.071 49.411L153.416 49.3246C154.119 49.1451 154.828 48.9869 155.54 48.8485L155.968 48.7678H155.974L155.928 48.3089V48.3089C155.688 46.5082 154.983 44.8369 154.072 43.292C153.388 42.1255 152.357 40.9312 151.212 39.977L151.206 39.9736C150.686 39.6782 150.14 39.4337 149.577 39.2317L149.366 39.158L148.387 38.9364ZM110.866 36.2003C107.96 35.9261 105.055 35.9538 102.149 36.1908C100.25 36.3789 98.3631 36.6402 96.4855 36.9726C95.2143 37.1911 93.9677 37.4989 92.7427 37.8809L93.4434 39.2979C94.6144 41.6578 95.814 44.0022 97.2273 46.2312C97.9568 47.3793 98.7478 48.4723 99.6097 49.5216C100.191 50.2726 100.832 50.9686 101.533 51.6085C101.718 51.8335 101.915 52.0459 102.115 52.2518C102.755 52.7997 103.445 53.2798 104.199 53.6769C104.804 54.1174 105.435 54.5022 106.093 54.8395L106.341 54.9638L108.65 55.85C108.773 55.8849 108.897 55.9197 109.022 55.9529L109.21 56.0011L109.561 56.0747L109.824 55.9317C109.868 55.9081 109.913 55.8849 109.958 55.8623C110.032 55.8226 110.084 55.8995 110.1 55.9546C110.106 55.9765 110.096 56.007 110.081 56.0377L110.417 55.8558V55.8558C110.996 56.0907 111.61 56.2784 112.268 56.4022C112.566 56.4579 112.864 56.5007 113.163 56.5373L113.203 56.564C113.21 56.5687 113.217 56.5738 113.224 56.5798H113.551V56.5798C115.852 56.8017 118.185 56.5084 120.483 56.0956C123.734 55.7687 126.984 55.4083 130.233 55.0712C130.294 55.0654 130.319 55.0928 130.319 55.1362L130.519 55.1177V55.1177C130.808 55.0866 131.147 55.5699 130.928 55.7456C131.104 55.85 131.273 56.0011 131.399 56.1181L131.473 56.1116C131.027 55.2375 130.682 54.3233 130.436 53.3725L130.122 51.7778V51.7778C130.036 51.1837 129.986 50.55 129.977 49.9248C129.956 49.6386 129.94 49.3711 129.94 49.1369C129.94 48.9152 129.943 48.6936 129.953 48.4723C129.34 48.2196 128.718 47.9983 128.084 47.8102C126.284 47.5889 124.486 47.367 122.685 47.1485C121.605 47.1885 120.525 47.2654 119.447 47.3855C118.225 47.4932 117.007 47.6317 115.791 47.7979C115.677 47.8102 115.474 47.6563 115.351 47.4778L114.83 47.5489V47.5489C114.56 47.5828 114.276 47.0407 114.633 46.9299C114.763 46.8786 114.892 46.8301 115.021 46.7833L115.215 46.7145L115.104 46.7268C115.067 46.7302 115.021 46.7206 114.969 46.7025C114.683 46.7391 114.396 46.776 114.113 46.8099C113.754 46.8547 113.836 46.3812 114.088 46.2698L114.209 46.2251C113.996 46.0924 113.809 45.7294 114.072 45.6107L114.107 45.5972C114.23 45.5482 114.35 45.5079 114.473 45.4617C114.464 45.422 114.464 45.3848 114.476 45.3512L113.969 45.4156V45.4156C113.922 45.4216 114.143 45.0975 114.249 45.0335L114.267 45.0247L114.51 44.9508C114.547 44.8461 114.744 44.6153 114.812 44.594C115.705 44.3136 116.536 44.0615 117.404 43.8673C117.447 43.815 117.496 43.775 117.551 43.7627C118.093 43.6334 118.641 43.5318 119.189 43.4459C119.226 43.3902 119.263 43.3505 119.306 43.3471C120.663 43.1748 122.024 43.1348 123.39 43.2274C123.652 43.2517 123.914 43.2797 124.175 43.3133C124.677 43.369 125.179 43.4398 125.677 43.5352C126.926 43.7496 128.146 44.0754 129.334 44.5149L129.608 44.6184C129.906 44.7295 130.202 44.8461 130.494 44.9726C130.642 44.4463 130.827 43.9289 131.045 43.4213C131.079 43.3225 131.116 43.2274 131.156 43.132L130.858 42.9532V42.9532C130.793 43.0763 130.661 43.1717 130.574 43.1197C128.435 41.6761 126.173 40.4723 123.787 39.512C122.452 38.921 121.085 38.4196 119.684 38.0007C118.986 37.7763 118.281 37.5731 117.573 37.3792C117.219 37.305 116.865 37.2312 116.505 37.1696C114.655 36.671 112.774 36.3481 110.866 36.2003ZM181.356 41.086C181.096 41.5348 180.826 41.9793 180.539 42.4176C179.148 44.5472 177.48 46.5458 175.588 48.2882C176.081 48.287 176.573 48.3058 177.059 48.3513C177.898 48.4304 178.719 48.5696 179.519 48.7644C179.584 48.7124 179.656 48.6862 179.715 48.7275L179.923 48.8718V48.8718C181.64 49.3351 183.252 50.0633 184.711 51.039L184.685 50.8464C184.681 50.8142 184.676 50.7821 184.67 50.75C184.695 50.3714 184.701 49.9925 184.689 49.617C184.387 47.3978 183.633 45.354 182.771 43.2859C182.755 43.2458 182.766 43.1938 182.791 43.1409C182.356 42.4305 181.88 41.7435 181.356 41.086ZM181.752 23.6387C181.109 23.7557 180.472 23.9065 179.838 24.0942C178.647 24.2731 177.492 24.587 176.378 25.033C174.842 25.5778 173.352 26.2119 171.869 26.8832C168.988 28.188 166.285 29.8381 163.826 31.8265C163.669 31.9462 163.518 32.0696 163.367 32.1928C162.816 32.6695 162.281 33.1682 161.773 33.6945C161.24 34.2732 160.705 34.8522 160.172 35.4336C159.52 36.1172 158.769 36.7356 158.178 37.4743C158.058 37.6251 157.953 37.7913 157.858 37.9579L158.206 38.0776V38.0776C158.498 38.1761 158.449 38.724 158.159 38.6439C158.061 38.6162 157.969 38.5824 157.876 38.5458C157.916 38.5981 157.944 38.6504 157.95 38.6963C157.969 38.844 157.855 39.0475 157.673 38.9951C157.59 38.9733 157.507 38.9425 157.424 38.9087C157.399 39.0041 157.381 39.0995 157.381 39.1918C157.396 39.198 157.411 39.2041 157.43 39.2075C157.633 39.2783 158.015 39.595 158.07 39.8108C158.113 39.977 157.972 40.1552 157.79 40.106C157.655 40.0691 157.522 40.0137 157.393 39.9521C157.479 40.0355 157.547 40.1248 157.553 40.2017C157.565 40.3433 157.442 40.5431 157.273 40.4972C156.959 40.4107 156.707 40.2787 156.497 40.1125C156.442 40.186 156.362 40.2445 156.297 40.2263L156.177 40.1894V40.1894C156.21 40.22 156.24 40.2522 156.269 40.2839L156.313 40.3307C157.162 41.2479 157.904 42.2637 158.498 43.3567C158.526 43.3256 158.559 43.2979 158.603 43.264C158.88 43.0301 159.166 42.8023 159.452 42.581L159.539 42.5053V42.5053L159.628 42.4299L158.984 42.6423L158.998 42.6256C159.044 42.5674 159.185 42.3733 159.251 42.3087L159.267 42.2945C160.151 41.5037 161.114 40.8324 162.155 40.2848C162.829 39.8474 163.537 39.4781 164.278 39.1734C166.048 38.3515 167.852 37.727 169.705 37.1483C169.982 37.0591 170.259 36.9637 170.536 36.8772C170.616 36.8495 170.631 36.8833 170.619 36.9387L170.764 36.8956V36.8956C171.022 36.8125 171.462 37.2681 171.287 37.4805C171.393 37.5666 171.497 37.6627 171.588 37.7528L171.653 37.819L171.727 37.7975C171.947 37.7297 172.318 38.0725 172.554 38.3153L172.728 38.4993C172.86 38.6409 173.118 38.9333 172.801 39.0475L172.404 39.1826V39.1826C172.417 39.2626 172.383 39.3303 172.26 39.3765C172.121 39.4227 171.986 39.4719 171.85 39.5215C171.932 39.5931 172.013 39.6676 172.092 39.743L172.21 39.8567C172.35 39.9989 172.68 40.3125 172.388 40.4509L172.352 40.4661L171.973 40.6016C172.023 40.7124 172.01 40.8173 171.844 40.8786C169.634 41.6296 167.476 42.5102 165.368 43.5106C163.789 44.3844 162.121 45.0373 160.363 45.4648C160.219 45.5113 159.905 45.2927 159.775 45.0742L159.513 45.1514C159.469 45.1642 159.425 45.1765 159.381 45.1878L159.338 45.1973V45.1973C159.668 46.0745 159.911 47.0253 160.046 47.9457C160.062 48.0288 160.074 48.1153 160.083 48.1984C160.428 48.1704 160.769 48.1457 161.114 48.1276C163.5 48.0011 165.913 48.078 168.304 48.3612C169.271 47.7856 170.2 47.1546 171.09 46.4716C171.361 46.262 171.629 46.0465 171.893 45.828C173.482 44.4491 174.919 42.9011 176.193 41.2295C177.372 39.6812 178.397 38.0191 179.259 36.2773C180.022 34.6425 180.653 32.9435 181.13 31.189C181.568 29.5854 181.718 28.0248 181.829 26.3658C181.866 26.0949 181.891 25.8244 181.912 25.5532L181.91 25.4372V25.4372L181.906 25.3808C181.875 24.7994 181.817 24.2174 181.752 23.6387ZM159.2 44.252C159.129 44.2767 159.055 44.3013 158.981 44.3228C159.024 44.4183 159.064 44.5109 159.104 44.606L159.109 44.6041V44.6041L159.4 44.3752V44.3752C159.338 44.3475 159.267 44.3047 159.2 44.252ZM181.321 19.2742C181.875 19.068 182.294 19.028 182.577 19.1572C182.159 19.188 181.74 19.228 181.321 19.2742Z" fill="black"/>
</g>
<defs>
<clipPath id="clip0_524_749">
<rect width="250" height="250" fill="white"/>
</clipPath>
</defs>
</svg>
