<svg width="77" height="15" viewBox="0 0 77 15" fill="none" xmlns="http://www.w3.org/2000/svg">
<rect width="77" height="15" rx="7.5" fill="#FFF3DD"/>
<path d="M19.3153 7.72727C19.3153 8.41761 19.1907 9.0142 18.9414 9.51705C18.6921 10.0199 18.3501 10.4077 17.9155 10.6804C17.4808 10.9531 16.9844 11.0895 16.4261 11.0895C15.8679 11.0895 15.3714 10.9531 14.9368 10.6804C14.5021 10.4077 14.1602 10.0199 13.9109 9.51705C13.6616 9.0142 13.5369 8.41761 13.5369 7.72727C13.5369 7.03693 13.6616 6.44034 13.9109 5.9375C14.1602 5.43466 14.5021 5.04688 14.9368 4.77415C15.3714 4.50142 15.8679 4.36506 16.4261 4.36506C16.9844 4.36506 17.4808 4.50142 17.9155 4.77415C18.3501 5.04688 18.6921 5.43466 18.9414 5.9375C19.1907 6.44034 19.3153 7.03693 19.3153 7.72727ZM18.5483 7.72727C18.5483 7.16051 18.4535 6.68217 18.2638 6.29226C18.0763 5.90234 17.8217 5.60724 17.5 5.40696C17.1804 5.20668 16.8224 5.10653 16.4261 5.10653C16.0298 5.10653 15.6708 5.20668 15.3491 5.40696C15.0295 5.60724 14.7749 5.90234 14.5852 6.29226C14.3977 6.68217 14.304 7.16051 14.304 7.72727C14.304 8.29403 14.3977 8.77237 14.5852 9.16229C14.7749 9.5522 15.0295 9.8473 15.3491 10.0476C15.6708 10.2479 16.0298 10.348 16.4261 10.348C16.8224 10.348 17.1804 10.2479 17.5 10.0476C17.8217 9.8473 18.0763 9.5522 18.2638 9.16229C18.4535 8.77237 18.5483 8.29403 18.5483 7.72727ZM23.6396 8.9929V6.09091H24.3938V11H23.6396V10.169H23.5884C23.4734 10.4183 23.2944 10.6303 23.0515 10.805C22.8086 10.9776 22.5018 11.0639 22.131 11.0639C21.8242 11.0639 21.5515 10.9968 21.3129 10.8626C21.0742 10.7262 20.8867 10.5217 20.7504 10.2489C20.614 9.97408 20.5458 9.62784 20.5458 9.21023V6.09091H21.3001V9.15909C21.3001 9.51705 21.4002 9.80256 21.6005 10.0156C21.8029 10.2287 22.0607 10.3352 22.3739 10.3352C22.5614 10.3352 22.7521 10.2873 22.946 10.1914C23.142 10.0955 23.3061 9.94851 23.4382 9.75036C23.5724 9.5522 23.6396 9.29972 23.6396 8.9929ZM27.9102 6.09091V6.73011H25.3662V6.09091H27.9102ZM26.1077 4.91477H26.8619V9.59375C26.8619 9.80682 26.8928 9.96662 26.9546 10.0732C27.0186 10.1776 27.0995 10.2479 27.1975 10.2841C27.2977 10.3182 27.4031 10.3352 27.5139 10.3352C27.597 10.3352 27.6652 10.331 27.7185 10.3224C27.7718 10.3118 27.8144 10.3033 27.8463 10.2969L27.9997 10.9744C27.9486 10.9936 27.8772 11.0128 27.7856 11.032C27.694 11.0533 27.5779 11.0639 27.4372 11.0639C27.2242 11.0639 27.0154 11.0181 26.8108 10.9265C26.6084 10.8349 26.4401 10.6953 26.3058 10.5078C26.1737 10.3203 26.1077 10.0838 26.1077 9.7983V4.91477ZM37.2011 7.72727C37.2011 8.41761 37.0764 9.0142 36.8271 9.51705C36.5779 10.0199 36.2359 10.4077 35.8012 10.6804C35.3666 10.9531 34.8701 11.0895 34.3119 11.0895C33.7536 11.0895 33.2572 10.9531 32.8225 10.6804C32.3879 10.4077 32.0459 10.0199 31.7966 9.51705C31.5473 9.0142 31.4227 8.41761 31.4227 7.72727C31.4227 7.03693 31.5473 6.44034 31.7966 5.9375C32.0459 5.43466 32.3879 5.04688 32.8225 4.77415C33.2572 4.50142 33.7536 4.36506 34.3119 4.36506C34.8701 4.36506 35.3666 4.50142 35.8012 4.77415C36.2359 5.04688 36.5779 5.43466 36.8271 5.9375C37.0764 6.44034 37.2011 7.03693 37.2011 7.72727ZM36.434 7.72727C36.434 7.16051 36.3392 6.68217 36.1496 6.29226C35.9621 5.90234 35.7075 5.60724 35.3857 5.40696C35.0661 5.20668 34.7082 5.10653 34.3119 5.10653C33.9156 5.10653 33.5566 5.20668 33.2348 5.40696C32.9152 5.60724 32.6606 5.90234 32.471 6.29226C32.2835 6.68217 32.1897 7.16051 32.1897 7.72727C32.1897 8.29403 32.2835 8.77237 32.471 9.16229C32.6606 9.5522 32.9152 9.8473 33.2348 10.0476C33.5566 10.2479 33.9156 10.348 34.3119 10.348C34.7082 10.348 35.0661 10.2479 35.3857 10.0476C35.7075 9.8473 35.9621 9.5522 36.1496 9.16229C36.3392 8.77237 36.434 8.29403 36.434 7.72727ZM40.6176 6.09091V6.73011H37.9713V6.09091H40.6176ZM38.7639 11V5.41335C38.7639 5.1321 38.83 4.89773 38.9621 4.71023C39.0942 4.52273 39.2657 4.3821 39.4767 4.28835C39.6876 4.1946 39.9102 4.14773 40.1446 4.14773C40.33 4.14773 40.4813 4.16264 40.5985 4.19247C40.7156 4.2223 40.803 4.25 40.8605 4.27557L40.6432 4.92756C40.6048 4.91477 40.5516 4.89879 40.4834 4.87962C40.4173 4.86044 40.33 4.85085 40.2213 4.85085C39.972 4.85085 39.792 4.91371 39.6812 5.03942C39.5725 5.16513 39.5182 5.34943 39.5182 5.59233V11H38.7639ZM49.831 7.72727C49.831 8.41761 49.7063 9.0142 49.457 9.51705C49.2077 10.0199 48.8658 10.4077 48.4311 10.6804C47.9964 10.9531 47.5 11.0895 46.9418 11.0895C46.3835 11.0895 45.8871 10.9531 45.4524 10.6804C45.0178 10.4077 44.6758 10.0199 44.4265 9.51705C44.1772 9.0142 44.0526 8.41761 44.0526 7.72727C44.0526 7.03693 44.1772 6.44034 44.4265 5.9375C44.6758 5.43466 45.0178 5.04688 45.4524 4.77415C45.8871 4.50142 46.3835 4.36506 46.9418 4.36506C47.5 4.36506 47.9964 4.50142 48.4311 4.77415C48.8658 5.04688 49.2077 5.43466 49.457 5.9375C49.7063 6.44034 49.831 7.03693 49.831 7.72727ZM49.0639 7.72727C49.0639 7.16051 48.9691 6.68217 48.7795 6.29226C48.592 5.90234 48.3374 5.60724 48.0156 5.40696C47.696 5.20668 47.3381 5.10653 46.9418 5.10653C46.5455 5.10653 46.1864 5.20668 45.8647 5.40696C45.5451 5.60724 45.2905 5.90234 45.1009 6.29226C44.9134 6.68217 44.8196 7.16051 44.8196 7.72727C44.8196 8.29403 44.9134 8.77237 45.1009 9.16229C45.2905 9.5522 45.5451 9.8473 45.8647 10.0476C46.1864 10.2479 46.5455 10.348 46.9418 10.348C47.3381 10.348 47.696 10.2479 48.0156 10.0476C48.3374 9.8473 48.592 9.5522 48.7795 9.16229C48.9691 8.77237 49.0639 8.29403 49.0639 7.72727ZM53.2475 6.09091V6.73011H50.6012V6.09091H53.2475ZM51.3938 11V5.41335C51.3938 5.1321 51.4599 4.89773 51.592 4.71023C51.7241 4.52273 51.8956 4.3821 52.1065 4.28835C52.3175 4.1946 52.5401 4.14773 52.7745 4.14773C52.9599 4.14773 53.1112 4.16264 53.2283 4.19247C53.3455 4.2223 53.4329 4.25 53.4904 4.27557L53.2731 4.92756C53.2347 4.91477 53.1815 4.89879 53.1133 4.87962C53.0472 4.86044 52.9599 4.85085 52.8512 4.85085C52.6019 4.85085 52.4219 4.91371 52.3111 5.03942C52.2024 5.16513 52.1481 5.34943 52.1481 5.59233V11H51.3938ZM56.4907 6.09091V6.73011H53.8444V6.09091H56.4907ZM54.637 11V5.41335C54.637 5.1321 54.703 4.89773 54.8351 4.71023C54.9672 4.52273 55.1388 4.3821 55.3497 4.28835C55.5606 4.1946 55.7833 4.14773 56.0177 4.14773C56.203 4.14773 56.3543 4.16264 56.4715 4.19247C56.5887 4.2223 56.676 4.25 56.7336 4.27557L56.5162 4.92756C56.4779 4.91477 56.4246 4.89879 56.3564 4.87962C56.2904 4.86044 56.203 4.85085 56.0944 4.85085C55.8451 4.85085 55.665 4.91371 55.5542 5.03942C55.4456 5.16513 55.3912 5.34943 55.3912 5.59233V11H54.637ZM57.5478 11V6.09091H58.302V11H57.5478ZM57.9313 5.27273C57.7843 5.27273 57.6575 5.22266 57.551 5.12251C57.4466 5.02237 57.3944 4.90199 57.3944 4.76136C57.3944 4.62074 57.4466 4.50036 57.551 4.40021C57.6575 4.30007 57.7843 4.25 57.9313 4.25C58.0783 4.25 58.204 4.30007 58.3084 4.40021C58.415 4.50036 58.4682 4.62074 58.4682 4.76136C58.4682 4.90199 58.415 5.02237 58.3084 5.12251C58.204 5.22266 58.0783 5.27273 57.9313 5.27273ZM61.6778 11.1023C61.2176 11.1023 60.8213 10.9936 60.4889 10.7763C60.1565 10.5589 59.9008 10.2596 59.7219 9.8782C59.5429 9.4968 59.4534 9.06108 59.4534 8.57102C59.4534 8.07244 59.545 7.63246 59.7282 7.25107C59.9136 6.86754 60.1714 6.56818 60.5017 6.35298C60.8341 6.13565 61.2219 6.02699 61.665 6.02699C62.0102 6.02699 62.3213 6.09091 62.5983 6.21875C62.8753 6.34659 63.1022 6.52557 63.279 6.75568C63.4559 6.9858 63.5656 7.25426 63.6082 7.56108H62.854C62.7964 7.33736 62.6686 7.1392 62.4704 6.96662C62.2744 6.7919 62.0102 6.70455 61.6778 6.70455C61.3838 6.70455 61.126 6.78125 60.9044 6.93466C60.6849 7.08594 60.5134 7.30007 60.3898 7.57706C60.2684 7.85192 60.2077 8.17472 60.2077 8.54545C60.2077 8.92472 60.2673 9.25497 60.3866 9.53622C60.5081 9.81747 60.6785 10.0359 60.898 10.1914C61.1196 10.3469 61.3795 10.4247 61.6778 10.4247C61.8738 10.4247 62.0518 10.3906 62.2116 10.3224C62.3714 10.2543 62.5067 10.1562 62.6175 10.0284C62.7282 9.90057 62.8071 9.74716 62.854 9.56818H63.6082C63.5656 9.85795 63.4601 10.119 63.2918 10.3512C63.1256 10.5813 62.9051 10.7646 62.6302 10.9009C62.3575 11.0352 62.04 11.1023 61.6778 11.1023ZM66.7691 11.1023C66.2961 11.1023 65.8881 10.9979 65.545 10.7891C65.2041 10.5781 64.941 10.2841 64.7556 9.90696C64.5724 9.5277 64.4807 9.08665 64.4807 8.58381C64.4807 8.08097 64.5724 7.63778 64.7556 7.25426C64.941 6.86861 65.1988 6.56818 65.529 6.35298C65.8614 6.13565 66.2492 6.02699 66.6924 6.02699C66.9481 6.02699 67.2006 6.0696 67.4498 6.15483C67.6991 6.24006 67.926 6.37855 68.1306 6.57031C68.3351 6.75994 68.4981 7.01136 68.6196 7.32457C68.741 7.63778 68.8018 8.02344 68.8018 8.48153V8.80114H65.0177V8.14915H68.0347C68.0347 7.87216 67.9793 7.625 67.8685 7.40767C67.7599 7.19034 67.6043 7.01882 67.4019 6.89311C67.2016 6.7674 66.9651 6.70455 66.6924 6.70455C66.392 6.70455 66.132 6.77912 65.9126 6.92827C65.6952 7.07528 65.528 7.26705 65.4108 7.50355C65.2936 7.74006 65.235 7.99361 65.235 8.2642V8.69886C65.235 9.0696 65.2989 9.38388 65.4268 9.64169C65.5567 9.89737 65.7368 10.0923 65.9669 10.2266C66.197 10.3587 66.4644 10.4247 66.7691 10.4247C66.9672 10.4247 67.1462 10.397 67.306 10.3416C67.468 10.2841 67.6075 10.1989 67.7247 10.0859C67.8419 9.97088 67.9324 9.82812 67.9964 9.65767L68.7251 9.86222C68.6483 10.1094 68.5194 10.3267 68.3383 10.5142C68.1572 10.6996 67.9335 10.8445 67.6672 10.9489C67.4008 11.0511 67.1015 11.1023 66.7691 11.1023Z" fill="black"/>
<rect x="3" y="4" width="7" height="7" rx="3.5" fill="#F4B33E"/>
</svg>
