<svg width="79" height="15" viewBox="0 0 79 15" fill="none" xmlns="http://www.w3.org/2000/svg">
<rect width="79" height="15" rx="7.5" fill="#FFF9DF"/>
<path d="M13.7926 11V4.45455H16.0043C16.5178 4.45455 16.9375 4.54723 17.2635 4.7326C17.5916 4.91584 17.8345 5.16406 17.9922 5.47727C18.1499 5.79048 18.2287 6.13991 18.2287 6.52557C18.2287 6.91122 18.1499 7.26172 17.9922 7.57706C17.8366 7.8924 17.5959 8.14382 17.2699 8.33132C16.9439 8.51669 16.5263 8.60938 16.017 8.60938H14.4318V7.90625H15.9915C16.343 7.90625 16.6254 7.84553 16.8384 7.72408C17.0515 7.60263 17.206 7.43857 17.3018 7.23189C17.3999 7.02308 17.4489 6.78764 17.4489 6.52557C17.4489 6.26349 17.3999 6.02912 17.3018 5.82244C17.206 5.61577 17.0504 5.45384 16.8352 5.33665C16.62 5.21733 16.3345 5.15767 15.9787 5.15767H14.5852V11H13.7926ZM20.8478 11.1151C20.5368 11.1151 20.2544 11.0565 20.0009 10.9393C19.7473 10.82 19.546 10.6484 19.3968 10.4247C19.2477 10.1989 19.1731 9.92614 19.1731 9.60653C19.1731 9.32528 19.2285 9.0973 19.3393 8.92259C19.4501 8.74574 19.5982 8.60724 19.7836 8.5071C19.9689 8.40696 20.1735 8.33239 20.3972 8.28338C20.623 8.23224 20.85 8.19176 21.0779 8.16193C21.3762 8.12358 21.6181 8.09482 21.8034 8.07564C21.9909 8.05433 22.1273 8.01918 22.2125 7.97017C22.2999 7.92116 22.3436 7.83594 22.3436 7.71449V7.68892C22.3436 7.37358 22.2573 7.12855 22.0847 6.95384C21.9142 6.77912 21.6554 6.69176 21.3081 6.69176C20.948 6.69176 20.6657 6.7706 20.4611 6.92827C20.2566 7.08594 20.1127 7.25426 20.0297 7.43324L19.3137 7.17756C19.4416 6.87926 19.612 6.64702 19.8251 6.48082C20.0403 6.3125 20.2747 6.19531 20.5282 6.12926C20.7839 6.06108 21.0353 6.02699 21.2825 6.02699C21.4402 6.02699 21.6213 6.04616 21.8258 6.08452C22.0325 6.12074 22.2317 6.19638 22.4235 6.31143C22.6174 6.42649 22.7782 6.60014 22.9061 6.83239C23.0339 7.06463 23.0978 7.37571 23.0978 7.76562V11H22.3436V10.3352H22.3052C22.2541 10.4418 22.1689 10.5558 22.0495 10.6772C21.9302 10.7987 21.7715 10.902 21.5733 10.9872C21.3752 11.0724 21.1333 11.1151 20.8478 11.1151ZM20.9629 10.4375C21.2612 10.4375 21.5126 10.3789 21.7172 10.2617C21.9238 10.1445 22.0794 9.99325 22.1838 9.80788C22.2903 9.62251 22.3436 9.42756 22.3436 9.22301V8.53267C22.3116 8.57102 22.2413 8.60618 22.1326 8.63814C22.0261 8.66797 21.9025 8.6946 21.7619 8.71804C21.6234 8.73935 21.4881 8.75852 21.356 8.77557C21.226 8.79048 21.1206 8.80327 21.0396 8.81392C20.8436 8.83949 20.6603 8.88104 20.4899 8.93857C20.3216 8.99396 20.1852 9.07812 20.0808 9.19105C19.9785 9.30185 19.9274 9.45312 19.9274 9.64489C19.9274 9.90696 20.0243 10.1051 20.2182 10.2393C20.4142 10.3714 20.6625 10.4375 20.9629 10.4375ZM24.4745 11V6.09091H25.2032V6.83239H25.2544C25.3438 6.58949 25.5058 6.3924 25.7401 6.24112C25.9745 6.08984 26.2387 6.0142 26.5328 6.0142C26.5882 6.0142 26.6574 6.01527 26.7405 6.0174C26.8236 6.01953 26.8865 6.02273 26.9291 6.02699V6.79403C26.9035 6.78764 26.8449 6.77805 26.7533 6.76527C26.6638 6.75035 26.569 6.7429 26.4688 6.7429C26.2302 6.7429 26.0171 6.79297 25.8296 6.89311C25.6443 6.99112 25.4972 7.12749 25.3886 7.3022C25.282 7.47479 25.2288 7.67187 25.2288 7.89347V11H24.4745ZM30.2657 6.09091V6.73011H27.7217V6.09091H30.2657ZM28.4632 4.91477H29.2174V9.59375C29.2174 9.80682 29.2483 9.96662 29.3101 10.0732C29.374 10.1776 29.455 10.2479 29.553 10.2841C29.6531 10.3182 29.7586 10.3352 29.8694 10.3352C29.9525 10.3352 30.0207 10.331 30.074 10.3224C30.1272 10.3118 30.1698 10.3033 30.2018 10.2969L30.3552 10.9744C30.3041 10.9936 30.2327 11.0128 30.1411 11.032C30.0494 11.0533 29.9333 11.0639 29.7927 11.0639C29.5796 11.0639 29.3708 11.0181 29.1663 10.9265C28.9639 10.8349 28.7955 10.6953 28.6613 10.5078C28.5292 10.3203 28.4632 10.0838 28.4632 9.7983V4.91477ZM32.1546 8.04688V11H31.4003V6.09091H32.129V6.85795H32.1929C32.308 6.60866 32.4827 6.40838 32.7171 6.2571C32.9514 6.10369 33.254 6.02699 33.6247 6.02699C33.9571 6.02699 34.248 6.09517 34.4972 6.23153C34.7465 6.36577 34.9404 6.57031 35.0789 6.84517C35.2174 7.1179 35.2867 7.46307 35.2867 7.88068V11H34.5324V7.93182C34.5324 7.54616 34.4323 7.24574 34.232 7.03054C34.0317 6.81321 33.7568 6.70455 33.4074 6.70455C33.1666 6.70455 32.9514 6.75675 32.7618 6.86115C32.5743 6.96555 32.4262 7.1179 32.3176 7.31818C32.2089 7.51847 32.1546 7.76136 32.1546 8.04688ZM38.7232 11.1023C38.2502 11.1023 37.8422 10.9979 37.4991 10.7891C37.1582 10.5781 36.8951 10.2841 36.7097 9.90696C36.5265 9.5277 36.4348 9.08665 36.4348 8.58381C36.4348 8.08097 36.5265 7.63778 36.7097 7.25426C36.8951 6.86861 37.1529 6.56818 37.4831 6.35298C37.8155 6.13565 38.2033 6.02699 38.6465 6.02699C38.9022 6.02699 39.1547 6.0696 39.4039 6.15483C39.6532 6.24006 39.8801 6.37855 40.0847 6.57031C40.2892 6.75994 40.4522 7.01136 40.5737 7.32457C40.6951 7.63778 40.7559 8.02344 40.7559 8.48153V8.80114H36.9718V8.14915H39.9888C39.9888 7.87216 39.9334 7.625 39.8226 7.40767C39.714 7.19034 39.5584 7.01882 39.356 6.89311C39.1557 6.7674 38.9192 6.70455 38.6465 6.70455C38.3461 6.70455 38.0861 6.77912 37.8667 6.92827C37.6493 7.07528 37.4821 7.26705 37.3649 7.50355C37.2477 7.74006 37.1891 7.99361 37.1891 8.2642V8.69886C37.1891 9.0696 37.253 9.38388 37.3809 9.64169C37.5108 9.89737 37.6909 10.0923 37.921 10.2266C38.1511 10.3587 38.4185 10.4247 38.7232 10.4247C38.9213 10.4247 39.1003 10.397 39.2601 10.3416C39.4221 10.2841 39.5616 10.1989 39.6788 10.0859C39.796 9.97088 39.8865 9.82812 39.9505 9.65767L40.6792 9.86222C40.6025 10.1094 40.4735 10.3267 40.2924 10.5142C40.1113 10.6996 39.8876 10.8445 39.6213 10.9489C39.3549 11.0511 39.0556 11.1023 38.7232 11.1023ZM41.9032 11V6.09091H42.6319V6.83239H42.6831C42.7725 6.58949 42.9345 6.3924 43.1689 6.24112C43.4032 6.08984 43.6674 6.0142 43.9615 6.0142C44.0169 6.0142 44.0861 6.01527 44.1692 6.0174C44.2523 6.01953 44.3152 6.02273 44.3578 6.02699V6.79403C44.3322 6.78764 44.2736 6.77805 44.182 6.76527C44.0925 6.75035 43.9977 6.7429 43.8975 6.7429C43.6589 6.7429 43.4458 6.79297 43.2583 6.89311C43.073 6.99112 42.926 7.12749 42.8173 7.3022C42.7108 7.47479 42.6575 7.67187 42.6575 7.89347V11H41.9032ZM47.8854 11V4.45455H51.8357V5.15767H48.678V7.36932H51.6311V8.07244H48.678V10.2969H51.8868V11H47.8854ZM57.1762 6.09091L55.3609 11H54.5938L52.7785 6.09091H53.5967L54.9518 10.0028H55.0029L56.358 6.09091H57.1762ZM60.0542 11.1023C59.5812 11.1023 59.1732 10.9979 58.8302 10.7891C58.4893 10.5781 58.2261 10.2841 58.0407 9.90696C57.8575 9.5277 57.7659 9.08665 57.7659 8.58381C57.7659 8.08097 57.8575 7.63778 58.0407 7.25426C58.2261 6.86861 58.4839 6.56818 58.8142 6.35298C59.1466 6.13565 59.5344 6.02699 59.9775 6.02699C60.2332 6.02699 60.4857 6.0696 60.735 6.15483C60.9843 6.24006 61.2112 6.37855 61.4157 6.57031C61.6203 6.75994 61.7833 7.01136 61.9047 7.32457C62.0262 7.63778 62.0869 8.02344 62.0869 8.48153V8.80114H58.3028V8.14915H61.3199C61.3199 7.87216 61.2645 7.625 61.1537 7.40767C61.045 7.19034 60.8895 7.01882 60.6871 6.89311C60.4868 6.7674 60.2503 6.70455 59.9775 6.70455C59.6771 6.70455 59.4172 6.77912 59.1977 6.92827C58.9804 7.07528 58.8131 7.26705 58.6959 7.50355C58.5787 7.74006 58.5202 7.99361 58.5202 8.2642V8.69886C58.5202 9.0696 58.5841 9.38388 58.7119 9.64169C58.8419 9.89737 59.0219 10.0923 59.252 10.2266C59.4822 10.3587 59.7496 10.4247 60.0542 10.4247C60.2524 10.4247 60.4314 10.397 60.5912 10.3416C60.7531 10.2841 60.8927 10.1989 61.0099 10.0859C61.127 9.97088 61.2176 9.82812 61.2815 9.65767L62.0102 9.86222C61.9335 10.1094 61.8046 10.3267 61.6235 10.5142C61.4424 10.6996 61.2187 10.8445 60.9523 10.9489C60.686 11.0511 60.3866 11.1023 60.0542 11.1023ZM63.9885 8.04688V11H63.2343V6.09091H63.963V6.85795H64.0269C64.142 6.60866 64.3167 6.40838 64.551 6.2571C64.7854 6.10369 65.088 6.02699 65.4587 6.02699C65.7911 6.02699 66.0819 6.09517 66.3312 6.23153C66.5805 6.36577 66.7744 6.57031 66.9129 6.84517C67.0514 7.1179 67.1207 7.46307 67.1207 7.88068V11H66.3664V7.93182C66.3664 7.54616 66.2662 7.24574 66.066 7.03054C65.8657 6.81321 65.5908 6.70455 65.2414 6.70455C65.0006 6.70455 64.7854 6.75675 64.5958 6.86115C64.4083 6.96555 64.2602 7.1179 64.1515 7.31818C64.0429 7.51847 63.9885 7.76136 63.9885 8.04688ZM70.6339 6.09091V6.73011H68.0898V6.09091H70.6339ZM68.8313 4.91477H69.5856V9.59375C69.5856 9.80682 69.6165 9.96662 69.6783 10.0732C69.7422 10.1776 69.8232 10.2479 69.9212 10.2841C70.0213 10.3182 70.1268 10.3352 70.2376 10.3352C70.3207 10.3352 70.3888 10.331 70.4421 10.3224C70.4954 10.3118 70.538 10.3033 70.57 10.2969L70.7234 10.9744C70.6722 10.9936 70.6009 11.0128 70.5092 11.032C70.4176 11.0533 70.3015 11.0639 70.1609 11.0639C69.9478 11.0639 69.739 11.0181 69.5344 10.9265C69.332 10.8349 69.1637 10.6953 69.0295 10.5078C68.8974 10.3203 68.8313 10.0838 68.8313 9.7983V4.91477Z" fill="black"/>
<rect x="3" y="4" width="7" height="7" rx="3.5" fill="#FFCB6D"/>
</svg>
