<svg width="111" height="15" viewBox="0 0 111 15" fill="none" xmlns="http://www.w3.org/2000/svg">
<rect width="111" height="15" rx="7.5" fill="#FFDDD9"/>
<path d="M13.7926 11V4.45455H16.0043C16.5178 4.45455 16.9375 4.54723 17.2635 4.7326C17.5916 4.91584 17.8345 5.16406 17.9922 5.47727C18.1499 5.79048 18.2287 6.13991 18.2287 6.52557C18.2287 6.91122 18.1499 7.26172 17.9922 7.57706C17.8366 7.8924 17.5959 8.14382 17.2699 8.33132C16.9439 8.51669 16.5263 8.60938 16.017 8.60938H14.4318V7.90625H15.9915C16.343 7.90625 16.6254 7.84553 16.8384 7.72408C17.0515 7.60263 17.206 7.43857 17.3018 7.23189C17.3999 7.02308 17.4489 6.78764 17.4489 6.52557C17.4489 6.26349 17.3999 6.02912 17.3018 5.82244C17.206 5.61577 17.0504 5.45384 16.8352 5.33665C16.62 5.21733 16.3345 5.15767 15.9787 5.15767H14.5852V11H13.7926ZM20.8478 11.1151C20.5368 11.1151 20.2544 11.0565 20.0009 10.9393C19.7473 10.82 19.546 10.6484 19.3968 10.4247C19.2477 10.1989 19.1731 9.92614 19.1731 9.60653C19.1731 9.32528 19.2285 9.0973 19.3393 8.92259C19.4501 8.74574 19.5982 8.60724 19.7836 8.5071C19.9689 8.40696 20.1735 8.33239 20.3972 8.28338C20.623 8.23224 20.85 8.19176 21.0779 8.16193C21.3762 8.12358 21.6181 8.09482 21.8034 8.07564C21.9909 8.05433 22.1273 8.01918 22.2125 7.97017C22.2999 7.92116 22.3436 7.83594 22.3436 7.71449V7.68892C22.3436 7.37358 22.2573 7.12855 22.0847 6.95384C21.9142 6.77912 21.6554 6.69176 21.3081 6.69176C20.948 6.69176 20.6657 6.7706 20.4611 6.92827C20.2566 7.08594 20.1127 7.25426 20.0297 7.43324L19.3137 7.17756C19.4416 6.87926 19.612 6.64702 19.8251 6.48082C20.0403 6.3125 20.2747 6.19531 20.5282 6.12926C20.7839 6.06108 21.0353 6.02699 21.2825 6.02699C21.4402 6.02699 21.6213 6.04616 21.8258 6.08452C22.0325 6.12074 22.2317 6.19638 22.4235 6.31143C22.6174 6.42649 22.7782 6.60014 22.9061 6.83239C23.0339 7.06463 23.0978 7.37571 23.0978 7.76562V11H22.3436V10.3352H22.3052C22.2541 10.4418 22.1689 10.5558 22.0495 10.6772C21.9302 10.7987 21.7715 10.902 21.5733 10.9872C21.3752 11.0724 21.1333 11.1151 20.8478 11.1151ZM20.9629 10.4375C21.2612 10.4375 21.5126 10.3789 21.7172 10.2617C21.9238 10.1445 22.0794 9.99325 22.1838 9.80788C22.2903 9.62251 22.3436 9.42756 22.3436 9.22301V8.53267C22.3116 8.57102 22.2413 8.60618 22.1326 8.63814C22.0261 8.66797 21.9025 8.6946 21.7619 8.71804C21.6234 8.73935 21.4881 8.75852 21.356 8.77557C21.226 8.79048 21.1206 8.80327 21.0396 8.81392C20.8436 8.83949 20.6603 8.88104 20.4899 8.93857C20.3216 8.99396 20.1852 9.07812 20.0808 9.19105C19.9785 9.30185 19.9274 9.45312 19.9274 9.64489C19.9274 9.90696 20.0243 10.1051 20.2182 10.2393C20.4142 10.3714 20.6625 10.4375 20.9629 10.4375ZM24.4745 11V6.09091H25.2032V6.83239H25.2544C25.3438 6.58949 25.5058 6.3924 25.7401 6.24112C25.9745 6.08984 26.2387 6.0142 26.5328 6.0142C26.5882 6.0142 26.6574 6.01527 26.7405 6.0174C26.8236 6.01953 26.8865 6.02273 26.9291 6.02699V6.79403C26.9035 6.78764 26.8449 6.77805 26.7533 6.76527C26.6638 6.75035 26.569 6.7429 26.4688 6.7429C26.2302 6.7429 26.0171 6.79297 25.8296 6.89311C25.6443 6.99112 25.4972 7.12749 25.3886 7.3022C25.282 7.47479 25.2288 7.67187 25.2288 7.89347V11H24.4745ZM30.2657 6.09091V6.73011H27.7217V6.09091H30.2657ZM28.4632 4.91477H29.2174V9.59375C29.2174 9.80682 29.2483 9.96662 29.3101 10.0732C29.374 10.1776 29.455 10.2479 29.553 10.2841C29.6531 10.3182 29.7586 10.3352 29.8694 10.3352C29.9525 10.3352 30.0207 10.331 30.074 10.3224C30.1272 10.3118 30.1698 10.3033 30.2018 10.2969L30.3552 10.9744C30.3041 10.9936 30.2327 11.0128 30.1411 11.032C30.0494 11.0533 29.9333 11.0639 29.7927 11.0639C29.5796 11.0639 29.3708 11.0181 29.1663 10.9265C28.9639 10.8349 28.7955 10.6953 28.6613 10.5078C28.5292 10.3203 28.4632 10.0838 28.4632 9.7983V4.91477ZM32.1546 8.04688V11H31.4003V6.09091H32.129V6.85795H32.1929C32.308 6.60866 32.4827 6.40838 32.7171 6.2571C32.9514 6.10369 33.254 6.02699 33.6247 6.02699C33.9571 6.02699 34.248 6.09517 34.4972 6.23153C34.7465 6.36577 34.9404 6.57031 35.0789 6.84517C35.2174 7.1179 35.2867 7.46307 35.2867 7.88068V11H34.5324V7.93182C34.5324 7.54616 34.4323 7.24574 34.232 7.03054C34.0317 6.81321 33.7568 6.70455 33.4074 6.70455C33.1666 6.70455 32.9514 6.75675 32.7618 6.86115C32.5743 6.96555 32.4262 7.1179 32.3176 7.31818C32.2089 7.51847 32.1546 7.76136 32.1546 8.04688ZM38.7232 11.1023C38.2502 11.1023 37.8422 10.9979 37.4991 10.7891C37.1582 10.5781 36.8951 10.2841 36.7097 9.90696C36.5265 9.5277 36.4348 9.08665 36.4348 8.58381C36.4348 8.08097 36.5265 7.63778 36.7097 7.25426C36.8951 6.86861 37.1529 6.56818 37.4831 6.35298C37.8155 6.13565 38.2033 6.02699 38.6465 6.02699C38.9022 6.02699 39.1547 6.0696 39.4039 6.15483C39.6532 6.24006 39.8801 6.37855 40.0847 6.57031C40.2892 6.75994 40.4522 7.01136 40.5737 7.32457C40.6951 7.63778 40.7559 8.02344 40.7559 8.48153V8.80114H36.9718V8.14915H39.9888C39.9888 7.87216 39.9334 7.625 39.8226 7.40767C39.714 7.19034 39.5584 7.01882 39.356 6.89311C39.1557 6.7674 38.9192 6.70455 38.6465 6.70455C38.3461 6.70455 38.0861 6.77912 37.8667 6.92827C37.6493 7.07528 37.4821 7.26705 37.3649 7.50355C37.2477 7.74006 37.1891 7.99361 37.1891 8.2642V8.69886C37.1891 9.0696 37.253 9.38388 37.3809 9.64169C37.5108 9.89737 37.6909 10.0923 37.921 10.2266C38.1511 10.3587 38.4185 10.4247 38.7232 10.4247C38.9213 10.4247 39.1003 10.397 39.2601 10.3416C39.4221 10.2841 39.5616 10.1989 39.6788 10.0859C39.796 9.97088 39.8865 9.82812 39.9505 9.65767L40.6792 9.86222C40.6025 10.1094 40.4735 10.3267 40.2924 10.5142C40.1113 10.6996 39.8876 10.8445 39.6213 10.9489C39.3549 11.0511 39.0556 11.1023 38.7232 11.1023ZM41.9032 11V6.09091H42.6319V6.83239H42.6831C42.7725 6.58949 42.9345 6.3924 43.1689 6.24112C43.4032 6.08984 43.6674 6.0142 43.9615 6.0142C44.0169 6.0142 44.0861 6.01527 44.1692 6.0174C44.2523 6.01953 44.3152 6.02273 44.3578 6.02699V6.79403C44.3322 6.78764 44.2736 6.77805 44.182 6.76527C44.0925 6.75035 43.9977 6.7429 43.8975 6.7429C43.6589 6.7429 43.4458 6.79297 43.2583 6.89311C43.073 6.99112 42.926 7.12749 42.8173 7.3022C42.7108 7.47479 42.6575 7.67187 42.6575 7.89347V11H41.9032ZM53.1524 6.5H52.3598C52.3129 6.27202 52.2309 6.07173 52.1137 5.89915C51.9987 5.72656 51.858 5.58168 51.6919 5.46449C51.5278 5.34517 51.3456 5.25568 51.1453 5.19602C50.945 5.13636 50.7362 5.10653 50.5189 5.10653C50.1226 5.10653 49.7636 5.20668 49.4419 5.40696C49.1222 5.60724 48.8676 5.90234 48.678 6.29226C48.4905 6.68217 48.3968 7.16051 48.3968 7.72727C48.3968 8.29403 48.4905 8.77237 48.678 9.16229C48.8676 9.5522 49.1222 9.8473 49.4419 10.0476C49.7636 10.2479 50.1226 10.348 50.5189 10.348C50.7362 10.348 50.945 10.3182 51.1453 10.2585C51.3456 10.1989 51.5278 10.1104 51.6919 9.99325C51.858 9.87393 51.9987 9.72798 52.1137 9.5554C52.2309 9.38068 52.3129 9.1804 52.3598 8.95455H53.1524C53.0928 9.28906 52.9841 9.58842 52.8264 9.85263C52.6688 10.1168 52.4727 10.3416 52.2384 10.527C52.004 10.7102 51.7409 10.8498 51.449 10.9457C51.1592 11.0415 50.8492 11.0895 50.5189 11.0895C49.9607 11.0895 49.4642 10.9531 49.0296 10.6804C48.5949 10.4077 48.2529 10.0199 48.0036 9.51705C47.7544 9.0142 47.6297 8.41761 47.6297 7.72727C47.6297 7.03693 47.7544 6.44034 48.0036 5.9375C48.2529 5.43466 48.5949 5.04688 49.0296 4.77415C49.4642 4.50142 49.9607 4.36506 50.5189 4.36506C50.8492 4.36506 51.1592 4.413 51.449 4.50888C51.7409 4.60476 52.004 4.74538 52.2384 4.93075C52.4727 5.11399 52.6688 5.33771 52.8264 5.60192C52.9841 5.86399 53.0928 6.16335 53.1524 6.5ZM56.3253 11.1023C55.8821 11.1023 55.4933 10.9968 55.1587 10.7859C54.8263 10.5749 54.5664 10.2798 54.3789 9.90057C54.1935 9.52131 54.1009 9.07812 54.1009 8.57102C54.1009 8.05966 54.1935 7.61328 54.3789 7.23189C54.5664 6.8505 54.8263 6.55433 55.1587 6.34339C55.4933 6.13246 55.8821 6.02699 56.3253 6.02699C56.7685 6.02699 57.1563 6.13246 57.4886 6.34339C57.8232 6.55433 58.0831 6.8505 58.2685 7.23189C58.456 7.61328 58.5497 8.05966 58.5497 8.57102C58.5497 9.07812 58.456 9.52131 58.2685 9.90057C58.0831 10.2798 57.8232 10.5749 57.4886 10.7859C57.1563 10.9968 56.7685 11.1023 56.3253 11.1023ZM56.3253 10.4247C56.6619 10.4247 56.9389 10.3384 57.1562 10.1658C57.3736 9.99325 57.5344 9.76634 57.6388 9.48509C57.7433 9.20384 57.7955 8.89915 57.7955 8.57102C57.7955 8.2429 57.7433 7.93714 57.6388 7.65376C57.5344 7.37038 57.3736 7.14134 57.1562 6.96662C56.9389 6.7919 56.6619 6.70455 56.3253 6.70455C55.9886 6.70455 55.7116 6.7919 55.4943 6.96662C55.277 7.14134 55.1161 7.37038 55.0117 7.65376C54.9073 7.93714 54.8551 8.2429 54.8551 8.57102C54.8551 8.89915 54.9073 9.20384 55.0117 9.48509C55.1161 9.76634 55.277 9.99325 55.4943 10.1658C55.7116 10.3384 55.9886 10.4247 56.3253 10.4247ZM60.4553 4.45455V11H59.7011V4.45455H60.4553ZM62.5911 4.45455V11H61.8368V4.45455H62.5911ZM65.4172 11.1151C65.1061 11.1151 64.8238 11.0565 64.5702 10.9393C64.3167 10.82 64.1153 10.6484 63.9662 10.4247C63.817 10.1989 63.7425 9.92614 63.7425 9.60653C63.7425 9.32528 63.7979 9.0973 63.9086 8.92259C64.0194 8.74574 64.1675 8.60724 64.3529 8.5071C64.5383 8.40696 64.7428 8.33239 64.9665 8.28338C65.1924 8.23224 65.4193 8.19176 65.6473 8.16193C65.9456 8.12358 66.1874 8.09482 66.3728 8.07564C66.5603 8.05433 66.6966 8.01918 66.7819 7.97017C66.8692 7.92116 66.9129 7.83594 66.9129 7.71449V7.68892C66.9129 7.37358 66.8266 7.12855 66.654 6.95384C66.4836 6.77912 66.2247 6.69176 65.8774 6.69176C65.5173 6.69176 65.235 6.7706 65.0305 6.92827C64.8259 7.08594 64.6821 7.25426 64.599 7.43324L63.8831 7.17756C64.0109 6.87926 64.1814 6.64702 64.3944 6.48082C64.6096 6.3125 64.844 6.19531 65.0976 6.12926C65.3532 6.06108 65.6047 6.02699 65.8518 6.02699C66.0095 6.02699 66.1906 6.04616 66.3952 6.08452C66.6018 6.12074 66.801 6.19638 66.9928 6.31143C67.1867 6.42649 67.3476 6.60014 67.4754 6.83239C67.6032 7.06463 67.6672 7.37571 67.6672 7.76562V11H66.9129V10.3352H66.8746C66.8234 10.4418 66.7382 10.5558 66.6189 10.6772C66.4996 10.7987 66.3408 10.902 66.1427 10.9872C65.9445 11.0724 65.7027 11.1151 65.4172 11.1151ZM65.5322 10.4375C65.8305 10.4375 66.0819 10.3789 66.2865 10.2617C66.4932 10.1445 66.6487 9.99325 66.7531 9.80788C66.8596 9.62251 66.9129 9.42756 66.9129 9.22301V8.53267C66.8809 8.57102 66.8106 8.60618 66.702 8.63814C66.5954 8.66797 66.4719 8.6946 66.3312 8.71804C66.1927 8.73935 66.0574 8.75852 65.9253 8.77557C65.7954 8.79048 65.6899 8.80327 65.6089 8.81392C65.4129 8.83949 65.2297 8.88104 65.0592 8.93857C64.8909 8.99396 64.7545 9.07812 64.6501 9.19105C64.5479 9.30185 64.4967 9.45312 64.4967 9.64489C64.4967 9.90696 64.5937 10.1051 64.7876 10.2393C64.9836 10.3714 65.2318 10.4375 65.5322 10.4375ZM69.1461 11V4.45455H69.9004V6.87074H69.9643C70.0197 6.78551 70.0964 6.67685 70.1944 6.54474C70.2946 6.41051 70.4373 6.29119 70.6227 6.18679C70.8102 6.08026 71.0637 6.02699 71.3833 6.02699C71.7967 6.02699 72.161 6.13033 72.4764 6.337C72.7917 6.54368 73.0378 6.83665 73.2147 7.21591C73.3915 7.59517 73.4799 8.04261 73.4799 8.55824C73.4799 9.07812 73.3915 9.52876 73.2147 9.91016C73.0378 10.2894 72.7928 10.5835 72.4796 10.7923C72.1664 10.9989 71.8052 11.1023 71.3961 11.1023C71.0808 11.1023 70.8283 11.0501 70.6387 10.9457C70.449 10.8391 70.3031 10.7187 70.2008 10.5845C70.0985 10.4482 70.0197 10.3352 69.9643 10.2457H69.8748V11H69.1461ZM69.8876 8.54545C69.8876 8.91619 69.9419 9.24325 70.0506 9.52663C70.1593 9.80788 70.318 10.0284 70.5268 10.1882C70.7356 10.3459 70.9913 10.4247 71.2939 10.4247C71.6092 10.4247 71.8723 10.3416 72.0833 10.1754C72.2963 10.0071 72.4561 9.78125 72.5627 9.49787C72.6713 9.21236 72.7257 8.89489 72.7257 8.54545C72.7257 8.20028 72.6724 7.8892 72.5659 7.61222C72.4615 7.3331 72.3027 7.11257 72.0897 6.95064C71.8787 6.78658 71.6135 6.70455 71.2939 6.70455C70.987 6.70455 70.7292 6.78232 70.5204 6.93786C70.3116 7.09126 70.1539 7.30646 70.0474 7.58345C69.9409 7.85831 69.8876 8.17898 69.8876 8.54545ZM76.628 11.1023C76.1848 11.1023 75.796 10.9968 75.4615 10.7859C75.1291 10.5749 74.8691 10.2798 74.6816 9.90057C74.4963 9.52131 74.4036 9.07812 74.4036 8.57102C74.4036 8.05966 74.4963 7.61328 74.6816 7.23189C74.8691 6.8505 75.1291 6.55433 75.4615 6.34339C75.796 6.13246 76.1848 6.02699 76.628 6.02699C77.0712 6.02699 77.459 6.13246 77.7914 6.34339C78.1259 6.55433 78.3858 6.8505 78.5712 7.23189C78.7587 7.61328 78.8525 8.05966 78.8525 8.57102C78.8525 9.07812 78.7587 9.52131 78.5712 9.90057C78.3858 10.2798 78.1259 10.5749 77.7914 10.7859C77.459 10.9968 77.0712 11.1023 76.628 11.1023ZM76.628 10.4247C76.9647 10.4247 77.2417 10.3384 77.459 10.1658C77.6763 9.99325 77.8372 9.76634 77.9416 9.48509C78.046 9.20384 78.0982 8.89915 78.0982 8.57102C78.0982 8.2429 78.046 7.93714 77.9416 7.65376C77.8372 7.37038 77.6763 7.14134 77.459 6.96662C77.2417 6.7919 76.9647 6.70455 76.628 6.70455C76.2914 6.70455 76.0144 6.7919 75.7971 6.96662C75.5797 7.14134 75.4189 7.37038 75.3145 7.65376C75.21 7.93714 75.1578 8.2429 75.1578 8.57102C75.1578 8.89915 75.21 9.20384 75.3145 9.48509C75.4189 9.76634 75.5797 9.99325 75.7971 10.1658C76.0144 10.3384 76.2914 10.4247 76.628 10.4247ZM80.0038 11V6.09091H80.7325V6.83239H80.7836C80.8731 6.58949 81.0351 6.3924 81.2694 6.24112C81.5038 6.08984 81.768 6.0142 82.0621 6.0142C82.1175 6.0142 82.1867 6.01527 82.2698 6.0174C82.3529 6.01953 82.4157 6.02273 82.4584 6.02699V6.79403C82.4328 6.78764 82.3742 6.77805 82.2826 6.76527C82.1931 6.75035 82.0983 6.7429 81.9981 6.7429C81.7595 6.7429 81.5464 6.79297 81.3589 6.89311C81.1736 6.99112 81.0265 7.12749 80.9179 7.3022C80.8113 7.47479 80.7581 7.67187 80.7581 7.89347V11H80.0038ZM84.7971 11.1151C84.486 11.1151 84.2037 11.0565 83.9501 10.9393C83.6966 10.82 83.4952 10.6484 83.3461 10.4247C83.1969 10.1989 83.1223 9.92614 83.1223 9.60653C83.1223 9.32528 83.1777 9.0973 83.2885 8.92259C83.3993 8.74574 83.5474 8.60724 83.7328 8.5071C83.9181 8.40696 84.1227 8.33239 84.3464 8.28338C84.5723 8.23224 84.7992 8.19176 85.0272 8.16193C85.3255 8.12358 85.5673 8.09482 85.7527 8.07564C85.9402 8.05433 86.0765 8.01918 86.1618 7.97017C86.2491 7.92116 86.2928 7.83594 86.2928 7.71449V7.68892C86.2928 7.37358 86.2065 7.12855 86.0339 6.95384C85.8635 6.77912 85.6046 6.69176 85.2573 6.69176C84.8972 6.69176 84.6149 6.7706 84.4103 6.92827C84.2058 7.08594 84.062 7.25426 83.9789 7.43324L83.263 7.17756C83.3908 6.87926 83.5613 6.64702 83.7743 6.48082C83.9895 6.3125 84.2239 6.19531 84.4775 6.12926C84.7331 6.06108 84.9846 6.02699 85.2317 6.02699C85.3894 6.02699 85.5705 6.04616 85.775 6.08452C85.9817 6.12074 86.1809 6.19638 86.3727 6.31143C86.5666 6.42649 86.7275 6.60014 86.8553 6.83239C86.9831 7.06463 87.0471 7.37571 87.0471 7.76562V11H86.2928V10.3352H86.2544C86.2033 10.4418 86.1181 10.5558 85.9988 10.6772C85.8794 10.7987 85.7207 10.902 85.5225 10.9872C85.3244 11.0724 85.0826 11.1151 84.7971 11.1151ZM84.9121 10.4375C85.2104 10.4375 85.4618 10.3789 85.6664 10.2617C85.873 10.1445 86.0286 9.99325 86.133 9.80788C86.2395 9.62251 86.2928 9.42756 86.2928 9.22301V8.53267C86.2608 8.57102 86.1905 8.60618 86.0819 8.63814C85.9753 8.66797 85.8517 8.6946 85.7111 8.71804C85.5726 8.73935 85.4373 8.75852 85.3052 8.77557C85.1752 8.79048 85.0698 8.80327 84.9888 8.81392C84.7928 8.83949 84.6096 8.88104 84.4391 8.93857C84.2708 8.99396 84.1344 9.07812 84.03 9.19105C83.9277 9.30185 83.8766 9.45312 83.8766 9.64489C83.8766 9.90696 83.9735 10.1051 84.1674 10.2393C84.3635 10.3714 84.6117 10.4375 84.9121 10.4375ZM90.5587 6.09091V6.73011H88.0146V6.09091H90.5587ZM88.7561 4.91477H89.5104V9.59375C89.5104 9.80682 89.5413 9.96662 89.6031 10.0732C89.667 10.1776 89.748 10.2479 89.846 10.2841C89.9461 10.3182 90.0516 10.3352 90.1624 10.3352C90.2455 10.3352 90.3137 10.331 90.3669 10.3224C90.4202 10.3118 90.4628 10.3033 90.4948 10.2969L90.6482 10.9744C90.597 10.9936 90.5257 11.0128 90.434 11.032C90.3424 11.0533 90.2263 11.0639 90.0857 11.0639C89.8726 11.0639 89.6638 11.0181 89.4593 10.9265C89.2568 10.8349 89.0885 10.6953 88.9543 10.5078C88.8222 10.3203 88.7561 10.0838 88.7561 9.7983V4.91477ZM91.6933 11V6.09091H92.4475V11H91.6933ZM92.0768 5.27273C91.9298 5.27273 91.803 5.22266 91.6965 5.12251C91.5921 5.02237 91.5399 4.90199 91.5399 4.76136C91.5399 4.62074 91.5921 4.50036 91.6965 4.40021C91.803 4.30007 91.9298 4.25 92.0768 4.25C92.2238 4.25 92.3495 4.30007 92.4539 4.40021C92.5605 4.50036 92.6137 4.62074 92.6137 4.76136C92.6137 4.90199 92.5605 5.02237 92.4539 5.12251C92.3495 5.22266 92.2238 5.27273 92.0768 5.27273ZM95.8233 11.1023C95.3801 11.1023 94.9913 10.9968 94.6568 10.7859C94.3244 10.5749 94.0645 10.2798 93.877 9.90057C93.6916 9.52131 93.5989 9.07812 93.5989 8.57102C93.5989 8.05966 93.6916 7.61328 93.877 7.23189C94.0645 6.8505 94.3244 6.55433 94.6568 6.34339C94.9913 6.13246 95.3801 6.02699 95.8233 6.02699C96.2665 6.02699 96.6543 6.13246 96.9867 6.34339C97.3212 6.55433 97.5811 6.8505 97.7665 7.23189C97.954 7.61328 98.0478 8.05966 98.0478 8.57102C98.0478 9.07812 97.954 9.52131 97.7665 9.90057C97.5811 10.2798 97.3212 10.5749 96.9867 10.7859C96.6543 10.9968 96.2665 11.1023 95.8233 11.1023ZM95.8233 10.4247C96.16 10.4247 96.437 10.3384 96.6543 10.1658C96.8716 9.99325 97.0325 9.76634 97.1369 9.48509C97.2413 9.20384 97.2935 8.89915 97.2935 8.57102C97.2935 8.2429 97.2413 7.93714 97.1369 7.65376C97.0325 7.37038 96.8716 7.14134 96.6543 6.96662C96.437 6.7919 96.16 6.70455 95.8233 6.70455C95.4867 6.70455 95.2097 6.7919 94.9924 6.96662C94.775 7.14134 94.6142 7.37038 94.5098 7.65376C94.4054 7.93714 94.3532 8.2429 94.3532 8.57102C94.3532 8.89915 94.4054 9.20384 94.5098 9.48509C94.6142 9.76634 94.775 9.99325 94.9924 10.1658C95.2097 10.3384 95.4867 10.4247 95.8233 10.4247ZM99.9534 8.04688V11H99.1991V6.09091H99.9278V6.85795H99.9917C100.107 6.60866 100.282 6.40838 100.516 6.2571C100.75 6.10369 101.053 6.02699 101.424 6.02699C101.756 6.02699 102.047 6.09517 102.296 6.23153C102.545 6.36577 102.739 6.57031 102.878 6.84517C103.016 7.1179 103.085 7.46307 103.085 7.88068V11H102.331V7.93182C102.331 7.54616 102.231 7.24574 102.031 7.03054C101.831 6.81321 101.556 6.70455 101.206 6.70455C100.965 6.70455 100.75 6.75675 100.561 6.86115C100.373 6.96555 100.225 7.1179 100.116 7.31818C100.008 7.51847 99.9534 7.76136 99.9534 8.04688Z" fill="black"/>
<rect x="3" y="4" width="7" height="7" rx="3.5" fill="#FF7262"/>
</svg>
