<svg width="250" height="250" viewBox="0 0 250 250" fill="none" xmlns="http://www.w3.org/2000/svg">
<g clip-path="url(#clip0_529_924)">
<path fill-rule="evenodd" clip-rule="evenodd" d="M226.904 207.854C222.389 186.466 206.377 169.868 184.843 161.6C180.704 159.259 176.692 149.213 171.129 147.374C170.237 147.079 171.645 149.426 171.129 149.566C169.289 150.066 167.228 150.118 165.196 148.313C161.566 145.086 160.427 135.659 158.22 131.399C146.579 108.929 117.514 117.72 113.62 142.561C110.905 144.33 107.067 145.889 104.112 147.315C101.068 148.784 98.3913 152.34 95.2551 153.612C92.4568 154.746 87.846 153.943 85.0263 154.932C72.0573 159.481 61.073 165.221 52.4614 176.852C50.6468 179.305 48.6013 182.321 46.9501 184.799C38.437 194.599 32.524 205.583 27.0781 217.368C11.8415 251.958 7.69718 290.258 3.97894 327.527C4.06351 334.047 -0.263592 352.129 6.13631 355.256C5.75382 355.652 5.89238 356.449 6.60207 356.442C22.8297 356.278 39.0195 357.73 54.9954 360.554C62.7034 361.916 70.3702 363.784 78.2217 364.091C94.5202 363.979 110.76 361.248 127.037 363.832C146.605 363.832 170.386 363.262 192.154 362.425C212.499 361.643 232.953 363.409 253.046 359.95C254.637 359.698 255.414 357.758 255.08 356.368C252.723 347.778 251.566 338.937 250.243 330.145C250.506 324.506 250.035 318.619 247.949 313.367C242.498 277.909 235.509 242.682 226.904 207.854Z" fill="white"/>
<path fill-rule="evenodd" clip-rule="evenodd" d="M220.337 254.461C219.908 256.546 219.306 258.631 218.506 260.606C217.735 262.511 216.574 264.219 215.775 266.102C215.667 266.356 215.492 266.548 215.28 266.694L215.346 267.206V267.206L215.407 267.718C215.806 271.175 216.254 274.623 216.643 278.079L216.832 279.808C217.596 287.025 218.802 294.207 219.739 301.404C220.656 308.453 221.59 315.501 222.588 322.539C223.619 329.795 224.67 337.042 225.896 344.269C226.414 347.321 226.954 350.371 227.517 353.418L227.952 355.75C232.427 356.827 233.65 363.065 229.093 365.368C227.025 366.408 224.368 366.158 222.663 364.522C220.892 362.818 220.818 359.744 220.407 357.435L220.011 355.289C217.048 339.156 214.476 322.836 213.273 306.475C212.964 302.25 212.704 298.022 212.535 293.79C212.374 289.81 212.451 285.83 212.389 281.85L212.369 280.764C212.275 276.52 212.353 272.282 212.463 268.037C212.476 267.52 212.499 267.003 212.525 266.483C212.376 266.307 212.268 266.099 212.223 265.897L212.164 265.63C212.018 264.944 212.184 264.141 212.711 263.65C212.938 260.758 213.237 257.87 213.319 254.982C213.325 254.744 213.667 254.751 213.686 254.982C213.878 257.441 214.262 259.906 214.646 262.368C217.114 260.384 218.939 257.112 220.015 254.374C220.094 254.175 220.383 254.247 220.337 254.461ZM161.93 139.512C162.339 141.386 163.149 143.068 164.236 144.632C164.753 145.38 165.341 146.076 166.047 146.658C166.652 147.156 167.342 147.481 167.986 147.914C168.922 147.767 169.901 148.122 170.558 148.811L170.455 147.803C170.422 147.478 170.962 147.413 171.024 147.728C173.869 162.079 176.464 176.438 178.711 190.893L179.695 197.276L180.622 203.268C182.16 213.254 183.648 223.236 184.769 233.294C186.262 246.718 187.517 260.176 188.434 273.654C189.354 287.227 189.921 300.809 190.324 314.408C190.425 317.836 190.532 321.261 190.636 324.689L191.331 320.591C192.024 316.491 192.704 312.388 193.287 308.271C195.378 293.534 197.05 278.692 197.866 263.829C198.615 250.227 198.364 236.355 194.904 223.104C194.032 219.77 192.965 216.489 191.677 213.292C190.428 210.182 188.724 207.3 187.38 204.237C185.819 200.672 185.351 197.309 186.154 193.471C186.857 190.128 188.09 186.983 188.31 183.541C188.724 177.154 186.645 170.967 183.708 165.376C182.934 163.903 182.118 162.449 181.266 161.008C178.687 156.653 175.779 152.457 172.761 148.434C172.598 148.219 172.942 147.982 173.118 148.158C175.87 150.877 178.878 153.55 181.354 156.52C182.557 157.964 183.731 159.437 184.843 160.95C197.047 162.989 207.533 170.59 214.701 180.627C222.835 192.017 226.95 205.727 229.995 219.227C233.38 234.231 236.236 249.372 239.277 264.45C242.425 280.052 245.557 295.654 248.725 311.253C250.299 318.997 251.874 326.742 253.445 334.489C254.241 338.411 255.078 342.324 255.952 346.234C256.401 348.237 256.883 350.238 257.299 352.248C257.767 354.515 257.331 355.965 255.796 357.63C255.23 358.248 254.336 358.239 253.633 357.91L253.414 357.807L253.201 357.704C252.332 357.277 251.65 356.834 251.11 355.884C250.514 354.84 250.42 353.682 250.215 352.521C249.838 350.384 249.464 348.247 249.087 346.107C248.523 342.906 247.91 339.715 247.286 336.525L244.156 320.58C243.321 316.329 242.485 312.078 241.645 307.828C238.643 292.633 235.637 277.441 232.632 262.248C229.747 247.66 227.194 232.973 223.909 218.469L223.722 217.652L223.532 216.836C220.595 204.334 216.491 192.24 209.045 181.645C203.314 173.498 195.356 166.222 185.982 162.54C186.642 163.49 187.276 164.459 187.881 165.448C191.68 171.654 194.454 179.02 193.804 186.41C193.485 190.02 192.113 193.569 192.243 197.208C192.363 200.441 194.364 203.281 195.746 206.094C198.884 212.469 201.155 219.244 202.618 226.194C205.555 240.15 205.546 254.511 204.534 268.678C203.434 284.079 201.347 299.476 198.969 314.727C197.749 322.549 196.126 330.306 194.884 338.116C194.269 341.966 193.433 345.808 192.701 349.639L192.352 351.47C192.157 352.485 191.955 353.498 191.721 354.5L191.576 355.1V355.207C191.57 355.946 191.368 356.557 191.042 357.045C190.597 358.472 190.044 359.865 189.309 361.202C188.932 361.885 188.385 362.268 187.79 362.408C187.192 363.778 185.835 364.831 184.216 364.825L162.915 364.744C150.543 364.694 138.17 364.613 125.798 364.545C122.676 364.529 119.557 364.47 116.437 364.389C113.513 364.308 110.71 363.956 107.818 363.592C104.553 363.182 102.784 360.87 103.271 357.608C103.379 356.889 103.495 356.173 103.606 355.458C102.956 355.672 102.182 355.572 101.658 355.061L101.167 354.58C100.487 353.907 99.878 353.246 99.4465 352.348C99.0009 351.425 98.6395 350.449 98.246 349.506C97.3971 347.476 96.5713 345.44 95.7676 343.394C94.1579 339.303 92.548 335.195 91.0515 331.061C88.0888 322.874 85.467 314.564 83.1873 306.16C79.1217 291.166 76.1812 275.883 74.3272 260.463L73.884 256.787L73.7551 255.702C73.0521 249.725 72.4604 243.656 72.74 237.692C72.9127 233.958 73.4914 230.195 74.887 226.708C76.1747 223.492 78.1619 220.74 80.0516 217.865L80.2679 217.533L80.4853 217.193C82.1379 214.581 83.4529 211.851 83.5188 208.68C83.5855 205.461 82.6479 202.329 81.5996 199.316L81.3383 198.573L81.1629 198.081C78.9327 191.854 76.3947 185.715 77.2317 178.939C78.468 168.961 84.5173 160.917 92.1284 154.715C85.3597 156.055 78.6599 158.702 72.7469 162.059C65.7635 166.027 59.4764 171.263 54.0545 177.173C43.8092 188.342 36.4944 201.742 30.5069 215.578C24.2391 230.058 19.5913 245.231 16.0887 260.602C12.5662 276.061 10.2082 291.768 8.59788 307.536C7.79484 315.384 7.16353 323.251 6.64021 331.123C6.37351 335.156 6.17185 339.195 5.85962 343.222C5.54738 347.245 5.4072 351.33 4.42495 355.246C3.96635 357.071 0.873238 357.256 0.54181 355.246C-0.193729 350.757 0.0118342 346.115 0.217117 341.57L0.235752 341.157C0.437731 336.629 0.701182 332.105 1.01309 327.581C1.65091 318.334 2.50273 309.1 3.61508 299.896C7.5148 267.585 14.7064 235.444 28.8124 205.951C35.4539 192.06 43.9787 178.562 55.8372 168.531C61.4832 163.76 67.8483 159.951 74.7078 157.193C80.8423 154.724 87.074 153.557 93.592 153.56C96.8607 151.056 100.37 148.873 103.876 147.009C104.087 146.896 104.309 147.169 104.133 147.345C104.042 147.432 103.954 147.523 103.863 147.608C104.26 147.634 104.67 147.819 105.037 148.206C106.325 149.556 107.412 151.244 108.384 152.997C109.864 154.845 111.275 156.754 112.752 158.582C115.117 161.509 117.536 164.394 119.986 167.256C124.099 172.066 128.347 176.785 132.776 181.315L133.516 182.068C135.812 184.394 138.138 187.177 140.853 189.018L140.998 189.115C142.144 189.861 142.957 189.997 143.934 188.882C144.822 187.867 145.561 186.69 146.321 185.571L146.497 185.314C150.377 179.677 153.974 173.833 157.23 167.816C158.714 165.077 160.126 162.299 161.465 159.49L161.865 158.647C162.593 157.099 163.384 155.58 163.985 153.986C164.125 153.612 164.262 153.238 164.395 152.867C162.346 151.524 160.759 148.616 160.183 146.34C159.585 143.975 159.887 141.548 160.954 139.386C161.155 138.979 161.832 139.08 161.93 139.512ZM60.846 235.6C60.5626 244.591 60.3905 253.59 59.9674 262.573L59.8213 265.64C60.4813 266.376 60.8683 267.224 60.5593 268.389C60.4393 268.835 60.0844 269.238 59.6421 269.387L59.5042 272.239C58.8765 285.068 58.1407 297.871 56.7962 310.668C55.1147 326.683 53.1697 342.672 51.2283 358.658C50.9518 360.922 49.3773 362.717 46.9282 362.386C44.4501 362.05 43.4451 359.894 43.7703 357.646C45.0486 348.829 46.2777 340.005 47.3546 331.159L48.5807 321.079C50.1182 308.48 51.6919 295.883 53.505 283.324C54.2628 278.075 55.0499 272.829 55.84 267.582L55.5638 267.224C54.4349 265.758 53.2673 264.323 52.1126 262.879C49.8948 260.095 47.7058 257.333 45.673 254.419C45.5719 254.273 45.7771 254.058 45.9232 254.169C48.7723 256.273 51.469 258.524 54.1815 260.811L56.5558 262.82C57.9219 253.756 59.2749 244.688 60.4813 235.6C60.5108 235.373 60.8524 235.356 60.846 235.6ZM101.831 149.566C100.116 151.182 98.3634 152.763 96.636 154.37L96.0033 154.961L95.3735 155.555C92.3378 158.434 89.4292 161.431 87.0057 164.872C82.5563 171.192 79.9056 178.896 81.7559 186.612C83.2914 193.002 86.8138 198.795 87.7603 205.346C88.2348 208.628 88.0042 211.926 86.768 215.025C85.506 218.187 83.4895 220.896 81.6778 223.748C77.7423 229.948 77.2057 236.752 77.5963 243.933C78.0061 251.433 78.8677 258.937 79.9316 266.369C82.0844 281.428 85.3304 296.331 89.6269 310.925C91.7771 318.233 94.317 325.385 96.8445 332.567C98.1029 336.141 99.5701 339.631 101.082 343.104C101.879 344.933 102.696 346.75 103.525 348.565C103.219 346.003 103.219 343.371 103.069 340.825C102.855 337.175 102.582 333.533 102.331 329.887C101.821 322.487 101.365 315.081 100.959 307.675C99.518 281.265 98.4577 254.832 98.5355 228.38C98.5748 215.152 98.8448 201.924 99.4139 188.709C99.6808 182.486 100.198 176.269 100.665 170.055L100.764 168.723C101.177 163.145 101.671 157.554 102.52 152.025C102.269 151.458 102.05 150.884 101.889 150.295L101.831 150.073L101.873 150.08C101.834 149.907 101.821 149.735 101.831 149.566ZM116.655 126.837C116.691 126.685 116.909 126.698 116.948 126.837C117.914 130.09 117.572 133.668 116.74 136.94C116.291 138.712 115.654 140.433 114.883 142.092L114.613 142.672C113.953 144.085 113.209 145.54 111.923 146.421C111.386 146.788 110.427 146.811 109.89 146.421L109.616 146.213C109.571 146.178 109.527 146.142 109.483 146.105C108.983 145.685 108.735 144.759 108.966 144.147C109.561 142.57 110.912 141.412 111.845 140.007C112.671 138.758 113.403 137.44 114.011 136.071C115.322 133.108 115.91 129.963 116.655 126.837Z" fill="#D9D9D9"/>
<path fill-rule="evenodd" clip-rule="evenodd" d="M197.732 53.9298C194.382 41.8351 181.575 36.5576 170.041 35.7201C138.813 32.4738 107.027 49.8824 93.1821 78.111C82.1 99.5458 81.7529 122.063 105.575 134.301C106.876 135.019 108.234 135.785 109.622 136.481C110.827 137.602 112.069 138.679 113.424 139.583C126.395 148.113 142.317 151.802 157.746 151.002C180.527 150.543 188.659 135.085 193.636 115.261C198.884 95.5257 201.82 74.1107 197.732 53.9298V53.9298Z" fill="white"/>
<path fill-rule="evenodd" clip-rule="evenodd" d="M212.686 167.931C211.623 164.714 210.289 161.595 209.044 158.444C208.78 156.873 208.604 155.289 208.559 153.692C208.387 147.987 209.454 142.233 210.65 136.678C213.083 125.389 215.662 114.216 216.957 102.719C219.269 82.1534 217.894 60.7683 208.539 41.995C200.434 25.7326 186.699 12.4332 168.957 7.45044C163.712 5.97674 158.314 5.16395 152.878 4.83935C152.205 4.73234 151.534 4.62761 150.865 4.52679C143.305 3.38712 135.652 2.81924 128.01 3.31068C115.339 4.12608 102.785 7.76756 92.2317 14.9698C81.6062 22.2219 74.0565 32.3905 70.5435 44.7931C66.889 57.6957 67.199 71.6694 60.8882 83.766C59.0239 87.3398 56.8476 90.7373 54.7722 94.1915C49.2655 100.336 43.2867 107.166 41.9766 115.615C40.3602 126.055 46.3675 134.879 52.0528 143.027C57.1918 150.384 64.1651 160.545 58.8765 169.603C56.3819 173.877 52.3846 177.074 49.3825 180.97C46.2699 185.016 43.8403 189.661 42.5849 194.624C40.2268 203.945 42.3962 213.661 48.7028 220.946C51.9878 224.739 56.2063 227.247 60.7727 229.201C65.4465 231.198 70.013 233.094 73.877 236.493C75.6431 238.045 77.2596 239.746 78.7882 241.528C80.2128 243.756 81.8716 245.838 83.7417 247.744C85.8006 249.842 89.8336 246.97 87.944 244.501C87.8041 244.319 87.6675 244.14 87.5276 243.958C86.1453 242.156 84.7565 240.354 83.3027 238.611C78.9671 231.741 77.2986 223.331 79.455 215.307C80.0144 213.222 80.8015 211.244 81.7808 209.377C81.9887 209.921 82.2163 210.457 82.457 210.987C83.3937 213.043 84.7081 215.479 86.3795 217.561C86.4446 218.988 86.6595 220.403 87.0755 221.789C89.6515 230.379 98.2641 234.617 106.031 237.915C106.792 238.24 107.543 238.552 108.282 238.861C110.311 239.71 112.458 236.819 111.193 235.075C110.861 234.617 110.539 234.148 110.233 233.673C106.59 228.034 104.857 221.288 105.839 214.568C106.873 207.462 111.063 201.581 115.223 195.938C119.308 190.389 123.695 184.727 125.523 177.958C127.546 170.481 125.705 163.026 122.583 156.144C119.724 149.846 115.916 144.042 112.722 137.917C113.815 139.008 114.944 140.063 116.106 141.08C117.413 142.224 118.756 143.534 120.305 144.34C121.451 144.936 122.598 143.509 121.691 142.544C120.499 141.276 118.973 140.297 117.649 139.165C116.378 138.079 115.144 136.95 113.94 135.789C112.458 134.361 111.048 132.866 109.688 131.325C108.6 128.554 107.704 125.708 106.974 122.819C105.982 118.91 105.065 114.75 105.137 110.697C105.208 106.541 107.368 103.63 110.243 100.839C111.461 99.6573 112.69 98.4896 113.917 97.3197C116.531 95.4011 118.996 93.2577 121.391 91.1202C125.658 87.3112 129.786 83.2849 133.727 79.141C134.785 78.0293 135.833 76.9052 136.869 75.7681C140.487 72.0551 143.938 68.1781 147.191 64.1672C150.424 62.9898 153.53 61.4319 156.444 59.5975C155.176 60.8822 153.894 62.1506 152.62 63.4289C149.78 66.278 146.83 69.1402 143.539 71.4622C143.2 71.7032 143.405 72.2138 143.822 72.1325C148.008 71.2966 151.923 69.9046 155.579 67.6864C159.297 65.4292 162.572 62.3621 165.629 59.2852C167.36 58.5046 169.029 57.4996 170.554 56.5109C170.635 56.4588 170.716 56.4035 170.798 56.3512C169.295 61.1131 167.09 66.5057 162.39 68.2035C162.237 68.2588 162.247 68.5125 162.429 68.5027C166.389 68.2705 169.571 66.4891 172.083 63.8927C174.103 62.4388 176.032 60.8981 177.871 59.2208C179.654 57.5959 181.342 55.8532 182.946 54.0487C180.705 58.488 178.194 62.8288 175.719 67.1204C175.589 67.3481 175.862 67.6571 176.096 67.4977C181.323 63.959 185.287 59.3925 188.53 53.9931C189.009 53.1982 189.466 52.3903 189.911 51.5762C189.575 52.8502 189.208 54.1161 188.815 55.3754C188.103 57.6551 187.402 59.9399 186.689 62.2183C186.304 63.4468 185.835 64.6473 185.321 65.8273C184.953 66.6716 184.471 67.5143 184.396 68.4403C184.391 68.5018 184.458 68.5421 184.512 68.5288C186.596 68.0077 188.537 65.6308 190.022 64.1584C190.849 63.3385 191.624 62.4385 192.337 61.4894C192.469 66.9559 192.56 72.423 192.44 77.9057C192.216 87.9753 191.565 98.0418 190.732 108.079C189.997 116.952 189.454 126.264 184.504 133.975C180.672 139.943 174.46 144.074 167.711 146.074C167.116 146.253 166.517 146.413 165.916 146.556C156.145 148.875 146.414 146.247 137.775 141.602C135.18 140.207 132.962 143.992 135.466 145.55C144.84 151.386 156.721 153.373 167.33 150.758C166.996 163.289 173.172 175.178 179.316 185.807C182.754 191.755 186.195 197.665 188.625 204.115C190.687 209.592 192.088 215.274 192.56 221.119C193.119 228.008 192.57 234.935 191.607 241.766C191.555 242.136 191.503 242.51 191.448 242.881C191.233 244.348 192.55 245.577 193.978 244.826C200.291 241.509 203.013 234.437 204.669 227.9C206.217 221.776 207.268 215.531 207.853 209.244C208.712 211.615 209.408 214.045 209.948 216.523C210.023 216.878 210.094 217.232 210.166 217.587C210.575 219.658 213.711 219.512 214.212 217.587C214.303 217.239 214.391 216.891 214.472 216.539C217.058 206.083 217.754 195.177 216.388 184.486C215.669 178.863 214.469 173.314 212.686 167.931" fill="#D9D9D9"/>
<path d="M133.951 161.844C132.404 161.909 131.212 161.476 130.375 160.546C129.521 159.521 128.999 158.441 128.808 157.305C128.777 157.116 128.713 156.737 128.618 156.169C128.617 155.585 128.648 154.898 128.71 154.109C128.615 153.541 128.748 152.594 129.109 151.268C129.47 149.942 129.839 148.371 130.216 146.555C130.94 144.487 132.191 142.087 133.972 139.354C135.752 136.622 137.304 134.56 138.628 133.17C139.369 132.364 139.913 131.835 140.259 131.582C140.59 131.234 140.756 131.06 140.756 131.06C140.692 130.682 141.236 129.86 142.387 128.597C143.521 127.238 144.53 126.29 145.413 125.752C145.413 125.752 145.957 125.223 147.045 124.164C148.133 123.105 148.952 122.189 149.504 121.415C151.316 118.872 152.591 116.613 153.331 114.64C154.054 112.571 154.501 110.306 154.672 107.844C154.843 105.382 154.965 102.343 155.04 98.7292C154.578 95.3997 154.205 93.1748 153.919 92.0546C153.713 90.8239 152.97 89.8778 151.691 89.2165C149.528 88.5088 147.05 88.8274 144.258 90.1722C141.545 91.4065 139.007 93.3902 136.643 96.1233C134.357 98.7459 132.775 101.786 131.895 105.243C131.597 106.948 131.449 108.092 131.449 108.676C131.545 109.244 131.814 109.978 132.257 110.877C132.384 111.635 132.598 112.329 132.899 112.96C133.294 113.575 133.531 114.119 133.611 114.592C133.248 114.75 132.546 114.917 131.504 115.092C130.558 115.251 129.556 115.37 128.498 115.451C127.441 115.531 126.557 115.484 125.847 115.312C125.847 115.312 125.61 115.059 125.136 114.555C124.661 114.05 124.298 113.625 124.045 113.278C123.35 112.616 122.947 111.953 122.835 111.291C122.803 110.517 122.667 109.421 122.429 108.001C122.774 105.996 123.331 103.809 124.102 101.441C124.857 98.9781 125.966 96.6016 127.431 94.3114C128.897 92.0212 130.709 90.0621 132.869 88.4339C134.715 87.2481 136.244 86.2125 137.458 85.3273C138.751 84.3314 139.398 83.8335 139.398 83.8335C139.398 83.8335 139.729 83.7779 140.392 83.6666C141.133 83.4448 142.34 83.0961 144.013 82.6207C144.597 82.62 145.212 82.5167 145.859 82.3107C146.6 82.0889 147.011 82.2147 147.09 82.688C147.374 82.6404 147.942 82.545 148.794 82.4019C149.647 82.2589 150.451 82.1238 151.209 81.9966C152.392 82.0899 153.655 82.3646 154.997 82.8207C156.324 83.1821 157.571 83.6541 158.739 84.2367C159.987 84.7086 161.005 85.2677 161.795 85.9138C162.808 87.8854 163.529 90.4413 163.959 93.5815C164.373 96.627 164.44 99.9254 164.16 103.477C163.88 107.028 163.292 110.485 162.397 113.848C161.58 117.1 160.4 119.926 158.856 122.327C158.383 122.991 157.501 124.112 156.208 125.692C154.916 127.272 153.553 129.009 152.119 130.905C150.764 132.69 149.661 134.238 148.81 135.549C145.893 137.888 143.506 141.063 141.649 145.074C139.791 149.085 138.533 152.898 137.874 156.513C137.214 158.96 136.727 160.405 136.412 160.847C136.097 161.289 135.276 161.622 133.951 161.844ZM134.29 188.216C132.602 189.181 131.143 189.766 129.913 189.973C128.761 190.069 127.387 189.716 125.792 188.913C123.707 187.51 122.806 185.91 123.088 184.11C123.448 182.2 124.716 180.186 126.892 178.069C128.421 176.741 129.557 175.967 130.298 175.745C131.134 175.507 132.468 175.624 134.299 176.095C137.442 177.417 139.006 179.199 138.993 181.44C139.075 183.665 137.507 185.924 134.29 188.216Z" fill="black"/>
</g>
<defs>
<clipPath id="clip0_529_924">
<rect width="250" height="250" fill="white"/>
</clipPath>
</defs>
</svg>
