<svg width="250" height="250" viewBox="0 0 250 250" fill="none" xmlns="http://www.w3.org/2000/svg">
<g clip-path="url(#clip0_526_671)">
<path fill-rule="evenodd" clip-rule="evenodd" d="M120.078 128.612C128.098 122.504 148.233 119.758 156.793 125.638C165.248 131.543 166.169 141.093 170.109 149.877C173.826 148.125 179.965 150.635 181.042 154.084C182.379 155.711 182.439 160.281 183.361 162.468C223.467 168.852 229.556 200.12 234.383 235.618C240.77 271.639 255.267 307.582 248.973 344.649C249.793 345.835 250.44 346.988 251.038 348.358C252.47 350.796 250.625 354.246 247.736 354.112C243.996 353.784 240.293 353.335 236.535 353.195C226.119 352.834 215.694 352.877 205.273 353.009L203.852 353.028C151.338 353.681 98.8263 354.97 46.3094 355.311C44.4042 355.314 43.4714 353.605 43.7258 351.92C44.2382 348.526 44.7135 345.131 45.2097 341.736C32.7881 345.017 19.5828 345.842 7.19635 342.081C6.32984 341.198 9.21528 341.677 9.67306 341.542C-1.72638 333.753 1.67793 317.343 2.68771 305.524C8.96673 265.025 11.1803 220.215 35.4402 185.657C45.9355 171.554 61.3224 160.387 79.0032 157.875L79.4937 157.808C84.6635 157.118 90.4252 156.896 94.9453 154.084C100.029 150.026 102.196 142.527 107.544 142.456C109.31 142.433 111.712 144.667 114.298 146.184C114.491 142.847 116.289 140.031 116.686 137.444L116.718 137.223C117.132 134.206 116.565 131.493 120.078 128.612ZM206.27 236.688C194.999 228.858 165.884 232.792 165.217 233.231C163.75 234.196 163.118 234.281 162.324 235.535C161.54 235.639 160.757 235.747 159.975 235.858C158.405 236.371 159.569 238.301 161.381 237.612C160.291 242.315 163.5 245.659 164.778 250.309C165.192 251.818 164.793 254.533 164.778 256.075C164.902 258.042 167.076 260.365 166.713 262.338C165.425 269.352 158.434 276.195 161.381 282.997C163.334 286.839 169.207 288.798 173.112 290.104C181.201 293.209 195.297 289.987 199.997 282.997C202.504 279.269 205.409 269.863 206.904 266.946L207.235 262.318C208.052 250.815 208.779 238.431 206.27 236.688Z" fill="white"/>
<path fill-rule="evenodd" clip-rule="evenodd" d="M105.58 141.778C106.358 141.089 107.51 141.955 107.015 142.886C105.904 144.978 104.764 146.96 103.273 148.809C102.369 149.93 101.4 150.991 100.419 152.04C102.938 154.219 105.098 156.924 107.138 159.46C109.747 162.703 112.213 166.083 115.141 169.05C118.029 171.977 121.222 174.022 125.083 175.386L125.863 175.657C129.742 177.019 133.888 178.858 136.074 182.53C136.505 183.254 135.637 184.149 134.907 183.697C131.108 181.345 126.644 180.872 122.509 179.318C118.514 177.816 115.032 175.506 111.955 172.556C108.884 169.612 106.305 166.262 103.614 162.984C100.954 159.741 98.0898 156.972 94.9431 154.229C90.0873 157.496 84.5445 158.917 78.9085 160.313L78.2933 160.466C72.6504 161.863 67.0378 163.485 61.7439 165.918C57.0764 168.063 52.4855 170.624 48.6835 174.114C44.6476 177.818 41.5065 182.548 38.6315 187.175C32.2004 197.525 27.6791 208.864 23.6987 220.34C19.5588 232.278 16.0961 244.454 13.3006 256.776C11.8789 263.043 10.7242 269.355 9.77513 275.711C9.31832 278.772 8.91252 281.84 8.55611 284.914C8.17565 288.197 8.08825 291.575 7.08106 294.732C6.64927 296.085 5.62973 296.646 4.60922 296.598L4.40194 299.191C4.12708 302.647 3.87086 306.104 3.7843 309.582C3.64072 315.365 3.70583 321.13 4.12177 326.901L4.18068 327.688C4.50753 331.899 5.23791 336.631 8.40471 339.715C11.6842 342.908 16.7277 343.913 21.1479 343.97C31.443 344.104 41.3531 339.24 50.4633 334.972C59.8458 330.577 68.9719 325.699 77.8794 320.408C82.4156 317.714 86.9028 314.93 91.3328 312.065C93.5067 310.658 95.6654 309.228 97.8078 307.775C99.0349 306.942 100.198 306.03 101.447 305.291C100.835 304.721 100.562 303.825 101.074 303.043C97.463 299.908 95.9601 294.314 95.7843 289.788C95.6423 286.135 96.18 282.492 96.6043 278.872C96.8184 277.047 97.0829 275.226 97.3575 273.409C97.466 272.691 97.5488 271.923 97.6755 271.166C87.9243 276.524 77.8998 281.297 67.6099 285.536C62.3355 287.709 56.9935 289.663 51.5777 291.454L50.4801 291.815C45.3486 293.495 40.0944 295.081 34.7895 296.042C34.5059 296.093 34.2755 295.674 34.5783 295.541C39.7481 293.26 45.097 291.336 50.3444 289.235L51.2067 288.884V288.884C51.1076 288.878 51.0049 288.864 50.8977 288.839C47.8203 288.096 44.7669 286.951 41.7485 285.988C38.9473 285.093 35.7999 284.532 33.1816 283.181C32.9801 283.077 33.0929 282.797 33.2891 282.784C36.2321 282.58 39.4268 283.438 42.3122 283.942L43.3962 284.132C45.2121 284.452 47.0682 284.796 48.8752 285.245C48.9405 284.64 49.2787 284.032 49.7599 283.676C55.0548 279.755 54.5171 271.835 55.0834 265.995L55.5033 261.659C56.242 254.071 57.0234 246.484 58.2106 238.952C58.2739 238.55 58.8961 238.665 58.8987 239.045C58.9599 248.381 58.2552 257.674 57.9019 266.995L57.8472 268.524C57.652 274.276 57.4989 280.249 53.8764 284.674C54.3829 284.378 55.0678 284.378 55.4782 284.866C55.9824 285.466 56.2735 286.14 56.2644 286.801C59.5378 285.429 62.7969 284.021 66.04 282.584C76.467 277.965 86.6754 272.795 96.6138 267.202C97.6833 266.6 98.6999 267.073 99.2289 267.866L99.3052 267.856C99.318 267.854 99.3309 267.852 99.3442 267.852L99.4199 267.849C99.4228 267.849 99.4258 267.849 99.4284 267.849C100.827 267.081 102.733 267.628 103.934 268.749C103.969 268.783 103.999 268.819 104.031 268.855C105.551 268.173 106.97 267.252 108.258 266.084C110.893 263.696 113.126 260.742 115.072 257.78C118.656 252.325 121.7 246.259 126.542 241.769C130.475 238.12 135.352 235.849 140.468 234.423C140.447 234.273 140.504 234.114 140.607 234.008C140.87 233.739 141.057 233.646 141.397 233.809C141.424 233.822 141.44 233.841 141.451 233.86L141.951 233.007C142.223 232.544 142.503 232.078 142.6 231.956C143.181 231.224 143.779 230.498 144.385 229.788C145.414 228.585 146.587 227.398 147.945 226.563C150.918 224.737 154.043 225.77 157.099 226.769C158.946 227.372 160.786 227.995 162.63 228.607L162.82 228.669C164.195 229.111 165.803 229.497 166.418 230.954C166.661 231.53 166.699 232.128 166.586 232.708C179.641 229.388 194.142 230.914 206.883 234.811C207.372 234.961 207.86 235.363 207.963 235.891C209.423 243.377 210.073 251.054 209.412 258.668C208.842 265.24 207.386 271.68 204.642 277.697L204.486 278.037C201.907 283.613 197.82 290.487 191.577 292.235C187.808 293.29 183.64 292.668 179.795 292.474C176.059 292.286 172.24 292.259 168.54 291.672C165.244 291.148 162.356 289.671 160.319 286.991C158.562 284.679 157.637 281.885 156.879 279.106C156.532 279.216 156.187 279.333 155.848 279.466C154.416 280.026 153.203 280.928 152.106 281.99C149.79 284.233 147.993 286.958 145.57 289.098C143.376 291.036 140.877 292.543 138.195 293.701C132.639 296.102 126.678 297.061 120.801 298.334L120.391 298.423C115.967 299.394 111.451 300.586 107.545 302.889C107.469 303.567 107.16 304.206 106.665 304.623C107.354 305.27 107.645 306.295 107.04 307.256C105.349 309.939 102.437 311.466 99.8226 313.181L99.6525 313.294C97.0806 314.999 94.4863 316.67 91.8709 318.307C86.5539 321.636 81.1258 324.782 75.621 327.789C66.7671 332.626 57.7232 337.188 48.5156 341.327C49.0682 344.046 48.8663 346.85 49.2817 349.587L49.3454 349.977C49.5228 350.993 49.2831 351.843 48.5834 352.506L48.5094 352.574L48.5107 352.565L48.4451 352.625L48.4231 352.644L48.4304 352.638C48.3498 352.712 48.2666 352.781 48.1817 352.84L48.0737 352.909V352.909C47.3998 353.319 46.5321 353.314 45.8421 352.952L45.7633 352.909L45.6308 352.833C44.7191 352.309 44.0904 351.009 44.4686 349.977C45.3981 347.44 45.7494 344.733 46.6077 342.179L45.9268 342.484V342.484L45.0292 342.875C35.3219 347.072 24.539 350.607 13.9621 347.746C9.28876 346.481 4.9208 343.806 2.5825 339.445C0.281556 335.155 -0.0436694 330.173 -0.165832 325.4C-0.316585 319.509 -0.000782629 313.528 0.776053 307.688C1.29752 303.768 1.92815 299.774 2.9009 295.894C2.40055 295.452 2.03277 294.819 1.93562 294.035C1.47654 290.329 2.28002 286.477 2.77191 282.791C3.25244 279.192 3.78333 275.599 4.38374 272.018C5.59594 264.786 7.00439 257.57 8.64416 250.423C11.5624 237.702 15.416 225.208 20.0556 213.013L20.4619 211.951C24.7491 200.804 29.7131 189.894 36.6252 180.102C39.9317 175.417 43.427 171.169 48.099 167.793C52.4761 164.63 57.4133 162.352 62.5084 160.611C67.609 158.869 72.8515 157.702 78.1867 156.976C83.6051 156.238 89.3243 155.786 94.3788 153.564C93.7394 152.417 94.2881 150.87 95.3642 150.159C98.9855 147.767 102.334 144.654 105.58 141.778ZM221.506 245.818C221.658 245.588 222.018 245.733 221.952 246.006C220.19 253.222 218.537 260.452 217.457 267.805C215.508 281.077 215.867 294.523 216.026 307.893L216.034 308.585C216.116 315.786 216.23 322.989 216.468 330.187C216.588 333.826 216.826 337.5 216.697 341.14C216.626 343.115 216.1 344.982 215.913 346.933C215.75 348.639 215.896 350.372 215.977 352.08C216.032 353.216 214.355 353.168 214.241 352.08L214.095 350.674C213.906 348.894 213.672 347.124 213.088 345.421C212.387 343.372 212.05 341.359 211.807 339.208C211.434 335.911 211.269 332.581 211.125 329.261L211.026 326.964C210.426 313.09 210.447 299.15 211.419 285.29L211.49 284.3C212.453 271.199 214.124 257.043 221.506 245.818ZM183.962 163.246C183.502 163.057 183.664 162.361 184.173 162.482L185.099 162.703C191.888 164.329 198.554 166.091 204.89 169.117C211.23 172.144 216.598 176.664 220.864 182.222C229.155 193.025 232.601 206.154 235.321 219.271C238.344 233.846 241.096 248.475 244.145 263.046L244.711 265.76C247.533 279.331 250.196 292.909 252.159 306.641L252.3 307.637C254.28 321.758 255.47 336.367 253.31 350.525C252.883 353.326 248.222 352.628 248.404 349.861C248.931 341.861 249.308 333.903 248.943 325.885C248.579 317.865 247.827 309.881 246.706 301.932C245.762 295.242 244.355 288.635 243.111 281.999L242.916 280.951C241.873 275.306 240.799 269.667 239.727 264.027L238.124 255.584C235.723 242.941 233.275 230.287 230.508 217.724L230.344 216.984C227.637 204.897 223.645 192.236 215.525 182.638C207.283 172.897 195.486 167.992 183.962 163.246ZM154.017 291.451C154.216 291.009 154.909 291.057 155.122 291.451C155.957 292.991 156.05 294.958 156.208 296.698L156.224 296.877C156.425 298.999 156.603 301.129 156.712 303.258C156.918 307.3 157.017 311.336 157.004 315.383C156.991 319.53 156.908 323.672 156.684 327.813L156.623 328.922C156.419 332.521 156.077 336.535 154.367 339.68C153.746 340.824 152.055 340.488 151.695 339.331C150.516 335.544 151.122 331.054 151.424 327.176L151.659 324.149C151.891 321.122 152.113 318.094 152.289 315.064C152.53 310.918 152.729 306.768 152.92 302.62C152.983 301.273 153.05 299.925 153.121 298.578L153.23 296.558C153.323 294.868 153.316 293.013 154.017 291.451ZM21.4102 296.818L21.9323 296.313C23.535 294.745 25.5603 292.329 27.9297 292.479C28.8745 292.539 29.4765 293.323 29.2806 294.253C28.8622 296.24 26.8351 297.271 25.376 298.484C23.7775 299.813 22.2709 301.233 20.7673 302.667C19.4333 303.938 18.1504 305.246 16.8983 306.594L16.4302 307.101C15.9814 307.591 12.7853 310.482 13.1308 311.232L13.1497 311.266C13.2458 311.409 13.0857 311.607 12.9261 311.556C11.546 311.12 11.6321 309.937 12.1538 308.739C13.1565 306.436 14.9122 304.306 16.4454 302.339C17.9745 300.377 19.6295 298.55 21.4102 296.818V296.818ZM159.019 239.066C157.951 236.543 154.02 236.596 151.788 236.747C146.167 237.127 140.086 238.549 135.084 241.176C129.899 243.9 126.407 248.264 123.282 253.089L123.135 253.316C120.09 258.051 117.156 263.656 112.387 266.911C109.957 268.57 107.121 270.084 104.173 270.74C103.971 271.096 103.643 271.377 103.213 271.48L103.013 271.526C102.174 271.711 100.869 271.916 99.743 271.793C99.7505 272.344 99.7446 272.891 99.7586 273.413C99.7983 274.909 99.8151 276.412 99.8151 277.909C99.8158 281.046 99.6472 284.189 99.7781 287.326C99.8941 290.1 100.286 292.999 101.618 295.479C102.595 297.298 103.885 298.502 105.441 299.652C109.27 297.318 113.6 295.896 117.995 294.826C123.31 293.533 128.751 292.669 133.945 290.916C136.445 290.071 138.848 288.966 141.026 287.466C143.337 285.872 145.102 283.716 146.918 281.607L147.202 281.279C149.056 279.154 151.078 277.119 153.698 275.967C155.953 274.974 158.926 274.797 160.899 273.261C161.93 272.457 162.017 271.291 162.125 270.097C160.862 270.277 159.525 269.988 158.266 269.84L157.613 269.764C156.423 269.622 155.26 269.467 154.088 269.164C153.87 269.108 153.87 268.78 154.088 268.723C155.473 268.366 156.845 268.213 158.266 268.047L158.599 268.005C159.884 267.837 161.234 267.583 162.495 267.865C162.721 267.005 163.047 266.184 163.505 265.361C164.148 264.205 165.365 262.895 165.529 261.545C165.578 261.142 165.485 260.666 165.295 260.31L165.229 260.189C165.149 260.045 165.054 259.901 164.916 259.811C164.901 259.829 164.868 259.85 164.798 259.872C163.828 260.177 162.982 259.703 162.533 258.971C160.627 259.207 158.546 259.128 156.759 259.207L154.951 259.294C153.02 259.383 151.001 259.421 149.186 259.031C148.933 258.977 148.856 258.555 149.11 258.447C151.341 257.493 154.047 257.188 156.436 256.822C157.77 256.617 159.114 256.461 160.452 256.28C161.343 256.16 162.288 255.962 163.211 255.914C165.526 253.033 164.279 248.488 161.058 247.248C159.885 247.763 158.83 247.464 157.548 247.353C156.268 247.244 154.986 247.169 153.701 247.175C151.127 247.186 148.399 247.863 145.85 247.572C145.435 247.524 145.05 246.972 145.462 246.636C147.414 245.043 150.21 244.524 152.687 244.185L153.2 244.116C154.031 244.007 155.041 243.848 156.088 243.754C156.325 243.292 156.75 242.943 157.388 242.856C157.578 242.83 157.769 242.815 157.959 242.798L157.956 242.779V242.779C159.513 242.705 159.446 240.075 159.019 239.066ZM52.4292 288.264C52.4016 288.306 52.3715 288.347 52.3395 288.386L52.2901 288.443L52.5461 288.339L52.4292 288.264V288.264ZM186.188 233.429C179.634 232.725 173.072 232.874 166.499 233.063C165.973 234.782 164.143 236.247 162.37 236.303C163.759 238.416 163.902 241.276 162.929 243.518C164.996 244.341 166.777 245.819 167.858 247.925C169.358 250.843 169.161 254.091 167.68 256.788C168.944 257.933 169.691 259.793 169.616 261.545C169.532 263.499 168.368 265.169 167.4 266.787C166.354 268.537 166.319 270.077 165.998 272.037C165.527 274.905 163.593 276.645 161.104 277.731L161.236 278.252C161.878 280.75 162.676 283.385 164.511 285.212C166.87 287.561 170.53 287.54 173.647 287.689L173.798 287.696C176.652 287.839 179.505 288.006 182.359 288.167L184.499 288.287C187.784 288.468 190.94 288.49 193.622 286.318C198 282.772 201.002 276.905 202.902 271.711C206.89 260.808 206.938 248.844 205.107 237.489C198.968 235.511 192.598 234.118 186.188 233.429ZM131.689 251.517L131.737 251.52C133.087 251.674 134.014 252.767 134.344 254.063C134.823 255.947 134.588 257.65 135.742 259.35C136.929 261.099 137.658 262.499 137.831 264.659C137.902 265.548 137.869 266.435 138.067 267.305L138.21 267.914C138.363 268.564 138.487 269.19 138.412 269.888C138.343 270.525 138.033 271.021 137.394 271.225C135.314 271.89 133.707 270.357 133.17 268.418C132.706 266.744 133.326 264.748 132.671 263.176C132.308 262.304 131.639 261.575 131.26 260.698C130.886 259.828 130.698 258.919 130.637 257.974C130.523 256.185 132.105 254.037 131.223 252.417C131.035 252.071 131.248 251.506 131.689 251.517ZM104.055 233.063C105.464 232.777 107.062 232.121 108.452 232.666C109.166 232.947 109.519 233.817 108.915 234.423C107.868 235.473 106.345 235.531 104.934 235.779L104.81 235.801C103.142 236.11 101.47 236.403 99.7968 236.68C96.6482 237.202 93.4922 237.663 90.325 238.054C87.0721 238.457 83.8101 238.815 80.5436 239.085L79.279 239.189C76.5197 239.409 73.6486 239.576 70.9412 239.153C70.5477 239.092 70.6111 238.519 70.9412 238.419C73.9072 237.521 77.1607 237.28 80.2271 236.9C83.4872 236.496 86.7417 236.069 89.9878 235.562C93.2287 235.056 96.4653 234.512 99.6899 233.912C101.147 233.641 102.603 233.358 104.055 233.063ZM154.887 230.181C153.651 229.743 152.291 229.095 150.952 229.312C148.642 229.686 146.586 231.937 144.757 233.419L145.675 233.24C150.373 232.338 156.594 231.365 160.538 234.352C160.548 234.334 160.556 234.317 160.567 234.3C160.885 233.817 161.254 233.439 161.657 233.026C161.695 232.989 161.732 232.952 161.769 232.914L161.986 232.683L161.489 232.511C160.425 232.135 159.165 231.649 158.966 231.578L158.952 231.573C157.595 231.114 156.237 230.66 154.887 230.181ZM116.289 131.712C116.096 129.226 119.966 129.246 120.157 131.712C120.575 137.096 119.364 142.428 116.756 147.148C116.737 147.182 116.716 147.213 116.696 147.245C118.327 148.094 119.976 148.908 121.663 149.636C123.82 150.567 126.017 151.415 128.254 152.135C130.278 152.786 132.771 153.043 134.472 154.397C138.059 157.254 136.711 163.182 136.021 167.025L135.913 167.631C135.57 169.609 135.321 171.637 136.155 173.535C137.045 175.562 138.845 177.066 140.451 178.516L140.776 178.81C142.199 180.106 143.824 181.681 144.868 183.438C145.82 181.469 147.119 179.859 148.492 178.047C149.472 176.754 148.774 176.328 148.071 175.065C147.393 173.849 147.063 172.553 147.274 171.166C147.665 168.604 149.712 166.754 151.75 165.364C154.157 163.723 156.843 162.507 159.33 160.98C164.442 157.844 169.421 154.257 173.906 150.274C174.03 150.164 174.244 150.309 174.145 150.459C170.602 155.848 166.448 160.505 161.342 164.458C159.272 166.06 157.097 167.39 154.907 168.787L154.278 169.191C153.399 169.761 152.302 170.522 151.905 171.491C151.505 172.466 152.358 173.203 152.817 174.01C154.275 176.575 153.571 178.969 151.843 181.144L151.763 181.244C150.045 183.36 148.744 185.329 148.121 188.032C146.784 193.841 148.647 199.891 150.597 205.343L150.674 205.558C151.729 208.497 152.85 211.415 153.767 214.401L154.019 215.227C154.849 217.974 155.529 220.684 154.598 223.509C154.281 224.469 152.971 224.696 152.426 223.792C150.506 220.604 150.028 216.767 148.824 213.261C147.652 209.844 146.305 206.489 145.172 203.059C143.713 198.642 142.737 193.887 143.267 189.254C143.251 189.227 143.234 189.202 143.221 189.173L142.85 188.361C141.837 186.161 140.859 184.24 139.017 182.487C137.097 180.658 135.012 179.039 133.5 176.826C130.217 172.017 132.248 166.667 132.644 161.409L132.69 160.764C132.762 159.673 132.801 158.189 132.088 157.433C131.286 156.583 129.405 156.366 128.34 155.989C125.59 155.016 122.879 153.882 120.297 152.52C117.84 151.223 115.459 149.791 113.243 148.113L112.119 147.268C110.347 145.931 108.509 144.47 107.321 142.65C107.184 142.44 107.417 142.102 107.665 142.202C109.648 143.007 111.46 144.287 113.315 145.401C113.344 145.333 113.378 145.265 113.416 145.196C115.712 141.041 116.656 136.438 116.289 131.712ZM179.639 160.178C180.429 158.012 184.03 158.179 183.887 160.753C183.777 162.731 182.937 164.516 182.169 166.312L182.087 166.505C181.294 168.376 180.379 170.133 179.283 171.847C177.19 175.126 174.738 178.168 172.119 181.039C169.745 183.642 166.628 185.234 163.037 184.969C161.524 184.858 159.997 184.473 158.671 183.717C157.096 182.819 155.386 180.123 153.376 180.776C153.182 180.839 153.001 180.554 153.169 180.42C155.488 178.552 158.121 181.448 160.342 182.146C163.688 183.197 167.122 182.035 169.275 179.33C171.524 176.505 173.594 173.343 175.484 170.268C176.443 168.706 177.319 167.086 178.075 165.415C178.839 163.729 179.012 161.897 179.639 160.178ZM174.245 146.843C174.148 146.544 174.519 146.26 174.782 146.431C176.306 147.423 177.627 148.734 179.033 149.883C180.593 151.158 182.164 152.407 183.76 153.636C186.086 155.43 183.388 158.731 181.34 156.772C178.538 154.092 175.47 150.589 174.245 146.843ZM165.878 136.356C166.497 133.968 170.159 134.953 169.625 137.313L169.608 137.385C168.597 141.282 170.037 145.25 173.11 147.777L173.223 147.869C175.167 149.425 172.413 152.145 170.488 150.604C166.285 147.241 164.537 141.527 165.878 136.356Z" fill="#D9D9D9"/>
<path fill-rule="evenodd" clip-rule="evenodd" d="M200.433 81.7705C199.733 75.6251 200.639 62.7798 200.699 61.9994C201.083 57.0658 198.771 37.5838 194.401 39.3789C187.071 33.5759 177.307 32.2945 168.178 31.6823C149.214 30.4107 129.04 33.3299 114.397 46.092C107.155 52.7196 100.105 62.3591 100.672 72.3959C94.0922 81.9096 84.8165 94.9599 93.0143 106.082C95.8009 109.636 100.23 110.959 103.73 113.65C110.771 119.329 115.189 127.48 122.297 133.125C141.128 150.047 173.104 153.582 191.606 134.335C205.913 120.395 203.599 99.5413 201.083 81.7705C199.391 69.8232 201.797 93.7597 200.433 81.7705Z" fill="white"/>
<path fill-rule="evenodd" clip-rule="evenodd" d="M142.845 5.62118C147.916 4.59775 153.124 3.96094 158.303 4.15263L158.703 4.16814C162.6 4.32389 167.535 4.66841 170.934 6.93443C171.13 6.73819 171.444 6.63747 171.73 6.7736C175.769 8.70188 180.213 10.096 184.466 11.4814C188.7 12.86 193.093 13.77 197.531 14.1368C199.201 14.2749 200.629 16.0778 199.572 17.6948C199.321 18.0801 199.076 18.4694 198.832 18.8596C199.24 18.817 199.648 18.7731 200.056 18.7319C201.399 18.5967 202.74 20.0298 202.661 21.3372C202.611 22.1596 202.522 22.9721 202.391 23.775C202.902 23.7642 203.411 23.8409 203.902 24.0485C206.39 25.0989 206.216 28.0617 206.03 30.3159C205.772 33.444 204.602 36.7573 202.43 39.0985C204.052 40.7832 205.2 42.7949 205.885 45.1843C206.382 46.929 206.658 48.7874 206.522 50.6036L206.478 51.1473C206.31 53.1183 205.974 55.3003 204.556 56.7182C203.828 57.4492 202.932 57.7156 202.077 57.6312C202.594 62.1733 202.925 66.7414 203.237 71.2932L203.383 73.4688C204.079 83.989 204.602 94.5777 204.465 105.115C204.338 114.963 202.392 124.522 196.352 132.517C190.852 139.798 182.954 145.166 174.019 147.206C169.204 148.308 164.288 148.385 159.415 147.684C157.052 147.343 154.674 146.819 152.432 145.994C149.95 145.078 148.167 143.73 146.497 141.709C145.707 140.75 146.087 138.71 147.66 138.902C150.038 139.19 152.21 139.538 154.49 140.241L154.817 140.344C157.088 141.072 159.441 141.615 161.815 141.845C166.679 142.316 171.617 141.842 176.277 140.367C183.863 137.963 190.397 132.605 194.585 125.873C199.556 117.894 200.118 108.835 200.046 99.6602C199.969 89.5921 199.642 79.5181 199.107 69.4604L199.016 67.7843C198.734 62.6086 198.461 57.4297 198.221 52.2508C198.146 50.6263 198.032 48.9888 197.827 47.3676C195.953 46.2694 194.273 44.7554 193.178 42.8872C190.979 43.7969 188.665 44.4532 186.537 44.9763C181.607 46.1888 176.488 46.4832 171.47 45.7239C170.117 46.2831 168.736 46.7746 167.335 47.1977C166.956 47.3656 166.577 47.5307 166.198 47.6925C162.819 49.1383 159.392 50.3632 155.824 51.2599L154.948 51.4784C153.071 51.9412 151.032 52.3969 149.034 52.54C148.706 52.6667 148.352 52.7739 147.965 52.8681C146.146 53.31 144.258 53.4497 142.393 53.2938C140.577 53.1411 139.264 51.3054 140.265 49.5866C140.996 48.3325 141.734 47.0817 142.478 45.8341C139.888 46.9127 137.214 47.8094 134.517 48.5697C131.795 49.3365 129.033 49.983 126.268 50.5776C124.79 50.8927 123.305 51.1722 121.83 51.4873C120.774 51.7115 119.153 51.8285 118.292 52.5237C117.34 53.2873 117.07 55.0677 116.709 56.1659C116.235 57.5922 115.79 59.025 115.384 60.474C114.575 63.3657 113.912 66.2995 113.399 69.2626C112.886 72.2289 112.541 75.2245 112.349 78.2298C112.158 81.2319 112.242 84.2535 111.934 87.2426C111.768 88.8281 110.066 89.6436 108.808 88.5357C108.661 88.4057 108.512 88.2743 108.365 88.1414L108.145 87.9411C107.07 86.9664 106.027 85.9332 105.166 84.7701C105.01 84.5556 104.861 84.3314 104.721 84.104C104.698 84.104 104.679 84.0975 104.656 84.0813L104.417 83.9017C101.79 81.9459 97.3997 79.396 94.8375 82.6452C94.021 83.6803 93.603 84.9983 93.256 86.2699L92.6473 88.5457C92.2535 90.0313 91.8829 91.5252 91.6661 93.0453C91.1755 96.4502 91.4224 100.375 93.7653 103.104C94.701 104.196 95.9909 104.976 97.4298 105.18C98.2327 105.291 99.0254 105.154 99.8214 105.054C100.63 104.953 101.41 105.115 102.219 105.037C103.506 104.911 104.068 106.451 103.587 107.419C103.327 107.939 103.021 108.387 102.674 108.767C102.953 109.008 103.22 109.268 103.477 109.54C104.237 109.784 104.919 110.307 105.429 110.999C105.842 111.558 106.056 112.166 106.092 112.806C106.137 112.965 106.176 113.127 106.212 113.293L106.909 114.424C107.063 114.672 107.215 114.918 107.369 115.158C109.142 117.952 111.112 120.317 113.558 122.546C115.914 124.691 118.47 126.611 120.683 128.911L120.944 129.184C123.007 131.358 125.181 133.99 124.374 137.15C124.166 137.963 123.032 138.548 122.292 137.998C119.91 136.231 118.711 133.43 116.69 131.286C114.611 129.077 112.307 127.092 110.221 124.889C108.249 122.809 106.693 120.454 105.52 117.861C105.052 118.378 104.37 118.745 103.425 118.888C101.8 119.131 100.286 118.18 99.5778 116.773C99.1226 116.974 98.6583 117.156 98.1901 117.299C95.7274 118.053 94.1779 115.314 95.1071 113.29C95.6039 112.205 96.2245 111.262 96.9948 110.47C94.587 110.138 92.1372 108.894 90.555 107.341C86.585 103.439 86.0392 97.5744 86.9326 92.3597C87.407 89.5948 88.2254 86.7974 89.2882 84.2015C89.473 83.7499 89.6716 83.295 89.8889 82.8467C89.7687 82.8434 89.6452 82.7914 89.5673 82.6907C88.8492 81.7095 87.9756 80.907 87.4424 79.8088C86.9518 78.8016 86.4063 77.7815 86.0193 76.732C85.2237 74.5845 84.8338 72.1607 84.5739 69.8896C84.0378 65.2403 84.2454 60.6202 84.9573 56.0002C86.1688 48.1311 89.0955 40.6006 93.4072 33.9927C93.1725 33.8694 92.9475 33.7205 92.7378 33.5444L92.6343 33.4541L92.466 33.302C91.2356 32.1886 91.3419 30.1017 92.466 28.974L92.8211 28.6181C93.2706 28.1715 93.6583 27.8176 94.3845 27.3313C94.4918 27.2595 94.6013 27.1919 94.712 27.1289C94.3319 26.4265 94.2 25.6051 94.4648 24.699C95.3875 21.5423 99.9296 21.654 102.809 23.0306C105.994 20.1881 109.525 17.7205 113.353 15.7223C122.47 10.9658 132.779 7.64856 142.845 5.62118ZM95.718 88.7631C97.4205 88.2075 99.6818 89.3739 101.212 90.0757C103.152 90.9659 104.802 92.2818 106.401 93.6724C107.197 94.3677 107.339 95.5048 107.141 96.4763C107.122 96.5737 107.103 96.6744 107.079 96.7752C106.868 97.8116 105.712 98.6271 104.688 98.5978C102.547 98.5394 101.527 96.6907 100.315 95.1247C100.172 95.3781 99.9937 95.612 99.7724 95.7875L99.623 95.9044C99.1201 96.2874 98.5656 96.5935 97.901 96.564C97.4299 96.5412 96.9786 96.421 96.5624 96.2033C95.5227 95.6543 95.065 94.3092 95.3473 93.2143C95.5227 92.5255 95.9256 91.9861 96.452 91.6125L96.2558 91.4783C95.836 91.1862 95.4531 90.8782 95.1547 90.4237L95.0874 90.3161H95.1134C94.7885 89.7573 95 88.9971 95.718 88.7631Z" fill="#D9D9D9"/>
<path d="M133.951 161.844C132.404 161.909 131.212 161.476 130.375 160.546C129.521 159.521 128.999 158.441 128.808 157.305C128.777 157.116 128.713 156.737 128.618 156.169C128.617 155.585 128.648 154.898 128.71 154.109C128.615 153.541 128.748 152.594 129.109 151.268C129.47 149.942 129.839 148.371 130.216 146.555C130.94 144.487 132.191 142.087 133.972 139.354C135.752 136.622 137.304 134.56 138.628 133.17C139.369 132.364 139.913 131.835 140.259 131.582C140.59 131.234 140.756 131.06 140.756 131.06C140.692 130.682 141.236 129.86 142.387 128.597C143.521 127.238 144.53 126.29 145.413 125.752C145.413 125.752 145.957 125.223 147.045 124.164C148.133 123.105 148.952 122.189 149.504 121.415C151.316 118.872 152.591 116.613 153.331 114.64C154.054 112.571 154.501 110.306 154.672 107.844C154.843 105.382 154.965 102.343 155.04 98.7292C154.578 95.3997 154.205 93.1748 153.919 92.0546C153.713 90.8239 152.97 89.8778 151.691 89.2165C149.528 88.5088 147.05 88.8274 144.258 90.1722C141.545 91.4065 139.007 93.3902 136.643 96.1233C134.357 98.7459 132.775 101.786 131.895 105.243C131.597 106.948 131.449 108.092 131.449 108.676C131.545 109.244 131.814 109.978 132.257 110.877C132.384 111.635 132.598 112.329 132.899 112.96C133.294 113.575 133.531 114.119 133.611 114.592C133.248 114.75 132.546 114.917 131.504 115.092C130.558 115.251 129.556 115.37 128.498 115.451C127.441 115.531 126.557 115.484 125.847 115.312C125.847 115.312 125.61 115.059 125.136 114.555C124.661 114.05 124.298 113.625 124.045 113.278C123.35 112.616 122.947 111.953 122.835 111.291C122.803 110.517 122.667 109.421 122.429 108.001C122.774 105.996 123.331 103.809 124.102 101.441C124.857 98.9781 125.966 96.6016 127.431 94.3114C128.897 92.0212 130.709 90.0621 132.869 88.4339C134.715 87.2481 136.244 86.2125 137.458 85.3273C138.751 84.3314 139.398 83.8335 139.398 83.8335C139.398 83.8335 139.729 83.7779 140.392 83.6666C141.133 83.4448 142.34 83.0961 144.013 82.6207C144.597 82.62 145.212 82.5167 145.859 82.3107C146.6 82.0889 147.011 82.2147 147.09 82.688C147.374 82.6404 147.942 82.545 148.794 82.4019C149.647 82.2589 150.451 82.1238 151.209 81.9966C152.392 82.0899 153.655 82.3646 154.997 82.8207C156.324 83.1821 157.571 83.6541 158.739 84.2367C159.987 84.7086 161.005 85.2677 161.795 85.9138C162.808 87.8854 163.529 90.4413 163.959 93.5815C164.373 96.627 164.44 99.9254 164.16 103.477C163.88 107.028 163.292 110.485 162.397 113.848C161.58 117.1 160.4 119.926 158.856 122.327C158.383 122.991 157.501 124.112 156.208 125.692C154.916 127.272 153.553 129.009 152.119 130.905C150.764 132.69 149.661 134.238 148.81 135.549C145.893 137.888 143.506 141.063 141.649 145.074C139.791 149.085 138.533 152.898 137.874 156.513C137.214 158.96 136.727 160.405 136.412 160.847C136.097 161.289 135.276 161.622 133.951 161.844ZM134.29 188.216C132.602 189.181 131.143 189.766 129.913 189.973C128.761 190.069 127.387 189.716 125.792 188.913C123.707 187.51 122.806 185.91 123.088 184.11C123.448 182.2 124.716 180.186 126.892 178.069C128.421 176.741 129.557 175.967 130.298 175.745C131.134 175.507 132.468 175.624 134.299 176.095C137.442 177.417 139.006 179.199 138.993 181.44C139.075 183.665 137.507 185.924 134.29 188.216Z" fill="black"/>
</g>
<defs>
<clipPath id="clip0_526_671">
<rect width="250" height="250" fill="white"/>
</clipPath>
</defs>
</svg>
