<svg width="90" height="33" viewBox="0 0 90 33" fill="none" xmlns="http://www.w3.org/2000/svg">
<g filter="url(#filter0_d_136_23)">
<rect x="3" y="16" width="74" height="13" rx="0.75" fill="#14B1F9"/>
<path d="M9.62577 25V19.5455H11.57C11.9944 19.5455 12.3459 19.6227 12.6247 19.7772C12.9035 19.9316 13.1121 20.1429 13.2506 20.411C13.3891 20.6774 13.4583 20.9775 13.4583 21.3113C13.4583 21.6468 13.3882 21.9487 13.2479 22.2168C13.1094 22.4831 12.8999 22.6944 12.6194 22.8507C12.3406 23.0051 11.9899 23.0824 11.5674 23.0824H10.2303V22.3846H11.4928C11.7609 22.3846 11.9784 22.3384 12.1453 22.2461C12.3122 22.152 12.4347 22.0241 12.5128 21.8626C12.591 21.701 12.63 21.5172 12.63 21.3113C12.63 21.1053 12.591 20.9224 12.5128 20.7626C12.4347 20.6028 12.3113 20.4776 12.1426 20.3871C11.9757 20.2965 11.7556 20.2512 11.4821 20.2512H10.4487V25H9.62577ZM14.4342 25V20.9091H15.2039V21.5589H15.2465C15.3211 21.3388 15.4525 21.1657 15.6407 21.0396C15.8307 20.9118 16.0455 20.8478 16.2852 20.8478C16.335 20.8478 16.3936 20.8496 16.461 20.8532C16.5303 20.8567 16.5844 20.8612 16.6235 20.8665V21.6282C16.5915 21.6193 16.5347 21.6096 16.453 21.5989C16.3714 21.5865 16.2897 21.5803 16.208 21.5803C16.0198 21.5803 15.852 21.6202 15.7046 21.7001C15.559 21.7782 15.4436 21.8874 15.3584 22.0277C15.2732 22.1662 15.2306 22.3242 15.2306 22.5018V25H14.4342ZM18.9643 25.0826C18.5808 25.0826 18.2461 24.9947 17.9603 24.8189C17.6744 24.6431 17.4524 24.3972 17.2944 24.0811C17.1364 23.7651 17.0574 23.3958 17.0574 22.9732C17.0574 22.5488 17.1364 22.1777 17.2944 21.8599C17.4524 21.5421 17.6744 21.2953 17.9603 21.1195C18.2461 20.9437 18.5808 20.8558 18.9643 20.8558C19.3479 20.8558 19.6826 20.9437 19.9684 21.1195C20.2543 21.2953 20.4762 21.5421 20.6343 21.8599C20.7923 22.1777 20.8713 22.5488 20.8713 22.9732C20.8713 23.3958 20.7923 23.7651 20.6343 24.0811C20.4762 24.3972 20.2543 24.6431 19.9684 24.8189C19.6826 24.9947 19.3479 25.0826 18.9643 25.0826ZM18.967 24.4141C19.2156 24.4141 19.4215 24.3484 19.5849 24.217C19.7482 24.0856 19.869 23.9107 19.9471 23.6923C20.027 23.4739 20.067 23.2333 20.067 22.9705C20.067 22.7095 20.027 22.4698 19.9471 22.2514C19.869 22.0312 19.7482 21.8546 19.5849 21.7214C19.4215 21.5882 19.2156 21.5217 18.967 21.5217C18.7166 21.5217 18.5089 21.5882 18.3438 21.7214C18.1804 21.8546 18.0588 22.0312 17.9789 22.2514C17.9008 22.4698 17.8617 22.7095 17.8617 22.9705C17.8617 23.2333 17.9008 23.4739 17.9789 23.6923C18.0588 23.9107 18.1804 24.0856 18.3438 24.217C18.5089 24.3484 18.7166 24.4141 18.967 24.4141ZM23.3666 25.0799C23.0364 25.0799 22.7416 24.9956 22.4824 24.8269C22.2249 24.6564 22.0225 24.4141 21.8751 24.0998C21.7295 23.7837 21.6567 23.4047 21.6567 22.9625C21.6567 22.5204 21.7304 22.1422 21.8778 21.8279C22.0269 21.5137 22.2311 21.2731 22.4904 21.1062C22.7496 20.9393 23.0435 20.8558 23.3719 20.8558C23.6258 20.8558 23.83 20.8984 23.9845 20.9837C24.1408 21.0671 24.2615 21.1648 24.3467 21.2766C24.4337 21.3885 24.5012 21.487 24.5491 21.5723H24.5971V19.5455H25.3934V25H24.6157V24.3635H24.5491C24.5012 24.4505 24.432 24.5499 24.3414 24.6618C24.2526 24.7736 24.1301 24.8713 23.9739 24.9547C23.8176 25.0382 23.6152 25.0799 23.3666 25.0799ZM23.5424 24.4007C23.7714 24.4007 23.965 24.3404 24.123 24.2196C24.2828 24.0971 24.4035 23.9276 24.4852 23.7109C24.5687 23.4943 24.6104 23.2422 24.6104 22.9545C24.6104 22.6705 24.5696 22.4219 24.4879 22.2088C24.4062 21.9957 24.2864 21.8297 24.1283 21.7108C23.9703 21.5918 23.775 21.5323 23.5424 21.5323C23.3027 21.5323 23.1029 21.5945 22.9431 21.7188C22.7833 21.843 22.6626 22.0126 22.5809 22.2275C22.501 22.4423 22.4611 22.6847 22.4611 22.9545C22.4611 23.228 22.5019 23.4739 22.5836 23.6923C22.6653 23.9107 22.786 24.0838 22.9458 24.2116C23.1074 24.3377 23.3062 24.4007 23.5424 24.4007ZM29.1965 23.3034V20.9091H29.9955V25H29.2124V24.2915H29.1698C29.0757 24.5099 28.9248 24.6919 28.717 24.8375C28.5111 24.9814 28.2545 25.0533 27.9473 25.0533C27.6846 25.0533 27.452 24.9956 27.2495 24.8801C27.0489 24.763 26.8909 24.5898 26.7755 24.3608C26.6618 24.1317 26.605 23.8485 26.605 23.5112V20.9091H27.4014V23.4153C27.4014 23.6941 27.4786 23.916 27.6331 24.0811C27.7875 24.2463 27.9882 24.3288 28.235 24.3288C28.3841 24.3288 28.5324 24.2915 28.6798 24.217C28.8289 24.1424 28.9523 24.0297 29.05 23.8787C29.1494 23.7278 29.1982 23.536 29.1965 23.3034ZM32.8637 25.0826C32.4677 25.0826 32.1268 24.9929 31.8409 24.8136C31.5568 24.6325 31.3384 24.383 31.1857 24.0652C31.033 23.7473 30.9567 23.3833 30.9567 22.9732C30.9567 22.5577 31.0348 22.1911 31.1911 21.8732C31.3473 21.5536 31.5675 21.3042 31.8516 21.1248C32.1357 20.9455 32.4704 20.8558 32.8557 20.8558C33.1664 20.8558 33.4434 20.9135 33.6866 21.0289C33.9299 21.1426 34.1261 21.3024 34.2752 21.5083C34.4262 21.7143 34.5158 21.9549 34.5442 22.2301H33.7692C33.7266 22.0384 33.6289 21.8732 33.4762 21.7347C33.3253 21.5962 33.1229 21.527 32.869 21.527C32.647 21.527 32.4526 21.5856 32.2857 21.7028C32.1206 21.8182 31.9918 21.9833 31.8995 22.1982C31.8072 22.4112 31.761 22.6634 31.761 22.9545C31.761 23.2528 31.8063 23.5103 31.8969 23.7269C31.9874 23.9435 32.1152 24.1113 32.2804 24.2303C32.4473 24.3493 32.6435 24.4087 32.869 24.4087C33.0199 24.4087 33.1566 24.3812 33.2791 24.3262C33.4034 24.2694 33.5073 24.1886 33.5907 24.0838C33.676 23.979 33.7355 23.853 33.7692 23.7056H34.5442C34.5158 23.9702 34.4297 24.2063 34.2859 24.4141C34.1421 24.6218 33.9494 24.7852 33.7079 24.9041C33.4682 25.0231 33.1868 25.0826 32.8637 25.0826ZM37.3805 20.9091V21.5483H35.1459V20.9091H37.3805ZM35.7452 19.929H36.5415V23.7988C36.5415 23.9533 36.5646 24.0696 36.6107 24.1477C36.6569 24.2241 36.7164 24.2765 36.7892 24.3049C36.8638 24.3315 36.9446 24.3448 37.0316 24.3448C37.0955 24.3448 37.1514 24.3404 37.1993 24.3315C37.2473 24.3226 37.2846 24.3155 37.3112 24.3102L37.455 24.968C37.4089 24.9858 37.3432 25.0036 37.2579 25.0213C37.1727 25.0408 37.0662 25.0515 36.9383 25.0533C36.7288 25.0568 36.5335 25.0195 36.3524 24.9414C36.1713 24.8633 36.0248 24.7425 35.9129 24.5792C35.8011 24.4158 35.7452 24.2108 35.7452 23.964V19.929ZM40.4601 19.5455H41.4589L43.1954 23.7855H43.2593L44.9958 19.5455H45.9946V25H45.2116V21.0529H45.161L43.5523 24.992H42.9024L41.2938 21.0502H41.2432V25H40.4601V19.5455ZM48.3927 25.0906C48.1335 25.0906 47.8991 25.0426 47.6896 24.9467C47.4801 24.8491 47.314 24.7079 47.1915 24.5233C47.0708 24.3386 47.0104 24.1122 47.0104 23.8441C47.0104 23.6133 47.0548 23.4233 47.1436 23.2741C47.2324 23.125 47.3522 23.0069 47.5031 22.9199C47.6541 22.8329 47.8227 22.7672 48.0092 22.7228C48.1956 22.6784 48.3856 22.6447 48.5791 22.6216C48.8242 22.5932 49.023 22.5701 49.1757 22.5524C49.3284 22.5328 49.4394 22.5018 49.5086 22.4592C49.5779 22.4165 49.6125 22.3473 49.6125 22.2514V22.2328C49.6125 22.0002 49.5468 21.82 49.4154 21.6921C49.2858 21.5643 49.0923 21.5004 48.8348 21.5004C48.5667 21.5004 48.3554 21.5598 48.2009 21.6788C48.0482 21.796 47.9426 21.9265 47.884 22.0703L47.1356 21.8999C47.2244 21.6513 47.354 21.4506 47.5244 21.2979C47.6967 21.1435 47.8947 21.0316 48.1184 20.9624C48.3421 20.8913 48.5774 20.8558 48.8242 20.8558C48.9875 20.8558 49.1606 20.8754 49.3435 20.9144C49.5282 20.9517 49.7004 21.021 49.8602 21.1222C50.0218 21.2234 50.1541 21.3681 50.257 21.5563C50.36 21.7427 50.4115 21.9851 50.4115 22.2834V25H49.6338V24.4407H49.6019C49.5504 24.5437 49.4731 24.6449 49.3701 24.7443C49.2672 24.8437 49.1349 24.9263 48.9733 24.992C48.8117 25.0577 48.6182 25.0906 48.3927 25.0906ZM48.5658 24.4513C48.786 24.4513 48.9742 24.4078 49.1304 24.3208C49.2885 24.2338 49.4083 24.1202 49.49 23.9799C49.5735 23.8379 49.6152 23.6861 49.6152 23.5245V22.9972C49.5868 23.0256 49.5317 23.0522 49.4501 23.0771C49.3701 23.1001 49.2787 23.1206 49.1757 23.1383C49.0727 23.1543 48.9724 23.1694 48.8748 23.1836C48.7771 23.196 48.6954 23.2067 48.6297 23.2156C48.4753 23.2351 48.3341 23.2679 48.2063 23.3141C48.0802 23.3603 47.979 23.4268 47.9026 23.5138C47.8281 23.5991 47.7908 23.7127 47.7908 23.8548C47.7908 24.0518 47.8636 24.201 48.0092 24.3022C48.1548 24.4016 48.3403 24.4513 48.5658 24.4513ZM52.3435 22.571V25H51.5472V20.9091H52.3116V21.5749H52.3622C52.4563 21.3583 52.6037 21.1843 52.8043 21.0529C53.0067 20.9215 53.2615 20.8558 53.5687 20.8558C53.8474 20.8558 54.0916 20.9144 54.3011 21.0316C54.5106 21.147 54.6731 21.3192 54.7885 21.5483C54.9039 21.7773 54.9616 22.0605 54.9616 22.3979V25H54.1653V22.4938C54.1653 22.1973 54.088 21.9656 53.9336 21.7987C53.7791 21.63 53.5669 21.5456 53.297 21.5456C53.1124 21.5456 52.9481 21.5856 52.8043 21.6655C52.6623 21.7454 52.5495 21.8626 52.4661 22.017C52.3844 22.1697 52.3435 22.3544 52.3435 22.571ZM57.2951 25.0906C57.0359 25.0906 56.8015 25.0426 56.592 24.9467C56.3825 24.8491 56.2165 24.7079 56.094 24.5233C55.9732 24.3386 55.9129 24.1122 55.9129 23.8441C55.9129 23.6133 55.9573 23.4233 56.046 23.2741C56.1348 23.125 56.2547 23.0069 56.4056 22.9199C56.5565 22.8329 56.7252 22.7672 56.9116 22.7228C57.0981 22.6784 57.288 22.6447 57.4816 22.6216C57.7266 22.5932 57.9255 22.5701 58.0782 22.5524C58.2309 22.5328 58.3418 22.5018 58.4111 22.4592C58.4803 22.4165 58.515 22.3473 58.515 22.2514V22.2328C58.515 22.0002 58.4493 21.82 58.3179 21.6921C58.1883 21.5643 57.9947 21.5004 57.7373 21.5004C57.4691 21.5004 57.2579 21.5598 57.1034 21.6788C56.9507 21.796 56.845 21.9265 56.7864 22.0703L56.038 21.8999C56.1268 21.6513 56.2564 21.4506 56.4269 21.2979C56.5991 21.1435 56.7971 21.0316 57.0208 20.9624C57.2445 20.8913 57.4798 20.8558 57.7266 20.8558C57.89 20.8558 58.0631 20.8754 58.246 20.9144C58.4306 20.9517 58.6028 21.021 58.7626 21.1222C58.9242 21.2234 59.0565 21.3681 59.1595 21.5563C59.2625 21.7427 59.314 21.9851 59.314 22.2834V25H58.5363V24.4407H58.5043C58.4528 24.5437 58.3756 24.6449 58.2726 24.7443C58.1696 24.8437 58.0373 24.9263 57.8758 24.992C57.7142 25.0577 57.5206 25.0906 57.2951 25.0906ZM57.4683 24.4513C57.6884 24.4513 57.8766 24.4078 58.0329 24.3208C58.1909 24.2338 58.3108 24.1202 58.3924 23.9799C58.4759 23.8379 58.5176 23.6861 58.5176 23.5245V22.9972C58.4892 23.0256 58.4342 23.0522 58.3525 23.0771C58.2726 23.1001 58.1812 23.1206 58.0782 23.1383C57.9752 23.1543 57.8749 23.1694 57.7772 23.1836C57.6796 23.196 57.5979 23.2067 57.5322 23.2156C57.3777 23.2351 57.2365 23.2679 57.1087 23.3141C56.9826 23.3603 56.8814 23.4268 56.8051 23.5138C56.7305 23.5991 56.6932 23.7127 56.6932 23.8548C56.6932 24.0518 56.766 24.201 56.9116 24.3022C57.0572 24.4016 57.2428 24.4513 57.4683 24.4513ZM62.1648 26.6193C61.8399 26.6193 61.5603 26.5767 61.3259 26.4915C61.0933 26.4063 60.9033 26.2935 60.7559 26.1532C60.6086 26.013 60.4985 25.8594 60.4257 25.6925L61.1102 25.4102C61.1581 25.4883 61.222 25.5708 61.3019 25.6578C61.3836 25.7466 61.4937 25.8221 61.6322 25.8842C61.7724 25.9464 61.9527 25.9775 62.1728 25.9775C62.4747 25.9775 62.7241 25.9038 62.9212 25.7564C63.1183 25.6108 63.2169 25.3782 63.2169 25.0586V24.2543H63.1663C63.1183 24.3413 63.0491 24.438 62.9585 24.5446C62.8697 24.6511 62.7472 24.7434 62.591 24.8216C62.4347 24.8997 62.2314 24.9387 61.9811 24.9387C61.6579 24.9387 61.3667 24.8633 61.1075 24.7124C60.85 24.5597 60.6458 24.335 60.4949 24.0385C60.3458 23.7402 60.2712 23.3736 60.2712 22.9386C60.2712 22.5036 60.3449 22.1307 60.4923 21.82C60.6414 21.5092 60.8456 21.2713 61.1048 21.1062C61.3641 20.9393 61.6579 20.8558 61.9864 20.8558C62.2403 20.8558 62.4454 20.8984 62.6016 20.9837C62.7579 21.0671 62.8795 21.1648 62.9665 21.2766C63.0553 21.3885 63.1236 21.487 63.1716 21.5723H63.2302V20.9091H64.0105V25.0906C64.0105 25.4421 63.9289 25.7306 63.7655 25.9561C63.6022 26.1816 63.3811 26.3485 63.1023 26.4569C62.8254 26.5652 62.5129 26.6193 62.1648 26.6193ZM62.1568 24.2782C62.3859 24.2782 62.5794 24.225 62.7375 24.1184C62.8973 24.0101 63.018 23.8556 63.0997 23.655C63.1831 23.4526 63.2249 23.2102 63.2249 22.9279C63.2249 22.6527 63.184 22.4103 63.1023 22.2008C63.0207 21.9913 62.9008 21.8279 62.7428 21.7108C62.5848 21.5918 62.3894 21.5323 62.1568 21.5323C61.9171 21.5323 61.7174 21.5945 61.5576 21.7188C61.3978 21.8413 61.2771 22.0082 61.1954 22.2195C61.1155 22.4308 61.0755 22.6669 61.0755 22.9279C61.0755 23.196 61.1164 23.4313 61.198 23.6337C61.2797 23.8361 61.4005 23.9941 61.5603 24.1078C61.7218 24.2214 61.9207 24.2782 62.1568 24.2782ZM66.9167 25.0826C66.5136 25.0826 66.1665 24.9964 65.8753 24.8242C65.5859 24.6502 65.3622 24.4061 65.2041 24.0918C65.0479 23.7757 64.9698 23.4055 64.9698 22.9812C64.9698 22.5621 65.0479 22.1928 65.2041 21.8732C65.3622 21.5536 65.5823 21.3042 65.8647 21.1248C66.1487 20.9455 66.4808 20.8558 66.8608 20.8558C67.0916 20.8558 67.3153 20.894 67.5319 20.9703C67.7485 21.0467 67.943 21.1665 68.1152 21.3299C68.2874 21.4933 68.4233 21.7054 68.5227 21.9664C68.6221 22.2257 68.6718 22.5408 68.6718 22.9119V23.1942H65.4199V22.5977H67.8915C67.8915 22.3881 67.8489 22.2026 67.7636 22.041C67.6784 21.8777 67.5586 21.7489 67.4041 21.6548C67.2514 21.5607 67.072 21.5137 66.8661 21.5137C66.6424 21.5137 66.447 21.5687 66.2801 21.6788C66.115 21.7871 65.9872 21.9292 65.8966 22.1049C65.8078 22.2789 65.7635 22.468 65.7635 22.6722V23.1383C65.7635 23.4118 65.8114 23.6444 65.9073 23.8361C66.0049 24.0279 66.1408 24.1744 66.3148 24.2756C66.4888 24.375 66.6921 24.4247 66.9247 24.4247C67.0756 24.4247 67.2132 24.4034 67.3375 24.3608C67.4618 24.3164 67.5692 24.2507 67.6598 24.1637C67.7503 24.0767 67.8196 23.9693 67.8675 23.8414L68.6212 23.9773C68.5609 24.1992 68.4525 24.3936 68.2963 24.5605C68.1418 24.7257 67.9474 24.8544 67.713 24.9467C67.4804 25.0373 67.215 25.0826 66.9167 25.0826ZM69.6304 25V20.9091H70.4001V21.5589H70.4427C70.5173 21.3388 70.6487 21.1657 70.8369 21.0396C71.0269 20.9118 71.2417 20.8478 71.4814 20.8478C71.5311 20.8478 71.5897 20.8496 71.6572 20.8532C71.7265 20.8567 71.7806 20.8612 71.8197 20.8665V21.6282C71.7877 21.6193 71.7309 21.6096 71.6492 21.5989C71.5675 21.5865 71.4859 21.5803 71.4042 21.5803C71.216 21.5803 71.0482 21.6202 70.9008 21.7001C70.7552 21.7782 70.6398 21.8874 70.5546 22.0277C70.4694 22.1662 70.4267 22.3242 70.4267 22.5018V25H69.6304Z" fill="white"/>
</g>
<g filter="url(#filter1_d_136_23)">
<path d="M83.875 12.75L85.75 3L77.5 7.875L81.625 9L83.875 12.75Z" fill="#14B1F9"/>
<path d="M85.5592 2.67715L86.2753 2.254L86.1183 3.07082L84.2433 12.8208L84.058 13.7839L83.5534 12.9429L81.381 9.32214L77.4013 8.23679L76.5456 8.0034L77.3092 7.55215L85.5592 2.67715Z" stroke="white" stroke-width="0.75" stroke-linecap="square"/>
</g>
<defs>
<filter id="filter0_d_136_23" x="0" y="13.75" width="80" height="19" filterUnits="userSpaceOnUse" color-interpolation-filters="sRGB">
<feFlood flood-opacity="0" result="BackgroundImageFix"/>
<feColorMatrix in="SourceAlpha" type="matrix" values="0 0 0 0 0 0 0 0 0 0 0 0 0 0 0 0 0 0 127 0" result="hardAlpha"/>
<feOffset dy="0.75"/>
<feGaussianBlur stdDeviation="1.5"/>
<feColorMatrix type="matrix" values="0 0 0 0 0 0 0 0 0 0 0 0 0 0 0 0 0 0 0.16 0"/>
<feBlend mode="normal" in2="BackgroundImageFix" result="effect1_dropShadow_136_23"/>
<feBlend mode="normal" in="SourceGraphic" in2="effect1_dropShadow_136_23" result="shape"/>
</filter>
<filter id="filter1_d_136_23" x="73.3412" y="0.00799561" width="15.7095" height="17.8099" filterUnits="userSpaceOnUse" color-interpolation-filters="sRGB">
<feFlood flood-opacity="0" result="BackgroundImageFix"/>
<feColorMatrix in="SourceAlpha" type="matrix" values="0 0 0 0 0 0 0 0 0 0 0 0 0 0 0 0 0 0 127 0" result="hardAlpha"/>
<feOffset dy="0.75"/>
<feGaussianBlur stdDeviation="1.125"/>
<feColorMatrix type="matrix" values="0 0 0 0 0 0 0 0 0 0 0 0 0 0 0 0 0 0 0.1 0"/>
<feBlend mode="normal" in2="BackgroundImageFix" result="effect1_dropShadow_136_23"/>
<feBlend mode="normal" in="SourceGraphic" in2="effect1_dropShadow_136_23" result="shape"/>
</filter>
</defs>
</svg>
