<svg width="58" height="33" viewBox="0 0 58 33" fill="none" xmlns="http://www.w3.org/2000/svg">
<g filter="url(#filter0_d_106_113)">
<rect x="12.25" y="16" width="42.75" height="12.75" rx="0.75" fill="#EF5533"/>
<path d="M22.6256 20.9783C22.5972 20.7262 22.48 20.5309 22.274 20.3924C22.0681 20.2521 21.8088 20.182 21.4963 20.182C21.2726 20.182 21.0791 20.2175 20.9157 20.2885C20.7524 20.3578 20.6254 20.4537 20.5349 20.5762C20.4461 20.6969 20.4017 20.8345 20.4017 20.989C20.4017 21.1186 20.4319 21.2305 20.4922 21.3246C20.5544 21.4187 20.6352 21.4977 20.7346 21.5616C20.8358 21.6238 20.9441 21.6761 21.0595 21.7188C21.1749 21.7596 21.2859 21.7933 21.3925 21.82L21.9251 21.9585C22.0991 22.0011 22.2776 22.0588 22.4605 22.1316C22.6433 22.2044 22.8129 22.3002 22.9692 22.4192C23.1254 22.5382 23.2515 22.6855 23.3474 22.8613C23.445 23.0371 23.4938 23.2475 23.4938 23.4925C23.4938 23.8015 23.4139 24.0758 23.2541 24.3155C23.0961 24.5552 22.8662 24.7443 22.5643 24.8828C22.2643 25.0213 21.9012 25.0906 21.475 25.0906C21.0666 25.0906 20.7133 25.0257 20.415 24.8961C20.1167 24.7665 19.8832 24.5827 19.7145 24.3448C19.5459 24.1051 19.4526 23.821 19.4349 23.4925H20.2605C20.2765 23.6896 20.3404 23.8539 20.4523 23.9853C20.5659 24.1149 20.7106 24.2116 20.8864 24.2756C21.064 24.3377 21.2584 24.3688 21.4697 24.3688C21.7023 24.3688 21.9091 24.3324 22.0903 24.2596C22.2731 24.185 22.417 24.082 22.5217 23.9506C22.6265 23.8175 22.6789 23.6621 22.6789 23.4846C22.6789 23.323 22.6327 23.1907 22.5404 23.0877C22.4498 22.9847 22.3264 22.8995 22.1702 22.832C22.0157 22.7646 21.8408 22.7051 21.6455 22.6536L21.0009 22.4778C20.5642 22.3588 20.2179 22.1839 19.9622 21.9531C19.7083 21.7223 19.5814 21.4169 19.5814 21.0369C19.5814 20.7227 19.6666 20.4483 19.8371 20.214C20.0075 19.9796 20.2383 19.7976 20.5295 19.668C20.8207 19.5366 21.1492 19.4709 21.515 19.4709C21.8843 19.4709 22.2101 19.5357 22.4924 19.6653C22.7765 19.7949 23.0002 19.9734 23.1636 20.2006C23.3269 20.4261 23.4122 20.6854 23.4193 20.9783H22.6256ZM26.398 20.9091V21.5483H24.1634V20.9091H26.398ZM24.7627 19.929H25.559V23.7988C25.559 23.9533 25.5821 24.0696 25.6283 24.1477C25.6744 24.2241 25.7339 24.2765 25.8067 24.3049C25.8813 24.3315 25.9621 24.3448 26.0491 24.3448C26.113 24.3448 26.1689 24.3404 26.2169 24.3315C26.2648 24.3226 26.3021 24.3155 26.3287 24.3102L26.4726 24.968C26.4264 24.9858 26.3607 25.0036 26.2755 25.0213C26.1902 25.0408 26.0837 25.0515 25.9559 25.0533C25.7464 25.0568 25.551 25.0195 25.3699 24.9414C25.1888 24.8633 25.0423 24.7425 24.9305 24.5792C24.8186 24.4158 24.7627 24.2108 24.7627 23.964V19.929ZM29.9453 23.3034V20.9091H30.7443V25H29.9613V24.2915H29.9187C29.8246 24.5099 29.6737 24.6919 29.4659 24.8375C29.26 24.9814 29.0034 25.0533 28.6962 25.0533C28.4334 25.0533 28.2008 24.9956 27.9984 24.8801C27.7978 24.763 27.6398 24.5898 27.5243 24.3608C27.4107 24.1317 27.3539 23.8485 27.3539 23.5112V20.9091H28.1502V23.4153C28.1502 23.6941 28.2275 23.916 28.3819 24.0811C28.5364 24.2463 28.7371 24.3288 28.9839 24.3288C29.133 24.3288 29.2813 24.2915 29.4286 24.217C29.5778 24.1424 29.7012 24.0297 29.7988 23.8787C29.8983 23.7278 29.9471 23.536 29.9453 23.3034ZM33.4208 25.0799C33.0905 25.0799 32.7958 24.9956 32.5365 24.8269C32.2791 24.6564 32.0767 24.4141 31.9293 24.0998C31.7837 23.7837 31.7109 23.4047 31.7109 22.9625C31.7109 22.5204 31.7846 22.1422 31.932 21.8279C32.0811 21.5137 32.2853 21.2731 32.5445 21.1062C32.8038 20.9393 33.0976 20.8558 33.4261 20.8558C33.68 20.8558 33.8842 20.8984 34.0387 20.9837C34.1949 21.0671 34.3157 21.1648 34.4009 21.2766C34.4879 21.3885 34.5554 21.487 34.6033 21.5723H34.6512V19.5455H35.4476V25H34.6699V24.3635H34.6033C34.5554 24.4505 34.4861 24.5499 34.3956 24.6618C34.3068 24.7736 34.1843 24.8713 34.028 24.9547C33.8718 25.0382 33.6693 25.0799 33.4208 25.0799ZM33.5965 24.4007C33.8256 24.4007 34.0191 24.3404 34.1772 24.2196C34.337 24.0971 34.4577 23.9276 34.5394 23.7109C34.6228 23.4943 34.6646 23.2422 34.6646 22.9545C34.6646 22.6705 34.6237 22.4219 34.542 22.2088C34.4604 21.9957 34.3405 21.8297 34.1825 21.7108C34.0245 21.5918 33.8291 21.5323 33.5965 21.5323C33.3568 21.5323 33.1571 21.5945 32.9973 21.7188C32.8375 21.843 32.7168 22.0126 32.6351 22.2275C32.5552 22.4423 32.5152 22.6847 32.5152 22.9545C32.5152 23.228 32.5561 23.4739 32.6377 23.6923C32.7194 23.9107 32.8402 24.0838 33 24.2116C33.1615 24.3377 33.3604 24.4007 33.5965 24.4007ZM38.4223 25.0826C38.0192 25.0826 37.6721 24.9964 37.3809 24.8242C37.0915 24.6502 36.8678 24.4061 36.7098 24.0918C36.5535 23.7757 36.4754 23.4055 36.4754 22.9812C36.4754 22.5621 36.5535 22.1928 36.7098 21.8732C36.8678 21.5536 37.088 21.3042 37.3703 21.1248C37.6544 20.9455 37.9864 20.8558 38.3664 20.8558C38.5972 20.8558 38.8209 20.894 39.0375 20.9703C39.2542 21.0467 39.4486 21.1665 39.6208 21.3299C39.793 21.4933 39.9289 21.7054 40.0283 21.9664C40.1277 22.2257 40.1774 22.5408 40.1774 22.9119V23.1942H36.9255V22.5977H39.3971C39.3971 22.3881 39.3545 22.2026 39.2692 22.041C39.184 21.8777 39.0642 21.7489 38.9097 21.6548C38.757 21.5607 38.5777 21.5137 38.3717 21.5137C38.148 21.5137 37.9527 21.5687 37.7858 21.6788C37.6206 21.7871 37.4928 21.9292 37.4022 22.1049C37.3135 22.2789 37.2691 22.468 37.2691 22.6722V23.1383C37.2691 23.4118 37.317 23.6444 37.4129 23.8361C37.5105 24.0279 37.6464 24.1744 37.8204 24.2756C37.9944 24.375 38.1977 24.4247 38.4303 24.4247C38.5812 24.4247 38.7188 24.4034 38.8431 24.3608C38.9674 24.3164 39.0748 24.2507 39.1654 24.1637C39.2559 24.0767 39.3252 23.9693 39.3731 23.8414L40.1268 23.9773C40.0665 24.1992 39.9582 24.3936 39.8019 24.5605C39.6474 24.7257 39.453 24.8544 39.2186 24.9467C38.986 25.0373 38.7206 25.0826 38.4223 25.0826ZM41.9324 22.571V25H41.136V20.9091H41.9004V21.5749H41.951C42.0451 21.3583 42.1925 21.1843 42.3931 21.0529C42.5955 20.9215 42.8503 20.8558 43.1575 20.8558C43.4363 20.8558 43.6804 20.9144 43.8899 21.0316C44.0994 21.147 44.2619 21.3192 44.3773 21.5483C44.4927 21.7773 44.5504 22.0605 44.5504 22.3979V25H43.7541V22.4938C43.7541 22.1973 43.6769 21.9656 43.5224 21.7987C43.3679 21.63 43.1557 21.5456 42.8858 21.5456C42.7012 21.5456 42.5369 21.5856 42.3931 21.6655C42.2511 21.7454 42.1383 21.8626 42.0549 22.017C41.9732 22.1697 41.9324 22.3544 41.9324 22.571ZM47.6031 20.9091V21.5483H45.3685V20.9091H47.6031ZM45.9678 19.929H46.7641V23.7988C46.7641 23.9533 46.7872 24.0696 46.8334 24.1477C46.8795 24.2241 46.939 24.2765 47.0118 24.3049C47.0864 24.3315 47.1672 24.3448 47.2542 24.3448C47.3181 24.3448 47.374 24.3404 47.422 24.3315C47.4699 24.3226 47.5072 24.3155 47.5338 24.3102L47.6776 24.968C47.6315 24.9858 47.5658 25.0036 47.4805 25.0213C47.3953 25.0408 47.2888 25.0515 47.1609 25.0533C46.9514 25.0568 46.7561 25.0195 46.575 24.9414C46.3939 24.8633 46.2474 24.7425 46.1356 24.5792C46.0237 24.4158 45.9678 24.2108 45.9678 23.964V19.929Z" fill="white"/>
</g>
<g filter="url(#filter1_d_106_113)">
<path d="M5.875 13L4 3.25L12.25 8.125L8.125 9.25L5.875 13Z" fill="#EF5533"/>
<path d="M5.50675 13.0708L5.69196 14.0339L6.19656 13.1929L8.36904 9.57214L12.3487 8.48679L13.2044 8.2534L12.4408 7.80215L4.19077 2.92715L3.47467 2.504L3.63175 3.32082L5.50675 13.0708Z" stroke="white" stroke-width="0.75" stroke-linecap="square"/>
</g>
<defs>
<filter id="filter0_d_106_113" x="9.25" y="13.75" width="48.75" height="18.75" filterUnits="userSpaceOnUse" color-interpolation-filters="sRGB">
<feFlood flood-opacity="0" result="BackgroundImageFix"/>
<feColorMatrix in="SourceAlpha" type="matrix" values="0 0 0 0 0 0 0 0 0 0 0 0 0 0 0 0 0 0 127 0" result="hardAlpha"/>
<feOffset dy="0.75"/>
<feGaussianBlur stdDeviation="1.5"/>
<feColorMatrix type="matrix" values="0 0 0 0 0 0 0 0 0 0 0 0 0 0 0 0 0 0 0.16 0"/>
<feBlend mode="normal" in2="BackgroundImageFix" result="effect1_dropShadow_106_113"/>
<feBlend mode="normal" in="SourceGraphic" in2="effect1_dropShadow_106_113" result="shape"/>
</filter>
<filter id="filter1_d_106_113" x="0.699341" y="0.257996" width="15.7095" height="17.8099" filterUnits="userSpaceOnUse" color-interpolation-filters="sRGB">
<feFlood flood-opacity="0" result="BackgroundImageFix"/>
<feColorMatrix in="SourceAlpha" type="matrix" values="0 0 0 0 0 0 0 0 0 0 0 0 0 0 0 0 0 0 127 0" result="hardAlpha"/>
<feOffset dy="0.75"/>
<feGaussianBlur stdDeviation="1.125"/>
<feColorMatrix type="matrix" values="0 0 0 0 0 0 0 0 0 0 0 0 0 0 0 0 0 0 0.1 0"/>
<feBlend mode="normal" in2="BackgroundImageFix" result="effect1_dropShadow_106_113"/>
<feBlend mode="normal" in="SourceGraphic" in2="effect1_dropShadow_106_113" result="shape"/>
</filter>
</defs>
</svg>
