<svg width="500" height="500" viewBox="0 0 500 500" fill="none" xmlns="http://www.w3.org/2000/svg">
<g clip-path="url(#clip0_227_135)">
<rect width="500" height="500" fill="#4332FF"/>
<rect x="90.5" y="167.8" width="340.8" height="130" rx="43.2" fill="#1B1B1C"/>
<path d="M159.344 192.758C161.477 192.758 163.403 192.998 165.123 193.48C166.912 193.893 168.254 194.478 169.148 195.234L167.084 203.181C166.327 202.699 165.467 202.355 164.504 202.149C163.541 201.874 162.44 201.736 161.202 201.736C158.381 201.736 156.145 202.39 154.494 203.697C152.911 205.004 152.12 207.137 152.12 210.095V217.629L152.43 220.415V268.3H141.387V209.27C141.387 206.655 141.766 204.316 142.522 202.252C143.348 200.188 144.552 198.468 146.134 197.092C147.717 195.647 149.609 194.581 151.81 193.893C154.081 193.136 156.592 192.758 159.344 192.758ZM168.838 216.7V225.369H131.686V216.7H168.838ZM200.072 215.668C205.094 215.668 209.532 216.734 213.384 218.867C217.237 221 220.23 224.096 222.363 228.155C224.564 232.146 225.665 236.927 225.665 242.5C225.665 248.073 224.564 252.889 222.363 256.948C220.23 260.938 217.237 264 213.384 266.133C209.532 268.266 205.094 269.332 200.072 269.332C195.049 269.332 190.612 268.266 186.759 266.133C182.906 264 179.879 260.938 177.677 256.948C175.476 252.889 174.375 248.073 174.375 242.5C174.375 236.927 175.476 232.146 177.677 228.155C179.879 224.096 182.906 221 186.759 218.867C190.612 216.734 195.049 215.668 200.072 215.668ZM200.072 224.337C196.976 224.337 194.327 225.059 192.125 226.504C189.992 227.88 188.341 229.91 187.172 232.593C186.002 235.276 185.417 238.578 185.417 242.5C185.417 246.353 186.002 249.655 187.172 252.407C188.341 255.09 189.992 257.154 192.125 258.599C194.327 259.975 196.976 260.663 200.072 260.663C203.168 260.663 205.782 259.975 207.915 258.599C210.048 257.154 211.699 255.09 212.868 252.407C214.038 249.655 214.623 246.353 214.623 242.5C214.623 238.578 214.038 235.276 212.868 232.593C211.699 229.91 210.048 227.88 207.915 226.504C205.782 225.059 203.168 224.337 200.072 224.337ZM239.557 268.3V216.7H249.361L250.083 230.116L248.639 228.671C249.602 225.713 250.978 223.27 252.767 221.344C254.624 219.349 256.791 217.904 259.268 217.01C261.814 216.115 264.497 215.668 267.318 215.668C270.964 215.668 274.232 216.39 277.122 217.835C280.08 219.211 282.419 221.31 284.139 224.13C285.859 226.951 286.719 230.529 286.719 234.863V268.3H275.677V238.269C275.677 233.178 274.611 229.669 272.478 227.742C270.414 225.747 267.799 224.75 264.635 224.75C262.364 224.75 260.163 225.3 258.03 226.401C255.897 227.433 254.108 229.118 252.663 231.458C251.287 233.797 250.599 236.927 250.599 240.849V268.3H239.557ZM317.915 201.53V252.82C317.915 255.366 318.568 257.223 319.876 258.393C321.252 259.562 323.075 260.147 325.345 260.147C327.203 260.147 328.82 259.872 330.196 259.322C331.572 258.702 332.844 257.877 334.014 256.845L336.491 264.894C334.908 266.27 332.948 267.371 330.608 268.197C328.338 268.954 325.792 269.332 322.972 269.332C320.013 269.332 317.296 268.85 314.819 267.887C312.342 266.924 310.416 265.376 309.04 263.243C307.664 261.042 306.941 258.186 306.872 254.678V204.626L317.915 201.53ZM335.665 216.7V225.369H296.965V216.7H335.665ZM366.195 269.332C361.035 269.332 356.322 268.334 352.056 266.339C347.791 264.344 344.419 261.523 341.943 257.877L349.579 251.272C351.093 254.093 353.26 256.363 356.081 258.083C358.971 259.734 362.411 260.56 366.401 260.56C369.566 260.56 372.077 260.01 373.935 258.909C375.792 257.808 376.721 256.26 376.721 254.265C376.721 252.958 376.274 251.822 375.379 250.859C374.554 249.827 372.937 249.036 370.529 248.486L359.693 246.215C354.189 245.114 350.267 243.36 347.928 240.952C345.589 238.475 344.419 235.345 344.419 231.561C344.419 228.74 345.245 226.126 346.896 223.718C348.547 221.31 350.955 219.383 354.12 217.938C357.354 216.425 361.207 215.668 365.679 215.668C370.839 215.668 375.242 216.597 378.888 218.454C382.535 220.243 385.321 222.823 387.247 226.194L379.611 232.593C378.303 229.841 376.377 227.811 373.831 226.504C371.286 225.128 368.637 224.44 365.885 224.44C363.683 224.44 361.791 224.715 360.209 225.266C358.627 225.816 357.423 226.573 356.597 227.536C355.771 228.499 355.359 229.634 355.359 230.942C355.359 232.318 355.875 233.522 356.907 234.554C357.939 235.586 359.796 236.377 362.479 236.927L374.244 239.404C379.198 240.367 382.672 242.018 384.667 244.358C386.731 246.628 387.763 249.414 387.763 252.717C387.763 256.019 386.903 258.943 385.183 261.489C383.463 263.966 380.987 265.892 377.753 267.268C374.519 268.644 370.667 269.332 366.195 269.332Z" fill="white"/>
<path d="M55.8 517.206L108.635 375H135.533L188.368 517.206H163.391L150.903 484.604H93.2648L80.7766 517.206H55.8ZM142.257 462.549L122.276 404.639H121.892L101.911 462.549H142.257Z" fill="#1A0CB3"/>
<path d="M231.589 519.124C226.978 519.124 222.751 518.421 218.908 517.015C215.194 515.48 211.992 513.499 209.302 511.069C206.612 508.64 204.499 505.827 202.962 502.631C201.553 499.307 200.849 495.855 200.849 492.275C200.849 484.604 203.41 478.083 208.534 472.713C213.785 467.343 220.51 463.955 228.707 462.549L260.408 456.796V456.604C260.408 455.07 259.96 453.471 259.063 451.809C258.166 450.019 256.886 448.485 255.22 447.207C253.555 445.8 251.634 444.649 249.457 443.755C247.279 442.86 244.846 442.412 242.156 442.412C238.698 442.412 235.559 443.051 232.742 444.33C229.924 445.481 227.49 446.759 225.441 448.165C223.007 449.828 220.894 451.745 219.101 453.919L205.652 440.494C208.341 436.914 211.608 433.718 215.45 430.905C218.652 428.476 222.559 426.303 227.17 424.385C231.781 422.339 237.096 421.316 243.116 421.316C248.88 421.316 254.132 422.339 258.871 424.385C263.738 426.303 267.901 428.987 271.359 432.439C274.946 435.764 277.699 439.727 279.621 444.33C281.542 448.805 282.503 453.599 282.503 458.713V517.206H260.408V504.741H259.447C257.654 507.426 255.413 509.791 252.723 511.837C250.417 513.626 247.535 515.289 244.077 516.823C240.619 518.357 236.456 519.124 231.589 519.124ZM238.313 477.891C232.549 478.914 228.515 480.385 226.209 482.302C224.032 484.092 222.943 486.458 222.943 489.398C222.943 492.339 224.224 495.024 226.786 497.453C229.475 499.754 232.998 500.905 237.353 500.905C240.427 500.905 243.373 500.33 246.191 499.179C249.008 497.901 251.442 496.174 253.491 494.001C255.669 491.827 257.334 489.27 258.487 486.33C259.767 483.389 260.408 480.257 260.408 476.933V474.056L238.313 477.891Z" fill="#1A0CB3"/>
<path d="M477.707 518.92C474.74 518.92 471.713 518.268 468.627 516.965C465.542 515.542 462.871 513.528 460.616 510.92L463.287 508.253C465.423 510.387 467.5 511.453 469.517 511.453C471.298 511.453 472.603 510.802 473.434 509.498C474.384 508.194 475.274 505.586 476.104 501.675L478.063 491.364C479.131 485.556 481.089 481.23 483.938 478.385C486.786 475.541 491.415 473.644 497.824 472.696V471.807C491.533 470.741 486.371 468.429 482.335 464.874C478.419 461.318 476.46 456.103 476.46 449.229C476.46 441.288 479.131 435.302 484.472 431.272C489.812 427.124 498.476 425.05 510.463 425.05H561.379V428.783L548.561 430.561V511.631L561.379 513.587V517.143H517.94V513.587L530.758 511.631V474.83H514.38C509.276 474.83 505.301 475.956 502.452 478.208C499.722 480.46 497.942 484.193 497.111 489.408L494.441 504.52C493.492 509.735 491.771 513.468 489.278 515.72C486.786 517.854 482.929 518.92 477.707 518.92ZM530.758 470.385V429.494H515.804C508.92 429.494 503.817 431.035 500.494 434.117C497.289 437.198 495.687 442.117 495.687 448.873V451.184C495.687 457.822 497.349 462.681 500.672 465.763C503.995 468.844 508.564 470.385 514.38 470.385H530.758Z" fill="#1A0CB3"/>
<path d="M335.756 519.124C327.092 519.124 319.555 515.509 313.146 508.279L316.173 505.079C320.089 509.109 323.828 511.124 327.389 511.124C328.101 511.124 328.635 511.065 328.991 510.946C331.008 510.472 332.551 509.05 333.619 506.679C334.688 504.309 335.696 500.101 336.646 494.056L339.316 476.989C340.74 468.337 343.945 461.937 348.93 457.788C354.033 453.64 361.51 450.855 371.361 449.432V448.366C346.556 445.047 334.153 433.195 334.153 412.809C334.153 400.008 338.663 390.526 347.683 384.363C356.703 378.2 370.886 375.118 390.231 375.118H439.188V379.029L422.81 381.518V510.946L439.188 513.613V517.346H386.849V513.613L403.227 510.946V450.321H389.341C380.915 450.321 374.328 452.218 369.581 456.01C364.952 459.685 362.044 465.729 360.857 474.144L357.475 497.968C356.288 505.672 354.033 511.124 350.71 514.324C347.387 517.524 342.402 519.124 335.756 519.124ZM403.227 446.054V379.563H390.231C367.207 379.563 355.695 389.4 355.695 409.075V414.764C355.695 424.839 358.246 432.602 363.35 438.054C368.453 443.388 375.396 446.054 384.179 446.054H403.227Z" fill="#1A0CB3"/>
<mask id="mask0_227_135" style="mask-type:alpha" maskUnits="userSpaceOnUse" x="55" y="375" width="228" height="145">
<path d="M55.8 517.206L108.635 375H135.533L188.368 517.206H163.391L150.903 484.604H93.2648L80.7766 517.206H55.8ZM142.257 462.549L122.276 404.639H121.892L101.911 462.549H142.257Z" fill="#2C2D2E"/>
<path d="M231.589 519.124C226.978 519.124 222.751 518.421 218.908 517.015C215.194 515.48 211.992 513.499 209.302 511.069C206.612 508.64 204.499 505.827 202.962 502.631C201.553 499.307 200.849 495.855 200.849 492.275C200.849 484.604 203.41 478.083 208.534 472.713C213.785 467.343 220.51 463.955 228.707 462.549L260.408 456.796V456.604C260.408 455.07 259.96 453.471 259.063 451.809C258.166 450.019 256.886 448.485 255.22 447.207C253.555 445.8 251.634 444.649 249.457 443.755C247.279 442.86 244.846 442.412 242.156 442.412C238.698 442.412 235.559 443.051 232.742 444.33C229.924 445.481 227.49 446.759 225.441 448.165C223.007 449.828 220.894 451.745 219.101 453.919L205.652 440.494C208.341 436.914 211.608 433.718 215.45 430.905C218.652 428.476 222.559 426.303 227.17 424.385C231.781 422.339 237.096 421.316 243.116 421.316C248.88 421.316 254.132 422.339 258.871 424.385C263.738 426.303 267.901 428.987 271.359 432.439C274.946 435.764 277.699 439.727 279.621 444.33C281.542 448.805 282.503 453.599 282.503 458.713V517.206H260.408V504.741H259.447C257.654 507.426 255.413 509.791 252.723 511.837C250.417 513.626 247.535 515.289 244.077 516.823C240.619 518.357 236.456 519.124 231.589 519.124ZM238.313 477.891C232.549 478.914 228.515 480.385 226.209 482.302C224.032 484.092 222.943 486.458 222.943 489.398C222.943 492.339 224.224 495.024 226.786 497.453C229.475 499.754 232.998 500.905 237.353 500.905C240.427 500.905 243.373 500.33 246.191 499.179C249.008 497.901 251.442 496.174 253.491 494.001C255.669 491.827 257.334 489.27 258.487 486.33C259.767 483.389 260.408 480.257 260.408 476.933V474.056L238.313 477.891Z" fill="#2C2D2E"/>
</mask>
<g mask="url(#mask0_227_135)">
<path d="M78.957 374.395H169.413V425.05H78.957V374.395Z" fill="white"/>
</g>
<mask id="mask1_227_135" style="mask-type:alpha" maskUnits="userSpaceOnUse" x="460" y="425" width="102" height="95">
<path d="M477.41 519.124C474.443 519.124 471.417 518.472 468.331 517.168C465.245 515.746 462.575 513.731 460.32 511.124L462.99 508.457C465.127 510.59 467.203 511.657 469.221 511.657C471.001 511.657 472.307 511.005 473.138 509.701C474.087 508.398 474.977 505.79 475.808 501.879L477.766 491.567C478.834 485.76 480.793 481.434 483.641 478.589C486.49 475.744 491.118 473.848 497.527 472.9V472.011C491.237 470.944 486.074 468.633 482.039 465.077C478.122 461.522 476.164 456.307 476.164 449.432C476.164 441.491 478.834 435.506 484.175 431.476C489.516 427.328 498.18 425.253 510.167 425.253H561.082V428.987L548.264 430.765V511.835L561.082 513.79V517.346H517.644V513.79L530.462 511.835V475.033H514.083C508.98 475.033 505.004 476.159 502.156 478.411C499.426 480.663 497.646 484.397 496.815 489.612L494.145 504.723C493.195 509.938 491.474 513.672 488.982 515.924C486.49 518.057 482.632 519.124 477.41 519.124ZM530.462 470.589V429.698H515.508C508.624 429.698 503.521 431.239 500.198 434.32C496.993 437.402 495.391 442.321 495.391 449.077V451.388C495.391 458.025 497.052 462.885 500.376 465.966C503.699 469.048 508.268 470.589 514.083 470.589H530.462Z" fill="#005FF9"/>
</mask>
<g mask="url(#mask1_227_135)">
<path d="M460.166 472.087L498.158 472.811L512.631 475.344L517.334 522.743H460.166V472.087Z" fill="white"/>
</g>
<mask id="mask2_227_135" style="mask-type:alpha" maskUnits="userSpaceOnUse" x="312" y="374" width="128" height="146">
<path d="M335.756 519.124C327.092 519.124 319.555 515.509 313.146 508.279L316.173 505.079C320.089 509.109 323.828 511.124 327.389 511.124C328.101 511.124 328.635 511.065 328.991 510.946C331.008 510.472 332.551 509.05 333.619 506.679C334.688 504.309 335.696 500.101 336.646 494.057L339.316 476.989C340.74 468.337 343.945 461.937 348.93 457.789C354.033 453.64 361.51 450.855 371.361 449.433V448.366C346.556 445.047 334.153 433.195 334.153 412.809C334.153 400.008 338.663 390.526 347.683 384.363C356.703 378.2 370.886 375.118 390.231 375.118H439.188V379.03L422.81 381.519V510.946L439.188 513.613V517.347H386.849V513.613L403.227 510.946V450.322H389.341C380.915 450.322 374.328 452.218 369.581 456.011C364.952 459.685 362.044 465.73 360.857 474.145L357.475 497.968C356.288 505.672 354.033 511.124 350.71 514.324C347.387 517.524 342.402 519.124 335.756 519.124ZM403.227 446.055V379.563H390.231C367.207 379.563 355.695 389.4 355.695 409.075V414.765C355.695 424.839 358.246 432.602 363.35 438.054C368.453 443.388 375.396 446.055 384.179 446.055H403.227Z" fill="#005FF9" stroke="#005FF9" stroke-width="1.296"/>
</mask>
<g mask="url(#mask2_227_135)">
<rect x="302.04" y="364.92" width="143.28" height="59.76" fill="white"/>
</g>
<rect x="33.4802" y="424.288" width="783.36" height="141.12" stroke="white" stroke-width="1.44"/>
<rect x="27" y="417.48" width="14.4" height="14.4" fill="white"/>
<path d="M-13.6423 95.193H-14.1722L-14.3492 95.6924L-27.5921 133.05H-42.9264L5.51312 0.875796H21.1425L69.5819 133.05H54.2477L41.0048 95.6924L40.8278 95.193H40.2979H-13.6423ZM-9.26794 81.333L-9.62241 82.3335H-8.561H35.2166H36.278L35.9235 81.333L14.5559 21.023L14.3789 20.5235H13.849H12.8066H12.2767L12.0997 21.023L-9.26794 81.333ZM130.283 0.875568L130.288 0.875392C134.247 0.745337 137.883 0.745254 141.205 0.745254C146.303 0.777785 150.741 0.795905 154.517 0.281498C158.024 -0.196219 161.027 -1.14055 163.51 -3.00784L170.409 5.28614C166.091 9.25448 160.816 11.1877 154.38 12.2108C149.074 13.0541 143.047 13.2713 136.17 13.5191C134.339 13.5851 132.448 13.6532 130.494 13.7359C119.891 14.1347 112.046 17.8672 106.61 24.8599C101.203 31.8155 98.2512 41.9073 97.2039 54.8928L97.1385 55.7031H97.9514H99.2543H99.7014L99.9141 55.3097C106.528 43.0766 119.068 37.4273 132.609 37.4273C144.117 37.4273 154.265 41.534 161.542 49.4871C168.822 57.4445 173.291 69.3236 173.291 84.9775C173.291 100.57 168.885 113.106 161.241 121.733C153.604 130.352 142.677 135.139 129.482 135.139C116.255 135.139 105.273 130.386 97.5841 121.116C89.8802 111.827 85.4118 97.9198 85.4118 79.4948V68.7904C85.4118 46.5308 89.1835 29.7332 96.6554 18.4234C104.095 7.16231 115.256 1.26159 130.283 0.875568ZM99.2861 84.9664V84.9775C99.2861 96.3199 102.116 105.768 107.329 112.398C112.558 119.047 120.14 122.801 129.482 122.801C138.758 122.801 146.276 119.08 151.457 112.445C156.621 105.83 159.417 96.3824 159.417 84.9775C159.417 73.8931 156.602 65.0824 151.376 59.0318C146.138 52.9667 138.555 49.7647 129.221 49.7647C120.108 49.7647 112.673 52.9713 107.487 59.0345C102.315 65.0813 99.4507 73.8862 99.2861 84.9664ZM244.427 133.05H198.012V34.2943H238.173C248.807 34.2943 257.427 36.9263 263.37 41.4591C269.294 45.9779 272.602 52.4162 272.602 60.1747C272.602 66.0971 270.665 70.5341 267.407 73.7829C264.132 77.0488 259.463 79.1705 253.916 80.3271L253.959 81.8032C264.712 83.3969 276.25 91.6519 276.25 106.908C276.25 114.399 273.278 120.911 267.848 125.561C262.409 130.218 254.452 133.05 244.427 133.05ZM211.105 119.701V120.451H211.855H244.427C249.823 120.451 254.246 119.084 257.334 116.508C260.439 113.919 262.115 110.173 262.115 105.603C262.115 100.259 260.468 95.8729 257.381 92.8231C254.295 89.7744 249.854 88.1438 244.427 88.1438H211.855H211.105V88.8938V119.701ZM211.105 75.5786V76.3286H211.855H238.173C244.427 76.3286 249.551 74.9545 253.133 72.3594C256.742 69.7444 258.728 65.9274 258.728 61.219C258.728 56.7531 256.726 53.1315 253.117 50.6551C249.538 48.1989 244.421 46.8928 238.173 46.8928H211.855H211.105V47.6428V75.5786Z" stroke="#002054" stroke-width="1.5"/>
<mask id="path-15-inside-1_227_135" fill="white">
<path fill-rule="evenodd" clip-rule="evenodd" d="M108.691 23.7784C113.882 18.117 121.052 15.0591 130.546 14.703C132.485 14.6211 134.366 14.5535 136.192 14.4879L136.192 14.4879C151.789 13.9274 163.297 13.5139 171.462 5.58155L163.644 -3.80054C158.757 0.304123 151.46 0.304124 141.231 0.238969H141.231C137.908 0.238969 134.26 0.238969 130.285 0.369277C112.742 0.819114 100.288 8.68833 92.875 23.7784H108.691Z"/>
</mask>
<path d="M130.546 14.703L130.602 16.202L130.609 16.2017L130.546 14.703ZM108.691 23.7784V25.2784H109.351L109.797 24.7921L108.691 23.7784ZM136.192 14.4879L136.139 12.9888L136.138 12.9889L136.192 14.4879ZM136.192 14.4879L136.245 15.987L136.246 15.9869L136.192 14.4879ZM171.462 5.58155L172.507 6.65747L173.504 5.68901L172.615 4.62127L171.462 5.58155ZM163.644 -3.80054L164.796 -4.76081L163.832 -5.91767L162.679 -4.94909L163.644 -3.80054ZM141.231 0.238969L141.241 -1.26103H141.231V0.238969ZM130.285 0.369277L130.324 1.86882L130.335 1.86847L130.285 0.369277ZM92.875 23.7784L91.5287 23.117L90.4669 25.2784H92.875V23.7784ZM130.49 13.2041C120.679 13.572 113.099 16.7511 107.585 22.7646L109.797 24.7921C114.665 19.4829 121.425 16.5461 130.602 16.202L130.49 13.2041ZM136.138 12.9889C134.313 13.0544 132.427 13.1222 130.483 13.2044L130.609 16.2017C132.543 16.12 134.419 16.0526 136.246 15.9869L136.138 12.9889ZM136.14 12.9888L136.139 12.9888L136.244 15.987L136.245 15.987L136.14 12.9888ZM170.417 4.50563C166.602 8.21139 161.981 10.2004 156.321 11.3281C150.617 12.4646 143.973 12.7073 136.139 12.9888L136.246 15.9869C144.009 15.708 150.917 15.4637 156.907 14.2703C162.942 13.068 168.157 10.8841 172.507 6.65747L170.417 4.50563ZM162.492 -2.84026L170.31 6.54182L172.615 4.62127L164.796 -4.76081L162.492 -2.84026ZM141.222 1.73894C146.306 1.77132 150.803 1.79138 154.643 1.26922C158.509 0.743611 161.866 -0.348476 164.609 -2.65198L162.679 -4.94909C160.535 -3.14794 157.801 -2.18769 154.239 -1.70343C150.652 -1.21571 146.385 -1.22823 141.241 -1.261L141.222 1.73894ZM141.231 1.73897H141.231V-1.26103H141.231V1.73897ZM130.335 1.86847C134.281 1.73908 137.906 1.73897 141.231 1.73897V-1.26103C137.91 -1.26103 134.238 -1.26114 130.236 -1.12992L130.335 1.86847ZM94.2213 24.4398C97.8236 17.1071 102.615 11.5952 108.578 7.85445C114.544 4.11205 121.771 2.0881 130.324 1.86878L130.247 -1.13023C121.256 -0.899706 113.484 1.23587 106.984 5.31305C100.482 9.39187 95.3396 15.3596 91.5287 23.117L94.2213 24.4398ZM92.875 25.2784H108.691V22.2784H92.875V25.2784Z" fill="white" mask="url(#path-15-inside-1_227_135)"/>
<path d="M32.2707 2.58057L44.2087 30.4359" stroke="white" stroke-width="1.5"/>
<path d="M164.915 -14L182.823 7.22314" stroke="white" stroke-width="1.5"/>
<path d="M180.17 66.9133C183.232 75.0964 184.151 94.1408 180.17 106.043" stroke="white" stroke-width="1.5"/>
</g>
<defs>
<clipPath id="clip0_227_135">
<rect width="500" height="500" fill="white"/>
</clipPath>
</defs>
</svg>
