<svg width="66" height="15" viewBox="0 0 66 15" fill="none" xmlns="http://www.w3.org/2000/svg">
<rect width="66" height="15" rx="7.5" fill="#CCFFDD"/>
<path d="M18.983 4.45455V11H18.2159L14.6491 5.8608H14.5852V11H13.7926V4.45455H14.5597L18.1392 9.60653H18.2031V4.45455H18.983ZM22.5249 11.1023C22.0519 11.1023 21.6439 10.9979 21.3009 10.7891C20.96 10.5781 20.6968 10.2841 20.5115 9.90696C20.3282 9.5277 20.2366 9.08665 20.2366 8.58381C20.2366 8.08097 20.3282 7.63778 20.5115 7.25426C20.6968 6.86861 20.9546 6.56818 21.2849 6.35298C21.6173 6.13565 22.0051 6.02699 22.4482 6.02699C22.7039 6.02699 22.9564 6.0696 23.2057 6.15483C23.455 6.24006 23.6819 6.37855 23.8865 6.57031C24.091 6.75994 24.254 7.01136 24.3754 7.32457C24.4969 7.63778 24.5576 8.02344 24.5576 8.48153V8.80114H20.7735V8.14915H23.7906C23.7906 7.87216 23.7352 7.625 23.6244 7.40767C23.5157 7.19034 23.3602 7.01882 23.1578 6.89311C22.9575 6.7674 22.721 6.70455 22.4482 6.70455C22.1478 6.70455 21.8879 6.77912 21.6684 6.92827C21.4511 7.07528 21.2838 7.26705 21.1666 7.50355C21.0494 7.74006 20.9909 7.99361 20.9909 8.2642V8.69886C20.9909 9.0696 21.0548 9.38388 21.1826 9.64169C21.3126 9.89737 21.4926 10.0923 21.7227 10.2266C21.9529 10.3587 22.2203 10.4247 22.5249 10.4247C22.7231 10.4247 22.9021 10.397 23.0619 10.3416C23.2238 10.2841 23.3634 10.1989 23.4806 10.0859C23.5977 9.97088 23.6883 9.82812 23.7522 9.65767L24.4809 9.86222C24.4042 10.1094 24.2753 10.3267 24.0942 10.5142C23.9131 10.6996 23.6894 10.8445 23.423 10.9489C23.1567 11.0511 22.8573 11.1023 22.5249 11.1023ZM26.8172 11L25.3215 6.09091H26.1141L27.1752 9.84943H27.2263L28.2746 6.09091H29.08L30.1155 9.83665H30.1666L31.2277 6.09091H32.0203L30.5246 11H29.7831L28.7093 7.22869H28.6325L27.5587 11H26.8172ZM35.651 11V4.45455H39.6013V5.15767H36.4436V7.36932H39.3968V8.07244H36.4436V10.2969H39.6524V11H35.651ZM44.9419 6.09091L43.1265 11H42.3595L40.5441 6.09091H41.3623L42.7174 10.0028H42.7686L44.1237 6.09091H44.9419ZM47.8199 11.1023C47.3469 11.1023 46.9388 10.9979 46.5958 10.7891C46.2549 10.5781 45.9917 10.2841 45.8064 9.90696C45.6231 9.5277 45.5315 9.08665 45.5315 8.58381C45.5315 8.08097 45.6231 7.63778 45.8064 7.25426C45.9917 6.86861 46.2496 6.56818 46.5798 6.35298C46.9122 6.13565 47.3 6.02699 47.7432 6.02699C47.9988 6.02699 48.2513 6.0696 48.5006 6.15483C48.7499 6.24006 48.9768 6.37855 49.1814 6.57031C49.3859 6.75994 49.5489 7.01136 49.6704 7.32457C49.7918 7.63778 49.8525 8.02344 49.8525 8.48153V8.80114H46.0684V8.14915H49.0855C49.0855 7.87216 49.0301 7.625 48.9193 7.40767C48.8106 7.19034 48.6551 7.01882 48.4527 6.89311C48.2524 6.7674 48.0159 6.70455 47.7432 6.70455C47.4427 6.70455 47.1828 6.77912 46.9633 6.92827C46.746 7.07528 46.5787 7.26705 46.4616 7.50355C46.3444 7.74006 46.2858 7.99361 46.2858 8.2642V8.69886C46.2858 9.0696 46.3497 9.38388 46.4775 9.64169C46.6075 9.89737 46.7876 10.0923 47.0177 10.2266C47.2478 10.3587 47.5152 10.4247 47.8199 10.4247C48.018 10.4247 48.197 10.397 48.3568 10.3416C48.5187 10.2841 48.6583 10.1989 48.7755 10.0859C48.8927 9.97088 48.9832 9.82812 49.0471 9.65767L49.7758 9.86222C49.6991 10.1094 49.5702 10.3267 49.3891 10.5142C49.208 10.6996 48.9843 10.8445 48.718 10.9489C48.4516 11.0511 48.1523 11.1023 47.8199 11.1023ZM51.7542 8.04688V11H50.9999V6.09091H51.7286V6.85795H51.7925C51.9076 6.60866 52.0823 6.40838 52.3167 6.2571C52.551 6.10369 52.8536 6.02699 53.2243 6.02699C53.5567 6.02699 53.8476 6.09517 54.0969 6.23153C54.3461 6.36577 54.54 6.57031 54.6785 6.84517C54.817 7.1179 54.8863 7.46307 54.8863 7.88068V11H54.132V7.93182C54.132 7.54616 54.0319 7.24574 53.8316 7.03054C53.6313 6.81321 53.3564 6.70455 53.007 6.70455C52.7662 6.70455 52.551 6.75675 52.3614 6.86115C52.1739 6.96555 52.0258 7.1179 51.9172 7.31818C51.8085 7.51847 51.7542 7.76136 51.7542 8.04688ZM58.3995 6.09091V6.73011H55.8555V6.09091H58.3995ZM56.5969 4.91477H57.3512V9.59375C57.3512 9.80682 57.3821 9.96662 57.4439 10.0732C57.5078 10.1776 57.5888 10.2479 57.6868 10.2841C57.7869 10.3182 57.8924 10.3352 58.0032 10.3352C58.0863 10.3352 58.1545 10.331 58.2077 10.3224C58.261 10.3118 58.3036 10.3033 58.3356 10.2969L58.489 10.9744C58.4379 10.9936 58.3665 11.0128 58.2749 11.032C58.1832 11.0533 58.0671 11.0639 57.9265 11.0639C57.7134 11.0639 57.5046 11.0181 57.3001 10.9265C57.0977 10.8349 56.9293 10.6953 56.7951 10.5078C56.663 10.3203 56.5969 10.0838 56.5969 9.7983V4.91477Z" fill="black"/>
<rect x="3" y="4" width="7" height="7" rx="3.5" fill="#19BD00"/>
</svg>
