<svg width="71" height="33" viewBox="0 0 71 33" fill="none" xmlns="http://www.w3.org/2000/svg">
<g filter="url(#filter0_d_106_121)">
<rect x="11.75" y="16.25" width="56.25" height="12.75" rx="0.75" fill="#1BC47D"/>
<path d="M21.4296 19.7955H22.2553V23.383C22.2553 23.7647 22.1656 24.103 21.9863 24.3977C21.807 24.6907 21.5548 24.9215 21.2299 25.0902C20.905 25.2571 20.5241 25.3406 20.0873 25.3406C19.6523 25.3406 19.2723 25.2571 18.9474 25.0902C18.6225 24.9215 18.3703 24.6907 18.191 24.3977C18.0117 24.103 17.922 23.7647 17.922 23.383V19.7955H18.745V23.3164C18.745 23.5632 18.7991 23.7825 18.9074 23.9743C19.0175 24.166 19.1729 24.3169 19.3735 24.427C19.5742 24.5353 19.8121 24.5895 20.0873 24.5895C20.3643 24.5895 20.6031 24.5353 20.8038 24.427C21.0062 24.3169 21.1606 24.166 21.2672 23.9743C21.3755 23.7825 21.4296 23.5632 21.4296 23.3164V19.7955ZM24.0994 19.7955L25.4045 21.9288H25.4471L26.7521 19.7955H27.7056L26.0064 22.5227L27.7162 25.25H26.7574L25.4471 23.146H25.4045L24.0941 25.25H23.1353L24.8744 22.5227L23.1459 19.7955H24.0994ZM32.4226 25.25H30.6568V19.7955H32.4785C33.013 19.7955 33.4719 19.9047 33.8555 20.123C34.239 20.3397 34.5328 20.6513 34.737 21.0579C34.943 21.4627 35.046 21.9483 35.046 22.5147C35.046 23.0829 34.9421 23.5712 34.7344 23.9796C34.5284 24.388 34.2301 24.7022 33.8395 24.9224C33.4489 25.1408 32.9766 25.25 32.4226 25.25ZM31.4798 24.5309H32.3773C32.7928 24.5309 33.1381 24.4528 33.4133 24.2965C33.6886 24.1385 33.8945 23.9103 34.0312 23.612C34.168 23.312 34.2363 22.9462 34.2363 22.5147C34.2363 22.0868 34.168 21.7237 34.0312 21.4254C33.8963 21.1271 33.6948 20.9007 33.4267 20.7463C33.1585 20.5918 32.8256 20.5146 32.4279 20.5146H31.4798V24.5309ZM37.8436 25.3326C37.4405 25.3326 37.0934 25.2464 36.8022 25.0742C36.5128 24.9002 36.2891 24.6561 36.1311 24.3418C35.9748 24.0257 35.8967 23.6555 35.8967 23.2312C35.8967 22.8121 35.9748 22.4428 36.1311 22.1232C36.2891 21.8036 36.5092 21.5542 36.7916 21.3748C37.0757 21.1955 37.4077 21.1058 37.7877 21.1058C38.0185 21.1058 38.2422 21.144 38.4588 21.2203C38.6754 21.2967 38.8699 21.4165 39.0421 21.5799C39.2143 21.7433 39.3502 21.9554 39.4496 22.2164C39.549 22.4757 39.5987 22.7908 39.5987 23.1619V23.4442H36.3468V22.8477H38.8184C38.8184 22.6381 38.7758 22.4526 38.6905 22.291C38.6053 22.1277 38.4855 21.9989 38.331 21.9048C38.1783 21.8107 37.999 21.7637 37.793 21.7637C37.5693 21.7637 37.374 21.8187 37.207 21.9288C37.0419 22.0371 36.9141 22.1792 36.8235 22.3549C36.7347 22.5289 36.6904 22.718 36.6904 22.9222V23.3883C36.6904 23.6618 36.7383 23.8944 36.8342 24.0861C36.9318 24.2779 37.0677 24.4244 37.2417 24.5256C37.4157 24.625 37.619 24.6747 37.8516 24.6747C38.0025 24.6747 38.1401 24.6534 38.2644 24.6108C38.3887 24.5664 38.4961 24.5007 38.5867 24.4137C38.6772 24.3267 38.7465 24.2193 38.7944 24.0914L39.5481 24.2273C39.4878 24.4492 39.3795 24.6436 39.2232 24.8105C39.0687 24.9757 38.8743 25.1044 38.6399 25.1967C38.4073 25.2873 38.1419 25.3326 37.8436 25.3326ZM43.6228 22.1578L42.9011 22.2857C42.8709 22.1934 42.8229 22.1055 42.7572 22.022C42.6933 21.9386 42.6063 21.8702 42.4962 21.8169C42.3861 21.7637 42.2485 21.737 42.0834 21.737C41.8579 21.737 41.6697 21.7876 41.5188 21.8888C41.3679 21.9883 41.2924 22.117 41.2924 22.275C41.2924 22.4118 41.343 22.5218 41.4442 22.6053C41.5454 22.6887 41.7088 22.7571 41.9343 22.8104L42.5841 22.9595C42.9605 23.0465 43.2411 23.1806 43.4257 23.3617C43.6104 23.5428 43.7027 23.7781 43.7027 24.0675C43.7027 24.3125 43.6317 24.5309 43.4897 24.7227C43.3494 24.9126 43.1532 25.0618 42.9011 25.1701C42.6507 25.2784 42.3604 25.3326 42.0301 25.3326C41.572 25.3326 41.1983 25.2349 40.9089 25.0396C40.6195 24.8425 40.4419 24.5629 40.3762 24.2006L41.1459 24.0835C41.1938 24.2841 41.2924 24.4359 41.4415 24.5389C41.5907 24.6401 41.7851 24.6907 42.0248 24.6907C42.2858 24.6907 42.4945 24.6365 42.6507 24.5282C42.807 24.4181 42.8851 24.2841 42.8851 24.1261C42.8851 23.9982 42.8371 23.8908 42.7413 23.8038C42.6472 23.7168 42.5024 23.6511 42.3071 23.6067L41.6147 23.4549C41.2329 23.3679 40.9506 23.2294 40.7677 23.0394C40.5866 22.8494 40.496 22.6088 40.496 22.3176C40.496 22.0762 40.5635 21.8649 40.6985 21.6838C40.8334 21.5027 41.0198 21.3615 41.2578 21.2603C41.4957 21.1573 41.7682 21.1058 42.0754 21.1058C42.5175 21.1058 42.8655 21.2017 43.1195 21.3935C43.3734 21.5835 43.5411 21.8382 43.6228 22.1578ZM44.6533 25.25V21.1591H45.4496V25.25H44.6533ZM45.0555 20.5279C44.917 20.5279 44.798 20.4817 44.6986 20.3894C44.6009 20.2953 44.5521 20.1834 44.5521 20.0538C44.5521 19.9224 44.6009 19.8105 44.6986 19.7182C44.798 19.6241 44.917 19.5771 45.0555 19.5771C45.194 19.5771 45.312 19.6241 45.4097 19.7182C45.5091 19.8105 45.5588 19.9224 45.5588 20.0538C45.5588 20.1834 45.5091 20.2953 45.4097 20.3894C45.312 20.4817 45.194 20.5279 45.0555 20.5279ZM48.3112 26.8693C47.9862 26.8693 47.7066 26.8267 47.4722 26.7415C47.2396 26.6563 47.0496 26.5435 46.9023 26.4032C46.7549 26.263 46.6448 26.1094 46.572 25.9425L47.2565 25.6602C47.3044 25.7383 47.3684 25.8208 47.4483 25.9078C47.5299 25.9966 47.64 26.0721 47.7785 26.1342C47.9188 26.1964 48.099 26.2275 48.3192 26.2275C48.621 26.2275 48.8705 26.1538 49.0676 26.0064C49.2647 25.8608 49.3632 25.6282 49.3632 25.3086V24.5043H49.3126C49.2647 24.5913 49.1954 24.688 49.1049 24.7946C49.0161 24.9011 48.8936 24.9934 48.7373 25.0716C48.5811 25.1497 48.3778 25.1887 48.1274 25.1887C47.8043 25.1887 47.5131 25.1133 47.2538 24.9624C46.9964 24.8097 46.7922 24.585 46.6413 24.2885C46.4921 23.9902 46.4175 23.6236 46.4175 23.1886C46.4175 22.7536 46.4912 22.3807 46.6386 22.07C46.7877 21.7592 46.9919 21.5213 47.2512 21.3562C47.5104 21.1893 47.8043 21.1058 48.1327 21.1058C48.3866 21.1058 48.5917 21.1484 48.748 21.2337C48.9042 21.3171 49.0258 21.4148 49.1128 21.5266C49.2016 21.6385 49.27 21.737 49.3179 21.8223H49.3765V21.1591H50.1569V25.3406C50.1569 25.6921 50.0752 25.9806 49.9119 26.2061C49.7485 26.4316 49.5274 26.5985 49.2487 26.7069C48.9717 26.8152 48.6592 26.8693 48.3112 26.8693ZM48.3032 24.5282C48.5322 24.5282 48.7258 24.475 48.8838 24.3684C49.0436 24.2601 49.1643 24.1056 49.246 23.905C49.3295 23.7026 49.3712 23.4602 49.3712 23.1779C49.3712 22.9027 49.3304 22.6603 49.2487 22.4508C49.167 22.2413 49.0471 22.0779 48.8891 21.9608C48.7311 21.8418 48.5358 21.7823 48.3032 21.7823C48.0635 21.7823 47.8637 21.8445 47.7039 21.9688C47.5441 22.0913 47.4234 22.2582 47.3417 22.4695C47.2618 22.6808 47.2219 22.9169 47.2219 23.1779C47.2219 23.446 47.2627 23.6813 47.3444 23.8837C47.4261 24.0861 47.5468 24.2441 47.7066 24.3578C47.8682 24.4714 48.067 24.5282 48.3032 24.5282ZM52.0962 22.821V25.25H51.2999V21.1591H52.0643V21.8249H52.1149C52.209 21.6083 52.3563 21.4343 52.557 21.3029C52.7594 21.1715 53.0142 21.1058 53.3214 21.1058C53.6001 21.1058 53.8443 21.1644 54.0538 21.2816C54.2633 21.397 54.4258 21.5692 54.5412 21.7983C54.6566 22.0273 54.7143 22.3105 54.7143 22.6479V25.25H53.918V22.7438C53.918 22.4473 53.8407 22.2156 53.6862 22.0487C53.5318 21.88 53.3196 21.7956 53.0497 21.7956C52.865 21.7956 52.7008 21.8356 52.557 21.9155C52.4149 21.9954 52.3022 22.1126 52.2187 22.267C52.1371 22.4197 52.0962 22.6044 52.0962 22.821ZM57.6204 25.3326C57.2174 25.3326 56.8703 25.2464 56.5791 25.0742C56.2897 24.9002 56.0659 24.6561 55.9079 24.3418C55.7517 24.0257 55.6735 23.6555 55.6735 23.2312C55.6735 22.8121 55.7517 22.4428 55.9079 22.1232C56.0659 21.8036 56.2861 21.5542 56.5684 21.3748C56.8525 21.1955 57.1845 21.1058 57.5645 21.1058C57.7953 21.1058 58.0191 21.144 58.2357 21.2203C58.4523 21.2967 58.6467 21.4165 58.819 21.5799C58.9912 21.7433 59.127 21.9554 59.2264 22.2164C59.3259 22.4757 59.3756 22.7908 59.3756 23.1619V23.4442H56.1236V22.8477H58.5952C58.5952 22.6381 58.5526 22.4526 58.4674 22.291C58.3822 22.1277 58.2623 21.9989 58.1078 21.9048C57.9551 21.8107 57.7758 21.7637 57.5698 21.7637C57.3461 21.7637 57.1508 21.8187 56.9839 21.9288C56.8188 22.0371 56.6909 22.1792 56.6004 22.3549C56.5116 22.5289 56.4672 22.718 56.4672 22.9222V23.3883C56.4672 23.6618 56.5152 23.8944 56.611 24.0861C56.7087 24.2779 56.8445 24.4244 57.0185 24.5256C57.1925 24.625 57.3958 24.6747 57.6284 24.6747C57.7794 24.6747 57.917 24.6534 58.0413 24.6108C58.1655 24.5664 58.273 24.5007 58.3635 24.4137C58.4541 24.3267 58.5233 24.2193 58.5713 24.0914L59.325 24.2273C59.2646 24.4492 59.1563 24.6436 59.0001 24.8105C58.8456 24.9757 58.6512 25.1044 58.4168 25.1967C58.1842 25.2873 57.9187 25.3326 57.6204 25.3326ZM60.3342 25.25V21.1591H61.1039V21.8089H61.1465C61.2211 21.5888 61.3525 21.4157 61.5407 21.2896C61.7306 21.1618 61.9455 21.0978 62.1852 21.0978C62.2349 21.0978 62.2935 21.0996 62.361 21.1032C62.4302 21.1067 62.4844 21.1112 62.5234 21.1165V21.8782C62.4915 21.8693 62.4347 21.8596 62.353 21.8489C62.2713 21.8365 62.1896 21.8303 62.108 21.8303C61.9197 21.8303 61.752 21.8702 61.6046 21.9501C61.459 22.0282 61.3436 22.1374 61.2583 22.2777C61.1731 22.4162 61.1305 22.5742 61.1305 22.7518V25.25H60.3342Z" fill="white"/>
</g>
<g filter="url(#filter1_d_106_121)">
<path d="M5.375 13.25L3.5 3.5L11.75 8.375L7.625 9.5L5.375 13.25Z" fill="#1BC47D"/>
<path d="M5.00675 13.3208L5.19196 14.2839L5.69656 13.4429L7.86904 9.82214L11.8487 8.73679L12.7044 8.5034L11.9408 8.05215L3.69077 3.17715L2.97467 2.754L3.13175 3.57082L5.00675 13.3208Z" stroke="white" stroke-width="0.75" stroke-linecap="square"/>
</g>
<defs>
<filter id="filter0_d_106_121" x="8.75" y="14" width="62.25" height="18.75" filterUnits="userSpaceOnUse" color-interpolation-filters="sRGB">
<feFlood flood-opacity="0" result="BackgroundImageFix"/>
<feColorMatrix in="SourceAlpha" type="matrix" values="0 0 0 0 0 0 0 0 0 0 0 0 0 0 0 0 0 0 127 0" result="hardAlpha"/>
<feOffset dy="0.75"/>
<feGaussianBlur stdDeviation="1.5"/>
<feColorMatrix type="matrix" values="0 0 0 0 0 0 0 0 0 0 0 0 0 0 0 0 0 0 0.16 0"/>
<feBlend mode="normal" in2="BackgroundImageFix" result="effect1_dropShadow_106_121"/>
<feBlend mode="normal" in="SourceGraphic" in2="effect1_dropShadow_106_121" result="shape"/>
</filter>
<filter id="filter1_d_106_121" x="0.199341" y="0.507996" width="15.7095" height="17.8099" filterUnits="userSpaceOnUse" color-interpolation-filters="sRGB">
<feFlood flood-opacity="0" result="BackgroundImageFix"/>
<feColorMatrix in="SourceAlpha" type="matrix" values="0 0 0 0 0 0 0 0 0 0 0 0 0 0 0 0 0 0 127 0" result="hardAlpha"/>
<feOffset dy="0.75"/>
<feGaussianBlur stdDeviation="1.125"/>
<feColorMatrix type="matrix" values="0 0 0 0 0 0 0 0 0 0 0 0 0 0 0 0 0 0 0.1 0"/>
<feBlend mode="normal" in2="BackgroundImageFix" result="effect1_dropShadow_106_121"/>
<feBlend mode="normal" in="SourceGraphic" in2="effect1_dropShadow_106_121" result="shape"/>
</filter>
</defs>
</svg>
