<svg width="250" height="250" viewBox="0 0 250 250" fill="none" xmlns="http://www.w3.org/2000/svg">
<g clip-path="url(#clip0_526_686)">
<path fill-rule="evenodd" clip-rule="evenodd" d="M27.6263 369.391C31.5669 369.634 35.5073 369.827 39.4473 369.973C90.9733 371.893 142.457 366.019 193.952 364.734C211.884 364.262 229.725 364.498 247.611 365.938C249.364 366.079 251.368 364.193 251.152 362.396C247.848 333.872 243.714 305.423 241.571 276.782C241.569 275.267 241.765 273.755 242.286 272.327C242.384 272.215 242.893 270.961 243.345 270.883C243.197 270.992 243.867 270.8 243.441 270.833C246.027 270.409 248.563 267.618 246.686 264.947C227.353 235.315 200.962 208.27 192.471 173.076C190.465 163.561 183.219 162.972 175.5 159.047C173.092 157.615 167.203 153.647 166.244 150.888C163.955 140.946 167.987 131.206 156.208 127.183C148.432 125.028 134.688 123.204 126.821 125.477C117.224 128.671 117.942 139.486 112.375 146.926C109.496 151.23 104.588 157.122 100.056 157.782C97.8594 158.101 96.2415 153.658 94.0483 153.964C59.8621 162.267 13.2858 218.906 -1.40722 250.26C-4.71839 260.128 5.96028 257.151 5.30424 267.069C4.49545 285.885 2.72656 309.973 3.77565 328.811C4.75823 339.745 4.03109 351.201 7.42982 361.724C6.51504 362.835 7.82944 363.957 8.90189 364.439C10.2532 366.737 23.5492 369.072 27.6263 369.391Z" fill="white"/>
<path fill-rule="evenodd" clip-rule="evenodd" d="M116.628 135.076C117.517 131.077 123.88 132.792 122.79 136.775C121.101 142.934 117.599 148.754 112.655 152.839C108.836 155.992 103.633 158.806 98.4707 159.326C98.9546 159.798 99.4187 160.301 99.9059 160.781C101.005 161.874 102.174 162.888 103.379 163.863C105.854 165.864 108.428 167.664 111.239 169.172C122.468 175.196 135.151 176.585 147.692 175.183C153.644 174.518 159.684 173.389 165.28 171.213C167.874 170.206 170.395 168.882 172.621 167.211L173.203 166.773C174.373 165.89 175.935 164.643 176.666 163.28C174.441 163.78 171.627 161.41 170.083 160.031C168.394 158.517 166.972 156.565 165.922 154.563C163.865 150.637 162.775 145.571 164.5 141.36C164.615 141.08 164.984 141.127 165.017 141.43C165.527 146.338 166.85 150.939 170.373 154.574C171.936 156.183 173.809 157.533 175.853 158.471L176.141 158.603C177.012 159.006 177.929 159.478 178.296 160.34C178.438 160.324 178.579 160.337 178.714 160.374C178.835 160.406 178.947 160.443 179.056 160.482C178.812 160.005 178.684 159.442 178.707 158.777C178.793 156.199 182.332 156.121 182.822 158.415C182.733 158.112 182.614 158.405 182.838 158.497C182.835 158.471 182.829 158.441 182.822 158.415L182.828 158.439V158.439L182.842 158.497L182.838 158.497C182.847 158.539 182.855 158.582 182.859 158.626L182.864 158.683L182.861 158.635C182.858 158.599 182.854 158.568 182.849 158.539L182.842 158.497C182.874 158.513 182.921 158.524 182.973 158.524L182.995 158.532C183.077 158.568 183.368 158.703 183.454 158.738C184.043 158.955 184.701 159.024 185.304 159.211C186.611 159.613 187.763 160.278 188.56 161.41C189.132 162.224 189.451 163.155 189.583 164.123C195.367 166.904 200.841 170.518 205.427 174.992C215.661 184.972 222.797 197.465 228.653 210.395C231.633 216.978 234.289 223.7 236.887 230.441L237.297 231.505C240.082 238.75 242.544 246.074 243.15 253.863C243.206 254.56 242.975 255.215 242.577 255.759C242.718 256.345 242.791 256.93 242.771 257.503C242.768 257.592 242.762 257.681 242.755 257.77C243.69 257.753 244.605 258.145 245.474 259.245C245.826 259.133 246.208 259.119 246.583 259.241C248.871 259.972 249.239 262.484 249.671 264.587C250.115 266.76 250.309 268.985 250.313 271.2C250.313 271.994 249.858 272.994 249.088 273.333C247.64 273.972 246.08 274.39 244.582 274.969C243.456 275.404 242.327 275.815 241.188 276.2C241.82 277.303 242.024 278.837 242.366 279.999C242.903 281.813 243.334 283.633 243.696 285.49C246.152 298.114 247.854 310.872 250.151 323.523C251.3 329.859 252.637 336.153 253.999 342.447C254.671 345.541 255.385 348.628 256.152 351.703C256.561 353.342 256.985 354.982 257.423 356.611C257.55 357.087 257.679 357.562 257.809 358.036L258.038 358.866V358.866C258.539 359.143 258.967 359.561 259.263 360.133C260.346 362.227 259.724 364.587 257.647 365.766C255.388 367.049 252.693 365.838 251.448 363.754C250.573 362.283 250.286 360.334 249.855 358.698C249.368 356.861 248.904 355.015 248.456 353.168C245.415 340.622 243.378 327.857 241.843 315.043L241.734 314.128C240.954 307.531 240.2 300.918 239.713 294.292C239.473 291.036 239.282 287.781 239.163 284.518C239.104 282.84 239.2 281.151 239.295 279.475C239.338 278.742 239.4 278.004 239.423 277.27L239.431 277.166C239.437 277.091 239.445 276.994 239.452 276.891L239.46 276.767C237.188 277.478 234.884 278.07 232.557 278.57C227.606 279.64 222.54 280.236 217.487 279.933C218.192 288.301 219.11 296.648 220.394 304.94C221.632 312.926 223.06 320.895 224.673 328.816C225.48 332.795 226.352 336.765 227.27 340.722C227.764 342.835 228.327 344.935 228.772 347.059C229.035 348.322 229.117 349.379 228.587 350.561C229.171 352.15 229.689 353.747 230.199 355.251L230.351 355.699C231.253 358.333 232.965 361.025 231.178 363.613C230.253 364.949 228.745 365.713 227.228 365.759C227.201 365.775 227.172 365.795 227.142 365.811C226.326 366.249 225.384 366.335 224.489 366.147C223.129 366.414 221.767 366.671 220.4 366.905C217.026 367.487 213.636 367.967 210.239 368.373C203.771 369.143 197.259 369.564 190.752 369.798C166.926 370.657 143.074 369.149 119.239 369.584C107.095 369.804 94.9518 370.351 82.8283 371.075C76.7781 371.437 70.7246 371.826 64.671 372.125L62.7973 372.216C57.3836 372.475 51.9661 372.675 46.5565 372.28C46.4512 372.273 46.3689 372.23 46.3129 372.171C44.4465 371.961 42.5705 370.242 42.7578 368.257C43.5643 359.804 44.3708 351.351 45.1806 342.894C46.6191 327.828 48.0707 312.762 49.5388 297.698L49.751 295.524C50.2443 290.448 50.7152 285.361 50.9543 280.265C49.7495 280.18 48.5484 280.071 47.3465 279.939C34.3259 278.514 21.8436 274.576 9.85852 269.403L9.37292 269.192C8.29322 268.721 7.11148 268.25 5.90012 267.747C5.9202 270.048 5.84416 272.352 5.83429 274.63C5.81783 278.412 5.84745 282.195 5.85733 285.973C5.88037 293.762 6.17663 301.553 6.56505 309.329C7.24645 323.061 8.04634 336.775 9.25771 350.475C9.56384 353.922 9.97893 357.361 10.2716 360.808C10.4464 362.839 10.028 364.531 8.16847 365.598C7.25303 366.124 6.5453 365.904 5.63678 365.479C3.41814 364.439 3.3556 361.98 3.14493 359.84C2.98396 358.227 2.8355 356.615 2.69066 354.998C2.38157 351.552 2.11461 348.105 1.89735 344.652C1.03854 330.932 0.788033 317.225 1.38055 303.489C1.65564 297.064 2.05279 290.624 2.57988 284.211L2.70383 282.731C3.13834 277.606 3.41814 272.227 4.31679 267.069C0.692572 265.463 -2.89873 263.419 -4.56435 260.021C-6.72341 255.61 -4.35039 251.838 -0.969762 249.241C-1.00268 248.803 -0.969762 248.368 -0.877593 247.974C0.0934735 243.77 1.7196 239.616 3.28976 235.607C4.87309 231.577 6.62101 227.611 8.5434 223.73C16.2593 208.183 26.7994 193.976 39.3641 182.007C45.6052 176.062 52.4356 170.568 59.7268 165.959C63.3412 163.678 67.0477 161.571 70.8858 159.695L71.4533 159.419C74.1252 158.123 77.122 156.744 80.0932 156.022C80.4023 155.791 80.715 155.574 81.031 155.367C82.1996 154.59 83.7862 155.153 84.4775 156.262C84.8136 156.002 85.2017 155.772 85.6461 155.564L86.0853 155.364C88.7513 154.163 91.9525 153.041 94.8465 153.83C96.6438 154.32 98.0592 155.643 98.6949 157.329C100.153 156.558 101.585 155.765 102.984 154.794C105.232 153.24 107.27 151.311 109.1 149.287C112.77 145.215 115.436 140.445 116.628 135.076ZM243.983 263.454C243.733 263.527 243.47 263.553 243.197 263.52C243.69 263.578 242.701 263.87 242.43 264.01L242.41 264.021C241.916 264.304 241.419 264.577 240.915 264.84C239.74 265.459 238.539 266.015 237.318 266.539C234.911 267.563 232.426 268.349 229.875 268.925C227.38 269.488 224.763 269.817 222.205 269.87C220.493 269.903 218.462 269.824 216.691 269.32C216.896 272.424 217.123 275.525 217.376 278.623L220.874 277.821C224.371 277.018 227.866 276.196 231.317 275.196C233.907 274.446 236.462 273.567 238.986 272.619C240.31 272.121 241.623 271.595 242.92 271.029C243.566 270.747 244.171 270.412 244.769 270.072L245.28 269.781C245.162 268.396 244.945 267.036 244.629 265.667C244.464 264.942 244.184 264.199 243.983 263.454ZM4.48167 248.836C4.03729 250.278 3.35589 251.624 1.80219 251.95C1.25247 252.065 0.79195 252.003 0.409778 251.815L0.318137 252C-0.959329 254.622 -1.33449 257.389 1.60468 259.409C2.93159 260.321 4.37634 261.111 5.87079 261.818C8.54328 263.09 11.3894 264.112 14.0727 265.152L14.6071 265.361C19.4065 267.244 24.2815 268.959 29.2323 270.393C34.2559 271.845 39.3676 273.01 44.5426 273.751C46.7247 274.061 48.9236 274.278 51.1261 274.42C51.162 271.457 51.1455 268.491 51.1356 265.529C50.3522 265.429 49.5754 265.324 48.8252 265.235C46.5404 264.969 44.2625 264.643 41.9977 264.238C37.2675 263.392 32.5866 262.224 28.021 260.729C19.5612 257.954 11.6906 253.987 4.48167 248.836ZM97.2333 158.089C95.3109 156.055 91.634 156.789 89.3136 157.777C88.6122 158.076 87.9044 158.379 87.2329 158.744L87.1029 158.817C86.3208 159.267 86.3248 159.535 86.7066 160.433C87.2033 161.615 87.8946 162.757 88.5529 163.853C91.371 168.557 95.0805 172.652 99.3169 176.111C114.321 188.357 135.875 192.676 154.638 188.574C163.643 186.608 172.329 182.639 178.958 176.129L179.562 175.528C182.235 172.854 185.904 168.982 185.646 165.018C185.525 163.112 183.968 163.004 182.378 162.635C181.726 162.484 181.104 162.269 180.564 161.967C180.998 163.84 178.685 166.624 177.489 167.793C174.984 170.245 171.969 172.161 168.78 173.593C162.709 176.322 156.107 177.613 149.533 178.429C142.073 179.357 134.453 179.275 127.05 177.902C120.608 176.707 114.258 174.446 108.715 170.924C106.174 169.311 103.669 167.47 101.549 165.328L101.098 164.873C99.5677 163.322 97.7869 161.447 96.8712 159.413C96.5222 159.416 96.1766 159.406 95.831 159.383C95.5874 159.37 95.4561 159.024 95.6993 158.895C95.9725 158.751 96.2457 158.606 96.519 158.465C96.4732 158.313 96.4334 158.165 96.4005 158.014C96.3741 157.885 96.5091 157.767 96.6276 157.839C96.7922 157.938 96.9502 158.043 97.1049 158.155C97.1477 158.135 97.1905 158.112 97.2333 158.089Z" fill="#D9D9D9"/>
<path fill-rule="evenodd" clip-rule="evenodd" d="M140.775 9.77368C159.466 9.77368 178.798 24.2613 185.65 33.5063C191.41 41.279 194.511 76.4269 194.511 100.18C194.511 105.148 197.253 114.513 196.453 119.265C193.521 136.678 180.748 151.281 155.468 151.281C130.188 151.281 112.063 141.261 93.2725 114.357C84.1554 114.357 79.737 107.365 79.6728 96.3316C79.6086 85.2981 88.4731 81.2838 88.4731 81.2838C88.4731 81.2838 85.3125 37.7408 93.2725 26.4043C101.233 15.0677 122.085 9.77368 140.775 9.77368Z" fill="white"/>
<path fill-rule="evenodd" clip-rule="evenodd" d="M132.91 3.61681C144.711 2.4219 156.275 3.42589 167.904 5.50331C168.793 5.66428 169.297 6.24725 169.484 6.94806C174.962 7.19823 180.446 7.60016 185.917 7.89971C187.902 8.00833 189.027 9.96989 188.122 11.7412C187.941 12.0931 187.753 12.4354 187.562 12.7777L187.802 12.6987C189.448 12.1707 191.226 11.9104 192.829 12.7485C194.87 13.815 195.67 16.1683 195.219 18.3342C195.104 18.8872 194.91 19.4172 194.689 19.9343C195.137 19.9047 195.588 19.9146 196.036 19.9738C198.419 20.2899 200.19 22.1168 200.315 24.5494C200.499 28.2226 198.133 31.9492 195.344 34.579C195.749 35.4122 195.904 36.3931 195.736 37.3872C195.4 39.3524 193.952 40.5292 192.274 41.2968C192.974 43.5191 193.305 45.8424 193.11 48.2167C193.045 49.0094 192.351 49.6641 191.62 49.8247C194.347 57.3345 195.728 65.3974 196.72 73.2538C197.428 78.8435 197.777 84.4658 197.82 90.0977C197.84 92.6404 197.798 95.1859 197.692 97.729L197.649 98.6825C197.517 101.431 197.51 104.318 197.017 107.037C198.702 109.904 199.38 113.463 199.667 116.675C200.022 120.652 199.459 124.753 198.205 128.536C193.471 142.828 179.185 151.848 164.836 154.192C151.554 156.361 136.185 153.441 128.423 141.377C128.301 141.186 128.561 141.028 128.713 141.153C134.266 145.669 140.708 147.684 147.706 148.664C159.807 150.357 173.408 147.486 183.119 139.876C187.78 136.222 191.141 130.903 192.619 125.178C193.373 122.252 193.633 119.2 193.336 116.188C193.033 113.134 191.681 110.527 190.828 107.64C190.542 106.665 190.845 105.76 191.44 105.115C191.608 102.771 192.003 100.407 192.154 98.0706C192.322 95.4138 192.425 92.7574 192.461 90.0977C192.53 84.5807 192.3 79.0538 191.835 73.5602C190.986 63.5003 188.731 53.6847 187.408 43.7103C186.918 44.1498 186.216 44.3302 185.48 43.9463L185.403 43.9045L185.002 43.6744C184.979 43.6744 184.952 43.6777 184.929 43.6807C182.181 43.9477 179.33 43.5658 176.697 42.7458C173.941 41.8903 171.384 40.5736 169.099 38.8191C168.665 41.021 168.483 43.2462 168.48 45.4912C168.477 46.8934 166.993 47.6213 165.814 47.0222C160.59 44.3687 155.6 41.311 150.863 37.8744C150.31 40.7086 149.757 43.5424 149.2 46.3799C148.987 47.4731 147.594 47.9142 146.702 47.3941C143.154 45.3299 140.089 42.6277 137.594 39.4146C137.096 40.3672 136.596 41.3197 136.093 42.2701L135.336 43.6939C134.589 45.0929 133.588 46.6403 131.952 47.0877C130.22 47.5617 128.775 46.4395 128.193 44.8723C128.015 44.3855 127.85 43.8848 127.699 43.3811C126.224 46.7489 124.559 50.0407 122.676 53.181C119.851 57.8912 116.461 62.0882 113.08 66.3938C112.053 67.7009 110.296 66.453 110.154 65.1827C110.072 64.4355 110.003 63.685 109.943 62.9374C107.973 66.9126 105.918 70.8505 103.678 74.6742L103.999 75.9306V75.9306C104.923 79.6431 105.69 83.3818 106.524 87.114C106.794 88.3181 106.154 90.0397 104.747 90.2448C103.066 90.4897 101.476 91.3485 99.7544 90.7577C97.8771 90.1131 97.5061 88.4906 96.62 86.9527C96.4432 86.6463 96.2374 86.3648 96.0162 86.0975L95.96 86.1706V86.1706C95.8217 86.352 95.4925 86.1545 95.5748 85.9471L95.6713 85.7075V85.7075C94.9099 84.8993 93.9987 84.2252 93.161 83.5C91.1701 83.1646 88.9308 83.5319 87.5591 84.3407C84.4352 86.1838 83.0003 89.9824 82.9707 93.4753C82.9345 97.5637 84.2015 102.159 86.3411 105.655C87.2829 107.192 88.5733 108.581 90.2781 109.263C91.9704 109.94 93.8039 109.73 95.5254 110.368C96.6644 110.793 97.3655 112.057 96.6776 113.202C96.6315 113.282 96.5788 113.354 96.5291 113.43L97.0411 114.109C97.3933 114.58 97.7605 115.084 98.1029 115.609C98.9785 116.616 99.9002 117.587 100.792 118.578C102.441 120.405 104.041 122.281 105.664 124.134C107.195 125.883 108.814 127.525 110.483 129.141C112.06 130.672 114.028 131.959 115.477 133.592C116.885 135.185 117.267 137.966 114.95 138.888C112.386 139.911 110.116 137.514 108.39 135.917L108.317 135.85C105.153 132.938 102.296 129.611 100.027 125.947C97.7793 127.477 94.5284 127.624 92.2903 126.094C91.1125 125.289 90.2089 123.937 89.7698 122.465C89.3557 122.558 88.9419 122.612 88.5384 122.606C88.3307 122.726 88.1223 122.844 87.9116 122.953C86.2424 123.822 84.1919 123.434 83.4283 121.587C82.7328 119.91 83.4494 118.006 84.0758 116.39L84.2051 116.056C84.5606 115.135 84.9523 114.131 85.4395 113.186C84.0833 112.166 82.9243 110.898 81.9437 109.457C78.6486 104.601 77.0028 97.5008 77.7302 91.7077C78.168 88.2118 79.8103 84.5909 82.4997 82.2337L82.4012 81.9769V81.9769C81.6474 80.0647 80.9624 78.1453 80.5184 76.1245C79.9983 73.761 79.7445 71.312 79.5144 68.9057C79.0272 63.8232 79.1589 58.6256 79.8073 53.5629C81.0253 44.0332 84.1129 34.6781 89.5937 26.7483C88.0397 24.8881 86.8089 22.6991 87.4505 20.1812C87.7437 19.0255 88.4116 17.9297 89.4192 17.2677C89.9752 16.9026 90.6372 16.8467 91.1935 16.5438L91.3608 16.4517C91.6051 16.3091 91.4182 16.3243 91.2725 15.6617C90.6964 13.0148 91.1738 10.4574 94.0869 9.5785C96.829 8.75227 99.4229 10.5068 101.046 12.597C105.292 9.58475 110.888 8.00833 115.809 6.66859C121.405 5.15077 127.146 4.20307 132.91 3.61681ZM87.0425 92.3954C87.0224 90.2393 89.0666 88.9094 91.0782 89.262C92.4289 89.497 93.5557 90.3032 94.6137 91.1364L95.1296 91.5445C96.418 92.556 97.8972 93.6465 98.6653 95.0785C99.7911 97.1918 97.4115 100.036 95.1896 98.5543C93.6654 97.5328 92.6884 95.8962 91.6886 94.3759L91.5851 94.219C91.1308 93.5376 90.7325 92.8134 90.1101 92.267L89.9756 92.1493C89.771 91.9749 89.5513 91.8157 89.2871 91.7403C88.7774 91.5938 87.8334 91.799 87.6086 92.4058L87.5886 92.4678C87.5063 92.7743 87.0458 92.7081 87.0425 92.3954Z" fill="#D9D9D9"/>
<path d="M133.951 161.844C132.404 161.909 131.212 161.476 130.375 160.546C129.521 159.521 128.999 158.441 128.808 157.305C128.777 157.116 128.713 156.737 128.618 156.169C128.617 155.585 128.648 154.898 128.71 154.109C128.615 153.541 128.748 152.594 129.109 151.268C129.47 149.942 129.839 148.371 130.216 146.555C130.94 144.487 132.191 142.087 133.972 139.354C135.752 136.622 137.304 134.56 138.628 133.17C139.369 132.364 139.913 131.835 140.259 131.582C140.59 131.234 140.756 131.06 140.756 131.06C140.692 130.682 141.236 129.86 142.387 128.597C143.521 127.238 144.53 126.29 145.413 125.752C145.413 125.752 145.957 125.223 147.045 124.164C148.133 123.105 148.952 122.189 149.504 121.415C151.316 118.872 152.591 116.613 153.331 114.64C154.054 112.571 154.501 110.306 154.672 107.844C154.843 105.382 154.965 102.343 155.04 98.7292C154.578 95.3997 154.205 93.1748 153.919 92.0546C153.713 90.8239 152.97 89.8778 151.691 89.2165C149.528 88.5088 147.05 88.8274 144.258 90.1722C141.545 91.4065 139.007 93.3902 136.643 96.1233C134.357 98.7459 132.775 101.786 131.895 105.243C131.597 106.948 131.449 108.092 131.449 108.676C131.545 109.244 131.814 109.978 132.257 110.877C132.384 111.635 132.598 112.329 132.899 112.96C133.294 113.575 133.531 114.119 133.611 114.592C133.248 114.75 132.546 114.917 131.504 115.092C130.558 115.251 129.556 115.37 128.498 115.451C127.441 115.531 126.557 115.484 125.847 115.312C125.847 115.312 125.61 115.059 125.136 114.555C124.661 114.05 124.298 113.625 124.045 113.278C123.35 112.616 122.947 111.953 122.835 111.291C122.803 110.517 122.667 109.421 122.429 108.001C122.774 105.996 123.331 103.809 124.102 101.441C124.857 98.9781 125.966 96.6016 127.431 94.3114C128.897 92.0212 130.709 90.0621 132.869 88.4339C134.715 87.2481 136.244 86.2125 137.458 85.3273C138.751 84.3314 139.398 83.8335 139.398 83.8335C139.398 83.8335 139.729 83.7779 140.392 83.6666C141.133 83.4448 142.34 83.0961 144.013 82.6207C144.597 82.62 145.212 82.5167 145.859 82.3107C146.6 82.0889 147.011 82.2147 147.09 82.688C147.374 82.6404 147.942 82.545 148.794 82.4019C149.647 82.2589 150.451 82.1238 151.209 81.9966C152.392 82.0899 153.655 82.3646 154.997 82.8207C156.324 83.1821 157.571 83.6541 158.739 84.2367C159.987 84.7086 161.005 85.2677 161.795 85.9138C162.808 87.8854 163.529 90.4413 163.959 93.5815C164.373 96.627 164.44 99.9254 164.16 103.477C163.88 107.028 163.292 110.485 162.397 113.848C161.58 117.1 160.4 119.926 158.856 122.327C158.383 122.991 157.501 124.112 156.208 125.692C154.916 127.272 153.553 129.009 152.119 130.905C150.764 132.69 149.661 134.238 148.81 135.549C145.893 137.888 143.506 141.063 141.649 145.074C139.791 149.085 138.533 152.898 137.874 156.513C137.214 158.96 136.727 160.405 136.412 160.847C136.097 161.289 135.276 161.622 133.951 161.844ZM134.29 188.216C132.602 189.181 131.143 189.766 129.913 189.973C128.761 190.069 127.387 189.716 125.792 188.913C123.707 187.51 122.806 185.91 123.088 184.11C123.448 182.2 124.716 180.186 126.892 178.069C128.421 176.741 129.557 175.967 130.298 175.745C131.134 175.507 132.468 175.624 134.299 176.095C137.442 177.417 139.006 179.199 138.993 181.44C139.075 183.665 137.507 185.924 134.29 188.216Z" fill="black"/>
</g>
<defs>
<clipPath id="clip0_526_686">
<rect width="250" height="250" fill="white"/>
</clipPath>
</defs>
</svg>
