<svg width="250" height="250" viewBox="0 0 250 250" fill="none" xmlns="http://www.w3.org/2000/svg">
<g clip-path="url(#clip0_524_884)">
<path fill-rule="evenodd" clip-rule="evenodd" d="M27.6263 369.391C31.5669 369.634 35.5073 369.827 39.4473 369.973C90.9733 371.893 142.457 366.019 193.952 364.734C211.884 364.262 229.725 364.498 247.611 365.938C249.364 366.079 251.368 364.193 251.152 362.396C247.848 333.872 243.714 305.423 241.571 276.782C241.569 275.267 241.765 273.755 242.286 272.327C242.384 272.215 242.893 270.961 243.345 270.883C243.197 270.992 243.867 270.8 243.441 270.833C246.027 270.409 248.563 267.618 246.686 264.947C227.353 235.315 200.962 208.27 192.471 173.076C190.465 163.561 183.219 162.972 175.5 159.047C173.092 157.615 167.203 153.647 166.244 150.888C163.955 140.946 167.987 131.206 156.208 127.183C148.432 125.028 134.688 123.204 126.821 125.477C117.224 128.671 117.942 139.486 112.375 146.926C109.496 151.23 104.588 157.122 100.056 157.782C97.8594 158.101 96.2415 153.658 94.0483 153.964C59.8621 162.267 13.2858 218.906 -1.40722 250.26C-4.71839 260.128 5.96028 257.151 5.30424 267.069C4.49545 285.885 2.72656 309.973 3.77565 328.811C4.75823 339.745 4.03109 351.201 7.42982 361.724C6.51504 362.835 7.82944 363.957 8.90189 364.439C10.2532 366.737 23.5492 369.072 27.6263 369.391Z" fill="white"/>
<path fill-rule="evenodd" clip-rule="evenodd" d="M116.628 135.076C117.517 131.077 123.88 132.792 122.79 136.775C121.101 142.934 117.599 148.754 112.655 152.839C108.836 155.992 103.633 158.806 98.4707 159.327C98.9546 159.798 99.4187 160.301 99.9059 160.782C101.005 161.874 102.174 162.888 103.379 163.863C105.854 165.864 108.428 167.665 111.239 169.172C122.468 175.196 135.151 176.586 147.692 175.183C153.644 174.518 159.684 173.389 165.28 171.213C167.874 170.206 170.395 168.883 172.621 167.211L173.203 166.773C174.373 165.89 175.935 164.643 176.666 163.28C174.441 163.78 171.627 161.41 170.083 160.031C168.394 158.517 166.972 156.565 165.922 154.563C163.865 150.637 162.775 145.571 164.5 141.36C164.615 141.08 164.984 141.127 165.017 141.43C165.527 146.338 166.85 150.94 170.373 154.574C171.936 156.183 173.809 157.533 175.853 158.471L176.141 158.603C177.012 159.006 177.929 159.478 178.296 160.34C178.438 160.324 178.579 160.337 178.714 160.374C178.835 160.406 178.947 160.443 179.056 160.482C178.812 160.005 178.684 159.442 178.707 158.777C178.793 156.199 182.332 156.121 182.822 158.415C182.733 158.112 182.614 158.405 182.838 158.497C182.835 158.471 182.829 158.441 182.822 158.415L182.828 158.439V158.439L182.842 158.497L182.838 158.497C182.847 158.539 182.855 158.582 182.859 158.626L182.864 158.683L182.861 158.635C182.858 158.6 182.854 158.568 182.849 158.539L182.842 158.497C182.874 158.514 182.921 158.524 182.973 158.524L182.995 158.532C183.077 158.568 183.368 158.703 183.454 158.738C184.043 158.955 184.701 159.024 185.304 159.211C186.611 159.613 187.763 160.278 188.56 161.41C189.132 162.224 189.451 163.155 189.583 164.123C195.367 166.905 200.841 170.519 205.427 174.992C215.661 184.973 222.797 197.465 228.653 210.395C231.633 216.978 234.289 223.7 236.887 230.441L237.297 231.505C240.082 238.75 242.544 246.074 243.15 253.863C243.206 254.561 242.975 255.216 242.577 255.759C242.718 256.345 242.791 256.931 242.771 257.503C242.768 257.592 242.762 257.681 242.755 257.77C243.69 257.754 244.605 258.145 245.474 259.245C245.826 259.133 246.208 259.119 246.583 259.241C248.871 259.972 249.239 262.484 249.671 264.587C250.115 266.76 250.309 268.985 250.313 271.2C250.313 271.994 249.858 272.994 249.088 273.333C247.64 273.972 246.08 274.39 244.582 274.969C243.456 275.404 242.327 275.815 241.188 276.201C241.82 277.303 242.024 278.837 242.366 279.999C242.903 281.813 243.334 283.633 243.696 285.49C246.152 298.114 247.854 310.873 250.151 323.523C251.3 329.859 252.637 336.153 253.999 342.447C254.671 345.541 255.385 348.629 256.152 351.703C256.561 353.342 256.985 354.982 257.423 356.611C257.55 357.087 257.679 357.562 257.809 358.036L258.038 358.866V358.866C258.539 359.143 258.967 359.561 259.263 360.133C260.346 362.227 259.724 364.587 257.647 365.766C255.388 367.05 252.693 365.838 251.448 363.754C250.573 362.283 250.286 360.334 249.855 358.698C249.368 356.862 248.904 355.015 248.456 353.168C245.415 340.623 243.378 327.857 241.843 315.043L241.734 314.128C240.954 307.531 240.2 300.918 239.713 294.292C239.473 291.036 239.282 287.781 239.163 284.518C239.104 282.84 239.2 281.151 239.295 279.475C239.338 278.742 239.4 278.004 239.423 277.27L239.431 277.166C239.437 277.091 239.445 276.994 239.452 276.891L239.46 276.767C237.188 277.478 234.884 278.07 232.557 278.57C227.606 279.64 222.54 280.236 217.487 279.933C218.192 288.301 219.11 296.649 220.394 304.94C221.632 312.927 223.06 320.896 224.673 328.816C225.48 332.796 226.352 336.765 227.27 340.722C227.764 342.835 228.327 344.935 228.772 347.059C229.035 348.322 229.117 349.379 228.587 350.561C229.171 352.15 229.689 353.747 230.199 355.251L230.351 355.7C231.253 358.333 232.965 361.025 231.178 363.613C230.253 364.949 228.745 365.713 227.228 365.759C227.201 365.775 227.172 365.795 227.142 365.811C226.326 366.249 225.384 366.335 224.489 366.148C223.129 366.414 221.767 366.671 220.4 366.905C217.026 367.487 213.636 367.968 210.239 368.373C203.771 369.143 197.259 369.564 190.752 369.798C166.926 370.657 143.074 369.149 119.239 369.584C107.095 369.804 94.9518 370.351 82.8283 371.075C76.7781 371.437 70.7246 371.826 64.671 372.125L62.7973 372.217C57.3836 372.475 51.9661 372.676 46.5565 372.28C46.4512 372.273 46.3689 372.23 46.3129 372.172C44.4465 371.961 42.5705 370.242 42.7578 368.258C43.5643 359.804 44.3708 351.351 45.1806 342.894C46.6191 327.828 48.0707 312.762 49.5388 297.699L49.751 295.524C50.2443 290.448 50.7152 285.361 50.9543 280.266C49.7495 280.18 48.5484 280.072 47.3465 279.94C34.3259 278.514 21.8436 274.576 9.85852 269.403L9.37292 269.192C8.29322 268.721 7.11148 268.251 5.90012 267.747C5.9202 270.048 5.84416 272.352 5.83429 274.63C5.81783 278.413 5.84745 282.195 5.85733 285.973C5.88037 293.762 6.17663 301.553 6.56505 309.329C7.24645 323.062 8.04634 336.775 9.25771 350.475C9.56384 353.922 9.97893 357.362 10.2716 360.808C10.4464 362.839 10.028 364.531 8.16847 365.598C7.25303 366.125 6.5453 365.904 5.63678 365.479C3.41814 364.439 3.3556 361.98 3.14493 359.841C2.98396 358.227 2.8355 356.615 2.69066 354.998C2.38157 351.552 2.11461 348.105 1.89735 344.652C1.03854 330.932 0.788033 317.226 1.38055 303.489C1.65564 297.064 2.05279 290.625 2.57988 284.211L2.70383 282.731C3.13834 277.606 3.41814 272.227 4.31679 267.069C0.692572 265.463 -2.89873 263.419 -4.56435 260.021C-6.72341 255.61 -4.35039 251.838 -0.969762 249.241C-1.00268 248.803 -0.969762 248.368 -0.877593 247.974C0.0934735 243.77 1.7196 239.616 3.28976 235.607C4.87309 231.577 6.62101 227.611 8.5434 223.73C16.2593 208.183 26.7994 193.976 39.3641 182.007C45.6052 176.062 52.4356 170.568 59.7268 165.959C63.3412 163.679 67.0477 161.572 70.8858 159.696L71.4533 159.419C74.1252 158.123 77.122 156.744 80.0932 156.022C80.4023 155.792 80.715 155.574 81.031 155.367C82.1996 154.59 83.7862 155.153 84.4775 156.262C84.8136 156.002 85.2017 155.772 85.6461 155.564L86.0853 155.364C88.7513 154.163 91.9525 153.041 94.8465 153.83C96.6438 154.32 98.0592 155.643 98.6949 157.329C100.153 156.559 101.585 155.765 102.984 154.794C105.232 153.24 107.27 151.311 109.1 149.287C112.77 145.215 115.436 140.445 116.628 135.076ZM243.983 263.454C243.733 263.527 243.47 263.553 243.197 263.52C243.69 263.578 242.701 263.87 242.43 264.01L242.41 264.021C241.916 264.304 241.419 264.577 240.915 264.841C239.74 265.459 238.539 266.015 237.318 266.539C234.911 267.563 232.426 268.35 229.875 268.926C227.38 269.488 224.763 269.817 222.205 269.87C220.493 269.903 218.462 269.824 216.691 269.32C216.896 272.424 217.123 275.525 217.376 278.623L220.874 277.821C224.371 277.018 227.866 276.196 231.317 275.196C233.907 274.446 236.462 273.567 238.986 272.619C240.31 272.122 241.623 271.595 242.92 271.029C243.566 270.747 244.171 270.412 244.769 270.072L245.28 269.781C245.162 268.396 244.945 267.036 244.629 265.667C244.464 264.943 244.184 264.199 243.983 263.454ZM4.48167 248.836C4.03729 250.278 3.35589 251.624 1.80219 251.95C1.25247 252.065 0.79195 252.003 0.409778 251.815L0.318137 252C-0.959329 254.622 -1.33449 257.39 1.60468 259.409C2.93159 260.321 4.37634 261.111 5.87079 261.819C8.54328 263.09 11.3894 264.113 14.0727 265.152L14.6071 265.361C19.4065 267.244 24.2815 268.959 29.2323 270.394C34.2559 271.845 39.3676 273.01 44.5426 273.751C46.7247 274.061 48.9236 274.278 51.1261 274.42C51.162 271.457 51.1455 268.491 51.1356 265.529C50.3522 265.43 49.5754 265.325 48.8252 265.235C46.5404 264.969 44.2625 264.643 41.9977 264.238C37.2675 263.392 32.5866 262.224 28.021 260.729C19.5612 257.954 11.6906 253.987 4.48167 248.836ZM97.2333 158.089C95.3109 156.055 91.634 156.789 89.3136 157.777C88.6122 158.076 87.9044 158.379 87.2329 158.744L87.1029 158.817C86.3208 159.268 86.3248 159.535 86.7066 160.433C87.2033 161.615 87.8946 162.757 88.5529 163.853C91.371 168.557 95.0805 172.652 99.3169 176.111C114.321 188.357 135.875 192.676 154.638 188.574C163.643 186.608 172.329 182.639 178.958 176.129L179.562 175.528C182.235 172.854 185.904 168.982 185.646 165.019C185.525 163.112 183.968 163.004 182.378 162.635C181.726 162.484 181.104 162.27 180.564 161.967C180.998 163.84 178.685 166.625 177.489 167.793C174.984 170.246 171.969 172.161 168.78 173.594C162.709 176.322 156.107 177.613 149.533 178.429C142.073 179.357 134.453 179.275 127.05 177.902C120.608 176.708 114.258 174.446 108.715 170.924C106.174 169.311 103.669 167.471 101.549 165.328L101.098 164.873C99.5677 163.322 97.7869 161.448 96.8712 159.413C96.5222 159.416 96.1766 159.406 95.831 159.383C95.5874 159.37 95.4561 159.024 95.6993 158.896C95.9725 158.751 96.2457 158.606 96.519 158.465C96.4732 158.313 96.4334 158.165 96.4005 158.014C96.3741 157.885 96.5091 157.767 96.6276 157.839C96.7922 157.938 96.9502 158.043 97.1049 158.155C97.1477 158.135 97.1905 158.112 97.2333 158.089Z" fill="black"/>
<path fill-rule="evenodd" clip-rule="evenodd" d="M140.775 9.77344C159.466 9.77344 178.798 24.2611 185.65 33.506C191.41 41.2788 194.511 76.4266 194.511 100.18C194.511 105.148 197.253 114.512 196.453 119.264C193.521 136.677 180.748 151.281 155.468 151.281C130.188 151.281 112.063 141.261 93.2725 114.357C84.1554 114.357 79.737 107.365 79.6728 96.3314C79.6086 85.2979 88.4731 81.2835 88.4731 81.2835C88.4731 81.2835 85.3125 37.7405 93.2725 26.404C101.233 15.0675 122.085 9.77344 140.775 9.77344Z" fill="white"/>
<path fill-rule="evenodd" clip-rule="evenodd" d="M132.91 3.61669C144.711 2.42178 156.275 3.42577 167.905 5.50319C168.793 5.66416 169.297 6.24712 169.484 6.94794C174.962 7.19811 180.446 7.60003 185.917 7.89958C187.902 8.00821 189.028 9.96976 188.122 11.7411C187.942 12.0929 187.754 12.4353 187.563 12.7776L187.803 12.6986C189.448 12.1706 191.226 11.9103 192.829 12.7483C194.87 13.8149 195.671 16.1681 195.22 18.3341C195.104 18.8871 194.91 19.4171 194.69 19.9342C195.137 19.9046 195.588 19.9145 196.036 19.9737C198.419 20.2897 200.19 22.1167 200.315 24.5493C200.5 28.2225 198.133 31.9491 195.345 34.5789C195.749 35.412 195.904 36.393 195.736 37.3871C195.4 39.3523 193.953 40.5291 192.274 41.2967C192.974 43.519 193.305 45.8423 193.11 48.2166C193.045 49.0093 192.352 49.664 191.62 49.8246C194.347 57.3344 195.728 65.3972 196.721 73.2537C197.428 78.8434 197.777 84.4657 197.82 90.0975C197.841 92.6402 197.799 95.1858 197.692 97.7289L197.649 98.6824C197.517 101.431 197.511 104.318 197.017 107.037C198.702 109.904 199.38 113.463 199.667 116.675C200.022 120.652 199.459 124.753 198.205 128.536C193.471 142.828 179.186 151.847 164.836 154.192C151.555 156.361 136.185 153.441 128.423 141.376C128.302 141.186 128.562 141.028 128.713 141.153C134.266 145.669 140.708 147.683 147.707 148.664C159.807 150.357 173.408 147.486 183.119 139.876C187.78 136.222 191.141 130.902 192.619 125.178C193.373 122.252 193.633 119.2 193.336 116.188C193.034 113.134 191.681 110.526 190.828 107.64C190.542 106.665 190.845 105.76 191.441 105.115C191.608 102.771 192.004 100.407 192.155 98.0705C192.323 95.4137 192.425 92.7573 192.461 90.0975C192.53 84.5806 192.3 79.0537 191.836 73.5601C190.986 63.5002 188.732 53.6845 187.408 43.7102C186.918 44.1496 186.216 44.3301 185.48 43.9462L185.404 43.9044L185.002 43.6743C184.979 43.6743 184.953 43.6776 184.929 43.6806C182.181 43.9475 179.33 43.5657 176.697 42.7457C173.941 41.8902 171.384 40.5735 169.099 38.819C168.665 41.0208 168.484 43.2461 168.481 45.491C168.477 46.8933 166.993 47.6211 165.814 47.022C160.59 44.3686 155.6 41.3108 150.863 37.8743C150.31 40.7085 149.757 43.5423 149.201 46.3798C148.987 47.473 147.594 47.9141 146.702 47.394C143.154 45.3297 140.089 42.6275 137.594 39.4145C137.096 40.3671 136.596 41.3196 136.093 42.27L135.336 43.6937C134.589 45.0927 133.588 46.6402 131.952 47.0875C130.221 47.5615 128.775 46.4394 128.193 44.8722C128.015 44.3853 127.851 43.8847 127.699 43.381C126.224 46.7488 124.559 50.0406 122.676 53.1809C119.852 57.8911 116.461 62.088 113.081 66.3937C112.054 67.7008 110.296 66.4529 110.154 65.1826C110.072 64.4354 110.003 63.6849 109.943 62.9373C107.973 66.9124 105.918 70.8504 103.679 74.674L103.999 75.9305V75.9305C104.923 79.6429 105.691 83.3817 106.525 87.1139C106.794 88.318 106.154 90.0396 104.747 90.2447C103.066 90.4896 101.476 91.3484 99.7546 90.7575C97.8773 90.113 97.5063 88.4905 96.6202 86.9526C96.4434 86.6461 96.2377 86.3647 96.0165 86.0974L95.9602 86.1705V86.1705C95.8219 86.3519 95.4928 86.1544 95.5751 85.947L95.6715 85.7073V85.7073C94.9101 84.8992 93.999 84.2251 93.1612 83.4999C91.1704 83.1645 88.931 83.5318 87.5593 84.3406C84.4355 86.1837 83.0006 89.9823 82.971 93.4752C82.9347 97.5636 84.2017 102.159 86.3414 105.655C87.2831 107.192 88.5735 108.581 90.2783 109.262C91.9706 109.94 93.8041 109.73 95.5257 110.368C96.6646 110.793 97.3658 112.057 96.6778 113.202C96.6317 113.282 96.579 113.354 96.5293 113.43L97.0414 114.109C97.3936 114.58 97.7608 115.084 98.1031 115.609C98.9787 116.616 99.9004 117.587 100.792 118.578C102.441 120.405 104.041 122.281 105.664 124.134C107.195 125.882 108.814 127.525 110.483 129.141C112.06 130.672 114.029 131.959 115.477 133.592C116.886 135.185 117.268 137.966 114.95 138.888C112.386 139.911 110.116 137.514 108.39 135.917L108.317 135.85C105.153 132.938 102.296 129.611 100.027 125.947C97.7796 127.477 94.5286 127.623 92.2906 126.094C91.1128 125.289 90.2092 123.936 89.7701 122.465C89.356 122.558 88.9422 122.612 88.5386 122.606C88.3309 122.726 88.1225 122.844 87.9119 122.953C86.2426 123.822 84.1922 123.433 83.4285 121.586C82.7331 119.91 83.4497 118.006 84.0761 116.39L84.2054 116.056C84.5609 115.135 84.9526 114.131 85.4398 113.186C84.0836 112.166 82.9245 110.898 81.9439 109.457C78.6489 104.601 77.003 97.5007 77.7305 91.7075C78.1683 88.2117 79.8105 84.5908 82.4999 82.2336L82.4015 81.9768V81.9768C81.6477 80.0646 80.9627 78.1452 80.5186 76.1244C79.9985 73.7609 79.7447 71.3119 79.5146 68.9056C79.0274 63.8231 79.1591 58.6255 79.8076 53.5627C81.0255 44.0331 84.1132 34.678 89.594 26.7481C88.0399 24.888 86.8091 22.699 87.4507 20.1811C87.744 19.0254 88.4119 17.9295 89.4195 17.2676C89.9755 16.9025 90.6374 16.8466 91.1937 16.5437L91.361 16.4516C91.6054 16.309 91.4185 16.3241 91.2727 15.6615C90.6967 13.0146 91.174 10.4573 94.0872 9.57838C96.8292 8.75215 99.4231 10.5066 101.046 12.5969C105.292 9.58463 110.888 8.00821 115.809 6.66847C121.405 5.15064 127.146 4.20295 132.91 3.61669ZM87.0431 92.3953C87.023 90.2392 89.0672 88.9093 91.0788 89.2619C92.4295 89.4969 93.5563 90.303 94.6144 91.1362L95.1303 91.5444C96.4187 92.5559 97.8979 93.6464 98.666 95.0784C99.7917 97.1917 97.4121 100.035 95.1902 98.5541C93.666 97.5327 92.689 95.8961 91.6893 94.3757L91.5857 94.2189C91.1315 93.5375 90.7332 92.8133 90.1107 92.2669L89.9762 92.1491C89.7717 91.9748 89.552 91.8156 89.2878 91.7402C88.7781 91.5937 87.834 91.7989 87.6093 92.4057L87.5892 92.4677C87.5069 92.7742 87.0464 92.708 87.0431 92.3953Z" fill="black"/>
</g>
<defs>
<clipPath id="clip0_524_884">
<rect width="250" height="250" fill="white"/>
</clipPath>
</defs>
</svg>
