<svg width="250" height="250" viewBox="0 0 250 250" fill="none" xmlns="http://www.w3.org/2000/svg">
<g clip-path="url(#clip0_527_839)">
<path fill-rule="evenodd" clip-rule="evenodd" d="M283.883 176.95C279.814 177.349 275.744 177.748 271.674 178.148C252.184 179.637 232.701 182.747 213.359 184.613C212.878 183.83 211.935 183.959 211.363 184.503C209.433 184.334 207.27 182.859 205.522 184.394C205.465 184.386 205.408 184.376 205.351 184.371C202.238 178.396 200.086 172.024 197.998 165.643C196.665 161.72 194.872 157.923 191.558 155.289C185.903 151.363 172.944 143.402 166.303 143.736C166.193 142.547 165.639 141.322 164.729 140.53C166.735 137.11 158.714 134.879 158.149 135.276C158.511 123.851 153.137 113.929 141.287 111.653C130.67 109.441 115.57 109.07 109.86 120.164C109.233 120.094 102.817 120.06 102.196 120.13C101.231 118.907 90.6322 130.49 94.9763 134.523C56.1386 151.703 34.0555 149.653 23.3058 197.952C21.8525 202.489 21.7467 207.454 20.2121 211.89C14.7526 224.638 10.3243 238.213 9.22228 252.085C6.56055 252.767 6.25443 257.46 9.33754 258.139C10.5152 258.398 11.5 258.753 12.3587 259.425C11.6875 270.793 14.4368 296.76 16.169 296.68C19.7012 307.921 35.4564 311.094 46.6106 307.144C44.6878 310.761 46.6106 313.036 46.6106 314.969C86.7464 316.487 130.631 315.612 170.755 317.695C175.888 317.622 181.286 318.956 186.349 318.188C189.436 317.448 189.441 312.593 186.31 311.993L199.993 309.021C199.687 308.906 205.634 304.951 210.128 297.56C214.311 289.292 211.464 279.312 213.359 270.318C228.164 269.108 243.213 268.59 257.855 266.083C259.851 272.056 268.493 264.912 271.24 262.039C271.237 262.034 271.234 262.03 271.23 262.025C272.56 261.662 273.626 260.416 273.661 258.941C274.594 257.608 274.789 255.731 273.895 254.443C277.993 230.798 284.24 206.655 286.498 182.787C287.297 182.61 288.048 182.26 288.686 181.721L288.634 181.669C289.714 180.465 289.924 178.387 288.124 177.364C286.672 176.538 285.459 176.795 283.883 176.95Z" fill="white"/>
<path fill-rule="evenodd" clip-rule="evenodd" d="M110.601 117.587C111.81 114.548 115.898 115.73 115.442 118.922C115.17 120.834 114.122 122.854 113.181 124.53C112.415 125.895 111.542 127.226 110.357 128.249C112.466 130.216 114.655 132.112 116.9 133.912C119.349 135.876 121.924 137.686 124.587 139.35C126.921 140.81 129.361 142.102 131.561 143.767C133.607 145.315 135.471 147.177 136.42 149.607C137.43 152.195 136.991 154.867 136.247 157.454L136.162 157.746C135.401 160.308 134.086 163.397 135.91 165.811C136.839 167.04 138.189 167.91 139.355 168.892C140.391 169.766 141.364 170.715 142.256 171.735C144.201 173.959 145.783 176.461 146.782 179.249L146.871 179.502C147.727 181.97 148.352 184.993 147.196 187.416C146.864 188.111 145.794 187.885 145.608 187.209C145.188 185.677 145.21 184.072 144.858 182.518C144.491 180.902 143.882 179.368 143.085 177.917C141.544 175.11 139.456 172.712 136.99 170.684L136.252 170.084C134.328 168.505 132.561 166.83 132.17 164.217C131.753 161.422 132.873 158.759 133.593 156.113C134.095 154.269 134.259 152.501 133.716 150.835C133.054 151.916 132.15 152.943 131.435 153.859C130.01 155.683 128.573 157.496 127.139 159.313C125.669 161.175 124.235 163.067 122.87 165.009C122.259 165.877 121.655 166.751 121.053 167.625C120.6 168.282 119.968 168.939 119.474 169.609C119.594 169.968 119.585 170.381 119.368 170.674C116.75 174.211 113.026 166.831 112.055 164.967C110.077 161.17 108.605 157.136 106.62 153.34C104.564 149.405 102.223 145.574 99.6128 141.981C98.0342 139.808 96.2649 137.767 94.8208 135.525C91.4188 138.61 86.942 140.678 82.83 142.553C78.3121 144.613 73.6184 146.296 68.9862 148.083L67.6179 148.615C59.6366 151.73 51.4602 155.152 44.8261 160.685C37.0305 167.186 32.4187 176.248 28.9853 185.632C25.0329 196.435 21.7631 207.529 18.715 218.617C17.1552 224.29 15.6752 229.988 14.2838 235.705C13.0577 240.742 12.0414 245.828 10.6221 250.813C13.5006 250.711 16.7836 251.826 19.2411 252.147C30.4413 253.613 41.4908 255.95 52.0651 259.997C53.3713 260.496 53.7492 261.801 53.4648 262.858C54.218 262.646 54.9707 262.43 55.724 262.219C54.8987 260.954 55.2926 258.693 55.3575 257.292L55.3614 257.196C55.4281 255.328 55.6308 253.458 55.7622 251.594C56.0123 248.041 56.338 244.513 56.7711 240.98L56.8816 240.096C57.3724 236.252 57.7352 232.385 58.2707 228.548L58.334 228.109C58.0772 227.127 57.7782 226.157 57.4645 225.191C56.6283 222.619 55.4481 220.198 54.4138 217.707C54.2918 217.414 54.7096 217.245 54.9049 217.421C56.6565 218.997 58.0479 220.996 59.1656 223.087C59.185 222.988 59.2021 222.889 59.2223 222.791L59.3499 222.163C59.6644 220.632 60.047 219.021 60.9862 217.779C61.0862 217.647 61.284 217.62 61.3786 217.779C62.2775 219.3 62.3781 221.227 62.5164 222.957C62.6728 224.915 62.6925 226.898 62.6649 228.861C62.611 232.698 62.3405 236.546 62.1251 240.377C61.9137 244.141 61.4986 247.858 60.9636 251.585L60.8619 252.284C60.6004 254.058 60.3863 255.854 60.0414 257.616L59.944 258.096C59.7596 258.97 59.6461 260.202 59.279 261.225C68.7234 258.591 78.1822 256.017 87.6591 253.488C94.5085 251.66 101.365 249.86 108.219 248.048C108.58 247.396 109.031 246.787 109.593 246.243C111.444 244.45 113.898 243.65 116.149 245.03C116.332 245.143 116.347 245.429 116.149 245.538C115.718 245.774 115.286 246.015 114.861 246.267L118.977 245.153C122.053 244.319 125.165 243.277 128.314 242.696C134.113 239.834 140.35 237.763 146.458 235.716L147.178 235.472C150.306 234.406 153.541 233.212 156.773 232.621C159.139 232.189 161.916 232.711 162.867 235.134C164.071 235.928 165.204 236.861 166.298 237.778C167.089 238.441 167.846 239.146 168.617 239.832L168.759 239.957C169.389 240.504 169.888 240.87 170.043 241.74C170.123 242.189 169.837 242.797 169.283 242.737C167.587 242.556 166.208 240.59 165.057 239.416C164.169 238.508 163.273 237.57 162.462 236.573C161.989 236.83 161.341 236.784 161.04 236.214C159.479 233.259 155.204 235.307 152.839 236.008L149.45 237.01C147.756 237.513 146.062 238.017 144.372 238.531C139.725 239.942 135.101 241.521 130.412 242.817C130.832 243.278 130.774 244.098 129.977 244.41C126.307 245.851 122.28 246.595 118.467 247.583C116.06 248.208 113.654 248.836 111.249 249.468C110.836 250.136 110.54 250.892 110.415 251.771C109.956 255.006 110.841 258.739 111.703 261.867L111.833 262.334C112.542 264.85 113.585 267.933 115.755 269.522C116.285 269.909 116.96 270.179 117.64 270.24C121.888 268.053 126.136 265.866 130.387 263.684C131.175 263.279 131.902 263.827 132.079 264.478C133.578 264.232 135.073 263.844 136.435 263.382C138.724 262.605 140.511 261.123 142.656 260.097C146.807 258.114 151.047 260.55 154.764 262.402L155.62 262.823C157.287 263.632 160.755 265.185 161.554 262.974C162.328 260.834 159.882 258.547 158.303 257.584C156.42 256.436 154.228 255.821 152.1 255.309C150.885 255.017 149.655 254.778 148.418 254.604C147.015 254.407 145.565 254.436 144.214 253.981C143.543 253.756 143.44 252.689 144.214 252.513C146.294 252.04 148.777 252.556 150.947 253.084L152.082 253.363C154.268 253.9 156.476 254.573 158.468 255.644C159.917 256.422 161.445 257.605 162.444 259.053C163.311 258.247 164.391 258.275 165.515 258.573L166.125 258.743C167.133 259.022 167.95 259.214 168.93 259.021C169.061 258.308 169.194 257.594 169.336 256.88C170.734 249.865 172.266 242.877 173.957 235.926C176.874 223.937 180.249 212.079 184.053 200.343L184.435 199.17C185.313 196.485 186.019 193.561 187.434 191.095C188.772 188.763 190.916 187.42 193.463 186.708C196.353 185.901 199.39 185.479 202.339 184.934C202.997 184.812 203.656 184.697 204.315 184.577C203.758 183.573 203.343 182.432 202.969 181.557L202.903 181.406C202.1 179.574 201.378 177.708 200.681 175.833L200.159 174.424C198.901 171.029 197.601 167.69 195.832 164.515C193.969 161.174 191.498 158.442 188.417 156.181C182.136 151.571 174.566 149.22 168.474 144.293C168.224 144.091 168.544 143.746 168.798 143.874C172.911 145.94 177.352 147.346 181.63 149.028L182.474 149.361C185.856 150.702 189.29 152.161 192.217 154.332C195.48 156.752 198.05 159.757 199.982 163.332C201.886 166.855 203.104 170.798 204.447 174.562L204.806 175.564C205.348 177.068 205.908 178.567 206.549 180.03C207.058 181.192 208.008 182.518 208.44 183.845C209.621 183.64 210.802 183.434 211.984 183.237C237.596 178.961 263.495 176.448 289.45 175.713C290.466 175.684 290.991 176.653 290.842 177.539C288.351 192.268 286.137 207.048 283.708 221.788C282.648 228.221 281.567 234.65 280.46 241.075C279.9 244.33 279.251 247.573 278.721 250.833C278.292 253.466 277.981 256.119 277.245 258.691C276.585 260.997 275.572 263.221 273.908 264.98C272.115 266.876 269.612 267.794 267.093 268.228C260.697 269.329 254.137 269.778 247.689 270.512L213.362 274.417C213.864 278.977 213.901 283.465 213.671 288.078L213.54 290.596C213.433 292.621 213.304 294.65 213.013 296.654C212.649 299.169 211.498 301.298 209.804 303.176C208.248 304.901 206.358 306.373 204.52 307.783C202.611 309.247 200.639 310.661 198.396 311.566L198.104 311.682C196.136 312.45 192.443 313.64 189.753 313.205C190.104 314.968 190.785 316.862 190.182 318.606C189.902 319.416 188.843 319.819 188.194 319.131C186.909 317.765 186.809 315.962 186.504 314.18C186.188 312.327 185.915 310.467 185.672 308.602C185.203 304.996 184.838 301.358 184.727 297.722C184.612 293.988 184.656 290.248 184.857 286.518C184.961 284.603 185.089 282.689 185.332 280.785C185.436 279.974 185.542 279.161 185.663 278.352C185.707 278.056 185.756 277.763 185.809 277.469L182.728 277.817C178.004 278.344 173.277 278.821 168.519 278.895C167.956 278.903 167.522 278.647 167.239 278.273C166.937 278.765 166.412 279.116 165.659 279.113C159.015 279.089 152.827 276.916 146.784 274.356C143.738 273.065 140.739 271.667 137.689 270.387C134.841 269.192 131.797 268.34 129.019 266.994L121.717 270.824C121.663 271.012 121.595 271.19 121.522 271.34C121.046 272.31 120.109 272.836 119.152 273.233C118.233 273.614 117.281 273.733 116.354 273.636C110.816 276.538 105.277 279.437 99.7349 282.33L94.191 285.22C83.1455 290.971 72.1437 296.816 61.0287 302.432L60.2104 302.844C56.3712 304.769 52.2487 306.72 47.9882 308.176C47.9124 309.255 47.9603 310.304 48.0506 311.445L48.0724 311.694C48.1994 313.043 48.4718 314.733 47.3897 315.693C46.8268 316.192 45.8214 316.194 45.4386 315.441C44.7441 314.076 45.3676 311.923 45.5877 310.44C45.6657 309.912 45.7609 309.37 45.9017 308.844C41.0174 310.298 35.9851 311.003 31.0147 310.186C26.1754 309.392 22.4274 306.344 19.4058 302.615C16.217 298.68 13.9509 294.094 12.7351 289.178C11.3515 283.584 11.2611 277.807 11.2936 272.077C11.3281 265.975 11.5538 259.843 12.2959 253.783C11.4828 253.592 10.5811 253.426 9.75944 253.483C9.35246 254.135 8.56301 254.409 7.84966 254.324C6.2984 256.035 10.2331 257.783 11.4905 258.221C11.9272 258.373 11.8804 259.083 11.3768 259.061L11.0596 259.046C9.11666 258.943 7.10933 258.611 5.96695 256.805C5.05153 255.358 5.32655 253.644 6.41782 252.463C7.13858 245.648 8.86169 239.012 10.4654 232.364C12.0392 225.839 13.7893 219.356 15.6444 212.906L16.476 210.019C19.3968 199.904 22.4497 189.709 26.4787 179.996C28.4905 175.147 30.8081 170.386 33.9497 166.158C36.878 162.216 40.3354 158.843 44.3094 155.962C51.718 150.591 60.4112 147.346 68.9526 144.254L69.335 144.116C73.7613 142.514 78.1768 140.894 82.5527 139.159C86.4227 137.625 90.1303 135.68 93.9821 134.123C93.857 133.896 93.7361 133.666 93.6198 133.434L93.5486 133.494C93.5365 133.503 93.524 133.513 93.511 133.522C93.1237 133.79 92.5534 133.658 92.2342 133.357C91.3329 132.506 91.638 131.562 92.2396 130.68L92.318 130.568C93.0538 129.537 93.7102 128.447 94.3893 127.379L94.8146 126.711C95.9546 124.927 97.1526 123.13 98.6726 121.655C99.3766 120.972 100.147 120.461 100.964 120.079C100.894 119.932 101.506 119.63 101.68 119.782C104.267 118.835 107.243 119.034 110.063 119.295M211.701 274.606L208.104 275.015C204.147 275.465 200.189 275.9 196.23 276.331L187.631 277.266C187.609 277.756 187.549 278.235 187.539 278.606C187.482 280.514 187.441 282.424 187.401 284.333C187.321 288.16 187.409 291.991 187.661 295.81C187.905 299.511 188.226 303.213 188.726 306.889L188.828 307.624L188.888 308.01C189.296 308.05 189.696 308.243 190.029 308.641C190.757 309.51 193.39 308.666 194.419 308.3C196.11 307.698 197.703 306.681 199.173 305.661C200.608 304.666 201.901 303.504 203.143 302.281L204.159 301.276C205.17 300.272 206.182 299.202 206.801 297.938C207.641 296.225 207.75 294.122 207.996 292.255C208.299 289.96 208.66 287.665 209.042 285.381M107.289 250.511L106.916 250.609C93.3644 254.21 79.8326 257.918 66.2389 261.359C59.5118 263.063 52.7527 264.643 46.0173 266.314L44.9268 266.587C39.6133 267.93 34.236 269.546 30.167 273.4C30.0169 273.542 29.7988 273.324 29.9402 273.173C34.3255 268.505 40.5624 266.528 46.5508 264.815C47.6578 264.499 48.7661 264.19 49.8734 263.875C41.7292 260.971 33.4565 258.445 24.9929 256.644C22.8135 256.18 20.6087 255.839 18.431 255.374C16.9123 255.049 15.4291 254.579 13.9264 254.189L12.7444 253.892L12.7287 257.628C12.7091 262.919 12.7185 268.205 12.9884 273.496L13.0395 274.476C13.3544 280.363 13.846 286.373 15.9353 291.924C17.633 296.435 20.3391 300.684 23.878 303.97C25.6686 305.632 27.5938 306.927 29.9735 307.566C32.1831 308.159 34.4982 308.228 36.7696 308.07C47.6649 307.31 57.3635 301.391 66.8277 296.491C82.3081 288.476 97.7901 280.465 113.286 272.481C112.867 272.194 112.473 271.864 112.114 271.493C110.036 269.347 108.94 266.41 108.22 263.564C107.454 260.536 106.995 257.29 106.942 254.164M127.007 275.575C127.144 275.501 127.302 275.593 127.308 275.748C127.356 276.931 126.702 278.098 126.214 279.165L126.162 279.279C125.568 280.599 124.918 281.902 124.246 283.185C122.902 285.747 121.505 288.282 120.048 290.781C117.117 295.809 113.86 300.625 110.01 305.003C109.141 305.992 107.711 304.724 108.269 303.659C110.959 298.526 114.095 293.68 117.324 288.875C118.94 286.47 120.555 284.062 122.187 281.668C122.868 280.669 123.558 279.673 124.266 278.692L124.693 278.106M287.734 178.653C274.135 179.064 260.551 179.951 247.017 181.341C234.429 182.633 221.888 184.354 209.418 186.499C206.813 186.946 204.212 187.413 201.613 187.898L200.055 188.191C197.456 188.683 194.282 188.886 191.968 190.275C189.529 191.738 188.87 194.797 188.058 197.319C187.104 200.285 186.174 203.26 185.269 206.242C181.676 218.082 178.393 230.024 175.465 242.045C174.012 248.012 172.722 254.013 171.363 260.001C170.156 265.322 168.824 270.583 167.432 275.851C167.604 275.718 167.814 275.616 168.068 275.562C174.979 274.092 182.033 273.453 189.047 272.64L189.725 272.561C196.981 271.708 204.237 270.861 211.497 270.045L259.565 264.639C262.4 264.32 265.437 264.277 268.196 263.516C272.886 262.222 273.986 256.979 274.772 252.802L274.796 252.676C277.169 240.058 279.058 227.331 281.27 214.681M168.551 261.183C166.685 261.06 164.13 259.351 162.715 259.473C163.458 260.721 163.793 262.143 163.365 263.662C162.173 267.889 156.781 265.702 154.185 264.411C152.055 263.351 149.999 262.055 147.642 261.559C144.972 260.998 143.162 262.059 140.906 263.284C139.053 264.289 137.035 265.011 134.96 265.384C133.856 265.583 132.808 265.604 131.762 265.527C131.699 265.578 131.628 265.626 131.547 265.668L130.994 265.959C133.496 266.073 136.045 266.845 138.374 267.553C140.788 268.285 143.157 269.168 145.513 270.071L147.832 270.962C153.55 273.152 159.47 275.231 165.659 275.213C166.104 275.212 166.468 275.335 166.755 275.536M158.11 247.938C159.954 247.712 161.655 247.954 163.128 249.154C164.905 250.601 166.099 253.002 168.653 253.159C169.398 253.205 169.571 254.252 168.83 254.471C166.929 255.034 165.39 254.005 164.095 252.67L163.224 251.76C161.944 250.435 160.763 249.41 158.591 249.489C156.265 249.574 153.935 250.112 151.624 250.385C149.006 250.694 146.388 250.958 143.762 251.186C143.64 251.197 143.619 251.004 143.733 250.976L146.675 250.244M156.33 240.401L156.634 240.37C159.312 240.11 161.76 240.1 164.151 241.54L164.61 241.818C166.765 243.128 169.112 244.672 170.46 246.793C170.68 247.14 170.316 247.549 169.947 247.46C167.356 246.838 165.462 244.938 163.283 243.515C160.838 241.918 158.312 242.182 155.523 242.43C152.824 242.67 150.126 243 147.453 243.45C144.941 243.872 142.421 244.539 139.884 244.752L139.885 244.747C139.595 244.746 139.43 244.311 139.725 244.163C142.3 242.878 145.282 242.269 148.083 241.682M64.656 167.602C64.6526 167.391 64.9504 167.311 65.0544 167.495C66.7963 170.559 67.7069 174.316 68.6349 177.692C69.6067 181.229 70.3913 184.802 71.0961 188.401C72.5237 195.689 73.2844 202.934 73.336 210.362C73.3431 211.423 71.6154 211.705 71.4464 210.618C70.3243 203.393 69.2493 196.16 68.1187 188.937C67.5499 185.305 66.8878 181.686 66.2543 178.064M81.9009 172.94C81.7727 172.517 82.3877 172.376 82.545 172.762C86.0408 181.344 87.2247 191.068 84.9803 200.121C84.6369 201.506 82.6086 200.906 82.8676 199.539M126.993 165.315C126.975 164.999 127.386 164.949 127.541 165.167C129.197 167.501 129.884 170.626 132.79 171.832C134.241 172.435 135.874 172.33 137.156 173.347C138.013 174.027 138.67 175.101 138.027 176.131C137.819 176.464 137.239 176.631 136.957 176.269C136.546 175.742 136.329 175.111 135.77 174.716C134.983 174.159 133.921 174.125 133.018 173.863C131.85 173.524 130.821 172.932 129.978 172.051M154.666 126.389C154.837 126.302 155.001 126.358 155.11 126.505C155.266 126.716 155.247 126.92 155.056 127.064C155.311 127.586 155.612 128.892 155.655 129.082C155.83 129.852 156.015 130.618 156.209 131.384C156.601 132.928 156.944 134.484 157.336 136.028C157.751 137.665 158.247 139.285 158.797 140.881C158.833 140.984 158.872 141.09 158.913 141.197L158.976 141.359L158.991 141.334C159.103 141.157 159.336 141.281 159.309 141.468C159.283 141.638 159.249 141.808 159.22 141.978L159.277 142.131C159.638 143.101 159.884 144.122 159.223 144.978C158.976 145.298 158.704 145.488 158.365 145.544C157.821 147.337 157.138 149.096 156.408 150.786L156.194 151.279C155.119 153.744 153.973 156.177 152.263 158.276C150.395 160.567 147.825 162.132 146.198 164.643C145.441 165.811 144.915 167.039 144.487 168.358L144.326 168.858C144.023 169.791 143.673 170.696 142.798 171.243C142.519 171.417 142.1 171.362 141.875 171.124C140.08 169.225 141.959 165.681 143.041 163.843C144.545 161.287 146.723 159.652 148.903 157.723C151.252 155.645 152.751 152.864 154.201 150.125C155.089 148.447 155.946 146.733 156.849 145.047C155.906 144.214 155.604 142.558 155.285 141.408L155.255 141.304C154.727 139.462 154.308 137.571 154.043 135.672C153.788 133.846 153.681 132.046 153.749 130.21L153.768 129.743M158.172 135.079C157.964 134.794 158.309 134.47 158.595 134.53C160.333 134.889 162.032 135.941 163.592 136.792L163.758 136.882C165.003 137.554 166.256 138.376 166.91 139.681C167.621 141.098 167.563 142.731 167.466 144.272L167.456 144.416C167.338 146.264 167.319 148.184 166.928 149.998C166.727 150.926 165.886 151.188 165.167 150.969C164.312 153.67 161.908 155.661 160.153 157.792C157.914 160.51 158.336 164.179 158.57 167.453C158.664 168.778 157.016 169.155 156.167 168.448L154.21 166.822C153.884 166.551 153.559 166.279 153.234 166.007C152.956 165.773 152.681 165.537 152.408 165.298L152 164.938C151.819 164.776 151.021 163.884 150.787 163.847C150.222 163.758 148.879 165.248 148.419 165.715L148.361 165.773C147.495 166.622 146.714 167.534 145.985 168.503C145.851 168.68 145.59 168.533 145.685 168.327C146.338 166.93 147.096 165.593 147.997 164.343L148.179 164.094C148.779 163.286 149.583 161.86 150.641 161.621C151.933 161.33 153.223 162.626 154.163 163.345L154.222 163.39C154.669 163.725 155.111 164.067 155.553 164.41C155.506 161.973 155.814 159.511 157.072 157.411C157.96 155.93 159.289 154.833 160.426 153.56C161.693 152.142 162.354 150.401 163.5 148.925C163.648 148.735 163.851 148.632 164.072 148.6C164.116 147.413 164.29 146.215 164.425 145.041L164.465 144.69C164.601 143.414 164.924 141.857 164.299 140.662C163.709 139.534 162.356 138.738 161.354 137.972L160.536 137.337M101.767 121.593C101.243 121.896 100.754 122.273 100.311 122.743C98.9138 124.225 97.9152 126.069 96.9433 127.843C96.4201 128.798 95.9156 129.764 95.3881 130.717C95.1587 131.131 94.9227 131.542 94.6841 131.951C94.5738 132.14 94.2461 132.515 94.0836 132.746C94.2641 132.999 94.4508 133.248 94.6411 133.494C94.7138 133.588 99.7243 139.046 101.471 141.183C104.145 144.455 106.536 147.911 108.58 151.61C110.581 155.233 112.104 159.068 113.958 162.761C114.886 164.61 115.923 166.446 117.244 168.046C117.295 168.108 117.348 168.167 117.401 168.228C117.905 166.867 119.197 165.408 119.831 164.571L119.89 164.492C121.329 162.552 122.849 160.671 124.402 158.821C125.82 157.133 127.274 155.481 128.763 153.856L129.324 153.247C130.361 152.127 131.679 150.449 133.198 149.648C133.036 149.358 132.847 149.071 132.631 148.788C131.207 146.928 129.196 145.578 127.21 144.361L125.923 143.577C121.07 140.62 116.293 137.526 112.079 133.683C109.85 131.65 107.652 129.52 105.779 127.149L105.116 126.31M109.864 120.129C107.592 120.32 105.137 120.275 103.037 121.015C104.904 122.78 106.679 124.686 108.502 126.481C108.664 125.267 108.996 124.068 109.277 122.884" fill="#D9D9D9"/>
<path fill-rule="evenodd" clip-rule="evenodd" d="M141.874 5.73145C154.634 5.73145 169.944 11.9172 171.245 12.041L171.281 12.0428C171.965 12.0428 174.641 14.0815 179.308 18.1588L174.253 28.0181L174.662 28.4088C176.62 30.2856 178.291 31.9962 179.61 33.3448C190.381 44.3555 192.317 87.5871 189.778 102.663C187.24 117.74 182.539 132.492 160.651 132.492C138.764 132.492 114.413 119.331 110.662 115.233C108.162 112.501 105.353 111.192 102.235 111.306C102.107 111.144 101.98 110.983 101.854 110.823L101.396 110.758C97.0815 110.133 93.9904 109.292 92.1223 108.235C88.4734 106.171 84.4628 95.318 84.4628 92.9273C84.4628 90.5606 78.4741 73.3431 78.3544 71.521L78.3526 71.4706C78.3526 69.9474 70.529 62.9457 70.529 60.7221C70.529 58.4984 68.952 58.6334 70.529 50.7977L70.9872 48.4958C72.6653 40.1531 75.9499 26.3388 88.4734 20.336C102.235 13.7396 128.985 5.73145 141.874 5.73145Z" fill="white"/>
<path fill-rule="evenodd" clip-rule="evenodd" d="M86.3482 20.0262C93.2118 12.7411 132.177 1.47279 151.891 3.86141L152.483 3.93799C154.056 4.13749 155.606 4.43959 157.136 4.84999C162.082 6.0051 167.191 7.75414 171.278 10.6757C174.69 13.0657 185.452 16.9688 182.28 23.2211C183.456 25.4495 183.895 28.2026 183.1 30.3974C183 31.1555 182.767 31.8537 182.468 32.5776C184.98 36.2858 186.97 40.4793 188.581 44.4678C191.395 54.5058 193.146 64.9522 193.403 75.1937C194.256 94.6512 192.123 117.893 175.176 130.475C164.938 138.448 148.902 138.716 137.397 128.831C136.744 128.058 133.674 125.973 134.699 125.607C135.004 125.929 135.317 126.243 135.636 126.551C135.622 126.516 135.619 126.482 135.625 126.445L135.325 126.173C134.759 125.65 134.027 124.892 134.861 125.04C134.898 125.083 134.938 125.12 134.978 125.163C135.154 125.269 135.288 125.361 135.392 125.442L135.445 125.484L135.429 125.467C134.948 124.955 134.66 124.432 135.379 124.766L135.474 124.812C135.793 125.148 136.118 125.471 136.448 125.784C136.443 125.747 136.448 125.71 136.469 125.67L136.16 125.372C135.859 125.077 135.905 125.076 136.052 124.838C135.413 123.942 136.607 124.474 136.691 124.824C137.438 124.647 138.093 126.049 138.574 126.22C159.664 142.434 190.269 128.047 189.774 82.8676L189.766 81.9836C189.621 67.5371 188.406 52.6888 182.43 39.6114C181.849 38.3517 181.199 37.1262 180.484 35.9406C179.991 35.0514 179.464 34.185 178.897 33.3414C177.309 33.2132 175.741 32.9225 174.197 32.4722C173.666 32.3382 173.142 32.19 172.618 32.0162C164.957 32.434 157.467 32.8886 149.785 33.3195L147.385 33.4689C140.878 33.8873 134.147 34.5574 128.896 38.5826C123.743 42.2471 123.72 49.4733 119.309 53.4966C113.019 57.7657 112.973 61.6152 111.762 67.9062C111.851 72.6486 115.14 79.5391 109.105 81.5349C110.123 82.9864 108.704 82.2891 108.593 81.78C108.581 81.7829 108.57 81.7857 108.561 81.7857C109.469 83.4721 108.135 82.4102 108.017 81.8684C107.946 81.8484 107.875 81.7971 107.803 81.7259C108.717 83.2033 107.24 82.1688 107.327 81.8997C105.561 79.1851 101.926 78.7636 99.3641 79.4829C99.3328 79.5798 99.2191 79.5884 99.1478 79.5371C88.2531 81.898 91.0641 104.452 102.229 102.272C102.707 102.174 102.695 102.403 102.79 102.425C102.532 101.748 103.259 102.024 103.252 102.166L103.296 102.164C103.331 102.161 103.317 102.157 103.343 102.166C103.093 100.781 104.497 102.788 104.386 102.87C104.429 102.844 104.477 102.83 104.52 102.824L104.472 102.693C104.239 102.073 104.259 102.33 104.26 101.975C104.085 101.536 104.073 101.728 104.114 101.442C104.729 100.965 104.91 102.411 105.115 102.517C104.764 102.026 105.043 101.626 105.375 101.892C107.89 107.181 111.138 112.151 115.336 116.066C115.795 116.427 116.259 116.784 116.741 117.12C118.526 118.675 121.265 119.675 122.936 121.053C122.936 121.076 122.925 121.104 122.908 121.133L122.947 121.167V121.167L122.985 121.204L123.567 121.483C123.738 121.629 123.892 121.791 124.028 121.971C124.174 122.139 124.302 122.324 124.41 122.521C124.464 122.76 124.345 122.86 124.117 122.757C124.017 122.723 123.917 122.683 123.817 122.646C123.823 122.655 123.826 122.66 123.832 122.666C123.864 122.716 124.086 123.229 123.831 123.145L123.8 123.134C123.66 123.082 123.521 123.025 123.384 122.971C123.547 123.173 123.695 123.393 123.826 123.578C123.966 123.723 124.051 123.894 124.085 124.088C124.079 124.197 124.02 124.242 123.911 124.228C123.746 124.174 123.584 124.117 123.421 124.057L123.467 124.145C123.582 124.371 123.746 124.751 123.455 124.624C123.207 124.547 122.968 124.459 122.729 124.362C122.708 124.402 122.669 124.416 122.589 124.379C121.828 124.108 121.093 123.778 120.389 123.387C119.77 122.937 119.146 122.495 118.525 122.048C117.94 121.697 117.376 121.307 116.838 120.868C113.234 118.54 110.078 115.583 107.575 112.289C103.389 115.915 95.0188 112.451 89.8412 109.613C85.2615 107.077 83.4614 102.387 82.996 97.3302C82.0285 90.5227 76.4653 88.1925 76.8523 73.2557C76.8437 73.2585 76.8349 73.2585 76.8235 73.2585C76.6211 73.1987 76.4248 73.1189 76.2395 73.0163C76.0486 72.9251 75.869 72.8168 75.7006 72.6857L75.4925 72.3978V72.3978C75.3845 72.338 75.2876 72.2753 75.2135 72.2126L75.1751 72.2622C75.0535 72.4089 75.1352 72.1881 75.1423 72.1442L74.7809 71.6527C73.9239 70.4827 72.9837 69.1699 72.2179 68.12L72.1938 68.1626C72.1765 68.1948 72.1673 68.2181 72.1754 68.2283C70.3529 65.6097 68.6389 62.4468 68.1626 59.3847C67.6003 57.0261 67.8201 54.5956 68.3105 52.4108C70.4136 44.76 77.3026 27.4468 86.3482 20.0262ZM135.81 125.833L135.695 125.732L135.796 125.857C135.848 125.922 135.902 125.981 135.99 126.041C135.984 126.021 135.984 126.001 135.987 125.978C135.929 125.933 135.869 125.885 135.81 125.833ZM151.805 7.7055C138.436 6.5561 125.287 9.50129 112.53 13.0664L111.65 13.3193C104.396 15.3891 96.7255 17.2516 90.5954 21.6819C82.0309 28.2417 77.6082 38.6773 73.7488 48.3123C70.3786 55.4709 72.1015 63.543 77.1802 68.5416C77.7086 63.5743 78.6094 58.7524 80.0173 53.9693C80.3112 53.222 80.0889 52.9772 80.7221 52.8797C81.6786 65.7697 76.9678 75.2933 86.2902 90.5698C90.3352 97.778 85.6526 103.052 97.0755 106.845L97.3846 106.963C99.7643 107.861 102.363 108.57 104.694 108.068L104.485 107.729C104.272 107.379 104.208 107.209 104.517 107.059C104.509 107.042 104.498 107.025 104.486 107.005C104.236 106.532 103.993 106.053 103.762 105.569C103.668 105.6 103.574 105.623 103.477 105.649C103.54 105.765 103.548 105.882 103.372 105.922C102.744 106.138 102.099 106.224 101.439 106.184L101.297 106.173C100.551 106.127 100.081 105.991 99.661 105.865C99.5216 105.842 99.382 105.82 99.2449 105.791C97.8925 105.491 96.461 104.729 95.5345 103.973C84.9729 97.9741 86.0645 77.5542 99.0827 75.6239C99.3498 62.7669 105.465 41.0762 115.614 28.8249C124.787 17.5557 149.832 12.6713 167.255 14.3936C167.509 14.4777 167.763 14.5626 168.017 14.6484C170.705 14.8872 173.267 16.0848 175.957 16.6411C174.026 15.1936 171.835 14.2294 169.578 13.4101C165.081 10.6595 159.926 9.17126 154.946 8.1216C153.914 7.86795 152.868 7.7283 151.805 7.7055ZM98.4872 85.9524C99.1872 85.5722 99.1071 85.9393 99.2681 85.8327C104.303 85.422 109.732 89.8301 112.546 93.5049C112.324 93.7358 111.723 93.0518 111.617 92.9435C111.603 92.9577 111.586 92.9691 111.569 92.9748L111.647 93.0854C112.788 94.7224 110.526 92.7961 110.315 92.3991C110.278 92.4191 110.241 92.4305 110.198 92.4219C110.377 92.5978 110.925 93.0563 111.019 93.3824L111.164 93.5032C112.532 94.6752 112.419 95.5569 110.865 93.8925C110.902 93.9695 110.916 94.0407 110.89 94.0977L110.944 94.1334C111.708 94.6673 112.336 96.1558 110.739 94.6278C110.906 95.7439 109.157 93.5867 109.101 93.6018C106.074 91.2263 101.619 88.9161 97.8232 88.6058L97.6925 88.5908C96.996 88.5013 96.6666 88.2946 96.9112 87.8391C96.0533 87.6351 96.2542 87.2127 96.6604 87.2264C96.0553 86.8285 96.5999 86.448 96.9511 86.5965C96.7097 85.9282 97.6778 86.3734 97.7662 86.2802C98.2686 85.5053 98.404 86.1516 98.4872 85.9524ZM87.9337 44.5274C90.3519 43.6417 97.4949 46.2933 96.9234 49.8051C96.5832 50.6113 95.462 51.0733 94.6739 50.6182L93.6454 49.9274C91.8555 48.7287 90.2413 47.6776 88.3196 46.6322C87.2736 46.1132 86.8233 45.0114 87.9337 44.5274ZM101.691 39.3091L100.757 38.7013C95.7175 35.4028 88.5927 30.4048 101.228 35.5758C102.668 36.1934 104.582 36.5588 105.368 37.9302C106.602 40.4579 103.353 40.6278 101.691 39.3091ZM102.258 24.509C101.853 22.9743 106.886 24.7752 108.35 25.25L108.574 25.3343C109.999 25.8653 111.632 26.3578 112.484 27.5876C113.483 29.2867 111.462 29.6387 110.21 28.8712C107.643 27.1937 104.828 25.928 102.258 24.509ZM115.055 17.3598C112.222 14.2666 119.803 17.2298 120.938 18.0524L120.971 18.0766C121.818 18.6731 121.646 19.9579 120.85 20.3352C118.585 20.3783 116.918 18.4904 115.055 17.3598ZM127.944 13.9709C123.441 10.7347 129.373 12.274 131.433 13.5422C132.837 14.7805 131.391 16.871 127.944 13.9709Z" fill="#D9D9D9"/>
<path d="M133.951 161.844C132.404 161.909 131.212 161.476 130.375 160.546C129.521 159.521 128.999 158.441 128.808 157.305C128.777 157.116 128.713 156.737 128.618 156.169C128.617 155.585 128.648 154.898 128.71 154.109C128.615 153.541 128.748 152.594 129.109 151.268C129.47 149.942 129.839 148.371 130.216 146.555C130.94 144.487 132.191 142.087 133.972 139.354C135.752 136.622 137.304 134.56 138.628 133.17C139.369 132.364 139.913 131.835 140.259 131.582C140.59 131.234 140.756 131.06 140.756 131.06C140.692 130.682 141.236 129.86 142.387 128.597C143.521 127.238 144.53 126.29 145.413 125.752C145.413 125.752 145.957 125.223 147.045 124.164C148.133 123.105 148.952 122.189 149.504 121.415C151.316 118.872 152.591 116.613 153.331 114.64C154.054 112.571 154.501 110.306 154.672 107.844C154.843 105.382 154.965 102.343 155.04 98.7292C154.578 95.3997 154.205 93.1748 153.919 92.0546C153.713 90.8239 152.97 89.8778 151.691 89.2165C149.528 88.5088 147.05 88.8274 144.258 90.1722C141.545 91.4065 139.007 93.3902 136.643 96.1233C134.357 98.7459 132.775 101.786 131.895 105.243C131.597 106.948 131.449 108.092 131.449 108.676C131.545 109.244 131.814 109.978 132.257 110.877C132.384 111.635 132.598 112.329 132.899 112.96C133.294 113.575 133.531 114.119 133.611 114.592C133.248 114.75 132.546 114.917 131.504 115.092C130.558 115.251 129.556 115.37 128.498 115.451C127.441 115.531 126.557 115.484 125.847 115.312C125.847 115.312 125.61 115.059 125.136 114.555C124.661 114.05 124.298 113.625 124.045 113.278C123.35 112.616 122.947 111.953 122.835 111.291C122.803 110.517 122.667 109.421 122.429 108.001C122.774 105.996 123.331 103.809 124.102 101.441C124.857 98.9781 125.966 96.6016 127.431 94.3114C128.897 92.0212 130.709 90.0621 132.869 88.4339C134.715 87.2481 136.244 86.2125 137.458 85.3273C138.751 84.3314 139.398 83.8335 139.398 83.8335C139.398 83.8335 139.729 83.7779 140.392 83.6666C141.133 83.4448 142.34 83.0961 144.013 82.6207C144.597 82.62 145.212 82.5167 145.859 82.3107C146.6 82.0889 147.011 82.2147 147.09 82.688C147.374 82.6404 147.942 82.545 148.794 82.4019C149.647 82.2589 150.451 82.1238 151.209 81.9966C152.392 82.0899 153.655 82.3646 154.997 82.8207C156.324 83.1821 157.571 83.6541 158.739 84.2367C159.987 84.7086 161.005 85.2677 161.795 85.9138C162.808 87.8854 163.529 90.4413 163.959 93.5815C164.373 96.627 164.44 99.9254 164.16 103.477C163.88 107.028 163.292 110.485 162.397 113.848C161.58 117.1 160.4 119.926 158.856 122.327C158.383 122.991 157.501 124.112 156.208 125.692C154.916 127.272 153.553 129.009 152.119 130.905C150.764 132.69 149.661 134.238 148.81 135.549C145.893 137.888 143.506 141.063 141.649 145.074C139.791 149.085 138.533 152.898 137.874 156.513C137.214 158.96 136.727 160.405 136.412 160.847C136.097 161.289 135.276 161.622 133.951 161.844ZM134.29 188.216C132.602 189.181 131.143 189.766 129.913 189.973C128.761 190.069 127.387 189.716 125.792 188.913C123.707 187.51 122.806 185.91 123.088 184.11C123.448 182.2 124.716 180.186 126.892 178.069C128.421 176.741 129.557 175.967 130.298 175.745C131.134 175.507 132.468 175.624 134.299 176.095C137.442 177.417 139.006 179.199 138.993 181.44C139.075 183.665 137.507 185.924 134.29 188.216Z" fill="black"/>
</g>
<defs>
<clipPath id="clip0_527_839">
<rect width="250" height="250" fill="white"/>
</clipPath>
</defs>
</svg>
