<svg width="100" height="100" viewBox="0 0 100 100" fill="none" xmlns="http://www.w3.org/2000/svg">
<g clip-path="url(#clip0_296_630)">
<path d="M40.2047 32.7293C39.4648 31.085 38.6862 31.0518 37.9826 31.023C37.4065 30.9982 36.7479 31 36.0899 31C35.4313 31 34.3612 31.2478 33.4567 32.2354C32.5513 33.2239 30 35.6127 30 40.4713C30 45.33 33.5389 50.0258 34.0322 50.6853C34.5262 51.3436 40.8642 61.6332 50.902 65.5917C59.2443 68.8813 60.942 68.227 62.7526 68.062C64.5634 67.8977 68.5957 65.6738 69.4183 63.3678C70.2415 61.062 70.2416 59.0856 69.9947 58.6726C69.7479 58.2611 69.0893 58.014 68.1017 57.5203C67.1141 57.0267 62.2586 54.6372 61.3535 54.3076C60.4481 53.9783 59.7898 53.814 59.1312 54.8028C58.4726 55.7901 56.5814 58.014 56.005 58.6726C55.4291 59.3327 54.8527 59.4149 53.8654 58.921C52.8772 58.4255 49.6967 57.3839 45.9234 54.0199C42.9876 51.4022 41.0056 48.1696 40.4295 47.1808C39.8533 46.1935 40.3678 45.6583 40.8629 45.1662C41.3067 44.7238 41.8509 44.0131 42.3451 43.4366C42.8375 42.8599 43.0019 42.4484 43.3312 41.7898C43.6608 41.1306 43.4958 40.5538 43.2493 40.0599C43.0019 39.5659 41.0828 34.6819 40.2047 32.7293Z" fill="white"/>
<rect width="100" height="100" rx="22" fill="#61D66A"/>
<path fill-rule="evenodd" clip-rule="evenodd" d="M73.8715 26.1028C70.757 22.9868 67.057 20.5177 62.9843 18.8374C58.9117 17.1571 54.547 16.299 50.1414 16.3124C31.6523 16.3124 16.6012 31.2883 16.5937 49.6991C16.5855 55.5616 18.1308 61.3215 21.0724 66.3925L16.3125 83.6874L34.0962 79.0449C39.0187 81.7118 44.5293 83.1075 50.1278 83.1054H50.1414C68.6289 83.1054 83.6785 68.128 83.6875 49.7187C83.6987 45.3281 82.8366 40.9792 81.1514 36.9249C79.4663 32.8706 76.9916 29.1919 73.8715 26.1028ZM50.1414 77.4703H50.1293C45.1384 77.4717 40.2383 76.1361 35.9385 73.6022L34.9203 73.0007L24.3674 75.7558L27.1842 65.5157L26.521 64.463C23.7303 60.0448 22.2518 54.9249 22.2574 49.6991C22.2574 34.3999 34.7714 21.9521 50.1519 21.9521C57.53 21.9389 64.6113 24.8569 69.8382 30.0643C75.065 35.2717 78.0094 42.342 78.0238 49.7202C78.0178 65.0209 65.5098 77.4703 50.1414 77.4703ZM65.4346 56.6878C64.5969 56.2697 60.4717 54.2515 59.7077 53.9732C58.9437 53.695 58.3798 53.5551 57.8218 54.3913C57.2639 55.2275 55.6562 57.0984 55.1674 57.6623C54.6787 58.2263 54.1899 58.2879 53.3522 57.8699C52.5145 57.4518 49.812 56.572 46.6102 53.7296C44.1182 51.5174 42.4369 48.7863 41.9481 47.9516C41.4593 47.1169 41.8954 46.6642 42.315 46.2492C42.6925 45.8747 43.1527 45.2746 43.5723 44.7874C43.9919 44.3001 44.1318 43.9512 44.41 43.3948C44.6882 42.8383 44.5498 42.351 44.3408 41.9345C44.1318 41.5179 42.4549 37.4107 41.7571 35.7399C41.0758 34.1126 40.3855 34.3337 39.8712 34.3082C39.3824 34.2841 38.8185 34.2781 38.2635 34.2781C37.8393 34.2891 37.4219 34.3875 37.0374 34.5671C36.6529 34.7467 36.3095 35.0036 36.0287 35.3218C35.2602 36.158 33.0946 38.1792 33.0946 42.2819C33.0946 46.3845 36.1024 50.3548 36.5175 50.9113C36.9326 51.4677 42.4278 59.8941 50.8362 63.508C52.3975 64.1767 53.9928 64.763 55.6156 65.2646C57.6233 65.8992 59.4505 65.8105 60.8943 65.5954C62.505 65.3563 65.8572 63.5772 66.5535 61.6281C67.2498 59.6791 67.2513 58.0097 67.0423 57.6623C66.8332 57.3149 66.2738 57.1044 65.4346 56.6878Z" fill="white"/>
</g>
<defs>
<clipPath id="clip0_296_630">
<rect width="100" height="100" fill="white"/>
</clipPath>
</defs>
</svg>
