<svg width="100" height="100" viewBox="0 0 100 100" fill="none" xmlns="http://www.w3.org/2000/svg">
<g clip-path="url(#clip0_287_256)">
<rect width="100" height="100" rx="22" fill="#FF0000"/>
<g clip-path="url(#clip1_287_256)">
<path d="M86.2494 32.2143C85.8197 30.6266 84.9817 29.1792 83.8187 28.0161C82.6557 26.853 81.2082 26.0149 79.6206 25.5852C73.8081 24 50.4148 24 50.4148 24C50.4148 24 27.0203 24.048 21.2078 25.6332C19.6201 26.0629 18.1727 26.9011 17.0097 28.0642C15.8467 29.2273 15.0086 30.6748 14.5791 32.2626C12.8209 42.5902 12.1389 58.3272 14.6273 68.2417C15.057 69.8294 15.895 71.2768 17.058 72.4399C18.221 73.603 19.6684 74.4411 21.2561 74.8708C27.0686 76.456 50.4625 76.456 50.4625 76.456C50.4625 76.456 73.8561 76.456 79.6683 74.8708C81.256 74.4411 82.7035 73.603 83.8665 72.44C85.0296 71.2769 85.8677 69.8294 86.2973 68.2417C88.1517 57.8994 88.7232 42.1721 86.2494 32.2143Z" fill="white"/>
<path d="M42.9688 61.4683L62.3754 50.2278L42.9688 38.9873V61.4683Z" fill="#FF0000"/>
</g>
</g>
<defs>
<clipPath id="clip0_287_256">
<rect width="100" height="100" fill="white"/>
</clipPath>
<clipPath id="clip1_287_256">
<rect width="74.9057" height="52.6652" fill="white" transform="translate(13 24)"/>
</clipPath>
</defs>
</svg>
