<svg width="168" height="136" viewBox="0 0 168 136" fill="none" xmlns="http://www.w3.org/2000/svg">
<rect x="35.9999" y="36" width="96" height="64" fill="#3D5CFF"/>
<rect x="43.0399" y="0.160004" width="28.8" height="25.6" fill="#3D5CFF"/>
<rect x="73.1199" y="4" width="5.76" height="16.64" rx="2.88" fill="#3D5CFF"/>
<rect x="35.9999" y="4" width="5.76" height="16.64" rx="2.88" fill="#3D5CFF"/>
<rect x="96.1599" y="0.160004" width="28.8" height="25.6" fill="#3D5CFF"/>
<rect x="126.24" y="4" width="5.76" height="16.64" rx="2.88" fill="#3D5CFF"/>
<rect x="89.1199" y="4" width="5.76" height="16.64" rx="2.88" fill="#3D5CFF"/>
<rect x="43.0399" y="110.24" width="28.8" height="25.6" fill="#3D5CFF"/>
<rect x="73.1199" y="114.08" width="5.76" height="16.64" rx="2.88" fill="#3D5CFF"/>
<rect x="35.9999" y="114.08" width="5.76" height="16.64" rx="2.88" fill="#3D5CFF"/>
<rect x="96.1599" y="110.24" width="28.8" height="25.6" fill="#3D5CFF"/>
<rect x="126.24" y="114.08" width="5.76" height="16.64" rx="2.88" fill="#3D5CFF"/>
<rect x="89.1199" y="114.08" width="5.76" height="16.64" rx="2.88" fill="#3D5CFF"/>
<rect x="142.24" y="82.72" width="28.8" height="25.6" transform="rotate(-90 142.24 82.72)" fill="#3D5CFF"/>
<rect x="146.08" y="52.64" width="5.76" height="16.64" rx="2.88" transform="rotate(-90 146.08 52.64)" fill="#3D5CFF"/>
<rect x="146.08" y="89.76" width="5.76" height="16.64" rx="2.88" transform="rotate(-90 146.08 89.76)" fill="#3D5CFF"/>
<rect x="0.159912" y="82.72" width="28.8" height="25.6" transform="rotate(-90 0.159912 82.72)" fill="#3D5CFF"/>
<rect x="3.99988" y="52.64" width="5.76" height="16.64" rx="2.88" transform="rotate(-90 3.99988 52.64)" fill="#3D5CFF"/>
<rect x="3.99988" y="89.76" width="5.76" height="16.64" rx="2.88" transform="rotate(-90 3.99988 89.76)" fill="#3D5CFF"/>
</svg>
