<svg width="1000" height="600" viewBox="0 0 1000 600" fill="none" xmlns="http://www.w3.org/2000/svg">
<g clip-path="url(#clip0_182_1053)">
<rect width="1000" height="600" fill="#FFFCF0"/>
<g opacity="0.66">
<path d="M1040 30L-40 30" stroke="url(#paint0_linear_182_1053)" stroke-width="3"/>
<path d="M1040 90L-40 90" stroke="url(#paint1_linear_182_1053)" stroke-width="3"/>
<path d="M1040 150L-40 150" stroke="url(#paint2_linear_182_1053)" stroke-width="3"/>
<path d="M1040 210L-40 210" stroke="url(#paint3_linear_182_1053)" stroke-width="3"/>
<path d="M1040 270L-40 270" stroke="url(#paint4_linear_182_1053)" stroke-width="3"/>
<path d="M1040 330L-40 330" stroke="url(#paint5_linear_182_1053)" stroke-width="3"/>
<path d="M1040 390L-40 390" stroke="url(#paint6_linear_182_1053)" stroke-width="3"/>
<path d="M1040 450L-40 450" stroke="url(#paint7_linear_182_1053)" stroke-width="3"/>
<path d="M1040 510L-40 510" stroke="url(#paint8_linear_182_1053)" stroke-width="3"/>
<path d="M1040 570L-40 570" stroke="url(#paint9_linear_182_1053)" stroke-width="3"/>
</g>
<g opacity="0.66">
<path d="M950 870L950 -210" stroke="url(#paint10_linear_182_1053)" stroke-width="3"/>
<path d="M890 870L890 -210" stroke="url(#paint11_linear_182_1053)" stroke-width="3"/>
<path d="M830 870L830 -210" stroke="url(#paint12_linear_182_1053)" stroke-width="3"/>
<path d="M770 870L770 -210" stroke="url(#paint13_linear_182_1053)" stroke-width="3"/>
<path d="M710 870L710 -210" stroke="url(#paint14_linear_182_1053)" stroke-width="3"/>
<path d="M650 870L650 -210" stroke="url(#paint15_linear_182_1053)" stroke-width="3"/>
<path d="M590 870L590 -210" stroke="url(#paint16_linear_182_1053)" stroke-width="3"/>
<path d="M530 870L530 -210" stroke="url(#paint17_linear_182_1053)" stroke-width="3"/>
<path d="M470 870L470 -210" stroke="url(#paint18_linear_182_1053)" stroke-width="3"/>
<path d="M410 870L410 -210" stroke="url(#paint19_linear_182_1053)" stroke-width="3"/>
<path d="M350 870L350 -210" stroke="url(#paint20_linear_182_1053)" stroke-width="3"/>
<path d="M290 870L290 -210" stroke="url(#paint21_linear_182_1053)" stroke-width="3"/>
<path d="M230 870L230 -210" stroke="url(#paint22_linear_182_1053)" stroke-width="3"/>
<path d="M170 870L170 -210" stroke="url(#paint23_linear_182_1053)" stroke-width="3"/>
<path d="M110 870L110 -210" stroke="url(#paint24_linear_182_1053)" stroke-width="3"/>
<path d="M50.0001 870L50 -210" stroke="url(#paint25_linear_182_1053)" stroke-width="3"/>
</g>
<g filter="url(#filter0_d_182_1053)">
<rect x="334.53" y="212" width="560" height="148" transform="rotate(4.07991 334.53 212)" fill="white" shape-rendering="crispEdges"/>
<rect x="336.846" y="214.672" width="555" height="143" transform="rotate(4.07991 336.846 214.672)" stroke="black" stroke-width="5" shape-rendering="crispEdges"/>
<path d="M433.694 269.746L390.156 266.64L388.881 284.515L423.609 286.992L422.398 303.973L387.67 301.496L385.357 333.925L363.397 332.359L369.407 248.093L434.905 252.765L433.694 269.746ZM480.141 255.991C490.185 256.708 497.803 259.647 502.996 264.808C508.279 269.89 510.642 276.346 510.083 284.177C509.47 292.774 506.236 299.131 500.382 303.247C494.528 307.364 486.579 309.064 476.535 308.347L474.41 309.351L457.684 308.158L455.49 338.928L433.913 337.389L439.923 253.123L480.141 255.991ZM474.372 293.692C478.628 293.996 481.88 293.373 484.13 291.822C486.379 290.271 487.637 287.624 487.904 283.878C488.166 280.218 487.293 277.461 485.286 275.607C483.28 273.753 480.149 272.674 475.893 272.371L460.316 271.26L458.796 292.581L474.372 293.692ZM486.939 299.209L510.901 342.88L486.643 341.15L467.697 302.712L486.939 299.209ZM590.884 348.585L568.285 346.973L563.769 327.531L534.914 325.472L527.557 344.068L505.469 342.493L541.1 260.339L567.401 262.215L590.884 348.585ZM540.065 310.826L560.749 312.301L552.839 277.474L540.065 310.826ZM696.578 271.429L690.567 355.695L671.161 354.311L673.92 315.625L676.407 289.753L676.152 289.735L650.733 352.854L632.986 351.588L616.783 285.5L616.527 285.482L615.317 311.445L612.558 350.131L593.023 348.738L599.034 264.472L630.314 266.703L640.533 310.549L643.982 328.761L644.237 328.779L650.355 311.378L666.574 269.289L696.578 271.429ZM701.568 356.48L707.578 272.214L773.203 276.895L771.992 293.876L728.327 290.761L727.107 307.87L761.834 310.347L760.696 326.306L725.968 323.829L724.739 341.066L770.064 344.298L768.853 361.279L701.568 356.48ZM816.212 279.963C829.405 280.904 839.231 285.283 845.688 293.101C852.231 300.925 855.022 311.561 854.063 325.01C853.104 338.458 848.831 348.591 841.244 355.407C833.742 362.229 823.395 365.17 810.202 364.229L774.452 361.679L780.463 277.413L816.212 279.963ZM809.215 347.476C816.365 347.986 821.709 346.228 825.247 342.203C828.876 338.099 830.991 331.834 831.592 323.407C832.193 314.981 830.986 308.521 827.97 304.028C825.045 299.457 820.008 296.916 812.858 296.406L801.239 295.577L797.596 346.647L809.215 347.476Z" fill="#1C1BE2"/>
<rect x="323.902" y="200.693" width="21" height="21" transform="rotate(4.07991 323.902 200.693)" fill="#A9DEF7" stroke="#DE2BAE" stroke-width="3"/>
<rect x="882.153" y="240.579" width="21" height="21" transform="rotate(4.07991 882.153 240.579)" fill="white" stroke="#1C1BE2" stroke-width="3"/>
<rect x="873.011" y="388.723" width="21" height="21" transform="rotate(4.07991 873.011 388.723)" fill="white" stroke="#1C1BE2" stroke-width="3"/>
<rect x="313.372" y="348.318" width="21" height="21" transform="rotate(4.07991 313.372 348.318)" fill="white" stroke="#1C1BE2" stroke-width="3"/>
</g>
<g filter="url(#filter1_d_182_1053)">
<rect x="106" y="117.614" width="371" height="148" transform="rotate(-5.50852 106 117.614)" fill="#1C1BE2" shape-rendering="crispEdges"/>
<rect x="108.728" y="119.862" width="366" height="143" transform="rotate(-5.50852 108.728 119.862)" stroke="black" stroke-width="5" shape-rendering="crispEdges"/>
<path d="M171.011 229.892L138.693 148.136L162.009 145.888L182.681 210.892L191.313 143.062L211.189 141.145L232.995 205.911L240.621 138.307L263.172 136.132L246.946 222.569L223.121 224.866L209.251 185.054L203.451 164.91L203.196 164.934L201.479 185.803L195.601 227.52L171.011 229.892ZM288.026 133.735L296.135 217.825L274.221 219.938L266.111 135.848L288.026 133.735ZM339.162 128.803C349.185 127.837 357.187 129.466 363.166 133.69C369.223 137.821 372.628 143.794 373.382 151.608C374.209 160.187 372.079 166.993 366.992 172.028C361.905 177.062 354.35 180.062 344.328 181.029L342.4 182.372L325.709 183.982L328.67 214.687L307.138 216.764L299.029 132.674L339.162 128.803ZM339.754 166.939C344.001 166.529 347.104 165.373 349.064 163.469C351.023 161.565 351.823 158.745 351.463 155.008C351.11 151.355 349.791 148.782 347.503 147.288C345.216 145.794 341.949 145.252 337.702 145.661L322.158 147.161L324.21 168.438L339.754 166.939ZM353.065 170.284L383.966 209.355L359.758 211.689L334.675 176.945L353.065 170.284ZM387.336 209.03L379.227 124.94L444.715 118.624L446.349 135.569L402.775 139.772L404.422 156.844L439.077 153.502L440.613 169.428L405.957 172.771L407.616 189.971L452.846 185.609L454.481 202.554L387.336 209.03Z" fill="white"/>
<rect x="94.5406" y="108.17" width="21" height="21" transform="rotate(-5.50852 94.5406 108.17)" fill="white" stroke="#1C1BE2" stroke-width="3"/>
<rect x="462.831" y="72.6525" width="21" height="21" transform="rotate(-5.50852 462.831 72.6525)" fill="white" stroke="#1C1BE2" stroke-width="3"/>
<rect x="477.039" y="219.969" width="21" height="21" transform="rotate(-5.50852 477.039 219.969)" fill="white" stroke="#1C1BE2" stroke-width="3"/>
<rect x="108.748" y="255.487" width="21" height="21" transform="rotate(-5.50852 108.748 255.487)" fill="white" stroke="#1C1BE2" stroke-width="3"/>
</g>
<path d="M106 489L105 489L105 490L106 490L106 489ZM893 489L893 490L894 490L894 489L893 489ZM106.707 464.763C106.317 464.373 105.683 464.373 105.293 464.763L98.9289 471.127C98.5384 471.518 98.5384 472.151 98.9289 472.542C99.3195 472.932 99.9526 472.932 100.343 472.542L106 466.885L111.657 472.542C112.047 472.932 112.681 472.932 113.071 472.542C113.462 472.151 113.462 471.518 113.071 471.127L106.707 464.763ZM893.707 463.293C893.317 462.902 892.683 462.902 892.293 463.293L885.929 469.657C885.538 470.047 885.538 470.68 885.929 471.071C886.319 471.462 886.953 471.462 887.343 471.071L893 465.414L898.657 471.071C899.047 471.462 899.681 471.462 900.071 471.071C900.462 470.68 900.462 470.047 900.071 469.657L893.707 463.293ZM106 490L893 490L893 488L106 488L106 490ZM107 489L107 465.471L105 465.471L105 489L107 489ZM894 489L894 464L892 464L892 489L894 489Z" fill="#2928FB"/>
<rect x="364" y="518" width="271" height="38" rx="19" fill="white"/>
<rect x="364" y="518" width="271" height="38" rx="19" stroke="#1C1BE2" stroke-width="2"/>
<path d="M397.833 549.5C397.087 549.5 396.407 549.453 395.793 549.36C395.18 549.28 394.58 549.147 393.993 548.96C393.407 548.773 392.773 548.527 392.093 548.22C391.813 548.087 391.58 547.947 391.393 547.8C391.207 547.653 391.113 547.433 391.113 547.14C391.113 546.713 391.247 546.387 391.513 546.16C391.767 545.947 392.12 545.84 392.573 545.84C392.813 545.84 393.12 545.92 393.493 546.08C393.867 546.253 394.293 546.447 394.773 546.66C395.267 546.887 395.813 547.08 396.413 547.24C397.013 547.413 397.66 547.5 398.353 547.5C399.06 547.5 399.72 547.207 400.333 546.62C400.947 546.033 401.44 545.207 401.813 544.14C402.2 543.087 402.393 541.84 402.393 540.4C402.393 540.067 402.387 539.707 402.373 539.32C402.36 538.92 402.347 538.5 402.333 538.06C401.853 538.967 401.333 539.813 400.773 540.6C400.213 541.387 399.633 542.027 399.033 542.52C398.447 543 397.853 543.24 397.253 543.24C396.52 543.24 395.987 543.067 395.653 542.72C395.333 542.36 395.173 541.793 395.173 541.02C395.173 540.367 395.22 539.653 395.313 538.88C395.42 538.093 395.56 537.3 395.733 536.5C395.907 535.7 396.107 534.94 396.333 534.22C396.573 533.487 396.827 532.853 397.093 532.32C397.293 531.933 397.6 531.74 398.013 531.74C398.28 531.74 398.547 531.867 398.813 532.12C399.093 532.373 399.233 532.713 399.233 533.14C399.233 533.38 399.173 533.727 399.053 534.18C398.933 534.633 398.787 535.147 398.613 535.72C398.453 536.28 398.287 536.873 398.113 537.5C397.94 538.113 397.793 538.72 397.673 539.32C397.553 539.907 397.493 540.44 397.493 540.92C397.493 540.973 397.533 541 397.613 541C397.773 541 397.987 540.867 398.253 540.6C398.533 540.32 398.84 539.96 399.173 539.52C399.52 539.067 399.867 538.573 400.213 538.04C400.573 537.493 400.92 536.953 401.253 536.42C401.587 535.887 401.887 535.4 402.153 534.96C402.113 534.747 402.087 534.56 402.073 534.4C402.073 534.227 402.073 534.08 402.073 533.96C402.073 533.413 402.167 532.96 402.353 532.6C402.553 532.24 402.94 532.06 403.513 532.06C403.887 532.06 404.173 532.2 404.373 532.48C404.573 532.747 404.673 533.127 404.673 533.62C404.673 533.833 404.64 534.08 404.573 534.36C404.507 534.627 404.373 535.053 404.173 535.64L404.393 535.02C404.513 536.22 404.613 537.287 404.693 538.22C404.787 539.153 404.833 540.08 404.833 541C404.833 542.733 404.54 544.233 403.953 545.5C403.38 546.78 402.567 547.767 401.513 548.46C400.473 549.153 399.247 549.5 397.833 549.5ZM410.88 544.68C410.053 544.68 409.387 544.393 408.88 543.82C408.373 543.233 408.12 542.293 408.12 541C408.12 540.173 408.213 539.347 408.4 538.52C408.6 537.68 408.873 536.887 409.22 536.14C409.58 535.38 409.993 534.707 410.46 534.12C410.94 533.533 411.467 533.073 412.04 532.74C412.613 532.393 413.207 532.22 413.82 532.22C414.86 532.22 415.673 532.5 416.26 533.06C416.847 533.62 417.14 534.333 417.14 535.2C417.14 535.867 416.953 536.473 416.58 537.02C416.22 537.553 415.727 538.033 415.1 538.46C414.473 538.887 413.773 539.273 413 539.62C412.227 539.967 411.433 540.28 410.62 540.56C410.553 541.04 410.52 541.467 410.52 541.84C410.52 542.067 410.647 542.18 410.9 542.18C411.5 542.18 412.14 542.087 412.82 541.9C413.513 541.7 414.213 541.447 414.92 541.14C415.627 540.82 416.307 540.493 416.96 540.16C417.613 539.813 418.207 539.487 418.74 539.18C419.287 538.86 419.733 538.607 420.08 538.42C420.44 538.22 420.673 538.12 420.78 538.12C421.073 538.12 421.287 538.207 421.42 538.38C421.553 538.553 421.62 538.74 421.62 538.94C421.62 539.033 421.44 539.24 421.08 539.56C420.733 539.88 420.253 540.26 419.64 540.7C419.04 541.127 418.36 541.573 417.6 542.04C416.853 542.493 416.073 542.927 415.26 543.34C414.46 543.74 413.68 544.06 412.92 544.3C412.173 544.553 411.493 544.68 410.88 544.68ZM410.96 538.78C411.507 538.46 412.047 538.127 412.58 537.78C413.127 537.42 413.58 537.02 413.94 536.58C414.3 536.127 414.48 535.6 414.48 535C414.48 534.827 414.433 534.713 414.34 534.66C414.247 534.593 414.113 534.56 413.94 534.56C413.473 534.56 413.047 534.767 412.66 535.18C412.287 535.593 411.953 536.127 411.66 536.78C411.38 537.42 411.147 538.087 410.96 538.78ZM421.392 544.76C420.965 544.76 420.579 544.64 420.232 544.4C419.885 544.173 419.612 543.873 419.412 543.5C419.212 543.113 419.112 542.7 419.112 542.26C419.112 541.433 419.292 540.627 419.652 539.84C420.025 539.053 420.512 538.307 421.112 537.6C421.712 536.893 422.365 536.247 423.072 535.66C423.792 535.06 424.505 534.547 425.212 534.12C425.932 533.693 426.585 533.36 427.172 533.12C427.772 532.88 428.239 532.76 428.572 532.76C428.959 532.76 429.272 532.847 429.512 533.02C429.765 533.18 429.892 533.433 429.892 533.78C429.892 533.887 429.865 533.973 429.812 534.04C429.985 534.08 430.125 534.18 430.232 534.34C430.339 534.5 430.392 534.74 430.392 535.06C430.392 535.193 430.359 535.54 430.292 536.1C430.225 536.66 430.152 537.34 430.072 538.14C430.005 538.94 429.972 539.773 429.972 540.64C429.972 540.773 429.992 540.893 430.032 541C430.072 541.093 430.159 541.14 430.292 541.14C430.825 541.14 431.365 541.033 431.912 540.82C432.472 540.593 433.012 540.32 433.532 540C434.065 539.667 434.545 539.34 434.972 539.02C435.412 538.687 435.779 538.413 436.072 538.2C436.379 537.973 436.579 537.86 436.672 537.86C437.125 537.86 437.352 538.087 437.352 538.54C437.352 538.66 437.205 538.913 436.912 539.3C436.632 539.673 436.245 540.107 435.752 540.6C435.259 541.08 434.705 541.56 434.092 542.04C433.492 542.507 432.865 542.893 432.212 543.2C431.572 543.507 430.952 543.66 430.352 543.66C429.619 543.66 429.059 543.487 428.672 543.14C428.299 542.793 428.032 542.327 427.872 541.74C427.725 541.14 427.645 540.467 427.632 539.72C426.952 540.693 426.245 541.56 425.512 542.32C424.792 543.067 424.079 543.66 423.372 544.1C422.665 544.54 422.005 544.76 421.392 544.76ZM428.472 534.74C427.165 535.367 425.992 536.087 424.952 536.9C423.912 537.7 423.085 538.54 422.472 539.42C421.872 540.3 421.572 541.147 421.572 541.96C421.572 542.187 421.679 542.3 421.892 542.3C422.145 542.3 422.479 542.153 422.892 541.86C423.319 541.567 423.779 541.18 424.272 540.7C424.765 540.207 425.259 539.66 425.752 539.06C426.245 538.447 426.705 537.82 427.132 537.18C427.559 536.54 427.899 535.927 428.152 535.34C428.245 535.127 428.352 534.927 428.472 534.74ZM436.658 544.88C436.324 544.88 436.038 544.76 435.798 544.52C435.571 544.28 435.458 543.933 435.458 543.48C435.458 543.28 435.484 542.953 435.538 542.5C435.604 542.033 435.684 541.5 435.778 540.9C435.884 540.3 435.984 539.673 436.078 539.02C436.184 538.367 436.271 537.747 436.338 537.16C436.418 536.573 436.471 536.073 436.498 535.66C436.524 535.153 436.658 534.793 436.898 534.58C437.138 534.353 437.424 534.24 437.758 534.24C438.024 534.24 438.264 534.307 438.478 534.44C438.704 534.56 438.844 534.82 438.898 535.22C438.964 535.607 438.971 536.167 438.918 536.9C439.504 535.833 440.098 534.88 440.698 534.04C441.311 533.2 441.951 532.533 442.618 532.04C443.724 531.2 444.724 530.78 445.618 530.78C446.124 530.78 446.458 530.893 446.618 531.12C446.778 531.347 446.858 531.58 446.858 531.82C446.858 531.98 446.818 532.127 446.738 532.26C446.671 532.393 446.524 532.533 446.298 532.68C446.071 532.827 445.724 533.02 445.258 533.26C444.631 533.58 444.011 534 443.398 534.52C442.798 535.04 442.198 535.707 441.598 536.52C440.998 537.333 440.391 538.333 439.778 539.52C439.164 540.707 438.531 542.12 437.878 543.76C437.758 544.213 437.584 544.513 437.358 544.66C437.144 544.807 436.911 544.88 436.658 544.88ZM458.81 544.68C457.983 544.68 457.317 544.393 456.81 543.82C456.303 543.233 456.05 542.293 456.05 541C456.05 540.173 456.143 539.347 456.33 538.52C456.53 537.68 456.803 536.887 457.15 536.14C457.51 535.38 457.923 534.707 458.39 534.12C458.87 533.533 459.397 533.073 459.97 532.74C460.543 532.393 461.137 532.22 461.75 532.22C462.79 532.22 463.603 532.5 464.19 533.06C464.777 533.62 465.07 534.333 465.07 535.2C465.07 535.867 464.883 536.473 464.51 537.02C464.15 537.553 463.657 538.033 463.03 538.46C462.403 538.887 461.703 539.273 460.93 539.62C460.157 539.967 459.363 540.28 458.55 540.56C458.483 541.04 458.45 541.467 458.45 541.84C458.45 542.067 458.577 542.18 458.83 542.18C459.43 542.18 460.07 542.087 460.75 541.9C461.443 541.7 462.143 541.447 462.85 541.14C463.557 540.82 464.237 540.493 464.89 540.16C465.543 539.813 466.137 539.487 466.67 539.18C467.217 538.86 467.663 538.607 468.01 538.42C468.37 538.22 468.603 538.12 468.71 538.12C469.003 538.12 469.217 538.207 469.35 538.38C469.483 538.553 469.55 538.74 469.55 538.94C469.55 539.033 469.37 539.24 469.01 539.56C468.663 539.88 468.183 540.26 467.57 540.7C466.97 541.127 466.29 541.573 465.53 542.04C464.783 542.493 464.003 542.927 463.19 543.34C462.39 543.74 461.61 544.06 460.85 544.3C460.103 544.553 459.423 544.68 458.81 544.68ZM458.89 538.78C459.437 538.46 459.977 538.127 460.51 537.78C461.057 537.42 461.51 537.02 461.87 536.58C462.23 536.127 462.41 535.6 462.41 535C462.41 534.827 462.363 534.713 462.27 534.66C462.177 534.593 462.043 534.56 461.87 534.56C461.403 534.56 460.977 534.767 460.59 535.18C460.217 535.593 459.883 536.127 459.59 536.78C459.31 537.42 459.077 538.087 458.89 538.78ZM470.085 544C469.765 544 469.445 543.893 469.125 543.68C468.818 543.453 468.565 543.133 468.365 542.72C468.165 542.293 468.065 541.78 468.065 541.18C468.065 540.38 468.171 539.527 468.385 538.62C468.611 537.713 468.885 536.807 469.205 535.9C469.525 534.993 469.838 534.14 470.145 533.34C470.291 532.953 470.471 532.693 470.685 532.56C470.898 532.413 471.178 532.34 471.525 532.34C472.311 532.34 472.705 532.733 472.705 533.52C472.705 533.653 472.645 533.913 472.525 534.3C472.405 534.673 472.245 535.133 472.045 535.68C471.858 536.227 471.658 536.82 471.445 537.46C471.245 538.087 471.058 538.727 470.885 539.38C470.725 540.02 470.598 540.627 470.505 541.2C470.811 540.733 471.151 540.153 471.525 539.46C471.911 538.753 472.318 538.013 472.745 537.24C473.185 536.467 473.625 535.747 474.065 535.08C474.505 534.4 474.938 533.847 475.365 533.42C475.791 532.993 476.198 532.78 476.585 532.78C476.918 532.78 477.231 532.847 477.525 532.98C477.831 533.1 478.098 533.34 478.325 533.7C478.551 534.047 478.725 534.547 478.845 535.2C478.978 535.853 479.045 536.713 479.045 537.78C479.045 538.313 479.091 538.833 479.185 539.34C479.291 539.833 479.465 540.247 479.705 540.58C479.945 540.9 480.285 541.06 480.725 541.06C481.485 541.06 482.165 540.92 482.765 540.64C483.365 540.36 483.891 540.033 484.345 539.66C484.798 539.287 485.178 538.96 485.485 538.68C485.671 538.493 485.831 538.347 485.965 538.24C486.111 538.133 486.231 538.08 486.325 538.08C486.605 538.08 486.805 538.153 486.925 538.3C487.058 538.447 487.125 538.647 487.125 538.9C487.125 539.033 487.011 539.28 486.785 539.64C486.558 540 486.238 540.413 485.825 540.88C485.425 541.333 484.965 541.773 484.445 542.2C483.925 542.627 483.365 542.98 482.765 543.26C482.165 543.54 481.551 543.68 480.925 543.68C479.871 543.68 478.998 543.493 478.305 543.12C477.625 542.733 477.118 542.093 476.785 541.2C476.451 540.293 476.285 539.06 476.285 537.5C476.285 537.46 476.285 537.393 476.285 537.3C476.285 536.887 476.278 536.52 476.265 536.2C476.265 535.88 476.245 535.62 476.205 535.42C475.978 535.833 475.705 536.327 475.385 536.9C475.078 537.473 474.745 538.087 474.385 538.74C474.025 539.38 473.651 540.013 473.265 540.64C472.878 541.253 472.491 541.813 472.105 542.32C471.731 542.827 471.371 543.233 471.025 543.54C470.678 543.847 470.365 544 470.085 544ZM493.565 533.3C494.299 531.553 494.945 529.753 495.505 527.9C495.612 527.527 495.765 527.24 495.965 527.04C496.179 526.84 496.472 526.74 496.845 526.74C497.152 526.74 497.385 526.833 497.545 527.02C497.705 527.193 497.785 527.433 497.785 527.74C497.785 527.993 497.679 528.447 497.465 529.1C497.252 529.74 496.992 530.553 496.685 531.54C496.379 532.527 496.072 533.667 495.765 534.96C495.459 536.253 495.199 537.673 494.985 539.22C494.772 540.767 494.665 542.42 494.665 544.18C494.665 544.66 494.572 545.053 494.385 545.36C494.212 545.68 493.905 545.84 493.465 545.84C492.985 545.84 492.632 545.673 492.405 545.34C492.192 545.007 492.085 544.58 492.085 544.06C492.085 543.033 492.119 542.18 492.185 541.5C492.265 540.807 492.345 540.213 492.425 539.72C491.772 540.84 491.079 541.807 490.345 542.62C489.625 543.42 488.932 544.033 488.265 544.46C487.599 544.9 487.025 545.12 486.545 545.12C485.759 545.12 485.119 544.9 484.625 544.46C484.132 544.02 483.885 543.353 483.885 542.46C483.885 541.767 484.052 541.053 484.385 540.32C484.719 539.573 485.159 538.84 485.705 538.12C486.252 537.4 486.852 536.727 487.505 536.1C488.172 535.46 488.839 534.9 489.505 534.42C490.172 533.927 490.792 533.54 491.365 533.26C491.939 532.98 492.405 532.84 492.765 532.84C493.165 532.84 493.432 532.993 493.565 533.3ZM493.105 534.38C493.025 534.433 492.939 534.487 492.845 534.54C492.765 534.58 492.685 534.627 492.605 534.68C492.099 535 491.559 535.387 490.985 535.84C490.412 536.28 489.845 536.773 489.285 537.32C488.725 537.853 488.212 538.413 487.745 539C487.292 539.573 486.925 540.147 486.645 540.72C486.379 541.28 486.245 541.82 486.245 542.34C486.245 542.433 486.285 542.5 486.365 542.54C486.445 542.58 486.519 542.6 486.585 542.6C487.052 542.6 487.552 542.393 488.085 541.98C488.632 541.567 489.185 540.993 489.745 540.26C490.319 539.513 490.885 538.64 491.445 537.64C492.019 536.64 492.572 535.553 493.105 534.38ZM511.666 544.88C511.386 544.88 511.12 544.82 510.866 544.7C510.613 544.58 510.386 544.347 510.186 544C509.986 543.667 509.826 543.173 509.706 542.52C509.586 541.853 509.526 540.973 509.526 539.88C509.526 538.853 509.58 537.873 509.686 536.94C509.793 535.993 509.946 535.153 510.146 534.42C510.346 533.673 510.586 533.087 510.866 532.66C511.146 532.22 511.46 532 511.806 532C512.113 532 512.366 532.147 512.566 532.44C512.766 532.733 512.866 533.153 512.866 533.7C512.866 534.127 512.813 534.687 512.706 535.38C512.613 536.073 512.5 536.82 512.366 537.62C512.233 538.407 512.113 539.173 512.006 539.92C511.913 540.653 511.866 541.28 511.866 541.8C511.866 541.893 511.88 541.987 511.906 542.08C511.933 542.16 511.973 542.2 512.026 542.2C512.106 542.2 512.24 542.007 512.426 541.62C512.613 541.233 512.84 540.727 513.106 540.1C513.386 539.46 513.686 538.767 514.006 538.02C514.34 537.273 514.686 536.54 515.046 535.82C515.42 535.087 515.793 534.433 516.166 533.86C516.486 533.367 516.866 532.987 517.306 532.72C517.746 532.453 518.153 532.32 518.526 532.32C518.86 532.32 519.186 532.407 519.506 532.58C519.84 532.753 520.113 533.013 520.326 533.36C520.54 533.707 520.646 534.14 520.646 534.66C520.646 534.86 520.62 535.193 520.566 535.66C520.526 536.113 520.473 536.633 520.406 537.22C520.34 537.793 520.273 538.373 520.206 538.96C520.14 539.533 520.08 540.047 520.026 540.5C519.986 540.953 519.966 541.273 519.966 541.46C519.966 541.487 519.966 541.52 519.966 541.56C519.966 541.707 519.973 541.853 519.986 542C520 542.133 520.04 542.2 520.106 542.2C520.253 542.2 520.44 542.033 520.666 541.7C520.906 541.353 521.173 540.893 521.466 540.32C521.773 539.747 522.093 539.107 522.426 538.4C522.76 537.693 523.1 536.967 523.446 536.22C523.806 535.46 524.16 534.74 524.506 534.06C524.773 533.487 525 533.127 525.186 532.98C525.373 532.82 525.553 532.74 525.726 532.74C525.966 532.74 526.22 532.86 526.486 533.1C526.753 533.34 526.886 533.713 526.886 534.22C526.886 534.393 526.88 534.567 526.866 534.74C526.853 534.913 526.806 535.093 526.726 535.28C526.193 536.627 525.64 537.873 525.066 539.02C524.506 540.153 523.946 541.14 523.386 541.98C522.826 542.82 522.286 543.473 521.766 543.94C521.246 544.407 520.76 544.64 520.306 544.64C519.373 544.64 518.653 544.393 518.146 543.9C517.653 543.393 517.406 542.713 517.406 541.86C517.406 541.54 517.426 541.133 517.466 540.64C517.506 540.133 517.553 539.587 517.606 539C517.673 538.4 517.74 537.807 517.806 537.22C517.873 536.633 517.94 536.093 518.006 535.6C518.033 535.413 518 535.293 517.906 535.24C517.826 535.187 517.753 535.247 517.686 535.42C517.513 535.873 517.326 536.367 517.126 536.9C516.926 537.433 516.74 537.9 516.566 538.3C516.286 538.967 515.96 539.68 515.586 540.44C515.226 541.2 514.833 541.92 514.406 542.6C513.98 543.267 513.533 543.813 513.066 544.24C512.6 544.667 512.133 544.88 511.666 544.88ZM529.255 544.88C528.922 544.88 528.635 544.76 528.395 544.52C528.169 544.28 528.055 543.933 528.055 543.48C528.055 543.28 528.082 542.953 528.135 542.5C528.202 542.033 528.282 541.5 528.375 540.9C528.482 540.3 528.582 539.673 528.675 539.02C528.782 538.367 528.869 537.747 528.935 537.16C529.015 536.573 529.069 536.073 529.095 535.66C529.122 535.153 529.255 534.793 529.495 534.58C529.735 534.353 530.022 534.24 530.355 534.24C530.622 534.24 530.862 534.307 531.075 534.44C531.302 534.56 531.442 534.82 531.495 535.22C531.562 535.607 531.569 536.167 531.515 536.9C532.102 535.833 532.695 534.88 533.295 534.04C533.909 533.2 534.549 532.533 535.215 532.04C536.322 531.2 537.322 530.78 538.215 530.78C538.722 530.78 539.055 530.893 539.215 531.12C539.375 531.347 539.455 531.58 539.455 531.82C539.455 531.98 539.415 532.127 539.335 532.26C539.269 532.393 539.122 532.533 538.895 532.68C538.669 532.827 538.322 533.02 537.855 533.26C537.229 533.58 536.609 534 535.995 534.52C535.395 535.04 534.795 535.707 534.195 536.52C533.595 537.333 532.989 538.333 532.375 539.52C531.762 540.707 531.129 542.12 530.475 543.76C530.355 544.213 530.182 544.513 529.955 544.66C529.742 544.807 529.509 544.88 529.255 544.88ZM538.794 544.76C538.368 544.76 537.981 544.64 537.634 544.4C537.288 544.173 537.014 543.873 536.814 543.5C536.614 543.113 536.514 542.7 536.514 542.26C536.514 541.433 536.694 540.627 537.054 539.84C537.428 539.053 537.914 538.307 538.514 537.6C539.114 536.893 539.768 536.247 540.474 535.66C541.194 535.06 541.908 534.547 542.614 534.12C543.334 533.693 543.988 533.36 544.574 533.12C545.174 532.88 545.641 532.76 545.974 532.76C546.361 532.76 546.674 532.847 546.914 533.02C547.168 533.18 547.294 533.433 547.294 533.78C547.294 533.887 547.268 533.973 547.214 534.04C547.388 534.08 547.528 534.18 547.634 534.34C547.741 534.5 547.794 534.74 547.794 535.06C547.794 535.193 547.761 535.54 547.694 536.1C547.628 536.66 547.554 537.34 547.474 538.14C547.408 538.94 547.374 539.773 547.374 540.64C547.374 540.773 547.394 540.893 547.434 541C547.474 541.093 547.561 541.14 547.694 541.14C548.228 541.14 548.768 541.033 549.314 540.82C549.874 540.593 550.414 540.32 550.934 540C551.468 539.667 551.948 539.34 552.374 539.02C552.814 538.687 553.181 538.413 553.474 538.2C553.781 537.973 553.981 537.86 554.074 537.86C554.528 537.86 554.754 538.087 554.754 538.54C554.754 538.66 554.608 538.913 554.314 539.3C554.034 539.673 553.648 540.107 553.154 540.6C552.661 541.08 552.108 541.56 551.494 542.04C550.894 542.507 550.268 542.893 549.614 543.2C548.974 543.507 548.354 543.66 547.754 543.66C547.021 543.66 546.461 543.487 546.074 543.14C545.701 542.793 545.434 542.327 545.274 541.74C545.128 541.14 545.048 540.467 545.034 539.72C544.354 540.693 543.648 541.56 542.914 542.32C542.194 543.067 541.481 543.66 540.774 544.1C540.068 544.54 539.408 544.76 538.794 544.76ZM545.874 534.74C544.568 535.367 543.394 536.087 542.354 536.9C541.314 537.7 540.488 538.54 539.874 539.42C539.274 540.3 538.974 541.147 538.974 541.96C538.974 542.187 539.081 542.3 539.294 542.3C539.548 542.3 539.881 542.153 540.294 541.86C540.721 541.567 541.181 541.18 541.674 540.7C542.168 540.207 542.661 539.66 543.154 539.06C543.648 538.447 544.108 537.82 544.534 537.18C544.961 536.54 545.301 535.927 545.554 535.34C545.648 535.127 545.754 534.927 545.874 534.74ZM553.529 550.42C553.156 550.42 552.863 550.287 552.649 550.02C552.449 549.767 552.349 549.373 552.349 548.84C552.349 548.107 552.416 547.233 552.549 546.22C552.683 545.207 552.863 544.133 553.089 543C553.316 541.867 553.563 540.753 553.829 539.66C554.149 538.407 554.463 537.267 554.769 536.24C555.089 535.213 555.409 534.393 555.729 533.78C556.063 533.153 556.396 532.84 556.729 532.84C557.036 532.84 557.303 532.953 557.529 533.18C557.769 533.393 557.889 533.713 557.889 534.14C557.889 534.447 557.809 534.887 557.649 535.46C557.489 536.02 557.289 536.72 557.049 537.56C557.503 536.813 557.969 536.08 558.449 535.36C558.943 534.64 559.443 533.987 559.949 533.4C560.456 532.813 560.949 532.347 561.429 532C561.909 531.653 562.363 531.48 562.789 531.48C563.296 531.48 563.743 531.627 564.129 531.92C564.529 532.213 564.843 532.613 565.069 533.12C565.296 533.627 565.409 534.2 565.409 534.84C565.409 536.027 565.196 537.18 564.769 538.3C564.343 539.407 563.749 540.4 562.989 541.28C562.243 542.16 561.369 542.86 560.369 543.38C559.369 543.887 558.289 544.14 557.129 544.14C556.796 544.14 556.489 544.107 556.209 544.04C555.943 543.987 555.696 543.92 555.469 543.84C555.309 544.693 555.156 545.567 555.009 546.46C554.876 547.367 554.736 548.32 554.589 549.32C554.429 550.053 554.076 550.42 553.529 550.42ZM562.989 533.84C562.696 533.84 562.323 534.04 561.869 534.44C561.429 534.84 560.949 535.367 560.429 536.02C559.909 536.66 559.383 537.36 558.849 538.12C558.329 538.867 557.829 539.6 557.349 540.32C556.883 541.04 556.483 541.667 556.149 542.2C557.163 542.093 558.056 541.827 558.829 541.4C559.603 540.96 560.263 540.427 560.809 539.8C561.356 539.173 561.796 538.513 562.129 537.82C562.476 537.113 562.729 536.427 562.889 535.76C563.049 535.093 563.129 534.513 563.129 534.02C563.129 533.9 563.083 533.84 562.989 533.84ZM569.756 537.3C569.236 537.3 568.809 537.2 568.476 537C568.156 536.8 567.996 536.467 567.996 536C567.996 535.867 568.189 535.7 568.576 535.5C568.962 535.287 569.489 535.08 570.156 534.88C570.836 534.667 571.616 534.493 572.496 534.36C573.376 534.213 574.302 534.14 575.276 534.14C576.089 534.14 576.649 534.24 576.956 534.44C577.276 534.64 577.436 534.973 577.436 535.44C577.436 535.627 577.222 535.827 576.796 536.04C576.369 536.253 575.789 536.46 575.056 536.66C574.322 536.847 573.496 537 572.576 537.12C571.669 537.24 570.729 537.3 569.756 537.3ZM587.513 544.9C587.206 544.9 586.926 544.773 586.673 544.52C586.433 544.28 586.313 543.873 586.313 543.3C586.313 542.873 586.346 542.28 586.413 541.52C586.493 540.747 586.639 539.753 586.853 538.54C586.386 539.5 585.899 540.353 585.393 541.1C584.886 541.847 584.386 542.433 583.893 542.86C583.413 543.273 582.953 543.48 582.513 543.48C581.806 543.48 581.246 543.267 580.833 542.84C580.419 542.4 580.213 541.58 580.213 540.38C580.213 539.807 580.259 539.16 580.353 538.44C580.459 537.72 580.593 537 580.753 536.28C580.913 535.56 581.073 534.92 581.233 534.36C581.406 533.787 581.559 533.36 581.693 533.08C581.799 532.84 581.933 532.653 582.093 532.52C582.266 532.387 582.486 532.32 582.753 532.32C583.179 532.32 583.506 532.46 583.733 532.74C583.959 533.02 584.073 533.307 584.073 533.6C584.073 533.827 584.019 534.153 583.913 534.58C583.819 535.007 583.699 535.48 583.553 536C583.419 536.52 583.279 537.053 583.133 537.6C582.986 538.147 582.859 538.66 582.753 539.14C582.659 539.62 582.613 540.027 582.613 540.36C582.613 540.773 582.773 540.98 583.093 540.98C583.279 540.98 583.519 540.8 583.813 540.44C584.119 540.08 584.439 539.6 584.773 539C585.119 538.387 585.466 537.72 585.813 537C586.173 536.267 586.499 535.527 586.793 534.78C587.099 534.02 587.359 533.32 587.573 532.68C587.706 532.28 587.886 532 588.113 531.84C588.339 531.68 588.599 531.6 588.893 531.6C589.346 531.6 589.693 531.727 589.933 531.98C590.186 532.233 590.313 532.593 590.313 533.06C590.313 533.273 590.279 533.633 590.213 534.14C590.146 534.647 590.059 535.24 589.953 535.92C589.859 536.6 589.746 537.32 589.613 538.08C589.479 538.84 589.346 539.587 589.213 540.32C589.093 541.053 588.973 541.727 588.853 542.34C588.733 542.94 588.633 543.42 588.553 543.78C588.419 544.313 588.259 544.633 588.073 544.74C587.886 544.847 587.699 544.9 587.513 544.9ZM593.041 550.42C592.668 550.42 592.374 550.287 592.161 550.02C591.961 549.767 591.861 549.373 591.861 548.84C591.861 548.107 591.928 547.233 592.061 546.22C592.194 545.207 592.374 544.133 592.601 543C592.828 541.867 593.074 540.753 593.341 539.66C593.661 538.407 593.974 537.267 594.281 536.24C594.601 535.213 594.921 534.393 595.241 533.78C595.574 533.153 595.908 532.84 596.241 532.84C596.548 532.84 596.814 532.953 597.041 533.18C597.281 533.393 597.401 533.713 597.401 534.14C597.401 534.447 597.321 534.887 597.161 535.46C597.001 536.02 596.801 536.72 596.561 537.56C597.014 536.813 597.481 536.08 597.961 535.36C598.454 534.64 598.954 533.987 599.461 533.4C599.968 532.813 600.461 532.347 600.941 532C601.421 531.653 601.874 531.48 602.301 531.48C602.808 531.48 603.254 531.627 603.641 531.92C604.041 532.213 604.354 532.613 604.581 533.12C604.808 533.627 604.921 534.2 604.921 534.84C604.921 536.027 604.708 537.18 604.281 538.3C603.854 539.407 603.261 540.4 602.501 541.28C601.754 542.16 600.881 542.86 599.881 543.38C598.881 543.887 597.801 544.14 596.641 544.14C596.308 544.14 596.001 544.107 595.721 544.04C595.454 543.987 595.208 543.92 594.981 543.84C594.821 544.693 594.668 545.567 594.521 546.46C594.388 547.367 594.248 548.32 594.101 549.32C593.941 550.053 593.588 550.42 593.041 550.42ZM602.501 533.84C602.208 533.84 601.834 534.04 601.381 534.44C600.941 534.84 600.461 535.367 599.941 536.02C599.421 536.66 598.894 537.36 598.361 538.12C597.841 538.867 597.341 539.6 596.861 540.32C596.394 541.04 595.994 541.667 595.661 542.2C596.674 542.093 597.568 541.827 598.341 541.4C599.114 540.96 599.774 540.427 600.321 539.8C600.868 539.173 601.308 538.513 601.641 537.82C601.988 537.113 602.241 536.427 602.401 535.76C602.561 535.093 602.641 534.513 602.641 534.02C602.641 533.9 602.594 533.84 602.501 533.84Z" fill="#1C1BE2"/>
<path d="M97.6247 65H72.3753C69.9589 65 68 66.3431 68 68C68 69.6569 69.9589 71 72.3753 71H97.6247C100.041 71 102 69.6569 102 68C102 66.3431 100.041 65 97.6247 65Z" fill="#0029FF"/>
<path d="M88 55.2466C88 52.9013 86.6569 51 85 51C83.3431 51 82 52.9013 82 55.2466V79.7534C82 82.0987 83.3431 84 85 84C86.6569 84 88 82.0987 88 79.7534V55.2466Z" fill="#0029FF"/>
<path d="M937.625 185H912.375C909.959 185 908 186.343 908 188C908 189.657 909.959 191 912.375 191H937.625C940.041 191 942 189.657 942 188C942 186.343 940.041 185 937.625 185Z" fill="#0029FF"/>
<path d="M928 175.247C928 172.901 926.657 171 925 171C923.343 171 922 172.901 922 175.247V199.753C922 202.099 923.343 204 925 204C926.657 204 928 202.099 928 199.753V175.247Z" fill="#0029FF"/>
<path d="M416.511 463.445C417.783 463.469 418.776 463.436 419.781 463.492C422.492 463.427 440.27 462.033 442.916 461.432C445.996 460.686 448.542 459.282 450.306 456.705C450.541 456.404 450.586 456.036 450.731 455.746C451.234 454.686 451.837 454.43 452.807 454.944C453.399 455.324 453.99 455.703 454.603 456.262C456.176 457.97 456.643 460.269 456.284 462.49C455.632 470.368 448.968 472.919 442.271 473.752C438.611 474.207 426.301 475.102 422.574 475.022C418.579 474.975 414.651 474.738 410.711 475.137C409.193 475.325 408.357 474.432 408.101 473.104C407.49 468.919 407.984 464.868 409.761 460.93C410.812 458.442 412.788 456.836 414.854 455.22L417.321 453.19C417.734 452.867 418.147 452.544 418.561 452.22C425.148 447.593 437.776 437.592 441.754 430.207C443.307 427.385 445.11 417.822 439.329 418.722C433.994 419.567 429.839 424.798 429.4 430.02C429.254 431.035 429.477 432.096 429.699 433.156C429.933 434.306 430.412 435.243 431.572 435.824C431.762 435.892 431.963 436.048 432.074 436.215C432.028 438.76 429.727 441.403 427.729 442.105C422.338 443.954 419.383 439.878 419.383 439.878C418.881 440.213 418.368 440.458 417.743 440.536C415.689 440.791 413.503 439.249 413.024 437.586C409.639 426.402 421.812 412.74 432.984 410.716C436.623 410.083 440.361 410.253 443.864 411.449C448.595 413.037 452.153 416.13 453.756 421.008C454.948 424.759 454.611 428.608 453.258 432.313C447.298 449.282 430.133 452.686 417.572 462.497C417.237 462.72 417.002 463.022 416.511 463.445ZM456.809 447.284C455.766 438.166 457.803 429.753 462.283 422.034C466.361 414.727 473.698 407.378 482.325 406.033C489.814 405.011 495.86 408.43 499.27 415.441C501.209 419.37 502.088 423.522 502.264 427.852C502.561 433.89 501.463 439.647 499.128 444.924C496.456 451.149 491.63 459.728 485.646 463.373C484.708 463.852 483.904 464.677 483.156 465.224C480.968 466.584 478.735 467.587 476.324 467.886C471.771 468.452 467.543 466.53 464.331 463.303C459.714 458.981 457.575 453.444 456.809 447.284ZM491.2 417.623C490.587 416.339 490.231 414.932 489.429 413.582C488.715 412.22 487.22 411.862 485.68 412.597C483.347 413.522 480.063 417.738 478.856 419.701C472.544 430.187 468.91 441.79 468.812 454.133C468.788 456.13 469.211 458.072 469.913 460.07C470.659 462.425 471.797 463.553 473.404 463.354C476.35 462.987 479.377 458.894 480.918 456.708C484.292 451.755 486.316 446.154 488.428 440.542C490.754 434.451 491.888 423.884 491.2 417.623ZM506.59 452.247C507.862 452.27 508.855 452.237 509.859 452.294C512.571 452.228 530.349 450.834 532.995 450.233C536.075 449.488 538.62 448.083 540.385 445.507C540.62 445.206 540.665 444.837 540.81 444.547C541.313 443.487 541.916 443.231 542.886 443.745C543.477 444.125 544.069 444.505 544.682 445.063C546.254 446.772 546.722 449.071 546.363 451.291C545.71 459.17 539.047 461.721 532.35 462.553C528.69 463.008 516.38 463.904 512.653 463.823C508.658 463.776 504.73 463.539 500.79 463.938C499.272 464.127 498.436 463.233 498.18 461.905C497.569 457.72 498.063 453.669 499.84 449.731C500.891 447.243 502.867 445.638 504.933 444.021L507.4 441.992C507.813 441.668 508.226 441.345 508.639 441.022C515.227 436.395 527.855 426.393 531.833 419.008C533.386 416.186 535.189 406.623 529.408 407.523C524.073 408.368 519.918 413.599 519.479 418.821C519.333 419.837 519.556 420.897 519.778 421.957C520.012 423.107 520.491 424.045 521.651 424.626C521.841 424.693 522.042 424.849 522.153 425.017C522.107 427.561 519.806 430.204 517.808 430.906C512.417 432.755 509.462 428.68 509.462 428.68C508.96 429.014 508.447 429.259 507.822 429.337C505.768 429.592 503.582 428.051 503.103 426.388C499.718 415.204 511.891 401.541 523.063 399.518C526.702 398.884 530.44 399.054 533.943 400.25C538.674 401.838 542.232 404.932 543.835 409.81C545.027 413.56 544.689 417.41 543.337 421.114C537.377 438.084 520.212 441.487 507.651 451.299C507.316 451.522 507.081 451.823 506.59 452.247ZM556.411 430.278C557.147 430.367 557.694 430.39 558.42 430.39C560.774 430.37 566.411 429.034 568.755 428.199C569.358 427.943 569.592 427.642 569.782 426.983C572.723 417.823 575.765 408.741 578.628 399.682C578.963 398.733 579.131 397.897 579.377 396.959L579.959 394.348C580.138 393.601 580.451 393.199 581.244 393.01C582.471 392.676 583.743 392.699 585.049 392.99C587.37 393.427 589.255 394.734 591.14 396.041C591.742 396.51 591.909 397.124 591.741 397.961C591.607 398.34 591.64 398.608 591.428 399.088C584.442 415.822 578.435 436.787 575.232 454.774C574.862 456.905 573.969 457.742 571.681 457.573C569.951 457.516 568.267 457.091 566.716 456.286C564.675 455.18 563.627 453.316 563.885 451.017C564.099 448.361 564.759 445.65 565.241 442.961C565.387 441.945 565.789 440.807 566.069 439.413C564.584 439.869 563.267 440.214 561.961 440.648C550.053 442.582 545.847 440.839 544.447 431.765C543.98 428.74 556.159 407.099 559.991 400.004C560.572 398.844 561.075 397.784 561.745 396.613C562.181 395.743 563.03 395.275 564.023 395.242C567.281 395.199 569.97 397.132 571.832 399.711C572.612 400.883 572.555 401.887 571.796 403.07C566.97 410.197 559.563 422.814 556.88 428.95C556.746 429.329 556.612 429.709 556.411 430.278Z" fill="black"/>
</g>
<defs>
<filter id="filter0_d_182_1053" x="300.875" y="199.091" width="633.228" height="254.076" filterUnits="userSpaceOnUse" color-interpolation-filters="sRGB">
<feFlood flood-opacity="0" result="BackgroundImageFix"/>
<feColorMatrix in="SourceAlpha" type="matrix" values="0 0 0 0 0 0 0 0 0 0 0 0 0 0 0 0 0 0 127 0" result="hardAlpha"/>
<feOffset dx="10" dy="21"/>
<feGaussianBlur stdDeviation="9.7"/>
<feComposite in2="hardAlpha" operator="out"/>
<feColorMatrix type="matrix" values="0 0 0 0 0 0 0 0 0 0 0 0 0 0 0 0 0 0 0.17 0"/>
<feBlend mode="normal" in2="BackgroundImageFix" result="effect1_dropShadow_182_1053"/>
<feBlend mode="normal" in="SourceGraphic" in2="effect1_dropShadow_182_1053" result="shape"/>
</filter>
<filter id="filter1_d_182_1053" x="88.9034" y="68.9995" width="416.691" height="221.027" filterUnits="userSpaceOnUse" color-interpolation-filters="sRGB">
<feFlood flood-opacity="0" result="BackgroundImageFix"/>
<feColorMatrix in="SourceAlpha" type="matrix" values="0 0 0 0 0 0 0 0 0 0 0 0 0 0 0 0 0 0 127 0" result="hardAlpha"/>
<feOffset dy="8"/>
<feGaussianBlur stdDeviation="2"/>
<feComposite in2="hardAlpha" operator="out"/>
<feColorMatrix type="matrix" values="0 0 0 0 0 0 0 0 0 0 0 0 0 0 0 0 0 0 0.25 0"/>
<feBlend mode="normal" in2="BackgroundImageFix" result="effect1_dropShadow_182_1053"/>
<feBlend mode="normal" in="SourceGraphic" in2="effect1_dropShadow_182_1053" result="shape"/>
</filter>
<linearGradient id="paint0_linear_182_1053" x1="500" y1="30" x2="500" y2="31" gradientUnits="userSpaceOnUse">
<stop stop-color="white" stop-opacity="0"/>
<stop offset="0.5"/>
<stop offset="1" stop-color="white" stop-opacity="0"/>
</linearGradient>
<linearGradient id="paint1_linear_182_1053" x1="500" y1="90" x2="500" y2="91" gradientUnits="userSpaceOnUse">
<stop stop-color="white" stop-opacity="0"/>
<stop offset="0.5"/>
<stop offset="1" stop-color="white" stop-opacity="0"/>
</linearGradient>
<linearGradient id="paint2_linear_182_1053" x1="500" y1="150" x2="500" y2="151" gradientUnits="userSpaceOnUse">
<stop stop-color="white" stop-opacity="0"/>
<stop offset="0.5"/>
<stop offset="1" stop-color="white" stop-opacity="0"/>
</linearGradient>
<linearGradient id="paint3_linear_182_1053" x1="500" y1="210" x2="500" y2="211" gradientUnits="userSpaceOnUse">
<stop stop-color="white" stop-opacity="0"/>
<stop offset="0.5"/>
<stop offset="1" stop-color="white" stop-opacity="0"/>
</linearGradient>
<linearGradient id="paint4_linear_182_1053" x1="500" y1="270" x2="500" y2="271" gradientUnits="userSpaceOnUse">
<stop stop-color="white" stop-opacity="0"/>
<stop offset="0.5"/>
<stop offset="1" stop-color="white" stop-opacity="0"/>
</linearGradient>
<linearGradient id="paint5_linear_182_1053" x1="500" y1="330" x2="500" y2="331" gradientUnits="userSpaceOnUse">
<stop stop-color="white" stop-opacity="0"/>
<stop offset="0.5"/>
<stop offset="1" stop-color="white" stop-opacity="0"/>
</linearGradient>
<linearGradient id="paint6_linear_182_1053" x1="500" y1="390" x2="500" y2="391" gradientUnits="userSpaceOnUse">
<stop stop-color="white" stop-opacity="0"/>
<stop offset="0.5"/>
<stop offset="1" stop-color="white" stop-opacity="0"/>
</linearGradient>
<linearGradient id="paint7_linear_182_1053" x1="500" y1="450" x2="500" y2="451" gradientUnits="userSpaceOnUse">
<stop stop-color="white" stop-opacity="0"/>
<stop offset="0.5"/>
<stop offset="1" stop-color="white" stop-opacity="0"/>
</linearGradient>
<linearGradient id="paint8_linear_182_1053" x1="500" y1="510" x2="500" y2="511" gradientUnits="userSpaceOnUse">
<stop stop-color="white" stop-opacity="0"/>
<stop offset="0.5"/>
<stop offset="1" stop-color="white" stop-opacity="0"/>
</linearGradient>
<linearGradient id="paint9_linear_182_1053" x1="500" y1="570" x2="500" y2="571" gradientUnits="userSpaceOnUse">
<stop stop-color="white" stop-opacity="0"/>
<stop offset="0.5"/>
<stop offset="1" stop-color="white" stop-opacity="0"/>
</linearGradient>
<linearGradient id="paint10_linear_182_1053" x1="949" y1="330" x2="950" y2="330" gradientUnits="userSpaceOnUse">
<stop stop-color="white" stop-opacity="0"/>
<stop offset="0.405"/>
<stop offset="1" stop-color="white" stop-opacity="0"/>
</linearGradient>
<linearGradient id="paint11_linear_182_1053" x1="889" y1="330" x2="890" y2="330" gradientUnits="userSpaceOnUse">
<stop stop-color="white" stop-opacity="0"/>
<stop offset="0.405"/>
<stop offset="1" stop-color="white" stop-opacity="0"/>
</linearGradient>
<linearGradient id="paint12_linear_182_1053" x1="829" y1="330" x2="830" y2="330" gradientUnits="userSpaceOnUse">
<stop stop-color="white" stop-opacity="0"/>
<stop offset="0.405"/>
<stop offset="1" stop-color="white" stop-opacity="0"/>
</linearGradient>
<linearGradient id="paint13_linear_182_1053" x1="769" y1="330" x2="770" y2="330" gradientUnits="userSpaceOnUse">
<stop stop-color="white" stop-opacity="0"/>
<stop offset="0.405"/>
<stop offset="1" stop-color="white" stop-opacity="0"/>
</linearGradient>
<linearGradient id="paint14_linear_182_1053" x1="709" y1="330" x2="710" y2="330" gradientUnits="userSpaceOnUse">
<stop stop-color="white" stop-opacity="0"/>
<stop offset="0.405"/>
<stop offset="1" stop-color="white" stop-opacity="0"/>
</linearGradient>
<linearGradient id="paint15_linear_182_1053" x1="649" y1="330" x2="650" y2="330" gradientUnits="userSpaceOnUse">
<stop stop-color="white" stop-opacity="0"/>
<stop offset="0.405"/>
<stop offset="1" stop-color="white" stop-opacity="0"/>
</linearGradient>
<linearGradient id="paint16_linear_182_1053" x1="589" y1="330" x2="590" y2="330" gradientUnits="userSpaceOnUse">
<stop stop-color="white" stop-opacity="0"/>
<stop offset="0.405"/>
<stop offset="1" stop-color="white" stop-opacity="0"/>
</linearGradient>
<linearGradient id="paint17_linear_182_1053" x1="529" y1="330" x2="530" y2="330" gradientUnits="userSpaceOnUse">
<stop stop-color="white" stop-opacity="0"/>
<stop offset="0.405"/>
<stop offset="1" stop-color="white" stop-opacity="0"/>
</linearGradient>
<linearGradient id="paint18_linear_182_1053" x1="469" y1="330" x2="470" y2="330" gradientUnits="userSpaceOnUse">
<stop stop-color="white" stop-opacity="0"/>
<stop offset="0.405"/>
<stop offset="1" stop-color="white" stop-opacity="0"/>
</linearGradient>
<linearGradient id="paint19_linear_182_1053" x1="409" y1="330" x2="410" y2="330" gradientUnits="userSpaceOnUse">
<stop stop-color="white" stop-opacity="0"/>
<stop offset="0.405"/>
<stop offset="1" stop-color="white" stop-opacity="0"/>
</linearGradient>
<linearGradient id="paint20_linear_182_1053" x1="349" y1="330" x2="350" y2="330" gradientUnits="userSpaceOnUse">
<stop stop-color="white" stop-opacity="0"/>
<stop offset="0.405"/>
<stop offset="1" stop-color="white" stop-opacity="0"/>
</linearGradient>
<linearGradient id="paint21_linear_182_1053" x1="289" y1="330" x2="290" y2="330" gradientUnits="userSpaceOnUse">
<stop stop-color="white" stop-opacity="0"/>
<stop offset="0.405"/>
<stop offset="1" stop-color="white" stop-opacity="0"/>
</linearGradient>
<linearGradient id="paint22_linear_182_1053" x1="229" y1="330" x2="230" y2="330" gradientUnits="userSpaceOnUse">
<stop stop-color="white" stop-opacity="0"/>
<stop offset="0.405"/>
<stop offset="1" stop-color="white" stop-opacity="0"/>
</linearGradient>
<linearGradient id="paint23_linear_182_1053" x1="169" y1="330" x2="170" y2="330" gradientUnits="userSpaceOnUse">
<stop stop-color="white" stop-opacity="0"/>
<stop offset="0.405"/>
<stop offset="1" stop-color="white" stop-opacity="0"/>
</linearGradient>
<linearGradient id="paint24_linear_182_1053" x1="109" y1="330" x2="110" y2="330" gradientUnits="userSpaceOnUse">
<stop stop-color="white" stop-opacity="0"/>
<stop offset="0.405"/>
<stop offset="1" stop-color="white" stop-opacity="0"/>
</linearGradient>
<linearGradient id="paint25_linear_182_1053" x1="49" y1="330" x2="50" y2="330" gradientUnits="userSpaceOnUse">
<stop stop-color="white" stop-opacity="0"/>
<stop offset="0.405"/>
<stop offset="1" stop-color="white" stop-opacity="0"/>
</linearGradient>
<clipPath id="clip0_182_1053">
<rect width="1000" height="600" fill="white"/>
</clipPath>
</defs>
</svg>
