<svg width="64" height="64" viewBox="0 0 64 64" fill="none" xmlns="http://www.w3.org/2000/svg">
<path fill-rule="evenodd" clip-rule="evenodd" d="M51.8835 22.4625C51.8835 24.6121 50.1349 26.3547 47.9779 26.3547H44.0013V18.5703H47.9779C50.1349 18.5703 51.8835 20.3129 51.8835 22.4625ZM47.9779 25.0809C49.429 25.0809 50.6053 23.9086 50.6053 22.4625C50.6053 21.0164 49.429 19.8441 47.9779 19.8441H45.2795V25.0809H47.9779Z" fill="black"/>
<path fill-rule="evenodd" clip-rule="evenodd" d="M37.3975 22.4625C37.3975 24.6121 39.1461 26.3547 41.3031 26.3547H45.2797V18.5703H41.3031C39.1461 18.5703 37.3975 20.3129 37.3975 22.4625ZM41.3031 25.0809C39.852 25.0809 38.6757 23.9086 38.6757 22.4625C38.6757 21.0164 39.852 19.8441 41.3031 19.8441H44.0015V25.0809H41.3031Z" fill="black"/>
<path fill-rule="evenodd" clip-rule="evenodd" d="M37.3975 28.973C37.3975 31.1226 39.1461 32.8652 41.3031 32.8652H45.2797V25.0808L41.3031 25.0809C39.1461 25.0809 37.3975 26.8234 37.3975 28.973ZM41.3031 31.5914C39.852 31.5914 38.6757 30.4191 38.6757 28.973C38.6757 27.5269 39.852 26.3547 41.3031 26.3547L44.0015 26.3546V31.5914H41.3031Z" fill="black"/>
<path fill-rule="evenodd" clip-rule="evenodd" d="M37.3975 35.4835C37.3975 37.6376 39.1682 39.3758 41.3207 39.3758C43.4928 39.3758 45.2797 37.6218 45.2797 35.4482V31.5913L41.3031 31.5914C39.1461 31.5914 37.3975 33.3339 37.3975 35.4835ZM41.3207 38.1019C39.8652 38.1019 38.6757 36.9252 38.6757 35.4835C38.6757 34.0375 39.852 32.8652 41.3031 32.8652L44.0015 32.8652V35.4482C44.0015 36.9093 42.7959 38.1019 41.3207 38.1019Z" fill="black"/>
<path fill-rule="evenodd" clip-rule="evenodd" d="M44.0007 28.973C44.0007 31.1226 45.7493 32.8652 47.9063 32.8652H47.9773C50.1343 32.8652 51.8829 31.1226 51.8829 28.973C51.8829 26.8234 50.1343 25.0808 47.9773 25.0808H47.9063C45.7493 25.0808 44.0007 26.8234 44.0007 28.973ZM47.9063 31.5914C46.4552 31.5914 45.2789 30.4191 45.2789 28.973C45.2789 27.5269 46.4552 26.3546 47.9063 26.3546H47.9773C49.4284 26.3546 50.6047 27.5269 50.6047 28.973C50.6047 30.4191 49.4284 31.5914 47.9773 31.5914H47.9063Z" fill="black"/>
<path d="M24.3984 22.1472C24.9666 22.1472 25.4272 21.6868 25.4272 21.1189C25.4272 20.551 24.9666 20.0906 24.3984 20.0906C23.8302 20.0906 23.3696 20.551 23.3696 21.1189C23.3696 21.6868 23.8302 22.1472 24.3984 22.1472Z" fill="white"/>
<path d="M13.3674 26.209C13.9356 26.209 14.3962 25.7486 14.3962 25.1807C14.3962 24.6128 13.9356 24.1524 13.3674 24.1524C12.7992 24.1524 12.3386 24.6128 12.3386 25.1807C12.3386 25.7486 12.7992 26.209 13.3674 26.209Z" fill="white"/>
<path d="M36.4351 25.1807C36.4351 25.7486 35.9745 26.209 35.4063 26.209C34.8382 26.209 34.3776 25.7486 34.3776 25.1807C34.3776 24.6128 34.8382 24.1524 35.4063 24.1524C35.9745 24.1524 36.4351 24.6128 36.4351 25.1807Z" fill="white"/>
<path d="M24.3699 39.834C24.9381 39.834 25.3987 39.3736 25.3987 38.8057C25.3987 38.2378 24.9381 37.7774 24.3699 37.7774C23.8018 37.7774 23.3412 38.2378 23.3412 38.8057C23.3412 39.3736 23.8018 39.834 24.3699 39.834Z" fill="white"/>
<path fill-rule="evenodd" clip-rule="evenodd" d="M22.0511 37.5428L22.7629 38.1805C22.7011 38.3568 22.6674 38.5464 22.6674 38.7439C22.6674 39.6838 23.4297 40.4458 24.3701 40.4458C25.3104 40.4458 26.0727 39.6838 26.0727 38.7439C26.0727 38.5625 26.0443 38.3876 25.9917 38.2237L26.7536 37.5412L26.7896 37.5091C29.4189 35.1631 31.704 33.1241 33.3195 31.1793C34.4713 29.7927 35.351 28.3755 35.7711 26.8391C36.5156 26.6572 37.0681 25.986 37.0681 25.1858C37.0681 24.4449 36.5944 23.8146 35.9333 23.5808C35.35 20.3266 32.5165 17.9458 29.0682 17.9458C27.8432 17.9458 26.7221 18.4131 25.7996 18.9999C25.544 19.1625 25.2977 19.3379 25.0619 19.5217C24.8505 19.4277 24.6164 19.3754 24.3701 19.3754C24.1393 19.3754 23.9193 19.4213 23.7186 19.5044C23.4897 19.3269 23.2509 19.1573 23.0033 18.9999C22.0808 18.4131 20.9597 17.9458 19.7346 17.9458C16.2942 17.9458 13.4657 20.3159 12.8736 23.5588C12.1778 23.7727 11.6721 24.4202 11.6721 25.1858C11.6721 26.0097 12.2579 26.6969 13.0359 26.854C13.4576 28.3846 14.3353 29.7972 15.4834 31.1793C17.0988 33.124 19.384 35.1631 22.0132 37.509L22.0511 37.5428ZM14.2912 26.6203C15.1977 29.7194 18.4058 32.5869 22.8977 36.5949L23.6011 37.225C23.8321 37.108 24.0934 37.042 24.3701 37.042C24.6627 37.042 24.9381 37.1158 25.1786 37.2458L25.9052 36.5949C30.3813 32.601 33.5827 29.7395 34.502 26.653C33.9998 26.357 33.6628 25.8107 33.6628 25.1858C33.6628 24.5015 34.0668 23.9115 34.6495 23.6412C34.1097 21.0793 31.8482 19.2165 29.0682 19.2165C27.9608 19.2165 26.8807 19.7388 25.9502 20.442C26.0292 20.6383 26.0727 20.8527 26.0727 21.0773C26.0727 22.0172 25.3104 22.7791 24.3701 22.7791C23.4297 22.7791 22.6674 22.0172 22.6674 21.0773C22.6674 20.8389 22.7164 20.612 22.8049 20.4061C21.8853 19.7212 20.8232 19.2165 19.7346 19.2165C16.9447 19.2165 14.6769 21.0928 14.1476 23.6689C14.6995 23.9504 15.0774 24.524 15.0774 25.1858C15.0774 25.7884 14.764 26.3179 14.2912 26.6203ZM12.7614 24.6641C12.7614 24.6641 12.7614 24.6641 12.7614 24.6641C12.9091 24.4908 13.1291 24.3808 13.3747 24.3808C13.646 24.3808 13.8859 24.5149 14.0318 24.7202C14.0318 24.7202 14.0318 24.7202 14.0318 24.7202C14.1252 24.8517 14.1801 25.0123 14.1801 25.1858C14.1801 25.6304 13.8195 25.9908 13.3747 25.9908C12.93 25.9908 12.5694 25.6304 12.5694 25.1858C12.5694 24.9867 12.6417 24.8046 12.7614 24.6641ZM25.1754 38.7439C25.1754 38.7133 25.1737 38.6831 25.1704 38.6533C25.156 38.5253 25.1117 38.4064 25.0445 38.3038C24.9065 38.0929 24.6721 37.9508 24.404 37.9397L24.3986 37.9394C24.3891 37.9391 24.3797 37.939 24.3701 37.939C23.9253 37.939 23.5648 38.2994 23.5648 38.7439C23.5648 38.7806 23.5672 38.8168 23.572 38.8522C23.5748 38.8734 23.5785 38.8944 23.583 38.915C23.6615 39.2774 23.9841 39.5489 24.3701 39.5489C24.8149 39.5489 25.1754 39.1885 25.1754 38.7439ZM35.3654 25.9908C35.1323 25.9908 34.9224 25.8918 34.7753 25.7336C34.7543 25.711 34.7346 25.6872 34.7163 25.6623C34.6181 25.5289 34.5601 25.3641 34.5601 25.1858C34.5601 24.9774 34.6393 24.7876 34.7692 24.6446C34.9165 24.4826 35.1291 24.3808 35.3654 24.3808C35.6142 24.3808 35.8366 24.4936 35.9843 24.6707C36.0054 24.696 36.025 24.7226 36.0429 24.7504C36.1238 24.8759 36.1708 25.0254 36.1708 25.1858C36.1708 25.6304 35.8102 25.9908 35.3654 25.9908ZM24.3701 20.2723C24.6481 20.2723 24.8932 20.4131 25.0379 20.6272C25.1093 20.7329 25.1563 20.8565 25.1707 20.9898C25.1738 21.0185 25.1754 21.0477 25.1754 21.0773C25.1754 21.5218 24.8149 21.8822 24.3701 21.8822C23.9253 21.8822 23.5647 21.5218 23.5647 21.0773C23.5647 21.0645 23.565 21.0518 23.5656 21.0391C23.5856 20.6123 23.9381 20.2723 24.3701 20.2723Z" fill="black"/>
<mask id="mask0_13_18" style="mask-type:alpha" maskUnits="userSpaceOnUse" x="14" y="19" width="21" height="19">
<path d="M23.6012 37.225L22.8978 36.5949C18.4059 32.5869 15.1977 29.7194 14.2913 26.6203C14.7641 26.3179 15.0775 25.7884 15.0775 25.1858C15.0775 24.524 14.6996 23.9504 14.1477 23.6689C14.6769 21.0928 16.9447 19.2164 19.7347 19.2164C20.8233 19.2164 21.8854 19.7211 22.805 20.4061C22.7165 20.612 22.6675 20.8389 22.6675 21.0772C22.6675 22.0172 23.4298 22.7791 24.3701 22.7791C25.3105 22.7791 26.0728 22.0172 26.0728 21.0772C26.0728 20.8527 26.0293 20.6383 25.9502 20.442C26.8807 19.7388 27.9609 19.2164 29.0683 19.2164C31.8483 19.2164 34.1098 21.0793 34.6495 23.6412C34.0669 23.9115 33.6628 24.5015 33.6628 25.1858C33.6628 25.8107 33.9998 26.357 34.5021 26.6529C33.5827 29.7395 30.3814 32.601 25.9053 36.5949L25.1787 37.2457C24.9382 37.1158 24.6628 37.042 24.3701 37.042C24.0935 37.042 23.8322 37.108 23.6012 37.225Z" fill="#236DF6"/>
</mask>
<g mask="url(#mask0_13_18)">
<rect x="13.192" y="18.7675" width="22.4017" height="20.2345" fill="#80C9F0"/>
<rect x="9.19843" y="19.0596" width="28.6262" height="21.3861" fill="white"/>
<g clip-path="url(#clip0_13_18)">
<path d="M13.1226 42.72H42.0042V13.8384H13.1226V42.72Z" fill="#8296FF"/>
<path d="M32.5509 34.0923C32.855 34.0531 33.1904 34.0052 33.5404 33.9511V33.2786H29.927C28.8919 33.3794 28.1618 33.4428 28.1581 33.562C28.1515 33.7772 30.5185 33.9182 30.5061 34.0733C30.4855 34.3308 23.9283 34.2051 23.8722 34.6367C23.8504 34.8041 24.8237 34.9277 24.7981 35.1059C24.7478 35.4568 20.9059 35.4301 19.8801 35.6332V35.8811C20.1972 35.9767 20.7019 36.0685 20.69 36.1819C20.6806 36.2714 20.3582 36.2925 19.8801 36.3109V36.7229H20.5973C20.7856 36.4122 25.7028 36.499 25.7597 36.1017C25.7853 35.9235 24.812 35.7999 24.8338 35.6325C24.89 35.2009 31.4471 35.3266 31.4678 35.069C31.4801 34.914 29.1131 34.773 29.1197 34.5578C29.1252 34.3811 30.7253 34.3271 32.5509 34.0923Z" fill="#5E77FF"/>
<path d="M23.5768 36.2379C23.5768 36.2379 24.0496 36.257 23.7211 36.3066C23.3925 36.3563 22.8639 36.4026 22.8639 36.4026C22.8639 36.4026 23.5672 36.5333 23.3309 36.5705C23.0946 36.6077 22.077 36.5557 22.077 36.5557C22.077 36.5557 22.3995 36.6427 22.2969 36.663C22.1943 36.6832 21.6876 36.6355 21.6876 36.6355C21.6876 36.6355 22.4641 36.6806 21.9708 36.5159C21.9708 36.5159 23.2472 36.5945 23.0649 36.4977C22.8826 36.4009 22.6302 36.3528 22.6302 36.3528C22.6302 36.3528 24.1829 36.2917 23.5768 36.2379Z" fill="#8296FF"/>
<path d="M32.0945 32.9255C32.6589 32.8854 33.2811 32.8363 33.9306 32.7808V32.0912H27.2258C25.3052 32.1945 23.9503 32.2595 23.9435 32.3818C23.9312 32.6025 28.3233 32.7471 28.3004 32.9061C28.2621 33.1703 16.0949 33.0413 15.9908 33.4839C15.9503 33.6556 17.7563 33.7824 17.7089 33.965C17.6154 34.3249 10.4867 34.2975 8.58319 34.5059V34.7601C9.17162 34.8581 10.1081 34.9522 10.0861 35.0685C10.0687 35.1603 9.47041 35.1819 8.58319 35.2008V35.6233H9.91396C10.2635 35.3046 19.3874 35.3936 19.4932 34.9862C19.5406 34.8035 17.7347 34.6768 17.7751 34.5051C17.8793 34.0625 30.0464 34.1914 30.0847 33.9273C30.1077 33.7683 25.7155 33.6237 25.7278 33.403C25.738 33.2218 28.7069 33.1663 32.0945 32.9255Z" fill="#5E77FF"/>
<path d="M41.975 14.9001H13.1V27.6501H41.975V14.9001Z" fill="#BEC9FF"/>
<path d="M13.0909 17.5918H37.7297C36.671 19.1353 34.1461 20.6731 31.088 21.6401C28.2023 22.5525 26.1829 22.1518 28.5269 20.8847C27.7983 21.2037 24.9005 22.7235 24.0905 22.9796C20.8376 24.0083 15.2494 24.3249 13.0909 23.8351V17.5918Z" fill="#99A9FF"/>
<path d="M41.3248 17.5918C36.3129 21.2143 31.6684 23.3558 26.6503 24.6489C25.2485 25.0102 23.8319 25.3497 22.3779 25.4241C21.8618 25.4504 20.6193 25.5662 20.3589 24.9148C20.1618 24.4215 20.9353 23.9722 22.2253 23.1111C22.1375 23.2529 22.1159 23.3881 22.1713 23.5268C22.4316 24.1781 23.6741 24.0624 24.1902 24.036C25.6442 23.9617 27.0608 23.6221 28.4627 23.2608C33.4188 21.9837 36.8702 20.1934 40.5725 17.5853L41.3248 17.5918Z" fill="#99A9FF"/>
<path d="M24.8536 27.2334C24.0959 26.3171 23.8106 27.3189 23.8106 27.3189C23.4144 25.988 21.546 26.779 21.546 26.779C20.3619 25.0958 17.9095 26.2699 17.9095 26.2699C18.1312 25.1718 16.8365 25.3357 16.8365 25.3357C16.7055 24.1788 15.2388 24.6166 15.2388 24.6166C14.5564 23.2246 13.7659 22.7937 13.1226 22.7256V27.8053H26.9279C26.2129 26.7286 24.8536 27.2334 24.8536 27.2334Z" fill="#FFFCFA"/>
<path d="M30.2485 27.4075C31.0063 26.7701 31.2916 27.467 31.2916 27.467C31.6878 26.5411 33.5562 27.0913 33.5562 27.0913C34.7403 25.9204 37.1927 26.7372 37.1927 26.7372C36.971 25.9734 38.2657 26.0873 38.2657 26.0873C38.3967 25.2826 39.8634 25.5871 39.8634 25.5871C40.5458 24.6188 41.3363 24.3191 41.9796 24.2716V27.8053H28.1742C28.8893 27.0563 30.2485 27.4075 30.2485 27.4075Z" fill="#FFFCFA"/>
<path d="M19.2702 21.9768H16.2877C16.2877 21.9768 16.3771 21.5786 16.5717 21.6259C16.7663 21.6732 16.8505 21.8572 17.0662 21.7994C17.2819 21.7416 17.3555 21.3576 17.6238 21.4944C17.8921 21.6312 17.8342 21.9009 18.1498 21.8134C18.4654 21.7258 18.6337 21.6364 18.9494 21.7679C19.265 21.8994 19.2702 21.9768 19.2702 21.9768Z" fill="#FFFCFA"/>
<path d="M34.218 21.9547H31.2354C31.2354 21.9547 31.3248 21.5565 31.5195 21.6038C31.7141 21.6512 31.7983 21.8351 32.0139 21.7773C32.2296 21.7195 32.3033 21.3355 32.5715 21.4723C32.8398 21.6091 32.782 21.8788 33.0976 21.7913C33.4132 21.7037 33.5815 21.6143 33.8971 21.7458C34.2128 21.8773 34.218 21.9547 34.218 21.9547Z" fill="#FFFCFA"/>
<path d="M26.9952 34.1625C26.9952 34.1625 27.6832 34.1902 27.205 34.2624C26.7269 34.3347 25.9573 34.4021 25.9573 34.4021C25.9573 34.4021 26.9811 34.5925 26.6371 34.6466C26.2932 34.7007 24.8119 34.625 24.8119 34.625C24.8119 34.625 25.2814 34.7517 25.132 34.7812C24.9827 34.8106 24.245 34.7412 24.245 34.7412C24.245 34.7412 25.3754 34.8068 24.6573 34.5671C24.6573 34.5671 26.5153 34.6815 26.2499 34.5406C25.9845 34.3997 25.6172 34.3296 25.6172 34.3296C25.6172 34.3296 27.8773 34.2407 26.9952 34.1625Z" fill="#FFFCFA"/>
<path d="M21.4949 32.0911C21.4949 32.0911 20.8068 32.1188 21.285 32.191C21.7632 32.2633 22.5328 32.3307 22.5328 32.3307C22.5328 32.3307 21.509 32.5211 21.853 32.5752C22.1969 32.6293 23.6782 32.5536 23.6782 32.5536C23.6782 32.5536 23.2087 32.6803 23.358 32.7098C23.5074 32.7392 24.245 32.6698 24.245 32.6698C24.245 32.6698 23.1146 32.7353 23.8327 32.4957C23.8327 32.4957 21.9747 32.6101 22.2401 32.4692C22.5055 32.3283 22.8729 32.2582 22.8729 32.2582C22.8729 32.2582 20.6128 32.1693 21.4949 32.0911Z" fill="#FFFCFA"/>
<path d="M28.9824 29.4825H28.6741V28.5564H34.1399V29.5995H29.1383C29.1383 29.5349 29.0686 29.4825 28.9824 29.4825Z" fill="#5E77FF"/>
<path d="M27.1267 29.4825V28.2899H21.5602V29.4825H21.8686H26.8185H27.1267Z" fill="#001CB5"/>
<path d="M19.8756 27.9128H14.6598V28.2053H19.9913L19.8756 27.9128Z" fill="#BEC9FF"/>
<path d="M19.7408 27.7958H14.6012V27.9128H19.8724C19.7997 27.9128 19.7408 27.8604 19.7408 27.7958Z" fill="white"/>
<path d="M20.0127 28.2592L19.9914 28.2054H14.3672L14.547 28.5564H20.0127V28.2592Z" fill="#001CB5"/>
<path d="M19.7045 29.4825H20.0127V28.5564H14.547V29.5995H19.5486C19.5486 29.5349 19.6183 29.4825 19.7045 29.4825Z" fill="#5E77FF"/>
<path d="M19.7995 29.7165H19.7045C19.6183 29.7165 19.5487 29.6641 19.5487 29.5995H14.44C14.3796 29.5995 14.3307 29.6473 14.3307 29.7065C14.3307 29.7657 14.3796 29.8136 14.44 29.8136H19.8231L19.7995 29.7165Z" fill="#BEC9FF"/>
<path d="M19.823 29.8136H14.4378V29.9049H19.8453L19.823 29.8136Z" fill="#0029FF"/>
<path d="M19.9727 30.6132H19.9184C19.9184 30.5101 19.904 30.2813 19.8961 30.1649H13.9773C13.9773 30.1649 13.9613 30.3301 14.1533 30.3781C14.1533 30.3781 14.0733 30.5602 14.2653 30.6132C14.2653 30.6132 14.2333 30.8901 14.4413 30.8901C14.6493 30.8901 19.9727 30.8901 19.9727 30.8901V30.6132Z" fill="#0029FF"/>
<path d="M28.7144 30.6132H28.7685C28.7685 30.5101 28.783 30.2813 28.7909 30.1649H34.7096C34.7096 30.1649 34.7257 30.3301 34.5338 30.3781C34.5338 30.3781 34.6138 30.5602 34.4216 30.6132C34.4216 30.6132 34.4536 30.8901 34.2456 30.8901C34.0378 30.8901 28.7144 30.8901 28.7144 30.8901V30.6132Z" fill="#0029FF"/>
<path d="M21.3953 25.4769V24.2499H20.1775V25.4769H21.3953Z" fill="#5E77FF"/>
<path d="M27.2915 25.4769V24.2499H28.5093V25.4769H27.2915Z" fill="#5E77FF"/>
<path d="M19.8754 27.6841H20.075V27.5002H14.525V27.8002H19.738C19.738 27.736 19.7995 27.6841 19.8754 27.6841Z" fill="#0029FF"/>
<path d="M28.83 27.6841H28.625V27.5002H34.325V27.8002H28.971C28.971 27.736 28.9079 27.6841 28.83 27.6841Z" fill="#0029FF"/>
<path d="M19.5303 36.2638V36.1276H19.6187V35.9914H19.6843L19.793 35.5343L19.7285 35.5277V35.3915H19.8162V35.2553H19.8845V35.119H19.9726V30.8901H14.4413V36.4H19.4167V36.2638H19.5303Z" fill="#0029FF"/>
<path d="M29.1566 36.2638V36.1276H29.0682V35.9914H29.0025L28.8939 35.5343L28.9584 35.5277V35.3915H28.8707V35.2553H28.8024V35.119H28.7144V30.8901H34.2456V36.4H29.2703V36.2638H29.1566Z" fill="#0029FF"/>
<path d="M19.9535 30.1648H13.9773L13.7692 29.9049H19.9535V30.1648Z" fill="#2245FF"/>
<path d="M14.7901 30.8901H14.6012V30.1649H14.7901V30.8901Z" fill="#3D5CFF"/>
<path d="M15.3188 30.8901H15.1299V30.1649H15.3188V30.8901Z" fill="#3D5CFF"/>
<path d="M15.8475 30.8901H15.6587V30.1649H15.8475V30.8901Z" fill="#3D5CFF"/>
<path d="M16.3762 30.8901H16.1874V30.1649H16.3762V30.8901Z" fill="#3D5CFF"/>
<path d="M16.9049 30.8901H16.7161V30.1649H16.9049V30.8901Z" fill="#3D5CFF"/>
<path d="M17.4338 30.8901H17.245V30.1649H17.4338V30.8901Z" fill="#3D5CFF"/>
<path d="M17.9624 30.8901H17.7736V30.1649H17.9624V30.8901Z" fill="#3D5CFF"/>
<path d="M18.4911 30.8901H18.3023V30.1649H18.4911V30.8901Z" fill="#3D5CFF"/>
<path d="M19.0199 30.8901H18.8311V30.1649H19.0199V30.8901Z" fill="#3D5CFF"/>
<path d="M19.5486 30.8901H19.3597V30.1649H19.5486V30.8901Z" fill="#3D5CFF"/>
<path d="M19.5367 31.1117H16.27V30.8901H19.5367V31.1117Z" fill="#3D5CFF"/>
<path d="M19.4423 31.1117H16.3644V31.282H19.4423V31.1117Z" fill="#001CB5"/>
<path d="M19.3202 31.282H16.4867V36.4H19.3202V31.282Z" fill="#5E77FF"/>
<path d="M18.8665 36.4H16.9404V33.5214H18.8665V36.4Z" fill="#F4B33E"/>
<path d="M17.9034 31.6636C17.8958 31.6629 16.7161 31.741 16.7161 33.3021H19.0907C19.0907 31.741 17.9111 31.6629 17.9034 31.6636Z" fill="#001CB5"/>
<path d="M17.9034 31.6636C17.8958 31.6629 16.7161 31.741 16.7161 33.3021H19.0907C19.0907 31.741 17.9111 31.6629 17.9034 31.6636Z" stroke="#8296FF" stroke-width="0.0390038" stroke-miterlimit="10" stroke-linecap="round" stroke-linejoin="round"/>
<path d="M18.629 32.0047V33.3021" stroke="#8296FF" stroke-width="0.0390038" stroke-miterlimit="10" stroke-linecap="round" stroke-linejoin="round"/>
<path d="M18.3246 31.7906V33.3021" stroke="#8296FF" stroke-width="0.0390038" stroke-miterlimit="10" stroke-linecap="round" stroke-linejoin="round"/>
<path d="M18.0201 31.6818V33.3021" stroke="#8296FF" stroke-width="0.0390038" stroke-miterlimit="10" stroke-linecap="round" stroke-linejoin="round"/>
<path d="M17.7158 31.6996V33.3021" stroke="#8296FF" stroke-width="0.0390038" stroke-miterlimit="10" stroke-linecap="round" stroke-linejoin="round"/>
<path d="M17.4114 31.829V33.3021" stroke="#8296FF" stroke-width="0.0390038" stroke-miterlimit="10" stroke-linecap="round" stroke-linejoin="round"/>
<path d="M17.1072 32.0779V33.3021" stroke="#8296FF" stroke-width="0.0390038" stroke-miterlimit="10" stroke-linecap="round" stroke-linejoin="round"/>
<path d="M19.0695 32.9568H16.7375" stroke="#8296FF" stroke-width="0.0390038" stroke-miterlimit="10" stroke-linecap="round" stroke-linejoin="round"/>
<path d="M19.007 32.6525H16.7996" stroke="#8296FF" stroke-width="0.0390038" stroke-miterlimit="10" stroke-linecap="round" stroke-linejoin="round"/>
<path d="M18.8863 32.348H16.9206" stroke="#8296FF" stroke-width="0.0390038" stroke-miterlimit="10" stroke-linecap="round" stroke-linejoin="round"/>
<path d="M18.6681 32.0436H17.1387" stroke="#8296FF" stroke-width="0.0390038" stroke-miterlimit="10" stroke-linecap="round" stroke-linejoin="round"/>
<path d="M18.642 36.4H17.1649V33.8242H18.642V36.4Z" fill="#8296FF"/>
<path d="M18.5501 36.4V35.3932C18.5501 35.3171 18.4883 35.2553 18.4121 35.2553C18.3883 35.2553 18.3661 35.2619 18.3466 35.2725V34.7509C18.3466 34.4881 18.1335 34.2748 17.8707 34.2748C17.6078 34.2748 17.3947 34.4881 17.3947 34.7509V35.2553C17.3185 35.2553 17.2568 35.3171 17.2568 35.3932V36.4H18.5501Z" fill="#001CB5"/>
<path d="M17.8158 35.2553V34.7509C17.8158 34.5637 17.9241 34.4023 18.0812 34.3246C18.0177 34.293 17.9464 34.2748 17.8707 34.2748C17.6078 34.2748 17.3947 34.4881 17.3947 34.7509V35.2553C17.3185 35.2553 17.2568 35.3171 17.2568 35.3932V36.4H17.6779V35.3932C17.6779 35.3171 17.7397 35.2553 17.8158 35.2553Z" fill="#94421C"/>
<path d="M19.4423 29.3533H16.3762V28.7485H19.4423V29.3533Z" fill="white"/>
<path d="M21.6884 35.2552H19.8845V35.119H21.6884V35.2552Z" fill="#2245FF"/>
<path d="M21.7566 35.3915H19.8163V35.2553H21.7566V35.3915Z" fill="#001CB5"/>
<path d="M21.5988 30.0936L21.6818 29.7166H21.568L21.4954 30.0936H21.4122L21.4763 29.7166H21.3623L21.3089 30.0936H21.2257L21.2707 29.7166H21.0379L21.0146 30.0936H20.9313L20.9463 29.7166H20.8323L20.8281 30.0936H20.7448L20.7406 29.7166H20.6268L20.6416 30.0936H20.5584L20.5351 29.7166H20.3023L20.3472 30.0936H20.2641L20.2107 29.7166H20.0967L20.1607 30.0936H20.0776L20.005 29.7166H19.8912L19.9743 30.0936H19.8911C19.8911 30.0936 19.9184 30.4717 19.9184 30.6132H21.6546C21.6546 30.4244 21.666 30.2431 21.6795 30.0936H21.5988Z" fill="#2245FF"/>
<path d="M21.5431 24.1021C21.5431 24.1837 21.4769 24.2499 21.3953 24.2499H20.1775C20.0959 24.2499 20.0298 24.1837 20.0298 24.1021C20.0298 24.0206 20.0959 23.9542 20.1775 23.9542H21.3953C21.4769 23.9542 21.5431 24.0206 21.5431 24.1021Z" fill="#001CB5"/>
<path d="M20.7864 22.7991C20.7864 22.7991 20.1775 23.5414 20.1775 23.8556V23.9542H21.3953V23.8556C21.3953 23.5414 20.7864 22.7991 20.7864 22.7991Z" fill="#3D5CFF"/>
<path d="M20.9158 25.0386V24.4993C20.9158 24.4279 20.8578 24.3699 20.7864 24.3699C20.715 24.3699 20.6572 24.4279 20.6572 24.4993V25.0386H20.9158Z" fill="white"/>
<path d="M20.4522 25.0386V24.4993C20.4522 24.4279 20.4155 24.3699 20.3702 24.3699C20.3249 24.3699 20.2882 24.4279 20.2882 24.4993V25.0386H20.4522Z" fill="white"/>
<path d="M21.2848 25.0386V24.4993C21.2848 24.4279 21.248 24.3699 21.2028 24.3699C21.1575 24.3699 21.1208 24.4279 21.1208 24.4993V25.0386H21.2848Z" fill="white"/>
<path d="M21.5093 27.6788H20.0638V27.1912H21.5093V27.6788Z" fill="#3D5CFF"/>
<path d="M21.8321 27.7958C21.8321 27.8604 21.7731 27.9128 21.7004 27.9128H19.8725C19.7998 27.9128 19.7409 27.8604 19.7409 27.7958C19.7409 27.7312 19.7998 27.6788 19.8725 27.6788H21.7004C21.7731 27.6788 21.8321 27.7312 21.8321 27.7958Z" fill="#0029FF"/>
<path d="M22.0244 29.5995C22.0244 29.6642 21.9545 29.7166 21.8685 29.7166H19.7045C19.6182 29.7166 19.5486 29.6642 19.5486 29.5995C19.5486 29.5349 19.6182 29.4825 19.7045 29.4825H21.8685C21.9545 29.4825 22.0244 29.5349 22.0244 29.5995Z" fill="#0029FF"/>
<path d="M20.1496 28.2899H20.0248L19.8756 27.9129H20.0248L20.1496 28.2899Z" fill="white"/>
<path d="M20.4293 28.2899H20.3046L20.2102 27.9129H20.3594L20.4293 28.2899Z" fill="white"/>
<path d="M20.7089 28.2899H20.5842L20.5446 27.9129H20.6937L20.7089 28.2899Z" fill="white"/>
<path d="M20.9886 28.2899H20.8639L20.8791 27.9129H21.0283L20.9886 28.2899Z" fill="white"/>
<path d="M21.2683 28.2899H21.1436L21.2136 27.9129H21.3628L21.2683 28.2899Z" fill="white"/>
<path d="M21.5479 28.2899H21.4232L21.5479 27.9129H21.6973L21.5479 28.2899Z" fill="white"/>
<path d="M19.9742 30.0935H19.8911L19.7995 29.7165H19.8912L19.9742 30.0935Z" fill="white"/>
<path d="M20.1607 30.0935H20.0776L20.005 29.7165H20.0967L20.1607 30.0935Z" fill="white"/>
<path d="M20.3472 30.0935H20.2642L20.2107 29.7165H20.3023L20.3472 30.0935Z" fill="white"/>
<path d="M20.6416 30.0935H20.5584L20.5351 29.7165H20.6267L20.6416 30.0935Z" fill="white"/>
<path d="M20.8281 30.0935H20.7448L20.7407 29.7165H20.8324L20.8281 30.0935Z" fill="white"/>
<path d="M21.0146 30.0935H20.9313L20.9462 29.7165H21.0379L21.0146 30.0935Z" fill="white"/>
<path d="M21.3088 30.0935H21.2257L21.2707 29.7165H21.3623L21.3088 30.0935Z" fill="white"/>
<path d="M21.4954 30.0935H21.4123L21.4763 29.7165H21.5681L21.4954 30.0935Z" fill="white"/>
<path d="M21.6818 30.0935H21.5988L21.6818 29.7165H21.7734L21.6818 30.0935Z" fill="white"/>
<path d="M21.5479 28.2899H21.4232L21.5479 27.9129H21.3628L21.2683 28.2899H21.1436L21.2136 27.9129H21.0283L20.9885 28.2899H20.864L20.8791 27.9129H20.6937L20.7089 28.2899H20.5842L20.5446 27.9129H20.3593L20.4293 28.2899H20.3045L20.2101 27.9129H20.0247L20.1496 28.2899H20.0247L20.0126 28.259V29.4825H21.5601V28.259L21.5479 28.2899Z" fill="#2245FF"/>
<path d="M21.5093 25.5543C21.5093 25.597 21.4747 25.6317 21.4319 25.6317H20.1412C20.0985 25.6317 20.0638 25.597 20.0638 25.5543C20.0638 25.5116 20.0985 25.477 20.1412 25.477H21.4319C21.4747 25.477 21.5093 25.5116 21.5093 25.5543Z" fill="#2245FF"/>
<path d="M21.3954 26.1654H20.1776L19.9535 25.8439H21.6195L21.3954 26.1654Z" fill="#0029FF"/>
<path d="M20.2977 35.119H19.9727V30.6129H20.2977V35.119Z" fill="#8296FF"/>
<path d="M20.949 35.119H20.6239V30.6129H20.949V35.119Z" fill="#D47C28"/>
<path d="M21.2747 35.119H20.9495V30.6129H21.2747V35.119Z" fill="#CB7026"/>
<path d="M21.6004 35.119H21.2752V30.6129H21.6004V35.119Z" fill="#BA5E23"/>
<path d="M21.8444 35.5343H19.7286V35.3914H21.8444V35.5343Z" fill="#8296FF"/>
<path d="M21.8886 35.9913H19.6844L19.7931 35.5343H21.7799L21.8886 35.9913Z" fill="#2245FF"/>
<path d="M21.9543 36.1276H19.6188V35.9913H21.9543V36.1276Z" fill="#E1882A"/>
<path d="M22.0425 36.2638H19.5303V36.1276H22.0425V36.2638Z" fill="#CE7C26"/>
<path d="M22.1562 36.4H19.4168V36.2638H22.1562V36.4Z" fill="#8296FF"/>
<path d="M21.3953 25.6317H20.1775V25.8439H21.3953V25.6317Z" fill="#5E77FF"/>
<path d="M20.1775 27.1912H21.3953V26.1653H20.1775V27.1912Z" fill="#2245FF"/>
<path d="M28.7334 30.1648H34.7096L34.9178 29.9049H28.7334V30.1648Z" fill="#2245FF"/>
<path d="M33.8968 30.8901H34.0856V30.1649H33.8968V30.8901Z" fill="#3D5CFF"/>
<path d="M33.368 30.8901H33.5569V30.1649H33.368V30.8901Z" fill="#3D5CFF"/>
<path d="M32.8394 30.8901H33.0282V30.1649H32.8394V30.8901Z" fill="#3D5CFF"/>
<path d="M32.3107 30.8901H32.4995V30.1649H32.3107V30.8901Z" fill="#3D5CFF"/>
<path d="M31.7819 30.8901H31.9709V30.1649H31.7819V30.8901Z" fill="#3D5CFF"/>
<path d="M31.2532 30.8901H31.442V30.1649H31.2532V30.8901Z" fill="#3D5CFF"/>
<path d="M30.7245 30.8901H30.9133V30.1649H30.7245V30.8901Z" fill="#3D5CFF"/>
<path d="M30.1958 30.8901H30.3846V30.1649H30.1958V30.8901Z" fill="#3D5CFF"/>
<path d="M29.667 30.8901H29.8557V30.1649H29.667V30.8901Z" fill="#3D5CFF"/>
<path d="M29.1384 30.8901H29.3272V30.1649H29.1384V30.8901Z" fill="#3D5CFF"/>
<path d="M29.1501 31.1117H32.4169V30.8901H29.1501V31.1117Z" fill="#3D5CFF"/>
<path d="M29.2445 31.1117H32.3223V31.282H29.2445V31.1117Z" fill="#001CB5"/>
<path d="M29.3668 31.282H32.2002V36.4H29.3668V31.282Z" fill="#5E77FF"/>
<path d="M29.8205 36.4H31.7464V33.5214H29.8205V36.4Z" fill="#F4B33E"/>
<path d="M30.7836 31.6636C30.7913 31.6629 31.971 31.741 31.971 33.3021H29.5964C29.5964 31.741 30.7759 31.6629 30.7836 31.6636Z" fill="#001CB5"/>
<path d="M30.7836 31.6636C30.7913 31.6629 31.971 31.741 31.971 33.3021H29.5964C29.5964 31.741 30.7759 31.6629 30.7836 31.6636Z" stroke="#8296FF" stroke-width="0.0390038" stroke-miterlimit="10" stroke-linecap="round" stroke-linejoin="round"/>
<path d="M30.058 32.0047V33.3021" stroke="#8296FF" stroke-width="0.0390038" stroke-miterlimit="10" stroke-linecap="round" stroke-linejoin="round"/>
<path d="M30.3624 31.7906V33.3021" stroke="#8296FF" stroke-width="0.0390038" stroke-miterlimit="10" stroke-linecap="round" stroke-linejoin="round"/>
<path d="M30.6666 31.6818V33.3021" stroke="#8296FF" stroke-width="0.0390038" stroke-miterlimit="10" stroke-linecap="round" stroke-linejoin="round"/>
<path d="M30.9711 31.6996V33.3021" stroke="#8296FF" stroke-width="0.0390038" stroke-miterlimit="10" stroke-linecap="round" stroke-linejoin="round"/>
<path d="M31.2755 31.829V33.3021" stroke="#8296FF" stroke-width="0.0390038" stroke-miterlimit="10" stroke-linecap="round" stroke-linejoin="round"/>
<path d="M31.5798 32.0779V33.3021" stroke="#8296FF" stroke-width="0.0390038" stroke-miterlimit="10" stroke-linecap="round" stroke-linejoin="round"/>
<path d="M29.6176 32.9568H31.9495" stroke="#8296FF" stroke-width="0.0390038" stroke-miterlimit="10" stroke-linecap="round" stroke-linejoin="round"/>
<path d="M29.6799 32.6525H31.8873" stroke="#8296FF" stroke-width="0.0390038" stroke-miterlimit="10" stroke-linecap="round" stroke-linejoin="round"/>
<path d="M29.8006 32.348H31.7663" stroke="#8296FF" stroke-width="0.0390038" stroke-miterlimit="10" stroke-linecap="round" stroke-linejoin="round"/>
<path d="M30.019 32.0436H31.5483" stroke="#8296FF" stroke-width="0.0390038" stroke-miterlimit="10" stroke-linecap="round" stroke-linejoin="round"/>
<path d="M30.0449 36.4H31.522V33.8242H30.0449V36.4Z" fill="#8296FF"/>
<path d="M30.1367 36.4V35.3932C30.1367 35.3171 30.1986 35.2553 30.2747 35.2553C30.2985 35.2553 30.3206 35.2619 30.3402 35.2725V34.7509C30.3402 34.4881 30.5534 34.2748 30.8161 34.2748C31.0791 34.2748 31.2922 34.4881 31.2922 34.7509V35.2553C31.3683 35.2553 31.4301 35.3171 31.4301 35.3932V36.4H30.1367Z" fill="#001CB5"/>
<path d="M30.8712 35.2553V34.7509C30.8712 34.5637 30.7627 34.4023 30.6057 34.3246C30.6693 34.293 30.7405 34.2748 30.8162 34.2748C31.0792 34.2748 31.2922 34.4881 31.2922 34.7509V35.2553C31.3684 35.2553 31.4302 35.3171 31.4302 35.3932V36.4H31.009V35.3932C31.009 35.3171 30.9473 35.2553 30.8712 35.2553Z" fill="#94421C"/>
<path d="M28.8113 27.9128H34.0271V28.2053H28.6955L28.8113 27.9128Z" fill="#BEC9FF"/>
<path d="M29.2445 29.3533H32.3106V28.7485H29.2445V29.3533Z" fill="white"/>
<path d="M26.9985 35.2552H28.8023V35.119H26.9985V35.2552Z" fill="#2245FF"/>
<path d="M26.9304 35.3915H28.8706V35.2553H26.9304V35.3915Z" fill="#001CB5"/>
<path d="M27.0881 30.0936L27.0051 29.7166H27.119L27.1914 30.0936H27.2746L27.2106 29.7166H27.3245L27.378 30.0936H27.4611L27.4162 29.7166H27.649L27.6722 30.0936H27.7554L27.7407 29.7166H27.8546L27.8587 30.0936H27.942L27.9462 29.7166H28.0601L28.0453 30.0936H28.1286L28.1518 29.7166H28.3846L28.3397 30.0936H28.4228L28.4761 29.7166H28.59L28.526 30.0936H28.6093L28.6818 29.7166H28.7957L28.7126 30.0936H28.7959C28.7959 30.0936 28.7684 30.4717 28.7684 30.6132H27.0322C27.0322 30.4244 27.0208 30.2431 27.0074 30.0936H27.0881Z" fill="#2245FF"/>
<path d="M27.1439 24.1021C27.1439 24.1837 27.2101 24.2499 27.2916 24.2499H28.5096C28.5911 24.2499 28.6572 24.1837 28.6572 24.1021C28.6572 24.0206 28.5911 23.9542 28.5096 23.9542H27.2916C27.2101 23.9542 27.1439 24.0206 27.1439 24.1021Z" fill="#001CB5"/>
<path d="M27.9005 22.7991C27.9005 22.7991 28.5093 23.5414 28.5093 23.8556V23.9542H27.2915V23.8556C27.2915 23.5414 27.9005 22.7991 27.9005 22.7991Z" fill="#3D5CFF"/>
<path d="M27.7711 25.0386V24.4993C27.7711 24.4279 27.829 24.3699 27.9005 24.3699C27.9719 24.3699 28.0297 24.4279 28.0297 24.4993V25.0386H27.7711Z" fill="white"/>
<path d="M28.2349 25.0386V24.4993C28.2349 24.4279 28.2715 24.3699 28.3168 24.3699C28.3622 24.3699 28.3989 24.4279 28.3989 24.4993V25.0386H28.2349Z" fill="white"/>
<path d="M27.4021 25.0386V24.4993C27.4021 24.4279 27.4387 24.3699 27.4842 24.3699C27.5294 24.3699 27.5661 24.4279 27.5661 24.4993V25.0386H27.4021Z" fill="white"/>
<path d="M27.1776 27.6788H28.6231V27.1912H27.1776V27.6788Z" fill="#3D5CFF"/>
<path d="M26.8548 27.7958C26.8548 27.8604 26.9138 27.9128 26.9865 27.9128H28.8144C28.8871 27.9128 28.9459 27.8604 28.9459 27.7958C28.9459 27.7312 28.8871 27.6788 28.8144 27.6788H26.9865C26.9138 27.6788 26.8548 27.7312 26.8548 27.7958Z" fill="#0029FF"/>
<path d="M26.6625 29.5995C26.6625 29.6642 26.7324 29.7166 26.8185 29.7166H28.9824C29.0687 29.7166 29.1384 29.6642 29.1384 29.5995C29.1384 29.5349 29.0687 29.4825 28.9824 29.4825H26.8185C26.7324 29.4825 26.6625 29.5349 26.6625 29.5995Z" fill="#0029FF"/>
<path d="M28.5373 28.2899H28.6621L28.8113 27.9129H28.6621L28.5373 28.2899Z" fill="white"/>
<path d="M28.2577 28.2899H28.3824L28.4769 27.9129H28.3276L28.2577 28.2899Z" fill="white"/>
<path d="M27.9779 28.2899H28.1026L28.1422 27.9129H27.9933L27.9779 28.2899Z" fill="white"/>
<path d="M27.6982 28.2899H27.8228L27.8077 27.9129H27.6586L27.6982 28.2899Z" fill="white"/>
<path d="M27.4185 28.2899H27.5432L27.4732 27.9129H27.3241L27.4185 28.2899Z" fill="white"/>
<path d="M27.1391 28.2899H27.2638L27.1391 27.9129H26.9897L27.1391 28.2899Z" fill="white"/>
<path d="M28.7126 30.0935H28.7959L28.8874 29.7165H28.7957L28.7126 30.0935Z" fill="white"/>
<path d="M28.5262 30.0935H28.6095L28.682 29.7165H28.5901L28.5262 30.0935Z" fill="white"/>
<path d="M28.3398 30.0935H28.4229L28.4764 29.7165H28.3847L28.3398 30.0935Z" fill="white"/>
<path d="M28.0452 30.0935H28.1285L28.1517 29.7165H28.06L28.0452 30.0935Z" fill="white"/>
<path d="M27.8587 30.0935H27.942L27.9462 29.7165H27.8546L27.8587 30.0935Z" fill="white"/>
<path d="M27.6723 30.0935H27.7554L27.7407 29.7165H27.649L27.6723 30.0935Z" fill="white"/>
<path d="M27.378 30.0935H27.4612L27.4163 29.7165H27.3246L27.378 30.0935Z" fill="white"/>
<path d="M27.1916 30.0935H27.2747L27.2108 29.7165H27.1191L27.1916 30.0935Z" fill="white"/>
<path d="M27.005 30.0935H27.088L27.005 29.7165H26.9134L27.005 30.0935Z" fill="white"/>
<path d="M27.139 28.2899H27.2637L27.139 27.9129H27.3241L27.4186 28.2899H27.5433L27.4733 27.9129H27.6588L27.6984 28.2899H27.8229L27.8079 27.9129H27.9934L27.978 28.2899H28.1027L28.1423 27.9129H28.3276L28.2578 28.2899H28.3825L28.4769 27.9129H28.6622L28.5374 28.2899H28.6622L28.6743 28.259V29.4825H27.1268V28.259L27.139 28.2899Z" fill="#2245FF"/>
<path d="M27.1776 25.5543C27.1776 25.597 27.2122 25.6317 27.2552 25.6317H28.5458C28.5884 25.6317 28.6231 25.597 28.6231 25.5543C28.6231 25.5116 28.5884 25.477 28.5458 25.477H27.2552C27.2122 25.477 27.1776 25.5116 27.1776 25.5543Z" fill="#2245FF"/>
<path d="M27.2916 26.1654H28.5094L28.7334 25.8439H27.0675L27.2916 26.1654Z" fill="#0029FF"/>
<path d="M26.8426 35.5343H28.9584V35.3914H26.8426V35.5343Z" fill="#8296FF"/>
<path d="M26.7983 35.9913H29.0024L28.8938 35.5343H26.9069L26.7983 35.9913Z" fill="#3D5CFF"/>
<path d="M26.7327 36.1276H29.0681V35.9913H26.7327V36.1276Z" fill="#E1882A"/>
<path d="M26.6443 36.2638H29.1565V36.1276H26.6443V36.2638Z" fill="#CE7C26"/>
<path d="M26.5308 36.4H29.2702V36.2638H26.5308V36.4Z" fill="#8296FF"/>
<path d="M27.2915 25.6317H28.5093V25.8439H27.2915V25.6317Z" fill="#5E77FF"/>
<path d="M28.5093 27.1912H27.2915V26.1653H28.5093V27.1912Z" fill="#2245FF"/>
<path d="M27.4117 35.119H27.0865V30.6129H27.4117V35.119Z" fill="#8296FF"/>
<path d="M28.0629 35.119H27.7379V30.6129H28.0629V35.119Z" fill="#D47C28"/>
<path d="M28.3886 35.119H28.0636V30.6129H28.3886V35.119Z" fill="#CB7026"/>
<path d="M28.7143 35.119H28.3891V30.6129H28.7143V35.119Z" fill="#BA5E23"/>
<path d="M28.946 27.7958H34.0856V27.9128H28.8145C28.8871 27.9128 28.946 27.8604 28.946 27.7958Z" fill="white"/>
<path d="M28.6741 28.2592L28.6954 28.2054H34.3196L34.1399 28.5564H28.6741V28.2592Z" fill="#001CB5"/>
<path d="M28.8874 29.7165H28.9824C29.0687 29.7165 29.1384 29.6641 29.1384 29.5995H34.247C34.3072 29.5995 34.3563 29.6473 34.3563 29.7065C34.3563 29.7657 34.3072 29.8136 34.247 29.8136H28.8639L28.8874 29.7165Z" fill="#BEC9FF"/>
<path d="M28.8639 29.8136H34.2491V29.9049H28.8417L28.8639 29.8136Z" fill="#0029FF"/>
<path d="M27.0323 30.6131C27.0323 30.4243 27.0209 30.2431 27.0075 30.0936H27.0052L26.9483 29.8594H21.7388L21.6819 30.0936H21.6796C21.666 30.2431 21.6547 30.4243 21.6547 30.6131H21.6004V35.119H21.6884V35.2553H21.7566V35.3915H21.8444V35.5343H21.78L21.8886 35.9914H21.9543V36.1276H22.0426V36.2638H22.1562V36.4H22.4029H22.4027C22.4027 36.1276 22.2502 36.1276 22.2502 36.1276V33.5214C22.3966 33.5214 22.4039 33.4114 22.4032 33.2816H21.9934V33.0233H22.1753C22.2788 30.6507 24.3435 30.3166 24.3435 30.3166C24.3435 30.3166 26.4081 30.6507 26.5117 33.0233H26.6936V33.2816H26.2839C26.283 33.4114 26.2904 33.5214 26.4369 33.5214V36.1276C26.4369 36.1276 26.2844 36.1276 26.2844 36.4H26.2843H26.5309V36.2638H26.6444V36.1276H26.7327V35.9914H26.7984L26.907 35.5343H26.8426V35.3915H26.9304V35.2553H26.9986V35.119H27.0866V30.6131H27.0323Z" fill="#001CB5"/>
<path d="M22.196 29.4825H21.9987V28.2899H22.196V29.4825Z" fill="#3D5CFF"/>
<path d="M22.8378 29.4825H22.6404V28.2899H22.8378V29.4825Z" fill="#3D5CFF"/>
<path d="M23.4795 29.4825H23.2823V28.2899H23.4795V29.4825Z" fill="#3D5CFF"/>
<path d="M24.1213 29.4825H23.924V28.2899H24.1213V29.4825Z" fill="#3D5CFF"/>
<path d="M24.7629 29.4825H24.5657V28.2899H24.7629V29.4825Z" fill="#3D5CFF"/>
<path d="M25.4048 29.4825H25.2074V28.2899H25.4048V29.4825Z" fill="#3D5CFF"/>
<path d="M26.0463 29.4825H25.8492V28.2899H26.0463V29.4825Z" fill="#3D5CFF"/>
<path d="M26.6881 29.4825H26.4908V28.2899H26.6881V29.4825Z" fill="#3D5CFF"/>
<path d="M21.9934 33.0233H22.5534C22.5534 33.0233 22.5614 33.1569 22.4821 33.1569C22.4821 33.1569 22.5043 33.2816 22.4154 33.2816H21.9934V33.0233Z" fill="#3D5CFF"/>
<path d="M26.6935 33.0233H26.1335C26.1335 33.0233 26.1256 33.1569 26.2047 33.1569C26.2047 33.1569 26.1825 33.2816 26.2716 33.2816H26.6935V33.0233Z" fill="#3D5CFF"/>
<path d="M26.5117 33.0233C26.4081 30.6506 24.3435 30.3166 24.3435 30.3166C24.3435 30.3166 22.2788 30.6506 22.1753 33.0233H22.4076C22.5138 30.9112 24.3435 30.6131 24.3435 30.6131C24.3435 30.6131 26.1732 30.9112 26.2794 33.0233H26.5117Z" fill="#0029FF"/>
<path d="M27.2915 25.6317H27.2552C27.2123 25.6317 27.1777 25.5969 27.1777 25.5543C27.1777 25.5115 27.2123 25.4769 27.2552 25.4769H27.2915V25.1437H21.3954V25.4769H21.4317C21.4746 25.4769 21.5092 25.5115 21.5092 25.5543C21.5092 25.5969 21.4746 25.6317 21.4317 25.6317H21.3954V25.7377H27.2915V25.6317Z" fill="#3D5CFF"/>
<path d="M27.1796 26.0046L27.0727 25.8438H27.2915V25.7376H21.3954V25.8438H21.6194L21.5073 26.0046H27.1796Z" fill="#001CB5"/>
<path d="M21.7004 27.9128H26.9864C26.9138 27.9128 26.8548 27.8604 26.8548 27.7958C26.8548 27.7312 26.9138 27.6788 26.9864 27.6788H27.1777V27.1912H27.2915V26.1654L27.1796 26.0047H21.5073L21.3954 26.1654V27.1912H21.5092V27.6788H21.7004C21.7731 27.6788 21.8321 27.7312 21.8321 27.7958C21.8321 27.8604 21.7731 27.9128 21.7004 27.9128Z" fill="#5E77FF"/>
<path d="M27.1268 28.2899V28.259L27.139 28.2899L26.9897 27.9129H26.9865H21.7005H21.6974L21.548 28.2899L21.5603 28.259V28.2899H27.1268Z" fill="#0029FF"/>
<path d="M26.9135 29.7166H26.8185C26.7324 29.7166 26.6625 29.6642 26.6625 29.5996C26.6625 29.5349 26.7324 29.4825 26.8185 29.4825H21.8686C21.9545 29.4825 22.0244 29.5349 22.0244 29.5996C22.0244 29.6642 21.9545 29.7166 21.8686 29.7166H21.7735L21.7689 29.7356H26.918L26.9135 29.7166Z" fill="#3D5CFF"/>
<path d="M26.918 29.7328H21.7689L21.7388 29.8594H26.9482L26.918 29.7328Z" fill="#0029FF"/>
<path d="M22.4027 36.4C22.4027 36.1276 22.2501 36.1276 22.2501 36.1276V33.5214C22.3965 33.5214 22.4039 33.4114 22.4032 33.2816H21.9934V36.1276H22.0223V36.2638H22.1359V36.4H22.4027Z" fill="#3D5CFF"/>
<path d="M26.2839 33.2816C26.283 33.4114 26.2904 33.5214 26.4369 33.5214V36.1276C26.4369 36.1276 26.2844 36.1276 26.2844 36.4H26.5308V36.2638H26.6444V36.1276H26.6936V33.2816H26.2839Z" fill="#3D5CFF"/>
<path d="M21.9934 30.0349V33.0233H22.1753C22.2787 30.6506 24.3434 30.3166 24.3434 30.3166C24.3434 30.3166 26.408 30.6506 26.5116 33.0233H26.6936V30.0349H21.9934Z" fill="#3D5CFF"/>
<path d="M26.5872 27.4935H22.0998V26.3795H26.5872V27.4935Z" fill="white"/>
<path d="M22.7884 30.5027C22.7884 30.6311 22.6842 30.7354 22.5558 30.7354C22.4273 30.7354 22.3232 30.6311 22.3232 30.5027C22.3232 30.3742 22.4273 30.2701 22.5558 30.2701C22.6842 30.2701 22.7884 30.3742 22.7884 30.5027Z" fill="#0029FF"/>
<path d="M22.6684 30.5028C22.6684 30.5649 22.618 30.6152 22.5558 30.6152C22.4934 30.6152 22.4431 30.5649 22.4431 30.5028C22.4431 30.4404 22.4934 30.3901 22.5558 30.3901C22.618 30.3901 22.6684 30.4404 22.6684 30.5028Z" fill="#5E77FF"/>
<path d="M26.3639 30.5027C26.3639 30.6311 26.2598 30.7354 26.1313 30.7354C26.0027 30.7354 25.8985 30.6311 25.8985 30.5027C25.8985 30.3742 26.0027 30.2701 26.1313 30.2701C26.2598 30.2701 26.3639 30.3742 26.3639 30.5027Z" fill="#0029FF"/>
<path d="M26.2437 30.5028C26.2437 30.5649 26.1934 30.6152 26.1312 30.6152C26.0689 30.6152 26.0186 30.5649 26.0186 30.5028C26.0186 30.4404 26.0689 30.3901 26.1312 30.3901C26.1934 30.3901 26.2437 30.4404 26.2437 30.5028Z" fill="#5E77FF"/>
<path d="M28.7165 35.119H27.0899V30.6129H28.7165V35.119Z" fill="#3D5CFF"/>
<path d="M21.612 35.119H19.9734V30.6129H21.612V35.119Z" fill="#3D5CFF"/>
<path d="M30.448 21.9094C30.448 21.9094 30.8693 21.9356 31.0165 22.1973C31.0165 22.1973 31.181 21.796 31.4339 21.7699C31.4339 21.7699 31.0458 21.7469 31.0327 22.0479C31.0327 22.0479 30.6351 21.7154 30.448 21.9094Z" fill="#001CB5"/>
<path d="M32.5521 23.4275C32.5521 23.4275 33.1716 23.466 33.3879 23.8507C33.3879 23.8507 33.6299 23.2608 34.0018 23.2223C34.0018 23.2223 33.4311 23.1886 33.4119 23.6311C33.4119 23.6311 32.8272 23.1421 32.5521 23.4275Z" fill="#001CB5"/>
<path d="M31.425 20.9981C31.425 20.9981 31.7017 21.1317 31.7288 21.3484C31.7288 21.3484 31.95 21.1234 32.1276 21.1754C32.1276 21.1754 31.8725 21.0532 31.7808 21.2523C31.7808 21.2523 31.6045 20.9189 31.425 20.9981Z" fill="#001CB5"/>
</g>
</g>
<defs>
<clipPath id="clip0_13_18">
<rect width="28.9971" height="28.8874" fill="white" transform="translate(13.0831 13.8354)"/>
</clipPath>
</defs>
</svg>
